%TF.GenerationSoftware,KiCad,Pcbnew,8.0.1*%
%TF.CreationDate,2024-06-09T19:36:17+05:00*%
%TF.ProjectId,bno85,626e6f38-352e-46b6-9963-61645f706362,rev?*%
%TF.SameCoordinates,Original*%
%TF.FileFunction,Drillmap*%
%TF.FilePolarity,Positive*%
%FSLAX45Y45*%
G04 Gerber Fmt 4.5, Leading zero omitted, Abs format (unit mm)*
G04 Created by KiCad (PCBNEW 8.0.1) date 2024-06-09 19:36:17*
%MOMM*%
%LPD*%
G01*
G04 APERTURE LIST*
%ADD10C,0.050000*%
%ADD11C,0.200000*%
%ADD12C,0.100000*%
G04 APERTURE END LIST*
D10*
X23205000Y-9670000D02*
G75*
G02*
X18205000Y-9670000I-2500000J0D01*
G01*
X18205000Y-9670000D02*
G75*
G02*
X23205000Y-9670000I2500000J0D01*
G01*
D11*
D12*
X18314000Y-9625000D02*
X18344000Y-9655000D01*
X18344000Y-9625000D02*
X18314000Y-9655000D01*
X18568000Y-8609000D02*
X18598000Y-8639000D01*
X18598000Y-8609000D02*
X18568000Y-8639000D01*
X18568000Y-8863000D02*
X18598000Y-8893000D01*
X18598000Y-8863000D02*
X18568000Y-8893000D01*
X18568000Y-9117000D02*
X18598000Y-9147000D01*
X18598000Y-9117000D02*
X18568000Y-9147000D01*
X18568000Y-9625000D02*
X18598000Y-9655000D01*
X18598000Y-9625000D02*
X18568000Y-9655000D01*
X18568000Y-10133000D02*
X18598000Y-10163000D01*
X18598000Y-10133000D02*
X18568000Y-10163000D01*
X18568000Y-10387000D02*
X18598000Y-10417000D01*
X18598000Y-10387000D02*
X18568000Y-10417000D01*
X18568000Y-10641000D02*
X18598000Y-10671000D01*
X18598000Y-10641000D02*
X18568000Y-10671000D01*
X18765000Y-8592500D02*
X18795000Y-8622500D01*
X18795000Y-8592500D02*
X18765000Y-8622500D01*
X18822000Y-8355000D02*
X18852000Y-8385000D01*
X18852000Y-8355000D02*
X18822000Y-8385000D01*
X18822000Y-9117000D02*
X18852000Y-9147000D01*
X18852000Y-9117000D02*
X18822000Y-9147000D01*
X18822000Y-9371000D02*
X18852000Y-9401000D01*
X18852000Y-9371000D02*
X18822000Y-9401000D01*
X18822000Y-9879000D02*
X18852000Y-9909000D01*
X18852000Y-9879000D02*
X18822000Y-9909000D01*
X18822000Y-10133000D02*
X18852000Y-10163000D01*
X18852000Y-10133000D02*
X18822000Y-10163000D01*
X18822000Y-10387000D02*
X18852000Y-10417000D01*
X18852000Y-10387000D02*
X18822000Y-10417000D01*
X18822000Y-10641000D02*
X18852000Y-10671000D01*
X18852000Y-10641000D02*
X18822000Y-10671000D01*
X18822000Y-10895000D02*
X18852000Y-10925000D01*
X18852000Y-10895000D02*
X18822000Y-10925000D01*
X19010000Y-9760000D02*
X19040000Y-9790000D01*
X19040000Y-9760000D02*
X19010000Y-9790000D01*
X19076000Y-8355000D02*
X19106000Y-8385000D01*
X19106000Y-8355000D02*
X19076000Y-8385000D01*
X19076000Y-8863000D02*
X19106000Y-8893000D01*
X19106000Y-8863000D02*
X19076000Y-8893000D01*
X19076000Y-10133000D02*
X19106000Y-10163000D01*
X19106000Y-10133000D02*
X19076000Y-10163000D01*
X19076000Y-10387000D02*
X19106000Y-10417000D01*
X19106000Y-10387000D02*
X19076000Y-10417000D01*
X19076000Y-10641000D02*
X19106000Y-10671000D01*
X19106000Y-10641000D02*
X19076000Y-10671000D01*
X19076000Y-10895000D02*
X19106000Y-10925000D01*
X19106000Y-10895000D02*
X19076000Y-10925000D01*
X19135000Y-8535000D02*
X19165000Y-8565000D01*
X19165000Y-8535000D02*
X19135000Y-8565000D01*
X19150000Y-9245000D02*
X19180000Y-9275000D01*
X19180000Y-9245000D02*
X19150000Y-9275000D01*
X19330000Y-7847000D02*
X19360000Y-7877000D01*
X19360000Y-7847000D02*
X19330000Y-7877000D01*
X19330000Y-8101000D02*
X19360000Y-8131000D01*
X19360000Y-8101000D02*
X19330000Y-8131000D01*
X19330000Y-9371000D02*
X19360000Y-9401000D01*
X19360000Y-9371000D02*
X19330000Y-9401000D01*
X19330000Y-9879000D02*
X19360000Y-9909000D01*
X19360000Y-9879000D02*
X19330000Y-9909000D01*
X19330000Y-10133000D02*
X19360000Y-10163000D01*
X19360000Y-10133000D02*
X19330000Y-10163000D01*
X19330000Y-10387000D02*
X19360000Y-10417000D01*
X19360000Y-10387000D02*
X19330000Y-10417000D01*
X19330000Y-10641000D02*
X19360000Y-10671000D01*
X19360000Y-10641000D02*
X19330000Y-10671000D01*
X19330000Y-10895000D02*
X19360000Y-10925000D01*
X19360000Y-10895000D02*
X19330000Y-10925000D01*
X19330000Y-11149000D02*
X19360000Y-11179000D01*
X19360000Y-11149000D02*
X19330000Y-11179000D01*
X19330000Y-11403000D02*
X19360000Y-11433000D01*
X19360000Y-11403000D02*
X19330000Y-11433000D01*
X19584000Y-7593000D02*
X19614000Y-7623000D01*
X19614000Y-7593000D02*
X19584000Y-7623000D01*
X19584000Y-7847000D02*
X19614000Y-7877000D01*
X19614000Y-7847000D02*
X19584000Y-7877000D01*
X19584000Y-8101000D02*
X19614000Y-8131000D01*
X19614000Y-8101000D02*
X19584000Y-8131000D01*
X19584000Y-8355000D02*
X19614000Y-8385000D01*
X19614000Y-8355000D02*
X19584000Y-8385000D01*
X19584000Y-8863000D02*
X19614000Y-8893000D01*
X19614000Y-8863000D02*
X19584000Y-8893000D01*
X19584000Y-9625000D02*
X19614000Y-9655000D01*
X19614000Y-9625000D02*
X19584000Y-9655000D01*
X19584000Y-9879000D02*
X19614000Y-9909000D01*
X19614000Y-9879000D02*
X19584000Y-9909000D01*
X19584000Y-10133000D02*
X19614000Y-10163000D01*
X19614000Y-10133000D02*
X19584000Y-10163000D01*
X19584000Y-10387000D02*
X19614000Y-10417000D01*
X19614000Y-10387000D02*
X19584000Y-10417000D01*
X19584000Y-10641000D02*
X19614000Y-10671000D01*
X19614000Y-10641000D02*
X19584000Y-10671000D01*
X19584000Y-10895000D02*
X19614000Y-10925000D01*
X19614000Y-10895000D02*
X19584000Y-10925000D01*
X19584000Y-11149000D02*
X19614000Y-11179000D01*
X19614000Y-11149000D02*
X19584000Y-11179000D01*
X19584000Y-11403000D02*
X19614000Y-11433000D01*
X19614000Y-11403000D02*
X19584000Y-11433000D01*
X19584000Y-11657000D02*
X19614000Y-11687000D01*
X19614000Y-11657000D02*
X19584000Y-11687000D01*
X19838000Y-7593000D02*
X19868000Y-7623000D01*
X19868000Y-7593000D02*
X19838000Y-7623000D01*
X19838000Y-7847000D02*
X19868000Y-7877000D01*
X19868000Y-7847000D02*
X19838000Y-7877000D01*
X19838000Y-8101000D02*
X19868000Y-8131000D01*
X19868000Y-8101000D02*
X19838000Y-8131000D01*
X19838000Y-8355000D02*
X19868000Y-8385000D01*
X19868000Y-8355000D02*
X19838000Y-8385000D01*
X19838000Y-9117000D02*
X19868000Y-9147000D01*
X19868000Y-9117000D02*
X19838000Y-9147000D01*
X19838000Y-9371000D02*
X19868000Y-9401000D01*
X19868000Y-9371000D02*
X19838000Y-9401000D01*
X19838000Y-9625000D02*
X19868000Y-9655000D01*
X19868000Y-9625000D02*
X19838000Y-9655000D01*
X19838000Y-9879000D02*
X19868000Y-9909000D01*
X19868000Y-9879000D02*
X19838000Y-9909000D01*
X19838000Y-10133000D02*
X19868000Y-10163000D01*
X19868000Y-10133000D02*
X19838000Y-10163000D01*
X19838000Y-10387000D02*
X19868000Y-10417000D01*
X19868000Y-10387000D02*
X19838000Y-10417000D01*
X19838000Y-10641000D02*
X19868000Y-10671000D01*
X19868000Y-10641000D02*
X19838000Y-10671000D01*
X19838000Y-10895000D02*
X19868000Y-10925000D01*
X19868000Y-10895000D02*
X19838000Y-10925000D01*
X19838000Y-11149000D02*
X19868000Y-11179000D01*
X19868000Y-11149000D02*
X19838000Y-11179000D01*
X19838000Y-11403000D02*
X19868000Y-11433000D01*
X19868000Y-11403000D02*
X19838000Y-11433000D01*
X19838000Y-11657000D02*
X19868000Y-11687000D01*
X19868000Y-11657000D02*
X19838000Y-11687000D01*
X20092000Y-7593000D02*
X20122000Y-7623000D01*
X20122000Y-7593000D02*
X20092000Y-7623000D01*
X20092000Y-7847000D02*
X20122000Y-7877000D01*
X20122000Y-7847000D02*
X20092000Y-7877000D01*
X20092000Y-8101000D02*
X20122000Y-8131000D01*
X20122000Y-8101000D02*
X20092000Y-8131000D01*
X20092000Y-9117000D02*
X20122000Y-9147000D01*
X20122000Y-9117000D02*
X20092000Y-9147000D01*
X20092000Y-9371000D02*
X20122000Y-9401000D01*
X20122000Y-9371000D02*
X20092000Y-9401000D01*
X20092000Y-9625000D02*
X20122000Y-9655000D01*
X20122000Y-9625000D02*
X20092000Y-9655000D01*
X20092000Y-9879000D02*
X20122000Y-9909000D01*
X20122000Y-9879000D02*
X20092000Y-9909000D01*
X20092000Y-10133000D02*
X20122000Y-10163000D01*
X20122000Y-10133000D02*
X20092000Y-10163000D01*
X20092000Y-10387000D02*
X20122000Y-10417000D01*
X20122000Y-10387000D02*
X20092000Y-10417000D01*
X20092000Y-10641000D02*
X20122000Y-10671000D01*
X20122000Y-10641000D02*
X20092000Y-10671000D01*
X20092000Y-10895000D02*
X20122000Y-10925000D01*
X20122000Y-10895000D02*
X20092000Y-10925000D01*
X20092000Y-11149000D02*
X20122000Y-11179000D01*
X20122000Y-11149000D02*
X20092000Y-11179000D01*
X20092000Y-11403000D02*
X20122000Y-11433000D01*
X20122000Y-11403000D02*
X20092000Y-11433000D01*
X20092000Y-11657000D02*
X20122000Y-11687000D01*
X20122000Y-11657000D02*
X20092000Y-11687000D01*
X20092000Y-11911000D02*
X20122000Y-11941000D01*
X20122000Y-11911000D02*
X20092000Y-11941000D01*
X20235000Y-8310000D02*
X20265000Y-8340000D01*
X20265000Y-8310000D02*
X20235000Y-8340000D01*
X20346000Y-7339000D02*
X20376000Y-7369000D01*
X20376000Y-7339000D02*
X20346000Y-7369000D01*
X20346000Y-7593000D02*
X20376000Y-7623000D01*
X20376000Y-7593000D02*
X20346000Y-7623000D01*
X20346000Y-7847000D02*
X20376000Y-7877000D01*
X20376000Y-7847000D02*
X20346000Y-7877000D01*
X20346000Y-8101000D02*
X20376000Y-8131000D01*
X20376000Y-8101000D02*
X20346000Y-8131000D01*
X20346000Y-9625000D02*
X20376000Y-9655000D01*
X20376000Y-9625000D02*
X20346000Y-9655000D01*
X20346000Y-9879000D02*
X20376000Y-9909000D01*
X20376000Y-9879000D02*
X20346000Y-9909000D01*
X20346000Y-10133000D02*
X20376000Y-10163000D01*
X20376000Y-10133000D02*
X20346000Y-10163000D01*
X20346000Y-10387000D02*
X20376000Y-10417000D01*
X20376000Y-10387000D02*
X20346000Y-10417000D01*
X20346000Y-10641000D02*
X20376000Y-10671000D01*
X20376000Y-10641000D02*
X20346000Y-10671000D01*
X20346000Y-10895000D02*
X20376000Y-10925000D01*
X20376000Y-10895000D02*
X20346000Y-10925000D01*
X20346000Y-11149000D02*
X20376000Y-11179000D01*
X20376000Y-11149000D02*
X20346000Y-11179000D01*
X20346000Y-11403000D02*
X20376000Y-11433000D01*
X20376000Y-11403000D02*
X20346000Y-11433000D01*
X20346000Y-11657000D02*
X20376000Y-11687000D01*
X20376000Y-11657000D02*
X20346000Y-11687000D01*
X20346000Y-11911000D02*
X20376000Y-11941000D01*
X20376000Y-11911000D02*
X20346000Y-11941000D01*
X20600000Y-7339000D02*
X20630000Y-7369000D01*
X20630000Y-7339000D02*
X20600000Y-7369000D01*
X20600000Y-7593000D02*
X20630000Y-7623000D01*
X20630000Y-7593000D02*
X20600000Y-7623000D01*
X20600000Y-7847000D02*
X20630000Y-7877000D01*
X20630000Y-7847000D02*
X20600000Y-7877000D01*
X20600000Y-8101000D02*
X20630000Y-8131000D01*
X20630000Y-8101000D02*
X20600000Y-8131000D01*
X20600000Y-8355000D02*
X20630000Y-8385000D01*
X20630000Y-8355000D02*
X20600000Y-8385000D01*
X20600000Y-11149000D02*
X20630000Y-11179000D01*
X20630000Y-11149000D02*
X20600000Y-11179000D01*
X20600000Y-11403000D02*
X20630000Y-11433000D01*
X20630000Y-11403000D02*
X20600000Y-11433000D01*
X20600000Y-11657000D02*
X20630000Y-11687000D01*
X20630000Y-11657000D02*
X20600000Y-11687000D01*
X20600000Y-11911000D02*
X20630000Y-11941000D01*
X20630000Y-11911000D02*
X20600000Y-11941000D01*
X20854000Y-7339000D02*
X20884000Y-7369000D01*
X20884000Y-7339000D02*
X20854000Y-7369000D01*
X20854000Y-7593000D02*
X20884000Y-7623000D01*
X20884000Y-7593000D02*
X20854000Y-7623000D01*
X20854000Y-7847000D02*
X20884000Y-7877000D01*
X20884000Y-7847000D02*
X20854000Y-7877000D01*
X20854000Y-8101000D02*
X20884000Y-8131000D01*
X20884000Y-8101000D02*
X20854000Y-8131000D01*
X20854000Y-8355000D02*
X20884000Y-8385000D01*
X20884000Y-8355000D02*
X20854000Y-8385000D01*
X20854000Y-11149000D02*
X20884000Y-11179000D01*
X20884000Y-11149000D02*
X20854000Y-11179000D01*
X20854000Y-11403000D02*
X20884000Y-11433000D01*
X20884000Y-11403000D02*
X20854000Y-11433000D01*
X20854000Y-11657000D02*
X20884000Y-11687000D01*
X20884000Y-11657000D02*
X20854000Y-11687000D01*
X20854000Y-11911000D02*
X20884000Y-11941000D01*
X20884000Y-11911000D02*
X20854000Y-11941000D01*
X20935000Y-8910000D02*
X20965000Y-8940000D01*
X20965000Y-8910000D02*
X20935000Y-8940000D01*
X21108000Y-7339000D02*
X21138000Y-7369000D01*
X21138000Y-7339000D02*
X21108000Y-7369000D01*
X21108000Y-7593000D02*
X21138000Y-7623000D01*
X21138000Y-7593000D02*
X21108000Y-7623000D01*
X21108000Y-7847000D02*
X21138000Y-7877000D01*
X21138000Y-7847000D02*
X21108000Y-7877000D01*
X21108000Y-8101000D02*
X21138000Y-8131000D01*
X21138000Y-8101000D02*
X21108000Y-8131000D01*
X21108000Y-8355000D02*
X21138000Y-8385000D01*
X21138000Y-8355000D02*
X21108000Y-8385000D01*
X21108000Y-9371000D02*
X21138000Y-9401000D01*
X21138000Y-9371000D02*
X21108000Y-9401000D01*
X21108000Y-9625000D02*
X21138000Y-9655000D01*
X21138000Y-9625000D02*
X21108000Y-9655000D01*
X21108000Y-10387000D02*
X21138000Y-10417000D01*
X21138000Y-10387000D02*
X21108000Y-10417000D01*
X21108000Y-11149000D02*
X21138000Y-11179000D01*
X21138000Y-11149000D02*
X21108000Y-11179000D01*
X21108000Y-11403000D02*
X21138000Y-11433000D01*
X21138000Y-11403000D02*
X21108000Y-11433000D01*
X21108000Y-11657000D02*
X21138000Y-11687000D01*
X21138000Y-11657000D02*
X21108000Y-11687000D01*
X21108000Y-11911000D02*
X21138000Y-11941000D01*
X21138000Y-11911000D02*
X21108000Y-11941000D01*
X21362000Y-7593000D02*
X21392000Y-7623000D01*
X21392000Y-7593000D02*
X21362000Y-7623000D01*
X21362000Y-7847000D02*
X21392000Y-7877000D01*
X21392000Y-7847000D02*
X21362000Y-7877000D01*
X21362000Y-8101000D02*
X21392000Y-8131000D01*
X21392000Y-8101000D02*
X21362000Y-8131000D01*
X21362000Y-8355000D02*
X21392000Y-8385000D01*
X21392000Y-8355000D02*
X21362000Y-8385000D01*
X21362000Y-9625000D02*
X21392000Y-9655000D01*
X21392000Y-9625000D02*
X21362000Y-9655000D01*
X21362000Y-9879000D02*
X21392000Y-9909000D01*
X21392000Y-9879000D02*
X21362000Y-9909000D01*
X21362000Y-11149000D02*
X21392000Y-11179000D01*
X21392000Y-11149000D02*
X21362000Y-11179000D01*
X21362000Y-11403000D02*
X21392000Y-11433000D01*
X21392000Y-11403000D02*
X21362000Y-11433000D01*
X21362000Y-11657000D02*
X21392000Y-11687000D01*
X21392000Y-11657000D02*
X21362000Y-11687000D01*
X21362000Y-11911000D02*
X21392000Y-11941000D01*
X21392000Y-11911000D02*
X21362000Y-11941000D01*
X21425000Y-10035000D02*
X21455000Y-10065000D01*
X21455000Y-10035000D02*
X21425000Y-10065000D01*
X21485000Y-9745000D02*
X21515000Y-9775000D01*
X21515000Y-9745000D02*
X21485000Y-9775000D01*
X21616000Y-7593000D02*
X21646000Y-7623000D01*
X21646000Y-7593000D02*
X21616000Y-7623000D01*
X21616000Y-7847000D02*
X21646000Y-7877000D01*
X21646000Y-7847000D02*
X21616000Y-7877000D01*
X21616000Y-8101000D02*
X21646000Y-8131000D01*
X21646000Y-8101000D02*
X21616000Y-8131000D01*
X21616000Y-8355000D02*
X21646000Y-8385000D01*
X21646000Y-8355000D02*
X21616000Y-8385000D01*
X21616000Y-8609000D02*
X21646000Y-8639000D01*
X21646000Y-8609000D02*
X21616000Y-8639000D01*
X21616000Y-10641000D02*
X21646000Y-10671000D01*
X21646000Y-10641000D02*
X21616000Y-10671000D01*
X21616000Y-11149000D02*
X21646000Y-11179000D01*
X21646000Y-11149000D02*
X21616000Y-11179000D01*
X21616000Y-11403000D02*
X21646000Y-11433000D01*
X21646000Y-11403000D02*
X21616000Y-11433000D01*
X21616000Y-11657000D02*
X21646000Y-11687000D01*
X21646000Y-11657000D02*
X21616000Y-11687000D01*
X21760000Y-10010000D02*
X21790000Y-10040000D01*
X21790000Y-10010000D02*
X21760000Y-10040000D01*
X21870000Y-7593000D02*
X21900000Y-7623000D01*
X21900000Y-7593000D02*
X21870000Y-7623000D01*
X21870000Y-7847000D02*
X21900000Y-7877000D01*
X21900000Y-7847000D02*
X21870000Y-7877000D01*
X21870000Y-8101000D02*
X21900000Y-8131000D01*
X21900000Y-8101000D02*
X21870000Y-8131000D01*
X21870000Y-8355000D02*
X21900000Y-8385000D01*
X21900000Y-8355000D02*
X21870000Y-8385000D01*
X21870000Y-8609000D02*
X21900000Y-8639000D01*
X21900000Y-8609000D02*
X21870000Y-8639000D01*
X21870000Y-8863000D02*
X21900000Y-8893000D01*
X21900000Y-8863000D02*
X21870000Y-8893000D01*
X21870000Y-10641000D02*
X21900000Y-10671000D01*
X21900000Y-10641000D02*
X21870000Y-10671000D01*
X21870000Y-11149000D02*
X21900000Y-11179000D01*
X21900000Y-11149000D02*
X21870000Y-11179000D01*
X21870000Y-11403000D02*
X21900000Y-11433000D01*
X21900000Y-11403000D02*
X21870000Y-11433000D01*
X21870000Y-11657000D02*
X21900000Y-11687000D01*
X21900000Y-11657000D02*
X21870000Y-11687000D01*
X22034395Y-9610757D02*
X22064395Y-9640757D01*
X22064395Y-9610757D02*
X22034395Y-9640757D01*
X22124000Y-7847000D02*
X22154000Y-7877000D01*
X22154000Y-7847000D02*
X22124000Y-7877000D01*
X22124000Y-8355000D02*
X22154000Y-8385000D01*
X22154000Y-8355000D02*
X22124000Y-8385000D01*
X22124000Y-8609000D02*
X22154000Y-8639000D01*
X22154000Y-8609000D02*
X22124000Y-8639000D01*
X22124000Y-8863000D02*
X22154000Y-8893000D01*
X22154000Y-8863000D02*
X22124000Y-8893000D01*
X22235000Y-9085000D02*
X22265000Y-9115000D01*
X22265000Y-9085000D02*
X22235000Y-9115000D01*
X22378000Y-8355000D02*
X22408000Y-8385000D01*
X22408000Y-8355000D02*
X22378000Y-8385000D01*
X22378000Y-8609000D02*
X22408000Y-8639000D01*
X22408000Y-8609000D02*
X22378000Y-8639000D01*
X22378000Y-8863000D02*
X22408000Y-8893000D01*
X22408000Y-8863000D02*
X22378000Y-8893000D01*
X22378000Y-10641000D02*
X22408000Y-10671000D01*
X22408000Y-10641000D02*
X22378000Y-10671000D01*
X22632000Y-8355000D02*
X22662000Y-8385000D01*
X22662000Y-8355000D02*
X22632000Y-8385000D01*
X22632000Y-8609000D02*
X22662000Y-8639000D01*
X22662000Y-8609000D02*
X22632000Y-8639000D01*
X22632000Y-9117000D02*
X22662000Y-9147000D01*
X22662000Y-9117000D02*
X22632000Y-9147000D01*
X22660000Y-9560000D02*
X22690000Y-9590000D01*
X22690000Y-9560000D02*
X22660000Y-9590000D01*
X22660000Y-9985000D02*
X22690000Y-10015000D01*
X22690000Y-9985000D02*
X22660000Y-10015000D01*
X22886000Y-9117000D02*
X22916000Y-9147000D01*
X22916000Y-9117000D02*
X22886000Y-9147000D01*
X20755000Y-8654000D02*
G75*
G02*
X20655000Y-8654000I-50000J0D01*
G01*
X20655000Y-8654000D02*
G75*
G02*
X20755000Y-8654000I50000J0D01*
G01*
X20755000Y-8908000D02*
G75*
G02*
X20655000Y-8908000I-50000J0D01*
G01*
X20655000Y-8908000D02*
G75*
G02*
X20755000Y-8908000I50000J0D01*
G01*
X20755000Y-9162000D02*
G75*
G02*
X20655000Y-9162000I-50000J0D01*
G01*
X20655000Y-9162000D02*
G75*
G02*
X20755000Y-9162000I50000J0D01*
G01*
X20755000Y-9416000D02*
G75*
G02*
X20655000Y-9416000I-50000J0D01*
G01*
X20655000Y-9416000D02*
G75*
G02*
X20755000Y-9416000I50000J0D01*
G01*
X20755000Y-9670000D02*
G75*
G02*
X20655000Y-9670000I-50000J0D01*
G01*
X20655000Y-9670000D02*
G75*
G02*
X20755000Y-9670000I50000J0D01*
G01*
X20755000Y-9924000D02*
G75*
G02*
X20655000Y-9924000I-50000J0D01*
G01*
X20655000Y-9924000D02*
G75*
G02*
X20755000Y-9924000I50000J0D01*
G01*
X20755000Y-10178000D02*
G75*
G02*
X20655000Y-10178000I-50000J0D01*
G01*
X20655000Y-10178000D02*
G75*
G02*
X20755000Y-10178000I50000J0D01*
G01*
X20755000Y-10432000D02*
G75*
G02*
X20655000Y-10432000I-50000J0D01*
G01*
X20655000Y-10432000D02*
G75*
G02*
X20755000Y-10432000I50000J0D01*
G01*
X20755000Y-10686000D02*
G75*
G02*
X20655000Y-10686000I-50000J0D01*
G01*
X20655000Y-10686000D02*
G75*
G02*
X20755000Y-10686000I50000J0D01*
G01*
X20755000Y-10940000D02*
G75*
G02*
X20655000Y-10940000I-50000J0D01*
G01*
X20655000Y-10940000D02*
G75*
G02*
X20755000Y-10940000I50000J0D01*
G01*
D11*
X18463277Y-12483984D02*
X18463277Y-12283984D01*
X18463277Y-12283984D02*
X18510896Y-12283984D01*
X18510896Y-12283984D02*
X18539467Y-12293508D01*
X18539467Y-12293508D02*
X18558515Y-12312555D01*
X18558515Y-12312555D02*
X18568039Y-12331603D01*
X18568039Y-12331603D02*
X18577563Y-12369698D01*
X18577563Y-12369698D02*
X18577563Y-12398269D01*
X18577563Y-12398269D02*
X18568039Y-12436365D01*
X18568039Y-12436365D02*
X18558515Y-12455412D01*
X18558515Y-12455412D02*
X18539467Y-12474460D01*
X18539467Y-12474460D02*
X18510896Y-12483984D01*
X18510896Y-12483984D02*
X18463277Y-12483984D01*
X18663277Y-12483984D02*
X18663277Y-12350650D01*
X18663277Y-12388746D02*
X18672801Y-12369698D01*
X18672801Y-12369698D02*
X18682324Y-12360174D01*
X18682324Y-12360174D02*
X18701372Y-12350650D01*
X18701372Y-12350650D02*
X18720420Y-12350650D01*
X18787086Y-12483984D02*
X18787086Y-12350650D01*
X18787086Y-12283984D02*
X18777563Y-12293508D01*
X18777563Y-12293508D02*
X18787086Y-12303031D01*
X18787086Y-12303031D02*
X18796610Y-12293508D01*
X18796610Y-12293508D02*
X18787086Y-12283984D01*
X18787086Y-12283984D02*
X18787086Y-12303031D01*
X18910896Y-12483984D02*
X18891848Y-12474460D01*
X18891848Y-12474460D02*
X18882324Y-12455412D01*
X18882324Y-12455412D02*
X18882324Y-12283984D01*
X19015658Y-12483984D02*
X18996610Y-12474460D01*
X18996610Y-12474460D02*
X18987086Y-12455412D01*
X18987086Y-12455412D02*
X18987086Y-12283984D01*
X19244229Y-12483984D02*
X19244229Y-12283984D01*
X19244229Y-12283984D02*
X19310896Y-12426841D01*
X19310896Y-12426841D02*
X19377563Y-12283984D01*
X19377563Y-12283984D02*
X19377563Y-12483984D01*
X19558515Y-12483984D02*
X19558515Y-12379222D01*
X19558515Y-12379222D02*
X19548991Y-12360174D01*
X19548991Y-12360174D02*
X19529944Y-12350650D01*
X19529944Y-12350650D02*
X19491848Y-12350650D01*
X19491848Y-12350650D02*
X19472801Y-12360174D01*
X19558515Y-12474460D02*
X19539467Y-12483984D01*
X19539467Y-12483984D02*
X19491848Y-12483984D01*
X19491848Y-12483984D02*
X19472801Y-12474460D01*
X19472801Y-12474460D02*
X19463277Y-12455412D01*
X19463277Y-12455412D02*
X19463277Y-12436365D01*
X19463277Y-12436365D02*
X19472801Y-12417317D01*
X19472801Y-12417317D02*
X19491848Y-12407793D01*
X19491848Y-12407793D02*
X19539467Y-12407793D01*
X19539467Y-12407793D02*
X19558515Y-12398269D01*
X19653753Y-12350650D02*
X19653753Y-12550650D01*
X19653753Y-12360174D02*
X19672801Y-12350650D01*
X19672801Y-12350650D02*
X19710896Y-12350650D01*
X19710896Y-12350650D02*
X19729944Y-12360174D01*
X19729944Y-12360174D02*
X19739467Y-12369698D01*
X19739467Y-12369698D02*
X19748991Y-12388746D01*
X19748991Y-12388746D02*
X19748991Y-12445888D01*
X19748991Y-12445888D02*
X19739467Y-12464936D01*
X19739467Y-12464936D02*
X19729944Y-12474460D01*
X19729944Y-12474460D02*
X19710896Y-12483984D01*
X19710896Y-12483984D02*
X19672801Y-12483984D01*
X19672801Y-12483984D02*
X19653753Y-12474460D01*
X19834705Y-12464936D02*
X19844229Y-12474460D01*
X19844229Y-12474460D02*
X19834705Y-12483984D01*
X19834705Y-12483984D02*
X19825182Y-12474460D01*
X19825182Y-12474460D02*
X19834705Y-12464936D01*
X19834705Y-12464936D02*
X19834705Y-12483984D01*
X19834705Y-12360174D02*
X19844229Y-12369698D01*
X19844229Y-12369698D02*
X19834705Y-12379222D01*
X19834705Y-12379222D02*
X19825182Y-12369698D01*
X19825182Y-12369698D02*
X19834705Y-12360174D01*
X19834705Y-12360174D02*
X19834705Y-12379222D01*
D12*
X18172500Y-12797500D02*
X18202500Y-12827500D01*
X18202500Y-12797500D02*
X18172500Y-12827500D01*
D11*
X18501372Y-12703984D02*
X18520420Y-12703984D01*
X18520420Y-12703984D02*
X18539467Y-12713508D01*
X18539467Y-12713508D02*
X18548991Y-12723031D01*
X18548991Y-12723031D02*
X18558515Y-12742079D01*
X18558515Y-12742079D02*
X18568039Y-12780174D01*
X18568039Y-12780174D02*
X18568039Y-12827793D01*
X18568039Y-12827793D02*
X18558515Y-12865888D01*
X18558515Y-12865888D02*
X18548991Y-12884936D01*
X18548991Y-12884936D02*
X18539467Y-12894460D01*
X18539467Y-12894460D02*
X18520420Y-12903984D01*
X18520420Y-12903984D02*
X18501372Y-12903984D01*
X18501372Y-12903984D02*
X18482324Y-12894460D01*
X18482324Y-12894460D02*
X18472801Y-12884936D01*
X18472801Y-12884936D02*
X18463277Y-12865888D01*
X18463277Y-12865888D02*
X18453753Y-12827793D01*
X18453753Y-12827793D02*
X18453753Y-12780174D01*
X18453753Y-12780174D02*
X18463277Y-12742079D01*
X18463277Y-12742079D02*
X18472801Y-12723031D01*
X18472801Y-12723031D02*
X18482324Y-12713508D01*
X18482324Y-12713508D02*
X18501372Y-12703984D01*
X18653753Y-12884936D02*
X18663277Y-12894460D01*
X18663277Y-12894460D02*
X18653753Y-12903984D01*
X18653753Y-12903984D02*
X18644229Y-12894460D01*
X18644229Y-12894460D02*
X18653753Y-12884936D01*
X18653753Y-12884936D02*
X18653753Y-12903984D01*
X18729944Y-12703984D02*
X18853753Y-12703984D01*
X18853753Y-12703984D02*
X18787086Y-12780174D01*
X18787086Y-12780174D02*
X18815658Y-12780174D01*
X18815658Y-12780174D02*
X18834705Y-12789698D01*
X18834705Y-12789698D02*
X18844229Y-12799222D01*
X18844229Y-12799222D02*
X18853753Y-12818269D01*
X18853753Y-12818269D02*
X18853753Y-12865888D01*
X18853753Y-12865888D02*
X18844229Y-12884936D01*
X18844229Y-12884936D02*
X18834705Y-12894460D01*
X18834705Y-12894460D02*
X18815658Y-12903984D01*
X18815658Y-12903984D02*
X18758515Y-12903984D01*
X18758515Y-12903984D02*
X18739467Y-12894460D01*
X18739467Y-12894460D02*
X18729944Y-12884936D01*
X18977563Y-12703984D02*
X18996610Y-12703984D01*
X18996610Y-12703984D02*
X19015658Y-12713508D01*
X19015658Y-12713508D02*
X19025182Y-12723031D01*
X19025182Y-12723031D02*
X19034705Y-12742079D01*
X19034705Y-12742079D02*
X19044229Y-12780174D01*
X19044229Y-12780174D02*
X19044229Y-12827793D01*
X19044229Y-12827793D02*
X19034705Y-12865888D01*
X19034705Y-12865888D02*
X19025182Y-12884936D01*
X19025182Y-12884936D02*
X19015658Y-12894460D01*
X19015658Y-12894460D02*
X18996610Y-12903984D01*
X18996610Y-12903984D02*
X18977563Y-12903984D01*
X18977563Y-12903984D02*
X18958515Y-12894460D01*
X18958515Y-12894460D02*
X18948991Y-12884936D01*
X18948991Y-12884936D02*
X18939467Y-12865888D01*
X18939467Y-12865888D02*
X18929944Y-12827793D01*
X18929944Y-12827793D02*
X18929944Y-12780174D01*
X18929944Y-12780174D02*
X18939467Y-12742079D01*
X18939467Y-12742079D02*
X18948991Y-12723031D01*
X18948991Y-12723031D02*
X18958515Y-12713508D01*
X18958515Y-12713508D02*
X18977563Y-12703984D01*
X19168039Y-12703984D02*
X19187086Y-12703984D01*
X19187086Y-12703984D02*
X19206134Y-12713508D01*
X19206134Y-12713508D02*
X19215658Y-12723031D01*
X19215658Y-12723031D02*
X19225182Y-12742079D01*
X19225182Y-12742079D02*
X19234705Y-12780174D01*
X19234705Y-12780174D02*
X19234705Y-12827793D01*
X19234705Y-12827793D02*
X19225182Y-12865888D01*
X19225182Y-12865888D02*
X19215658Y-12884936D01*
X19215658Y-12884936D02*
X19206134Y-12894460D01*
X19206134Y-12894460D02*
X19187086Y-12903984D01*
X19187086Y-12903984D02*
X19168039Y-12903984D01*
X19168039Y-12903984D02*
X19148991Y-12894460D01*
X19148991Y-12894460D02*
X19139467Y-12884936D01*
X19139467Y-12884936D02*
X19129944Y-12865888D01*
X19129944Y-12865888D02*
X19120420Y-12827793D01*
X19120420Y-12827793D02*
X19120420Y-12780174D01*
X19120420Y-12780174D02*
X19129944Y-12742079D01*
X19129944Y-12742079D02*
X19139467Y-12723031D01*
X19139467Y-12723031D02*
X19148991Y-12713508D01*
X19148991Y-12713508D02*
X19168039Y-12703984D01*
X19320420Y-12903984D02*
X19320420Y-12770650D01*
X19320420Y-12789698D02*
X19329944Y-12780174D01*
X19329944Y-12780174D02*
X19348991Y-12770650D01*
X19348991Y-12770650D02*
X19377563Y-12770650D01*
X19377563Y-12770650D02*
X19396610Y-12780174D01*
X19396610Y-12780174D02*
X19406134Y-12799222D01*
X19406134Y-12799222D02*
X19406134Y-12903984D01*
X19406134Y-12799222D02*
X19415658Y-12780174D01*
X19415658Y-12780174D02*
X19434705Y-12770650D01*
X19434705Y-12770650D02*
X19463277Y-12770650D01*
X19463277Y-12770650D02*
X19482325Y-12780174D01*
X19482325Y-12780174D02*
X19491848Y-12799222D01*
X19491848Y-12799222D02*
X19491848Y-12903984D01*
X19587086Y-12903984D02*
X19587086Y-12770650D01*
X19587086Y-12789698D02*
X19596610Y-12780174D01*
X19596610Y-12780174D02*
X19615658Y-12770650D01*
X19615658Y-12770650D02*
X19644229Y-12770650D01*
X19644229Y-12770650D02*
X19663277Y-12780174D01*
X19663277Y-12780174D02*
X19672801Y-12799222D01*
X19672801Y-12799222D02*
X19672801Y-12903984D01*
X19672801Y-12799222D02*
X19682325Y-12780174D01*
X19682325Y-12780174D02*
X19701372Y-12770650D01*
X19701372Y-12770650D02*
X19729944Y-12770650D01*
X19729944Y-12770650D02*
X19748991Y-12780174D01*
X19748991Y-12780174D02*
X19758515Y-12799222D01*
X19758515Y-12799222D02*
X19758515Y-12903984D01*
X20148991Y-12694460D02*
X19977563Y-12951603D01*
X20406134Y-12703984D02*
X20425182Y-12703984D01*
X20425182Y-12703984D02*
X20444229Y-12713508D01*
X20444229Y-12713508D02*
X20453753Y-12723031D01*
X20453753Y-12723031D02*
X20463277Y-12742079D01*
X20463277Y-12742079D02*
X20472801Y-12780174D01*
X20472801Y-12780174D02*
X20472801Y-12827793D01*
X20472801Y-12827793D02*
X20463277Y-12865888D01*
X20463277Y-12865888D02*
X20453753Y-12884936D01*
X20453753Y-12884936D02*
X20444229Y-12894460D01*
X20444229Y-12894460D02*
X20425182Y-12903984D01*
X20425182Y-12903984D02*
X20406134Y-12903984D01*
X20406134Y-12903984D02*
X20387087Y-12894460D01*
X20387087Y-12894460D02*
X20377563Y-12884936D01*
X20377563Y-12884936D02*
X20368039Y-12865888D01*
X20368039Y-12865888D02*
X20358515Y-12827793D01*
X20358515Y-12827793D02*
X20358515Y-12780174D01*
X20358515Y-12780174D02*
X20368039Y-12742079D01*
X20368039Y-12742079D02*
X20377563Y-12723031D01*
X20377563Y-12723031D02*
X20387087Y-12713508D01*
X20387087Y-12713508D02*
X20406134Y-12703984D01*
X20558515Y-12884936D02*
X20568039Y-12894460D01*
X20568039Y-12894460D02*
X20558515Y-12903984D01*
X20558515Y-12903984D02*
X20548991Y-12894460D01*
X20548991Y-12894460D02*
X20558515Y-12884936D01*
X20558515Y-12884936D02*
X20558515Y-12903984D01*
X20691848Y-12703984D02*
X20710896Y-12703984D01*
X20710896Y-12703984D02*
X20729944Y-12713508D01*
X20729944Y-12713508D02*
X20739468Y-12723031D01*
X20739468Y-12723031D02*
X20748991Y-12742079D01*
X20748991Y-12742079D02*
X20758515Y-12780174D01*
X20758515Y-12780174D02*
X20758515Y-12827793D01*
X20758515Y-12827793D02*
X20748991Y-12865888D01*
X20748991Y-12865888D02*
X20739468Y-12884936D01*
X20739468Y-12884936D02*
X20729944Y-12894460D01*
X20729944Y-12894460D02*
X20710896Y-12903984D01*
X20710896Y-12903984D02*
X20691848Y-12903984D01*
X20691848Y-12903984D02*
X20672801Y-12894460D01*
X20672801Y-12894460D02*
X20663277Y-12884936D01*
X20663277Y-12884936D02*
X20653753Y-12865888D01*
X20653753Y-12865888D02*
X20644229Y-12827793D01*
X20644229Y-12827793D02*
X20644229Y-12780174D01*
X20644229Y-12780174D02*
X20653753Y-12742079D01*
X20653753Y-12742079D02*
X20663277Y-12723031D01*
X20663277Y-12723031D02*
X20672801Y-12713508D01*
X20672801Y-12713508D02*
X20691848Y-12703984D01*
X20948991Y-12903984D02*
X20834706Y-12903984D01*
X20891848Y-12903984D02*
X20891848Y-12703984D01*
X20891848Y-12703984D02*
X20872801Y-12732555D01*
X20872801Y-12732555D02*
X20853753Y-12751603D01*
X20853753Y-12751603D02*
X20834706Y-12761127D01*
X21139468Y-12903984D02*
X21025182Y-12903984D01*
X21082325Y-12903984D02*
X21082325Y-12703984D01*
X21082325Y-12703984D02*
X21063277Y-12732555D01*
X21063277Y-12732555D02*
X21044229Y-12751603D01*
X21044229Y-12751603D02*
X21025182Y-12761127D01*
X21253753Y-12789698D02*
X21234706Y-12780174D01*
X21234706Y-12780174D02*
X21225182Y-12770650D01*
X21225182Y-12770650D02*
X21215658Y-12751603D01*
X21215658Y-12751603D02*
X21215658Y-12742079D01*
X21215658Y-12742079D02*
X21225182Y-12723031D01*
X21225182Y-12723031D02*
X21234706Y-12713508D01*
X21234706Y-12713508D02*
X21253753Y-12703984D01*
X21253753Y-12703984D02*
X21291849Y-12703984D01*
X21291849Y-12703984D02*
X21310896Y-12713508D01*
X21310896Y-12713508D02*
X21320420Y-12723031D01*
X21320420Y-12723031D02*
X21329944Y-12742079D01*
X21329944Y-12742079D02*
X21329944Y-12751603D01*
X21329944Y-12751603D02*
X21320420Y-12770650D01*
X21320420Y-12770650D02*
X21310896Y-12780174D01*
X21310896Y-12780174D02*
X21291849Y-12789698D01*
X21291849Y-12789698D02*
X21253753Y-12789698D01*
X21253753Y-12789698D02*
X21234706Y-12799222D01*
X21234706Y-12799222D02*
X21225182Y-12808746D01*
X21225182Y-12808746D02*
X21215658Y-12827793D01*
X21215658Y-12827793D02*
X21215658Y-12865888D01*
X21215658Y-12865888D02*
X21225182Y-12884936D01*
X21225182Y-12884936D02*
X21234706Y-12894460D01*
X21234706Y-12894460D02*
X21253753Y-12903984D01*
X21253753Y-12903984D02*
X21291849Y-12903984D01*
X21291849Y-12903984D02*
X21310896Y-12894460D01*
X21310896Y-12894460D02*
X21320420Y-12884936D01*
X21320420Y-12884936D02*
X21329944Y-12865888D01*
X21329944Y-12865888D02*
X21329944Y-12827793D01*
X21329944Y-12827793D02*
X21320420Y-12808746D01*
X21320420Y-12808746D02*
X21310896Y-12799222D01*
X21310896Y-12799222D02*
X21291849Y-12789698D01*
X21406134Y-12703984D02*
X21406134Y-12742079D01*
X21482325Y-12703984D02*
X21482325Y-12742079D01*
X21777563Y-12980174D02*
X21768039Y-12970650D01*
X21768039Y-12970650D02*
X21748991Y-12942079D01*
X21748991Y-12942079D02*
X21739468Y-12923031D01*
X21739468Y-12923031D02*
X21729944Y-12894460D01*
X21729944Y-12894460D02*
X21720420Y-12846841D01*
X21720420Y-12846841D02*
X21720420Y-12808746D01*
X21720420Y-12808746D02*
X21729944Y-12761127D01*
X21729944Y-12761127D02*
X21739468Y-12732555D01*
X21739468Y-12732555D02*
X21748991Y-12713508D01*
X21748991Y-12713508D02*
X21768039Y-12684936D01*
X21768039Y-12684936D02*
X21777563Y-12675412D01*
X21958515Y-12903984D02*
X21844230Y-12903984D01*
X21901372Y-12903984D02*
X21901372Y-12703984D01*
X21901372Y-12703984D02*
X21882325Y-12732555D01*
X21882325Y-12732555D02*
X21863277Y-12751603D01*
X21863277Y-12751603D02*
X21844230Y-12761127D01*
X22025182Y-12703984D02*
X22158515Y-12703984D01*
X22158515Y-12703984D02*
X22072801Y-12903984D01*
X22320420Y-12770650D02*
X22320420Y-12903984D01*
X22272801Y-12694460D02*
X22225182Y-12837317D01*
X22225182Y-12837317D02*
X22348991Y-12837317D01*
X22577563Y-12903984D02*
X22577563Y-12703984D01*
X22663277Y-12903984D02*
X22663277Y-12799222D01*
X22663277Y-12799222D02*
X22653753Y-12780174D01*
X22653753Y-12780174D02*
X22634706Y-12770650D01*
X22634706Y-12770650D02*
X22606134Y-12770650D01*
X22606134Y-12770650D02*
X22587087Y-12780174D01*
X22587087Y-12780174D02*
X22577563Y-12789698D01*
X22787087Y-12903984D02*
X22768039Y-12894460D01*
X22768039Y-12894460D02*
X22758515Y-12884936D01*
X22758515Y-12884936D02*
X22748991Y-12865888D01*
X22748991Y-12865888D02*
X22748991Y-12808746D01*
X22748991Y-12808746D02*
X22758515Y-12789698D01*
X22758515Y-12789698D02*
X22768039Y-12780174D01*
X22768039Y-12780174D02*
X22787087Y-12770650D01*
X22787087Y-12770650D02*
X22815658Y-12770650D01*
X22815658Y-12770650D02*
X22834706Y-12780174D01*
X22834706Y-12780174D02*
X22844230Y-12789698D01*
X22844230Y-12789698D02*
X22853753Y-12808746D01*
X22853753Y-12808746D02*
X22853753Y-12865888D01*
X22853753Y-12865888D02*
X22844230Y-12884936D01*
X22844230Y-12884936D02*
X22834706Y-12894460D01*
X22834706Y-12894460D02*
X22815658Y-12903984D01*
X22815658Y-12903984D02*
X22787087Y-12903984D01*
X22968039Y-12903984D02*
X22948991Y-12894460D01*
X22948991Y-12894460D02*
X22939468Y-12875412D01*
X22939468Y-12875412D02*
X22939468Y-12703984D01*
X23120420Y-12894460D02*
X23101372Y-12903984D01*
X23101372Y-12903984D02*
X23063277Y-12903984D01*
X23063277Y-12903984D02*
X23044230Y-12894460D01*
X23044230Y-12894460D02*
X23034706Y-12875412D01*
X23034706Y-12875412D02*
X23034706Y-12799222D01*
X23034706Y-12799222D02*
X23044230Y-12780174D01*
X23044230Y-12780174D02*
X23063277Y-12770650D01*
X23063277Y-12770650D02*
X23101372Y-12770650D01*
X23101372Y-12770650D02*
X23120420Y-12780174D01*
X23120420Y-12780174D02*
X23129944Y-12799222D01*
X23129944Y-12799222D02*
X23129944Y-12818269D01*
X23129944Y-12818269D02*
X23034706Y-12837317D01*
X23206134Y-12894460D02*
X23225182Y-12903984D01*
X23225182Y-12903984D02*
X23263277Y-12903984D01*
X23263277Y-12903984D02*
X23282325Y-12894460D01*
X23282325Y-12894460D02*
X23291849Y-12875412D01*
X23291849Y-12875412D02*
X23291849Y-12865888D01*
X23291849Y-12865888D02*
X23282325Y-12846841D01*
X23282325Y-12846841D02*
X23263277Y-12837317D01*
X23263277Y-12837317D02*
X23234706Y-12837317D01*
X23234706Y-12837317D02*
X23215658Y-12827793D01*
X23215658Y-12827793D02*
X23206134Y-12808746D01*
X23206134Y-12808746D02*
X23206134Y-12799222D01*
X23206134Y-12799222D02*
X23215658Y-12780174D01*
X23215658Y-12780174D02*
X23234706Y-12770650D01*
X23234706Y-12770650D02*
X23263277Y-12770650D01*
X23263277Y-12770650D02*
X23282325Y-12780174D01*
X23358515Y-12980174D02*
X23368039Y-12970650D01*
X23368039Y-12970650D02*
X23387087Y-12942079D01*
X23387087Y-12942079D02*
X23396611Y-12923031D01*
X23396611Y-12923031D02*
X23406134Y-12894460D01*
X23406134Y-12894460D02*
X23415658Y-12846841D01*
X23415658Y-12846841D02*
X23415658Y-12808746D01*
X23415658Y-12808746D02*
X23406134Y-12761127D01*
X23406134Y-12761127D02*
X23396611Y-12732555D01*
X23396611Y-12732555D02*
X23387087Y-12713508D01*
X23387087Y-12713508D02*
X23368039Y-12684936D01*
X23368039Y-12684936D02*
X23358515Y-12675412D01*
D12*
X18202500Y-13076500D02*
G75*
G02*
X18102500Y-13076500I-50000J0D01*
G01*
X18102500Y-13076500D02*
G75*
G02*
X18202500Y-13076500I50000J0D01*
G01*
D11*
X18568039Y-13167984D02*
X18453753Y-13167984D01*
X18510896Y-13167984D02*
X18510896Y-12967984D01*
X18510896Y-12967984D02*
X18491848Y-12996555D01*
X18491848Y-12996555D02*
X18472801Y-13015603D01*
X18472801Y-13015603D02*
X18453753Y-13025127D01*
X18653753Y-13148936D02*
X18663277Y-13158460D01*
X18663277Y-13158460D02*
X18653753Y-13167984D01*
X18653753Y-13167984D02*
X18644229Y-13158460D01*
X18644229Y-13158460D02*
X18653753Y-13148936D01*
X18653753Y-13148936D02*
X18653753Y-13167984D01*
X18787086Y-12967984D02*
X18806134Y-12967984D01*
X18806134Y-12967984D02*
X18825182Y-12977508D01*
X18825182Y-12977508D02*
X18834705Y-12987031D01*
X18834705Y-12987031D02*
X18844229Y-13006079D01*
X18844229Y-13006079D02*
X18853753Y-13044174D01*
X18853753Y-13044174D02*
X18853753Y-13091793D01*
X18853753Y-13091793D02*
X18844229Y-13129888D01*
X18844229Y-13129888D02*
X18834705Y-13148936D01*
X18834705Y-13148936D02*
X18825182Y-13158460D01*
X18825182Y-13158460D02*
X18806134Y-13167984D01*
X18806134Y-13167984D02*
X18787086Y-13167984D01*
X18787086Y-13167984D02*
X18768039Y-13158460D01*
X18768039Y-13158460D02*
X18758515Y-13148936D01*
X18758515Y-13148936D02*
X18748991Y-13129888D01*
X18748991Y-13129888D02*
X18739467Y-13091793D01*
X18739467Y-13091793D02*
X18739467Y-13044174D01*
X18739467Y-13044174D02*
X18748991Y-13006079D01*
X18748991Y-13006079D02*
X18758515Y-12987031D01*
X18758515Y-12987031D02*
X18768039Y-12977508D01*
X18768039Y-12977508D02*
X18787086Y-12967984D01*
X18977563Y-12967984D02*
X18996610Y-12967984D01*
X18996610Y-12967984D02*
X19015658Y-12977508D01*
X19015658Y-12977508D02*
X19025182Y-12987031D01*
X19025182Y-12987031D02*
X19034705Y-13006079D01*
X19034705Y-13006079D02*
X19044229Y-13044174D01*
X19044229Y-13044174D02*
X19044229Y-13091793D01*
X19044229Y-13091793D02*
X19034705Y-13129888D01*
X19034705Y-13129888D02*
X19025182Y-13148936D01*
X19025182Y-13148936D02*
X19015658Y-13158460D01*
X19015658Y-13158460D02*
X18996610Y-13167984D01*
X18996610Y-13167984D02*
X18977563Y-13167984D01*
X18977563Y-13167984D02*
X18958515Y-13158460D01*
X18958515Y-13158460D02*
X18948991Y-13148936D01*
X18948991Y-13148936D02*
X18939467Y-13129888D01*
X18939467Y-13129888D02*
X18929944Y-13091793D01*
X18929944Y-13091793D02*
X18929944Y-13044174D01*
X18929944Y-13044174D02*
X18939467Y-13006079D01*
X18939467Y-13006079D02*
X18948991Y-12987031D01*
X18948991Y-12987031D02*
X18958515Y-12977508D01*
X18958515Y-12977508D02*
X18977563Y-12967984D01*
X19168039Y-12967984D02*
X19187086Y-12967984D01*
X19187086Y-12967984D02*
X19206134Y-12977508D01*
X19206134Y-12977508D02*
X19215658Y-12987031D01*
X19215658Y-12987031D02*
X19225182Y-13006079D01*
X19225182Y-13006079D02*
X19234705Y-13044174D01*
X19234705Y-13044174D02*
X19234705Y-13091793D01*
X19234705Y-13091793D02*
X19225182Y-13129888D01*
X19225182Y-13129888D02*
X19215658Y-13148936D01*
X19215658Y-13148936D02*
X19206134Y-13158460D01*
X19206134Y-13158460D02*
X19187086Y-13167984D01*
X19187086Y-13167984D02*
X19168039Y-13167984D01*
X19168039Y-13167984D02*
X19148991Y-13158460D01*
X19148991Y-13158460D02*
X19139467Y-13148936D01*
X19139467Y-13148936D02*
X19129944Y-13129888D01*
X19129944Y-13129888D02*
X19120420Y-13091793D01*
X19120420Y-13091793D02*
X19120420Y-13044174D01*
X19120420Y-13044174D02*
X19129944Y-13006079D01*
X19129944Y-13006079D02*
X19139467Y-12987031D01*
X19139467Y-12987031D02*
X19148991Y-12977508D01*
X19148991Y-12977508D02*
X19168039Y-12967984D01*
X19320420Y-13167984D02*
X19320420Y-13034650D01*
X19320420Y-13053698D02*
X19329944Y-13044174D01*
X19329944Y-13044174D02*
X19348991Y-13034650D01*
X19348991Y-13034650D02*
X19377563Y-13034650D01*
X19377563Y-13034650D02*
X19396610Y-13044174D01*
X19396610Y-13044174D02*
X19406134Y-13063222D01*
X19406134Y-13063222D02*
X19406134Y-13167984D01*
X19406134Y-13063222D02*
X19415658Y-13044174D01*
X19415658Y-13044174D02*
X19434705Y-13034650D01*
X19434705Y-13034650D02*
X19463277Y-13034650D01*
X19463277Y-13034650D02*
X19482325Y-13044174D01*
X19482325Y-13044174D02*
X19491848Y-13063222D01*
X19491848Y-13063222D02*
X19491848Y-13167984D01*
X19587086Y-13167984D02*
X19587086Y-13034650D01*
X19587086Y-13053698D02*
X19596610Y-13044174D01*
X19596610Y-13044174D02*
X19615658Y-13034650D01*
X19615658Y-13034650D02*
X19644229Y-13034650D01*
X19644229Y-13034650D02*
X19663277Y-13044174D01*
X19663277Y-13044174D02*
X19672801Y-13063222D01*
X19672801Y-13063222D02*
X19672801Y-13167984D01*
X19672801Y-13063222D02*
X19682325Y-13044174D01*
X19682325Y-13044174D02*
X19701372Y-13034650D01*
X19701372Y-13034650D02*
X19729944Y-13034650D01*
X19729944Y-13034650D02*
X19748991Y-13044174D01*
X19748991Y-13044174D02*
X19758515Y-13063222D01*
X19758515Y-13063222D02*
X19758515Y-13167984D01*
X20148991Y-12958460D02*
X19977563Y-13215603D01*
X20406134Y-12967984D02*
X20425182Y-12967984D01*
X20425182Y-12967984D02*
X20444229Y-12977508D01*
X20444229Y-12977508D02*
X20453753Y-12987031D01*
X20453753Y-12987031D02*
X20463277Y-13006079D01*
X20463277Y-13006079D02*
X20472801Y-13044174D01*
X20472801Y-13044174D02*
X20472801Y-13091793D01*
X20472801Y-13091793D02*
X20463277Y-13129888D01*
X20463277Y-13129888D02*
X20453753Y-13148936D01*
X20453753Y-13148936D02*
X20444229Y-13158460D01*
X20444229Y-13158460D02*
X20425182Y-13167984D01*
X20425182Y-13167984D02*
X20406134Y-13167984D01*
X20406134Y-13167984D02*
X20387087Y-13158460D01*
X20387087Y-13158460D02*
X20377563Y-13148936D01*
X20377563Y-13148936D02*
X20368039Y-13129888D01*
X20368039Y-13129888D02*
X20358515Y-13091793D01*
X20358515Y-13091793D02*
X20358515Y-13044174D01*
X20358515Y-13044174D02*
X20368039Y-13006079D01*
X20368039Y-13006079D02*
X20377563Y-12987031D01*
X20377563Y-12987031D02*
X20387087Y-12977508D01*
X20387087Y-12977508D02*
X20406134Y-12967984D01*
X20558515Y-13148936D02*
X20568039Y-13158460D01*
X20568039Y-13158460D02*
X20558515Y-13167984D01*
X20558515Y-13167984D02*
X20548991Y-13158460D01*
X20548991Y-13158460D02*
X20558515Y-13148936D01*
X20558515Y-13148936D02*
X20558515Y-13167984D01*
X20691848Y-12967984D02*
X20710896Y-12967984D01*
X20710896Y-12967984D02*
X20729944Y-12977508D01*
X20729944Y-12977508D02*
X20739468Y-12987031D01*
X20739468Y-12987031D02*
X20748991Y-13006079D01*
X20748991Y-13006079D02*
X20758515Y-13044174D01*
X20758515Y-13044174D02*
X20758515Y-13091793D01*
X20758515Y-13091793D02*
X20748991Y-13129888D01*
X20748991Y-13129888D02*
X20739468Y-13148936D01*
X20739468Y-13148936D02*
X20729944Y-13158460D01*
X20729944Y-13158460D02*
X20710896Y-13167984D01*
X20710896Y-13167984D02*
X20691848Y-13167984D01*
X20691848Y-13167984D02*
X20672801Y-13158460D01*
X20672801Y-13158460D02*
X20663277Y-13148936D01*
X20663277Y-13148936D02*
X20653753Y-13129888D01*
X20653753Y-13129888D02*
X20644229Y-13091793D01*
X20644229Y-13091793D02*
X20644229Y-13044174D01*
X20644229Y-13044174D02*
X20653753Y-13006079D01*
X20653753Y-13006079D02*
X20663277Y-12987031D01*
X20663277Y-12987031D02*
X20672801Y-12977508D01*
X20672801Y-12977508D02*
X20691848Y-12967984D01*
X20825182Y-12967984D02*
X20948991Y-12967984D01*
X20948991Y-12967984D02*
X20882325Y-13044174D01*
X20882325Y-13044174D02*
X20910896Y-13044174D01*
X20910896Y-13044174D02*
X20929944Y-13053698D01*
X20929944Y-13053698D02*
X20939468Y-13063222D01*
X20939468Y-13063222D02*
X20948991Y-13082269D01*
X20948991Y-13082269D02*
X20948991Y-13129888D01*
X20948991Y-13129888D02*
X20939468Y-13148936D01*
X20939468Y-13148936D02*
X20929944Y-13158460D01*
X20929944Y-13158460D02*
X20910896Y-13167984D01*
X20910896Y-13167984D02*
X20853753Y-13167984D01*
X20853753Y-13167984D02*
X20834706Y-13158460D01*
X20834706Y-13158460D02*
X20825182Y-13148936D01*
X21044229Y-13167984D02*
X21082325Y-13167984D01*
X21082325Y-13167984D02*
X21101372Y-13158460D01*
X21101372Y-13158460D02*
X21110896Y-13148936D01*
X21110896Y-13148936D02*
X21129944Y-13120365D01*
X21129944Y-13120365D02*
X21139468Y-13082269D01*
X21139468Y-13082269D02*
X21139468Y-13006079D01*
X21139468Y-13006079D02*
X21129944Y-12987031D01*
X21129944Y-12987031D02*
X21120420Y-12977508D01*
X21120420Y-12977508D02*
X21101372Y-12967984D01*
X21101372Y-12967984D02*
X21063277Y-12967984D01*
X21063277Y-12967984D02*
X21044229Y-12977508D01*
X21044229Y-12977508D02*
X21034706Y-12987031D01*
X21034706Y-12987031D02*
X21025182Y-13006079D01*
X21025182Y-13006079D02*
X21025182Y-13053698D01*
X21025182Y-13053698D02*
X21034706Y-13072746D01*
X21034706Y-13072746D02*
X21044229Y-13082269D01*
X21044229Y-13082269D02*
X21063277Y-13091793D01*
X21063277Y-13091793D02*
X21101372Y-13091793D01*
X21101372Y-13091793D02*
X21120420Y-13082269D01*
X21120420Y-13082269D02*
X21129944Y-13072746D01*
X21129944Y-13072746D02*
X21139468Y-13053698D01*
X21310896Y-13034650D02*
X21310896Y-13167984D01*
X21263277Y-12958460D02*
X21215658Y-13101317D01*
X21215658Y-13101317D02*
X21339468Y-13101317D01*
X21406134Y-12967984D02*
X21406134Y-13006079D01*
X21482325Y-12967984D02*
X21482325Y-13006079D01*
X21777563Y-13244174D02*
X21768039Y-13234650D01*
X21768039Y-13234650D02*
X21748991Y-13206079D01*
X21748991Y-13206079D02*
X21739468Y-13187031D01*
X21739468Y-13187031D02*
X21729944Y-13158460D01*
X21729944Y-13158460D02*
X21720420Y-13110841D01*
X21720420Y-13110841D02*
X21720420Y-13072746D01*
X21720420Y-13072746D02*
X21729944Y-13025127D01*
X21729944Y-13025127D02*
X21739468Y-12996555D01*
X21739468Y-12996555D02*
X21748991Y-12977508D01*
X21748991Y-12977508D02*
X21768039Y-12948936D01*
X21768039Y-12948936D02*
X21777563Y-12939412D01*
X21958515Y-13167984D02*
X21844230Y-13167984D01*
X21901372Y-13167984D02*
X21901372Y-12967984D01*
X21901372Y-12967984D02*
X21882325Y-12996555D01*
X21882325Y-12996555D02*
X21863277Y-13015603D01*
X21863277Y-13015603D02*
X21844230Y-13025127D01*
X22082325Y-12967984D02*
X22101372Y-12967984D01*
X22101372Y-12967984D02*
X22120420Y-12977508D01*
X22120420Y-12977508D02*
X22129944Y-12987031D01*
X22129944Y-12987031D02*
X22139468Y-13006079D01*
X22139468Y-13006079D02*
X22148991Y-13044174D01*
X22148991Y-13044174D02*
X22148991Y-13091793D01*
X22148991Y-13091793D02*
X22139468Y-13129888D01*
X22139468Y-13129888D02*
X22129944Y-13148936D01*
X22129944Y-13148936D02*
X22120420Y-13158460D01*
X22120420Y-13158460D02*
X22101372Y-13167984D01*
X22101372Y-13167984D02*
X22082325Y-13167984D01*
X22082325Y-13167984D02*
X22063277Y-13158460D01*
X22063277Y-13158460D02*
X22053753Y-13148936D01*
X22053753Y-13148936D02*
X22044230Y-13129888D01*
X22044230Y-13129888D02*
X22034706Y-13091793D01*
X22034706Y-13091793D02*
X22034706Y-13044174D01*
X22034706Y-13044174D02*
X22044230Y-13006079D01*
X22044230Y-13006079D02*
X22053753Y-12987031D01*
X22053753Y-12987031D02*
X22063277Y-12977508D01*
X22063277Y-12977508D02*
X22082325Y-12967984D01*
X22387087Y-13167984D02*
X22387087Y-12967984D01*
X22472801Y-13167984D02*
X22472801Y-13063222D01*
X22472801Y-13063222D02*
X22463277Y-13044174D01*
X22463277Y-13044174D02*
X22444230Y-13034650D01*
X22444230Y-13034650D02*
X22415658Y-13034650D01*
X22415658Y-13034650D02*
X22396610Y-13044174D01*
X22396610Y-13044174D02*
X22387087Y-13053698D01*
X22596610Y-13167984D02*
X22577563Y-13158460D01*
X22577563Y-13158460D02*
X22568039Y-13148936D01*
X22568039Y-13148936D02*
X22558515Y-13129888D01*
X22558515Y-13129888D02*
X22558515Y-13072746D01*
X22558515Y-13072746D02*
X22568039Y-13053698D01*
X22568039Y-13053698D02*
X22577563Y-13044174D01*
X22577563Y-13044174D02*
X22596610Y-13034650D01*
X22596610Y-13034650D02*
X22625182Y-13034650D01*
X22625182Y-13034650D02*
X22644230Y-13044174D01*
X22644230Y-13044174D02*
X22653753Y-13053698D01*
X22653753Y-13053698D02*
X22663277Y-13072746D01*
X22663277Y-13072746D02*
X22663277Y-13129888D01*
X22663277Y-13129888D02*
X22653753Y-13148936D01*
X22653753Y-13148936D02*
X22644230Y-13158460D01*
X22644230Y-13158460D02*
X22625182Y-13167984D01*
X22625182Y-13167984D02*
X22596610Y-13167984D01*
X22777563Y-13167984D02*
X22758515Y-13158460D01*
X22758515Y-13158460D02*
X22748991Y-13139412D01*
X22748991Y-13139412D02*
X22748991Y-12967984D01*
X22929944Y-13158460D02*
X22910896Y-13167984D01*
X22910896Y-13167984D02*
X22872801Y-13167984D01*
X22872801Y-13167984D02*
X22853753Y-13158460D01*
X22853753Y-13158460D02*
X22844230Y-13139412D01*
X22844230Y-13139412D02*
X22844230Y-13063222D01*
X22844230Y-13063222D02*
X22853753Y-13044174D01*
X22853753Y-13044174D02*
X22872801Y-13034650D01*
X22872801Y-13034650D02*
X22910896Y-13034650D01*
X22910896Y-13034650D02*
X22929944Y-13044174D01*
X22929944Y-13044174D02*
X22939468Y-13063222D01*
X22939468Y-13063222D02*
X22939468Y-13082269D01*
X22939468Y-13082269D02*
X22844230Y-13101317D01*
X23015658Y-13158460D02*
X23034706Y-13167984D01*
X23034706Y-13167984D02*
X23072801Y-13167984D01*
X23072801Y-13167984D02*
X23091849Y-13158460D01*
X23091849Y-13158460D02*
X23101372Y-13139412D01*
X23101372Y-13139412D02*
X23101372Y-13129888D01*
X23101372Y-13129888D02*
X23091849Y-13110841D01*
X23091849Y-13110841D02*
X23072801Y-13101317D01*
X23072801Y-13101317D02*
X23044230Y-13101317D01*
X23044230Y-13101317D02*
X23025182Y-13091793D01*
X23025182Y-13091793D02*
X23015658Y-13072746D01*
X23015658Y-13072746D02*
X23015658Y-13063222D01*
X23015658Y-13063222D02*
X23025182Y-13044174D01*
X23025182Y-13044174D02*
X23044230Y-13034650D01*
X23044230Y-13034650D02*
X23072801Y-13034650D01*
X23072801Y-13034650D02*
X23091849Y-13044174D01*
X23168039Y-13244174D02*
X23177563Y-13234650D01*
X23177563Y-13234650D02*
X23196611Y-13206079D01*
X23196611Y-13206079D02*
X23206134Y-13187031D01*
X23206134Y-13187031D02*
X23215658Y-13158460D01*
X23215658Y-13158460D02*
X23225182Y-13110841D01*
X23225182Y-13110841D02*
X23225182Y-13072746D01*
X23225182Y-13072746D02*
X23215658Y-13025127D01*
X23215658Y-13025127D02*
X23206134Y-12996555D01*
X23206134Y-12996555D02*
X23196611Y-12977508D01*
X23196611Y-12977508D02*
X23177563Y-12948936D01*
X23177563Y-12948936D02*
X23168039Y-12939412D01*
M02*
