M48
; DRILL file {KiCad 8.0.1} date 2024-06-09T19:36:10+0500
; FORMAT={-:-/ absolute / metric / decimal}
; #@! TF.CreationDate,2024-06-09T19:36:10+05:00
; #@! TF.GenerationSoftware,Kicad,Pcbnew,8.0.1
; #@! TF.FileFunction,Plated,1,4,PTH
FMAT,2
METRIC
; #@! TA.AperFunction,Plated,PTH,ViaDrill
T1C0.300
; #@! TA.AperFunction,Plated,PTH,ComponentDrill
T2C1.000
%
G90
G05
T1
X183.29Y-96.4
X185.83Y-86.24
X185.83Y-88.78
X185.83Y-91.32
X185.83Y-96.4
X185.83Y-101.48
X185.83Y-104.02
X185.83Y-106.56
X187.8Y-86.075
X188.37Y-83.7
X188.37Y-91.32
X188.37Y-93.86
X188.37Y-98.94
X188.37Y-101.48
X188.37Y-104.02
X188.37Y-106.56
X188.37Y-109.1
X190.25Y-97.75
X190.91Y-83.7
X190.91Y-88.78
X190.91Y-101.48
X190.91Y-104.02
X190.91Y-106.56
X190.91Y-109.1
X191.5Y-85.5
X191.65Y-92.6
X193.45Y-78.62
X193.45Y-81.16
X193.45Y-93.86
X193.45Y-98.94
X193.45Y-101.48
X193.45Y-104.02
X193.45Y-106.56
X193.45Y-109.1
X193.45Y-111.64
X193.45Y-114.18
X195.99Y-76.08
X195.99Y-78.62
X195.99Y-81.16
X195.99Y-83.7
X195.99Y-88.78
X195.99Y-96.4
X195.99Y-98.94
X195.99Y-101.48
X195.99Y-104.02
X195.99Y-106.56
X195.99Y-109.1
X195.99Y-111.64
X195.99Y-114.18
X195.99Y-116.72
X198.53Y-76.08
X198.53Y-78.62
X198.53Y-81.16
X198.53Y-83.7
X198.53Y-91.32
X198.53Y-93.86
X198.53Y-96.4
X198.53Y-98.94
X198.53Y-101.48
X198.53Y-104.02
X198.53Y-106.56
X198.53Y-109.1
X198.53Y-111.64
X198.53Y-114.18
X198.53Y-116.72
X201.07Y-76.08
X201.07Y-78.62
X201.07Y-81.16
X201.07Y-91.32
X201.07Y-93.86
X201.07Y-96.4
X201.07Y-98.94
X201.07Y-101.48
X201.07Y-104.02
X201.07Y-106.56
X201.07Y-109.1
X201.07Y-111.64
X201.07Y-114.18
X201.07Y-116.72
X201.07Y-119.26
X202.5Y-83.25
X203.61Y-73.54
X203.61Y-76.08
X203.61Y-78.62
X203.61Y-81.16
X203.61Y-96.4
X203.61Y-98.94
X203.61Y-101.48
X203.61Y-104.02
X203.61Y-106.56
X203.61Y-109.1
X203.61Y-111.64
X203.61Y-114.18
X203.61Y-116.72
X203.61Y-119.26
X206.15Y-73.54
X206.15Y-76.08
X206.15Y-78.62
X206.15Y-81.16
X206.15Y-83.7
X206.15Y-111.64
X206.15Y-114.18
X206.15Y-116.72
X206.15Y-119.26
X208.69Y-73.54
X208.69Y-76.08
X208.69Y-78.62
X208.69Y-81.16
X208.69Y-83.7
X208.69Y-111.64
X208.69Y-114.18
X208.69Y-116.72
X208.69Y-119.26
X209.5Y-89.25
X211.23Y-73.54
X211.23Y-76.08
X211.23Y-78.62
X211.23Y-81.16
X211.23Y-83.7
X211.23Y-93.86
X211.23Y-96.4
X211.23Y-104.02
X211.23Y-111.64
X211.23Y-114.18
X211.23Y-116.72
X211.23Y-119.26
X213.77Y-76.08
X213.77Y-78.62
X213.77Y-81.16
X213.77Y-83.7
X213.77Y-96.4
X213.77Y-98.94
X213.77Y-111.64
X213.77Y-114.18
X213.77Y-116.72
X213.77Y-119.26
X214.4Y-100.5
X215.0Y-97.6
X216.31Y-76.08
X216.31Y-78.62
X216.31Y-81.16
X216.31Y-83.7
X216.31Y-86.24
X216.31Y-106.56
X216.31Y-111.64
X216.31Y-114.18
X216.31Y-116.72
X217.75Y-100.25
X218.85Y-76.08
X218.85Y-78.62
X218.85Y-81.16
X218.85Y-83.7
X218.85Y-86.24
X218.85Y-88.78
X218.85Y-106.56
X218.85Y-111.64
X218.85Y-114.18
X218.85Y-116.72
X220.494Y-96.258
X221.39Y-78.62
X221.39Y-83.7
X221.39Y-86.24
X221.39Y-88.78
X222.5Y-91.0
X223.93Y-83.7
X223.93Y-86.24
X223.93Y-88.78
X223.93Y-106.56
X226.47Y-83.7
X226.47Y-86.24
X226.47Y-91.32
X226.75Y-95.75
X226.75Y-100.0
X229.01Y-91.32
T2
X207.05Y-86.54
X207.05Y-89.08
X207.05Y-91.62
X207.05Y-94.16
X207.05Y-96.7
X207.05Y-99.24
X207.05Y-101.78
X207.05Y-104.32
X207.05Y-106.86
X207.05Y-109.4
M30
