G04 #@! TF.GenerationSoftware,KiCad,Pcbnew,8.0.1*
G04 #@! TF.CreationDate,2024-06-09T19:35:52+05:00*
G04 #@! TF.ProjectId,bno85,626e6f38-352e-46b6-9963-61645f706362,rev?*
G04 #@! TF.SameCoordinates,Original*
G04 #@! TF.FileFunction,Copper,L1,Top*
G04 #@! TF.FilePolarity,Positive*
%FSLAX46Y46*%
G04 Gerber Fmt 4.6, Leading zero omitted, Abs format (unit mm)*
G04 Created by KiCad (PCBNEW 8.0.1) date 2024-06-09 19:35:52*
%MOMM*%
%LPD*%
G01*
G04 APERTURE LIST*
G04 Aperture macros list*
%AMRoundRect*
0 Rectangle with rounded corners*
0 $1 Rounding radius*
0 $2 $3 $4 $5 $6 $7 $8 $9 X,Y pos of 4 corners*
0 Add a 4 corners polygon primitive as box body*
4,1,4,$2,$3,$4,$5,$6,$7,$8,$9,$2,$3,0*
0 Add four circle primitives for the rounded corners*
1,1,$1+$1,$2,$3*
1,1,$1+$1,$4,$5*
1,1,$1+$1,$6,$7*
1,1,$1+$1,$8,$9*
0 Add four rect primitives between the rounded corners*
20,1,$1+$1,$2,$3,$4,$5,0*
20,1,$1+$1,$4,$5,$6,$7,0*
20,1,$1+$1,$6,$7,$8,$9,0*
20,1,$1+$1,$8,$9,$2,$3,0*%
G04 Aperture macros list end*
G04 #@! TA.AperFunction,SMDPad,CuDef*
%ADD10RoundRect,0.100000X0.100000X-0.225000X0.100000X0.225000X-0.100000X0.225000X-0.100000X-0.225000X0*%
G04 #@! TD*
G04 #@! TA.AperFunction,SMDPad,CuDef*
%ADD11RoundRect,0.150000X0.700000X-0.150000X0.700000X0.150000X-0.700000X0.150000X-0.700000X-0.150000X0*%
G04 #@! TD*
G04 #@! TA.AperFunction,SMDPad,CuDef*
%ADD12RoundRect,0.250000X1.100000X-0.250000X1.100000X0.250000X-1.100000X0.250000X-1.100000X-0.250000X0*%
G04 #@! TD*
G04 #@! TA.AperFunction,SMDPad,CuDef*
%ADD13RoundRect,0.100000X-0.225000X-0.100000X0.225000X-0.100000X0.225000X0.100000X-0.225000X0.100000X0*%
G04 #@! TD*
G04 #@! TA.AperFunction,SMDPad,CuDef*
%ADD14RoundRect,0.375000X-0.625000X-0.375000X0.625000X-0.375000X0.625000X0.375000X-0.625000X0.375000X0*%
G04 #@! TD*
G04 #@! TA.AperFunction,SMDPad,CuDef*
%ADD15RoundRect,0.500000X-0.500000X-1.400000X0.500000X-1.400000X0.500000X1.400000X-0.500000X1.400000X0*%
G04 #@! TD*
G04 #@! TA.AperFunction,ComponentPad*
%ADD16R,1.700000X1.700000*%
G04 #@! TD*
G04 #@! TA.AperFunction,ComponentPad*
%ADD17O,1.700000X1.700000*%
G04 #@! TD*
G04 #@! TA.AperFunction,SMDPad,CuDef*
%ADD18RoundRect,0.218750X-0.256250X0.218750X-0.256250X-0.218750X0.256250X-0.218750X0.256250X0.218750X0*%
G04 #@! TD*
G04 #@! TA.AperFunction,SMDPad,CuDef*
%ADD19RoundRect,0.250000X-0.475000X0.250000X-0.475000X-0.250000X0.475000X-0.250000X0.475000X0.250000X0*%
G04 #@! TD*
G04 #@! TA.AperFunction,SMDPad,CuDef*
%ADD20RoundRect,0.150000X-0.700000X0.150000X-0.700000X-0.150000X0.700000X-0.150000X0.700000X0.150000X0*%
G04 #@! TD*
G04 #@! TA.AperFunction,SMDPad,CuDef*
%ADD21RoundRect,0.250000X-1.100000X0.250000X-1.100000X-0.250000X1.100000X-0.250000X1.100000X0.250000X0*%
G04 #@! TD*
G04 #@! TA.AperFunction,SMDPad,CuDef*
%ADD22RoundRect,0.200000X0.275000X-0.200000X0.275000X0.200000X-0.275000X0.200000X-0.275000X-0.200000X0*%
G04 #@! TD*
G04 #@! TA.AperFunction,SMDPad,CuDef*
%ADD23RoundRect,0.250000X-0.250000X-0.475000X0.250000X-0.475000X0.250000X0.475000X-0.250000X0.475000X0*%
G04 #@! TD*
G04 #@! TA.AperFunction,ViaPad*
%ADD24C,0.600000*%
G04 #@! TD*
G04 #@! TA.AperFunction,Conductor*
%ADD25C,0.500000*%
G04 #@! TD*
G04 #@! TA.AperFunction,Conductor*
%ADD26C,0.300000*%
G04 #@! TD*
G04 APERTURE END LIST*
D10*
X219350000Y-94950000D03*
X220000000Y-94949999D03*
X220650000Y-94950000D03*
X220650000Y-93050000D03*
X220000000Y-93050001D03*
X219350000Y-93050000D03*
D11*
X224450000Y-101699999D03*
X224450000Y-100450000D03*
X224450000Y-99199999D03*
X224450000Y-97950000D03*
X224449999Y-96700000D03*
X224450000Y-95450000D03*
X224450000Y-94200001D03*
X224450000Y-92950000D03*
X224450000Y-91700001D03*
D12*
X227650000Y-103550000D03*
X227650000Y-89850000D03*
D13*
X219050000Y-99600000D03*
X219050001Y-100250000D03*
X219050000Y-100900000D03*
X220950000Y-100900000D03*
X220949999Y-100250000D03*
X220950000Y-99600000D03*
D14*
X193600000Y-84950000D03*
X193600001Y-87250000D03*
D15*
X199899999Y-87250000D03*
D14*
X193600000Y-89550000D03*
D16*
X207050000Y-86540000D03*
D17*
X207050000Y-89080000D03*
X207050000Y-91619999D03*
X207050000Y-94160000D03*
X207050000Y-96700000D03*
X207050000Y-99240000D03*
X207050000Y-101780000D03*
X207050000Y-104320001D03*
X207050000Y-106860000D03*
X207050000Y-109400000D03*
D18*
X187750000Y-87437498D03*
X187750000Y-89012500D03*
D19*
X202500000Y-84550001D03*
X202500000Y-86449999D03*
D20*
X188550000Y-96025000D03*
X188550000Y-97275000D03*
D21*
X185350000Y-94175000D03*
X185350000Y-99125000D03*
D22*
X189500000Y-89075000D03*
X189500000Y-87425000D03*
D23*
X193100001Y-92200000D03*
X194999999Y-92200000D03*
D24*
X218850000Y-116720000D03*
X216310000Y-78620000D03*
X198530000Y-91320000D03*
X195990000Y-109100000D03*
X203610000Y-109100000D03*
X213770000Y-81160000D03*
X190250000Y-97750000D03*
X216310000Y-106560000D03*
X215000000Y-97600000D03*
X222500000Y-91000000D03*
X217750000Y-100250000D03*
X203610000Y-101480000D03*
X198530000Y-114180000D03*
X195990000Y-101480000D03*
X198530000Y-93860000D03*
X195990000Y-98940000D03*
X185830000Y-86240000D03*
X221390000Y-86240000D03*
X218850000Y-76080000D03*
X195990000Y-114180000D03*
X206150000Y-83700000D03*
X195990000Y-83700000D03*
X193450000Y-93860000D03*
X193450000Y-114180000D03*
X201070000Y-93860000D03*
X206150000Y-73540000D03*
X223930000Y-86240000D03*
X195990000Y-81160000D03*
X211230000Y-78620000D03*
X195990000Y-106560000D03*
X185830000Y-96400000D03*
X198530000Y-104020000D03*
X216310000Y-111640000D03*
X188370000Y-104020000D03*
X185830000Y-106560000D03*
X216310000Y-81160000D03*
X201070000Y-116720000D03*
X218850000Y-78620000D03*
X193450000Y-109100000D03*
X218850000Y-86240000D03*
X201070000Y-76080000D03*
X198530000Y-98940000D03*
X211230000Y-111640000D03*
X198530000Y-96400000D03*
X226470000Y-83700000D03*
X198530000Y-106560000D03*
X193450000Y-111640000D03*
X188370000Y-91320000D03*
X193450000Y-81160000D03*
X188370000Y-83700000D03*
X216310000Y-76080000D03*
X203610000Y-119260000D03*
X211230000Y-96400000D03*
X201070000Y-96400000D03*
X201070000Y-104020000D03*
X203610000Y-104020000D03*
X213770000Y-111640000D03*
X211230000Y-93860000D03*
X198530000Y-81160000D03*
X191650000Y-92600000D03*
X220493948Y-96257566D03*
X221390000Y-78620000D03*
X203610000Y-111640000D03*
X188370000Y-98940000D03*
X218850000Y-88780000D03*
X203610000Y-76080000D03*
X201070000Y-78620000D03*
X209500000Y-89250000D03*
X206150000Y-111640000D03*
X208690000Y-111640000D03*
X195990000Y-116720000D03*
X213770000Y-96400000D03*
X208690000Y-116720000D03*
X226470000Y-91320000D03*
X203610000Y-114180000D03*
X187800000Y-86074999D03*
X188370000Y-101480000D03*
X211230000Y-104020000D03*
X190910000Y-106560000D03*
X213770000Y-114180000D03*
X201070000Y-91320000D03*
X208690000Y-78620000D03*
X216310000Y-116720000D03*
X203610000Y-116720000D03*
X208690000Y-73540000D03*
X218850000Y-111640000D03*
X198530000Y-78620000D03*
X198530000Y-83700000D03*
X213770000Y-78620000D03*
X185830000Y-88780000D03*
X188370000Y-109100000D03*
X190910000Y-88780000D03*
X190910000Y-104020000D03*
X191500000Y-85500000D03*
X203610000Y-106560000D03*
X206150000Y-76080000D03*
X201070000Y-81160000D03*
X185830000Y-101480000D03*
X223930000Y-88780000D03*
X203610000Y-98940000D03*
X221390000Y-88780000D03*
X211230000Y-73540000D03*
X185830000Y-91320000D03*
X183290000Y-96400000D03*
X206150000Y-116720000D03*
X211230000Y-116720000D03*
X190910000Y-83700000D03*
X195990000Y-96400000D03*
X201070000Y-106560000D03*
X226470000Y-86240000D03*
X211230000Y-119260000D03*
X201070000Y-119260000D03*
X206150000Y-119260000D03*
X203610000Y-96400000D03*
X201070000Y-111640000D03*
X195990000Y-111640000D03*
X213770000Y-76080000D03*
X208690000Y-76080000D03*
X206150000Y-78620000D03*
X188370000Y-93860000D03*
X211230000Y-114180000D03*
X213770000Y-119260000D03*
X211230000Y-83700000D03*
X193450000Y-104020000D03*
X195990000Y-104020000D03*
X195990000Y-76080000D03*
X208690000Y-81160000D03*
X213770000Y-116720000D03*
X211230000Y-81160000D03*
X216310000Y-83700000D03*
X195990000Y-88780000D03*
X203610000Y-78620000D03*
X216310000Y-114180000D03*
X213770000Y-98940000D03*
X211230000Y-76080000D03*
X201070000Y-101480000D03*
X208690000Y-114180000D03*
X195990000Y-78620000D03*
X190910000Y-101480000D03*
X223930000Y-106560000D03*
X208690000Y-119260000D03*
X206150000Y-81160000D03*
X198530000Y-109100000D03*
X218850000Y-81160000D03*
X206150000Y-114180000D03*
X221390000Y-83700000D03*
X193450000Y-78620000D03*
X198530000Y-76080000D03*
X198530000Y-116720000D03*
X216310000Y-86240000D03*
X214400000Y-100500000D03*
X193450000Y-106560000D03*
X202500000Y-83250000D03*
X223930000Y-83700000D03*
X208690000Y-83700000D03*
X218850000Y-83700000D03*
X188370000Y-106560000D03*
X201070000Y-98940000D03*
X190910000Y-109100000D03*
X218850000Y-114180000D03*
X193450000Y-98940000D03*
X193450000Y-101480000D03*
X201070000Y-109100000D03*
X229010000Y-91320000D03*
X218850000Y-106560000D03*
X213770000Y-83700000D03*
X198530000Y-101480000D03*
X201070000Y-114180000D03*
X203610000Y-73540000D03*
X198530000Y-111640000D03*
X203610000Y-81160000D03*
X185830000Y-104020000D03*
X226750000Y-100000000D03*
X226750000Y-95750000D03*
D25*
X194999999Y-94525001D02*
X193500000Y-96025000D01*
X193600000Y-89550000D02*
X194999999Y-90949999D01*
X188550000Y-96025000D02*
X193500000Y-96025000D01*
X194999999Y-92200000D02*
X194999999Y-94525001D01*
X194999999Y-90949999D02*
X194999999Y-92200000D01*
X202500000Y-84550001D02*
X202500000Y-83250000D01*
X190250000Y-97750000D02*
X189775000Y-97275000D01*
X192050000Y-84950000D02*
X191500000Y-85500000D01*
X192050000Y-92200000D02*
X193100001Y-92200000D01*
D26*
X220493948Y-96257566D02*
X220000000Y-95763618D01*
D25*
X189775000Y-97275000D02*
X188550000Y-97275000D01*
D26*
X224450000Y-91700001D02*
X223200001Y-91700001D01*
D25*
X187750000Y-86124998D02*
X187800000Y-86074999D01*
X191650000Y-92600000D02*
X192050000Y-92200000D01*
X187750000Y-87437497D02*
X187750000Y-86124998D01*
X209500000Y-89250000D02*
X207220000Y-89250000D01*
D26*
X220000000Y-95763618D02*
X220000000Y-94949999D01*
X217750000Y-100250000D02*
X219050001Y-100250000D01*
D25*
X193600000Y-84950000D02*
X192050000Y-84950000D01*
X207220000Y-89250000D02*
X207050000Y-89080000D01*
D26*
X223200001Y-91700001D02*
X222500000Y-91000000D01*
D25*
X202500000Y-86449999D02*
X200700000Y-86449999D01*
D26*
X219350000Y-93050000D02*
X219350000Y-91600000D01*
D25*
X200700000Y-86449999D02*
X199899999Y-87250000D01*
X193425001Y-87425000D02*
X193600001Y-87250000D01*
D26*
X219350000Y-91600000D02*
X214290000Y-86540000D01*
X214290000Y-86540000D02*
X207050000Y-86540000D01*
D25*
X202500000Y-86449999D02*
X206959999Y-86449999D01*
X193600001Y-87250000D02*
X199899999Y-87250000D01*
X189500000Y-87425000D02*
X193425001Y-87425000D01*
X206959999Y-86449999D02*
X207050000Y-86540000D01*
D26*
X213390000Y-106860000D02*
X218500000Y-101750000D01*
X207050000Y-106860000D02*
X213390000Y-106860000D01*
X218500000Y-101750000D02*
X219899998Y-101750000D01*
X219899998Y-101750000D02*
X219949999Y-101699999D01*
X219750000Y-101500000D02*
X219949999Y-101699999D01*
X219949999Y-101699999D02*
X224450000Y-101699999D01*
X219400000Y-100900000D02*
X219750000Y-101250000D01*
X219750000Y-101250000D02*
X219750000Y-101500000D01*
X219050000Y-100900000D02*
X219400000Y-100900000D01*
X220190000Y-108060000D02*
X228750000Y-99500000D01*
X205560000Y-108060000D02*
X220190000Y-108060000D01*
X228750000Y-95250000D02*
X227700001Y-94200001D01*
X228750000Y-99500000D02*
X228750000Y-95250000D01*
X227700001Y-94200001D02*
X224450000Y-94200001D01*
X220650000Y-93050000D02*
X220650000Y-93650000D01*
X220650000Y-93650000D02*
X221200001Y-94200001D01*
X205000000Y-107500000D02*
X205560000Y-108060000D01*
X207050000Y-104320001D02*
X205929999Y-104320001D01*
X205000000Y-105250000D02*
X205000000Y-107500000D01*
X205929999Y-104320001D02*
X205000000Y-105250000D01*
X221200001Y-94200001D02*
X224450000Y-94200001D01*
X220000000Y-92725002D02*
X220475002Y-92250000D01*
X229750000Y-94500000D02*
X228200000Y-92950000D01*
X223600001Y-92950000D02*
X224450000Y-92950000D01*
X220000000Y-93050001D02*
X220000000Y-92725002D01*
X224600000Y-109400000D02*
X229750000Y-104250000D01*
X228200000Y-92950000D02*
X224450000Y-92950000D01*
X220475002Y-92250000D02*
X222900001Y-92250000D01*
X229750000Y-104250000D02*
X229750000Y-94500000D01*
X207050000Y-109400000D02*
X224600000Y-109400000D01*
X222900001Y-92250000D02*
X223600001Y-92950000D01*
X220950000Y-100900000D02*
X222100000Y-100900000D01*
X222550000Y-100450000D02*
X224450000Y-100450000D01*
X224450000Y-100450000D02*
X226300000Y-100450000D01*
X226300000Y-100450000D02*
X226750000Y-100000000D01*
X222100000Y-100900000D02*
X222550000Y-100450000D01*
X212450317Y-90419999D02*
X205580001Y-90419999D01*
X205580001Y-90419999D02*
X205250000Y-90750000D01*
X205910000Y-94160000D02*
X207050000Y-94160000D01*
X223050000Y-97950000D02*
X219980318Y-97950000D01*
X205250000Y-93500000D02*
X205910000Y-94160000D01*
X205250000Y-90750000D02*
X205250000Y-93500000D01*
X219980318Y-97950000D02*
X212450317Y-90419999D01*
X221400000Y-99600000D02*
X223050000Y-97950000D01*
X220950000Y-99600000D02*
X221400000Y-99600000D01*
X223050000Y-97950000D02*
X224450000Y-97950000D01*
X219350000Y-94350000D02*
X219350000Y-94950000D01*
X205950000Y-96700000D02*
X204000000Y-94750000D01*
X220317143Y-97000000D02*
X223000000Y-97000000D01*
X204000000Y-89000000D02*
X205120000Y-87880000D01*
X219350000Y-94950000D02*
X219350000Y-96032857D01*
X219350000Y-96032857D02*
X220317143Y-97000000D01*
X207050000Y-96700000D02*
X205950000Y-96700000D01*
X212880000Y-87880000D02*
X219350000Y-94350000D01*
X205120000Y-87880000D02*
X212880000Y-87880000D01*
X204000000Y-94750000D02*
X204000000Y-89000000D01*
X223000000Y-97000000D02*
X223300000Y-96700000D01*
X223300000Y-96700000D02*
X224449999Y-96700000D01*
X220650000Y-94950000D02*
X220650000Y-95400000D01*
X222050000Y-95450000D02*
X224450000Y-95450000D01*
X220650000Y-95400000D02*
X221000000Y-95750000D01*
X221000000Y-95750000D02*
X221750000Y-95750000D01*
X224450000Y-95450000D02*
X226450000Y-95450000D01*
X226450000Y-95450000D02*
X226750000Y-95750000D01*
X221750000Y-95750000D02*
X222050000Y-95450000D01*
X220625000Y-100250000D02*
X220949999Y-100250000D01*
X220949999Y-100250000D02*
X221750000Y-100250000D01*
X222800001Y-99199999D02*
X224450000Y-99199999D01*
X212034167Y-91619999D02*
X220250000Y-99835832D01*
X221750000Y-100250000D02*
X222800001Y-99199999D01*
X207050000Y-91619999D02*
X212034167Y-91619999D01*
X224399999Y-99250000D02*
X224450000Y-99199999D01*
X220250000Y-99835832D02*
X220250000Y-99875000D01*
X220250000Y-99875000D02*
X220625000Y-100250000D01*
D25*
X189437500Y-89012500D02*
X189500000Y-89075000D01*
X187750000Y-89012500D02*
X189437500Y-89012500D01*
G04 #@! TA.AperFunction,Conductor*
G36*
X208034027Y-72220319D02*
G01*
X208038954Y-72220517D01*
X209018919Y-72279794D01*
X209023860Y-72280193D01*
X210000617Y-72378879D01*
X210005551Y-72379478D01*
X210977534Y-72517412D01*
X210982431Y-72518208D01*
X211948078Y-72695170D01*
X211952963Y-72696167D01*
X212910684Y-72911863D01*
X212915511Y-72913053D01*
X213863819Y-73167152D01*
X213868568Y-73168528D01*
X214805844Y-73460594D01*
X214810506Y-73462150D01*
X215735317Y-73791741D01*
X215739942Y-73793496D01*
X216650690Y-74160040D01*
X216655229Y-74161973D01*
X217550476Y-74564891D01*
X217554979Y-74567028D01*
X218433264Y-75005661D01*
X218437664Y-75007970D01*
X219297571Y-75481611D01*
X219301876Y-75484096D01*
X220142031Y-75991986D01*
X220146200Y-75994623D01*
X220965219Y-76535930D01*
X220969320Y-76538760D01*
X221765881Y-77112608D01*
X221769834Y-77115579D01*
X222454371Y-77651880D01*
X222542642Y-77721036D01*
X222546510Y-77724195D01*
X223294250Y-78360225D01*
X223297989Y-78363536D01*
X224019580Y-79029222D01*
X224023181Y-79032682D01*
X224717317Y-79726818D01*
X224720777Y-79730419D01*
X225386463Y-80452010D01*
X225389774Y-80455749D01*
X226025804Y-81203489D01*
X226028963Y-81207357D01*
X226606986Y-81945148D01*
X226634405Y-81980145D01*
X226637396Y-81984126D01*
X227030612Y-82529950D01*
X227211232Y-82780670D01*
X227214069Y-82784780D01*
X227726756Y-83560495D01*
X227755360Y-83603773D01*
X227758021Y-83607982D01*
X227893236Y-83831655D01*
X228265897Y-84448113D01*
X228268394Y-84452438D01*
X228742023Y-85312324D01*
X228744344Y-85316746D01*
X229182967Y-86195011D01*
X229185108Y-86199523D01*
X229396640Y-86669528D01*
X229577964Y-87072414D01*
X229588014Y-87094743D01*
X229589971Y-87099337D01*
X229956498Y-88010043D01*
X229958267Y-88014709D01*
X230286580Y-88935931D01*
X230287834Y-88939448D01*
X230289415Y-88944186D01*
X230581464Y-89881408D01*
X230582854Y-89886204D01*
X230836943Y-90834477D01*
X230838138Y-90839326D01*
X231053831Y-91797032D01*
X231054830Y-91801925D01*
X231231788Y-92767551D01*
X231232589Y-92772481D01*
X231370519Y-93744436D01*
X231371121Y-93749393D01*
X231469804Y-94726120D01*
X231470206Y-94731098D01*
X231529480Y-95711014D01*
X231529681Y-95716004D01*
X231549449Y-96697503D01*
X231549449Y-96702497D01*
X231529681Y-97683995D01*
X231529480Y-97688985D01*
X231470206Y-98668901D01*
X231469804Y-98673879D01*
X231371121Y-99650606D01*
X231370519Y-99655563D01*
X231232589Y-100627518D01*
X231231788Y-100632448D01*
X231054830Y-101598074D01*
X231053831Y-101602967D01*
X230838138Y-102560673D01*
X230836943Y-102565522D01*
X230644275Y-103284570D01*
X230607910Y-103344230D01*
X230545063Y-103374759D01*
X230475687Y-103366464D01*
X230421810Y-103321979D01*
X230400535Y-103255427D01*
X230400500Y-103252476D01*
X230400500Y-94435928D01*
X230375502Y-94310261D01*
X230375501Y-94310260D01*
X230375501Y-94310256D01*
X230326465Y-94191873D01*
X230305340Y-94160257D01*
X230305168Y-94160000D01*
X230255278Y-94085332D01*
X230255272Y-94085325D01*
X228614673Y-92444726D01*
X228614669Y-92444723D01*
X228508127Y-92373535D01*
X228409948Y-92332868D01*
X228389744Y-92324499D01*
X228389738Y-92324497D01*
X228264071Y-92299500D01*
X228264069Y-92299500D01*
X225856725Y-92299500D01*
X225789686Y-92279815D01*
X225743931Y-92227011D01*
X225733987Y-92157853D01*
X225748232Y-92117375D01*
X225748185Y-92117355D01*
X225748480Y-92116673D01*
X225749990Y-92112383D01*
X225751281Y-92110198D01*
X225797100Y-91952487D01*
X225797295Y-91950002D01*
X225797295Y-91950001D01*
X224324000Y-91950001D01*
X224256961Y-91930316D01*
X224211206Y-91877512D01*
X224200000Y-91826001D01*
X224200000Y-90900001D01*
X224700000Y-90900001D01*
X224700000Y-91450001D01*
X225797295Y-91450001D01*
X225797295Y-91449999D01*
X225797100Y-91447514D01*
X225751281Y-91289802D01*
X225667685Y-91148448D01*
X225667678Y-91148439D01*
X225551561Y-91032322D01*
X225551552Y-91032315D01*
X225410196Y-90948718D01*
X225410193Y-90948717D01*
X225252495Y-90902901D01*
X225252489Y-90902900D01*
X225215649Y-90900001D01*
X224700000Y-90900001D01*
X224200000Y-90900001D01*
X223684350Y-90900001D01*
X223647510Y-90902900D01*
X223647504Y-90902901D01*
X223489806Y-90948717D01*
X223489803Y-90948718D01*
X223348447Y-91032315D01*
X223348438Y-91032322D01*
X223232321Y-91148439D01*
X223232314Y-91148448D01*
X223148717Y-91289804D01*
X223148716Y-91289807D01*
X223102900Y-91447505D01*
X223102899Y-91447511D01*
X223099884Y-91485830D01*
X223075000Y-91551118D01*
X223018769Y-91592589D01*
X222970162Y-91598739D01*
X222970162Y-91599500D01*
X222964148Y-91599500D01*
X222964116Y-91599504D01*
X222964075Y-91599500D01*
X222964070Y-91599500D01*
X220410933Y-91599500D01*
X220410931Y-91599500D01*
X220285263Y-91624497D01*
X220285253Y-91624500D01*
X220171952Y-91671431D01*
X220102483Y-91678900D01*
X220040004Y-91647625D01*
X220004352Y-91587535D01*
X220000500Y-91556870D01*
X220000500Y-91535928D01*
X219975502Y-91410260D01*
X219975500Y-91410254D01*
X219955189Y-91361221D01*
X219955187Y-91361216D01*
X219926468Y-91291878D01*
X219926462Y-91291868D01*
X219855278Y-91185332D01*
X219855272Y-91185325D01*
X218769947Y-90100000D01*
X225800001Y-90100000D01*
X225800001Y-90149986D01*
X225810494Y-90252697D01*
X225865641Y-90419119D01*
X225865643Y-90419124D01*
X225957684Y-90568345D01*
X226081654Y-90692315D01*
X226230875Y-90784356D01*
X226230880Y-90784358D01*
X226397302Y-90839505D01*
X226397309Y-90839506D01*
X226500019Y-90849999D01*
X227399999Y-90849999D01*
X227400000Y-90849998D01*
X227400000Y-90100000D01*
X227900000Y-90100000D01*
X227900000Y-90849999D01*
X228799972Y-90849999D01*
X228799986Y-90849998D01*
X228902697Y-90839505D01*
X229069119Y-90784358D01*
X229069124Y-90784356D01*
X229218345Y-90692315D01*
X229342315Y-90568345D01*
X229434356Y-90419124D01*
X229434358Y-90419119D01*
X229489505Y-90252697D01*
X229489506Y-90252690D01*
X229499999Y-90149986D01*
X229500000Y-90149973D01*
X229500000Y-90100000D01*
X227900000Y-90100000D01*
X227400000Y-90100000D01*
X225800001Y-90100000D01*
X218769947Y-90100000D01*
X218269947Y-89600000D01*
X225800000Y-89600000D01*
X227400000Y-89600000D01*
X227400000Y-88850000D01*
X227900000Y-88850000D01*
X227900000Y-89600000D01*
X229499999Y-89600000D01*
X229499999Y-89550028D01*
X229499998Y-89550013D01*
X229489505Y-89447302D01*
X229434358Y-89280880D01*
X229434356Y-89280875D01*
X229342315Y-89131654D01*
X229218345Y-89007684D01*
X229069124Y-88915643D01*
X229069119Y-88915641D01*
X228902697Y-88860494D01*
X228902690Y-88860493D01*
X228799986Y-88850000D01*
X227900000Y-88850000D01*
X227400000Y-88850000D01*
X226500028Y-88850000D01*
X226500012Y-88850001D01*
X226397302Y-88860494D01*
X226230880Y-88915641D01*
X226230875Y-88915643D01*
X226081654Y-89007684D01*
X225957684Y-89131654D01*
X225865643Y-89280875D01*
X225865641Y-89280880D01*
X225810494Y-89447302D01*
X225810493Y-89447309D01*
X225800000Y-89550013D01*
X225800000Y-89600000D01*
X218269947Y-89600000D01*
X214704673Y-86034726D01*
X214666213Y-86009028D01*
X214598127Y-85963535D01*
X214479744Y-85914499D01*
X214479738Y-85914497D01*
X214354071Y-85889500D01*
X214354069Y-85889500D01*
X208524499Y-85889500D01*
X208457460Y-85869815D01*
X208411705Y-85817011D01*
X208400499Y-85765500D01*
X208400499Y-85642129D01*
X208400498Y-85642123D01*
X208399036Y-85628523D01*
X208394091Y-85582517D01*
X208354717Y-85476951D01*
X208343797Y-85447671D01*
X208343793Y-85447664D01*
X208257547Y-85332455D01*
X208257544Y-85332452D01*
X208142335Y-85246206D01*
X208142328Y-85246202D01*
X208007482Y-85195908D01*
X208007483Y-85195908D01*
X207947883Y-85189501D01*
X207947881Y-85189500D01*
X207947873Y-85189500D01*
X207947864Y-85189500D01*
X206152129Y-85189500D01*
X206152123Y-85189501D01*
X206092516Y-85195908D01*
X205957671Y-85246202D01*
X205957664Y-85246206D01*
X205842455Y-85332452D01*
X205842452Y-85332455D01*
X205756206Y-85447664D01*
X205756202Y-85447671D01*
X205705908Y-85582516D01*
X205705238Y-85588756D01*
X205678499Y-85653307D01*
X205621106Y-85693154D01*
X205581949Y-85699499D01*
X203587230Y-85699499D01*
X203520191Y-85679814D01*
X203499549Y-85663180D01*
X203443656Y-85607287D01*
X203443654Y-85607286D01*
X203440347Y-85605246D01*
X203438554Y-85603252D01*
X203437989Y-85602806D01*
X203438065Y-85602709D01*
X203393621Y-85553300D01*
X203382397Y-85484338D01*
X203410239Y-85420255D01*
X203440352Y-85394163D01*
X203443344Y-85392317D01*
X203567315Y-85268346D01*
X203659356Y-85119125D01*
X203659358Y-85119120D01*
X203714505Y-84952698D01*
X203714506Y-84952691D01*
X203724999Y-84849987D01*
X203725000Y-84849974D01*
X203725000Y-84800001D01*
X201275001Y-84800001D01*
X201275001Y-84849987D01*
X201285494Y-84952698D01*
X201300663Y-84998475D01*
X201303065Y-85068304D01*
X201267333Y-85128345D01*
X201204813Y-85159538D01*
X201135353Y-85151977D01*
X201104596Y-85133581D01*
X200953408Y-85010304D01*
X200953409Y-85010304D01*
X200953406Y-85010302D01*
X200773048Y-84916091D01*
X200773047Y-84916090D01*
X200773044Y-84916089D01*
X200655828Y-84882550D01*
X200577417Y-84860114D01*
X200577414Y-84860113D01*
X200577412Y-84860113D01*
X200511101Y-84854217D01*
X200458036Y-84849500D01*
X200458031Y-84849500D01*
X199341970Y-84849500D01*
X199341964Y-84849500D01*
X199341963Y-84849501D01*
X199330315Y-84850536D01*
X199222583Y-84860113D01*
X199026953Y-84916089D01*
X198956883Y-84952691D01*
X198846592Y-85010302D01*
X198846590Y-85010303D01*
X198846589Y-85010304D01*
X198688889Y-85138890D01*
X198583333Y-85268346D01*
X198560301Y-85296593D01*
X198513195Y-85386772D01*
X198466088Y-85476954D01*
X198410113Y-85672583D01*
X198410112Y-85672586D01*
X198399499Y-85791966D01*
X198399499Y-86375500D01*
X198379814Y-86442539D01*
X198327010Y-86488294D01*
X198275499Y-86499500D01*
X195092943Y-86499500D01*
X195025904Y-86479815D01*
X194981855Y-86430594D01*
X194967031Y-86400704D01*
X194847723Y-86252278D01*
X194847722Y-86252277D01*
X194778116Y-86196326D01*
X194738197Y-86138983D01*
X194735617Y-86069161D01*
X194771196Y-86009028D01*
X194778116Y-86003031D01*
X194847369Y-85947364D01*
X194966607Y-85799025D01*
X194966609Y-85799022D01*
X195051168Y-85628523D01*
X195097102Y-85443824D01*
X195100000Y-85401096D01*
X195100000Y-85200000D01*
X192100000Y-85200000D01*
X192100000Y-85401096D01*
X192102897Y-85443824D01*
X192148831Y-85628523D01*
X192233390Y-85799022D01*
X192233392Y-85799025D01*
X192352631Y-85947364D01*
X192421885Y-86003033D01*
X192461803Y-86060376D01*
X192464383Y-86130199D01*
X192428804Y-86190331D01*
X192421885Y-86196327D01*
X192417909Y-86199523D01*
X192352281Y-86252277D01*
X192352277Y-86252280D01*
X192232970Y-86400704D01*
X192232968Y-86400707D01*
X192148361Y-86571303D01*
X192148360Y-86571306D01*
X192146093Y-86580424D01*
X192110812Y-86640732D01*
X192048527Y-86672392D01*
X192025758Y-86674500D01*
X190252977Y-86674500D01*
X190188828Y-86656617D01*
X190064606Y-86581522D01*
X189902196Y-86530914D01*
X189902194Y-86530913D01*
X189902192Y-86530913D01*
X189852778Y-86526423D01*
X189831616Y-86524500D01*
X189168384Y-86524500D01*
X189149145Y-86526248D01*
X189097807Y-86530913D01*
X188935393Y-86581522D01*
X188789811Y-86669530D01*
X188789810Y-86669531D01*
X188719336Y-86740006D01*
X188658013Y-86773491D01*
X188588321Y-86768507D01*
X188543974Y-86740006D01*
X188455080Y-86651112D01*
X188312077Y-86562906D01*
X188312072Y-86562904D01*
X188152583Y-86510055D01*
X188054150Y-86499998D01*
X188000000Y-86499998D01*
X188000000Y-87563498D01*
X187980315Y-87630537D01*
X187927511Y-87676292D01*
X187876000Y-87687498D01*
X186775001Y-87687498D01*
X186775001Y-87704150D01*
X186785056Y-87802581D01*
X186837906Y-87962070D01*
X186837908Y-87962075D01*
X186926114Y-88105078D01*
X186958001Y-88136965D01*
X186991486Y-88198288D01*
X186986502Y-88267980D01*
X186958001Y-88312327D01*
X186925719Y-88344608D01*
X186925716Y-88344612D01*
X186837455Y-88487704D01*
X186837450Y-88487715D01*
X186813868Y-88558881D01*
X186784564Y-88647315D01*
X186784564Y-88647316D01*
X186784563Y-88647316D01*
X186774500Y-88745818D01*
X186774500Y-89279181D01*
X186784563Y-89377683D01*
X186837450Y-89537284D01*
X186837455Y-89537295D01*
X186925716Y-89680387D01*
X186925719Y-89680391D01*
X187044608Y-89799280D01*
X187044612Y-89799283D01*
X187187704Y-89887544D01*
X187187707Y-89887545D01*
X187187713Y-89887549D01*
X187347315Y-89940436D01*
X187445826Y-89950500D01*
X187445831Y-89950500D01*
X188054169Y-89950500D01*
X188054174Y-89950500D01*
X188152685Y-89940436D01*
X188312287Y-89887549D01*
X188455391Y-89799281D01*
X188455396Y-89799275D01*
X188461054Y-89794803D01*
X188461828Y-89795782D01*
X188516676Y-89765834D01*
X188543034Y-89763000D01*
X188670981Y-89763000D01*
X188738020Y-89782685D01*
X188758663Y-89799320D01*
X188789811Y-89830469D01*
X188789813Y-89830470D01*
X188789815Y-89830472D01*
X188935394Y-89918478D01*
X189097804Y-89969086D01*
X189168384Y-89975500D01*
X189168387Y-89975500D01*
X189831613Y-89975500D01*
X189831616Y-89975500D01*
X189902196Y-89969086D01*
X190064606Y-89918478D01*
X190210185Y-89830472D01*
X190330472Y-89710185D01*
X190418478Y-89564606D01*
X190469086Y-89402196D01*
X190475500Y-89331616D01*
X190475500Y-88818384D01*
X190469086Y-88747804D01*
X190418478Y-88585394D01*
X190330472Y-88439815D01*
X190330470Y-88439813D01*
X190330469Y-88439811D01*
X190277839Y-88387181D01*
X190244354Y-88325858D01*
X190249338Y-88256166D01*
X190291210Y-88200233D01*
X190356674Y-88175816D01*
X190365520Y-88175500D01*
X192234805Y-88175500D01*
X192301844Y-88195185D01*
X192331452Y-88221813D01*
X192352272Y-88247715D01*
X192352281Y-88247724D01*
X192421486Y-88303352D01*
X192461405Y-88360695D01*
X192463985Y-88430517D01*
X192428407Y-88490650D01*
X192421487Y-88496646D01*
X192352280Y-88552277D01*
X192352276Y-88552280D01*
X192232969Y-88700704D01*
X192232967Y-88700707D01*
X192148360Y-88871302D01*
X192102400Y-89056107D01*
X192099500Y-89098879D01*
X192099500Y-90001122D01*
X192099501Y-90001125D01*
X192102399Y-90043886D01*
X192102399Y-90043887D01*
X192148360Y-90228696D01*
X192232967Y-90399292D01*
X192232969Y-90399295D01*
X192352277Y-90547721D01*
X192352278Y-90547722D01*
X192500704Y-90667030D01*
X192500707Y-90667032D01*
X192585335Y-90709003D01*
X192671307Y-90751641D01*
X192673747Y-90752247D01*
X192675077Y-90753026D01*
X192677617Y-90753959D01*
X192677449Y-90754413D01*
X192734054Y-90787523D01*
X192765717Y-90849806D01*
X192758682Y-90919321D01*
X192715180Y-90973996D01*
X192682832Y-90990289D01*
X192530879Y-91040642D01*
X192530876Y-91040643D01*
X192381655Y-91132684D01*
X192257685Y-91256654D01*
X192165644Y-91405875D01*
X192165642Y-91405880D01*
X192110495Y-91572302D01*
X192110494Y-91572309D01*
X192100001Y-91675013D01*
X192100001Y-91950000D01*
X193226001Y-91950000D01*
X193293040Y-91969685D01*
X193338795Y-92022489D01*
X193350001Y-92074000D01*
X193350001Y-93424999D01*
X193399973Y-93424999D01*
X193399987Y-93424998D01*
X193502698Y-93414505D01*
X193669120Y-93359358D01*
X193669125Y-93359356D01*
X193818346Y-93267315D01*
X193942317Y-93143344D01*
X193944163Y-93140352D01*
X193945967Y-93138728D01*
X193946799Y-93137677D01*
X193946978Y-93137819D01*
X193996107Y-93093623D01*
X194065069Y-93082396D01*
X194129153Y-93110235D01*
X194155246Y-93140347D01*
X194157286Y-93143654D01*
X194157287Y-93143656D01*
X194213180Y-93199549D01*
X194246665Y-93260872D01*
X194249499Y-93287230D01*
X194249499Y-94162771D01*
X194229814Y-94229810D01*
X194213180Y-94250452D01*
X193225451Y-95238181D01*
X193164128Y-95271666D01*
X193137770Y-95274500D01*
X189532328Y-95274500D01*
X189497733Y-95269576D01*
X189352573Y-95227402D01*
X189352567Y-95227401D01*
X189315701Y-95224500D01*
X189315694Y-95224500D01*
X187784306Y-95224500D01*
X187784298Y-95224500D01*
X187747432Y-95227401D01*
X187747426Y-95227402D01*
X187589606Y-95273254D01*
X187589603Y-95273255D01*
X187448137Y-95356917D01*
X187448129Y-95356923D01*
X187331923Y-95473129D01*
X187331917Y-95473137D01*
X187248255Y-95614603D01*
X187248254Y-95614606D01*
X187202402Y-95772426D01*
X187202401Y-95772432D01*
X187199500Y-95809298D01*
X187199500Y-96240701D01*
X187202401Y-96277567D01*
X187202402Y-96277573D01*
X187248254Y-96435393D01*
X187248255Y-96435396D01*
X187248256Y-96435398D01*
X187272143Y-96475789D01*
X187335890Y-96583580D01*
X187334045Y-96584670D01*
X187355551Y-96639463D01*
X187341862Y-96707979D01*
X187336252Y-96716707D01*
X187336288Y-96716729D01*
X187248718Y-96864801D01*
X187202899Y-97022513D01*
X187202704Y-97024998D01*
X187202705Y-97025000D01*
X189897295Y-97025000D01*
X189897295Y-97024998D01*
X189897100Y-97022511D01*
X189871413Y-96934094D01*
X189871613Y-96864225D01*
X189909556Y-96805555D01*
X189973194Y-96776712D01*
X189990490Y-96775500D01*
X193573920Y-96775500D01*
X193671462Y-96756096D01*
X193718913Y-96746658D01*
X193855495Y-96690084D01*
X193904729Y-96657186D01*
X193978416Y-96607952D01*
X195582951Y-95003417D01*
X195613226Y-94958106D01*
X195653293Y-94898142D01*
X195653297Y-94898135D01*
X195665083Y-94880496D01*
X195721657Y-94743914D01*
X195750499Y-94598919D01*
X195750499Y-93287230D01*
X195770184Y-93220191D01*
X195786818Y-93199549D01*
X195811816Y-93174551D01*
X195842711Y-93143656D01*
X195934813Y-92994334D01*
X195989998Y-92827797D01*
X196000499Y-92725009D01*
X196000498Y-91674992D01*
X195997702Y-91647625D01*
X195989998Y-91572203D01*
X195989997Y-91572200D01*
X195983011Y-91551118D01*
X195934813Y-91405666D01*
X195842711Y-91256344D01*
X195786818Y-91200451D01*
X195753333Y-91139128D01*
X195750499Y-91112770D01*
X195750499Y-90876080D01*
X195750498Y-90876079D01*
X195743891Y-90842860D01*
X195721658Y-90731087D01*
X195667407Y-90600116D01*
X195665763Y-90595521D01*
X195582953Y-90471587D01*
X195582952Y-90471586D01*
X195582950Y-90471583D01*
X195478415Y-90367048D01*
X195136818Y-90025451D01*
X195103333Y-89964128D01*
X195100499Y-89937770D01*
X195100499Y-89098877D01*
X195100498Y-89098876D01*
X195097600Y-89056111D01*
X195051641Y-88871307D01*
X194990391Y-88747807D01*
X194967032Y-88700707D01*
X194967030Y-88700704D01*
X194847722Y-88552278D01*
X194847721Y-88552277D01*
X194778514Y-88496647D01*
X194738595Y-88439304D01*
X194736015Y-88369482D01*
X194771594Y-88309349D01*
X194778487Y-88303375D01*
X194847723Y-88247722D01*
X194967031Y-88099296D01*
X194981855Y-88069406D01*
X195029276Y-88018093D01*
X195092943Y-88000500D01*
X198275500Y-88000500D01*
X198342539Y-88020185D01*
X198388294Y-88072989D01*
X198399500Y-88124500D01*
X198399500Y-88708034D01*
X198410112Y-88827415D01*
X198466088Y-89023045D01*
X198466089Y-89023048D01*
X198466090Y-89023049D01*
X198560301Y-89203407D01*
X198560303Y-89203409D01*
X198688889Y-89361109D01*
X198720651Y-89387007D01*
X198846592Y-89489698D01*
X199026950Y-89583909D01*
X199222581Y-89639886D01*
X199341962Y-89650500D01*
X200458035Y-89650499D01*
X200577417Y-89639886D01*
X200773048Y-89583909D01*
X200953406Y-89489698D01*
X201111108Y-89361109D01*
X201239697Y-89203407D01*
X201333908Y-89023049D01*
X201389885Y-88827418D01*
X201400499Y-88708037D01*
X201400498Y-87418757D01*
X201420183Y-87351719D01*
X201472986Y-87305964D01*
X201542145Y-87296020D01*
X201589590Y-87313217D01*
X201705666Y-87384813D01*
X201872203Y-87439998D01*
X201974991Y-87450499D01*
X203025008Y-87450498D01*
X203025016Y-87450497D01*
X203025019Y-87450497D01*
X203081302Y-87444747D01*
X203127797Y-87439998D01*
X203294334Y-87384813D01*
X203443656Y-87292711D01*
X203499549Y-87236818D01*
X203560872Y-87203333D01*
X203587230Y-87200499D01*
X204580193Y-87200499D01*
X204647232Y-87220184D01*
X204692987Y-87272988D01*
X204702931Y-87342146D01*
X204673906Y-87405702D01*
X204667874Y-87412180D01*
X203494727Y-88585325D01*
X203494726Y-88585326D01*
X203446834Y-88657004D01*
X203446832Y-88657006D01*
X203423539Y-88691864D01*
X203423533Y-88691875D01*
X203374499Y-88810255D01*
X203374497Y-88810261D01*
X203349500Y-88935928D01*
X203349500Y-88935931D01*
X203349500Y-94814069D01*
X203349500Y-94814071D01*
X203349499Y-94814071D01*
X203369511Y-94914669D01*
X203374499Y-94939744D01*
X203423535Y-95058127D01*
X203494614Y-95164506D01*
X203494726Y-95164673D01*
X205535327Y-97205274D01*
X205535330Y-97205276D01*
X205605056Y-97251865D01*
X205641873Y-97276465D01*
X205760256Y-97325501D01*
X205803289Y-97334061D01*
X205865200Y-97366445D01*
X205880673Y-97384554D01*
X206011505Y-97571401D01*
X206011506Y-97571402D01*
X206178597Y-97738493D01*
X206178603Y-97738498D01*
X206364158Y-97868425D01*
X206407783Y-97923002D01*
X206414977Y-97992500D01*
X206383454Y-98054855D01*
X206364158Y-98071575D01*
X206178597Y-98201505D01*
X206011505Y-98368597D01*
X205875965Y-98562169D01*
X205875964Y-98562171D01*
X205776098Y-98776335D01*
X205776094Y-98776344D01*
X205714938Y-99004586D01*
X205714936Y-99004596D01*
X205694341Y-99239999D01*
X205694341Y-99240000D01*
X205714936Y-99475403D01*
X205714938Y-99475413D01*
X205776094Y-99703655D01*
X205776096Y-99703659D01*
X205776097Y-99703663D01*
X205857487Y-99878204D01*
X205875965Y-99917830D01*
X205875967Y-99917834D01*
X206011501Y-100111395D01*
X206011506Y-100111402D01*
X206178597Y-100278493D01*
X206178603Y-100278498D01*
X206364158Y-100408425D01*
X206407783Y-100463002D01*
X206414977Y-100532500D01*
X206383454Y-100594855D01*
X206364158Y-100611575D01*
X206178597Y-100741505D01*
X206011505Y-100908597D01*
X205875965Y-101102169D01*
X205875964Y-101102171D01*
X205776098Y-101316335D01*
X205776094Y-101316344D01*
X205714938Y-101544586D01*
X205714936Y-101544596D01*
X205694341Y-101779999D01*
X205694341Y-101780000D01*
X205714936Y-102015403D01*
X205714938Y-102015413D01*
X205776094Y-102243655D01*
X205776096Y-102243659D01*
X205776097Y-102243663D01*
X205866167Y-102436819D01*
X205875965Y-102457830D01*
X205875967Y-102457834D01*
X206011501Y-102651395D01*
X206011506Y-102651402D01*
X206178597Y-102818493D01*
X206178603Y-102818498D01*
X206364158Y-102948425D01*
X206407783Y-103003002D01*
X206414977Y-103072500D01*
X206383454Y-103134855D01*
X206364159Y-103151575D01*
X206178594Y-103281509D01*
X206011508Y-103448595D01*
X205883911Y-103630823D01*
X205829334Y-103674447D01*
X205806529Y-103681316D01*
X205740258Y-103694498D01*
X205740256Y-103694499D01*
X205621874Y-103743534D01*
X205621865Y-103743539D01*
X205515330Y-103814724D01*
X205515326Y-103814727D01*
X204494727Y-104835325D01*
X204494726Y-104835326D01*
X204423534Y-104941874D01*
X204374499Y-105060255D01*
X204374497Y-105060261D01*
X204349500Y-105185928D01*
X204349500Y-105185931D01*
X204349500Y-107564069D01*
X204349500Y-107564071D01*
X204349499Y-107564071D01*
X204374497Y-107689738D01*
X204374499Y-107689744D01*
X204423534Y-107808125D01*
X204494726Y-107914673D01*
X205145325Y-108565272D01*
X205145331Y-108565277D01*
X205251874Y-108636466D01*
X205321221Y-108665189D01*
X205370256Y-108685501D01*
X205370259Y-108685501D01*
X205370260Y-108685502D01*
X205495928Y-108710500D01*
X205495931Y-108710500D01*
X205624069Y-108710500D01*
X205686766Y-108710500D01*
X205753805Y-108730185D01*
X205799560Y-108782989D01*
X205809504Y-108852147D01*
X205799148Y-108886905D01*
X205776097Y-108936335D01*
X205776094Y-108936344D01*
X205714938Y-109164586D01*
X205714936Y-109164596D01*
X205694341Y-109399999D01*
X205694341Y-109400000D01*
X205714936Y-109635403D01*
X205714938Y-109635413D01*
X205776094Y-109863655D01*
X205776096Y-109863659D01*
X205776097Y-109863663D01*
X205863221Y-110050500D01*
X205875965Y-110077830D01*
X205875967Y-110077834D01*
X205893853Y-110103377D01*
X206011505Y-110271401D01*
X206178599Y-110438495D01*
X206275384Y-110506265D01*
X206372165Y-110574032D01*
X206372167Y-110574033D01*
X206372170Y-110574035D01*
X206586337Y-110673903D01*
X206814592Y-110735063D01*
X207002918Y-110751539D01*
X207049999Y-110755659D01*
X207050000Y-110755659D01*
X207050001Y-110755659D01*
X207089234Y-110752226D01*
X207285408Y-110735063D01*
X207513663Y-110673903D01*
X207727830Y-110574035D01*
X207921401Y-110438495D01*
X208088495Y-110271401D01*
X208206147Y-110103377D01*
X208260724Y-110059752D01*
X208307722Y-110050500D01*
X224664071Y-110050500D01*
X224748615Y-110033682D01*
X224789744Y-110025501D01*
X224908127Y-109976465D01*
X225014669Y-109905277D01*
X229803521Y-105116423D01*
X229864842Y-105082940D01*
X229934534Y-105087924D01*
X229990467Y-105129796D01*
X230014884Y-105195260D01*
X230008004Y-105245733D01*
X229958269Y-105385287D01*
X229956498Y-105389957D01*
X229589971Y-106300662D01*
X229588014Y-106305256D01*
X229185108Y-107200476D01*
X229182967Y-107204988D01*
X228744344Y-108083253D01*
X228742023Y-108087675D01*
X228268394Y-108947561D01*
X228265897Y-108951886D01*
X227758029Y-109792005D01*
X227755360Y-109796226D01*
X227214069Y-110615219D01*
X227211232Y-110619329D01*
X226637405Y-111415862D01*
X226634405Y-111419854D01*
X226028963Y-112192642D01*
X226025804Y-112196510D01*
X225389774Y-112944250D01*
X225386463Y-112947989D01*
X224720777Y-113669580D01*
X224717317Y-113673181D01*
X224023181Y-114367317D01*
X224019580Y-114370777D01*
X223297989Y-115036463D01*
X223294250Y-115039774D01*
X222546510Y-115675804D01*
X222542642Y-115678963D01*
X221769854Y-116284405D01*
X221765862Y-116287405D01*
X220969329Y-116861232D01*
X220965219Y-116864069D01*
X220146226Y-117405360D01*
X220142005Y-117408029D01*
X219301886Y-117915897D01*
X219297561Y-117918394D01*
X218437675Y-118392023D01*
X218433253Y-118394344D01*
X217554988Y-118832967D01*
X217550476Y-118835108D01*
X216655256Y-119238014D01*
X216650662Y-119239971D01*
X215739956Y-119606498D01*
X215735287Y-119608269D01*
X214810551Y-119937834D01*
X214805813Y-119939415D01*
X213868591Y-120231464D01*
X213863795Y-120232854D01*
X212915522Y-120486943D01*
X212910673Y-120488138D01*
X211952967Y-120703831D01*
X211948074Y-120704830D01*
X210982448Y-120881788D01*
X210977518Y-120882589D01*
X210005563Y-121020519D01*
X210000606Y-121021121D01*
X209023879Y-121119804D01*
X209018901Y-121120206D01*
X208038985Y-121179480D01*
X208033995Y-121179681D01*
X207052497Y-121199449D01*
X207047503Y-121199449D01*
X206066004Y-121179681D01*
X206061014Y-121179480D01*
X205081098Y-121120206D01*
X205076120Y-121119804D01*
X204099393Y-121021121D01*
X204094436Y-121020519D01*
X203122481Y-120882589D01*
X203117551Y-120881788D01*
X202151925Y-120704830D01*
X202147032Y-120703831D01*
X201189326Y-120488138D01*
X201184477Y-120486943D01*
X200236204Y-120232854D01*
X200231408Y-120231464D01*
X199294186Y-119939415D01*
X199289464Y-119937839D01*
X198364709Y-119608267D01*
X198360043Y-119606498D01*
X197449337Y-119239971D01*
X197444743Y-119238014D01*
X196549523Y-118835108D01*
X196545011Y-118832967D01*
X195666746Y-118394344D01*
X195662324Y-118392023D01*
X194802438Y-117918394D01*
X194798113Y-117915897D01*
X194544922Y-117762838D01*
X193957982Y-117408021D01*
X193953786Y-117405368D01*
X193134780Y-116864069D01*
X193130670Y-116861232D01*
X192334137Y-116287405D01*
X192330157Y-116284414D01*
X191557357Y-115678963D01*
X191553489Y-115675804D01*
X190805749Y-115039774D01*
X190802010Y-115036463D01*
X190080419Y-114370777D01*
X190076818Y-114367317D01*
X189382682Y-113673181D01*
X189379222Y-113669580D01*
X188713536Y-112947989D01*
X188710225Y-112944250D01*
X188516235Y-112716188D01*
X189789597Y-112716188D01*
X189822850Y-112926141D01*
X189888541Y-113128316D01*
X189985048Y-113317722D01*
X190109987Y-113489688D01*
X190260310Y-113640011D01*
X190432276Y-113764950D01*
X190432278Y-113764951D01*
X190432281Y-113764953D01*
X190621685Y-113861459D01*
X190823854Y-113927148D01*
X191033810Y-113960402D01*
X191033811Y-113960402D01*
X191246383Y-113960402D01*
X191246384Y-113960402D01*
X191456340Y-113927148D01*
X191658509Y-113861459D01*
X191847913Y-113764953D01*
X191869886Y-113748988D01*
X192019883Y-113640011D01*
X192019885Y-113640008D01*
X192019889Y-113640006D01*
X192170201Y-113489694D01*
X192170203Y-113489690D01*
X192170206Y-113489688D01*
X192295145Y-113317722D01*
X192295144Y-113317722D01*
X192295148Y-113317718D01*
X192391654Y-113128314D01*
X192457343Y-112926145D01*
X192490597Y-112716189D01*
X192490597Y-112716188D01*
X221609402Y-112716188D01*
X221642655Y-112926141D01*
X221708346Y-113128316D01*
X221804853Y-113317722D01*
X221929792Y-113489688D01*
X222080115Y-113640011D01*
X222252081Y-113764950D01*
X222252083Y-113764951D01*
X222252086Y-113764953D01*
X222441490Y-113861459D01*
X222643659Y-113927148D01*
X222853615Y-113960402D01*
X222853616Y-113960402D01*
X223066188Y-113960402D01*
X223066189Y-113960402D01*
X223276145Y-113927148D01*
X223478314Y-113861459D01*
X223667718Y-113764953D01*
X223689691Y-113748988D01*
X223839688Y-113640011D01*
X223839690Y-113640008D01*
X223839694Y-113640006D01*
X223990006Y-113489694D01*
X223990008Y-113489690D01*
X223990011Y-113489688D01*
X224114950Y-113317722D01*
X224114949Y-113317722D01*
X224114953Y-113317718D01*
X224211459Y-113128314D01*
X224277148Y-112926145D01*
X224310402Y-112716189D01*
X224310402Y-112503615D01*
X224277148Y-112293659D01*
X224211459Y-112091490D01*
X224114953Y-111902086D01*
X224114951Y-111902083D01*
X224114950Y-111902081D01*
X223990011Y-111730115D01*
X223839688Y-111579792D01*
X223667722Y-111454853D01*
X223478316Y-111358346D01*
X223478315Y-111358345D01*
X223478314Y-111358345D01*
X223276145Y-111292656D01*
X223276143Y-111292655D01*
X223276142Y-111292655D01*
X223114859Y-111267110D01*
X223066189Y-111259402D01*
X222853615Y-111259402D01*
X222804944Y-111267110D01*
X222643662Y-111292655D01*
X222441487Y-111358346D01*
X222252081Y-111454853D01*
X222080115Y-111579792D01*
X221929792Y-111730115D01*
X221804853Y-111902081D01*
X221708346Y-112091487D01*
X221642655Y-112293662D01*
X221609402Y-112503615D01*
X221609402Y-112716188D01*
X192490597Y-112716188D01*
X192490597Y-112503615D01*
X192457343Y-112293659D01*
X192391654Y-112091490D01*
X192295148Y-111902086D01*
X192295146Y-111902083D01*
X192295145Y-111902081D01*
X192170206Y-111730115D01*
X192019883Y-111579792D01*
X191847917Y-111454853D01*
X191658511Y-111358346D01*
X191658510Y-111358345D01*
X191658509Y-111358345D01*
X191456340Y-111292656D01*
X191456338Y-111292655D01*
X191456337Y-111292655D01*
X191295054Y-111267110D01*
X191246384Y-111259402D01*
X191033810Y-111259402D01*
X190985139Y-111267110D01*
X190823857Y-111292655D01*
X190621682Y-111358346D01*
X190432276Y-111454853D01*
X190260310Y-111579792D01*
X190109987Y-111730115D01*
X189985048Y-111902081D01*
X189888541Y-112091487D01*
X189822850Y-112293662D01*
X189789597Y-112503615D01*
X189789597Y-112716188D01*
X188516235Y-112716188D01*
X188074195Y-112196510D01*
X188071036Y-112192642D01*
X187991786Y-112091487D01*
X187465579Y-111419834D01*
X187462608Y-111415881D01*
X186888760Y-110619320D01*
X186885930Y-110615219D01*
X186769131Y-110438498D01*
X186344623Y-109796200D01*
X186341986Y-109792031D01*
X185834096Y-108951876D01*
X185831605Y-108947561D01*
X185798195Y-108886905D01*
X185357970Y-108087664D01*
X185355655Y-108083253D01*
X185019169Y-107409500D01*
X184917028Y-107204979D01*
X184914891Y-107200476D01*
X184581855Y-106460500D01*
X184511973Y-106305229D01*
X184510040Y-106300690D01*
X184143496Y-105389942D01*
X184141741Y-105385317D01*
X183812150Y-104460506D01*
X183810594Y-104455844D01*
X183518528Y-103518568D01*
X183517152Y-103513819D01*
X183263053Y-102565511D01*
X183261861Y-102560673D01*
X183261820Y-102560493D01*
X183046167Y-101602963D01*
X183045169Y-101598074D01*
X183024320Y-101484305D01*
X182868208Y-100632431D01*
X182867410Y-100627518D01*
X182866597Y-100621791D01*
X182729478Y-99655551D01*
X182728878Y-99650606D01*
X182728865Y-99650478D01*
X182701032Y-99375000D01*
X183500001Y-99375000D01*
X183500001Y-99424986D01*
X183510494Y-99527697D01*
X183565641Y-99694119D01*
X183565643Y-99694124D01*
X183657684Y-99843345D01*
X183781654Y-99967315D01*
X183930875Y-100059356D01*
X183930880Y-100059358D01*
X184097302Y-100114505D01*
X184097309Y-100114506D01*
X184200019Y-100124999D01*
X185099999Y-100124999D01*
X185100000Y-100124998D01*
X185100000Y-99375000D01*
X185600000Y-99375000D01*
X185600000Y-100124999D01*
X186499972Y-100124999D01*
X186499986Y-100124998D01*
X186602697Y-100114505D01*
X186769119Y-100059358D01*
X186769124Y-100059356D01*
X186918345Y-99967315D01*
X187042315Y-99843345D01*
X187134356Y-99694124D01*
X187134358Y-99694119D01*
X187189505Y-99527697D01*
X187189506Y-99527690D01*
X187199999Y-99424986D01*
X187200000Y-99424973D01*
X187200000Y-99375000D01*
X185600000Y-99375000D01*
X185100000Y-99375000D01*
X183500001Y-99375000D01*
X182701032Y-99375000D01*
X182650515Y-98875000D01*
X183500000Y-98875000D01*
X185100000Y-98875000D01*
X185100000Y-98125000D01*
X185600000Y-98125000D01*
X185600000Y-98875000D01*
X187199999Y-98875000D01*
X187199999Y-98825028D01*
X187199998Y-98825013D01*
X187189505Y-98722302D01*
X187134358Y-98555880D01*
X187134356Y-98555875D01*
X187042315Y-98406654D01*
X186918345Y-98282684D01*
X186769124Y-98190643D01*
X186769119Y-98190641D01*
X186602697Y-98135494D01*
X186602690Y-98135493D01*
X186499986Y-98125000D01*
X185600000Y-98125000D01*
X185100000Y-98125000D01*
X184200028Y-98125000D01*
X184200012Y-98125001D01*
X184097302Y-98135494D01*
X183930880Y-98190641D01*
X183930875Y-98190643D01*
X183781654Y-98282684D01*
X183657684Y-98406654D01*
X183565643Y-98555875D01*
X183565641Y-98555880D01*
X183510494Y-98722302D01*
X183510493Y-98722309D01*
X183500000Y-98825013D01*
X183500000Y-98875000D01*
X182650515Y-98875000D01*
X182630193Y-98673860D01*
X182629793Y-98668901D01*
X182627152Y-98625233D01*
X182570517Y-97688954D01*
X182570319Y-97684027D01*
X182567116Y-97525001D01*
X187202704Y-97525001D01*
X187202899Y-97527486D01*
X187248718Y-97685198D01*
X187332314Y-97826552D01*
X187332321Y-97826561D01*
X187448438Y-97942678D01*
X187448447Y-97942685D01*
X187589803Y-98026282D01*
X187589806Y-98026283D01*
X187747504Y-98072099D01*
X187747510Y-98072100D01*
X187784350Y-98074999D01*
X187784366Y-98075000D01*
X188300000Y-98075000D01*
X188300000Y-97525000D01*
X188800000Y-97525000D01*
X188800000Y-98075000D01*
X189315634Y-98075000D01*
X189315649Y-98074999D01*
X189352489Y-98072100D01*
X189352495Y-98072099D01*
X189510193Y-98026283D01*
X189510196Y-98026282D01*
X189651552Y-97942685D01*
X189651561Y-97942678D01*
X189767678Y-97826561D01*
X189767685Y-97826552D01*
X189851281Y-97685198D01*
X189897100Y-97527486D01*
X189897295Y-97525001D01*
X189897295Y-97525000D01*
X188800000Y-97525000D01*
X188300000Y-97525000D01*
X187202705Y-97525000D01*
X187202704Y-97525001D01*
X182567116Y-97525001D01*
X182550550Y-96702482D01*
X182550550Y-96697503D01*
X182550639Y-96693081D01*
X182570319Y-95715970D01*
X182570517Y-95711047D01*
X182629794Y-94731076D01*
X182630195Y-94726120D01*
X182632949Y-94698868D01*
X182660619Y-94425000D01*
X183500001Y-94425000D01*
X183500001Y-94474986D01*
X183510494Y-94577697D01*
X183565641Y-94744119D01*
X183565643Y-94744124D01*
X183657684Y-94893345D01*
X183781654Y-95017315D01*
X183930875Y-95109356D01*
X183930880Y-95109358D01*
X184097302Y-95164505D01*
X184097309Y-95164506D01*
X184200019Y-95174999D01*
X185099999Y-95174999D01*
X185100000Y-95174998D01*
X185100000Y-94425000D01*
X185600000Y-94425000D01*
X185600000Y-95174999D01*
X186499972Y-95174999D01*
X186499986Y-95174998D01*
X186602697Y-95164505D01*
X186769119Y-95109358D01*
X186769124Y-95109356D01*
X186918345Y-95017315D01*
X187042315Y-94893345D01*
X187134356Y-94744124D01*
X187134358Y-94744119D01*
X187189505Y-94577697D01*
X187189506Y-94577690D01*
X187199999Y-94474986D01*
X187200000Y-94474973D01*
X187200000Y-94425000D01*
X185600000Y-94425000D01*
X185100000Y-94425000D01*
X183500001Y-94425000D01*
X182660619Y-94425000D01*
X182711135Y-93925000D01*
X183500000Y-93925000D01*
X185100000Y-93925000D01*
X185100000Y-93175000D01*
X185600000Y-93175000D01*
X185600000Y-93925000D01*
X187199999Y-93925000D01*
X187199999Y-93875028D01*
X187199998Y-93875013D01*
X187189505Y-93772302D01*
X187134358Y-93605880D01*
X187134356Y-93605875D01*
X187042315Y-93456654D01*
X186918345Y-93332684D01*
X186769124Y-93240643D01*
X186769119Y-93240641D01*
X186602697Y-93185494D01*
X186602690Y-93185493D01*
X186499986Y-93175000D01*
X185600000Y-93175000D01*
X185100000Y-93175000D01*
X184200028Y-93175000D01*
X184200012Y-93175001D01*
X184097302Y-93185494D01*
X183930880Y-93240641D01*
X183930875Y-93240643D01*
X183781654Y-93332684D01*
X183657684Y-93456654D01*
X183565643Y-93605875D01*
X183565641Y-93605880D01*
X183510494Y-93772302D01*
X183510493Y-93772309D01*
X183500000Y-93875013D01*
X183500000Y-93925000D01*
X182711135Y-93925000D01*
X182728879Y-93749376D01*
X182729480Y-93744436D01*
X182867413Y-92772457D01*
X182868206Y-92767576D01*
X182926404Y-92450000D01*
X192100002Y-92450000D01*
X192100002Y-92724986D01*
X192110495Y-92827697D01*
X192165642Y-92994119D01*
X192165644Y-92994124D01*
X192257685Y-93143345D01*
X192381655Y-93267315D01*
X192530876Y-93359356D01*
X192530881Y-93359358D01*
X192697303Y-93414505D01*
X192697310Y-93414506D01*
X192800020Y-93424999D01*
X192850000Y-93424998D01*
X192850001Y-93424998D01*
X192850001Y-92450000D01*
X192100002Y-92450000D01*
X182926404Y-92450000D01*
X183045171Y-91801911D01*
X183046168Y-91797032D01*
X183062585Y-91724140D01*
X183261866Y-90839304D01*
X183263056Y-90834477D01*
X183517155Y-89886167D01*
X183518524Y-89881444D01*
X183810599Y-88944140D01*
X183812144Y-88939508D01*
X184141747Y-88014665D01*
X184143489Y-88010073D01*
X184474547Y-87187498D01*
X186775000Y-87187498D01*
X187500000Y-87187498D01*
X187500000Y-86499998D01*
X187499999Y-86499997D01*
X187445864Y-86499998D01*
X187445847Y-86499999D01*
X187347415Y-86510055D01*
X187187927Y-86562904D01*
X187187922Y-86562906D01*
X187044919Y-86651112D01*
X186926114Y-86769917D01*
X186837908Y-86912920D01*
X186837906Y-86912925D01*
X186785057Y-87072414D01*
X186775000Y-87170847D01*
X186775000Y-87187498D01*
X184474547Y-87187498D01*
X184510047Y-87099291D01*
X184511965Y-87094788D01*
X184914903Y-86199496D01*
X184917018Y-86195039D01*
X185355671Y-85316714D01*
X185357959Y-85312355D01*
X185695247Y-84700000D01*
X192100000Y-84700000D01*
X193350000Y-84700000D01*
X193350000Y-83700000D01*
X193850000Y-83700000D01*
X193850000Y-84700000D01*
X195100000Y-84700000D01*
X195100000Y-84498903D01*
X195097102Y-84456175D01*
X195058262Y-84300001D01*
X201275000Y-84300001D01*
X202250000Y-84300001D01*
X202250000Y-83550001D01*
X202750000Y-83550001D01*
X202750000Y-84300001D01*
X203724999Y-84300001D01*
X203724999Y-84250029D01*
X203724998Y-84250014D01*
X203714505Y-84147303D01*
X203659358Y-83980881D01*
X203659356Y-83980876D01*
X203567315Y-83831655D01*
X203443345Y-83707685D01*
X203294124Y-83615644D01*
X203294119Y-83615642D01*
X203127697Y-83560495D01*
X203127690Y-83560494D01*
X203024986Y-83550001D01*
X202750000Y-83550001D01*
X202250000Y-83550001D01*
X201975029Y-83550001D01*
X201975012Y-83550002D01*
X201872302Y-83560495D01*
X201705880Y-83615642D01*
X201705875Y-83615644D01*
X201556654Y-83707685D01*
X201432684Y-83831655D01*
X201340643Y-83980876D01*
X201340641Y-83980881D01*
X201285494Y-84147303D01*
X201285493Y-84147310D01*
X201275000Y-84250014D01*
X201275000Y-84300001D01*
X195058262Y-84300001D01*
X195051168Y-84271476D01*
X194966609Y-84100977D01*
X194966607Y-84100974D01*
X194847367Y-83952633D01*
X194847366Y-83952632D01*
X194699025Y-83833392D01*
X194699022Y-83833390D01*
X194528523Y-83748831D01*
X194343824Y-83702897D01*
X194301097Y-83700000D01*
X193850000Y-83700000D01*
X193350000Y-83700000D01*
X192898903Y-83700000D01*
X192856175Y-83702897D01*
X192671476Y-83748831D01*
X192500977Y-83833390D01*
X192500974Y-83833392D01*
X192352633Y-83952632D01*
X192352632Y-83952633D01*
X192233392Y-84100974D01*
X192233390Y-84100977D01*
X192148831Y-84271476D01*
X192102897Y-84456175D01*
X192100000Y-84498903D01*
X192100000Y-84700000D01*
X185695247Y-84700000D01*
X185831623Y-84452406D01*
X185834083Y-84448144D01*
X186342000Y-83607946D01*
X186344608Y-83603821D01*
X186885952Y-82784747D01*
X186888744Y-82780702D01*
X187462626Y-81984093D01*
X187465561Y-81980188D01*
X188071053Y-81207335D01*
X188074176Y-81203511D01*
X188335419Y-80896384D01*
X189789597Y-80896384D01*
X189822851Y-81106340D01*
X189855039Y-81205405D01*
X189888541Y-81308511D01*
X189985048Y-81497917D01*
X190109987Y-81669883D01*
X190260310Y-81820206D01*
X190432276Y-81945145D01*
X190432278Y-81945146D01*
X190432281Y-81945148D01*
X190621685Y-82041654D01*
X190823854Y-82107343D01*
X191033810Y-82140597D01*
X191033811Y-82140597D01*
X191246383Y-82140597D01*
X191246384Y-82140597D01*
X191456340Y-82107343D01*
X191658509Y-82041654D01*
X191847913Y-81945148D01*
X191869886Y-81929183D01*
X192019883Y-81820206D01*
X192019885Y-81820203D01*
X192019889Y-81820201D01*
X192170201Y-81669889D01*
X192170203Y-81669885D01*
X192170206Y-81669883D01*
X192295145Y-81497917D01*
X192295144Y-81497917D01*
X192295148Y-81497913D01*
X192391654Y-81308509D01*
X192457343Y-81106340D01*
X192490597Y-80896384D01*
X221609402Y-80896384D01*
X221642656Y-81106340D01*
X221674844Y-81205405D01*
X221708346Y-81308511D01*
X221804853Y-81497917D01*
X221929792Y-81669883D01*
X222080115Y-81820206D01*
X222252081Y-81945145D01*
X222252083Y-81945146D01*
X222252086Y-81945148D01*
X222441490Y-82041654D01*
X222643659Y-82107343D01*
X222853615Y-82140597D01*
X222853616Y-82140597D01*
X223066188Y-82140597D01*
X223066189Y-82140597D01*
X223276145Y-82107343D01*
X223478314Y-82041654D01*
X223667718Y-81945148D01*
X223689691Y-81929183D01*
X223839688Y-81820206D01*
X223839690Y-81820203D01*
X223839694Y-81820201D01*
X223990006Y-81669889D01*
X223990008Y-81669885D01*
X223990011Y-81669883D01*
X224114950Y-81497917D01*
X224114949Y-81497917D01*
X224114953Y-81497913D01*
X224211459Y-81308509D01*
X224277148Y-81106340D01*
X224310402Y-80896384D01*
X224310402Y-80683810D01*
X224277148Y-80473854D01*
X224211459Y-80271685D01*
X224114953Y-80082281D01*
X224114951Y-80082278D01*
X224114950Y-80082276D01*
X223990011Y-79910310D01*
X223839688Y-79759987D01*
X223667722Y-79635048D01*
X223478316Y-79538541D01*
X223478315Y-79538540D01*
X223478314Y-79538540D01*
X223276145Y-79472851D01*
X223276143Y-79472850D01*
X223276142Y-79472850D01*
X223114859Y-79447305D01*
X223066189Y-79439597D01*
X222853615Y-79439597D01*
X222804944Y-79447305D01*
X222643662Y-79472850D01*
X222441487Y-79538541D01*
X222252081Y-79635048D01*
X222080115Y-79759987D01*
X221929792Y-79910310D01*
X221804853Y-80082276D01*
X221708346Y-80271682D01*
X221642655Y-80473857D01*
X221609402Y-80683810D01*
X221609402Y-80896384D01*
X192490597Y-80896384D01*
X192490597Y-80683810D01*
X192457343Y-80473854D01*
X192391654Y-80271685D01*
X192295148Y-80082281D01*
X192295146Y-80082278D01*
X192295145Y-80082276D01*
X192170206Y-79910310D01*
X192019883Y-79759987D01*
X191847917Y-79635048D01*
X191658511Y-79538541D01*
X191658510Y-79538540D01*
X191658509Y-79538540D01*
X191456340Y-79472851D01*
X191456338Y-79472850D01*
X191456337Y-79472850D01*
X191295054Y-79447305D01*
X191246384Y-79439597D01*
X191033810Y-79439597D01*
X190985139Y-79447305D01*
X190823857Y-79472850D01*
X190621682Y-79538541D01*
X190432276Y-79635048D01*
X190260310Y-79759987D01*
X190109987Y-79910310D01*
X189985048Y-80082276D01*
X189888541Y-80271682D01*
X189822850Y-80473857D01*
X189789597Y-80683810D01*
X189789597Y-80896384D01*
X188335419Y-80896384D01*
X188710232Y-80455740D01*
X188713536Y-80452010D01*
X189379245Y-79730394D01*
X189382657Y-79726843D01*
X190076843Y-79032657D01*
X190080394Y-79029245D01*
X190802018Y-78363528D01*
X190805749Y-78360225D01*
X191553511Y-77724176D01*
X191557335Y-77721053D01*
X192330188Y-77115561D01*
X192334093Y-77112626D01*
X193130702Y-76538744D01*
X193134747Y-76535952D01*
X193953821Y-75994608D01*
X193957946Y-75992000D01*
X194798144Y-75484083D01*
X194802406Y-75481623D01*
X195662355Y-75007959D01*
X195666714Y-75005671D01*
X196545039Y-74567018D01*
X196549496Y-74564903D01*
X197444788Y-74161965D01*
X197449291Y-74160047D01*
X198360073Y-73793489D01*
X198364665Y-73791747D01*
X199289508Y-73462144D01*
X199294140Y-73460599D01*
X200231444Y-73168524D01*
X200236167Y-73167155D01*
X201184499Y-72913050D01*
X201189304Y-72911866D01*
X202147046Y-72696165D01*
X202151911Y-72695171D01*
X203117576Y-72518206D01*
X203122457Y-72517413D01*
X204094454Y-72379477D01*
X204099376Y-72378879D01*
X205076143Y-72280193D01*
X205081076Y-72279794D01*
X206061047Y-72220517D01*
X206065970Y-72220319D01*
X207047518Y-72200550D01*
X207052482Y-72200550D01*
X208034027Y-72220319D01*
G37*
G04 #@! TD.AperFunction*
G04 #@! TA.AperFunction,Conductor*
G36*
X229018834Y-100253625D02*
G01*
X229074767Y-100295497D01*
X229099184Y-100360961D01*
X229099500Y-100369807D01*
X229099500Y-102453988D01*
X229079815Y-102521027D01*
X229027011Y-102566782D01*
X228957853Y-102576726D01*
X228936498Y-102571694D01*
X228902704Y-102560496D01*
X228902690Y-102560493D01*
X228799986Y-102550000D01*
X227900000Y-102550000D01*
X227900000Y-104549999D01*
X228230692Y-104549999D01*
X228297731Y-104569684D01*
X228343486Y-104622488D01*
X228353430Y-104691646D01*
X228324405Y-104755202D01*
X228318373Y-104761680D01*
X224366873Y-108713181D01*
X224305550Y-108746666D01*
X224279192Y-108749500D01*
X220719809Y-108749500D01*
X220652770Y-108729815D01*
X220607015Y-108677011D01*
X220597071Y-108607853D01*
X220626096Y-108544297D01*
X220632128Y-108537819D01*
X223059056Y-106110890D01*
X225588323Y-103581622D01*
X225649642Y-103548140D01*
X225719334Y-103553124D01*
X225775267Y-103594996D01*
X225799684Y-103660460D01*
X225800000Y-103669305D01*
X225800000Y-103849970D01*
X225800001Y-103849987D01*
X225810494Y-103952697D01*
X225865641Y-104119119D01*
X225865643Y-104119124D01*
X225957684Y-104268345D01*
X226081654Y-104392315D01*
X226230875Y-104484356D01*
X226230880Y-104484358D01*
X226397302Y-104539505D01*
X226397309Y-104539506D01*
X226500019Y-104549999D01*
X227399999Y-104549999D01*
X227400000Y-104549998D01*
X227400000Y-102550000D01*
X226919307Y-102550000D01*
X226852268Y-102530315D01*
X226806513Y-102477511D01*
X226796569Y-102408353D01*
X226825594Y-102344797D01*
X226831612Y-102338333D01*
X228887821Y-100282124D01*
X228949142Y-100248641D01*
X229018834Y-100253625D01*
G37*
G04 #@! TD.AperFunction*
G04 #@! TA.AperFunction,Conductor*
G36*
X223347605Y-102367767D02*
G01*
X223402954Y-102400500D01*
X223489602Y-102451743D01*
X223510567Y-102457834D01*
X223647426Y-102497596D01*
X223647429Y-102497596D01*
X223647431Y-102497597D01*
X223684306Y-102500499D01*
X224530193Y-102500499D01*
X224597232Y-102520184D01*
X224642987Y-102572988D01*
X224652931Y-102642146D01*
X224623906Y-102705702D01*
X224617874Y-102712180D01*
X219956873Y-107373181D01*
X219895550Y-107406666D01*
X219869192Y-107409500D01*
X214059809Y-107409500D01*
X213992770Y-107389815D01*
X213947015Y-107337011D01*
X213937071Y-107267853D01*
X213966096Y-107204297D01*
X213972128Y-107197819D01*
X218733127Y-102436819D01*
X218794450Y-102403334D01*
X218820808Y-102400500D01*
X219964069Y-102400500D01*
X220048613Y-102383682D01*
X220089742Y-102375501D01*
X220127314Y-102359937D01*
X220174767Y-102350499D01*
X223284484Y-102350499D01*
X223347605Y-102367767D01*
G37*
G04 #@! TD.AperFunction*
G04 #@! TA.AperFunction,Conductor*
G36*
X211780398Y-92290184D02*
G01*
X211801040Y-92306818D01*
X218393647Y-98899425D01*
X218427132Y-98960748D01*
X218422148Y-99030440D01*
X218400397Y-99064297D01*
X218401666Y-99065271D01*
X218396720Y-99071716D01*
X218396718Y-99071718D01*
X218318728Y-99173356D01*
X218300463Y-99197160D01*
X218239956Y-99343237D01*
X218239955Y-99343239D01*
X218224500Y-99460638D01*
X218224500Y-99739363D01*
X218239954Y-99856758D01*
X218239955Y-99856760D01*
X218248837Y-99878204D01*
X218256304Y-99947673D01*
X218248838Y-99973104D01*
X218240445Y-99993367D01*
X218232988Y-100050000D01*
X218275500Y-100050000D01*
X218342539Y-100069685D01*
X218373875Y-100098513D01*
X218386147Y-100114506D01*
X218396718Y-100128282D01*
X218427140Y-100151625D01*
X218468341Y-100208052D01*
X218472496Y-100277798D01*
X218438283Y-100338719D01*
X218427146Y-100348369D01*
X218396718Y-100371718D01*
X218396717Y-100371719D01*
X218396716Y-100371720D01*
X218373875Y-100401487D01*
X218317447Y-100442690D01*
X218275500Y-100450000D01*
X218232991Y-100450000D01*
X218232989Y-100450001D01*
X218240443Y-100506627D01*
X218240445Y-100506633D01*
X218248836Y-100526891D01*
X218256305Y-100596361D01*
X218248838Y-100621791D01*
X218239956Y-100643235D01*
X218224500Y-100760638D01*
X218224500Y-101039362D01*
X218228034Y-101066201D01*
X218217268Y-101135236D01*
X218173986Y-101185486D01*
X218085327Y-101244725D01*
X218085324Y-101244728D01*
X213156873Y-106173181D01*
X213095550Y-106206666D01*
X213069192Y-106209500D01*
X208307721Y-106209500D01*
X208240682Y-106189815D01*
X208206146Y-106156623D01*
X208088494Y-105988597D01*
X207921402Y-105821506D01*
X207921401Y-105821505D01*
X207735842Y-105691575D01*
X207692218Y-105636998D01*
X207685025Y-105567499D01*
X207716547Y-105505145D01*
X207735843Y-105488425D01*
X207743411Y-105483126D01*
X207921401Y-105358496D01*
X208088495Y-105191402D01*
X208224035Y-104997831D01*
X208323903Y-104783664D01*
X208385063Y-104555409D01*
X208405659Y-104320001D01*
X208385063Y-104084593D01*
X208323903Y-103856338D01*
X208224035Y-103642172D01*
X208216089Y-103630823D01*
X208088494Y-103448598D01*
X207921402Y-103281507D01*
X207921401Y-103281506D01*
X207735840Y-103151575D01*
X207692216Y-103096998D01*
X207685023Y-103027499D01*
X207716545Y-102965145D01*
X207735837Y-102948428D01*
X207921401Y-102818495D01*
X208088495Y-102651401D01*
X208224035Y-102457830D01*
X208323903Y-102243663D01*
X208385063Y-102015408D01*
X208405659Y-101780000D01*
X208385063Y-101544592D01*
X208323903Y-101316337D01*
X208224035Y-101102171D01*
X208180055Y-101039360D01*
X208088494Y-100908597D01*
X207921402Y-100741506D01*
X207921396Y-100741501D01*
X207735842Y-100611575D01*
X207692217Y-100556998D01*
X207685023Y-100487500D01*
X207716546Y-100425145D01*
X207735842Y-100408425D01*
X207803627Y-100360961D01*
X207921401Y-100278495D01*
X208088495Y-100111401D01*
X208224035Y-99917830D01*
X208323903Y-99703663D01*
X208385063Y-99475408D01*
X208405659Y-99240000D01*
X208385063Y-99004592D01*
X208323903Y-98776337D01*
X208224035Y-98562171D01*
X208192719Y-98517446D01*
X208088494Y-98368597D01*
X207921402Y-98201506D01*
X207921396Y-98201501D01*
X207735842Y-98071575D01*
X207692217Y-98016998D01*
X207685023Y-97947500D01*
X207716546Y-97885145D01*
X207735842Y-97868425D01*
X207795643Y-97826552D01*
X207921401Y-97738495D01*
X208088495Y-97571401D01*
X208224035Y-97377830D01*
X208323903Y-97163663D01*
X208385063Y-96935408D01*
X208405659Y-96700000D01*
X208404791Y-96690084D01*
X208386788Y-96484313D01*
X208385063Y-96464592D01*
X208325072Y-96240701D01*
X208323905Y-96236344D01*
X208323904Y-96236343D01*
X208323903Y-96236337D01*
X208224035Y-96022171D01*
X208088495Y-95828599D01*
X208088494Y-95828597D01*
X207921402Y-95661506D01*
X207921396Y-95661501D01*
X207735842Y-95531575D01*
X207692217Y-95476998D01*
X207685023Y-95407500D01*
X207716546Y-95345145D01*
X207735842Y-95328425D01*
X207758026Y-95312891D01*
X207921401Y-95198495D01*
X208088495Y-95031401D01*
X208224035Y-94837830D01*
X208323903Y-94623663D01*
X208385063Y-94395408D01*
X208405659Y-94160000D01*
X208385063Y-93924592D01*
X208323903Y-93696337D01*
X208224035Y-93482171D01*
X208184003Y-93424998D01*
X208088494Y-93288597D01*
X207921402Y-93121506D01*
X207921401Y-93121505D01*
X207881581Y-93093623D01*
X207735839Y-92991573D01*
X207692216Y-92936997D01*
X207685023Y-92867498D01*
X207716545Y-92805144D01*
X207735837Y-92788427D01*
X207921401Y-92658494D01*
X208088495Y-92491400D01*
X208171026Y-92373534D01*
X208206147Y-92323376D01*
X208260724Y-92279751D01*
X208307722Y-92270499D01*
X211713359Y-92270499D01*
X211780398Y-92290184D01*
G37*
G04 #@! TD.AperFunction*
G04 #@! TA.AperFunction,Conductor*
G36*
X212626231Y-88550185D02*
G01*
X212646873Y-88566819D01*
X218619777Y-94539723D01*
X218653262Y-94601046D01*
X218655035Y-94643587D01*
X218649500Y-94685635D01*
X218649500Y-95214363D01*
X218664953Y-95331753D01*
X218664956Y-95331762D01*
X218686180Y-95383002D01*
X218690061Y-95392370D01*
X218699500Y-95439823D01*
X218699500Y-95449873D01*
X218679815Y-95516912D01*
X218627011Y-95562667D01*
X218557853Y-95572611D01*
X218494297Y-95543586D01*
X218487819Y-95537554D01*
X212864990Y-89914725D01*
X212824318Y-89887549D01*
X212758444Y-89843534D01*
X212726902Y-89830469D01*
X212640061Y-89794498D01*
X212640055Y-89794496D01*
X212514388Y-89769499D01*
X212514386Y-89769499D01*
X208412683Y-89769499D01*
X208345644Y-89749814D01*
X208299889Y-89697010D01*
X208289945Y-89627852D01*
X208300300Y-89593095D01*
X208323431Y-89543488D01*
X208323432Y-89543486D01*
X208380636Y-89330000D01*
X207483012Y-89330000D01*
X207515925Y-89272993D01*
X207550000Y-89145826D01*
X207550000Y-89014174D01*
X207515925Y-88887007D01*
X207483012Y-88830000D01*
X208380636Y-88830000D01*
X208380635Y-88829999D01*
X208342210Y-88686594D01*
X208343873Y-88616744D01*
X208383035Y-88558881D01*
X208447264Y-88531377D01*
X208461985Y-88530500D01*
X212559192Y-88530500D01*
X212626231Y-88550185D01*
G37*
G04 #@! TD.AperFunction*
G04 #@! TA.AperFunction,Conductor*
G36*
X205705054Y-88550185D02*
G01*
X205750809Y-88602989D01*
X205760753Y-88672147D01*
X205757790Y-88686594D01*
X205719364Y-88829999D01*
X205719364Y-88830000D01*
X206616988Y-88830000D01*
X206584075Y-88887007D01*
X206550000Y-89014174D01*
X206550000Y-89145826D01*
X206584075Y-89272993D01*
X206616988Y-89330000D01*
X205719364Y-89330000D01*
X205776567Y-89543486D01*
X205776568Y-89543488D01*
X205799700Y-89593095D01*
X205810191Y-89662173D01*
X205781671Y-89725956D01*
X205723194Y-89764195D01*
X205687317Y-89769499D01*
X205515930Y-89769499D01*
X205390262Y-89794496D01*
X205390256Y-89794498D01*
X205271875Y-89843533D01*
X205165327Y-89914725D01*
X205165326Y-89914726D01*
X204862181Y-90217872D01*
X204800858Y-90251357D01*
X204731166Y-90246373D01*
X204675233Y-90204501D01*
X204650816Y-90139037D01*
X204650500Y-90130191D01*
X204650500Y-89320807D01*
X204670185Y-89253768D01*
X204686819Y-89233126D01*
X205353126Y-88566819D01*
X205414449Y-88533334D01*
X205440807Y-88530500D01*
X205638015Y-88530500D01*
X205705054Y-88550185D01*
G37*
G04 #@! TD.AperFunction*
M02*
