%TF.GenerationSoftware,KiCad,Pcbnew,8.0.1*%
%TF.CreationDate,2024-06-09T19:36:17+05:00*%
%TF.ProjectId,bno85,626e6f38-352e-46b6-9963-61645f706362,rev?*%
%TF.SameCoordinates,Original*%
%TF.FileFunction,Drillmap*%
%TF.FilePolarity,Positive*%
%FSLAX45Y45*%
G04 Gerber Fmt 4.5, Leading zero omitted, Abs format (unit mm)*
G04 Created by KiCad (PCBNEW 8.0.1) date 2024-06-09 19:36:17*
%MOMM*%
%LPD*%
G01*
G04 APERTURE LIST*
%ADD10C,0.050000*%
%ADD11C,0.200000*%
%ADD12C,0.220000*%
G04 APERTURE END LIST*
D10*
X23205000Y-9670000D02*
G75*
G02*
X18205000Y-9670000I-2500000J0D01*
G01*
X18205000Y-9670000D02*
G75*
G02*
X23205000Y-9670000I2500000J0D01*
G01*
D11*
D12*
X19004010Y-7969010D02*
X19224010Y-8189010D01*
X19224010Y-7969010D02*
X19004010Y-8189010D01*
X19004010Y-11150990D02*
X19224010Y-11370990D01*
X19224010Y-11150990D02*
X19004010Y-11370990D01*
X22185990Y-7969010D02*
X22405990Y-8189010D01*
X22405990Y-7969010D02*
X22185990Y-8189010D01*
X22185990Y-11150990D02*
X22405990Y-11370990D01*
X22405990Y-11150990D02*
X22185990Y-11370990D01*
D11*
X18463277Y-12483984D02*
X18463277Y-12283984D01*
X18463277Y-12283984D02*
X18510896Y-12283984D01*
X18510896Y-12283984D02*
X18539467Y-12293508D01*
X18539467Y-12293508D02*
X18558515Y-12312555D01*
X18558515Y-12312555D02*
X18568039Y-12331603D01*
X18568039Y-12331603D02*
X18577563Y-12369698D01*
X18577563Y-12369698D02*
X18577563Y-12398269D01*
X18577563Y-12398269D02*
X18568039Y-12436365D01*
X18568039Y-12436365D02*
X18558515Y-12455412D01*
X18558515Y-12455412D02*
X18539467Y-12474460D01*
X18539467Y-12474460D02*
X18510896Y-12483984D01*
X18510896Y-12483984D02*
X18463277Y-12483984D01*
X18663277Y-12483984D02*
X18663277Y-12350650D01*
X18663277Y-12388746D02*
X18672801Y-12369698D01*
X18672801Y-12369698D02*
X18682324Y-12360174D01*
X18682324Y-12360174D02*
X18701372Y-12350650D01*
X18701372Y-12350650D02*
X18720420Y-12350650D01*
X18787086Y-12483984D02*
X18787086Y-12350650D01*
X18787086Y-12283984D02*
X18777563Y-12293508D01*
X18777563Y-12293508D02*
X18787086Y-12303031D01*
X18787086Y-12303031D02*
X18796610Y-12293508D01*
X18796610Y-12293508D02*
X18787086Y-12283984D01*
X18787086Y-12283984D02*
X18787086Y-12303031D01*
X18910896Y-12483984D02*
X18891848Y-12474460D01*
X18891848Y-12474460D02*
X18882324Y-12455412D01*
X18882324Y-12455412D02*
X18882324Y-12283984D01*
X19015658Y-12483984D02*
X18996610Y-12474460D01*
X18996610Y-12474460D02*
X18987086Y-12455412D01*
X18987086Y-12455412D02*
X18987086Y-12283984D01*
X19244229Y-12483984D02*
X19244229Y-12283984D01*
X19244229Y-12283984D02*
X19310896Y-12426841D01*
X19310896Y-12426841D02*
X19377563Y-12283984D01*
X19377563Y-12283984D02*
X19377563Y-12483984D01*
X19558515Y-12483984D02*
X19558515Y-12379222D01*
X19558515Y-12379222D02*
X19548991Y-12360174D01*
X19548991Y-12360174D02*
X19529944Y-12350650D01*
X19529944Y-12350650D02*
X19491848Y-12350650D01*
X19491848Y-12350650D02*
X19472801Y-12360174D01*
X19558515Y-12474460D02*
X19539467Y-12483984D01*
X19539467Y-12483984D02*
X19491848Y-12483984D01*
X19491848Y-12483984D02*
X19472801Y-12474460D01*
X19472801Y-12474460D02*
X19463277Y-12455412D01*
X19463277Y-12455412D02*
X19463277Y-12436365D01*
X19463277Y-12436365D02*
X19472801Y-12417317D01*
X19472801Y-12417317D02*
X19491848Y-12407793D01*
X19491848Y-12407793D02*
X19539467Y-12407793D01*
X19539467Y-12407793D02*
X19558515Y-12398269D01*
X19653753Y-12350650D02*
X19653753Y-12550650D01*
X19653753Y-12360174D02*
X19672801Y-12350650D01*
X19672801Y-12350650D02*
X19710896Y-12350650D01*
X19710896Y-12350650D02*
X19729944Y-12360174D01*
X19729944Y-12360174D02*
X19739467Y-12369698D01*
X19739467Y-12369698D02*
X19748991Y-12388746D01*
X19748991Y-12388746D02*
X19748991Y-12445888D01*
X19748991Y-12445888D02*
X19739467Y-12464936D01*
X19739467Y-12464936D02*
X19729944Y-12474460D01*
X19729944Y-12474460D02*
X19710896Y-12483984D01*
X19710896Y-12483984D02*
X19672801Y-12483984D01*
X19672801Y-12483984D02*
X19653753Y-12474460D01*
X19834705Y-12464936D02*
X19844229Y-12474460D01*
X19844229Y-12474460D02*
X19834705Y-12483984D01*
X19834705Y-12483984D02*
X19825182Y-12474460D01*
X19825182Y-12474460D02*
X19834705Y-12464936D01*
X19834705Y-12464936D02*
X19834705Y-12483984D01*
X19834705Y-12360174D02*
X19844229Y-12369698D01*
X19844229Y-12369698D02*
X19834705Y-12379222D01*
X19834705Y-12379222D02*
X19825182Y-12369698D01*
X19825182Y-12369698D02*
X19834705Y-12360174D01*
X19834705Y-12360174D02*
X19834705Y-12379222D01*
X18002500Y-12712500D02*
X18202500Y-12912500D01*
X18202500Y-12712500D02*
X18002500Y-12912500D01*
X18453753Y-12723031D02*
X18463277Y-12713508D01*
X18463277Y-12713508D02*
X18482324Y-12703984D01*
X18482324Y-12703984D02*
X18529944Y-12703984D01*
X18529944Y-12703984D02*
X18548991Y-12713508D01*
X18548991Y-12713508D02*
X18558515Y-12723031D01*
X18558515Y-12723031D02*
X18568039Y-12742079D01*
X18568039Y-12742079D02*
X18568039Y-12761127D01*
X18568039Y-12761127D02*
X18558515Y-12789698D01*
X18558515Y-12789698D02*
X18444229Y-12903984D01*
X18444229Y-12903984D02*
X18568039Y-12903984D01*
X18653753Y-12884936D02*
X18663277Y-12894460D01*
X18663277Y-12894460D02*
X18653753Y-12903984D01*
X18653753Y-12903984D02*
X18644229Y-12894460D01*
X18644229Y-12894460D02*
X18653753Y-12884936D01*
X18653753Y-12884936D02*
X18653753Y-12903984D01*
X18739467Y-12723031D02*
X18748991Y-12713508D01*
X18748991Y-12713508D02*
X18768039Y-12703984D01*
X18768039Y-12703984D02*
X18815658Y-12703984D01*
X18815658Y-12703984D02*
X18834705Y-12713508D01*
X18834705Y-12713508D02*
X18844229Y-12723031D01*
X18844229Y-12723031D02*
X18853753Y-12742079D01*
X18853753Y-12742079D02*
X18853753Y-12761127D01*
X18853753Y-12761127D02*
X18844229Y-12789698D01*
X18844229Y-12789698D02*
X18729944Y-12903984D01*
X18729944Y-12903984D02*
X18853753Y-12903984D01*
X18977563Y-12703984D02*
X18996610Y-12703984D01*
X18996610Y-12703984D02*
X19015658Y-12713508D01*
X19015658Y-12713508D02*
X19025182Y-12723031D01*
X19025182Y-12723031D02*
X19034705Y-12742079D01*
X19034705Y-12742079D02*
X19044229Y-12780174D01*
X19044229Y-12780174D02*
X19044229Y-12827793D01*
X19044229Y-12827793D02*
X19034705Y-12865888D01*
X19034705Y-12865888D02*
X19025182Y-12884936D01*
X19025182Y-12884936D02*
X19015658Y-12894460D01*
X19015658Y-12894460D02*
X18996610Y-12903984D01*
X18996610Y-12903984D02*
X18977563Y-12903984D01*
X18977563Y-12903984D02*
X18958515Y-12894460D01*
X18958515Y-12894460D02*
X18948991Y-12884936D01*
X18948991Y-12884936D02*
X18939467Y-12865888D01*
X18939467Y-12865888D02*
X18929944Y-12827793D01*
X18929944Y-12827793D02*
X18929944Y-12780174D01*
X18929944Y-12780174D02*
X18939467Y-12742079D01*
X18939467Y-12742079D02*
X18948991Y-12723031D01*
X18948991Y-12723031D02*
X18958515Y-12713508D01*
X18958515Y-12713508D02*
X18977563Y-12703984D01*
X19168039Y-12703984D02*
X19187086Y-12703984D01*
X19187086Y-12703984D02*
X19206134Y-12713508D01*
X19206134Y-12713508D02*
X19215658Y-12723031D01*
X19215658Y-12723031D02*
X19225182Y-12742079D01*
X19225182Y-12742079D02*
X19234705Y-12780174D01*
X19234705Y-12780174D02*
X19234705Y-12827793D01*
X19234705Y-12827793D02*
X19225182Y-12865888D01*
X19225182Y-12865888D02*
X19215658Y-12884936D01*
X19215658Y-12884936D02*
X19206134Y-12894460D01*
X19206134Y-12894460D02*
X19187086Y-12903984D01*
X19187086Y-12903984D02*
X19168039Y-12903984D01*
X19168039Y-12903984D02*
X19148991Y-12894460D01*
X19148991Y-12894460D02*
X19139467Y-12884936D01*
X19139467Y-12884936D02*
X19129944Y-12865888D01*
X19129944Y-12865888D02*
X19120420Y-12827793D01*
X19120420Y-12827793D02*
X19120420Y-12780174D01*
X19120420Y-12780174D02*
X19129944Y-12742079D01*
X19129944Y-12742079D02*
X19139467Y-12723031D01*
X19139467Y-12723031D02*
X19148991Y-12713508D01*
X19148991Y-12713508D02*
X19168039Y-12703984D01*
X19320420Y-12903984D02*
X19320420Y-12770650D01*
X19320420Y-12789698D02*
X19329944Y-12780174D01*
X19329944Y-12780174D02*
X19348991Y-12770650D01*
X19348991Y-12770650D02*
X19377563Y-12770650D01*
X19377563Y-12770650D02*
X19396610Y-12780174D01*
X19396610Y-12780174D02*
X19406134Y-12799222D01*
X19406134Y-12799222D02*
X19406134Y-12903984D01*
X19406134Y-12799222D02*
X19415658Y-12780174D01*
X19415658Y-12780174D02*
X19434705Y-12770650D01*
X19434705Y-12770650D02*
X19463277Y-12770650D01*
X19463277Y-12770650D02*
X19482325Y-12780174D01*
X19482325Y-12780174D02*
X19491848Y-12799222D01*
X19491848Y-12799222D02*
X19491848Y-12903984D01*
X19587086Y-12903984D02*
X19587086Y-12770650D01*
X19587086Y-12789698D02*
X19596610Y-12780174D01*
X19596610Y-12780174D02*
X19615658Y-12770650D01*
X19615658Y-12770650D02*
X19644229Y-12770650D01*
X19644229Y-12770650D02*
X19663277Y-12780174D01*
X19663277Y-12780174D02*
X19672801Y-12799222D01*
X19672801Y-12799222D02*
X19672801Y-12903984D01*
X19672801Y-12799222D02*
X19682325Y-12780174D01*
X19682325Y-12780174D02*
X19701372Y-12770650D01*
X19701372Y-12770650D02*
X19729944Y-12770650D01*
X19729944Y-12770650D02*
X19748991Y-12780174D01*
X19748991Y-12780174D02*
X19758515Y-12799222D01*
X19758515Y-12799222D02*
X19758515Y-12903984D01*
X20148991Y-12694460D02*
X19977563Y-12951603D01*
X20406134Y-12703984D02*
X20425182Y-12703984D01*
X20425182Y-12703984D02*
X20444229Y-12713508D01*
X20444229Y-12713508D02*
X20453753Y-12723031D01*
X20453753Y-12723031D02*
X20463277Y-12742079D01*
X20463277Y-12742079D02*
X20472801Y-12780174D01*
X20472801Y-12780174D02*
X20472801Y-12827793D01*
X20472801Y-12827793D02*
X20463277Y-12865888D01*
X20463277Y-12865888D02*
X20453753Y-12884936D01*
X20453753Y-12884936D02*
X20444229Y-12894460D01*
X20444229Y-12894460D02*
X20425182Y-12903984D01*
X20425182Y-12903984D02*
X20406134Y-12903984D01*
X20406134Y-12903984D02*
X20387087Y-12894460D01*
X20387087Y-12894460D02*
X20377563Y-12884936D01*
X20377563Y-12884936D02*
X20368039Y-12865888D01*
X20368039Y-12865888D02*
X20358515Y-12827793D01*
X20358515Y-12827793D02*
X20358515Y-12780174D01*
X20358515Y-12780174D02*
X20368039Y-12742079D01*
X20368039Y-12742079D02*
X20377563Y-12723031D01*
X20377563Y-12723031D02*
X20387087Y-12713508D01*
X20387087Y-12713508D02*
X20406134Y-12703984D01*
X20558515Y-12884936D02*
X20568039Y-12894460D01*
X20568039Y-12894460D02*
X20558515Y-12903984D01*
X20558515Y-12903984D02*
X20548991Y-12894460D01*
X20548991Y-12894460D02*
X20558515Y-12884936D01*
X20558515Y-12884936D02*
X20558515Y-12903984D01*
X20691848Y-12703984D02*
X20710896Y-12703984D01*
X20710896Y-12703984D02*
X20729944Y-12713508D01*
X20729944Y-12713508D02*
X20739468Y-12723031D01*
X20739468Y-12723031D02*
X20748991Y-12742079D01*
X20748991Y-12742079D02*
X20758515Y-12780174D01*
X20758515Y-12780174D02*
X20758515Y-12827793D01*
X20758515Y-12827793D02*
X20748991Y-12865888D01*
X20748991Y-12865888D02*
X20739468Y-12884936D01*
X20739468Y-12884936D02*
X20729944Y-12894460D01*
X20729944Y-12894460D02*
X20710896Y-12903984D01*
X20710896Y-12903984D02*
X20691848Y-12903984D01*
X20691848Y-12903984D02*
X20672801Y-12894460D01*
X20672801Y-12894460D02*
X20663277Y-12884936D01*
X20663277Y-12884936D02*
X20653753Y-12865888D01*
X20653753Y-12865888D02*
X20644229Y-12827793D01*
X20644229Y-12827793D02*
X20644229Y-12780174D01*
X20644229Y-12780174D02*
X20653753Y-12742079D01*
X20653753Y-12742079D02*
X20663277Y-12723031D01*
X20663277Y-12723031D02*
X20672801Y-12713508D01*
X20672801Y-12713508D02*
X20691848Y-12703984D01*
X20872801Y-12789698D02*
X20853753Y-12780174D01*
X20853753Y-12780174D02*
X20844229Y-12770650D01*
X20844229Y-12770650D02*
X20834706Y-12751603D01*
X20834706Y-12751603D02*
X20834706Y-12742079D01*
X20834706Y-12742079D02*
X20844229Y-12723031D01*
X20844229Y-12723031D02*
X20853753Y-12713508D01*
X20853753Y-12713508D02*
X20872801Y-12703984D01*
X20872801Y-12703984D02*
X20910896Y-12703984D01*
X20910896Y-12703984D02*
X20929944Y-12713508D01*
X20929944Y-12713508D02*
X20939468Y-12723031D01*
X20939468Y-12723031D02*
X20948991Y-12742079D01*
X20948991Y-12742079D02*
X20948991Y-12751603D01*
X20948991Y-12751603D02*
X20939468Y-12770650D01*
X20939468Y-12770650D02*
X20929944Y-12780174D01*
X20929944Y-12780174D02*
X20910896Y-12789698D01*
X20910896Y-12789698D02*
X20872801Y-12789698D01*
X20872801Y-12789698D02*
X20853753Y-12799222D01*
X20853753Y-12799222D02*
X20844229Y-12808746D01*
X20844229Y-12808746D02*
X20834706Y-12827793D01*
X20834706Y-12827793D02*
X20834706Y-12865888D01*
X20834706Y-12865888D02*
X20844229Y-12884936D01*
X20844229Y-12884936D02*
X20853753Y-12894460D01*
X20853753Y-12894460D02*
X20872801Y-12903984D01*
X20872801Y-12903984D02*
X20910896Y-12903984D01*
X20910896Y-12903984D02*
X20929944Y-12894460D01*
X20929944Y-12894460D02*
X20939468Y-12884936D01*
X20939468Y-12884936D02*
X20948991Y-12865888D01*
X20948991Y-12865888D02*
X20948991Y-12827793D01*
X20948991Y-12827793D02*
X20939468Y-12808746D01*
X20939468Y-12808746D02*
X20929944Y-12799222D01*
X20929944Y-12799222D02*
X20910896Y-12789698D01*
X21120420Y-12703984D02*
X21082325Y-12703984D01*
X21082325Y-12703984D02*
X21063277Y-12713508D01*
X21063277Y-12713508D02*
X21053753Y-12723031D01*
X21053753Y-12723031D02*
X21034706Y-12751603D01*
X21034706Y-12751603D02*
X21025182Y-12789698D01*
X21025182Y-12789698D02*
X21025182Y-12865888D01*
X21025182Y-12865888D02*
X21034706Y-12884936D01*
X21034706Y-12884936D02*
X21044229Y-12894460D01*
X21044229Y-12894460D02*
X21063277Y-12903984D01*
X21063277Y-12903984D02*
X21101372Y-12903984D01*
X21101372Y-12903984D02*
X21120420Y-12894460D01*
X21120420Y-12894460D02*
X21129944Y-12884936D01*
X21129944Y-12884936D02*
X21139468Y-12865888D01*
X21139468Y-12865888D02*
X21139468Y-12818269D01*
X21139468Y-12818269D02*
X21129944Y-12799222D01*
X21129944Y-12799222D02*
X21120420Y-12789698D01*
X21120420Y-12789698D02*
X21101372Y-12780174D01*
X21101372Y-12780174D02*
X21063277Y-12780174D01*
X21063277Y-12780174D02*
X21044229Y-12789698D01*
X21044229Y-12789698D02*
X21034706Y-12799222D01*
X21034706Y-12799222D02*
X21025182Y-12818269D01*
X21310896Y-12703984D02*
X21272801Y-12703984D01*
X21272801Y-12703984D02*
X21253753Y-12713508D01*
X21253753Y-12713508D02*
X21244229Y-12723031D01*
X21244229Y-12723031D02*
X21225182Y-12751603D01*
X21225182Y-12751603D02*
X21215658Y-12789698D01*
X21215658Y-12789698D02*
X21215658Y-12865888D01*
X21215658Y-12865888D02*
X21225182Y-12884936D01*
X21225182Y-12884936D02*
X21234706Y-12894460D01*
X21234706Y-12894460D02*
X21253753Y-12903984D01*
X21253753Y-12903984D02*
X21291849Y-12903984D01*
X21291849Y-12903984D02*
X21310896Y-12894460D01*
X21310896Y-12894460D02*
X21320420Y-12884936D01*
X21320420Y-12884936D02*
X21329944Y-12865888D01*
X21329944Y-12865888D02*
X21329944Y-12818269D01*
X21329944Y-12818269D02*
X21320420Y-12799222D01*
X21320420Y-12799222D02*
X21310896Y-12789698D01*
X21310896Y-12789698D02*
X21291849Y-12780174D01*
X21291849Y-12780174D02*
X21253753Y-12780174D01*
X21253753Y-12780174D02*
X21234706Y-12789698D01*
X21234706Y-12789698D02*
X21225182Y-12799222D01*
X21225182Y-12799222D02*
X21215658Y-12818269D01*
X21406134Y-12703984D02*
X21406134Y-12742079D01*
X21482325Y-12703984D02*
X21482325Y-12742079D01*
X21777563Y-12980174D02*
X21768039Y-12970650D01*
X21768039Y-12970650D02*
X21748991Y-12942079D01*
X21748991Y-12942079D02*
X21739468Y-12923031D01*
X21739468Y-12923031D02*
X21729944Y-12894460D01*
X21729944Y-12894460D02*
X21720420Y-12846841D01*
X21720420Y-12846841D02*
X21720420Y-12808746D01*
X21720420Y-12808746D02*
X21729944Y-12761127D01*
X21729944Y-12761127D02*
X21739468Y-12732555D01*
X21739468Y-12732555D02*
X21748991Y-12713508D01*
X21748991Y-12713508D02*
X21768039Y-12684936D01*
X21768039Y-12684936D02*
X21777563Y-12675412D01*
X21939468Y-12770650D02*
X21939468Y-12903984D01*
X21891849Y-12694460D02*
X21844230Y-12837317D01*
X21844230Y-12837317D02*
X21968039Y-12837317D01*
X22196611Y-12903984D02*
X22196611Y-12703984D01*
X22282325Y-12903984D02*
X22282325Y-12799222D01*
X22282325Y-12799222D02*
X22272801Y-12780174D01*
X22272801Y-12780174D02*
X22253753Y-12770650D01*
X22253753Y-12770650D02*
X22225182Y-12770650D01*
X22225182Y-12770650D02*
X22206134Y-12780174D01*
X22206134Y-12780174D02*
X22196611Y-12789698D01*
X22406134Y-12903984D02*
X22387087Y-12894460D01*
X22387087Y-12894460D02*
X22377563Y-12884936D01*
X22377563Y-12884936D02*
X22368039Y-12865888D01*
X22368039Y-12865888D02*
X22368039Y-12808746D01*
X22368039Y-12808746D02*
X22377563Y-12789698D01*
X22377563Y-12789698D02*
X22387087Y-12780174D01*
X22387087Y-12780174D02*
X22406134Y-12770650D01*
X22406134Y-12770650D02*
X22434706Y-12770650D01*
X22434706Y-12770650D02*
X22453753Y-12780174D01*
X22453753Y-12780174D02*
X22463277Y-12789698D01*
X22463277Y-12789698D02*
X22472801Y-12808746D01*
X22472801Y-12808746D02*
X22472801Y-12865888D01*
X22472801Y-12865888D02*
X22463277Y-12884936D01*
X22463277Y-12884936D02*
X22453753Y-12894460D01*
X22453753Y-12894460D02*
X22434706Y-12903984D01*
X22434706Y-12903984D02*
X22406134Y-12903984D01*
X22587087Y-12903984D02*
X22568039Y-12894460D01*
X22568039Y-12894460D02*
X22558515Y-12875412D01*
X22558515Y-12875412D02*
X22558515Y-12703984D01*
X22739468Y-12894460D02*
X22720420Y-12903984D01*
X22720420Y-12903984D02*
X22682325Y-12903984D01*
X22682325Y-12903984D02*
X22663277Y-12894460D01*
X22663277Y-12894460D02*
X22653753Y-12875412D01*
X22653753Y-12875412D02*
X22653753Y-12799222D01*
X22653753Y-12799222D02*
X22663277Y-12780174D01*
X22663277Y-12780174D02*
X22682325Y-12770650D01*
X22682325Y-12770650D02*
X22720420Y-12770650D01*
X22720420Y-12770650D02*
X22739468Y-12780174D01*
X22739468Y-12780174D02*
X22748991Y-12799222D01*
X22748991Y-12799222D02*
X22748991Y-12818269D01*
X22748991Y-12818269D02*
X22653753Y-12837317D01*
X22825182Y-12894460D02*
X22844230Y-12903984D01*
X22844230Y-12903984D02*
X22882325Y-12903984D01*
X22882325Y-12903984D02*
X22901372Y-12894460D01*
X22901372Y-12894460D02*
X22910896Y-12875412D01*
X22910896Y-12875412D02*
X22910896Y-12865888D01*
X22910896Y-12865888D02*
X22901372Y-12846841D01*
X22901372Y-12846841D02*
X22882325Y-12837317D01*
X22882325Y-12837317D02*
X22853753Y-12837317D01*
X22853753Y-12837317D02*
X22834706Y-12827793D01*
X22834706Y-12827793D02*
X22825182Y-12808746D01*
X22825182Y-12808746D02*
X22825182Y-12799222D01*
X22825182Y-12799222D02*
X22834706Y-12780174D01*
X22834706Y-12780174D02*
X22853753Y-12770650D01*
X22853753Y-12770650D02*
X22882325Y-12770650D01*
X22882325Y-12770650D02*
X22901372Y-12780174D01*
X22977563Y-12980174D02*
X22987087Y-12970650D01*
X22987087Y-12970650D02*
X23006134Y-12942079D01*
X23006134Y-12942079D02*
X23015658Y-12923031D01*
X23015658Y-12923031D02*
X23025182Y-12894460D01*
X23025182Y-12894460D02*
X23034706Y-12846841D01*
X23034706Y-12846841D02*
X23034706Y-12808746D01*
X23034706Y-12808746D02*
X23025182Y-12761127D01*
X23025182Y-12761127D02*
X23015658Y-12732555D01*
X23015658Y-12732555D02*
X23006134Y-12713508D01*
X23006134Y-12713508D02*
X22987087Y-12684936D01*
X22987087Y-12684936D02*
X22977563Y-12675412D01*
X23339468Y-12980174D02*
X23329944Y-12970650D01*
X23329944Y-12970650D02*
X23310896Y-12942079D01*
X23310896Y-12942079D02*
X23301372Y-12923031D01*
X23301372Y-12923031D02*
X23291849Y-12894460D01*
X23291849Y-12894460D02*
X23282325Y-12846841D01*
X23282325Y-12846841D02*
X23282325Y-12808746D01*
X23282325Y-12808746D02*
X23291849Y-12761127D01*
X23291849Y-12761127D02*
X23301372Y-12732555D01*
X23301372Y-12732555D02*
X23310896Y-12713508D01*
X23310896Y-12713508D02*
X23329944Y-12684936D01*
X23329944Y-12684936D02*
X23339468Y-12675412D01*
X23415658Y-12770650D02*
X23415658Y-12903984D01*
X23415658Y-12789698D02*
X23425182Y-12780174D01*
X23425182Y-12780174D02*
X23444230Y-12770650D01*
X23444230Y-12770650D02*
X23472801Y-12770650D01*
X23472801Y-12770650D02*
X23491849Y-12780174D01*
X23491849Y-12780174D02*
X23501372Y-12799222D01*
X23501372Y-12799222D02*
X23501372Y-12903984D01*
X23625182Y-12903984D02*
X23606134Y-12894460D01*
X23606134Y-12894460D02*
X23596611Y-12884936D01*
X23596611Y-12884936D02*
X23587087Y-12865888D01*
X23587087Y-12865888D02*
X23587087Y-12808746D01*
X23587087Y-12808746D02*
X23596611Y-12789698D01*
X23596611Y-12789698D02*
X23606134Y-12780174D01*
X23606134Y-12780174D02*
X23625182Y-12770650D01*
X23625182Y-12770650D02*
X23653753Y-12770650D01*
X23653753Y-12770650D02*
X23672801Y-12780174D01*
X23672801Y-12780174D02*
X23682325Y-12789698D01*
X23682325Y-12789698D02*
X23691849Y-12808746D01*
X23691849Y-12808746D02*
X23691849Y-12865888D01*
X23691849Y-12865888D02*
X23682325Y-12884936D01*
X23682325Y-12884936D02*
X23672801Y-12894460D01*
X23672801Y-12894460D02*
X23653753Y-12903984D01*
X23653753Y-12903984D02*
X23625182Y-12903984D01*
X23748992Y-12770650D02*
X23825182Y-12770650D01*
X23777563Y-12703984D02*
X23777563Y-12875412D01*
X23777563Y-12875412D02*
X23787087Y-12894460D01*
X23787087Y-12894460D02*
X23806134Y-12903984D01*
X23806134Y-12903984D02*
X23825182Y-12903984D01*
X24044230Y-12770650D02*
X24044230Y-12970650D01*
X24044230Y-12780174D02*
X24063277Y-12770650D01*
X24063277Y-12770650D02*
X24101373Y-12770650D01*
X24101373Y-12770650D02*
X24120420Y-12780174D01*
X24120420Y-12780174D02*
X24129944Y-12789698D01*
X24129944Y-12789698D02*
X24139468Y-12808746D01*
X24139468Y-12808746D02*
X24139468Y-12865888D01*
X24139468Y-12865888D02*
X24129944Y-12884936D01*
X24129944Y-12884936D02*
X24120420Y-12894460D01*
X24120420Y-12894460D02*
X24101373Y-12903984D01*
X24101373Y-12903984D02*
X24063277Y-12903984D01*
X24063277Y-12903984D02*
X24044230Y-12894460D01*
X24253753Y-12903984D02*
X24234706Y-12894460D01*
X24234706Y-12894460D02*
X24225182Y-12875412D01*
X24225182Y-12875412D02*
X24225182Y-12703984D01*
X24415658Y-12903984D02*
X24415658Y-12799222D01*
X24415658Y-12799222D02*
X24406134Y-12780174D01*
X24406134Y-12780174D02*
X24387087Y-12770650D01*
X24387087Y-12770650D02*
X24348992Y-12770650D01*
X24348992Y-12770650D02*
X24329944Y-12780174D01*
X24415658Y-12894460D02*
X24396611Y-12903984D01*
X24396611Y-12903984D02*
X24348992Y-12903984D01*
X24348992Y-12903984D02*
X24329944Y-12894460D01*
X24329944Y-12894460D02*
X24320420Y-12875412D01*
X24320420Y-12875412D02*
X24320420Y-12856365D01*
X24320420Y-12856365D02*
X24329944Y-12837317D01*
X24329944Y-12837317D02*
X24348992Y-12827793D01*
X24348992Y-12827793D02*
X24396611Y-12827793D01*
X24396611Y-12827793D02*
X24415658Y-12818269D01*
X24482325Y-12770650D02*
X24558515Y-12770650D01*
X24510896Y-12703984D02*
X24510896Y-12875412D01*
X24510896Y-12875412D02*
X24520420Y-12894460D01*
X24520420Y-12894460D02*
X24539468Y-12903984D01*
X24539468Y-12903984D02*
X24558515Y-12903984D01*
X24701373Y-12894460D02*
X24682325Y-12903984D01*
X24682325Y-12903984D02*
X24644230Y-12903984D01*
X24644230Y-12903984D02*
X24625182Y-12894460D01*
X24625182Y-12894460D02*
X24615658Y-12875412D01*
X24615658Y-12875412D02*
X24615658Y-12799222D01*
X24615658Y-12799222D02*
X24625182Y-12780174D01*
X24625182Y-12780174D02*
X24644230Y-12770650D01*
X24644230Y-12770650D02*
X24682325Y-12770650D01*
X24682325Y-12770650D02*
X24701373Y-12780174D01*
X24701373Y-12780174D02*
X24710896Y-12799222D01*
X24710896Y-12799222D02*
X24710896Y-12818269D01*
X24710896Y-12818269D02*
X24615658Y-12837317D01*
X24882325Y-12903984D02*
X24882325Y-12703984D01*
X24882325Y-12894460D02*
X24863277Y-12903984D01*
X24863277Y-12903984D02*
X24825182Y-12903984D01*
X24825182Y-12903984D02*
X24806134Y-12894460D01*
X24806134Y-12894460D02*
X24796611Y-12884936D01*
X24796611Y-12884936D02*
X24787087Y-12865888D01*
X24787087Y-12865888D02*
X24787087Y-12808746D01*
X24787087Y-12808746D02*
X24796611Y-12789698D01*
X24796611Y-12789698D02*
X24806134Y-12780174D01*
X24806134Y-12780174D02*
X24825182Y-12770650D01*
X24825182Y-12770650D02*
X24863277Y-12770650D01*
X24863277Y-12770650D02*
X24882325Y-12780174D01*
X24958515Y-12980174D02*
X24968039Y-12970650D01*
X24968039Y-12970650D02*
X24987087Y-12942079D01*
X24987087Y-12942079D02*
X24996611Y-12923031D01*
X24996611Y-12923031D02*
X25006134Y-12894460D01*
X25006134Y-12894460D02*
X25015658Y-12846841D01*
X25015658Y-12846841D02*
X25015658Y-12808746D01*
X25015658Y-12808746D02*
X25006134Y-12761127D01*
X25006134Y-12761127D02*
X24996611Y-12732555D01*
X24996611Y-12732555D02*
X24987087Y-12713508D01*
X24987087Y-12713508D02*
X24968039Y-12684936D01*
X24968039Y-12684936D02*
X24958515Y-12675412D01*
M02*
