%TF.GenerationSoftware,KiCad,Pcbnew,8.0.1*%
%TF.CreationDate,2024-05-30T23:43:43+05:00*%
%TF.ProjectId,6_layer_MCU,365f6c61-7965-4725-9f4d-43552e6b6963,rev?*%
%TF.SameCoordinates,Original*%
%TF.FileFunction,Drillmap*%
%TF.FilePolarity,Positive*%
%FSLAX45Y45*%
G04 Gerber Fmt 4.5, Leading zero omitted, Abs format (unit mm)*
G04 Created by KiCad (PCBNEW 8.0.1) date 2024-05-30 23:43:43*
%MOMM*%
%LPD*%
G01*
G04 APERTURE LIST*
%ADD10C,0.050000*%
%ADD11C,0.200000*%
%ADD12C,0.100000*%
%ADD13C,0.220000*%
G04 APERTURE END LIST*
D10*
X17793359Y-10150325D02*
G75*
G02*
X12793359Y-10150325I-2500000J0D01*
G01*
X12793359Y-10150325D02*
G75*
G02*
X17793359Y-10150325I2500000J0D01*
G01*
D11*
D12*
X12969500Y-9865000D02*
X13059500Y-9955000D01*
X13059500Y-9865000D02*
X12969500Y-9955000D01*
X12969500Y-10165000D02*
X13059500Y-10255000D01*
X13059500Y-10165000D02*
X12969500Y-10255000D01*
X14772000Y-12025000D02*
X14862000Y-12115000D01*
X14862000Y-12025000D02*
X14772000Y-12115000D01*
X15572000Y-12025000D02*
X15662000Y-12115000D01*
X15662000Y-12025000D02*
X15572000Y-12115000D01*
X13497500Y-9850000D02*
G75*
G02*
X13397500Y-9850000I-50000J0D01*
G01*
X13397500Y-9850000D02*
G75*
G02*
X13497500Y-9850000I50000J0D01*
G01*
X13497500Y-10290000D02*
G75*
G02*
X13397500Y-10290000I-50000J0D01*
G01*
X13397500Y-10290000D02*
G75*
G02*
X13497500Y-10290000I50000J0D01*
G01*
D13*
X13702368Y-8449335D02*
X13702368Y-8669335D01*
X13592368Y-8559335D02*
X13812368Y-8559335D01*
X13702368Y-11631315D02*
X13702368Y-11851315D01*
X13592368Y-11741315D02*
X13812368Y-11741315D01*
X16884349Y-8449335D02*
X16884349Y-8669335D01*
X16774349Y-8559335D02*
X16994349Y-8559335D01*
X16884349Y-11631315D02*
X16884349Y-11851315D01*
X16774349Y-11741315D02*
X16994349Y-11741315D01*
D11*
X13051635Y-12964309D02*
X13051635Y-12764309D01*
X13051635Y-12764309D02*
X13099254Y-12764309D01*
X13099254Y-12764309D02*
X13127826Y-12773832D01*
X13127826Y-12773832D02*
X13146873Y-12792880D01*
X13146873Y-12792880D02*
X13156397Y-12811928D01*
X13156397Y-12811928D02*
X13165921Y-12850023D01*
X13165921Y-12850023D02*
X13165921Y-12878594D01*
X13165921Y-12878594D02*
X13156397Y-12916689D01*
X13156397Y-12916689D02*
X13146873Y-12935737D01*
X13146873Y-12935737D02*
X13127826Y-12954785D01*
X13127826Y-12954785D02*
X13099254Y-12964309D01*
X13099254Y-12964309D02*
X13051635Y-12964309D01*
X13251635Y-12964309D02*
X13251635Y-12830975D01*
X13251635Y-12869070D02*
X13261159Y-12850023D01*
X13261159Y-12850023D02*
X13270683Y-12840499D01*
X13270683Y-12840499D02*
X13289731Y-12830975D01*
X13289731Y-12830975D02*
X13308778Y-12830975D01*
X13375445Y-12964309D02*
X13375445Y-12830975D01*
X13375445Y-12764309D02*
X13365921Y-12773832D01*
X13365921Y-12773832D02*
X13375445Y-12783356D01*
X13375445Y-12783356D02*
X13384969Y-12773832D01*
X13384969Y-12773832D02*
X13375445Y-12764309D01*
X13375445Y-12764309D02*
X13375445Y-12783356D01*
X13499254Y-12964309D02*
X13480207Y-12954785D01*
X13480207Y-12954785D02*
X13470683Y-12935737D01*
X13470683Y-12935737D02*
X13470683Y-12764309D01*
X13604016Y-12964309D02*
X13584969Y-12954785D01*
X13584969Y-12954785D02*
X13575445Y-12935737D01*
X13575445Y-12935737D02*
X13575445Y-12764309D01*
X13832588Y-12964309D02*
X13832588Y-12764309D01*
X13832588Y-12764309D02*
X13899254Y-12907166D01*
X13899254Y-12907166D02*
X13965921Y-12764309D01*
X13965921Y-12764309D02*
X13965921Y-12964309D01*
X14146873Y-12964309D02*
X14146873Y-12859547D01*
X14146873Y-12859547D02*
X14137350Y-12840499D01*
X14137350Y-12840499D02*
X14118302Y-12830975D01*
X14118302Y-12830975D02*
X14080207Y-12830975D01*
X14080207Y-12830975D02*
X14061159Y-12840499D01*
X14146873Y-12954785D02*
X14127826Y-12964309D01*
X14127826Y-12964309D02*
X14080207Y-12964309D01*
X14080207Y-12964309D02*
X14061159Y-12954785D01*
X14061159Y-12954785D02*
X14051635Y-12935737D01*
X14051635Y-12935737D02*
X14051635Y-12916689D01*
X14051635Y-12916689D02*
X14061159Y-12897642D01*
X14061159Y-12897642D02*
X14080207Y-12888118D01*
X14080207Y-12888118D02*
X14127826Y-12888118D01*
X14127826Y-12888118D02*
X14146873Y-12878594D01*
X14242112Y-12830975D02*
X14242112Y-13030975D01*
X14242112Y-12840499D02*
X14261159Y-12830975D01*
X14261159Y-12830975D02*
X14299254Y-12830975D01*
X14299254Y-12830975D02*
X14318302Y-12840499D01*
X14318302Y-12840499D02*
X14327826Y-12850023D01*
X14327826Y-12850023D02*
X14337350Y-12869070D01*
X14337350Y-12869070D02*
X14337350Y-12926213D01*
X14337350Y-12926213D02*
X14327826Y-12945261D01*
X14327826Y-12945261D02*
X14318302Y-12954785D01*
X14318302Y-12954785D02*
X14299254Y-12964309D01*
X14299254Y-12964309D02*
X14261159Y-12964309D01*
X14261159Y-12964309D02*
X14242112Y-12954785D01*
X14423064Y-12945261D02*
X14432588Y-12954785D01*
X14432588Y-12954785D02*
X14423064Y-12964309D01*
X14423064Y-12964309D02*
X14413540Y-12954785D01*
X14413540Y-12954785D02*
X14423064Y-12945261D01*
X14423064Y-12945261D02*
X14423064Y-12964309D01*
X14423064Y-12840499D02*
X14432588Y-12850023D01*
X14432588Y-12850023D02*
X14423064Y-12859547D01*
X14423064Y-12859547D02*
X14413540Y-12850023D01*
X14413540Y-12850023D02*
X14423064Y-12840499D01*
X14423064Y-12840499D02*
X14423064Y-12859547D01*
D12*
X12700859Y-13247825D02*
X12790859Y-13337825D01*
X12790859Y-13247825D02*
X12700859Y-13337825D01*
D11*
X13089731Y-13184309D02*
X13108778Y-13184309D01*
X13108778Y-13184309D02*
X13127826Y-13193832D01*
X13127826Y-13193832D02*
X13137350Y-13203356D01*
X13137350Y-13203356D02*
X13146873Y-13222404D01*
X13146873Y-13222404D02*
X13156397Y-13260499D01*
X13156397Y-13260499D02*
X13156397Y-13308118D01*
X13156397Y-13308118D02*
X13146873Y-13346213D01*
X13146873Y-13346213D02*
X13137350Y-13365261D01*
X13137350Y-13365261D02*
X13127826Y-13374785D01*
X13127826Y-13374785D02*
X13108778Y-13384309D01*
X13108778Y-13384309D02*
X13089731Y-13384309D01*
X13089731Y-13384309D02*
X13070683Y-13374785D01*
X13070683Y-13374785D02*
X13061159Y-13365261D01*
X13061159Y-13365261D02*
X13051635Y-13346213D01*
X13051635Y-13346213D02*
X13042112Y-13308118D01*
X13042112Y-13308118D02*
X13042112Y-13260499D01*
X13042112Y-13260499D02*
X13051635Y-13222404D01*
X13051635Y-13222404D02*
X13061159Y-13203356D01*
X13061159Y-13203356D02*
X13070683Y-13193832D01*
X13070683Y-13193832D02*
X13089731Y-13184309D01*
X13242112Y-13365261D02*
X13251635Y-13374785D01*
X13251635Y-13374785D02*
X13242112Y-13384309D01*
X13242112Y-13384309D02*
X13232588Y-13374785D01*
X13232588Y-13374785D02*
X13242112Y-13365261D01*
X13242112Y-13365261D02*
X13242112Y-13384309D01*
X13346873Y-13384309D02*
X13384969Y-13384309D01*
X13384969Y-13384309D02*
X13404016Y-13374785D01*
X13404016Y-13374785D02*
X13413540Y-13365261D01*
X13413540Y-13365261D02*
X13432588Y-13336689D01*
X13432588Y-13336689D02*
X13442112Y-13298594D01*
X13442112Y-13298594D02*
X13442112Y-13222404D01*
X13442112Y-13222404D02*
X13432588Y-13203356D01*
X13432588Y-13203356D02*
X13423064Y-13193832D01*
X13423064Y-13193832D02*
X13404016Y-13184309D01*
X13404016Y-13184309D02*
X13365921Y-13184309D01*
X13365921Y-13184309D02*
X13346873Y-13193832D01*
X13346873Y-13193832D02*
X13337350Y-13203356D01*
X13337350Y-13203356D02*
X13327826Y-13222404D01*
X13327826Y-13222404D02*
X13327826Y-13270023D01*
X13327826Y-13270023D02*
X13337350Y-13289070D01*
X13337350Y-13289070D02*
X13346873Y-13298594D01*
X13346873Y-13298594D02*
X13365921Y-13308118D01*
X13365921Y-13308118D02*
X13404016Y-13308118D01*
X13404016Y-13308118D02*
X13423064Y-13298594D01*
X13423064Y-13298594D02*
X13432588Y-13289070D01*
X13432588Y-13289070D02*
X13442112Y-13270023D01*
X13565921Y-13184309D02*
X13584969Y-13184309D01*
X13584969Y-13184309D02*
X13604016Y-13193832D01*
X13604016Y-13193832D02*
X13613540Y-13203356D01*
X13613540Y-13203356D02*
X13623064Y-13222404D01*
X13623064Y-13222404D02*
X13632588Y-13260499D01*
X13632588Y-13260499D02*
X13632588Y-13308118D01*
X13632588Y-13308118D02*
X13623064Y-13346213D01*
X13623064Y-13346213D02*
X13613540Y-13365261D01*
X13613540Y-13365261D02*
X13604016Y-13374785D01*
X13604016Y-13374785D02*
X13584969Y-13384309D01*
X13584969Y-13384309D02*
X13565921Y-13384309D01*
X13565921Y-13384309D02*
X13546873Y-13374785D01*
X13546873Y-13374785D02*
X13537350Y-13365261D01*
X13537350Y-13365261D02*
X13527826Y-13346213D01*
X13527826Y-13346213D02*
X13518302Y-13308118D01*
X13518302Y-13308118D02*
X13518302Y-13260499D01*
X13518302Y-13260499D02*
X13527826Y-13222404D01*
X13527826Y-13222404D02*
X13537350Y-13203356D01*
X13537350Y-13203356D02*
X13546873Y-13193832D01*
X13546873Y-13193832D02*
X13565921Y-13184309D01*
X13756397Y-13184309D02*
X13775445Y-13184309D01*
X13775445Y-13184309D02*
X13794493Y-13193832D01*
X13794493Y-13193832D02*
X13804016Y-13203356D01*
X13804016Y-13203356D02*
X13813540Y-13222404D01*
X13813540Y-13222404D02*
X13823064Y-13260499D01*
X13823064Y-13260499D02*
X13823064Y-13308118D01*
X13823064Y-13308118D02*
X13813540Y-13346213D01*
X13813540Y-13346213D02*
X13804016Y-13365261D01*
X13804016Y-13365261D02*
X13794493Y-13374785D01*
X13794493Y-13374785D02*
X13775445Y-13384309D01*
X13775445Y-13384309D02*
X13756397Y-13384309D01*
X13756397Y-13384309D02*
X13737350Y-13374785D01*
X13737350Y-13374785D02*
X13727826Y-13365261D01*
X13727826Y-13365261D02*
X13718302Y-13346213D01*
X13718302Y-13346213D02*
X13708778Y-13308118D01*
X13708778Y-13308118D02*
X13708778Y-13260499D01*
X13708778Y-13260499D02*
X13718302Y-13222404D01*
X13718302Y-13222404D02*
X13727826Y-13203356D01*
X13727826Y-13203356D02*
X13737350Y-13193832D01*
X13737350Y-13193832D02*
X13756397Y-13184309D01*
X13908778Y-13384309D02*
X13908778Y-13250975D01*
X13908778Y-13270023D02*
X13918302Y-13260499D01*
X13918302Y-13260499D02*
X13937350Y-13250975D01*
X13937350Y-13250975D02*
X13965921Y-13250975D01*
X13965921Y-13250975D02*
X13984969Y-13260499D01*
X13984969Y-13260499D02*
X13994493Y-13279547D01*
X13994493Y-13279547D02*
X13994493Y-13384309D01*
X13994493Y-13279547D02*
X14004016Y-13260499D01*
X14004016Y-13260499D02*
X14023064Y-13250975D01*
X14023064Y-13250975D02*
X14051635Y-13250975D01*
X14051635Y-13250975D02*
X14070683Y-13260499D01*
X14070683Y-13260499D02*
X14080207Y-13279547D01*
X14080207Y-13279547D02*
X14080207Y-13384309D01*
X14175445Y-13384309D02*
X14175445Y-13250975D01*
X14175445Y-13270023D02*
X14184969Y-13260499D01*
X14184969Y-13260499D02*
X14204016Y-13250975D01*
X14204016Y-13250975D02*
X14232588Y-13250975D01*
X14232588Y-13250975D02*
X14251635Y-13260499D01*
X14251635Y-13260499D02*
X14261159Y-13279547D01*
X14261159Y-13279547D02*
X14261159Y-13384309D01*
X14261159Y-13279547D02*
X14270683Y-13260499D01*
X14270683Y-13260499D02*
X14289731Y-13250975D01*
X14289731Y-13250975D02*
X14318302Y-13250975D01*
X14318302Y-13250975D02*
X14337350Y-13260499D01*
X14337350Y-13260499D02*
X14346874Y-13279547D01*
X14346874Y-13279547D02*
X14346874Y-13384309D01*
X14737350Y-13174785D02*
X14565921Y-13431928D01*
X14994493Y-13184309D02*
X15013540Y-13184309D01*
X15013540Y-13184309D02*
X15032588Y-13193832D01*
X15032588Y-13193832D02*
X15042112Y-13203356D01*
X15042112Y-13203356D02*
X15051636Y-13222404D01*
X15051636Y-13222404D02*
X15061159Y-13260499D01*
X15061159Y-13260499D02*
X15061159Y-13308118D01*
X15061159Y-13308118D02*
X15051636Y-13346213D01*
X15051636Y-13346213D02*
X15042112Y-13365261D01*
X15042112Y-13365261D02*
X15032588Y-13374785D01*
X15032588Y-13374785D02*
X15013540Y-13384309D01*
X15013540Y-13384309D02*
X14994493Y-13384309D01*
X14994493Y-13384309D02*
X14975445Y-13374785D01*
X14975445Y-13374785D02*
X14965921Y-13365261D01*
X14965921Y-13365261D02*
X14956397Y-13346213D01*
X14956397Y-13346213D02*
X14946874Y-13308118D01*
X14946874Y-13308118D02*
X14946874Y-13260499D01*
X14946874Y-13260499D02*
X14956397Y-13222404D01*
X14956397Y-13222404D02*
X14965921Y-13203356D01*
X14965921Y-13203356D02*
X14975445Y-13193832D01*
X14975445Y-13193832D02*
X14994493Y-13184309D01*
X15146874Y-13365261D02*
X15156397Y-13374785D01*
X15156397Y-13374785D02*
X15146874Y-13384309D01*
X15146874Y-13384309D02*
X15137350Y-13374785D01*
X15137350Y-13374785D02*
X15146874Y-13365261D01*
X15146874Y-13365261D02*
X15146874Y-13384309D01*
X15280207Y-13184309D02*
X15299255Y-13184309D01*
X15299255Y-13184309D02*
X15318302Y-13193832D01*
X15318302Y-13193832D02*
X15327826Y-13203356D01*
X15327826Y-13203356D02*
X15337350Y-13222404D01*
X15337350Y-13222404D02*
X15346874Y-13260499D01*
X15346874Y-13260499D02*
X15346874Y-13308118D01*
X15346874Y-13308118D02*
X15337350Y-13346213D01*
X15337350Y-13346213D02*
X15327826Y-13365261D01*
X15327826Y-13365261D02*
X15318302Y-13374785D01*
X15318302Y-13374785D02*
X15299255Y-13384309D01*
X15299255Y-13384309D02*
X15280207Y-13384309D01*
X15280207Y-13384309D02*
X15261159Y-13374785D01*
X15261159Y-13374785D02*
X15251636Y-13365261D01*
X15251636Y-13365261D02*
X15242112Y-13346213D01*
X15242112Y-13346213D02*
X15232588Y-13308118D01*
X15232588Y-13308118D02*
X15232588Y-13260499D01*
X15232588Y-13260499D02*
X15242112Y-13222404D01*
X15242112Y-13222404D02*
X15251636Y-13203356D01*
X15251636Y-13203356D02*
X15261159Y-13193832D01*
X15261159Y-13193832D02*
X15280207Y-13184309D01*
X15413540Y-13184309D02*
X15537350Y-13184309D01*
X15537350Y-13184309D02*
X15470683Y-13260499D01*
X15470683Y-13260499D02*
X15499255Y-13260499D01*
X15499255Y-13260499D02*
X15518302Y-13270023D01*
X15518302Y-13270023D02*
X15527826Y-13279547D01*
X15527826Y-13279547D02*
X15537350Y-13298594D01*
X15537350Y-13298594D02*
X15537350Y-13346213D01*
X15537350Y-13346213D02*
X15527826Y-13365261D01*
X15527826Y-13365261D02*
X15518302Y-13374785D01*
X15518302Y-13374785D02*
X15499255Y-13384309D01*
X15499255Y-13384309D02*
X15442112Y-13384309D01*
X15442112Y-13384309D02*
X15423064Y-13374785D01*
X15423064Y-13374785D02*
X15413540Y-13365261D01*
X15718302Y-13184309D02*
X15623064Y-13184309D01*
X15623064Y-13184309D02*
X15613540Y-13279547D01*
X15613540Y-13279547D02*
X15623064Y-13270023D01*
X15623064Y-13270023D02*
X15642112Y-13260499D01*
X15642112Y-13260499D02*
X15689731Y-13260499D01*
X15689731Y-13260499D02*
X15708778Y-13270023D01*
X15708778Y-13270023D02*
X15718302Y-13279547D01*
X15718302Y-13279547D02*
X15727826Y-13298594D01*
X15727826Y-13298594D02*
X15727826Y-13346213D01*
X15727826Y-13346213D02*
X15718302Y-13365261D01*
X15718302Y-13365261D02*
X15708778Y-13374785D01*
X15708778Y-13374785D02*
X15689731Y-13384309D01*
X15689731Y-13384309D02*
X15642112Y-13384309D01*
X15642112Y-13384309D02*
X15623064Y-13374785D01*
X15623064Y-13374785D02*
X15613540Y-13365261D01*
X15899255Y-13250975D02*
X15899255Y-13384309D01*
X15851636Y-13174785D02*
X15804017Y-13317642D01*
X15804017Y-13317642D02*
X15927826Y-13317642D01*
X15994493Y-13184309D02*
X15994493Y-13222404D01*
X16070683Y-13184309D02*
X16070683Y-13222404D01*
X16365921Y-13460499D02*
X16356398Y-13450975D01*
X16356398Y-13450975D02*
X16337350Y-13422404D01*
X16337350Y-13422404D02*
X16327826Y-13403356D01*
X16327826Y-13403356D02*
X16318302Y-13374785D01*
X16318302Y-13374785D02*
X16308779Y-13327166D01*
X16308779Y-13327166D02*
X16308779Y-13289070D01*
X16308779Y-13289070D02*
X16318302Y-13241451D01*
X16318302Y-13241451D02*
X16327826Y-13212880D01*
X16327826Y-13212880D02*
X16337350Y-13193832D01*
X16337350Y-13193832D02*
X16356398Y-13165261D01*
X16356398Y-13165261D02*
X16365921Y-13155737D01*
X16527826Y-13250975D02*
X16527826Y-13384309D01*
X16480207Y-13174785D02*
X16432588Y-13317642D01*
X16432588Y-13317642D02*
X16556398Y-13317642D01*
X16784969Y-13384309D02*
X16784969Y-13184309D01*
X16870683Y-13384309D02*
X16870683Y-13279547D01*
X16870683Y-13279547D02*
X16861160Y-13260499D01*
X16861160Y-13260499D02*
X16842112Y-13250975D01*
X16842112Y-13250975D02*
X16813541Y-13250975D01*
X16813541Y-13250975D02*
X16794493Y-13260499D01*
X16794493Y-13260499D02*
X16784969Y-13270023D01*
X16994493Y-13384309D02*
X16975445Y-13374785D01*
X16975445Y-13374785D02*
X16965922Y-13365261D01*
X16965922Y-13365261D02*
X16956398Y-13346213D01*
X16956398Y-13346213D02*
X16956398Y-13289070D01*
X16956398Y-13289070D02*
X16965922Y-13270023D01*
X16965922Y-13270023D02*
X16975445Y-13260499D01*
X16975445Y-13260499D02*
X16994493Y-13250975D01*
X16994493Y-13250975D02*
X17023064Y-13250975D01*
X17023064Y-13250975D02*
X17042112Y-13260499D01*
X17042112Y-13260499D02*
X17051636Y-13270023D01*
X17051636Y-13270023D02*
X17061160Y-13289070D01*
X17061160Y-13289070D02*
X17061160Y-13346213D01*
X17061160Y-13346213D02*
X17051636Y-13365261D01*
X17051636Y-13365261D02*
X17042112Y-13374785D01*
X17042112Y-13374785D02*
X17023064Y-13384309D01*
X17023064Y-13384309D02*
X16994493Y-13384309D01*
X17175445Y-13384309D02*
X17156398Y-13374785D01*
X17156398Y-13374785D02*
X17146874Y-13355737D01*
X17146874Y-13355737D02*
X17146874Y-13184309D01*
X17327826Y-13374785D02*
X17308779Y-13384309D01*
X17308779Y-13384309D02*
X17270683Y-13384309D01*
X17270683Y-13384309D02*
X17251636Y-13374785D01*
X17251636Y-13374785D02*
X17242112Y-13355737D01*
X17242112Y-13355737D02*
X17242112Y-13279547D01*
X17242112Y-13279547D02*
X17251636Y-13260499D01*
X17251636Y-13260499D02*
X17270683Y-13250975D01*
X17270683Y-13250975D02*
X17308779Y-13250975D01*
X17308779Y-13250975D02*
X17327826Y-13260499D01*
X17327826Y-13260499D02*
X17337350Y-13279547D01*
X17337350Y-13279547D02*
X17337350Y-13298594D01*
X17337350Y-13298594D02*
X17242112Y-13317642D01*
X17413541Y-13374785D02*
X17432588Y-13384309D01*
X17432588Y-13384309D02*
X17470683Y-13384309D01*
X17470683Y-13384309D02*
X17489731Y-13374785D01*
X17489731Y-13374785D02*
X17499255Y-13355737D01*
X17499255Y-13355737D02*
X17499255Y-13346213D01*
X17499255Y-13346213D02*
X17489731Y-13327166D01*
X17489731Y-13327166D02*
X17470683Y-13317642D01*
X17470683Y-13317642D02*
X17442112Y-13317642D01*
X17442112Y-13317642D02*
X17423064Y-13308118D01*
X17423064Y-13308118D02*
X17413541Y-13289070D01*
X17413541Y-13289070D02*
X17413541Y-13279547D01*
X17413541Y-13279547D02*
X17423064Y-13260499D01*
X17423064Y-13260499D02*
X17442112Y-13250975D01*
X17442112Y-13250975D02*
X17470683Y-13250975D01*
X17470683Y-13250975D02*
X17489731Y-13260499D01*
X17565922Y-13460499D02*
X17575445Y-13450975D01*
X17575445Y-13450975D02*
X17594493Y-13422404D01*
X17594493Y-13422404D02*
X17604017Y-13403356D01*
X17604017Y-13403356D02*
X17613541Y-13374785D01*
X17613541Y-13374785D02*
X17623064Y-13327166D01*
X17623064Y-13327166D02*
X17623064Y-13289070D01*
X17623064Y-13289070D02*
X17613541Y-13241451D01*
X17613541Y-13241451D02*
X17604017Y-13212880D01*
X17604017Y-13212880D02*
X17594493Y-13193832D01*
X17594493Y-13193832D02*
X17575445Y-13165261D01*
X17575445Y-13165261D02*
X17565922Y-13155737D01*
X17927826Y-13460499D02*
X17918303Y-13450975D01*
X17918303Y-13450975D02*
X17899255Y-13422404D01*
X17899255Y-13422404D02*
X17889731Y-13403356D01*
X17889731Y-13403356D02*
X17880207Y-13374785D01*
X17880207Y-13374785D02*
X17870684Y-13327166D01*
X17870684Y-13327166D02*
X17870684Y-13289070D01*
X17870684Y-13289070D02*
X17880207Y-13241451D01*
X17880207Y-13241451D02*
X17889731Y-13212880D01*
X17889731Y-13212880D02*
X17899255Y-13193832D01*
X17899255Y-13193832D02*
X17918303Y-13165261D01*
X17918303Y-13165261D02*
X17927826Y-13155737D01*
X18004017Y-13250975D02*
X18004017Y-13384309D01*
X18004017Y-13270023D02*
X18013541Y-13260499D01*
X18013541Y-13260499D02*
X18032588Y-13250975D01*
X18032588Y-13250975D02*
X18061160Y-13250975D01*
X18061160Y-13250975D02*
X18080207Y-13260499D01*
X18080207Y-13260499D02*
X18089731Y-13279547D01*
X18089731Y-13279547D02*
X18089731Y-13384309D01*
X18213541Y-13384309D02*
X18194493Y-13374785D01*
X18194493Y-13374785D02*
X18184969Y-13365261D01*
X18184969Y-13365261D02*
X18175445Y-13346213D01*
X18175445Y-13346213D02*
X18175445Y-13289070D01*
X18175445Y-13289070D02*
X18184969Y-13270023D01*
X18184969Y-13270023D02*
X18194493Y-13260499D01*
X18194493Y-13260499D02*
X18213541Y-13250975D01*
X18213541Y-13250975D02*
X18242112Y-13250975D01*
X18242112Y-13250975D02*
X18261160Y-13260499D01*
X18261160Y-13260499D02*
X18270684Y-13270023D01*
X18270684Y-13270023D02*
X18280207Y-13289070D01*
X18280207Y-13289070D02*
X18280207Y-13346213D01*
X18280207Y-13346213D02*
X18270684Y-13365261D01*
X18270684Y-13365261D02*
X18261160Y-13374785D01*
X18261160Y-13374785D02*
X18242112Y-13384309D01*
X18242112Y-13384309D02*
X18213541Y-13384309D01*
X18337350Y-13250975D02*
X18413541Y-13250975D01*
X18365922Y-13184309D02*
X18365922Y-13355737D01*
X18365922Y-13355737D02*
X18375445Y-13374785D01*
X18375445Y-13374785D02*
X18394493Y-13384309D01*
X18394493Y-13384309D02*
X18413541Y-13384309D01*
X18632588Y-13250975D02*
X18632588Y-13450975D01*
X18632588Y-13260499D02*
X18651636Y-13250975D01*
X18651636Y-13250975D02*
X18689731Y-13250975D01*
X18689731Y-13250975D02*
X18708779Y-13260499D01*
X18708779Y-13260499D02*
X18718303Y-13270023D01*
X18718303Y-13270023D02*
X18727826Y-13289070D01*
X18727826Y-13289070D02*
X18727826Y-13346213D01*
X18727826Y-13346213D02*
X18718303Y-13365261D01*
X18718303Y-13365261D02*
X18708779Y-13374785D01*
X18708779Y-13374785D02*
X18689731Y-13384309D01*
X18689731Y-13384309D02*
X18651636Y-13384309D01*
X18651636Y-13384309D02*
X18632588Y-13374785D01*
X18842112Y-13384309D02*
X18823065Y-13374785D01*
X18823065Y-13374785D02*
X18813541Y-13355737D01*
X18813541Y-13355737D02*
X18813541Y-13184309D01*
X19004017Y-13384309D02*
X19004017Y-13279547D01*
X19004017Y-13279547D02*
X18994493Y-13260499D01*
X18994493Y-13260499D02*
X18975446Y-13250975D01*
X18975446Y-13250975D02*
X18937350Y-13250975D01*
X18937350Y-13250975D02*
X18918303Y-13260499D01*
X19004017Y-13374785D02*
X18984969Y-13384309D01*
X18984969Y-13384309D02*
X18937350Y-13384309D01*
X18937350Y-13384309D02*
X18918303Y-13374785D01*
X18918303Y-13374785D02*
X18908779Y-13355737D01*
X18908779Y-13355737D02*
X18908779Y-13336689D01*
X18908779Y-13336689D02*
X18918303Y-13317642D01*
X18918303Y-13317642D02*
X18937350Y-13308118D01*
X18937350Y-13308118D02*
X18984969Y-13308118D01*
X18984969Y-13308118D02*
X19004017Y-13298594D01*
X19070684Y-13250975D02*
X19146874Y-13250975D01*
X19099255Y-13184309D02*
X19099255Y-13355737D01*
X19099255Y-13355737D02*
X19108779Y-13374785D01*
X19108779Y-13374785D02*
X19127826Y-13384309D01*
X19127826Y-13384309D02*
X19146874Y-13384309D01*
X19289731Y-13374785D02*
X19270684Y-13384309D01*
X19270684Y-13384309D02*
X19232588Y-13384309D01*
X19232588Y-13384309D02*
X19213541Y-13374785D01*
X19213541Y-13374785D02*
X19204017Y-13355737D01*
X19204017Y-13355737D02*
X19204017Y-13279547D01*
X19204017Y-13279547D02*
X19213541Y-13260499D01*
X19213541Y-13260499D02*
X19232588Y-13250975D01*
X19232588Y-13250975D02*
X19270684Y-13250975D01*
X19270684Y-13250975D02*
X19289731Y-13260499D01*
X19289731Y-13260499D02*
X19299255Y-13279547D01*
X19299255Y-13279547D02*
X19299255Y-13298594D01*
X19299255Y-13298594D02*
X19204017Y-13317642D01*
X19470684Y-13384309D02*
X19470684Y-13184309D01*
X19470684Y-13374785D02*
X19451636Y-13384309D01*
X19451636Y-13384309D02*
X19413541Y-13384309D01*
X19413541Y-13384309D02*
X19394493Y-13374785D01*
X19394493Y-13374785D02*
X19384969Y-13365261D01*
X19384969Y-13365261D02*
X19375446Y-13346213D01*
X19375446Y-13346213D02*
X19375446Y-13289070D01*
X19375446Y-13289070D02*
X19384969Y-13270023D01*
X19384969Y-13270023D02*
X19394493Y-13260499D01*
X19394493Y-13260499D02*
X19413541Y-13250975D01*
X19413541Y-13250975D02*
X19451636Y-13250975D01*
X19451636Y-13250975D02*
X19470684Y-13260499D01*
X19546874Y-13460499D02*
X19556398Y-13450975D01*
X19556398Y-13450975D02*
X19575446Y-13422404D01*
X19575446Y-13422404D02*
X19584969Y-13403356D01*
X19584969Y-13403356D02*
X19594493Y-13374785D01*
X19594493Y-13374785D02*
X19604017Y-13327166D01*
X19604017Y-13327166D02*
X19604017Y-13289070D01*
X19604017Y-13289070D02*
X19594493Y-13241451D01*
X19594493Y-13241451D02*
X19584969Y-13212880D01*
X19584969Y-13212880D02*
X19575446Y-13193832D01*
X19575446Y-13193832D02*
X19556398Y-13165261D01*
X19556398Y-13165261D02*
X19546874Y-13155737D01*
D12*
X12790859Y-13556825D02*
G75*
G02*
X12690859Y-13556825I-50000J0D01*
G01*
X12690859Y-13556825D02*
G75*
G02*
X12790859Y-13556825I50000J0D01*
G01*
D11*
X13156397Y-13648309D02*
X13042112Y-13648309D01*
X13099254Y-13648309D02*
X13099254Y-13448309D01*
X13099254Y-13448309D02*
X13080207Y-13476880D01*
X13080207Y-13476880D02*
X13061159Y-13495928D01*
X13061159Y-13495928D02*
X13042112Y-13505451D01*
X13242112Y-13629261D02*
X13251635Y-13638785D01*
X13251635Y-13638785D02*
X13242112Y-13648309D01*
X13242112Y-13648309D02*
X13232588Y-13638785D01*
X13232588Y-13638785D02*
X13242112Y-13629261D01*
X13242112Y-13629261D02*
X13242112Y-13648309D01*
X13375445Y-13448309D02*
X13394493Y-13448309D01*
X13394493Y-13448309D02*
X13413540Y-13457832D01*
X13413540Y-13457832D02*
X13423064Y-13467356D01*
X13423064Y-13467356D02*
X13432588Y-13486404D01*
X13432588Y-13486404D02*
X13442112Y-13524499D01*
X13442112Y-13524499D02*
X13442112Y-13572118D01*
X13442112Y-13572118D02*
X13432588Y-13610213D01*
X13432588Y-13610213D02*
X13423064Y-13629261D01*
X13423064Y-13629261D02*
X13413540Y-13638785D01*
X13413540Y-13638785D02*
X13394493Y-13648309D01*
X13394493Y-13648309D02*
X13375445Y-13648309D01*
X13375445Y-13648309D02*
X13356397Y-13638785D01*
X13356397Y-13638785D02*
X13346873Y-13629261D01*
X13346873Y-13629261D02*
X13337350Y-13610213D01*
X13337350Y-13610213D02*
X13327826Y-13572118D01*
X13327826Y-13572118D02*
X13327826Y-13524499D01*
X13327826Y-13524499D02*
X13337350Y-13486404D01*
X13337350Y-13486404D02*
X13346873Y-13467356D01*
X13346873Y-13467356D02*
X13356397Y-13457832D01*
X13356397Y-13457832D02*
X13375445Y-13448309D01*
X13565921Y-13448309D02*
X13584969Y-13448309D01*
X13584969Y-13448309D02*
X13604016Y-13457832D01*
X13604016Y-13457832D02*
X13613540Y-13467356D01*
X13613540Y-13467356D02*
X13623064Y-13486404D01*
X13623064Y-13486404D02*
X13632588Y-13524499D01*
X13632588Y-13524499D02*
X13632588Y-13572118D01*
X13632588Y-13572118D02*
X13623064Y-13610213D01*
X13623064Y-13610213D02*
X13613540Y-13629261D01*
X13613540Y-13629261D02*
X13604016Y-13638785D01*
X13604016Y-13638785D02*
X13584969Y-13648309D01*
X13584969Y-13648309D02*
X13565921Y-13648309D01*
X13565921Y-13648309D02*
X13546873Y-13638785D01*
X13546873Y-13638785D02*
X13537350Y-13629261D01*
X13537350Y-13629261D02*
X13527826Y-13610213D01*
X13527826Y-13610213D02*
X13518302Y-13572118D01*
X13518302Y-13572118D02*
X13518302Y-13524499D01*
X13518302Y-13524499D02*
X13527826Y-13486404D01*
X13527826Y-13486404D02*
X13537350Y-13467356D01*
X13537350Y-13467356D02*
X13546873Y-13457832D01*
X13546873Y-13457832D02*
X13565921Y-13448309D01*
X13756397Y-13448309D02*
X13775445Y-13448309D01*
X13775445Y-13448309D02*
X13794493Y-13457832D01*
X13794493Y-13457832D02*
X13804016Y-13467356D01*
X13804016Y-13467356D02*
X13813540Y-13486404D01*
X13813540Y-13486404D02*
X13823064Y-13524499D01*
X13823064Y-13524499D02*
X13823064Y-13572118D01*
X13823064Y-13572118D02*
X13813540Y-13610213D01*
X13813540Y-13610213D02*
X13804016Y-13629261D01*
X13804016Y-13629261D02*
X13794493Y-13638785D01*
X13794493Y-13638785D02*
X13775445Y-13648309D01*
X13775445Y-13648309D02*
X13756397Y-13648309D01*
X13756397Y-13648309D02*
X13737350Y-13638785D01*
X13737350Y-13638785D02*
X13727826Y-13629261D01*
X13727826Y-13629261D02*
X13718302Y-13610213D01*
X13718302Y-13610213D02*
X13708778Y-13572118D01*
X13708778Y-13572118D02*
X13708778Y-13524499D01*
X13708778Y-13524499D02*
X13718302Y-13486404D01*
X13718302Y-13486404D02*
X13727826Y-13467356D01*
X13727826Y-13467356D02*
X13737350Y-13457832D01*
X13737350Y-13457832D02*
X13756397Y-13448309D01*
X13908778Y-13648309D02*
X13908778Y-13514975D01*
X13908778Y-13534023D02*
X13918302Y-13524499D01*
X13918302Y-13524499D02*
X13937350Y-13514975D01*
X13937350Y-13514975D02*
X13965921Y-13514975D01*
X13965921Y-13514975D02*
X13984969Y-13524499D01*
X13984969Y-13524499D02*
X13994493Y-13543547D01*
X13994493Y-13543547D02*
X13994493Y-13648309D01*
X13994493Y-13543547D02*
X14004016Y-13524499D01*
X14004016Y-13524499D02*
X14023064Y-13514975D01*
X14023064Y-13514975D02*
X14051635Y-13514975D01*
X14051635Y-13514975D02*
X14070683Y-13524499D01*
X14070683Y-13524499D02*
X14080207Y-13543547D01*
X14080207Y-13543547D02*
X14080207Y-13648309D01*
X14175445Y-13648309D02*
X14175445Y-13514975D01*
X14175445Y-13534023D02*
X14184969Y-13524499D01*
X14184969Y-13524499D02*
X14204016Y-13514975D01*
X14204016Y-13514975D02*
X14232588Y-13514975D01*
X14232588Y-13514975D02*
X14251635Y-13524499D01*
X14251635Y-13524499D02*
X14261159Y-13543547D01*
X14261159Y-13543547D02*
X14261159Y-13648309D01*
X14261159Y-13543547D02*
X14270683Y-13524499D01*
X14270683Y-13524499D02*
X14289731Y-13514975D01*
X14289731Y-13514975D02*
X14318302Y-13514975D01*
X14318302Y-13514975D02*
X14337350Y-13524499D01*
X14337350Y-13524499D02*
X14346874Y-13543547D01*
X14346874Y-13543547D02*
X14346874Y-13648309D01*
X14737350Y-13438785D02*
X14565921Y-13695928D01*
X14994493Y-13448309D02*
X15013540Y-13448309D01*
X15013540Y-13448309D02*
X15032588Y-13457832D01*
X15032588Y-13457832D02*
X15042112Y-13467356D01*
X15042112Y-13467356D02*
X15051636Y-13486404D01*
X15051636Y-13486404D02*
X15061159Y-13524499D01*
X15061159Y-13524499D02*
X15061159Y-13572118D01*
X15061159Y-13572118D02*
X15051636Y-13610213D01*
X15051636Y-13610213D02*
X15042112Y-13629261D01*
X15042112Y-13629261D02*
X15032588Y-13638785D01*
X15032588Y-13638785D02*
X15013540Y-13648309D01*
X15013540Y-13648309D02*
X14994493Y-13648309D01*
X14994493Y-13648309D02*
X14975445Y-13638785D01*
X14975445Y-13638785D02*
X14965921Y-13629261D01*
X14965921Y-13629261D02*
X14956397Y-13610213D01*
X14956397Y-13610213D02*
X14946874Y-13572118D01*
X14946874Y-13572118D02*
X14946874Y-13524499D01*
X14946874Y-13524499D02*
X14956397Y-13486404D01*
X14956397Y-13486404D02*
X14965921Y-13467356D01*
X14965921Y-13467356D02*
X14975445Y-13457832D01*
X14975445Y-13457832D02*
X14994493Y-13448309D01*
X15146874Y-13629261D02*
X15156397Y-13638785D01*
X15156397Y-13638785D02*
X15146874Y-13648309D01*
X15146874Y-13648309D02*
X15137350Y-13638785D01*
X15137350Y-13638785D02*
X15146874Y-13629261D01*
X15146874Y-13629261D02*
X15146874Y-13648309D01*
X15280207Y-13448309D02*
X15299255Y-13448309D01*
X15299255Y-13448309D02*
X15318302Y-13457832D01*
X15318302Y-13457832D02*
X15327826Y-13467356D01*
X15327826Y-13467356D02*
X15337350Y-13486404D01*
X15337350Y-13486404D02*
X15346874Y-13524499D01*
X15346874Y-13524499D02*
X15346874Y-13572118D01*
X15346874Y-13572118D02*
X15337350Y-13610213D01*
X15337350Y-13610213D02*
X15327826Y-13629261D01*
X15327826Y-13629261D02*
X15318302Y-13638785D01*
X15318302Y-13638785D02*
X15299255Y-13648309D01*
X15299255Y-13648309D02*
X15280207Y-13648309D01*
X15280207Y-13648309D02*
X15261159Y-13638785D01*
X15261159Y-13638785D02*
X15251636Y-13629261D01*
X15251636Y-13629261D02*
X15242112Y-13610213D01*
X15242112Y-13610213D02*
X15232588Y-13572118D01*
X15232588Y-13572118D02*
X15232588Y-13524499D01*
X15232588Y-13524499D02*
X15242112Y-13486404D01*
X15242112Y-13486404D02*
X15251636Y-13467356D01*
X15251636Y-13467356D02*
X15261159Y-13457832D01*
X15261159Y-13457832D02*
X15280207Y-13448309D01*
X15413540Y-13448309D02*
X15537350Y-13448309D01*
X15537350Y-13448309D02*
X15470683Y-13524499D01*
X15470683Y-13524499D02*
X15499255Y-13524499D01*
X15499255Y-13524499D02*
X15518302Y-13534023D01*
X15518302Y-13534023D02*
X15527826Y-13543547D01*
X15527826Y-13543547D02*
X15537350Y-13562594D01*
X15537350Y-13562594D02*
X15537350Y-13610213D01*
X15537350Y-13610213D02*
X15527826Y-13629261D01*
X15527826Y-13629261D02*
X15518302Y-13638785D01*
X15518302Y-13638785D02*
X15499255Y-13648309D01*
X15499255Y-13648309D02*
X15442112Y-13648309D01*
X15442112Y-13648309D02*
X15423064Y-13638785D01*
X15423064Y-13638785D02*
X15413540Y-13629261D01*
X15632588Y-13648309D02*
X15670683Y-13648309D01*
X15670683Y-13648309D02*
X15689731Y-13638785D01*
X15689731Y-13638785D02*
X15699255Y-13629261D01*
X15699255Y-13629261D02*
X15718302Y-13600689D01*
X15718302Y-13600689D02*
X15727826Y-13562594D01*
X15727826Y-13562594D02*
X15727826Y-13486404D01*
X15727826Y-13486404D02*
X15718302Y-13467356D01*
X15718302Y-13467356D02*
X15708778Y-13457832D01*
X15708778Y-13457832D02*
X15689731Y-13448309D01*
X15689731Y-13448309D02*
X15651636Y-13448309D01*
X15651636Y-13448309D02*
X15632588Y-13457832D01*
X15632588Y-13457832D02*
X15623064Y-13467356D01*
X15623064Y-13467356D02*
X15613540Y-13486404D01*
X15613540Y-13486404D02*
X15613540Y-13534023D01*
X15613540Y-13534023D02*
X15623064Y-13553070D01*
X15623064Y-13553070D02*
X15632588Y-13562594D01*
X15632588Y-13562594D02*
X15651636Y-13572118D01*
X15651636Y-13572118D02*
X15689731Y-13572118D01*
X15689731Y-13572118D02*
X15708778Y-13562594D01*
X15708778Y-13562594D02*
X15718302Y-13553070D01*
X15718302Y-13553070D02*
X15727826Y-13534023D01*
X15899255Y-13514975D02*
X15899255Y-13648309D01*
X15851636Y-13438785D02*
X15804017Y-13581642D01*
X15804017Y-13581642D02*
X15927826Y-13581642D01*
X15994493Y-13448309D02*
X15994493Y-13486404D01*
X16070683Y-13448309D02*
X16070683Y-13486404D01*
X16365921Y-13724499D02*
X16356398Y-13714975D01*
X16356398Y-13714975D02*
X16337350Y-13686404D01*
X16337350Y-13686404D02*
X16327826Y-13667356D01*
X16327826Y-13667356D02*
X16318302Y-13638785D01*
X16318302Y-13638785D02*
X16308779Y-13591166D01*
X16308779Y-13591166D02*
X16308779Y-13553070D01*
X16308779Y-13553070D02*
X16318302Y-13505451D01*
X16318302Y-13505451D02*
X16327826Y-13476880D01*
X16327826Y-13476880D02*
X16337350Y-13457832D01*
X16337350Y-13457832D02*
X16356398Y-13429261D01*
X16356398Y-13429261D02*
X16365921Y-13419737D01*
X16432588Y-13467356D02*
X16442112Y-13457832D01*
X16442112Y-13457832D02*
X16461159Y-13448309D01*
X16461159Y-13448309D02*
X16508779Y-13448309D01*
X16508779Y-13448309D02*
X16527826Y-13457832D01*
X16527826Y-13457832D02*
X16537350Y-13467356D01*
X16537350Y-13467356D02*
X16546874Y-13486404D01*
X16546874Y-13486404D02*
X16546874Y-13505451D01*
X16546874Y-13505451D02*
X16537350Y-13534023D01*
X16537350Y-13534023D02*
X16423064Y-13648309D01*
X16423064Y-13648309D02*
X16546874Y-13648309D01*
X16784969Y-13648309D02*
X16784969Y-13448309D01*
X16870683Y-13648309D02*
X16870683Y-13543547D01*
X16870683Y-13543547D02*
X16861160Y-13524499D01*
X16861160Y-13524499D02*
X16842112Y-13514975D01*
X16842112Y-13514975D02*
X16813541Y-13514975D01*
X16813541Y-13514975D02*
X16794493Y-13524499D01*
X16794493Y-13524499D02*
X16784969Y-13534023D01*
X16994493Y-13648309D02*
X16975445Y-13638785D01*
X16975445Y-13638785D02*
X16965922Y-13629261D01*
X16965922Y-13629261D02*
X16956398Y-13610213D01*
X16956398Y-13610213D02*
X16956398Y-13553070D01*
X16956398Y-13553070D02*
X16965922Y-13534023D01*
X16965922Y-13534023D02*
X16975445Y-13524499D01*
X16975445Y-13524499D02*
X16994493Y-13514975D01*
X16994493Y-13514975D02*
X17023064Y-13514975D01*
X17023064Y-13514975D02*
X17042112Y-13524499D01*
X17042112Y-13524499D02*
X17051636Y-13534023D01*
X17051636Y-13534023D02*
X17061160Y-13553070D01*
X17061160Y-13553070D02*
X17061160Y-13610213D01*
X17061160Y-13610213D02*
X17051636Y-13629261D01*
X17051636Y-13629261D02*
X17042112Y-13638785D01*
X17042112Y-13638785D02*
X17023064Y-13648309D01*
X17023064Y-13648309D02*
X16994493Y-13648309D01*
X17175445Y-13648309D02*
X17156398Y-13638785D01*
X17156398Y-13638785D02*
X17146874Y-13619737D01*
X17146874Y-13619737D02*
X17146874Y-13448309D01*
X17327826Y-13638785D02*
X17308779Y-13648309D01*
X17308779Y-13648309D02*
X17270683Y-13648309D01*
X17270683Y-13648309D02*
X17251636Y-13638785D01*
X17251636Y-13638785D02*
X17242112Y-13619737D01*
X17242112Y-13619737D02*
X17242112Y-13543547D01*
X17242112Y-13543547D02*
X17251636Y-13524499D01*
X17251636Y-13524499D02*
X17270683Y-13514975D01*
X17270683Y-13514975D02*
X17308779Y-13514975D01*
X17308779Y-13514975D02*
X17327826Y-13524499D01*
X17327826Y-13524499D02*
X17337350Y-13543547D01*
X17337350Y-13543547D02*
X17337350Y-13562594D01*
X17337350Y-13562594D02*
X17242112Y-13581642D01*
X17413541Y-13638785D02*
X17432588Y-13648309D01*
X17432588Y-13648309D02*
X17470683Y-13648309D01*
X17470683Y-13648309D02*
X17489731Y-13638785D01*
X17489731Y-13638785D02*
X17499255Y-13619737D01*
X17499255Y-13619737D02*
X17499255Y-13610213D01*
X17499255Y-13610213D02*
X17489731Y-13591166D01*
X17489731Y-13591166D02*
X17470683Y-13581642D01*
X17470683Y-13581642D02*
X17442112Y-13581642D01*
X17442112Y-13581642D02*
X17423064Y-13572118D01*
X17423064Y-13572118D02*
X17413541Y-13553070D01*
X17413541Y-13553070D02*
X17413541Y-13543547D01*
X17413541Y-13543547D02*
X17423064Y-13524499D01*
X17423064Y-13524499D02*
X17442112Y-13514975D01*
X17442112Y-13514975D02*
X17470683Y-13514975D01*
X17470683Y-13514975D02*
X17489731Y-13524499D01*
X17565922Y-13724499D02*
X17575445Y-13714975D01*
X17575445Y-13714975D02*
X17594493Y-13686404D01*
X17594493Y-13686404D02*
X17604017Y-13667356D01*
X17604017Y-13667356D02*
X17613541Y-13638785D01*
X17613541Y-13638785D02*
X17623064Y-13591166D01*
X17623064Y-13591166D02*
X17623064Y-13553070D01*
X17623064Y-13553070D02*
X17613541Y-13505451D01*
X17613541Y-13505451D02*
X17604017Y-13476880D01*
X17604017Y-13476880D02*
X17594493Y-13457832D01*
X17594493Y-13457832D02*
X17575445Y-13429261D01*
X17575445Y-13429261D02*
X17565922Y-13419737D01*
X17927826Y-13724499D02*
X17918303Y-13714975D01*
X17918303Y-13714975D02*
X17899255Y-13686404D01*
X17899255Y-13686404D02*
X17889731Y-13667356D01*
X17889731Y-13667356D02*
X17880207Y-13638785D01*
X17880207Y-13638785D02*
X17870684Y-13591166D01*
X17870684Y-13591166D02*
X17870684Y-13553070D01*
X17870684Y-13553070D02*
X17880207Y-13505451D01*
X17880207Y-13505451D02*
X17889731Y-13476880D01*
X17889731Y-13476880D02*
X17899255Y-13457832D01*
X17899255Y-13457832D02*
X17918303Y-13429261D01*
X17918303Y-13429261D02*
X17927826Y-13419737D01*
X18004017Y-13514975D02*
X18004017Y-13648309D01*
X18004017Y-13534023D02*
X18013541Y-13524499D01*
X18013541Y-13524499D02*
X18032588Y-13514975D01*
X18032588Y-13514975D02*
X18061160Y-13514975D01*
X18061160Y-13514975D02*
X18080207Y-13524499D01*
X18080207Y-13524499D02*
X18089731Y-13543547D01*
X18089731Y-13543547D02*
X18089731Y-13648309D01*
X18213541Y-13648309D02*
X18194493Y-13638785D01*
X18194493Y-13638785D02*
X18184969Y-13629261D01*
X18184969Y-13629261D02*
X18175445Y-13610213D01*
X18175445Y-13610213D02*
X18175445Y-13553070D01*
X18175445Y-13553070D02*
X18184969Y-13534023D01*
X18184969Y-13534023D02*
X18194493Y-13524499D01*
X18194493Y-13524499D02*
X18213541Y-13514975D01*
X18213541Y-13514975D02*
X18242112Y-13514975D01*
X18242112Y-13514975D02*
X18261160Y-13524499D01*
X18261160Y-13524499D02*
X18270684Y-13534023D01*
X18270684Y-13534023D02*
X18280207Y-13553070D01*
X18280207Y-13553070D02*
X18280207Y-13610213D01*
X18280207Y-13610213D02*
X18270684Y-13629261D01*
X18270684Y-13629261D02*
X18261160Y-13638785D01*
X18261160Y-13638785D02*
X18242112Y-13648309D01*
X18242112Y-13648309D02*
X18213541Y-13648309D01*
X18337350Y-13514975D02*
X18413541Y-13514975D01*
X18365922Y-13448309D02*
X18365922Y-13619737D01*
X18365922Y-13619737D02*
X18375445Y-13638785D01*
X18375445Y-13638785D02*
X18394493Y-13648309D01*
X18394493Y-13648309D02*
X18413541Y-13648309D01*
X18632588Y-13514975D02*
X18632588Y-13714975D01*
X18632588Y-13524499D02*
X18651636Y-13514975D01*
X18651636Y-13514975D02*
X18689731Y-13514975D01*
X18689731Y-13514975D02*
X18708779Y-13524499D01*
X18708779Y-13524499D02*
X18718303Y-13534023D01*
X18718303Y-13534023D02*
X18727826Y-13553070D01*
X18727826Y-13553070D02*
X18727826Y-13610213D01*
X18727826Y-13610213D02*
X18718303Y-13629261D01*
X18718303Y-13629261D02*
X18708779Y-13638785D01*
X18708779Y-13638785D02*
X18689731Y-13648309D01*
X18689731Y-13648309D02*
X18651636Y-13648309D01*
X18651636Y-13648309D02*
X18632588Y-13638785D01*
X18842112Y-13648309D02*
X18823065Y-13638785D01*
X18823065Y-13638785D02*
X18813541Y-13619737D01*
X18813541Y-13619737D02*
X18813541Y-13448309D01*
X19004017Y-13648309D02*
X19004017Y-13543547D01*
X19004017Y-13543547D02*
X18994493Y-13524499D01*
X18994493Y-13524499D02*
X18975446Y-13514975D01*
X18975446Y-13514975D02*
X18937350Y-13514975D01*
X18937350Y-13514975D02*
X18918303Y-13524499D01*
X19004017Y-13638785D02*
X18984969Y-13648309D01*
X18984969Y-13648309D02*
X18937350Y-13648309D01*
X18937350Y-13648309D02*
X18918303Y-13638785D01*
X18918303Y-13638785D02*
X18908779Y-13619737D01*
X18908779Y-13619737D02*
X18908779Y-13600689D01*
X18908779Y-13600689D02*
X18918303Y-13581642D01*
X18918303Y-13581642D02*
X18937350Y-13572118D01*
X18937350Y-13572118D02*
X18984969Y-13572118D01*
X18984969Y-13572118D02*
X19004017Y-13562594D01*
X19070684Y-13514975D02*
X19146874Y-13514975D01*
X19099255Y-13448309D02*
X19099255Y-13619737D01*
X19099255Y-13619737D02*
X19108779Y-13638785D01*
X19108779Y-13638785D02*
X19127826Y-13648309D01*
X19127826Y-13648309D02*
X19146874Y-13648309D01*
X19289731Y-13638785D02*
X19270684Y-13648309D01*
X19270684Y-13648309D02*
X19232588Y-13648309D01*
X19232588Y-13648309D02*
X19213541Y-13638785D01*
X19213541Y-13638785D02*
X19204017Y-13619737D01*
X19204017Y-13619737D02*
X19204017Y-13543547D01*
X19204017Y-13543547D02*
X19213541Y-13524499D01*
X19213541Y-13524499D02*
X19232588Y-13514975D01*
X19232588Y-13514975D02*
X19270684Y-13514975D01*
X19270684Y-13514975D02*
X19289731Y-13524499D01*
X19289731Y-13524499D02*
X19299255Y-13543547D01*
X19299255Y-13543547D02*
X19299255Y-13562594D01*
X19299255Y-13562594D02*
X19204017Y-13581642D01*
X19470684Y-13648309D02*
X19470684Y-13448309D01*
X19470684Y-13638785D02*
X19451636Y-13648309D01*
X19451636Y-13648309D02*
X19413541Y-13648309D01*
X19413541Y-13648309D02*
X19394493Y-13638785D01*
X19394493Y-13638785D02*
X19384969Y-13629261D01*
X19384969Y-13629261D02*
X19375446Y-13610213D01*
X19375446Y-13610213D02*
X19375446Y-13553070D01*
X19375446Y-13553070D02*
X19384969Y-13534023D01*
X19384969Y-13534023D02*
X19394493Y-13524499D01*
X19394493Y-13524499D02*
X19413541Y-13514975D01*
X19413541Y-13514975D02*
X19451636Y-13514975D01*
X19451636Y-13514975D02*
X19470684Y-13524499D01*
X19546874Y-13724499D02*
X19556398Y-13714975D01*
X19556398Y-13714975D02*
X19575446Y-13686404D01*
X19575446Y-13686404D02*
X19584969Y-13667356D01*
X19584969Y-13667356D02*
X19594493Y-13638785D01*
X19594493Y-13638785D02*
X19604017Y-13591166D01*
X19604017Y-13591166D02*
X19604017Y-13553070D01*
X19604017Y-13553070D02*
X19594493Y-13505451D01*
X19594493Y-13505451D02*
X19584969Y-13476880D01*
X19584969Y-13476880D02*
X19575446Y-13457832D01*
X19575446Y-13457832D02*
X19556398Y-13429261D01*
X19556398Y-13429261D02*
X19546874Y-13419737D01*
X12690859Y-13720825D02*
X12690859Y-13920825D01*
X12590859Y-13820825D02*
X12790859Y-13820825D01*
X13042112Y-13731356D02*
X13051635Y-13721832D01*
X13051635Y-13721832D02*
X13070683Y-13712309D01*
X13070683Y-13712309D02*
X13118302Y-13712309D01*
X13118302Y-13712309D02*
X13137350Y-13721832D01*
X13137350Y-13721832D02*
X13146873Y-13731356D01*
X13146873Y-13731356D02*
X13156397Y-13750404D01*
X13156397Y-13750404D02*
X13156397Y-13769451D01*
X13156397Y-13769451D02*
X13146873Y-13798023D01*
X13146873Y-13798023D02*
X13032588Y-13912309D01*
X13032588Y-13912309D02*
X13156397Y-13912309D01*
X13242112Y-13893261D02*
X13251635Y-13902785D01*
X13251635Y-13902785D02*
X13242112Y-13912309D01*
X13242112Y-13912309D02*
X13232588Y-13902785D01*
X13232588Y-13902785D02*
X13242112Y-13893261D01*
X13242112Y-13893261D02*
X13242112Y-13912309D01*
X13327826Y-13731356D02*
X13337350Y-13721832D01*
X13337350Y-13721832D02*
X13356397Y-13712309D01*
X13356397Y-13712309D02*
X13404016Y-13712309D01*
X13404016Y-13712309D02*
X13423064Y-13721832D01*
X13423064Y-13721832D02*
X13432588Y-13731356D01*
X13432588Y-13731356D02*
X13442112Y-13750404D01*
X13442112Y-13750404D02*
X13442112Y-13769451D01*
X13442112Y-13769451D02*
X13432588Y-13798023D01*
X13432588Y-13798023D02*
X13318302Y-13912309D01*
X13318302Y-13912309D02*
X13442112Y-13912309D01*
X13565921Y-13712309D02*
X13584969Y-13712309D01*
X13584969Y-13712309D02*
X13604016Y-13721832D01*
X13604016Y-13721832D02*
X13613540Y-13731356D01*
X13613540Y-13731356D02*
X13623064Y-13750404D01*
X13623064Y-13750404D02*
X13632588Y-13788499D01*
X13632588Y-13788499D02*
X13632588Y-13836118D01*
X13632588Y-13836118D02*
X13623064Y-13874213D01*
X13623064Y-13874213D02*
X13613540Y-13893261D01*
X13613540Y-13893261D02*
X13604016Y-13902785D01*
X13604016Y-13902785D02*
X13584969Y-13912309D01*
X13584969Y-13912309D02*
X13565921Y-13912309D01*
X13565921Y-13912309D02*
X13546873Y-13902785D01*
X13546873Y-13902785D02*
X13537350Y-13893261D01*
X13537350Y-13893261D02*
X13527826Y-13874213D01*
X13527826Y-13874213D02*
X13518302Y-13836118D01*
X13518302Y-13836118D02*
X13518302Y-13788499D01*
X13518302Y-13788499D02*
X13527826Y-13750404D01*
X13527826Y-13750404D02*
X13537350Y-13731356D01*
X13537350Y-13731356D02*
X13546873Y-13721832D01*
X13546873Y-13721832D02*
X13565921Y-13712309D01*
X13756397Y-13712309D02*
X13775445Y-13712309D01*
X13775445Y-13712309D02*
X13794493Y-13721832D01*
X13794493Y-13721832D02*
X13804016Y-13731356D01*
X13804016Y-13731356D02*
X13813540Y-13750404D01*
X13813540Y-13750404D02*
X13823064Y-13788499D01*
X13823064Y-13788499D02*
X13823064Y-13836118D01*
X13823064Y-13836118D02*
X13813540Y-13874213D01*
X13813540Y-13874213D02*
X13804016Y-13893261D01*
X13804016Y-13893261D02*
X13794493Y-13902785D01*
X13794493Y-13902785D02*
X13775445Y-13912309D01*
X13775445Y-13912309D02*
X13756397Y-13912309D01*
X13756397Y-13912309D02*
X13737350Y-13902785D01*
X13737350Y-13902785D02*
X13727826Y-13893261D01*
X13727826Y-13893261D02*
X13718302Y-13874213D01*
X13718302Y-13874213D02*
X13708778Y-13836118D01*
X13708778Y-13836118D02*
X13708778Y-13788499D01*
X13708778Y-13788499D02*
X13718302Y-13750404D01*
X13718302Y-13750404D02*
X13727826Y-13731356D01*
X13727826Y-13731356D02*
X13737350Y-13721832D01*
X13737350Y-13721832D02*
X13756397Y-13712309D01*
X13908778Y-13912309D02*
X13908778Y-13778975D01*
X13908778Y-13798023D02*
X13918302Y-13788499D01*
X13918302Y-13788499D02*
X13937350Y-13778975D01*
X13937350Y-13778975D02*
X13965921Y-13778975D01*
X13965921Y-13778975D02*
X13984969Y-13788499D01*
X13984969Y-13788499D02*
X13994493Y-13807547D01*
X13994493Y-13807547D02*
X13994493Y-13912309D01*
X13994493Y-13807547D02*
X14004016Y-13788499D01*
X14004016Y-13788499D02*
X14023064Y-13778975D01*
X14023064Y-13778975D02*
X14051635Y-13778975D01*
X14051635Y-13778975D02*
X14070683Y-13788499D01*
X14070683Y-13788499D02*
X14080207Y-13807547D01*
X14080207Y-13807547D02*
X14080207Y-13912309D01*
X14175445Y-13912309D02*
X14175445Y-13778975D01*
X14175445Y-13798023D02*
X14184969Y-13788499D01*
X14184969Y-13788499D02*
X14204016Y-13778975D01*
X14204016Y-13778975D02*
X14232588Y-13778975D01*
X14232588Y-13778975D02*
X14251635Y-13788499D01*
X14251635Y-13788499D02*
X14261159Y-13807547D01*
X14261159Y-13807547D02*
X14261159Y-13912309D01*
X14261159Y-13807547D02*
X14270683Y-13788499D01*
X14270683Y-13788499D02*
X14289731Y-13778975D01*
X14289731Y-13778975D02*
X14318302Y-13778975D01*
X14318302Y-13778975D02*
X14337350Y-13788499D01*
X14337350Y-13788499D02*
X14346874Y-13807547D01*
X14346874Y-13807547D02*
X14346874Y-13912309D01*
X14737350Y-13702785D02*
X14565921Y-13959928D01*
X14994493Y-13712309D02*
X15013540Y-13712309D01*
X15013540Y-13712309D02*
X15032588Y-13721832D01*
X15032588Y-13721832D02*
X15042112Y-13731356D01*
X15042112Y-13731356D02*
X15051636Y-13750404D01*
X15051636Y-13750404D02*
X15061159Y-13788499D01*
X15061159Y-13788499D02*
X15061159Y-13836118D01*
X15061159Y-13836118D02*
X15051636Y-13874213D01*
X15051636Y-13874213D02*
X15042112Y-13893261D01*
X15042112Y-13893261D02*
X15032588Y-13902785D01*
X15032588Y-13902785D02*
X15013540Y-13912309D01*
X15013540Y-13912309D02*
X14994493Y-13912309D01*
X14994493Y-13912309D02*
X14975445Y-13902785D01*
X14975445Y-13902785D02*
X14965921Y-13893261D01*
X14965921Y-13893261D02*
X14956397Y-13874213D01*
X14956397Y-13874213D02*
X14946874Y-13836118D01*
X14946874Y-13836118D02*
X14946874Y-13788499D01*
X14946874Y-13788499D02*
X14956397Y-13750404D01*
X14956397Y-13750404D02*
X14965921Y-13731356D01*
X14965921Y-13731356D02*
X14975445Y-13721832D01*
X14975445Y-13721832D02*
X14994493Y-13712309D01*
X15146874Y-13893261D02*
X15156397Y-13902785D01*
X15156397Y-13902785D02*
X15146874Y-13912309D01*
X15146874Y-13912309D02*
X15137350Y-13902785D01*
X15137350Y-13902785D02*
X15146874Y-13893261D01*
X15146874Y-13893261D02*
X15146874Y-13912309D01*
X15280207Y-13712309D02*
X15299255Y-13712309D01*
X15299255Y-13712309D02*
X15318302Y-13721832D01*
X15318302Y-13721832D02*
X15327826Y-13731356D01*
X15327826Y-13731356D02*
X15337350Y-13750404D01*
X15337350Y-13750404D02*
X15346874Y-13788499D01*
X15346874Y-13788499D02*
X15346874Y-13836118D01*
X15346874Y-13836118D02*
X15337350Y-13874213D01*
X15337350Y-13874213D02*
X15327826Y-13893261D01*
X15327826Y-13893261D02*
X15318302Y-13902785D01*
X15318302Y-13902785D02*
X15299255Y-13912309D01*
X15299255Y-13912309D02*
X15280207Y-13912309D01*
X15280207Y-13912309D02*
X15261159Y-13902785D01*
X15261159Y-13902785D02*
X15251636Y-13893261D01*
X15251636Y-13893261D02*
X15242112Y-13874213D01*
X15242112Y-13874213D02*
X15232588Y-13836118D01*
X15232588Y-13836118D02*
X15232588Y-13788499D01*
X15232588Y-13788499D02*
X15242112Y-13750404D01*
X15242112Y-13750404D02*
X15251636Y-13731356D01*
X15251636Y-13731356D02*
X15261159Y-13721832D01*
X15261159Y-13721832D02*
X15280207Y-13712309D01*
X15461159Y-13798023D02*
X15442112Y-13788499D01*
X15442112Y-13788499D02*
X15432588Y-13778975D01*
X15432588Y-13778975D02*
X15423064Y-13759928D01*
X15423064Y-13759928D02*
X15423064Y-13750404D01*
X15423064Y-13750404D02*
X15432588Y-13731356D01*
X15432588Y-13731356D02*
X15442112Y-13721832D01*
X15442112Y-13721832D02*
X15461159Y-13712309D01*
X15461159Y-13712309D02*
X15499255Y-13712309D01*
X15499255Y-13712309D02*
X15518302Y-13721832D01*
X15518302Y-13721832D02*
X15527826Y-13731356D01*
X15527826Y-13731356D02*
X15537350Y-13750404D01*
X15537350Y-13750404D02*
X15537350Y-13759928D01*
X15537350Y-13759928D02*
X15527826Y-13778975D01*
X15527826Y-13778975D02*
X15518302Y-13788499D01*
X15518302Y-13788499D02*
X15499255Y-13798023D01*
X15499255Y-13798023D02*
X15461159Y-13798023D01*
X15461159Y-13798023D02*
X15442112Y-13807547D01*
X15442112Y-13807547D02*
X15432588Y-13817070D01*
X15432588Y-13817070D02*
X15423064Y-13836118D01*
X15423064Y-13836118D02*
X15423064Y-13874213D01*
X15423064Y-13874213D02*
X15432588Y-13893261D01*
X15432588Y-13893261D02*
X15442112Y-13902785D01*
X15442112Y-13902785D02*
X15461159Y-13912309D01*
X15461159Y-13912309D02*
X15499255Y-13912309D01*
X15499255Y-13912309D02*
X15518302Y-13902785D01*
X15518302Y-13902785D02*
X15527826Y-13893261D01*
X15527826Y-13893261D02*
X15537350Y-13874213D01*
X15537350Y-13874213D02*
X15537350Y-13836118D01*
X15537350Y-13836118D02*
X15527826Y-13817070D01*
X15527826Y-13817070D02*
X15518302Y-13807547D01*
X15518302Y-13807547D02*
X15499255Y-13798023D01*
X15708778Y-13712309D02*
X15670683Y-13712309D01*
X15670683Y-13712309D02*
X15651636Y-13721832D01*
X15651636Y-13721832D02*
X15642112Y-13731356D01*
X15642112Y-13731356D02*
X15623064Y-13759928D01*
X15623064Y-13759928D02*
X15613540Y-13798023D01*
X15613540Y-13798023D02*
X15613540Y-13874213D01*
X15613540Y-13874213D02*
X15623064Y-13893261D01*
X15623064Y-13893261D02*
X15632588Y-13902785D01*
X15632588Y-13902785D02*
X15651636Y-13912309D01*
X15651636Y-13912309D02*
X15689731Y-13912309D01*
X15689731Y-13912309D02*
X15708778Y-13902785D01*
X15708778Y-13902785D02*
X15718302Y-13893261D01*
X15718302Y-13893261D02*
X15727826Y-13874213D01*
X15727826Y-13874213D02*
X15727826Y-13826594D01*
X15727826Y-13826594D02*
X15718302Y-13807547D01*
X15718302Y-13807547D02*
X15708778Y-13798023D01*
X15708778Y-13798023D02*
X15689731Y-13788499D01*
X15689731Y-13788499D02*
X15651636Y-13788499D01*
X15651636Y-13788499D02*
X15632588Y-13798023D01*
X15632588Y-13798023D02*
X15623064Y-13807547D01*
X15623064Y-13807547D02*
X15613540Y-13826594D01*
X15899255Y-13712309D02*
X15861159Y-13712309D01*
X15861159Y-13712309D02*
X15842112Y-13721832D01*
X15842112Y-13721832D02*
X15832588Y-13731356D01*
X15832588Y-13731356D02*
X15813540Y-13759928D01*
X15813540Y-13759928D02*
X15804017Y-13798023D01*
X15804017Y-13798023D02*
X15804017Y-13874213D01*
X15804017Y-13874213D02*
X15813540Y-13893261D01*
X15813540Y-13893261D02*
X15823064Y-13902785D01*
X15823064Y-13902785D02*
X15842112Y-13912309D01*
X15842112Y-13912309D02*
X15880207Y-13912309D01*
X15880207Y-13912309D02*
X15899255Y-13902785D01*
X15899255Y-13902785D02*
X15908778Y-13893261D01*
X15908778Y-13893261D02*
X15918302Y-13874213D01*
X15918302Y-13874213D02*
X15918302Y-13826594D01*
X15918302Y-13826594D02*
X15908778Y-13807547D01*
X15908778Y-13807547D02*
X15899255Y-13798023D01*
X15899255Y-13798023D02*
X15880207Y-13788499D01*
X15880207Y-13788499D02*
X15842112Y-13788499D01*
X15842112Y-13788499D02*
X15823064Y-13798023D01*
X15823064Y-13798023D02*
X15813540Y-13807547D01*
X15813540Y-13807547D02*
X15804017Y-13826594D01*
X15994493Y-13712309D02*
X15994493Y-13750404D01*
X16070683Y-13712309D02*
X16070683Y-13750404D01*
X16365921Y-13988499D02*
X16356398Y-13978975D01*
X16356398Y-13978975D02*
X16337350Y-13950404D01*
X16337350Y-13950404D02*
X16327826Y-13931356D01*
X16327826Y-13931356D02*
X16318302Y-13902785D01*
X16318302Y-13902785D02*
X16308779Y-13855166D01*
X16308779Y-13855166D02*
X16308779Y-13817070D01*
X16308779Y-13817070D02*
X16318302Y-13769451D01*
X16318302Y-13769451D02*
X16327826Y-13740880D01*
X16327826Y-13740880D02*
X16337350Y-13721832D01*
X16337350Y-13721832D02*
X16356398Y-13693261D01*
X16356398Y-13693261D02*
X16365921Y-13683737D01*
X16527826Y-13778975D02*
X16527826Y-13912309D01*
X16480207Y-13702785D02*
X16432588Y-13845642D01*
X16432588Y-13845642D02*
X16556398Y-13845642D01*
X16784969Y-13912309D02*
X16784969Y-13712309D01*
X16870683Y-13912309D02*
X16870683Y-13807547D01*
X16870683Y-13807547D02*
X16861160Y-13788499D01*
X16861160Y-13788499D02*
X16842112Y-13778975D01*
X16842112Y-13778975D02*
X16813541Y-13778975D01*
X16813541Y-13778975D02*
X16794493Y-13788499D01*
X16794493Y-13788499D02*
X16784969Y-13798023D01*
X16994493Y-13912309D02*
X16975445Y-13902785D01*
X16975445Y-13902785D02*
X16965922Y-13893261D01*
X16965922Y-13893261D02*
X16956398Y-13874213D01*
X16956398Y-13874213D02*
X16956398Y-13817070D01*
X16956398Y-13817070D02*
X16965922Y-13798023D01*
X16965922Y-13798023D02*
X16975445Y-13788499D01*
X16975445Y-13788499D02*
X16994493Y-13778975D01*
X16994493Y-13778975D02*
X17023064Y-13778975D01*
X17023064Y-13778975D02*
X17042112Y-13788499D01*
X17042112Y-13788499D02*
X17051636Y-13798023D01*
X17051636Y-13798023D02*
X17061160Y-13817070D01*
X17061160Y-13817070D02*
X17061160Y-13874213D01*
X17061160Y-13874213D02*
X17051636Y-13893261D01*
X17051636Y-13893261D02*
X17042112Y-13902785D01*
X17042112Y-13902785D02*
X17023064Y-13912309D01*
X17023064Y-13912309D02*
X16994493Y-13912309D01*
X17175445Y-13912309D02*
X17156398Y-13902785D01*
X17156398Y-13902785D02*
X17146874Y-13883737D01*
X17146874Y-13883737D02*
X17146874Y-13712309D01*
X17327826Y-13902785D02*
X17308779Y-13912309D01*
X17308779Y-13912309D02*
X17270683Y-13912309D01*
X17270683Y-13912309D02*
X17251636Y-13902785D01*
X17251636Y-13902785D02*
X17242112Y-13883737D01*
X17242112Y-13883737D02*
X17242112Y-13807547D01*
X17242112Y-13807547D02*
X17251636Y-13788499D01*
X17251636Y-13788499D02*
X17270683Y-13778975D01*
X17270683Y-13778975D02*
X17308779Y-13778975D01*
X17308779Y-13778975D02*
X17327826Y-13788499D01*
X17327826Y-13788499D02*
X17337350Y-13807547D01*
X17337350Y-13807547D02*
X17337350Y-13826594D01*
X17337350Y-13826594D02*
X17242112Y-13845642D01*
X17413541Y-13902785D02*
X17432588Y-13912309D01*
X17432588Y-13912309D02*
X17470683Y-13912309D01*
X17470683Y-13912309D02*
X17489731Y-13902785D01*
X17489731Y-13902785D02*
X17499255Y-13883737D01*
X17499255Y-13883737D02*
X17499255Y-13874213D01*
X17499255Y-13874213D02*
X17489731Y-13855166D01*
X17489731Y-13855166D02*
X17470683Y-13845642D01*
X17470683Y-13845642D02*
X17442112Y-13845642D01*
X17442112Y-13845642D02*
X17423064Y-13836118D01*
X17423064Y-13836118D02*
X17413541Y-13817070D01*
X17413541Y-13817070D02*
X17413541Y-13807547D01*
X17413541Y-13807547D02*
X17423064Y-13788499D01*
X17423064Y-13788499D02*
X17442112Y-13778975D01*
X17442112Y-13778975D02*
X17470683Y-13778975D01*
X17470683Y-13778975D02*
X17489731Y-13788499D01*
X17565922Y-13988499D02*
X17575445Y-13978975D01*
X17575445Y-13978975D02*
X17594493Y-13950404D01*
X17594493Y-13950404D02*
X17604017Y-13931356D01*
X17604017Y-13931356D02*
X17613541Y-13902785D01*
X17613541Y-13902785D02*
X17623064Y-13855166D01*
X17623064Y-13855166D02*
X17623064Y-13817070D01*
X17623064Y-13817070D02*
X17613541Y-13769451D01*
X17613541Y-13769451D02*
X17604017Y-13740880D01*
X17604017Y-13740880D02*
X17594493Y-13721832D01*
X17594493Y-13721832D02*
X17575445Y-13693261D01*
X17575445Y-13693261D02*
X17565922Y-13683737D01*
X17927826Y-13988499D02*
X17918303Y-13978975D01*
X17918303Y-13978975D02*
X17899255Y-13950404D01*
X17899255Y-13950404D02*
X17889731Y-13931356D01*
X17889731Y-13931356D02*
X17880207Y-13902785D01*
X17880207Y-13902785D02*
X17870684Y-13855166D01*
X17870684Y-13855166D02*
X17870684Y-13817070D01*
X17870684Y-13817070D02*
X17880207Y-13769451D01*
X17880207Y-13769451D02*
X17889731Y-13740880D01*
X17889731Y-13740880D02*
X17899255Y-13721832D01*
X17899255Y-13721832D02*
X17918303Y-13693261D01*
X17918303Y-13693261D02*
X17927826Y-13683737D01*
X18004017Y-13778975D02*
X18004017Y-13912309D01*
X18004017Y-13798023D02*
X18013541Y-13788499D01*
X18013541Y-13788499D02*
X18032588Y-13778975D01*
X18032588Y-13778975D02*
X18061160Y-13778975D01*
X18061160Y-13778975D02*
X18080207Y-13788499D01*
X18080207Y-13788499D02*
X18089731Y-13807547D01*
X18089731Y-13807547D02*
X18089731Y-13912309D01*
X18213541Y-13912309D02*
X18194493Y-13902785D01*
X18194493Y-13902785D02*
X18184969Y-13893261D01*
X18184969Y-13893261D02*
X18175445Y-13874213D01*
X18175445Y-13874213D02*
X18175445Y-13817070D01*
X18175445Y-13817070D02*
X18184969Y-13798023D01*
X18184969Y-13798023D02*
X18194493Y-13788499D01*
X18194493Y-13788499D02*
X18213541Y-13778975D01*
X18213541Y-13778975D02*
X18242112Y-13778975D01*
X18242112Y-13778975D02*
X18261160Y-13788499D01*
X18261160Y-13788499D02*
X18270684Y-13798023D01*
X18270684Y-13798023D02*
X18280207Y-13817070D01*
X18280207Y-13817070D02*
X18280207Y-13874213D01*
X18280207Y-13874213D02*
X18270684Y-13893261D01*
X18270684Y-13893261D02*
X18261160Y-13902785D01*
X18261160Y-13902785D02*
X18242112Y-13912309D01*
X18242112Y-13912309D02*
X18213541Y-13912309D01*
X18337350Y-13778975D02*
X18413541Y-13778975D01*
X18365922Y-13712309D02*
X18365922Y-13883737D01*
X18365922Y-13883737D02*
X18375445Y-13902785D01*
X18375445Y-13902785D02*
X18394493Y-13912309D01*
X18394493Y-13912309D02*
X18413541Y-13912309D01*
X18632588Y-13778975D02*
X18632588Y-13978975D01*
X18632588Y-13788499D02*
X18651636Y-13778975D01*
X18651636Y-13778975D02*
X18689731Y-13778975D01*
X18689731Y-13778975D02*
X18708779Y-13788499D01*
X18708779Y-13788499D02*
X18718303Y-13798023D01*
X18718303Y-13798023D02*
X18727826Y-13817070D01*
X18727826Y-13817070D02*
X18727826Y-13874213D01*
X18727826Y-13874213D02*
X18718303Y-13893261D01*
X18718303Y-13893261D02*
X18708779Y-13902785D01*
X18708779Y-13902785D02*
X18689731Y-13912309D01*
X18689731Y-13912309D02*
X18651636Y-13912309D01*
X18651636Y-13912309D02*
X18632588Y-13902785D01*
X18842112Y-13912309D02*
X18823065Y-13902785D01*
X18823065Y-13902785D02*
X18813541Y-13883737D01*
X18813541Y-13883737D02*
X18813541Y-13712309D01*
X19004017Y-13912309D02*
X19004017Y-13807547D01*
X19004017Y-13807547D02*
X18994493Y-13788499D01*
X18994493Y-13788499D02*
X18975446Y-13778975D01*
X18975446Y-13778975D02*
X18937350Y-13778975D01*
X18937350Y-13778975D02*
X18918303Y-13788499D01*
X19004017Y-13902785D02*
X18984969Y-13912309D01*
X18984969Y-13912309D02*
X18937350Y-13912309D01*
X18937350Y-13912309D02*
X18918303Y-13902785D01*
X18918303Y-13902785D02*
X18908779Y-13883737D01*
X18908779Y-13883737D02*
X18908779Y-13864689D01*
X18908779Y-13864689D02*
X18918303Y-13845642D01*
X18918303Y-13845642D02*
X18937350Y-13836118D01*
X18937350Y-13836118D02*
X18984969Y-13836118D01*
X18984969Y-13836118D02*
X19004017Y-13826594D01*
X19070684Y-13778975D02*
X19146874Y-13778975D01*
X19099255Y-13712309D02*
X19099255Y-13883737D01*
X19099255Y-13883737D02*
X19108779Y-13902785D01*
X19108779Y-13902785D02*
X19127826Y-13912309D01*
X19127826Y-13912309D02*
X19146874Y-13912309D01*
X19289731Y-13902785D02*
X19270684Y-13912309D01*
X19270684Y-13912309D02*
X19232588Y-13912309D01*
X19232588Y-13912309D02*
X19213541Y-13902785D01*
X19213541Y-13902785D02*
X19204017Y-13883737D01*
X19204017Y-13883737D02*
X19204017Y-13807547D01*
X19204017Y-13807547D02*
X19213541Y-13788499D01*
X19213541Y-13788499D02*
X19232588Y-13778975D01*
X19232588Y-13778975D02*
X19270684Y-13778975D01*
X19270684Y-13778975D02*
X19289731Y-13788499D01*
X19289731Y-13788499D02*
X19299255Y-13807547D01*
X19299255Y-13807547D02*
X19299255Y-13826594D01*
X19299255Y-13826594D02*
X19204017Y-13845642D01*
X19470684Y-13912309D02*
X19470684Y-13712309D01*
X19470684Y-13902785D02*
X19451636Y-13912309D01*
X19451636Y-13912309D02*
X19413541Y-13912309D01*
X19413541Y-13912309D02*
X19394493Y-13902785D01*
X19394493Y-13902785D02*
X19384969Y-13893261D01*
X19384969Y-13893261D02*
X19375446Y-13874213D01*
X19375446Y-13874213D02*
X19375446Y-13817070D01*
X19375446Y-13817070D02*
X19384969Y-13798023D01*
X19384969Y-13798023D02*
X19394493Y-13788499D01*
X19394493Y-13788499D02*
X19413541Y-13778975D01*
X19413541Y-13778975D02*
X19451636Y-13778975D01*
X19451636Y-13778975D02*
X19470684Y-13788499D01*
X19546874Y-13988499D02*
X19556398Y-13978975D01*
X19556398Y-13978975D02*
X19575446Y-13950404D01*
X19575446Y-13950404D02*
X19584969Y-13931356D01*
X19584969Y-13931356D02*
X19594493Y-13902785D01*
X19594493Y-13902785D02*
X19604017Y-13855166D01*
X19604017Y-13855166D02*
X19604017Y-13817070D01*
X19604017Y-13817070D02*
X19594493Y-13769451D01*
X19594493Y-13769451D02*
X19584969Y-13740880D01*
X19584969Y-13740880D02*
X19575446Y-13721832D01*
X19575446Y-13721832D02*
X19556398Y-13693261D01*
X19556398Y-13693261D02*
X19546874Y-13683737D01*
M02*
