%TF.GenerationSoftware,KiCad,Pcbnew,8.0.1*%
%TF.CreationDate,2024-05-30T23:43:43+05:00*%
%TF.ProjectId,6_layer_MCU,365f6c61-7965-4725-9f4d-43552e6b6963,rev?*%
%TF.SameCoordinates,Original*%
%TF.FileFunction,Drillmap*%
%TF.FilePolarity,Positive*%
%FSLAX45Y45*%
G04 Gerber Fmt 4.5, Leading zero omitted, Abs format (unit mm)*
G04 Created by KiCad (PCBNEW 8.0.1) date 2024-05-30 23:43:43*
%MOMM*%
%LPD*%
G01*
G04 APERTURE LIST*
%ADD10C,0.050000*%
%ADD11C,0.200000*%
%ADD12C,0.100000*%
G04 APERTURE END LIST*
D10*
X17793359Y-10150325D02*
G75*
G02*
X12793359Y-10150325I-2500000J0D01*
G01*
X12793359Y-10150325D02*
G75*
G02*
X17793359Y-10150325I2500000J0D01*
G01*
D11*
D12*
X13005000Y-10805000D02*
X13035000Y-10835000D01*
X13035000Y-10805000D02*
X13005000Y-10835000D01*
X13025000Y-10945000D02*
X13055000Y-10975000D01*
X13055000Y-10945000D02*
X13025000Y-10975000D01*
X13295000Y-9805000D02*
X13325000Y-9835000D01*
X13325000Y-9805000D02*
X13295000Y-9835000D01*
X13315000Y-10345000D02*
X13345000Y-10375000D01*
X13345000Y-10345000D02*
X13315000Y-10375000D01*
X13425000Y-10535000D02*
X13455000Y-10565000D01*
X13455000Y-10535000D02*
X13425000Y-10565000D01*
X13555000Y-9895000D02*
X13585000Y-9925000D01*
X13585000Y-9895000D02*
X13555000Y-9925000D01*
X13565000Y-11385000D02*
X13595000Y-11415000D01*
X13595000Y-11385000D02*
X13565000Y-11415000D01*
X13695000Y-11035000D02*
X13725000Y-11065000D01*
X13725000Y-11035000D02*
X13695000Y-11065000D01*
X13725000Y-10965000D02*
X13755000Y-10995000D01*
X13755000Y-10965000D02*
X13725000Y-10995000D01*
X13745000Y-10895000D02*
X13775000Y-10925000D01*
X13775000Y-10895000D02*
X13745000Y-10925000D01*
X13835000Y-11045000D02*
X13865000Y-11075000D01*
X13865000Y-11045000D02*
X13835000Y-11075000D01*
X13855000Y-10875000D02*
X13885000Y-10905000D01*
X13885000Y-10875000D02*
X13855000Y-10905000D01*
X13875000Y-9595294D02*
X13905000Y-9625294D01*
X13905000Y-9595294D02*
X13875000Y-9625294D01*
X13885000Y-10047500D02*
X13915000Y-10077500D01*
X13915000Y-10047500D02*
X13885000Y-10077500D01*
X13885000Y-10137500D02*
X13915000Y-10167500D01*
X13915000Y-10137500D02*
X13885000Y-10167500D01*
X13895000Y-9955000D02*
X13925000Y-9985000D01*
X13925000Y-9955000D02*
X13895000Y-9985000D01*
X13965000Y-8845000D02*
X13995000Y-8875000D01*
X13995000Y-8845000D02*
X13965000Y-8875000D01*
X13975000Y-8465000D02*
X14005000Y-8495000D01*
X14005000Y-8465000D02*
X13975000Y-8495000D01*
X13975000Y-10515000D02*
X14005000Y-10545000D01*
X14005000Y-10515000D02*
X13975000Y-10545000D01*
X13975000Y-11045000D02*
X14005000Y-11075000D01*
X14005000Y-11045000D02*
X13975000Y-11075000D01*
X13985000Y-10115000D02*
X14015000Y-10145000D01*
X14015000Y-10115000D02*
X13985000Y-10145000D01*
X14055000Y-8855000D02*
X14085000Y-8885000D01*
X14085000Y-8855000D02*
X14055000Y-8885000D01*
X14085000Y-8015000D02*
X14115000Y-8045000D01*
X14115000Y-8015000D02*
X14085000Y-8045000D01*
X14105000Y-10185000D02*
X14135000Y-10215000D01*
X14135000Y-10185000D02*
X14105000Y-10215000D01*
X14135000Y-10255000D02*
X14165000Y-10285000D01*
X14165000Y-10255000D02*
X14135000Y-10285000D01*
X14155000Y-8075000D02*
X14185000Y-8105000D01*
X14185000Y-8075000D02*
X14155000Y-8105000D01*
X14165000Y-8947175D02*
X14195000Y-8977175D01*
X14195000Y-8947175D02*
X14165000Y-8977175D01*
X14195000Y-9115000D02*
X14225000Y-9145000D01*
X14225000Y-9115000D02*
X14195000Y-9145000D01*
X14205000Y-10695000D02*
X14235000Y-10725000D01*
X14235000Y-10695000D02*
X14205000Y-10725000D01*
X14208288Y-10868289D02*
X14238288Y-10898289D01*
X14238288Y-10868289D02*
X14208288Y-10898289D01*
X14225000Y-8755000D02*
X14255000Y-8785000D01*
X14255000Y-8755000D02*
X14225000Y-8785000D01*
X14245000Y-8895000D02*
X14275000Y-8925000D01*
X14275000Y-8895000D02*
X14245000Y-8925000D01*
X14245000Y-9845000D02*
X14275000Y-9875000D01*
X14275000Y-9845000D02*
X14245000Y-9875000D01*
X14255000Y-7995000D02*
X14285000Y-8025000D01*
X14285000Y-7995000D02*
X14255000Y-8025000D01*
X14265000Y-8965000D02*
X14295000Y-8995000D01*
X14295000Y-8965000D02*
X14265000Y-8995000D01*
X14290700Y-9761193D02*
X14320700Y-9791193D01*
X14320700Y-9761193D02*
X14290700Y-9791193D01*
X14305000Y-7925000D02*
X14335000Y-7955000D01*
X14335000Y-7925000D02*
X14305000Y-7955000D01*
X14309223Y-9066554D02*
X14339223Y-9096554D01*
X14339223Y-9066554D02*
X14309223Y-9096554D01*
X14315000Y-8845000D02*
X14345000Y-8875000D01*
X14345000Y-8845000D02*
X14315000Y-8875000D01*
X14365000Y-9465000D02*
X14395000Y-9495000D01*
X14395000Y-9465000D02*
X14365000Y-9495000D01*
X14365000Y-9695000D02*
X14395000Y-9725000D01*
X14395000Y-9695000D02*
X14365000Y-9725000D01*
X14445000Y-9435000D02*
X14475000Y-9465000D01*
X14475000Y-9435000D02*
X14445000Y-9465000D01*
X14455000Y-10325000D02*
X14485000Y-10355000D01*
X14485000Y-10325000D02*
X14455000Y-10355000D01*
X14465000Y-9965000D02*
X14495000Y-9995000D01*
X14495000Y-9965000D02*
X14465000Y-9995000D01*
X14525000Y-10135000D02*
X14555000Y-10165000D01*
X14555000Y-10135000D02*
X14525000Y-10165000D01*
X14525000Y-10425000D02*
X14555000Y-10455000D01*
X14555000Y-10425000D02*
X14525000Y-10455000D01*
X14545000Y-8875000D02*
X14575000Y-8905000D01*
X14575000Y-8875000D02*
X14545000Y-8905000D01*
X14565000Y-11425000D02*
X14595000Y-11455000D01*
X14595000Y-11425000D02*
X14565000Y-11455000D01*
X14655000Y-11175000D02*
X14685000Y-11205000D01*
X14685000Y-11175000D02*
X14655000Y-11205000D01*
X14725000Y-9035000D02*
X14755000Y-9065000D01*
X14755000Y-9035000D02*
X14725000Y-9065000D01*
X14745000Y-10145000D02*
X14775000Y-10175000D01*
X14775000Y-10145000D02*
X14745000Y-10175000D01*
X14745000Y-10225000D02*
X14775000Y-10255000D01*
X14775000Y-10225000D02*
X14745000Y-10255000D01*
X14755000Y-11175000D02*
X14785000Y-11205000D01*
X14785000Y-11175000D02*
X14755000Y-11205000D01*
X14757223Y-9432777D02*
X14787223Y-9462777D01*
X14787223Y-9432777D02*
X14757223Y-9462777D01*
X14775000Y-8785000D02*
X14805000Y-8815000D01*
X14805000Y-8785000D02*
X14775000Y-8815000D01*
X14795000Y-8375000D02*
X14825000Y-8405000D01*
X14825000Y-8375000D02*
X14795000Y-8405000D01*
X14815000Y-9675000D02*
X14845000Y-9705000D01*
X14845000Y-9675000D02*
X14815000Y-9705000D01*
X14855000Y-11175000D02*
X14885000Y-11205000D01*
X14885000Y-11175000D02*
X14855000Y-11205000D01*
X14880090Y-8643692D02*
X14910090Y-8673692D01*
X14910090Y-8643692D02*
X14880090Y-8673692D01*
X14895000Y-10795000D02*
X14925000Y-10825000D01*
X14925000Y-10795000D02*
X14895000Y-10825000D01*
X14932936Y-9787064D02*
X14962936Y-9817064D01*
X14962936Y-9787064D02*
X14932936Y-9817064D01*
X14940000Y-11185000D02*
X14970000Y-11215000D01*
X14970000Y-11185000D02*
X14940000Y-11215000D01*
X14945000Y-8565000D02*
X14975000Y-8595000D01*
X14975000Y-8565000D02*
X14945000Y-8595000D01*
X14956622Y-9539149D02*
X14986622Y-9569149D01*
X14986622Y-9539149D02*
X14956622Y-9569149D01*
X14957327Y-9382971D02*
X14987327Y-9412971D01*
X14987327Y-9382971D02*
X14957327Y-9412971D01*
X15005000Y-10845000D02*
X15035000Y-10875000D01*
X15035000Y-10845000D02*
X15005000Y-10875000D01*
X15015000Y-9895000D02*
X15045000Y-9925000D01*
X15045000Y-9895000D02*
X15015000Y-9925000D01*
X15018736Y-9601264D02*
X15048736Y-9631264D01*
X15048736Y-9601264D02*
X15018736Y-9631264D01*
X15029384Y-11174484D02*
X15059384Y-11204484D01*
X15059384Y-11174484D02*
X15029384Y-11204484D01*
X15032753Y-9356307D02*
X15062753Y-9386307D01*
X15062753Y-9356307D02*
X15032753Y-9386307D01*
X15035000Y-8665000D02*
X15065000Y-8695000D01*
X15065000Y-8665000D02*
X15035000Y-8695000D01*
X15035000Y-10655000D02*
X15065000Y-10685000D01*
X15065000Y-10655000D02*
X15035000Y-10685000D01*
X15047566Y-9680510D02*
X15077566Y-9710510D01*
X15077566Y-9680510D02*
X15047566Y-9710510D01*
X15105000Y-10315000D02*
X15135000Y-10345000D01*
X15135000Y-10315000D02*
X15105000Y-10345000D01*
X15115000Y-11965000D02*
X15145000Y-11995000D01*
X15145000Y-11965000D02*
X15115000Y-11995000D01*
X15123574Y-11179290D02*
X15153574Y-11209290D01*
X15153574Y-11179290D02*
X15123574Y-11209290D01*
X15125000Y-9285000D02*
X15155000Y-9315000D01*
X15155000Y-9285000D02*
X15125000Y-9315000D01*
X15130962Y-9189038D02*
X15160962Y-9219038D01*
X15160962Y-9189038D02*
X15130962Y-9219038D01*
X15135000Y-9075000D02*
X15165000Y-9105000D01*
X15165000Y-9075000D02*
X15135000Y-9105000D01*
X15135022Y-9364370D02*
X15165022Y-9394370D01*
X15165022Y-9364370D02*
X15135022Y-9394370D01*
X15220656Y-11175543D02*
X15250656Y-11205543D01*
X15250656Y-11175543D02*
X15220656Y-11205543D01*
X15265000Y-9295000D02*
X15295000Y-9325000D01*
X15295000Y-9295000D02*
X15265000Y-9325000D01*
X15275000Y-9055000D02*
X15305000Y-9085000D01*
X15305000Y-9055000D02*
X15275000Y-9085000D01*
X15305000Y-8795000D02*
X15335000Y-8825000D01*
X15335000Y-8795000D02*
X15305000Y-8825000D01*
X15305000Y-11165000D02*
X15335000Y-11195000D01*
X15335000Y-11165000D02*
X15305000Y-11195000D01*
X15306334Y-10063666D02*
X15336334Y-10093666D01*
X15336334Y-10063666D02*
X15306334Y-10093666D01*
X15335000Y-8705000D02*
X15365000Y-8735000D01*
X15365000Y-8705000D02*
X15335000Y-8735000D01*
X15415000Y-11165000D02*
X15445000Y-11195000D01*
X15445000Y-11165000D02*
X15415000Y-11195000D01*
X15435000Y-10795000D02*
X15465000Y-10825000D01*
X15465000Y-10795000D02*
X15435000Y-10825000D01*
X15455000Y-9845000D02*
X15485000Y-9875000D01*
X15485000Y-9845000D02*
X15455000Y-9875000D01*
X15459175Y-10675000D02*
X15489175Y-10705000D01*
X15489175Y-10675000D02*
X15459175Y-10705000D01*
X15515000Y-8375000D02*
X15545000Y-8405000D01*
X15545000Y-8375000D02*
X15515000Y-8405000D01*
X15525000Y-11165000D02*
X15555000Y-11195000D01*
X15555000Y-11165000D02*
X15525000Y-11195000D01*
X15535000Y-9815000D02*
X15565000Y-9845000D01*
X15565000Y-9815000D02*
X15535000Y-9845000D01*
X15545000Y-9725000D02*
X15575000Y-9755000D01*
X15575000Y-9725000D02*
X15545000Y-9755000D01*
X15605000Y-8375000D02*
X15635000Y-8405000D01*
X15635000Y-8375000D02*
X15605000Y-8405000D01*
X15615000Y-11425000D02*
X15645000Y-11455000D01*
X15645000Y-11425000D02*
X15615000Y-11455000D01*
X15645000Y-9725000D02*
X15675000Y-9755000D01*
X15675000Y-9725000D02*
X15645000Y-9755000D01*
X15735000Y-8605000D02*
X15765000Y-8635000D01*
X15765000Y-8605000D02*
X15735000Y-8635000D01*
X15735000Y-10695000D02*
X15765000Y-10725000D01*
X15765000Y-10695000D02*
X15735000Y-10725000D01*
X15795000Y-12208584D02*
X15825000Y-12238584D01*
X15825000Y-12208584D02*
X15795000Y-12238584D01*
X15815888Y-8475889D02*
X15845888Y-8505889D01*
X15845888Y-8475889D02*
X15815888Y-8505889D01*
X15865000Y-10705000D02*
X15895000Y-10735000D01*
X15895000Y-10705000D02*
X15865000Y-10735000D01*
X15875000Y-9926329D02*
X15905000Y-9956329D01*
X15905000Y-9926329D02*
X15875000Y-9956329D01*
X15913671Y-8785000D02*
X15943671Y-8815000D01*
X15943671Y-8785000D02*
X15913671Y-8815000D01*
X15915000Y-10275000D02*
X15945000Y-10305000D01*
X15945000Y-10275000D02*
X15915000Y-10305000D01*
X15995000Y-10755000D02*
X16025000Y-10785000D01*
X16025000Y-10755000D02*
X15995000Y-10785000D01*
X16025000Y-9445000D02*
X16055000Y-9475000D01*
X16055000Y-9445000D02*
X16025000Y-9475000D01*
X16035000Y-9675000D02*
X16065000Y-9705000D01*
X16065000Y-9675000D02*
X16035000Y-9705000D01*
X16035000Y-11175000D02*
X16065000Y-11205000D01*
X16065000Y-11175000D02*
X16035000Y-11205000D01*
X16035000Y-11175000D02*
X16065000Y-11205000D01*
X16065000Y-11175000D02*
X16035000Y-11205000D01*
X16035000Y-11255000D02*
X16065000Y-11285000D01*
X16065000Y-11255000D02*
X16035000Y-11285000D01*
X16035000Y-11255000D02*
X16065000Y-11285000D01*
X16065000Y-11255000D02*
X16035000Y-11285000D01*
X16085000Y-9505000D02*
X16115000Y-9535000D01*
X16115000Y-9505000D02*
X16085000Y-9535000D01*
X16115000Y-11175000D02*
X16145000Y-11205000D01*
X16145000Y-11175000D02*
X16115000Y-11205000D01*
X16115000Y-11175000D02*
X16145000Y-11205000D01*
X16145000Y-11175000D02*
X16115000Y-11205000D01*
X16115000Y-11255000D02*
X16145000Y-11285000D01*
X16145000Y-11255000D02*
X16115000Y-11285000D01*
X16115000Y-11255000D02*
X16145000Y-11285000D01*
X16145000Y-11255000D02*
X16115000Y-11285000D01*
X16195000Y-11175000D02*
X16225000Y-11205000D01*
X16225000Y-11175000D02*
X16195000Y-11205000D01*
X16195000Y-11175000D02*
X16225000Y-11205000D01*
X16225000Y-11175000D02*
X16195000Y-11205000D01*
X16195000Y-11255000D02*
X16225000Y-11285000D01*
X16225000Y-11255000D02*
X16195000Y-11285000D01*
X16195000Y-11255000D02*
X16225000Y-11285000D01*
X16225000Y-11255000D02*
X16195000Y-11285000D01*
X16223579Y-7965294D02*
X16253579Y-7995294D01*
X16253579Y-7965294D02*
X16223579Y-7995294D01*
X16265000Y-8965000D02*
X16295000Y-8995000D01*
X16295000Y-8965000D02*
X16265000Y-8995000D01*
X16285000Y-11175000D02*
X16315000Y-11205000D01*
X16315000Y-11175000D02*
X16285000Y-11205000D01*
X16285000Y-11175000D02*
X16315000Y-11205000D01*
X16315000Y-11175000D02*
X16285000Y-11205000D01*
X16285000Y-11255000D02*
X16315000Y-11285000D01*
X16315000Y-11255000D02*
X16285000Y-11285000D01*
X16285000Y-11255000D02*
X16315000Y-11285000D01*
X16315000Y-11255000D02*
X16285000Y-11285000D01*
X16315000Y-10995000D02*
X16345000Y-11025000D01*
X16345000Y-10995000D02*
X16315000Y-11025000D01*
X16375000Y-11175000D02*
X16405000Y-11205000D01*
X16405000Y-11175000D02*
X16375000Y-11205000D01*
X16375000Y-11175000D02*
X16405000Y-11205000D01*
X16405000Y-11175000D02*
X16375000Y-11205000D01*
X16375000Y-11255000D02*
X16405000Y-11285000D01*
X16405000Y-11255000D02*
X16375000Y-11285000D01*
X16375000Y-11255000D02*
X16405000Y-11285000D01*
X16405000Y-11255000D02*
X16375000Y-11285000D01*
X16425000Y-8935000D02*
X16455000Y-8965000D01*
X16455000Y-8935000D02*
X16425000Y-8965000D01*
X16435000Y-11835000D02*
X16465000Y-11865000D01*
X16465000Y-11835000D02*
X16435000Y-11865000D01*
X16485000Y-12185000D02*
X16515000Y-12215000D01*
X16515000Y-12185000D02*
X16485000Y-12215000D01*
X16555000Y-11005000D02*
X16585000Y-11035000D01*
X16585000Y-11005000D02*
X16555000Y-11035000D01*
X16605416Y-8120858D02*
X16635416Y-8150858D01*
X16635416Y-8120858D02*
X16605416Y-8150858D01*
X16755000Y-10465000D02*
X16785000Y-10495000D01*
X16785000Y-10465000D02*
X16755000Y-10495000D01*
X16805000Y-9515000D02*
X16835000Y-9545000D01*
X16835000Y-9515000D02*
X16805000Y-9545000D01*
X16815000Y-9305000D02*
X16845000Y-9335000D01*
X16845000Y-9305000D02*
X16815000Y-9335000D01*
X16965250Y-11115000D02*
X16995250Y-11145000D01*
X16995250Y-11115000D02*
X16965250Y-11145000D01*
X16975250Y-11445000D02*
X17005250Y-11475000D01*
X17005250Y-11445000D02*
X16975250Y-11475000D01*
X16995000Y-9765000D02*
X17025000Y-9795000D01*
X17025000Y-9765000D02*
X16995000Y-9795000D01*
X17025000Y-9875000D02*
X17055000Y-9905000D01*
X17055000Y-9875000D02*
X17025000Y-9905000D01*
X17045000Y-9975000D02*
X17075000Y-10005000D01*
X17075000Y-9975000D02*
X17045000Y-10005000D01*
X13375000Y-8930000D02*
G75*
G02*
X13325000Y-8930000I-25000J0D01*
G01*
X13325000Y-8930000D02*
G75*
G02*
X13375000Y-8930000I25000J0D01*
G01*
X13475000Y-8930000D02*
G75*
G02*
X13425000Y-8930000I-25000J0D01*
G01*
X13425000Y-8930000D02*
G75*
G02*
X13475000Y-8930000I25000J0D01*
G01*
X13575000Y-8930000D02*
G75*
G02*
X13525000Y-8930000I-25000J0D01*
G01*
X13525000Y-8930000D02*
G75*
G02*
X13575000Y-8930000I25000J0D01*
G01*
X13675000Y-8930000D02*
G75*
G02*
X13625000Y-8930000I-25000J0D01*
G01*
X13625000Y-8930000D02*
G75*
G02*
X13675000Y-8930000I25000J0D01*
G01*
X13775000Y-8930000D02*
G75*
G02*
X13725000Y-8930000I-25000J0D01*
G01*
X13725000Y-8930000D02*
G75*
G02*
X13775000Y-8930000I25000J0D01*
G01*
X14095000Y-11850000D02*
G75*
G02*
X14045000Y-11850000I-25000J0D01*
G01*
X14045000Y-11850000D02*
G75*
G02*
X14095000Y-11850000I25000J0D01*
G01*
X14195000Y-11850000D02*
G75*
G02*
X14145000Y-11850000I-25000J0D01*
G01*
X14145000Y-11850000D02*
G75*
G02*
X14195000Y-11850000I25000J0D01*
G01*
D11*
X13051635Y-12964309D02*
X13051635Y-12764309D01*
X13051635Y-12764309D02*
X13099254Y-12764309D01*
X13099254Y-12764309D02*
X13127826Y-12773832D01*
X13127826Y-12773832D02*
X13146873Y-12792880D01*
X13146873Y-12792880D02*
X13156397Y-12811928D01*
X13156397Y-12811928D02*
X13165921Y-12850023D01*
X13165921Y-12850023D02*
X13165921Y-12878594D01*
X13165921Y-12878594D02*
X13156397Y-12916689D01*
X13156397Y-12916689D02*
X13146873Y-12935737D01*
X13146873Y-12935737D02*
X13127826Y-12954785D01*
X13127826Y-12954785D02*
X13099254Y-12964309D01*
X13099254Y-12964309D02*
X13051635Y-12964309D01*
X13251635Y-12964309D02*
X13251635Y-12830975D01*
X13251635Y-12869070D02*
X13261159Y-12850023D01*
X13261159Y-12850023D02*
X13270683Y-12840499D01*
X13270683Y-12840499D02*
X13289731Y-12830975D01*
X13289731Y-12830975D02*
X13308778Y-12830975D01*
X13375445Y-12964309D02*
X13375445Y-12830975D01*
X13375445Y-12764309D02*
X13365921Y-12773832D01*
X13365921Y-12773832D02*
X13375445Y-12783356D01*
X13375445Y-12783356D02*
X13384969Y-12773832D01*
X13384969Y-12773832D02*
X13375445Y-12764309D01*
X13375445Y-12764309D02*
X13375445Y-12783356D01*
X13499254Y-12964309D02*
X13480207Y-12954785D01*
X13480207Y-12954785D02*
X13470683Y-12935737D01*
X13470683Y-12935737D02*
X13470683Y-12764309D01*
X13604016Y-12964309D02*
X13584969Y-12954785D01*
X13584969Y-12954785D02*
X13575445Y-12935737D01*
X13575445Y-12935737D02*
X13575445Y-12764309D01*
X13832588Y-12964309D02*
X13832588Y-12764309D01*
X13832588Y-12764309D02*
X13899254Y-12907166D01*
X13899254Y-12907166D02*
X13965921Y-12764309D01*
X13965921Y-12764309D02*
X13965921Y-12964309D01*
X14146873Y-12964309D02*
X14146873Y-12859547D01*
X14146873Y-12859547D02*
X14137350Y-12840499D01*
X14137350Y-12840499D02*
X14118302Y-12830975D01*
X14118302Y-12830975D02*
X14080207Y-12830975D01*
X14080207Y-12830975D02*
X14061159Y-12840499D01*
X14146873Y-12954785D02*
X14127826Y-12964309D01*
X14127826Y-12964309D02*
X14080207Y-12964309D01*
X14080207Y-12964309D02*
X14061159Y-12954785D01*
X14061159Y-12954785D02*
X14051635Y-12935737D01*
X14051635Y-12935737D02*
X14051635Y-12916689D01*
X14051635Y-12916689D02*
X14061159Y-12897642D01*
X14061159Y-12897642D02*
X14080207Y-12888118D01*
X14080207Y-12888118D02*
X14127826Y-12888118D01*
X14127826Y-12888118D02*
X14146873Y-12878594D01*
X14242112Y-12830975D02*
X14242112Y-13030975D01*
X14242112Y-12840499D02*
X14261159Y-12830975D01*
X14261159Y-12830975D02*
X14299254Y-12830975D01*
X14299254Y-12830975D02*
X14318302Y-12840499D01*
X14318302Y-12840499D02*
X14327826Y-12850023D01*
X14327826Y-12850023D02*
X14337350Y-12869070D01*
X14337350Y-12869070D02*
X14337350Y-12926213D01*
X14337350Y-12926213D02*
X14327826Y-12945261D01*
X14327826Y-12945261D02*
X14318302Y-12954785D01*
X14318302Y-12954785D02*
X14299254Y-12964309D01*
X14299254Y-12964309D02*
X14261159Y-12964309D01*
X14261159Y-12964309D02*
X14242112Y-12954785D01*
X14423064Y-12945261D02*
X14432588Y-12954785D01*
X14432588Y-12954785D02*
X14423064Y-12964309D01*
X14423064Y-12964309D02*
X14413540Y-12954785D01*
X14413540Y-12954785D02*
X14423064Y-12945261D01*
X14423064Y-12945261D02*
X14423064Y-12964309D01*
X14423064Y-12840499D02*
X14432588Y-12850023D01*
X14432588Y-12850023D02*
X14423064Y-12859547D01*
X14423064Y-12859547D02*
X14413540Y-12850023D01*
X14413540Y-12850023D02*
X14423064Y-12840499D01*
X14423064Y-12840499D02*
X14423064Y-12859547D01*
D12*
X12760859Y-13277825D02*
X12790859Y-13307825D01*
X12790859Y-13277825D02*
X12760859Y-13307825D01*
D11*
X13089731Y-13184309D02*
X13108778Y-13184309D01*
X13108778Y-13184309D02*
X13127826Y-13193832D01*
X13127826Y-13193832D02*
X13137350Y-13203356D01*
X13137350Y-13203356D02*
X13146873Y-13222404D01*
X13146873Y-13222404D02*
X13156397Y-13260499D01*
X13156397Y-13260499D02*
X13156397Y-13308118D01*
X13156397Y-13308118D02*
X13146873Y-13346213D01*
X13146873Y-13346213D02*
X13137350Y-13365261D01*
X13137350Y-13365261D02*
X13127826Y-13374785D01*
X13127826Y-13374785D02*
X13108778Y-13384309D01*
X13108778Y-13384309D02*
X13089731Y-13384309D01*
X13089731Y-13384309D02*
X13070683Y-13374785D01*
X13070683Y-13374785D02*
X13061159Y-13365261D01*
X13061159Y-13365261D02*
X13051635Y-13346213D01*
X13051635Y-13346213D02*
X13042112Y-13308118D01*
X13042112Y-13308118D02*
X13042112Y-13260499D01*
X13042112Y-13260499D02*
X13051635Y-13222404D01*
X13051635Y-13222404D02*
X13061159Y-13203356D01*
X13061159Y-13203356D02*
X13070683Y-13193832D01*
X13070683Y-13193832D02*
X13089731Y-13184309D01*
X13242112Y-13365261D02*
X13251635Y-13374785D01*
X13251635Y-13374785D02*
X13242112Y-13384309D01*
X13242112Y-13384309D02*
X13232588Y-13374785D01*
X13232588Y-13374785D02*
X13242112Y-13365261D01*
X13242112Y-13365261D02*
X13242112Y-13384309D01*
X13318302Y-13184309D02*
X13442112Y-13184309D01*
X13442112Y-13184309D02*
X13375445Y-13260499D01*
X13375445Y-13260499D02*
X13404016Y-13260499D01*
X13404016Y-13260499D02*
X13423064Y-13270023D01*
X13423064Y-13270023D02*
X13432588Y-13279547D01*
X13432588Y-13279547D02*
X13442112Y-13298594D01*
X13442112Y-13298594D02*
X13442112Y-13346213D01*
X13442112Y-13346213D02*
X13432588Y-13365261D01*
X13432588Y-13365261D02*
X13423064Y-13374785D01*
X13423064Y-13374785D02*
X13404016Y-13384309D01*
X13404016Y-13384309D02*
X13346873Y-13384309D01*
X13346873Y-13384309D02*
X13327826Y-13374785D01*
X13327826Y-13374785D02*
X13318302Y-13365261D01*
X13565921Y-13184309D02*
X13584969Y-13184309D01*
X13584969Y-13184309D02*
X13604016Y-13193832D01*
X13604016Y-13193832D02*
X13613540Y-13203356D01*
X13613540Y-13203356D02*
X13623064Y-13222404D01*
X13623064Y-13222404D02*
X13632588Y-13260499D01*
X13632588Y-13260499D02*
X13632588Y-13308118D01*
X13632588Y-13308118D02*
X13623064Y-13346213D01*
X13623064Y-13346213D02*
X13613540Y-13365261D01*
X13613540Y-13365261D02*
X13604016Y-13374785D01*
X13604016Y-13374785D02*
X13584969Y-13384309D01*
X13584969Y-13384309D02*
X13565921Y-13384309D01*
X13565921Y-13384309D02*
X13546873Y-13374785D01*
X13546873Y-13374785D02*
X13537350Y-13365261D01*
X13537350Y-13365261D02*
X13527826Y-13346213D01*
X13527826Y-13346213D02*
X13518302Y-13308118D01*
X13518302Y-13308118D02*
X13518302Y-13260499D01*
X13518302Y-13260499D02*
X13527826Y-13222404D01*
X13527826Y-13222404D02*
X13537350Y-13203356D01*
X13537350Y-13203356D02*
X13546873Y-13193832D01*
X13546873Y-13193832D02*
X13565921Y-13184309D01*
X13756397Y-13184309D02*
X13775445Y-13184309D01*
X13775445Y-13184309D02*
X13794493Y-13193832D01*
X13794493Y-13193832D02*
X13804016Y-13203356D01*
X13804016Y-13203356D02*
X13813540Y-13222404D01*
X13813540Y-13222404D02*
X13823064Y-13260499D01*
X13823064Y-13260499D02*
X13823064Y-13308118D01*
X13823064Y-13308118D02*
X13813540Y-13346213D01*
X13813540Y-13346213D02*
X13804016Y-13365261D01*
X13804016Y-13365261D02*
X13794493Y-13374785D01*
X13794493Y-13374785D02*
X13775445Y-13384309D01*
X13775445Y-13384309D02*
X13756397Y-13384309D01*
X13756397Y-13384309D02*
X13737350Y-13374785D01*
X13737350Y-13374785D02*
X13727826Y-13365261D01*
X13727826Y-13365261D02*
X13718302Y-13346213D01*
X13718302Y-13346213D02*
X13708778Y-13308118D01*
X13708778Y-13308118D02*
X13708778Y-13260499D01*
X13708778Y-13260499D02*
X13718302Y-13222404D01*
X13718302Y-13222404D02*
X13727826Y-13203356D01*
X13727826Y-13203356D02*
X13737350Y-13193832D01*
X13737350Y-13193832D02*
X13756397Y-13184309D01*
X13908778Y-13384309D02*
X13908778Y-13250975D01*
X13908778Y-13270023D02*
X13918302Y-13260499D01*
X13918302Y-13260499D02*
X13937350Y-13250975D01*
X13937350Y-13250975D02*
X13965921Y-13250975D01*
X13965921Y-13250975D02*
X13984969Y-13260499D01*
X13984969Y-13260499D02*
X13994493Y-13279547D01*
X13994493Y-13279547D02*
X13994493Y-13384309D01*
X13994493Y-13279547D02*
X14004016Y-13260499D01*
X14004016Y-13260499D02*
X14023064Y-13250975D01*
X14023064Y-13250975D02*
X14051635Y-13250975D01*
X14051635Y-13250975D02*
X14070683Y-13260499D01*
X14070683Y-13260499D02*
X14080207Y-13279547D01*
X14080207Y-13279547D02*
X14080207Y-13384309D01*
X14175445Y-13384309D02*
X14175445Y-13250975D01*
X14175445Y-13270023D02*
X14184969Y-13260499D01*
X14184969Y-13260499D02*
X14204016Y-13250975D01*
X14204016Y-13250975D02*
X14232588Y-13250975D01*
X14232588Y-13250975D02*
X14251635Y-13260499D01*
X14251635Y-13260499D02*
X14261159Y-13279547D01*
X14261159Y-13279547D02*
X14261159Y-13384309D01*
X14261159Y-13279547D02*
X14270683Y-13260499D01*
X14270683Y-13260499D02*
X14289731Y-13250975D01*
X14289731Y-13250975D02*
X14318302Y-13250975D01*
X14318302Y-13250975D02*
X14337350Y-13260499D01*
X14337350Y-13260499D02*
X14346874Y-13279547D01*
X14346874Y-13279547D02*
X14346874Y-13384309D01*
X14737350Y-13174785D02*
X14565921Y-13431928D01*
X14994493Y-13184309D02*
X15013540Y-13184309D01*
X15013540Y-13184309D02*
X15032588Y-13193832D01*
X15032588Y-13193832D02*
X15042112Y-13203356D01*
X15042112Y-13203356D02*
X15051636Y-13222404D01*
X15051636Y-13222404D02*
X15061159Y-13260499D01*
X15061159Y-13260499D02*
X15061159Y-13308118D01*
X15061159Y-13308118D02*
X15051636Y-13346213D01*
X15051636Y-13346213D02*
X15042112Y-13365261D01*
X15042112Y-13365261D02*
X15032588Y-13374785D01*
X15032588Y-13374785D02*
X15013540Y-13384309D01*
X15013540Y-13384309D02*
X14994493Y-13384309D01*
X14994493Y-13384309D02*
X14975445Y-13374785D01*
X14975445Y-13374785D02*
X14965921Y-13365261D01*
X14965921Y-13365261D02*
X14956397Y-13346213D01*
X14956397Y-13346213D02*
X14946874Y-13308118D01*
X14946874Y-13308118D02*
X14946874Y-13260499D01*
X14946874Y-13260499D02*
X14956397Y-13222404D01*
X14956397Y-13222404D02*
X14965921Y-13203356D01*
X14965921Y-13203356D02*
X14975445Y-13193832D01*
X14975445Y-13193832D02*
X14994493Y-13184309D01*
X15146874Y-13365261D02*
X15156397Y-13374785D01*
X15156397Y-13374785D02*
X15146874Y-13384309D01*
X15146874Y-13384309D02*
X15137350Y-13374785D01*
X15137350Y-13374785D02*
X15146874Y-13365261D01*
X15146874Y-13365261D02*
X15146874Y-13384309D01*
X15280207Y-13184309D02*
X15299255Y-13184309D01*
X15299255Y-13184309D02*
X15318302Y-13193832D01*
X15318302Y-13193832D02*
X15327826Y-13203356D01*
X15327826Y-13203356D02*
X15337350Y-13222404D01*
X15337350Y-13222404D02*
X15346874Y-13260499D01*
X15346874Y-13260499D02*
X15346874Y-13308118D01*
X15346874Y-13308118D02*
X15337350Y-13346213D01*
X15337350Y-13346213D02*
X15327826Y-13365261D01*
X15327826Y-13365261D02*
X15318302Y-13374785D01*
X15318302Y-13374785D02*
X15299255Y-13384309D01*
X15299255Y-13384309D02*
X15280207Y-13384309D01*
X15280207Y-13384309D02*
X15261159Y-13374785D01*
X15261159Y-13374785D02*
X15251636Y-13365261D01*
X15251636Y-13365261D02*
X15242112Y-13346213D01*
X15242112Y-13346213D02*
X15232588Y-13308118D01*
X15232588Y-13308118D02*
X15232588Y-13260499D01*
X15232588Y-13260499D02*
X15242112Y-13222404D01*
X15242112Y-13222404D02*
X15251636Y-13203356D01*
X15251636Y-13203356D02*
X15261159Y-13193832D01*
X15261159Y-13193832D02*
X15280207Y-13184309D01*
X15537350Y-13384309D02*
X15423064Y-13384309D01*
X15480207Y-13384309D02*
X15480207Y-13184309D01*
X15480207Y-13184309D02*
X15461159Y-13212880D01*
X15461159Y-13212880D02*
X15442112Y-13231928D01*
X15442112Y-13231928D02*
X15423064Y-13241451D01*
X15727826Y-13384309D02*
X15613540Y-13384309D01*
X15670683Y-13384309D02*
X15670683Y-13184309D01*
X15670683Y-13184309D02*
X15651636Y-13212880D01*
X15651636Y-13212880D02*
X15632588Y-13231928D01*
X15632588Y-13231928D02*
X15613540Y-13241451D01*
X15842112Y-13270023D02*
X15823064Y-13260499D01*
X15823064Y-13260499D02*
X15813540Y-13250975D01*
X15813540Y-13250975D02*
X15804017Y-13231928D01*
X15804017Y-13231928D02*
X15804017Y-13222404D01*
X15804017Y-13222404D02*
X15813540Y-13203356D01*
X15813540Y-13203356D02*
X15823064Y-13193832D01*
X15823064Y-13193832D02*
X15842112Y-13184309D01*
X15842112Y-13184309D02*
X15880207Y-13184309D01*
X15880207Y-13184309D02*
X15899255Y-13193832D01*
X15899255Y-13193832D02*
X15908778Y-13203356D01*
X15908778Y-13203356D02*
X15918302Y-13222404D01*
X15918302Y-13222404D02*
X15918302Y-13231928D01*
X15918302Y-13231928D02*
X15908778Y-13250975D01*
X15908778Y-13250975D02*
X15899255Y-13260499D01*
X15899255Y-13260499D02*
X15880207Y-13270023D01*
X15880207Y-13270023D02*
X15842112Y-13270023D01*
X15842112Y-13270023D02*
X15823064Y-13279547D01*
X15823064Y-13279547D02*
X15813540Y-13289070D01*
X15813540Y-13289070D02*
X15804017Y-13308118D01*
X15804017Y-13308118D02*
X15804017Y-13346213D01*
X15804017Y-13346213D02*
X15813540Y-13365261D01*
X15813540Y-13365261D02*
X15823064Y-13374785D01*
X15823064Y-13374785D02*
X15842112Y-13384309D01*
X15842112Y-13384309D02*
X15880207Y-13384309D01*
X15880207Y-13384309D02*
X15899255Y-13374785D01*
X15899255Y-13374785D02*
X15908778Y-13365261D01*
X15908778Y-13365261D02*
X15918302Y-13346213D01*
X15918302Y-13346213D02*
X15918302Y-13308118D01*
X15918302Y-13308118D02*
X15908778Y-13289070D01*
X15908778Y-13289070D02*
X15899255Y-13279547D01*
X15899255Y-13279547D02*
X15880207Y-13270023D01*
X15994493Y-13184309D02*
X15994493Y-13222404D01*
X16070683Y-13184309D02*
X16070683Y-13222404D01*
X16365921Y-13460499D02*
X16356398Y-13450975D01*
X16356398Y-13450975D02*
X16337350Y-13422404D01*
X16337350Y-13422404D02*
X16327826Y-13403356D01*
X16327826Y-13403356D02*
X16318302Y-13374785D01*
X16318302Y-13374785D02*
X16308779Y-13327166D01*
X16308779Y-13327166D02*
X16308779Y-13289070D01*
X16308779Y-13289070D02*
X16318302Y-13241451D01*
X16318302Y-13241451D02*
X16327826Y-13212880D01*
X16327826Y-13212880D02*
X16337350Y-13193832D01*
X16337350Y-13193832D02*
X16356398Y-13165261D01*
X16356398Y-13165261D02*
X16365921Y-13155737D01*
X16546874Y-13384309D02*
X16432588Y-13384309D01*
X16489731Y-13384309D02*
X16489731Y-13184309D01*
X16489731Y-13184309D02*
X16470683Y-13212880D01*
X16470683Y-13212880D02*
X16451636Y-13231928D01*
X16451636Y-13231928D02*
X16432588Y-13241451D01*
X16718302Y-13250975D02*
X16718302Y-13384309D01*
X16670683Y-13174785D02*
X16623064Y-13317642D01*
X16623064Y-13317642D02*
X16746874Y-13317642D01*
X16908779Y-13184309D02*
X16870683Y-13184309D01*
X16870683Y-13184309D02*
X16851636Y-13193832D01*
X16851636Y-13193832D02*
X16842112Y-13203356D01*
X16842112Y-13203356D02*
X16823064Y-13231928D01*
X16823064Y-13231928D02*
X16813541Y-13270023D01*
X16813541Y-13270023D02*
X16813541Y-13346213D01*
X16813541Y-13346213D02*
X16823064Y-13365261D01*
X16823064Y-13365261D02*
X16832588Y-13374785D01*
X16832588Y-13374785D02*
X16851636Y-13384309D01*
X16851636Y-13384309D02*
X16889731Y-13384309D01*
X16889731Y-13384309D02*
X16908779Y-13374785D01*
X16908779Y-13374785D02*
X16918302Y-13365261D01*
X16918302Y-13365261D02*
X16927826Y-13346213D01*
X16927826Y-13346213D02*
X16927826Y-13298594D01*
X16927826Y-13298594D02*
X16918302Y-13279547D01*
X16918302Y-13279547D02*
X16908779Y-13270023D01*
X16908779Y-13270023D02*
X16889731Y-13260499D01*
X16889731Y-13260499D02*
X16851636Y-13260499D01*
X16851636Y-13260499D02*
X16832588Y-13270023D01*
X16832588Y-13270023D02*
X16823064Y-13279547D01*
X16823064Y-13279547D02*
X16813541Y-13298594D01*
X17165922Y-13384309D02*
X17165922Y-13184309D01*
X17251636Y-13384309D02*
X17251636Y-13279547D01*
X17251636Y-13279547D02*
X17242112Y-13260499D01*
X17242112Y-13260499D02*
X17223064Y-13250975D01*
X17223064Y-13250975D02*
X17194493Y-13250975D01*
X17194493Y-13250975D02*
X17175445Y-13260499D01*
X17175445Y-13260499D02*
X17165922Y-13270023D01*
X17375445Y-13384309D02*
X17356398Y-13374785D01*
X17356398Y-13374785D02*
X17346874Y-13365261D01*
X17346874Y-13365261D02*
X17337350Y-13346213D01*
X17337350Y-13346213D02*
X17337350Y-13289070D01*
X17337350Y-13289070D02*
X17346874Y-13270023D01*
X17346874Y-13270023D02*
X17356398Y-13260499D01*
X17356398Y-13260499D02*
X17375445Y-13250975D01*
X17375445Y-13250975D02*
X17404017Y-13250975D01*
X17404017Y-13250975D02*
X17423064Y-13260499D01*
X17423064Y-13260499D02*
X17432588Y-13270023D01*
X17432588Y-13270023D02*
X17442112Y-13289070D01*
X17442112Y-13289070D02*
X17442112Y-13346213D01*
X17442112Y-13346213D02*
X17432588Y-13365261D01*
X17432588Y-13365261D02*
X17423064Y-13374785D01*
X17423064Y-13374785D02*
X17404017Y-13384309D01*
X17404017Y-13384309D02*
X17375445Y-13384309D01*
X17556398Y-13384309D02*
X17537350Y-13374785D01*
X17537350Y-13374785D02*
X17527826Y-13355737D01*
X17527826Y-13355737D02*
X17527826Y-13184309D01*
X17708779Y-13374785D02*
X17689731Y-13384309D01*
X17689731Y-13384309D02*
X17651636Y-13384309D01*
X17651636Y-13384309D02*
X17632588Y-13374785D01*
X17632588Y-13374785D02*
X17623064Y-13355737D01*
X17623064Y-13355737D02*
X17623064Y-13279547D01*
X17623064Y-13279547D02*
X17632588Y-13260499D01*
X17632588Y-13260499D02*
X17651636Y-13250975D01*
X17651636Y-13250975D02*
X17689731Y-13250975D01*
X17689731Y-13250975D02*
X17708779Y-13260499D01*
X17708779Y-13260499D02*
X17718303Y-13279547D01*
X17718303Y-13279547D02*
X17718303Y-13298594D01*
X17718303Y-13298594D02*
X17623064Y-13317642D01*
X17794493Y-13374785D02*
X17813541Y-13384309D01*
X17813541Y-13384309D02*
X17851636Y-13384309D01*
X17851636Y-13384309D02*
X17870684Y-13374785D01*
X17870684Y-13374785D02*
X17880207Y-13355737D01*
X17880207Y-13355737D02*
X17880207Y-13346213D01*
X17880207Y-13346213D02*
X17870684Y-13327166D01*
X17870684Y-13327166D02*
X17851636Y-13317642D01*
X17851636Y-13317642D02*
X17823064Y-13317642D01*
X17823064Y-13317642D02*
X17804017Y-13308118D01*
X17804017Y-13308118D02*
X17794493Y-13289070D01*
X17794493Y-13289070D02*
X17794493Y-13279547D01*
X17794493Y-13279547D02*
X17804017Y-13260499D01*
X17804017Y-13260499D02*
X17823064Y-13250975D01*
X17823064Y-13250975D02*
X17851636Y-13250975D01*
X17851636Y-13250975D02*
X17870684Y-13260499D01*
X17946874Y-13460499D02*
X17956398Y-13450975D01*
X17956398Y-13450975D02*
X17975445Y-13422404D01*
X17975445Y-13422404D02*
X17984969Y-13403356D01*
X17984969Y-13403356D02*
X17994493Y-13374785D01*
X17994493Y-13374785D02*
X18004017Y-13327166D01*
X18004017Y-13327166D02*
X18004017Y-13289070D01*
X18004017Y-13289070D02*
X17994493Y-13241451D01*
X17994493Y-13241451D02*
X17984969Y-13212880D01*
X17984969Y-13212880D02*
X17975445Y-13193832D01*
X17975445Y-13193832D02*
X17956398Y-13165261D01*
X17956398Y-13165261D02*
X17946874Y-13155737D01*
D12*
X12790859Y-13556825D02*
G75*
G02*
X12740859Y-13556825I-25000J0D01*
G01*
X12740859Y-13556825D02*
G75*
G02*
X12790859Y-13556825I25000J0D01*
G01*
D11*
X13089731Y-13448309D02*
X13108778Y-13448309D01*
X13108778Y-13448309D02*
X13127826Y-13457832D01*
X13127826Y-13457832D02*
X13137350Y-13467356D01*
X13137350Y-13467356D02*
X13146873Y-13486404D01*
X13146873Y-13486404D02*
X13156397Y-13524499D01*
X13156397Y-13524499D02*
X13156397Y-13572118D01*
X13156397Y-13572118D02*
X13146873Y-13610213D01*
X13146873Y-13610213D02*
X13137350Y-13629261D01*
X13137350Y-13629261D02*
X13127826Y-13638785D01*
X13127826Y-13638785D02*
X13108778Y-13648309D01*
X13108778Y-13648309D02*
X13089731Y-13648309D01*
X13089731Y-13648309D02*
X13070683Y-13638785D01*
X13070683Y-13638785D02*
X13061159Y-13629261D01*
X13061159Y-13629261D02*
X13051635Y-13610213D01*
X13051635Y-13610213D02*
X13042112Y-13572118D01*
X13042112Y-13572118D02*
X13042112Y-13524499D01*
X13042112Y-13524499D02*
X13051635Y-13486404D01*
X13051635Y-13486404D02*
X13061159Y-13467356D01*
X13061159Y-13467356D02*
X13070683Y-13457832D01*
X13070683Y-13457832D02*
X13089731Y-13448309D01*
X13242112Y-13629261D02*
X13251635Y-13638785D01*
X13251635Y-13638785D02*
X13242112Y-13648309D01*
X13242112Y-13648309D02*
X13232588Y-13638785D01*
X13232588Y-13638785D02*
X13242112Y-13629261D01*
X13242112Y-13629261D02*
X13242112Y-13648309D01*
X13432588Y-13448309D02*
X13337350Y-13448309D01*
X13337350Y-13448309D02*
X13327826Y-13543547D01*
X13327826Y-13543547D02*
X13337350Y-13534023D01*
X13337350Y-13534023D02*
X13356397Y-13524499D01*
X13356397Y-13524499D02*
X13404016Y-13524499D01*
X13404016Y-13524499D02*
X13423064Y-13534023D01*
X13423064Y-13534023D02*
X13432588Y-13543547D01*
X13432588Y-13543547D02*
X13442112Y-13562594D01*
X13442112Y-13562594D02*
X13442112Y-13610213D01*
X13442112Y-13610213D02*
X13432588Y-13629261D01*
X13432588Y-13629261D02*
X13423064Y-13638785D01*
X13423064Y-13638785D02*
X13404016Y-13648309D01*
X13404016Y-13648309D02*
X13356397Y-13648309D01*
X13356397Y-13648309D02*
X13337350Y-13638785D01*
X13337350Y-13638785D02*
X13327826Y-13629261D01*
X13565921Y-13448309D02*
X13584969Y-13448309D01*
X13584969Y-13448309D02*
X13604016Y-13457832D01*
X13604016Y-13457832D02*
X13613540Y-13467356D01*
X13613540Y-13467356D02*
X13623064Y-13486404D01*
X13623064Y-13486404D02*
X13632588Y-13524499D01*
X13632588Y-13524499D02*
X13632588Y-13572118D01*
X13632588Y-13572118D02*
X13623064Y-13610213D01*
X13623064Y-13610213D02*
X13613540Y-13629261D01*
X13613540Y-13629261D02*
X13604016Y-13638785D01*
X13604016Y-13638785D02*
X13584969Y-13648309D01*
X13584969Y-13648309D02*
X13565921Y-13648309D01*
X13565921Y-13648309D02*
X13546873Y-13638785D01*
X13546873Y-13638785D02*
X13537350Y-13629261D01*
X13537350Y-13629261D02*
X13527826Y-13610213D01*
X13527826Y-13610213D02*
X13518302Y-13572118D01*
X13518302Y-13572118D02*
X13518302Y-13524499D01*
X13518302Y-13524499D02*
X13527826Y-13486404D01*
X13527826Y-13486404D02*
X13537350Y-13467356D01*
X13537350Y-13467356D02*
X13546873Y-13457832D01*
X13546873Y-13457832D02*
X13565921Y-13448309D01*
X13756397Y-13448309D02*
X13775445Y-13448309D01*
X13775445Y-13448309D02*
X13794493Y-13457832D01*
X13794493Y-13457832D02*
X13804016Y-13467356D01*
X13804016Y-13467356D02*
X13813540Y-13486404D01*
X13813540Y-13486404D02*
X13823064Y-13524499D01*
X13823064Y-13524499D02*
X13823064Y-13572118D01*
X13823064Y-13572118D02*
X13813540Y-13610213D01*
X13813540Y-13610213D02*
X13804016Y-13629261D01*
X13804016Y-13629261D02*
X13794493Y-13638785D01*
X13794493Y-13638785D02*
X13775445Y-13648309D01*
X13775445Y-13648309D02*
X13756397Y-13648309D01*
X13756397Y-13648309D02*
X13737350Y-13638785D01*
X13737350Y-13638785D02*
X13727826Y-13629261D01*
X13727826Y-13629261D02*
X13718302Y-13610213D01*
X13718302Y-13610213D02*
X13708778Y-13572118D01*
X13708778Y-13572118D02*
X13708778Y-13524499D01*
X13708778Y-13524499D02*
X13718302Y-13486404D01*
X13718302Y-13486404D02*
X13727826Y-13467356D01*
X13727826Y-13467356D02*
X13737350Y-13457832D01*
X13737350Y-13457832D02*
X13756397Y-13448309D01*
X13908778Y-13648309D02*
X13908778Y-13514975D01*
X13908778Y-13534023D02*
X13918302Y-13524499D01*
X13918302Y-13524499D02*
X13937350Y-13514975D01*
X13937350Y-13514975D02*
X13965921Y-13514975D01*
X13965921Y-13514975D02*
X13984969Y-13524499D01*
X13984969Y-13524499D02*
X13994493Y-13543547D01*
X13994493Y-13543547D02*
X13994493Y-13648309D01*
X13994493Y-13543547D02*
X14004016Y-13524499D01*
X14004016Y-13524499D02*
X14023064Y-13514975D01*
X14023064Y-13514975D02*
X14051635Y-13514975D01*
X14051635Y-13514975D02*
X14070683Y-13524499D01*
X14070683Y-13524499D02*
X14080207Y-13543547D01*
X14080207Y-13543547D02*
X14080207Y-13648309D01*
X14175445Y-13648309D02*
X14175445Y-13514975D01*
X14175445Y-13534023D02*
X14184969Y-13524499D01*
X14184969Y-13524499D02*
X14204016Y-13514975D01*
X14204016Y-13514975D02*
X14232588Y-13514975D01*
X14232588Y-13514975D02*
X14251635Y-13524499D01*
X14251635Y-13524499D02*
X14261159Y-13543547D01*
X14261159Y-13543547D02*
X14261159Y-13648309D01*
X14261159Y-13543547D02*
X14270683Y-13524499D01*
X14270683Y-13524499D02*
X14289731Y-13514975D01*
X14289731Y-13514975D02*
X14318302Y-13514975D01*
X14318302Y-13514975D02*
X14337350Y-13524499D01*
X14337350Y-13524499D02*
X14346874Y-13543547D01*
X14346874Y-13543547D02*
X14346874Y-13648309D01*
X14737350Y-13438785D02*
X14565921Y-13695928D01*
X14994493Y-13448309D02*
X15013540Y-13448309D01*
X15013540Y-13448309D02*
X15032588Y-13457832D01*
X15032588Y-13457832D02*
X15042112Y-13467356D01*
X15042112Y-13467356D02*
X15051636Y-13486404D01*
X15051636Y-13486404D02*
X15061159Y-13524499D01*
X15061159Y-13524499D02*
X15061159Y-13572118D01*
X15061159Y-13572118D02*
X15051636Y-13610213D01*
X15051636Y-13610213D02*
X15042112Y-13629261D01*
X15042112Y-13629261D02*
X15032588Y-13638785D01*
X15032588Y-13638785D02*
X15013540Y-13648309D01*
X15013540Y-13648309D02*
X14994493Y-13648309D01*
X14994493Y-13648309D02*
X14975445Y-13638785D01*
X14975445Y-13638785D02*
X14965921Y-13629261D01*
X14965921Y-13629261D02*
X14956397Y-13610213D01*
X14956397Y-13610213D02*
X14946874Y-13572118D01*
X14946874Y-13572118D02*
X14946874Y-13524499D01*
X14946874Y-13524499D02*
X14956397Y-13486404D01*
X14956397Y-13486404D02*
X14965921Y-13467356D01*
X14965921Y-13467356D02*
X14975445Y-13457832D01*
X14975445Y-13457832D02*
X14994493Y-13448309D01*
X15146874Y-13629261D02*
X15156397Y-13638785D01*
X15156397Y-13638785D02*
X15146874Y-13648309D01*
X15146874Y-13648309D02*
X15137350Y-13638785D01*
X15137350Y-13638785D02*
X15146874Y-13629261D01*
X15146874Y-13629261D02*
X15146874Y-13648309D01*
X15280207Y-13448309D02*
X15299255Y-13448309D01*
X15299255Y-13448309D02*
X15318302Y-13457832D01*
X15318302Y-13457832D02*
X15327826Y-13467356D01*
X15327826Y-13467356D02*
X15337350Y-13486404D01*
X15337350Y-13486404D02*
X15346874Y-13524499D01*
X15346874Y-13524499D02*
X15346874Y-13572118D01*
X15346874Y-13572118D02*
X15337350Y-13610213D01*
X15337350Y-13610213D02*
X15327826Y-13629261D01*
X15327826Y-13629261D02*
X15318302Y-13638785D01*
X15318302Y-13638785D02*
X15299255Y-13648309D01*
X15299255Y-13648309D02*
X15280207Y-13648309D01*
X15280207Y-13648309D02*
X15261159Y-13638785D01*
X15261159Y-13638785D02*
X15251636Y-13629261D01*
X15251636Y-13629261D02*
X15242112Y-13610213D01*
X15242112Y-13610213D02*
X15232588Y-13572118D01*
X15232588Y-13572118D02*
X15232588Y-13524499D01*
X15232588Y-13524499D02*
X15242112Y-13486404D01*
X15242112Y-13486404D02*
X15251636Y-13467356D01*
X15251636Y-13467356D02*
X15261159Y-13457832D01*
X15261159Y-13457832D02*
X15280207Y-13448309D01*
X15537350Y-13648309D02*
X15423064Y-13648309D01*
X15480207Y-13648309D02*
X15480207Y-13448309D01*
X15480207Y-13448309D02*
X15461159Y-13476880D01*
X15461159Y-13476880D02*
X15442112Y-13495928D01*
X15442112Y-13495928D02*
X15423064Y-13505451D01*
X15632588Y-13648309D02*
X15670683Y-13648309D01*
X15670683Y-13648309D02*
X15689731Y-13638785D01*
X15689731Y-13638785D02*
X15699255Y-13629261D01*
X15699255Y-13629261D02*
X15718302Y-13600689D01*
X15718302Y-13600689D02*
X15727826Y-13562594D01*
X15727826Y-13562594D02*
X15727826Y-13486404D01*
X15727826Y-13486404D02*
X15718302Y-13467356D01*
X15718302Y-13467356D02*
X15708778Y-13457832D01*
X15708778Y-13457832D02*
X15689731Y-13448309D01*
X15689731Y-13448309D02*
X15651636Y-13448309D01*
X15651636Y-13448309D02*
X15632588Y-13457832D01*
X15632588Y-13457832D02*
X15623064Y-13467356D01*
X15623064Y-13467356D02*
X15613540Y-13486404D01*
X15613540Y-13486404D02*
X15613540Y-13534023D01*
X15613540Y-13534023D02*
X15623064Y-13553070D01*
X15623064Y-13553070D02*
X15632588Y-13562594D01*
X15632588Y-13562594D02*
X15651636Y-13572118D01*
X15651636Y-13572118D02*
X15689731Y-13572118D01*
X15689731Y-13572118D02*
X15708778Y-13562594D01*
X15708778Y-13562594D02*
X15718302Y-13553070D01*
X15718302Y-13553070D02*
X15727826Y-13534023D01*
X15794493Y-13448309D02*
X15927826Y-13448309D01*
X15927826Y-13448309D02*
X15842112Y-13648309D01*
X15994493Y-13448309D02*
X15994493Y-13486404D01*
X16070683Y-13448309D02*
X16070683Y-13486404D01*
X16365921Y-13724499D02*
X16356398Y-13714975D01*
X16356398Y-13714975D02*
X16337350Y-13686404D01*
X16337350Y-13686404D02*
X16327826Y-13667356D01*
X16327826Y-13667356D02*
X16318302Y-13638785D01*
X16318302Y-13638785D02*
X16308779Y-13591166D01*
X16308779Y-13591166D02*
X16308779Y-13553070D01*
X16308779Y-13553070D02*
X16318302Y-13505451D01*
X16318302Y-13505451D02*
X16327826Y-13476880D01*
X16327826Y-13476880D02*
X16337350Y-13457832D01*
X16337350Y-13457832D02*
X16356398Y-13429261D01*
X16356398Y-13429261D02*
X16365921Y-13419737D01*
X16423064Y-13448309D02*
X16556398Y-13448309D01*
X16556398Y-13448309D02*
X16470683Y-13648309D01*
X16784969Y-13648309D02*
X16784969Y-13448309D01*
X16870683Y-13648309D02*
X16870683Y-13543547D01*
X16870683Y-13543547D02*
X16861160Y-13524499D01*
X16861160Y-13524499D02*
X16842112Y-13514975D01*
X16842112Y-13514975D02*
X16813541Y-13514975D01*
X16813541Y-13514975D02*
X16794493Y-13524499D01*
X16794493Y-13524499D02*
X16784969Y-13534023D01*
X16994493Y-13648309D02*
X16975445Y-13638785D01*
X16975445Y-13638785D02*
X16965922Y-13629261D01*
X16965922Y-13629261D02*
X16956398Y-13610213D01*
X16956398Y-13610213D02*
X16956398Y-13553070D01*
X16956398Y-13553070D02*
X16965922Y-13534023D01*
X16965922Y-13534023D02*
X16975445Y-13524499D01*
X16975445Y-13524499D02*
X16994493Y-13514975D01*
X16994493Y-13514975D02*
X17023064Y-13514975D01*
X17023064Y-13514975D02*
X17042112Y-13524499D01*
X17042112Y-13524499D02*
X17051636Y-13534023D01*
X17051636Y-13534023D02*
X17061160Y-13553070D01*
X17061160Y-13553070D02*
X17061160Y-13610213D01*
X17061160Y-13610213D02*
X17051636Y-13629261D01*
X17051636Y-13629261D02*
X17042112Y-13638785D01*
X17042112Y-13638785D02*
X17023064Y-13648309D01*
X17023064Y-13648309D02*
X16994493Y-13648309D01*
X17175445Y-13648309D02*
X17156398Y-13638785D01*
X17156398Y-13638785D02*
X17146874Y-13619737D01*
X17146874Y-13619737D02*
X17146874Y-13448309D01*
X17327826Y-13638785D02*
X17308779Y-13648309D01*
X17308779Y-13648309D02*
X17270683Y-13648309D01*
X17270683Y-13648309D02*
X17251636Y-13638785D01*
X17251636Y-13638785D02*
X17242112Y-13619737D01*
X17242112Y-13619737D02*
X17242112Y-13543547D01*
X17242112Y-13543547D02*
X17251636Y-13524499D01*
X17251636Y-13524499D02*
X17270683Y-13514975D01*
X17270683Y-13514975D02*
X17308779Y-13514975D01*
X17308779Y-13514975D02*
X17327826Y-13524499D01*
X17327826Y-13524499D02*
X17337350Y-13543547D01*
X17337350Y-13543547D02*
X17337350Y-13562594D01*
X17337350Y-13562594D02*
X17242112Y-13581642D01*
X17413541Y-13638785D02*
X17432588Y-13648309D01*
X17432588Y-13648309D02*
X17470683Y-13648309D01*
X17470683Y-13648309D02*
X17489731Y-13638785D01*
X17489731Y-13638785D02*
X17499255Y-13619737D01*
X17499255Y-13619737D02*
X17499255Y-13610213D01*
X17499255Y-13610213D02*
X17489731Y-13591166D01*
X17489731Y-13591166D02*
X17470683Y-13581642D01*
X17470683Y-13581642D02*
X17442112Y-13581642D01*
X17442112Y-13581642D02*
X17423064Y-13572118D01*
X17423064Y-13572118D02*
X17413541Y-13553070D01*
X17413541Y-13553070D02*
X17413541Y-13543547D01*
X17413541Y-13543547D02*
X17423064Y-13524499D01*
X17423064Y-13524499D02*
X17442112Y-13514975D01*
X17442112Y-13514975D02*
X17470683Y-13514975D01*
X17470683Y-13514975D02*
X17489731Y-13524499D01*
X17565922Y-13724499D02*
X17575445Y-13714975D01*
X17575445Y-13714975D02*
X17594493Y-13686404D01*
X17594493Y-13686404D02*
X17604017Y-13667356D01*
X17604017Y-13667356D02*
X17613541Y-13638785D01*
X17613541Y-13638785D02*
X17623064Y-13591166D01*
X17623064Y-13591166D02*
X17623064Y-13553070D01*
X17623064Y-13553070D02*
X17613541Y-13505451D01*
X17613541Y-13505451D02*
X17604017Y-13476880D01*
X17604017Y-13476880D02*
X17594493Y-13457832D01*
X17594493Y-13457832D02*
X17575445Y-13429261D01*
X17575445Y-13429261D02*
X17565922Y-13419737D01*
M02*
