G04 #@! TF.GenerationSoftware,KiCad,Pcbnew,8.0.1*
G04 #@! TF.CreationDate,2024-05-30T23:43:01+05:00*
G04 #@! TF.ProjectId,6_layer_MCU,365f6c61-7965-4725-9f4d-43552e6b6963,rev?*
G04 #@! TF.SameCoordinates,Original*
G04 #@! TF.FileFunction,Copper,L6,Bot*
G04 #@! TF.FilePolarity,Positive*
%FSLAX46Y46*%
G04 Gerber Fmt 4.6, Leading zero omitted, Abs format (unit mm)*
G04 Created by KiCad (PCBNEW 8.0.1) date 2024-05-30 23:43:01*
%MOMM*%
%LPD*%
G01*
G04 APERTURE LIST*
G04 Aperture macros list*
%AMRoundRect*
0 Rectangle with rounded corners*
0 $1 Rounding radius*
0 $2 $3 $4 $5 $6 $7 $8 $9 X,Y pos of 4 corners*
0 Add a 4 corners polygon primitive as box body*
4,1,4,$2,$3,$4,$5,$6,$7,$8,$9,$2,$3,0*
0 Add four circle primitives for the rounded corners*
1,1,$1+$1,$2,$3*
1,1,$1+$1,$4,$5*
1,1,$1+$1,$6,$7*
1,1,$1+$1,$8,$9*
0 Add four rect primitives between the rounded corners*
20,1,$1+$1,$2,$3,$4,$5,0*
20,1,$1+$1,$4,$5,$6,$7,0*
20,1,$1+$1,$6,$7,$8,$9,0*
20,1,$1+$1,$8,$9,$2,$3,0*%
G04 Aperture macros list end*
G04 #@! TA.AperFunction,ComponentPad*
%ADD10R,0.850000X0.850000*%
G04 #@! TD*
G04 #@! TA.AperFunction,ComponentPad*
%ADD11O,0.850000X0.850000*%
G04 #@! TD*
G04 #@! TA.AperFunction,SMDPad,CuDef*
%ADD12RoundRect,0.150000X0.150000X0.700000X-0.150000X0.700000X-0.150000X-0.700000X0.150000X-0.700000X0*%
G04 #@! TD*
G04 #@! TA.AperFunction,SMDPad,CuDef*
%ADD13RoundRect,0.250000X0.250000X1.100000X-0.250000X1.100000X-0.250000X-1.100000X0.250000X-1.100000X0*%
G04 #@! TD*
G04 #@! TA.AperFunction,SMDPad,CuDef*
%ADD14RoundRect,0.160000X-0.160000X0.197500X-0.160000X-0.197500X0.160000X-0.197500X0.160000X0.197500X0*%
G04 #@! TD*
G04 #@! TA.AperFunction,SMDPad,CuDef*
%ADD15RoundRect,0.375000X0.375000X-0.625000X0.375000X0.625000X-0.375000X0.625000X-0.375000X-0.625000X0*%
G04 #@! TD*
G04 #@! TA.AperFunction,SMDPad,CuDef*
%ADD16RoundRect,0.500000X1.400000X-0.500000X1.400000X0.500000X-1.400000X0.500000X-1.400000X-0.500000X0*%
G04 #@! TD*
G04 #@! TA.AperFunction,SMDPad,CuDef*
%ADD17RoundRect,0.225000X0.225000X0.250000X-0.225000X0.250000X-0.225000X-0.250000X0.225000X-0.250000X0*%
G04 #@! TD*
G04 #@! TA.AperFunction,SMDPad,CuDef*
%ADD18RoundRect,0.150000X-0.150000X-0.700000X0.150000X-0.700000X0.150000X0.700000X-0.150000X0.700000X0*%
G04 #@! TD*
G04 #@! TA.AperFunction,SMDPad,CuDef*
%ADD19RoundRect,0.250000X-0.250000X-1.100000X0.250000X-1.100000X0.250000X1.100000X-0.250000X1.100000X0*%
G04 #@! TD*
G04 #@! TA.AperFunction,SMDPad,CuDef*
%ADD20RoundRect,0.225000X-0.225000X-0.250000X0.225000X-0.250000X0.225000X0.250000X-0.225000X0.250000X0*%
G04 #@! TD*
G04 #@! TA.AperFunction,SMDPad,CuDef*
%ADD21RoundRect,0.225000X0.250000X-0.225000X0.250000X0.225000X-0.250000X0.225000X-0.250000X-0.225000X0*%
G04 #@! TD*
G04 #@! TA.AperFunction,SMDPad,CuDef*
%ADD22R,2.000000X0.500000*%
G04 #@! TD*
G04 #@! TA.AperFunction,SMDPad,CuDef*
%ADD23R,1.700000X2.000000*%
G04 #@! TD*
G04 #@! TA.AperFunction,ViaPad*
%ADD24C,0.600000*%
G04 #@! TD*
G04 #@! TA.AperFunction,ViaPad*
%ADD25C,0.700000*%
G04 #@! TD*
G04 #@! TA.AperFunction,Conductor*
%ADD26C,0.156500*%
G04 #@! TD*
G04 #@! TA.AperFunction,Conductor*
%ADD27C,0.500000*%
G04 #@! TD*
G04 #@! TA.AperFunction,Conductor*
%ADD28C,0.300000*%
G04 #@! TD*
G04 #@! TA.AperFunction,Conductor*
%ADD29C,0.200000*%
G04 #@! TD*
G04 APERTURE END LIST*
D10*
X133500000Y-89300000D03*
D11*
X134500000Y-89300000D03*
X135500001Y-89300000D03*
X136500000Y-89300000D03*
X137500000Y-89300000D03*
D10*
X141700000Y-118500000D03*
D11*
X140700000Y-118500000D03*
D12*
X152725000Y-121350000D03*
X151475000Y-121350000D03*
D13*
X154575000Y-124550000D03*
X149625000Y-124550000D03*
D14*
X147700000Y-113002500D03*
X147700000Y-114197500D03*
D15*
X164400000Y-120429999D03*
X162100000Y-120429998D03*
D16*
X162100000Y-114130000D03*
D15*
X159800000Y-120429999D03*
D14*
X148700000Y-113002500D03*
X148700000Y-114197500D03*
X150000000Y-113002500D03*
X150000000Y-114197500D03*
X155400000Y-113002500D03*
X155400000Y-114197500D03*
D17*
X163875001Y-122679999D03*
X162325001Y-122679999D03*
D14*
X154300000Y-113002500D03*
X154300000Y-114197500D03*
D18*
X151425000Y-81850000D03*
X152675000Y-81850000D03*
X153925000Y-81850000D03*
X155175000Y-81850000D03*
D19*
X149575000Y-78650000D03*
X157025000Y-78650000D03*
D20*
X159125000Y-122680000D03*
X160675000Y-122680000D03*
D14*
X146700000Y-113002500D03*
X146700000Y-114197500D03*
D21*
X151500000Y-114375000D03*
X151500000Y-112825000D03*
D14*
X153200000Y-113002500D03*
X153200000Y-114197500D03*
D22*
X137175001Y-102300000D03*
X137175001Y-101500000D03*
X137175001Y-100700000D03*
X137175001Y-99900000D03*
X137175001Y-99100000D03*
D23*
X131625001Y-105150000D03*
X137075001Y-105150000D03*
X131625001Y-96250000D03*
X137075001Y-96250000D03*
D24*
X170600000Y-99900000D03*
X147600000Y-102400000D03*
X141200000Y-102000000D03*
X139100000Y-99700000D03*
X142600000Y-89100000D03*
X142100000Y-91300000D03*
X141800000Y-89621750D03*
X140700000Y-88700000D03*
X143200000Y-79400000D03*
X141000000Y-80300000D03*
X153200000Y-88100000D03*
X156200000Y-83900000D03*
X152800000Y-93100000D03*
X155600000Y-97400000D03*
X154500000Y-108100000D03*
X168300000Y-93200000D03*
X135800000Y-114000000D03*
X138700000Y-108900000D03*
X168200000Y-95300000D03*
X139900000Y-110600000D03*
X147400000Y-90500000D03*
X150500000Y-86800000D03*
X142600000Y-98600000D03*
X163300000Y-110100000D03*
D25*
X150200000Y-108600000D03*
D24*
X134400000Y-105500000D03*
X150500000Y-106700000D03*
D25*
X151385737Y-111942896D03*
D24*
X162800000Y-89800000D03*
X133300000Y-103600000D03*
X164500000Y-118500000D03*
X142400000Y-87700000D03*
X159286708Y-88000000D03*
X130200000Y-108200000D03*
X158900000Y-99413292D03*
X165000000Y-122000000D03*
X148100000Y-83900000D03*
X158308885Y-84908885D03*
X138900000Y-96102944D03*
X164400000Y-89500000D03*
X135700000Y-99100000D03*
X158800000Y-107200000D03*
X137400000Y-109800000D03*
X161000000Y-95200000D03*
X151300000Y-119800000D03*
X162385786Y-79802944D03*
X143800000Y-97100000D03*
X158100000Y-122235844D03*
X139900000Y-105300000D03*
X140000000Y-101300000D03*
X143800000Y-94800000D03*
X165700000Y-110199999D03*
X169902500Y-114600000D03*
X160100000Y-107700000D03*
X143300000Y-88600000D03*
X151500219Y-93793700D03*
X157500000Y-107100000D03*
X160500000Y-111900000D03*
X166204163Y-81358579D03*
X162100000Y-111900000D03*
X160500000Y-111900000D03*
X163900000Y-111900000D03*
X160500000Y-112700000D03*
X160400000Y-94600000D03*
D25*
X152356561Y-111905430D03*
D24*
X137600000Y-109100000D03*
X160500000Y-112700000D03*
X161300000Y-112700000D03*
X163000000Y-111900000D03*
X160500000Y-96900000D03*
X139900000Y-84800000D03*
X161300000Y-111900000D03*
X151200000Y-103300000D03*
X130400000Y-109600000D03*
X162100000Y-112700000D03*
X163900000Y-112700000D03*
X161300000Y-112700000D03*
X163900000Y-111900000D03*
X156300000Y-114400000D03*
X147900000Y-88000000D03*
X162100000Y-112700000D03*
X163000000Y-111900000D03*
X162100000Y-111900000D03*
X144600000Y-94500000D03*
X133100000Y-98200000D03*
X169802500Y-111300000D03*
X149600000Y-85800000D03*
X161300000Y-111900000D03*
X145800000Y-114400000D03*
X157500000Y-86200000D03*
X163900000Y-112700000D03*
X138500000Y-110600000D03*
X137100000Y-110500000D03*
X163000000Y-112700000D03*
X163000000Y-112700000D03*
D25*
X139000000Y-101525003D03*
X139000000Y-100625000D03*
D24*
X154700000Y-98600000D03*
D25*
X170400000Y-98900000D03*
X147600000Y-101600000D03*
D24*
X159300000Y-102900000D03*
D25*
X170100000Y-97800000D03*
X154741750Y-106900000D03*
X150300000Y-99100000D03*
X155300000Y-83900000D03*
X153500000Y-87200000D03*
X149479364Y-98020636D03*
D24*
X153213342Y-100786658D03*
X143242228Y-90815544D03*
X142800000Y-89800000D03*
X150477531Y-93713070D03*
X146700000Y-111900000D03*
X153200000Y-111800000D03*
D25*
X150443841Y-111894842D03*
D24*
X147700000Y-111900000D03*
D25*
X149100000Y-108100000D03*
X149550003Y-112000000D03*
D24*
X148700000Y-111900000D03*
X155400000Y-111800000D03*
X154300000Y-111800000D03*
X152900000Y-90700000D03*
X167700000Y-104800000D03*
X150337365Y-96162635D03*
X156600000Y-97400000D03*
X148300000Y-96900000D03*
X147722227Y-94477773D03*
X148950899Y-86586921D03*
X139800000Y-88600000D03*
X155500000Y-98300000D03*
X143057000Y-97761929D03*
X144700000Y-103400000D03*
X149716218Y-95541489D03*
X149723271Y-93979707D03*
X145400000Y-101500000D03*
X142200000Y-107100000D03*
X142232885Y-108832885D03*
X145600000Y-88900000D03*
X151500000Y-90900000D03*
X151459620Y-92040380D03*
X141700000Y-80900000D03*
X150625661Y-96955099D03*
X145400000Y-104400000D03*
X144800000Y-99800000D03*
X141500000Y-102700000D03*
X151400000Y-93000000D03*
X142700000Y-80100000D03*
D26*
X151375931Y-93793700D02*
X151500219Y-93793700D01*
X150821750Y-93239519D02*
X151375931Y-93793700D01*
X150128250Y-92228250D02*
X150821750Y-92921750D01*
X150821750Y-92921750D02*
X150821750Y-93239519D01*
X143300000Y-88800000D02*
X146728250Y-92228250D01*
X143300000Y-88600000D02*
X143300000Y-88800000D01*
X146728250Y-92228250D02*
X150128250Y-92228250D01*
X150064461Y-93300000D02*
X150477531Y-93713070D01*
X148600000Y-93300000D02*
X150064461Y-93300000D01*
X148000000Y-93900000D02*
X148600000Y-93300000D01*
X143300000Y-89800000D02*
X147400000Y-93900000D01*
X142800000Y-89800000D02*
X143300000Y-89800000D01*
X147400000Y-93900000D02*
X148000000Y-93900000D01*
D27*
X164400000Y-120429999D02*
X164400000Y-118600000D01*
D28*
X137175001Y-99100000D02*
X135700000Y-99100000D01*
D27*
X164400000Y-118600000D02*
X164500000Y-118500000D01*
X151475000Y-121350000D02*
X151475000Y-119975000D01*
X158544156Y-122680000D02*
X158100000Y-122235844D01*
X159125000Y-122680000D02*
X158544156Y-122680000D01*
X151475000Y-119975000D02*
X151300000Y-119800000D01*
D28*
X151500000Y-112057159D02*
X151500000Y-112625000D01*
D27*
X163875001Y-122679999D02*
X163875001Y-120954998D01*
X165000000Y-122000000D02*
X164555000Y-122000000D01*
X164555000Y-122000000D02*
X163875001Y-122679999D01*
D28*
X163875000Y-120954997D02*
X164399999Y-120430000D01*
D27*
X163875001Y-120954998D02*
X164400000Y-120429999D01*
D28*
X151385737Y-111942896D02*
X151500000Y-112057159D01*
D27*
X158200000Y-119400000D02*
X158770001Y-119400000D01*
X158200000Y-119000000D02*
X158200000Y-119400000D01*
D28*
X160675001Y-122679999D02*
X160675001Y-121305000D01*
D27*
X157900000Y-118700000D02*
X158200000Y-119000000D01*
X153300000Y-118500000D02*
X154200000Y-119400000D01*
X154200000Y-119400000D02*
X158200000Y-119400000D01*
X158770001Y-119400000D02*
X159800000Y-120429999D01*
D28*
X160675001Y-121305000D02*
X159799998Y-120430000D01*
D27*
X152725000Y-121350000D02*
X152725000Y-120875000D01*
X157500000Y-107100000D02*
X157900000Y-107500000D01*
X160675000Y-122680000D02*
X160675000Y-121304999D01*
X157900000Y-107500000D02*
X157900000Y-118700000D01*
X152725000Y-120875000D02*
X154200000Y-119400000D01*
X141700000Y-118500000D02*
X153300000Y-118500000D01*
X160675000Y-121304999D02*
X159800000Y-120429999D01*
D28*
X146002500Y-114197500D02*
X146700000Y-114197500D01*
X148700000Y-114197500D02*
X146700000Y-114197500D01*
X156097500Y-114197500D02*
X155400000Y-114197500D01*
X145800000Y-114400000D02*
X146002500Y-114197500D01*
X162325000Y-120655000D02*
X162099999Y-120429999D01*
D27*
X162325001Y-120654999D02*
X162100000Y-120429998D01*
D28*
X162099999Y-120429999D02*
X162100000Y-114130001D01*
X153200000Y-114197500D02*
X151000000Y-114197500D01*
X151500000Y-114175000D02*
X152356561Y-113318439D01*
X156300000Y-114400000D02*
X156097500Y-114197500D01*
X151000000Y-114197500D02*
X148700000Y-114197500D01*
X152356561Y-113318439D02*
X152356561Y-111905430D01*
X155400000Y-114197500D02*
X153200000Y-114197500D01*
D27*
X162325001Y-122679999D02*
X162325001Y-120654999D01*
D29*
X137350000Y-101325001D02*
X137175001Y-101500000D01*
X138799998Y-101325001D02*
X137350000Y-101325001D01*
X139000000Y-101525003D02*
X138799998Y-101325001D01*
D27*
X140700000Y-104100000D02*
X139500000Y-102900000D01*
X139100000Y-102900000D02*
X138500000Y-102300000D01*
X138500000Y-102300000D02*
X137175001Y-102300000D01*
X140700000Y-118500000D02*
X140700000Y-104100000D01*
X139500000Y-102900000D02*
X139100000Y-102900000D01*
D29*
X137350000Y-100874999D02*
X137175001Y-100700000D01*
X139000000Y-100625000D02*
X138750001Y-100874999D01*
X138750001Y-100874999D02*
X137350000Y-100874999D01*
D26*
X154700000Y-98600000D02*
X154000000Y-99300000D01*
X151000000Y-101600000D02*
X147600000Y-101600000D01*
X153300000Y-99300000D02*
X151000000Y-101600000D01*
D28*
X166400000Y-102900000D02*
X170400000Y-98900000D01*
X159300000Y-102900000D02*
X166400000Y-102900000D01*
D26*
X154000000Y-99300000D02*
X153300000Y-99300000D01*
D28*
X157500000Y-103400000D02*
X157500000Y-104141750D01*
X166300000Y-101600000D02*
X159300000Y-101600000D01*
X159300000Y-101600000D02*
X157500000Y-103400000D01*
X170100000Y-97800000D02*
X166300000Y-101600000D01*
X157500000Y-104141750D02*
X154741750Y-106900000D01*
X153550000Y-90430761D02*
X153550000Y-95850000D01*
X152675000Y-83125000D02*
X152675000Y-81850000D01*
X152100000Y-83700000D02*
X152100000Y-88980761D01*
X152100000Y-83700000D02*
X152675000Y-83125000D01*
X152100000Y-88980761D02*
X153550000Y-90430761D01*
X153550000Y-95850000D02*
X150300000Y-99100000D01*
X155300000Y-83900000D02*
X155300000Y-81975000D01*
X155300000Y-81975000D02*
X155175000Y-81850000D01*
X153500000Y-86300000D02*
X153925000Y-85875000D01*
X153925000Y-85875000D02*
X153925000Y-81850000D01*
X153500000Y-87200000D02*
X153500000Y-86300000D01*
X152150000Y-89737867D02*
X151425000Y-89012867D01*
X152150000Y-96350000D02*
X152150000Y-89737867D01*
X149479364Y-98020636D02*
X150479364Y-98020636D01*
X150479364Y-98020636D02*
X152150000Y-96350000D01*
X151425000Y-89012867D02*
X151425000Y-81850000D01*
X146700000Y-111900000D02*
X146700000Y-113002500D01*
X153200000Y-111800000D02*
X153200000Y-113002500D01*
X150443841Y-111894842D02*
X150443841Y-112558659D01*
X150443841Y-112558659D02*
X150000000Y-113002500D01*
D26*
X149100000Y-108700000D02*
X149100000Y-108100000D01*
X149300000Y-111749997D02*
X149300000Y-108900000D01*
X149550003Y-112000000D02*
X149300000Y-111749997D01*
D28*
X147700000Y-111900000D02*
X147700000Y-113002500D01*
D26*
X149300000Y-108900000D02*
X149100000Y-108700000D01*
D28*
X148700000Y-111900000D02*
X148700000Y-113002500D01*
X155400000Y-113002500D02*
X155400000Y-111800000D01*
X154300000Y-111800000D02*
X154300000Y-113002500D01*
D26*
X148823151Y-96376849D02*
X150123151Y-96376849D01*
X148300000Y-96900000D02*
X148823151Y-96376849D01*
X150123151Y-96376849D02*
X150337365Y-96162635D01*
X139800000Y-95900000D02*
X139800000Y-88600000D01*
X141661929Y-97761929D02*
X139800000Y-95900000D01*
X143057000Y-97761929D02*
X141661929Y-97761929D01*
X149716218Y-95541489D02*
X148658511Y-95541489D01*
X144700000Y-102600000D02*
X144700000Y-103400000D01*
X145978250Y-101739519D02*
X145639519Y-102078250D01*
X148658511Y-95541489D02*
X145978250Y-98221750D01*
X145639519Y-102078250D02*
X145221750Y-102078250D01*
X145978250Y-98221750D02*
X145978250Y-101739519D01*
X145221750Y-102078250D02*
X144700000Y-102600000D01*
X149120293Y-93979707D02*
X145400000Y-97700000D01*
X149723271Y-93979707D02*
X149120293Y-93979707D01*
X145400000Y-97700000D02*
X145400000Y-101500000D01*
X142232885Y-107132885D02*
X142200000Y-107100000D01*
X142232885Y-108832885D02*
X142232885Y-107132885D01*
D28*
X151500000Y-90900000D02*
X149900000Y-89300000D01*
X149900000Y-89300000D02*
X146000000Y-89300000D01*
X146000000Y-89300000D02*
X145600000Y-88900000D01*
X151459620Y-92040380D02*
X151219240Y-91800000D01*
X143800000Y-83000000D02*
X141700000Y-80900000D01*
X143800000Y-88019239D02*
X143800000Y-83000000D01*
X151219240Y-91800000D02*
X147580761Y-91800000D01*
X147580761Y-91800000D02*
X143800000Y-88019239D01*
D26*
X145400000Y-102911520D02*
X145400000Y-104400000D01*
X148851114Y-97760406D02*
X148851114Y-99460406D01*
X148851114Y-99460406D02*
X145400000Y-102911520D01*
X149219134Y-97392386D02*
X148851114Y-97760406D01*
X150625661Y-96955099D02*
X150188374Y-97392386D01*
X150188374Y-97392386D02*
X149219134Y-97392386D01*
X141900000Y-102700000D02*
X144800000Y-99800000D01*
X141500000Y-102700000D02*
X141900000Y-102700000D01*
G04 #@! TA.AperFunction,Conductor*
G36*
X153925667Y-76823729D02*
G01*
X153930594Y-76823927D01*
X154918598Y-76883691D01*
X154923539Y-76884090D01*
X155908311Y-76983585D01*
X155913245Y-76984184D01*
X156893202Y-77123250D01*
X156898099Y-77124046D01*
X157871670Y-77302460D01*
X157876555Y-77303457D01*
X158842133Y-77520923D01*
X158846972Y-77522116D01*
X159803035Y-77778292D01*
X159807797Y-77779672D01*
X160752763Y-78074135D01*
X160757439Y-78075696D01*
X161689825Y-78407985D01*
X161694433Y-78409733D01*
X162612669Y-78779292D01*
X162617208Y-78781225D01*
X163519801Y-79187449D01*
X163524304Y-79189586D01*
X164409795Y-79631818D01*
X164414195Y-79634127D01*
X165281157Y-80111654D01*
X165285462Y-80114139D01*
X165824073Y-80439740D01*
X165871260Y-80491268D01*
X165883099Y-80560127D01*
X165855830Y-80624456D01*
X165825896Y-80650850D01*
X165701903Y-80728761D01*
X165701900Y-80728763D01*
X165574347Y-80856316D01*
X165478374Y-81009055D01*
X165418794Y-81179324D01*
X165418793Y-81179329D01*
X165398598Y-81358575D01*
X165398598Y-81358582D01*
X165418793Y-81537828D01*
X165418794Y-81537833D01*
X165478374Y-81708102D01*
X165510326Y-81758953D01*
X165574347Y-81860841D01*
X165701901Y-81988395D01*
X165854641Y-82084368D01*
X166024908Y-82143947D01*
X166024913Y-82143948D01*
X166204159Y-82164144D01*
X166204163Y-82164144D01*
X166204167Y-82164144D01*
X166383412Y-82143948D01*
X166383415Y-82143947D01*
X166383418Y-82143947D01*
X166553685Y-82084368D01*
X166706425Y-81988395D01*
X166833979Y-81860841D01*
X166929952Y-81708101D01*
X166989531Y-81537834D01*
X166990435Y-81529816D01*
X167001633Y-81430421D01*
X167028699Y-81366007D01*
X167086293Y-81326451D01*
X167156130Y-81324312D01*
X167197333Y-81343691D01*
X167769616Y-81755967D01*
X167773569Y-81758938D01*
X168290776Y-82164144D01*
X168552705Y-82369353D01*
X168556574Y-82372512D01*
X169310473Y-83013782D01*
X169314211Y-83017093D01*
X170041711Y-83688229D01*
X170045312Y-83691689D01*
X170745144Y-84391521D01*
X170748604Y-84395122D01*
X171419740Y-85122622D01*
X171423051Y-85126360D01*
X172064321Y-85880259D01*
X172067480Y-85884128D01*
X172395068Y-86302262D01*
X172668601Y-86651401D01*
X172677880Y-86663244D01*
X172680871Y-86667225D01*
X172936596Y-87022197D01*
X173259415Y-87470305D01*
X173262252Y-87474415D01*
X173774329Y-88249208D01*
X173807984Y-88300128D01*
X173810645Y-88304337D01*
X174090647Y-88767517D01*
X174322688Y-89151361D01*
X174325185Y-89155686D01*
X174802700Y-90022627D01*
X174805021Y-90027049D01*
X175247243Y-90912520D01*
X175249384Y-90917032D01*
X175655596Y-91819598D01*
X175657551Y-91824188D01*
X175985266Y-92638456D01*
X176027088Y-92742369D01*
X176028857Y-92747036D01*
X176220556Y-93284931D01*
X176361127Y-93679364D01*
X176362708Y-93684101D01*
X176657154Y-94629013D01*
X176658544Y-94633810D01*
X176914717Y-95589863D01*
X176915912Y-95594711D01*
X177133375Y-96560274D01*
X177134374Y-96565167D01*
X177312784Y-97538717D01*
X177313585Y-97543647D01*
X177452647Y-98523576D01*
X177453249Y-98528533D01*
X177552741Y-99513275D01*
X177553143Y-99518253D01*
X177612904Y-100506208D01*
X177613105Y-100511198D01*
X177633035Y-101500751D01*
X177633035Y-101505745D01*
X177613105Y-102495297D01*
X177612904Y-102500287D01*
X177553143Y-103488242D01*
X177552741Y-103493220D01*
X177453249Y-104477962D01*
X177452647Y-104482919D01*
X177313585Y-105462848D01*
X177312784Y-105467778D01*
X177134374Y-106441328D01*
X177133375Y-106446221D01*
X176915912Y-107411784D01*
X176914717Y-107416632D01*
X176658544Y-108372685D01*
X176657154Y-108377482D01*
X176362708Y-109322394D01*
X176361127Y-109327131D01*
X176028859Y-110259456D01*
X176027088Y-110264126D01*
X175657553Y-111182303D01*
X175655596Y-111186897D01*
X175249384Y-112089463D01*
X175247243Y-112093975D01*
X174805021Y-112979446D01*
X174802700Y-112983868D01*
X174325185Y-113850809D01*
X174322688Y-113855134D01*
X173810653Y-114702146D01*
X173807984Y-114706367D01*
X173262252Y-115532080D01*
X173259415Y-115536190D01*
X172680880Y-116339259D01*
X172677880Y-116343251D01*
X172067480Y-117122367D01*
X172064321Y-117126236D01*
X171423051Y-117880135D01*
X171419740Y-117883873D01*
X170748604Y-118611373D01*
X170745144Y-118614974D01*
X170045312Y-119314806D01*
X170041711Y-119318266D01*
X169314211Y-119989402D01*
X169310473Y-119992713D01*
X168556574Y-120633983D01*
X168552705Y-120637142D01*
X167773589Y-121247542D01*
X167769597Y-121250542D01*
X166966528Y-121829077D01*
X166962418Y-121831914D01*
X166136705Y-122377646D01*
X166132484Y-122380315D01*
X165285472Y-122892350D01*
X165281147Y-122894847D01*
X164414206Y-123372362D01*
X164409784Y-123374683D01*
X163524313Y-123816905D01*
X163519801Y-123819046D01*
X162617235Y-124225258D01*
X162612641Y-124227215D01*
X161694464Y-124596750D01*
X161689794Y-124598521D01*
X160757469Y-124930789D01*
X160752732Y-124932370D01*
X159807820Y-125226816D01*
X159803023Y-125228206D01*
X158846970Y-125484379D01*
X158842122Y-125485574D01*
X157876559Y-125703037D01*
X157871666Y-125704036D01*
X156898116Y-125882446D01*
X156893186Y-125883247D01*
X155913257Y-126022309D01*
X155908300Y-126022911D01*
X154923558Y-126122403D01*
X154918580Y-126122805D01*
X153930625Y-126182566D01*
X153925635Y-126182767D01*
X152936083Y-126202697D01*
X152931089Y-126202697D01*
X151941536Y-126182767D01*
X151936546Y-126182566D01*
X150948591Y-126122805D01*
X150943613Y-126122403D01*
X149958871Y-126022911D01*
X149953914Y-126022309D01*
X148973985Y-125883247D01*
X148969055Y-125882446D01*
X147995505Y-125704036D01*
X147990612Y-125703037D01*
X147025049Y-125485574D01*
X147020201Y-125484379D01*
X146064148Y-125228206D01*
X146059351Y-125226816D01*
X145114439Y-124932370D01*
X145109702Y-124930789D01*
X144177377Y-124598521D01*
X144172707Y-124596750D01*
X143254530Y-124227215D01*
X143249936Y-124225258D01*
X142347370Y-123819046D01*
X142342858Y-123816905D01*
X141457387Y-123374683D01*
X141452965Y-123372362D01*
X140586024Y-122894847D01*
X140581699Y-122892350D01*
X140259537Y-122697597D01*
X139734675Y-122380307D01*
X139730479Y-122377654D01*
X138904753Y-121831914D01*
X138900643Y-121829077D01*
X138690543Y-121677720D01*
X138097563Y-121250533D01*
X138093594Y-121247551D01*
X137740685Y-120971064D01*
X137476479Y-120764071D01*
X147519499Y-120764071D01*
X147544497Y-120889738D01*
X147544499Y-120889744D01*
X147593533Y-121008124D01*
X147593538Y-121008133D01*
X147664723Y-121114668D01*
X147664726Y-121114672D01*
X147755327Y-121205273D01*
X147755331Y-121205276D01*
X147861866Y-121276461D01*
X147861872Y-121276464D01*
X147861873Y-121276465D01*
X147980256Y-121325501D01*
X147980260Y-121325501D01*
X147980261Y-121325502D01*
X148105928Y-121350500D01*
X148105931Y-121350500D01*
X148234071Y-121350500D01*
X148318615Y-121333682D01*
X148359744Y-121325501D01*
X148478127Y-121276465D01*
X148584669Y-121205276D01*
X148675276Y-121114669D01*
X148746465Y-121008127D01*
X148795501Y-120889744D01*
X148820500Y-120764069D01*
X148820500Y-120635931D01*
X148820500Y-120635928D01*
X148795502Y-120510261D01*
X148795501Y-120510260D01*
X148795501Y-120510256D01*
X148746465Y-120391873D01*
X148746464Y-120391872D01*
X148746461Y-120391866D01*
X148675276Y-120285331D01*
X148675273Y-120285327D01*
X148584672Y-120194726D01*
X148584668Y-120194723D01*
X148478133Y-120123538D01*
X148478124Y-120123533D01*
X148359744Y-120074499D01*
X148359738Y-120074497D01*
X148234071Y-120049500D01*
X148234069Y-120049500D01*
X148105931Y-120049500D01*
X148105929Y-120049500D01*
X147980261Y-120074497D01*
X147980255Y-120074499D01*
X147861875Y-120123533D01*
X147861866Y-120123538D01*
X147755331Y-120194723D01*
X147755327Y-120194726D01*
X147664726Y-120285327D01*
X147664723Y-120285331D01*
X147593538Y-120391866D01*
X147593533Y-120391875D01*
X147544499Y-120510255D01*
X147544497Y-120510261D01*
X147519500Y-120635928D01*
X147519500Y-120635931D01*
X147519500Y-120764069D01*
X147519500Y-120764071D01*
X147519499Y-120764071D01*
X137476479Y-120764071D01*
X137314466Y-120637142D01*
X137310597Y-120633983D01*
X136556698Y-119992713D01*
X136552960Y-119989402D01*
X135825460Y-119318266D01*
X135821859Y-119314806D01*
X135122027Y-118614974D01*
X135118567Y-118611373D01*
X134447431Y-117883873D01*
X134444120Y-117880135D01*
X134133961Y-117515501D01*
X135723183Y-117515501D01*
X135755205Y-117717684D01*
X135818464Y-117912373D01*
X135911398Y-118094763D01*
X136031711Y-118260363D01*
X136176469Y-118405121D01*
X136331432Y-118517706D01*
X136342073Y-118525437D01*
X136458290Y-118584653D01*
X136524459Y-118618368D01*
X136524461Y-118618368D01*
X136524464Y-118618370D01*
X136620272Y-118649500D01*
X136719148Y-118681627D01*
X136820240Y-118697638D01*
X136921331Y-118713650D01*
X136921332Y-118713650D01*
X137126034Y-118713650D01*
X137126035Y-118713650D01*
X137328217Y-118681627D01*
X137522902Y-118618370D01*
X137705293Y-118525437D01*
X137798273Y-118457882D01*
X137870896Y-118405121D01*
X137870898Y-118405118D01*
X137870902Y-118405116D01*
X138015649Y-118260369D01*
X138015651Y-118260365D01*
X138015654Y-118260363D01*
X138125355Y-118109370D01*
X138135970Y-118094760D01*
X138228903Y-117912369D01*
X138292160Y-117717684D01*
X138324183Y-117515502D01*
X138324183Y-117310798D01*
X138294951Y-117126236D01*
X138292160Y-117108615D01*
X138228901Y-116913926D01*
X138195186Y-116847757D01*
X138135970Y-116731540D01*
X138128239Y-116720899D01*
X138015654Y-116565936D01*
X137870896Y-116421178D01*
X137705296Y-116300865D01*
X137705295Y-116300864D01*
X137705293Y-116300863D01*
X137648336Y-116271841D01*
X137522906Y-116207931D01*
X137328217Y-116144672D01*
X137153678Y-116117028D01*
X137126035Y-116112650D01*
X136921331Y-116112650D01*
X136897012Y-116116501D01*
X136719148Y-116144672D01*
X136524459Y-116207931D01*
X136342069Y-116300865D01*
X136176469Y-116421178D01*
X136031711Y-116565936D01*
X135911398Y-116731536D01*
X135818464Y-116913926D01*
X135755205Y-117108615D01*
X135723183Y-117310798D01*
X135723183Y-117515501D01*
X134133961Y-117515501D01*
X133802850Y-117126236D01*
X133799691Y-117122367D01*
X133250348Y-116421184D01*
X133189276Y-116343231D01*
X133186305Y-116339278D01*
X132607749Y-115536181D01*
X132604919Y-115532080D01*
X132059171Y-114706341D01*
X132056534Y-114702172D01*
X131544477Y-113855124D01*
X131541986Y-113850809D01*
X131497577Y-113770184D01*
X131064465Y-112983857D01*
X131062150Y-112979446D01*
X131005885Y-112866786D01*
X130619924Y-112093966D01*
X130617787Y-112089463D01*
X130211563Y-111186870D01*
X130209630Y-111182331D01*
X129936563Y-110503848D01*
X129936189Y-110500003D01*
X136294435Y-110500003D01*
X136314630Y-110679249D01*
X136314631Y-110679254D01*
X136374211Y-110849523D01*
X136437646Y-110950478D01*
X136470184Y-111002262D01*
X136597738Y-111129816D01*
X136683911Y-111183962D01*
X136737957Y-111217922D01*
X136750478Y-111225789D01*
X136877352Y-111270184D01*
X136920745Y-111285368D01*
X136920750Y-111285369D01*
X137099996Y-111305565D01*
X137100000Y-111305565D01*
X137100004Y-111305565D01*
X137279249Y-111285369D01*
X137279252Y-111285368D01*
X137279255Y-111285368D01*
X137449522Y-111225789D01*
X137602262Y-111129816D01*
X137667485Y-111064592D01*
X137728804Y-111031110D01*
X137798496Y-111036094D01*
X137854430Y-111077965D01*
X137860156Y-111086303D01*
X137870182Y-111102260D01*
X137870184Y-111102262D01*
X137997738Y-111229816D01*
X138059720Y-111268762D01*
X138105833Y-111297737D01*
X138150478Y-111325789D01*
X138320745Y-111385368D01*
X138320750Y-111385369D01*
X138499996Y-111405565D01*
X138500000Y-111405565D01*
X138500004Y-111405565D01*
X138679249Y-111385369D01*
X138679252Y-111385368D01*
X138679255Y-111385368D01*
X138849522Y-111325789D01*
X139002262Y-111229816D01*
X139129816Y-111102262D01*
X139225789Y-110949522D01*
X139285368Y-110779255D01*
X139285369Y-110779249D01*
X139305565Y-110600003D01*
X139305565Y-110599996D01*
X139285369Y-110420750D01*
X139285368Y-110420745D01*
X139250376Y-110320745D01*
X139225789Y-110250478D01*
X139129816Y-110097738D01*
X139002262Y-109970184D01*
X138969379Y-109949522D01*
X138849523Y-109874211D01*
X138679254Y-109814631D01*
X138679249Y-109814630D01*
X138500004Y-109794435D01*
X138499996Y-109794435D01*
X138331075Y-109813467D01*
X138262253Y-109801412D01*
X138210874Y-109754063D01*
X138193250Y-109686453D01*
X138214977Y-109620047D01*
X138229509Y-109602568D01*
X138229816Y-109602262D01*
X138325789Y-109449522D01*
X138385368Y-109279255D01*
X138386051Y-109273193D01*
X138405565Y-109100003D01*
X138405565Y-109099996D01*
X138385369Y-108920750D01*
X138385368Y-108920745D01*
X138369085Y-108874211D01*
X138325789Y-108750478D01*
X138229816Y-108597738D01*
X138102262Y-108470184D01*
X138066684Y-108447829D01*
X137949523Y-108374211D01*
X137779254Y-108314631D01*
X137779249Y-108314630D01*
X137600004Y-108294435D01*
X137599996Y-108294435D01*
X137420750Y-108314630D01*
X137420745Y-108314631D01*
X137250476Y-108374211D01*
X137097737Y-108470184D01*
X136970184Y-108597737D01*
X136874211Y-108750476D01*
X136814631Y-108920745D01*
X136814630Y-108920750D01*
X136794435Y-109099996D01*
X136794435Y-109100003D01*
X136814630Y-109279249D01*
X136814631Y-109279254D01*
X136874211Y-109449523D01*
X136936427Y-109548539D01*
X136955427Y-109615776D01*
X136935059Y-109682611D01*
X136881791Y-109727825D01*
X136872387Y-109731553D01*
X136750478Y-109774210D01*
X136597737Y-109870184D01*
X136470184Y-109997737D01*
X136374211Y-110150476D01*
X136314631Y-110320745D01*
X136314630Y-110320750D01*
X136294435Y-110499996D01*
X136294435Y-110500003D01*
X129936189Y-110500003D01*
X129929795Y-110434309D01*
X129961697Y-110372148D01*
X130022142Y-110337102D01*
X130091939Y-110340299D01*
X130092552Y-110340512D01*
X130220737Y-110385366D01*
X130220743Y-110385367D01*
X130220745Y-110385368D01*
X130220746Y-110385368D01*
X130220750Y-110385369D01*
X130399996Y-110405565D01*
X130400000Y-110405565D01*
X130400004Y-110405565D01*
X130579249Y-110385369D01*
X130579252Y-110385368D01*
X130579255Y-110385368D01*
X130749522Y-110325789D01*
X130902262Y-110229816D01*
X131029816Y-110102262D01*
X131125789Y-109949522D01*
X131185368Y-109779255D01*
X131185369Y-109779249D01*
X131205565Y-109600003D01*
X131205565Y-109599996D01*
X131185369Y-109420750D01*
X131185368Y-109420745D01*
X131152611Y-109327131D01*
X131125789Y-109250478D01*
X131029816Y-109097738D01*
X130902262Y-108970184D01*
X130749523Y-108874211D01*
X130579254Y-108814631D01*
X130579249Y-108814630D01*
X130400004Y-108794435D01*
X130399996Y-108794435D01*
X130220750Y-108814630D01*
X130220745Y-108814631D01*
X130050476Y-108874211D01*
X129897737Y-108970184D01*
X129770182Y-109097739D01*
X129689023Y-109226903D01*
X129636689Y-109273193D01*
X129567635Y-109283841D01*
X129503787Y-109255466D01*
X129465645Y-109197820D01*
X129364804Y-108874211D01*
X129210010Y-108377459D01*
X129208627Y-108372685D01*
X129197356Y-108330622D01*
X128952454Y-107416632D01*
X128951259Y-107411784D01*
X128939458Y-107359388D01*
X128733795Y-106446217D01*
X128732797Y-106441328D01*
X128723818Y-106392331D01*
X128688182Y-106197870D01*
X130274501Y-106197870D01*
X130274502Y-106197876D01*
X130280909Y-106257483D01*
X130331203Y-106392328D01*
X130331207Y-106392335D01*
X130417453Y-106507544D01*
X130417456Y-106507547D01*
X130532665Y-106593793D01*
X130532672Y-106593797D01*
X130667518Y-106644091D01*
X130667517Y-106644091D01*
X130674445Y-106644835D01*
X130727128Y-106650500D01*
X132522873Y-106650499D01*
X132582484Y-106644091D01*
X132717332Y-106593796D01*
X132832547Y-106507546D01*
X132918797Y-106392331D01*
X132969092Y-106257483D01*
X132975501Y-106197873D01*
X132975501Y-106197870D01*
X135724501Y-106197870D01*
X135724502Y-106197876D01*
X135730909Y-106257483D01*
X135781203Y-106392328D01*
X135781207Y-106392335D01*
X135867453Y-106507544D01*
X135867456Y-106507547D01*
X135982665Y-106593793D01*
X135982672Y-106593797D01*
X136117518Y-106644091D01*
X136117517Y-106644091D01*
X136124445Y-106644835D01*
X136177128Y-106650500D01*
X137972873Y-106650499D01*
X138032484Y-106644091D01*
X138167332Y-106593796D01*
X138282547Y-106507546D01*
X138368797Y-106392331D01*
X138419092Y-106257483D01*
X138425501Y-106197873D01*
X138425500Y-104102128D01*
X138419092Y-104042517D01*
X138414354Y-104029815D01*
X138368798Y-103907671D01*
X138368794Y-103907664D01*
X138282548Y-103792455D01*
X138282545Y-103792452D01*
X138167336Y-103706206D01*
X138167329Y-103706202D01*
X138032483Y-103655908D01*
X138032484Y-103655908D01*
X137972884Y-103649501D01*
X137972882Y-103649500D01*
X137972874Y-103649500D01*
X137972865Y-103649500D01*
X136177130Y-103649500D01*
X136177124Y-103649501D01*
X136117517Y-103655908D01*
X135982672Y-103706202D01*
X135982665Y-103706206D01*
X135867456Y-103792452D01*
X135867453Y-103792455D01*
X135781207Y-103907664D01*
X135781203Y-103907671D01*
X135730909Y-104042517D01*
X135724502Y-104102116D01*
X135724502Y-104102123D01*
X135724501Y-104102135D01*
X135724501Y-106197870D01*
X132975501Y-106197870D01*
X132975500Y-104102128D01*
X132969092Y-104042517D01*
X132964354Y-104029815D01*
X132918798Y-103907671D01*
X132918794Y-103907664D01*
X132832548Y-103792455D01*
X132832545Y-103792452D01*
X132717336Y-103706206D01*
X132717329Y-103706202D01*
X132582483Y-103655908D01*
X132582484Y-103655908D01*
X132522884Y-103649501D01*
X132522882Y-103649500D01*
X132522874Y-103649500D01*
X132522865Y-103649500D01*
X130727130Y-103649500D01*
X130727124Y-103649501D01*
X130667517Y-103655908D01*
X130532672Y-103706202D01*
X130532665Y-103706206D01*
X130417456Y-103792452D01*
X130417453Y-103792455D01*
X130331207Y-103907664D01*
X130331203Y-103907671D01*
X130280909Y-104042517D01*
X130274502Y-104102116D01*
X130274502Y-104102123D01*
X130274501Y-104102135D01*
X130274501Y-106197870D01*
X128688182Y-106197870D01*
X128554384Y-105467761D01*
X128553586Y-105462848D01*
X128548898Y-105429816D01*
X128414522Y-104482907D01*
X128413922Y-104477962D01*
X128314428Y-103493201D01*
X128314028Y-103488242D01*
X128282619Y-102968995D01*
X133774500Y-102968995D01*
X133801419Y-103104322D01*
X133801422Y-103104332D01*
X133854222Y-103231804D01*
X133854229Y-103231817D01*
X133930886Y-103346541D01*
X133930889Y-103346545D01*
X134028455Y-103444111D01*
X134028459Y-103444114D01*
X134143183Y-103520771D01*
X134143196Y-103520778D01*
X134250169Y-103565087D01*
X134270673Y-103573580D01*
X134270677Y-103573580D01*
X134270678Y-103573581D01*
X134406005Y-103600500D01*
X134406008Y-103600500D01*
X134543996Y-103600500D01*
X134650829Y-103579249D01*
X134679329Y-103573580D01*
X134795400Y-103525502D01*
X134806805Y-103520778D01*
X134806805Y-103520777D01*
X134806812Y-103520775D01*
X134921543Y-103444114D01*
X135019115Y-103346542D01*
X135095776Y-103231811D01*
X135148581Y-103104328D01*
X135170567Y-102993797D01*
X135175501Y-102968995D01*
X135175501Y-102831004D01*
X135148582Y-102695677D01*
X135148581Y-102695676D01*
X135148581Y-102695672D01*
X135108071Y-102597872D01*
X135095779Y-102568195D01*
X135095772Y-102568182D01*
X135019115Y-102453458D01*
X135019112Y-102453454D01*
X134921546Y-102355888D01*
X134921542Y-102355885D01*
X134806818Y-102279228D01*
X134806805Y-102279221D01*
X134679333Y-102226421D01*
X134679323Y-102226418D01*
X134543996Y-102199500D01*
X134543994Y-102199500D01*
X134406008Y-102199500D01*
X134406006Y-102199500D01*
X134270678Y-102226418D01*
X134270668Y-102226421D01*
X134143196Y-102279221D01*
X134143183Y-102279228D01*
X134028459Y-102355885D01*
X134028455Y-102355888D01*
X133930889Y-102453454D01*
X133930886Y-102453458D01*
X133854229Y-102568182D01*
X133854222Y-102568195D01*
X133801422Y-102695667D01*
X133801419Y-102695677D01*
X133774501Y-102831004D01*
X133774501Y-102831007D01*
X133774501Y-102968993D01*
X133774501Y-102968995D01*
X133774500Y-102968995D01*
X128282619Y-102968995D01*
X128254265Y-102500256D01*
X128254067Y-102495329D01*
X128247395Y-102164071D01*
X129494499Y-102164071D01*
X129519497Y-102289738D01*
X129519499Y-102289744D01*
X129568533Y-102408124D01*
X129568538Y-102408133D01*
X129639723Y-102514668D01*
X129639726Y-102514672D01*
X129730327Y-102605273D01*
X129730331Y-102605276D01*
X129836866Y-102676461D01*
X129836872Y-102676464D01*
X129836873Y-102676465D01*
X129955256Y-102725501D01*
X129955260Y-102725501D01*
X129955261Y-102725502D01*
X130080928Y-102750500D01*
X130080931Y-102750500D01*
X130209071Y-102750500D01*
X130293615Y-102733682D01*
X130334744Y-102725501D01*
X130453127Y-102676465D01*
X130559669Y-102605276D01*
X130650276Y-102514669D01*
X130721465Y-102408127D01*
X130770501Y-102289744D01*
X130795500Y-102164069D01*
X130795500Y-102035931D01*
X130795500Y-102035928D01*
X130770502Y-101910261D01*
X130770501Y-101910260D01*
X130770501Y-101910256D01*
X130721465Y-101791873D01*
X130721464Y-101791872D01*
X130721461Y-101791866D01*
X130650276Y-101685331D01*
X130650273Y-101685327D01*
X130559672Y-101594726D01*
X130559668Y-101594723D01*
X130453133Y-101523538D01*
X130453124Y-101523533D01*
X130334744Y-101474499D01*
X130334738Y-101474497D01*
X130209071Y-101449500D01*
X130209069Y-101449500D01*
X130080931Y-101449500D01*
X130080929Y-101449500D01*
X129955261Y-101474497D01*
X129955255Y-101474499D01*
X129836875Y-101523533D01*
X129836866Y-101523538D01*
X129730331Y-101594723D01*
X129730327Y-101594726D01*
X129639726Y-101685327D01*
X129639723Y-101685331D01*
X129568538Y-101791866D01*
X129568533Y-101791875D01*
X129519499Y-101910255D01*
X129519497Y-101910261D01*
X129494500Y-102035928D01*
X129494500Y-102035931D01*
X129494500Y-102164069D01*
X129494500Y-102164071D01*
X129494499Y-102164071D01*
X128247395Y-102164071D01*
X128234136Y-101505730D01*
X128234136Y-101500751D01*
X128234665Y-101474497D01*
X128254067Y-100511164D01*
X128254265Y-100506241D01*
X128314029Y-99518231D01*
X128314430Y-99513275D01*
X128321043Y-99447829D01*
X128349712Y-99164071D01*
X129494499Y-99164071D01*
X129519497Y-99289738D01*
X129519499Y-99289744D01*
X129568533Y-99408124D01*
X129568538Y-99408133D01*
X129639723Y-99514668D01*
X129639726Y-99514672D01*
X129730327Y-99605273D01*
X129730331Y-99605276D01*
X129836866Y-99676461D01*
X129836872Y-99676464D01*
X129836873Y-99676465D01*
X129955256Y-99725501D01*
X129955260Y-99725501D01*
X129955261Y-99725502D01*
X130080928Y-99750500D01*
X130080931Y-99750500D01*
X130209071Y-99750500D01*
X130293615Y-99733682D01*
X130334744Y-99725501D01*
X130453127Y-99676465D01*
X130559669Y-99605276D01*
X130650276Y-99514669D01*
X130721465Y-99408127D01*
X130770501Y-99289744D01*
X130784239Y-99220680D01*
X130795500Y-99164071D01*
X130795500Y-99035928D01*
X130770502Y-98910261D01*
X130770501Y-98910260D01*
X130770501Y-98910256D01*
X130721465Y-98791873D01*
X130721464Y-98791872D01*
X130721461Y-98791866D01*
X130650276Y-98685331D01*
X130650273Y-98685327D01*
X130559672Y-98594726D01*
X130559668Y-98594723D01*
X130453133Y-98523538D01*
X130453124Y-98523533D01*
X130334744Y-98474499D01*
X130334738Y-98474497D01*
X130209071Y-98449500D01*
X130209069Y-98449500D01*
X130080931Y-98449500D01*
X130080929Y-98449500D01*
X129955261Y-98474497D01*
X129955255Y-98474499D01*
X129836875Y-98523533D01*
X129836866Y-98523538D01*
X129730331Y-98594723D01*
X129730327Y-98594726D01*
X129639726Y-98685327D01*
X129639723Y-98685331D01*
X129568538Y-98791866D01*
X129568533Y-98791875D01*
X129519499Y-98910255D01*
X129519497Y-98910261D01*
X129494500Y-99035928D01*
X129494500Y-99035931D01*
X129494500Y-99164069D01*
X129494500Y-99164071D01*
X129494499Y-99164071D01*
X128349712Y-99164071D01*
X128413923Y-98528516D01*
X128414524Y-98523576D01*
X128553589Y-97543623D01*
X128554382Y-97538742D01*
X128598523Y-97297870D01*
X130274501Y-97297870D01*
X130274502Y-97297876D01*
X130280909Y-97357483D01*
X130331203Y-97492328D01*
X130331207Y-97492335D01*
X130417453Y-97607544D01*
X130417456Y-97607547D01*
X130532665Y-97693793D01*
X130532672Y-97693797D01*
X130667518Y-97744091D01*
X130667517Y-97744091D01*
X130674445Y-97744835D01*
X130727128Y-97750500D01*
X132234432Y-97750499D01*
X132301471Y-97770184D01*
X132347226Y-97822987D01*
X132357170Y-97892146D01*
X132351474Y-97915453D01*
X132314632Y-98020742D01*
X132314630Y-98020750D01*
X132294435Y-98199996D01*
X132294435Y-98200003D01*
X132314630Y-98379249D01*
X132314631Y-98379254D01*
X132374211Y-98549523D01*
X132470184Y-98702262D01*
X132597738Y-98829816D01*
X132750478Y-98925789D01*
X132814714Y-98948266D01*
X132920745Y-98985368D01*
X132920750Y-98985369D01*
X133099996Y-99005565D01*
X133100000Y-99005565D01*
X133100004Y-99005565D01*
X133279249Y-98985369D01*
X133279252Y-98985368D01*
X133279255Y-98985368D01*
X133449522Y-98925789D01*
X133602262Y-98829816D01*
X133648619Y-98783458D01*
X133709940Y-98749974D01*
X133779631Y-98754958D01*
X133835565Y-98796829D01*
X133850858Y-98823682D01*
X133854223Y-98831806D01*
X133854229Y-98831817D01*
X133930886Y-98946541D01*
X133930889Y-98946545D01*
X134028455Y-99044111D01*
X134028459Y-99044114D01*
X134143183Y-99120771D01*
X134143196Y-99120778D01*
X134270668Y-99173578D01*
X134270673Y-99173580D01*
X134270677Y-99173580D01*
X134270678Y-99173581D01*
X134406005Y-99200500D01*
X134406008Y-99200500D01*
X134543996Y-99200500D01*
X134635042Y-99182389D01*
X134679329Y-99173580D01*
X134806812Y-99120775D01*
X134921543Y-99044114D01*
X135019115Y-98946542D01*
X135095776Y-98831811D01*
X135148581Y-98704328D01*
X135157390Y-98660041D01*
X135175501Y-98568995D01*
X135175501Y-98431004D01*
X135148582Y-98295677D01*
X135148581Y-98295676D01*
X135148581Y-98295672D01*
X135148579Y-98295667D01*
X135095779Y-98168195D01*
X135095772Y-98168182D01*
X135019115Y-98053458D01*
X135019112Y-98053454D01*
X134921546Y-97955888D01*
X134921542Y-97955885D01*
X134806818Y-97879228D01*
X134806805Y-97879221D01*
X134679333Y-97826421D01*
X134679323Y-97826418D01*
X134543996Y-97799500D01*
X134543994Y-97799500D01*
X134406008Y-97799500D01*
X134406006Y-97799500D01*
X134270678Y-97826418D01*
X134270668Y-97826421D01*
X134143196Y-97879221D01*
X134143185Y-97879227D01*
X134027161Y-97956752D01*
X133960484Y-97977629D01*
X133893104Y-97959144D01*
X133846414Y-97907165D01*
X133841229Y-97894603D01*
X133825789Y-97850478D01*
X133802406Y-97813264D01*
X133729816Y-97697738D01*
X133602262Y-97570184D01*
X133538017Y-97529816D01*
X133449523Y-97474211D01*
X133279254Y-97414631D01*
X133279249Y-97414630D01*
X133100004Y-97394435D01*
X133099501Y-97394435D01*
X133099187Y-97394343D01*
X133093081Y-97393655D01*
X133093201Y-97392585D01*
X133032462Y-97374750D01*
X132986707Y-97321946D01*
X132981469Y-97297870D01*
X135724501Y-97297870D01*
X135724502Y-97297876D01*
X135730909Y-97357483D01*
X135781203Y-97492328D01*
X135781207Y-97492335D01*
X135867453Y-97607544D01*
X135867456Y-97607547D01*
X135982665Y-97693793D01*
X135982672Y-97693797D01*
X136117518Y-97744091D01*
X136117517Y-97744091D01*
X136124445Y-97744835D01*
X136177128Y-97750500D01*
X137972873Y-97750499D01*
X138032484Y-97744091D01*
X138167332Y-97693796D01*
X138282547Y-97607546D01*
X138368797Y-97492331D01*
X138419092Y-97357483D01*
X138425501Y-97297873D01*
X138425500Y-95202128D01*
X138419092Y-95142517D01*
X138414354Y-95129815D01*
X138368798Y-95007671D01*
X138368794Y-95007664D01*
X138282548Y-94892455D01*
X138282545Y-94892452D01*
X138167336Y-94806206D01*
X138167329Y-94806202D01*
X138032483Y-94755908D01*
X138032484Y-94755908D01*
X137972884Y-94749501D01*
X137972882Y-94749500D01*
X137972874Y-94749500D01*
X137972865Y-94749500D01*
X136177130Y-94749500D01*
X136177124Y-94749501D01*
X136117517Y-94755908D01*
X135982672Y-94806202D01*
X135982665Y-94806206D01*
X135867456Y-94892452D01*
X135867453Y-94892455D01*
X135781207Y-95007664D01*
X135781203Y-95007671D01*
X135730909Y-95142517D01*
X135725593Y-95191967D01*
X135724502Y-95202123D01*
X135724501Y-95202135D01*
X135724501Y-97297870D01*
X132981469Y-97297870D01*
X132975501Y-97270435D01*
X132975500Y-95202129D01*
X132975499Y-95202123D01*
X132975498Y-95202116D01*
X132969092Y-95142517D01*
X132964354Y-95129815D01*
X132918798Y-95007671D01*
X132918794Y-95007664D01*
X132832548Y-94892455D01*
X132832545Y-94892452D01*
X132717336Y-94806206D01*
X132717329Y-94806202D01*
X132582483Y-94755908D01*
X132582484Y-94755908D01*
X132522884Y-94749501D01*
X132522882Y-94749500D01*
X132522874Y-94749500D01*
X132522865Y-94749500D01*
X130727130Y-94749500D01*
X130727124Y-94749501D01*
X130667517Y-94755908D01*
X130532672Y-94806202D01*
X130532665Y-94806206D01*
X130417456Y-94892452D01*
X130417453Y-94892455D01*
X130331207Y-95007664D01*
X130331203Y-95007671D01*
X130280909Y-95142517D01*
X130275593Y-95191967D01*
X130274502Y-95202123D01*
X130274501Y-95202135D01*
X130274501Y-97297870D01*
X128598523Y-97297870D01*
X128732799Y-96565153D01*
X128733796Y-96560274D01*
X128951264Y-95594689D01*
X128952454Y-95589863D01*
X129208634Y-94633785D01*
X129210006Y-94629049D01*
X129504478Y-93684055D01*
X129506029Y-93679408D01*
X129838329Y-92746992D01*
X129840064Y-92742416D01*
X130209637Y-91824146D01*
X130211555Y-91819643D01*
X130617799Y-90917005D01*
X130619914Y-90912548D01*
X131062166Y-90027017D01*
X131064454Y-90022658D01*
X131202038Y-89772870D01*
X132574500Y-89772870D01*
X132574501Y-89772876D01*
X132580908Y-89832483D01*
X132631202Y-89967328D01*
X132631206Y-89967335D01*
X132717452Y-90082544D01*
X132717455Y-90082547D01*
X132832664Y-90168793D01*
X132832671Y-90168797D01*
X132967517Y-90219091D01*
X132967516Y-90219091D01*
X132974444Y-90219835D01*
X133027127Y-90225500D01*
X133972872Y-90225499D01*
X134032483Y-90219091D01*
X134124530Y-90184759D01*
X134194218Y-90179776D01*
X134206039Y-90183678D01*
X134206246Y-90183042D01*
X134212426Y-90185049D01*
X134212429Y-90185051D01*
X134402726Y-90225500D01*
X134597274Y-90225500D01*
X134787571Y-90185051D01*
X134965299Y-90105922D01*
X135122692Y-89991569D01*
X135144513Y-89967335D01*
X135159671Y-89950500D01*
X135252870Y-89846992D01*
X135350144Y-89678508D01*
X135382069Y-89580252D01*
X135421506Y-89522576D01*
X135485864Y-89495377D01*
X135554711Y-89507291D01*
X135606187Y-89554535D01*
X135617931Y-89580252D01*
X135649855Y-89678507D01*
X135649857Y-89678511D01*
X135704336Y-89772870D01*
X135747130Y-89846992D01*
X135777301Y-89880500D01*
X135877302Y-89991564D01*
X135877305Y-89991566D01*
X135877308Y-89991569D01*
X135995352Y-90077333D01*
X136034702Y-90105923D01*
X136072239Y-90122635D01*
X136212429Y-90185051D01*
X136402726Y-90225500D01*
X136597274Y-90225500D01*
X136787566Y-90185052D01*
X136787565Y-90185052D01*
X136787571Y-90185051D01*
X136949569Y-90112925D01*
X137018815Y-90103642D01*
X137050425Y-90112922D01*
X137212429Y-90185051D01*
X137212432Y-90185051D01*
X137212433Y-90185052D01*
X137402726Y-90225500D01*
X137597274Y-90225500D01*
X137787571Y-90185051D01*
X137965299Y-90105922D01*
X138122692Y-89991569D01*
X138144513Y-89967335D01*
X138159671Y-89950500D01*
X138252870Y-89846992D01*
X138350144Y-89678508D01*
X138410262Y-89493482D01*
X138430598Y-89300000D01*
X138410262Y-89106518D01*
X138350144Y-88921492D01*
X138350143Y-88921491D01*
X138350143Y-88921489D01*
X138350142Y-88921488D01*
X138295667Y-88827135D01*
X138252870Y-88753008D01*
X138169082Y-88659952D01*
X138122697Y-88608435D01*
X138122694Y-88608433D01*
X138122693Y-88608432D01*
X138122692Y-88608431D01*
X138111092Y-88600003D01*
X138994435Y-88600003D01*
X139014630Y-88779249D01*
X139014631Y-88779254D01*
X139074211Y-88949523D01*
X139170184Y-89102262D01*
X139184931Y-89117009D01*
X139218416Y-89178332D01*
X139221250Y-89204690D01*
X139221250Y-95823806D01*
X139221250Y-95976194D01*
X139238280Y-96039749D01*
X139260691Y-96123390D01*
X139260692Y-96123391D01*
X139336885Y-96255361D01*
X141198814Y-98117290D01*
X141306568Y-98225044D01*
X141438540Y-98301238D01*
X141585735Y-98340679D01*
X142452310Y-98340679D01*
X142519349Y-98360364D01*
X142539991Y-98376998D01*
X142554738Y-98391745D01*
X142600891Y-98420745D01*
X142694007Y-98479254D01*
X142707478Y-98487718D01*
X142824121Y-98528533D01*
X142877745Y-98547297D01*
X142877750Y-98547298D01*
X143056996Y-98567494D01*
X143057000Y-98567494D01*
X143057004Y-98567494D01*
X143236249Y-98547298D01*
X143236252Y-98547297D01*
X143236255Y-98547297D01*
X143406522Y-98487718D01*
X143559262Y-98391745D01*
X143686816Y-98264191D01*
X143782789Y-98111451D01*
X143842368Y-97941184D01*
X143846201Y-97907165D01*
X143862565Y-97761932D01*
X143862565Y-97761925D01*
X143842369Y-97582679D01*
X143842368Y-97582674D01*
X143815804Y-97506758D01*
X143782789Y-97412407D01*
X143776414Y-97402262D01*
X143743582Y-97350009D01*
X143686816Y-97259667D01*
X143559262Y-97132113D01*
X143406523Y-97036140D01*
X143236254Y-96976560D01*
X143236249Y-96976559D01*
X143057004Y-96956364D01*
X143056996Y-96956364D01*
X142877750Y-96976559D01*
X142877745Y-96976560D01*
X142707476Y-97036140D01*
X142554737Y-97132113D01*
X142539991Y-97146860D01*
X142478668Y-97180345D01*
X142452310Y-97183179D01*
X141953017Y-97183179D01*
X141885978Y-97163494D01*
X141865336Y-97146860D01*
X140415069Y-95696593D01*
X140381584Y-95635270D01*
X140378750Y-95608912D01*
X140378750Y-94500003D01*
X143794435Y-94500003D01*
X143814630Y-94679249D01*
X143814631Y-94679254D01*
X143874211Y-94849523D01*
X143913263Y-94911673D01*
X143970184Y-95002262D01*
X144097738Y-95129816D01*
X144250478Y-95225789D01*
X144261984Y-95229815D01*
X144420745Y-95285368D01*
X144420750Y-95285369D01*
X144599996Y-95305565D01*
X144600000Y-95305565D01*
X144600004Y-95305565D01*
X144779249Y-95285369D01*
X144779252Y-95285368D01*
X144779255Y-95285368D01*
X144949522Y-95225789D01*
X145102262Y-95129816D01*
X145229816Y-95002262D01*
X145325789Y-94849522D01*
X145385368Y-94679255D01*
X145386249Y-94671435D01*
X145405565Y-94500003D01*
X145405565Y-94499996D01*
X145385369Y-94320750D01*
X145385368Y-94320745D01*
X145377590Y-94298518D01*
X145325789Y-94150478D01*
X145229816Y-93997738D01*
X145102262Y-93870184D01*
X145013852Y-93814632D01*
X144949523Y-93774211D01*
X144779254Y-93714631D01*
X144779249Y-93714630D01*
X144600004Y-93694435D01*
X144599996Y-93694435D01*
X144420750Y-93714630D01*
X144420745Y-93714631D01*
X144250476Y-93774211D01*
X144097737Y-93870184D01*
X143970184Y-93997737D01*
X143874211Y-94150476D01*
X143814631Y-94320745D01*
X143814630Y-94320750D01*
X143794435Y-94499996D01*
X143794435Y-94500003D01*
X140378750Y-94500003D01*
X140378750Y-89204690D01*
X140398435Y-89137651D01*
X140415069Y-89117009D01*
X140429816Y-89102262D01*
X140525789Y-88949522D01*
X140585368Y-88779255D01*
X140586691Y-88767517D01*
X140605565Y-88600003D01*
X140605565Y-88599996D01*
X140585369Y-88420750D01*
X140585368Y-88420745D01*
X140583078Y-88414201D01*
X140525789Y-88250478D01*
X140429816Y-88097738D01*
X140302262Y-87970184D01*
X140270291Y-87950095D01*
X140149523Y-87874211D01*
X139979254Y-87814631D01*
X139979249Y-87814630D01*
X139800004Y-87794435D01*
X139799996Y-87794435D01*
X139620750Y-87814630D01*
X139620745Y-87814631D01*
X139450476Y-87874211D01*
X139297737Y-87970184D01*
X139170184Y-88097737D01*
X139074211Y-88250476D01*
X139014631Y-88420745D01*
X139014630Y-88420750D01*
X138994435Y-88599996D01*
X138994435Y-88600003D01*
X138111092Y-88600003D01*
X138042924Y-88550476D01*
X137965297Y-88494076D01*
X137824076Y-88431202D01*
X137787571Y-88414949D01*
X137787569Y-88414948D01*
X137597274Y-88374500D01*
X137402726Y-88374500D01*
X137212430Y-88414948D01*
X137212427Y-88414949D01*
X137050434Y-88487072D01*
X136981184Y-88496356D01*
X136949566Y-88487072D01*
X136787572Y-88414949D01*
X136787569Y-88414948D01*
X136597274Y-88374500D01*
X136402726Y-88374500D01*
X136212431Y-88414948D01*
X136034702Y-88494076D01*
X135877305Y-88608433D01*
X135877302Y-88608435D01*
X135747129Y-88753009D01*
X135649857Y-88921488D01*
X135649856Y-88921489D01*
X135617931Y-89019748D01*
X135578494Y-89077423D01*
X135514135Y-89104622D01*
X135445289Y-89092708D01*
X135393813Y-89045464D01*
X135382069Y-89019748D01*
X135350143Y-88921489D01*
X135350142Y-88921488D01*
X135295667Y-88827135D01*
X135252870Y-88753008D01*
X135169082Y-88659952D01*
X135122697Y-88608435D01*
X135122694Y-88608433D01*
X135122693Y-88608432D01*
X135122692Y-88608431D01*
X135042924Y-88550476D01*
X134965297Y-88494076D01*
X134824076Y-88431202D01*
X134787571Y-88414949D01*
X134787569Y-88414948D01*
X134597274Y-88374500D01*
X134402726Y-88374500D01*
X134212429Y-88414948D01*
X134206245Y-88416958D01*
X134205349Y-88414201D01*
X134148341Y-88421511D01*
X134124527Y-88415239D01*
X134032482Y-88380908D01*
X134032483Y-88380908D01*
X133972883Y-88374501D01*
X133972881Y-88374500D01*
X133972873Y-88374500D01*
X133972864Y-88374500D01*
X133027129Y-88374500D01*
X133027123Y-88374501D01*
X132967516Y-88380908D01*
X132832671Y-88431202D01*
X132832664Y-88431206D01*
X132717455Y-88517452D01*
X132717452Y-88517455D01*
X132631206Y-88632664D01*
X132631202Y-88632671D01*
X132580908Y-88767517D01*
X132574501Y-88827116D01*
X132574500Y-88827135D01*
X132574500Y-89772870D01*
X131202038Y-89772870D01*
X131542004Y-89155654D01*
X131544464Y-89151392D01*
X132056548Y-88304301D01*
X132059156Y-88300176D01*
X132604941Y-87474382D01*
X132607733Y-87470337D01*
X133186323Y-86667192D01*
X133189258Y-86663287D01*
X133799703Y-85884112D01*
X133802836Y-85880275D01*
X133959839Y-85695697D01*
X135723183Y-85695697D01*
X135727561Y-85723340D01*
X135755205Y-85897879D01*
X135818464Y-86092568D01*
X135911398Y-86274958D01*
X136031711Y-86440558D01*
X136176469Y-86585316D01*
X136322962Y-86691747D01*
X136342073Y-86705632D01*
X136458290Y-86764848D01*
X136524459Y-86798563D01*
X136524461Y-86798563D01*
X136524464Y-86798565D01*
X136620642Y-86829815D01*
X136719148Y-86861822D01*
X136820240Y-86877833D01*
X136921331Y-86893845D01*
X136921332Y-86893845D01*
X137126034Y-86893845D01*
X137126035Y-86893845D01*
X137328217Y-86861822D01*
X137522902Y-86798565D01*
X137705293Y-86705632D01*
X137841577Y-86606617D01*
X137870896Y-86585316D01*
X137870898Y-86585313D01*
X137870902Y-86585311D01*
X138015649Y-86440564D01*
X138015651Y-86440560D01*
X138015654Y-86440558D01*
X138125278Y-86289671D01*
X138135970Y-86274955D01*
X138228903Y-86092564D01*
X138292160Y-85897879D01*
X138324183Y-85695697D01*
X138324183Y-85490993D01*
X138312088Y-85414630D01*
X138292160Y-85288810D01*
X138253616Y-85170184D01*
X138228903Y-85094126D01*
X138228901Y-85094123D01*
X138228901Y-85094121D01*
X138170373Y-84979255D01*
X138135970Y-84911735D01*
X138125356Y-84897126D01*
X138054793Y-84800003D01*
X139094435Y-84800003D01*
X139114630Y-84979249D01*
X139114631Y-84979254D01*
X139174211Y-85149523D01*
X139261732Y-85288811D01*
X139270184Y-85302262D01*
X139397738Y-85429816D01*
X139468392Y-85474211D01*
X139495100Y-85490993D01*
X139550478Y-85525789D01*
X139677352Y-85570184D01*
X139720745Y-85585368D01*
X139720750Y-85585369D01*
X139899996Y-85605565D01*
X139900000Y-85605565D01*
X139900004Y-85605565D01*
X140079249Y-85585369D01*
X140079252Y-85585368D01*
X140079255Y-85585368D01*
X140249522Y-85525789D01*
X140402262Y-85429816D01*
X140529816Y-85302262D01*
X140625789Y-85149522D01*
X140685368Y-84979255D01*
X140705565Y-84800000D01*
X140699495Y-84746131D01*
X140685369Y-84620750D01*
X140685368Y-84620745D01*
X140666891Y-84567941D01*
X140625789Y-84450478D01*
X140591006Y-84395122D01*
X140529815Y-84297737D01*
X140402262Y-84170184D01*
X140249523Y-84074211D01*
X140079254Y-84014631D01*
X140079249Y-84014630D01*
X139900004Y-83994435D01*
X139899996Y-83994435D01*
X139720750Y-84014630D01*
X139720745Y-84014631D01*
X139550476Y-84074211D01*
X139397737Y-84170184D01*
X139270184Y-84297737D01*
X139174211Y-84450476D01*
X139114631Y-84620745D01*
X139114630Y-84620750D01*
X139094435Y-84799996D01*
X139094435Y-84800003D01*
X138054793Y-84800003D01*
X138015654Y-84746131D01*
X137870896Y-84601373D01*
X137705296Y-84481060D01*
X137705295Y-84481059D01*
X137705293Y-84481058D01*
X137648336Y-84452036D01*
X137522906Y-84388126D01*
X137328217Y-84324867D01*
X137153678Y-84297223D01*
X137126035Y-84292845D01*
X136921331Y-84292845D01*
X136897012Y-84296696D01*
X136719148Y-84324867D01*
X136524459Y-84388126D01*
X136342069Y-84481060D01*
X136176469Y-84601373D01*
X136031711Y-84746131D01*
X135911398Y-84911731D01*
X135818464Y-85094121D01*
X135755205Y-85288810D01*
X135729600Y-85450476D01*
X135723183Y-85490993D01*
X135723183Y-85695697D01*
X133959839Y-85695697D01*
X134444128Y-85126350D01*
X134447431Y-85122622D01*
X135118590Y-84395097D01*
X135122002Y-84391546D01*
X135821884Y-83691664D01*
X135825435Y-83688252D01*
X136552970Y-83017083D01*
X136556698Y-83013782D01*
X136629490Y-82951865D01*
X137310613Y-82372498D01*
X137314450Y-82369365D01*
X138093625Y-81758920D01*
X138097530Y-81755985D01*
X138900675Y-81177395D01*
X138904720Y-81174603D01*
X139730514Y-80628818D01*
X139734639Y-80626210D01*
X140581730Y-80114126D01*
X140585992Y-80111666D01*
X141452996Y-79634116D01*
X141457355Y-79631828D01*
X141930884Y-79395338D01*
X141999653Y-79382997D01*
X142064179Y-79409794D01*
X142103975Y-79467223D01*
X142106405Y-79537050D01*
X142073971Y-79593950D01*
X142070184Y-79597737D01*
X141974211Y-79750476D01*
X141914631Y-79920745D01*
X141914630Y-79920749D01*
X141906499Y-79992917D01*
X141879432Y-80057331D01*
X141821837Y-80096886D01*
X141769396Y-80102253D01*
X141700004Y-80094435D01*
X141699996Y-80094435D01*
X141520750Y-80114630D01*
X141520745Y-80114631D01*
X141350476Y-80174211D01*
X141197737Y-80270184D01*
X141070184Y-80397737D01*
X140974211Y-80550476D01*
X140914631Y-80720745D01*
X140914630Y-80720750D01*
X140894435Y-80899996D01*
X140894435Y-80900003D01*
X140914630Y-81079249D01*
X140914631Y-81079254D01*
X140974211Y-81249523D01*
X141042736Y-81358579D01*
X141070184Y-81402262D01*
X141197738Y-81529816D01*
X141350478Y-81625789D01*
X141520745Y-81685368D01*
X141527974Y-81686182D01*
X141592388Y-81713246D01*
X141601776Y-81721722D01*
X143113181Y-83233127D01*
X143146666Y-83294450D01*
X143149500Y-83320808D01*
X143149500Y-87716587D01*
X143129815Y-87783626D01*
X143077011Y-87829381D01*
X143066457Y-87833628D01*
X143055961Y-87837301D01*
X142950476Y-87874211D01*
X142797737Y-87970184D01*
X142670184Y-88097737D01*
X142574211Y-88250476D01*
X142514631Y-88420745D01*
X142514630Y-88420750D01*
X142494435Y-88599996D01*
X142494435Y-88600003D01*
X142514630Y-88779249D01*
X142514631Y-88779254D01*
X142558630Y-88904994D01*
X142562191Y-88974773D01*
X142527462Y-89035401D01*
X142482545Y-89062990D01*
X142450475Y-89074212D01*
X142297737Y-89170184D01*
X142170184Y-89297737D01*
X142074211Y-89450476D01*
X142014631Y-89620745D01*
X142014630Y-89620750D01*
X141994435Y-89799996D01*
X141994435Y-89800003D01*
X142014630Y-89979249D01*
X142014631Y-89979254D01*
X142074211Y-90149523D01*
X142170184Y-90302262D01*
X142297738Y-90429816D01*
X142403676Y-90496381D01*
X142449967Y-90548716D01*
X142460615Y-90617769D01*
X142457847Y-90629371D01*
X142458409Y-90629500D01*
X142456859Y-90636290D01*
X142436663Y-90815540D01*
X142436663Y-90815547D01*
X142456858Y-90994793D01*
X142456859Y-90994798D01*
X142516439Y-91165067D01*
X142563294Y-91239636D01*
X142612412Y-91317806D01*
X142739966Y-91445360D01*
X142892706Y-91541333D01*
X143062973Y-91600912D01*
X143062978Y-91600913D01*
X143242224Y-91621109D01*
X143242228Y-91621109D01*
X143242232Y-91621109D01*
X143421477Y-91600913D01*
X143421480Y-91600912D01*
X143421483Y-91600912D01*
X143591750Y-91541333D01*
X143744490Y-91445360D01*
X143848006Y-91341844D01*
X143909329Y-91308359D01*
X143979021Y-91313343D01*
X144023368Y-91341844D01*
X146899006Y-94217482D01*
X146932491Y-94278805D01*
X146934545Y-94319046D01*
X146916662Y-94477769D01*
X146916662Y-94477776D01*
X146936857Y-94657022D01*
X146936858Y-94657027D01*
X146996438Y-94827296D01*
X147092411Y-94980035D01*
X147109269Y-94996893D01*
X147142754Y-95058216D01*
X147137770Y-95127908D01*
X147109269Y-95172255D01*
X144936886Y-97344637D01*
X144860692Y-97476608D01*
X144860691Y-97476609D01*
X144850503Y-97514632D01*
X144821250Y-97623806D01*
X144821250Y-97623808D01*
X144821250Y-98881227D01*
X144801565Y-98948266D01*
X144748761Y-98994021D01*
X144711134Y-99004447D01*
X144620749Y-99014630D01*
X144620745Y-99014631D01*
X144450476Y-99074211D01*
X144297737Y-99170184D01*
X144170184Y-99297737D01*
X144074210Y-99450478D01*
X144014630Y-99620750D01*
X144000931Y-99742333D01*
X143973864Y-99806747D01*
X143965392Y-99816130D01*
X141873347Y-101908175D01*
X141812024Y-101941660D01*
X141744712Y-101937536D01*
X141679252Y-101914631D01*
X141500004Y-101894435D01*
X141499996Y-101894435D01*
X141320750Y-101914630D01*
X141320745Y-101914631D01*
X141150476Y-101974211D01*
X140997737Y-102070184D01*
X140870184Y-102197737D01*
X140774211Y-102350476D01*
X140714631Y-102520745D01*
X140714630Y-102520750D01*
X140694435Y-102699996D01*
X140697051Y-102723218D01*
X140684995Y-102792040D01*
X140637645Y-102843419D01*
X140570034Y-102861042D01*
X140503629Y-102839314D01*
X140486149Y-102824781D01*
X139978421Y-102317052D01*
X139978414Y-102317046D01*
X139878818Y-102250499D01*
X139878817Y-102250499D01*
X139855495Y-102234916D01*
X139855488Y-102234912D01*
X139757510Y-102194329D01*
X139703106Y-102150488D01*
X139681041Y-102084194D01*
X139697575Y-102017768D01*
X139722722Y-101974211D01*
X139781250Y-101872838D01*
X139836497Y-101702806D01*
X139855185Y-101525003D01*
X139836497Y-101347200D01*
X139789360Y-101202127D01*
X139781252Y-101177173D01*
X139781249Y-101177167D01*
X139758058Y-101136999D01*
X139741586Y-101069101D01*
X139758059Y-101013001D01*
X139781250Y-100972835D01*
X139836497Y-100802803D01*
X139855185Y-100625000D01*
X139836497Y-100447197D01*
X139783600Y-100284396D01*
X139781252Y-100277170D01*
X139781249Y-100277164D01*
X139691859Y-100122335D01*
X139636515Y-100060869D01*
X139572235Y-99989478D01*
X139572232Y-99989476D01*
X139572231Y-99989475D01*
X139572230Y-99989474D01*
X139427593Y-99884388D01*
X139264267Y-99811671D01*
X139264265Y-99811670D01*
X139136594Y-99784533D01*
X139089391Y-99774500D01*
X138910609Y-99774500D01*
X138825281Y-99792637D01*
X138755614Y-99787321D01*
X138699880Y-99745184D01*
X138675775Y-99679604D01*
X138675500Y-99671347D01*
X138675500Y-99602129D01*
X138675499Y-99602123D01*
X138669092Y-99542516D01*
X138618798Y-99407671D01*
X138618794Y-99407664D01*
X138532548Y-99292455D01*
X138532545Y-99292452D01*
X138417336Y-99206206D01*
X138417329Y-99206202D01*
X138282483Y-99155908D01*
X138282484Y-99155908D01*
X138222884Y-99149501D01*
X138222882Y-99149500D01*
X138222874Y-99149500D01*
X138222865Y-99149500D01*
X136127130Y-99149500D01*
X136127124Y-99149501D01*
X136067517Y-99155908D01*
X135932672Y-99206202D01*
X135932665Y-99206206D01*
X135817456Y-99292452D01*
X135817453Y-99292455D01*
X135731207Y-99407664D01*
X135731203Y-99407671D01*
X135680911Y-99542513D01*
X135680910Y-99542517D01*
X135674501Y-99602127D01*
X135674501Y-99602134D01*
X135674501Y-99602135D01*
X135674501Y-100197870D01*
X135674502Y-100197876D01*
X135680909Y-100257479D01*
X135682693Y-100265026D01*
X135681230Y-100265371D01*
X135685586Y-100326371D01*
X135681174Y-100341396D01*
X135680909Y-100342517D01*
X135674502Y-100402117D01*
X135674501Y-100402136D01*
X135674501Y-100997870D01*
X135674502Y-100997876D01*
X135680909Y-101057479D01*
X135682693Y-101065026D01*
X135681230Y-101065371D01*
X135685586Y-101126371D01*
X135681174Y-101141396D01*
X135680909Y-101142517D01*
X135674502Y-101202117D01*
X135674501Y-101202136D01*
X135674501Y-101797870D01*
X135674502Y-101797876D01*
X135680909Y-101857479D01*
X135682693Y-101865026D01*
X135681230Y-101865371D01*
X135685586Y-101926371D01*
X135681174Y-101941396D01*
X135680909Y-101942517D01*
X135674502Y-102002117D01*
X135674501Y-102002136D01*
X135674501Y-102597870D01*
X135674502Y-102597876D01*
X135680909Y-102657483D01*
X135731203Y-102792328D01*
X135731207Y-102792335D01*
X135817453Y-102907544D01*
X135817456Y-102907547D01*
X135932665Y-102993793D01*
X135932672Y-102993797D01*
X136067518Y-103044091D01*
X136067517Y-103044091D01*
X136074445Y-103044835D01*
X136127128Y-103050500D01*
X137091080Y-103050499D01*
X137091094Y-103050500D01*
X137101083Y-103050500D01*
X138137770Y-103050500D01*
X138204809Y-103070185D01*
X138225451Y-103086819D01*
X138377941Y-103239308D01*
X138517049Y-103378416D01*
X138582744Y-103444111D01*
X138621585Y-103482952D01*
X138744498Y-103565080D01*
X138744511Y-103565087D01*
X138880908Y-103621584D01*
X138881087Y-103621658D01*
X138881091Y-103621658D01*
X138881092Y-103621659D01*
X139026079Y-103650500D01*
X139026082Y-103650500D01*
X139137770Y-103650500D01*
X139204809Y-103670185D01*
X139225451Y-103686819D01*
X139913181Y-104374548D01*
X139946666Y-104435871D01*
X139949500Y-104462229D01*
X139949500Y-117915677D01*
X139932887Y-117977677D01*
X139849857Y-118121488D01*
X139849856Y-118121489D01*
X139789738Y-118306516D01*
X139769402Y-118500000D01*
X139789738Y-118693483D01*
X139849856Y-118878510D01*
X139849857Y-118878511D01*
X139907504Y-118978358D01*
X139947130Y-119046992D01*
X139961515Y-119062968D01*
X140077302Y-119191564D01*
X140077305Y-119191566D01*
X140077308Y-119191569D01*
X140185513Y-119270185D01*
X140234702Y-119305923D01*
X140258657Y-119316588D01*
X140412429Y-119385051D01*
X140602726Y-119425500D01*
X140797274Y-119425500D01*
X140987571Y-119385051D01*
X140987573Y-119385049D01*
X140993755Y-119383042D01*
X140994756Y-119386124D01*
X141049741Y-119378197D01*
X141075463Y-119384757D01*
X141167517Y-119419091D01*
X141227127Y-119425500D01*
X142172872Y-119425499D01*
X142232483Y-119419091D01*
X142367331Y-119368796D01*
X142418218Y-119330702D01*
X142489645Y-119277232D01*
X142491439Y-119279629D01*
X142539596Y-119253334D01*
X142565954Y-119250500D01*
X152937769Y-119250500D01*
X153004808Y-119270185D01*
X153025449Y-119286817D01*
X153050949Y-119312317D01*
X153084435Y-119373639D01*
X153079452Y-119443330D01*
X153050950Y-119487680D01*
X152574027Y-119964604D01*
X152512704Y-119998089D01*
X152496075Y-120000541D01*
X152472432Y-120002401D01*
X152472426Y-120002402D01*
X152314606Y-120048254D01*
X152314603Y-120048255D01*
X152173137Y-120131917D01*
X152173129Y-120131923D01*
X152056923Y-120248129D01*
X152056917Y-120248137D01*
X151973255Y-120389603D01*
X151973254Y-120389606D01*
X151927402Y-120547426D01*
X151927401Y-120547432D01*
X151924500Y-120584298D01*
X151924500Y-122115701D01*
X151927401Y-122152567D01*
X151927402Y-122152573D01*
X151973254Y-122310393D01*
X151973255Y-122310396D01*
X152056917Y-122451862D01*
X152056923Y-122451870D01*
X152173129Y-122568076D01*
X152173133Y-122568079D01*
X152173135Y-122568081D01*
X152314602Y-122651744D01*
X152356224Y-122663836D01*
X152472426Y-122697597D01*
X152472429Y-122697597D01*
X152472431Y-122697598D01*
X152509306Y-122700500D01*
X152509314Y-122700500D01*
X152940686Y-122700500D01*
X152940694Y-122700500D01*
X152977569Y-122697598D01*
X152977571Y-122697597D01*
X152977573Y-122697597D01*
X153019191Y-122685505D01*
X153135398Y-122651744D01*
X153276865Y-122568081D01*
X153393081Y-122451865D01*
X153476744Y-122310398D01*
X153522598Y-122152569D01*
X153525500Y-122115694D01*
X153525500Y-121187230D01*
X153545185Y-121120191D01*
X153561819Y-121099549D01*
X154474549Y-120186819D01*
X154535872Y-120153334D01*
X154562230Y-120150500D01*
X155522827Y-120150500D01*
X155589866Y-120170185D01*
X155635621Y-120222989D01*
X155645565Y-120292147D01*
X155625929Y-120343391D01*
X155593538Y-120391866D01*
X155593533Y-120391875D01*
X155544499Y-120510255D01*
X155544497Y-120510261D01*
X155519500Y-120635928D01*
X155519500Y-120635931D01*
X155519500Y-120764069D01*
X155519500Y-120764071D01*
X155519499Y-120764071D01*
X155544497Y-120889738D01*
X155544499Y-120889744D01*
X155593533Y-121008124D01*
X155593538Y-121008133D01*
X155664723Y-121114668D01*
X155664726Y-121114672D01*
X155755327Y-121205273D01*
X155755331Y-121205276D01*
X155861866Y-121276461D01*
X155861872Y-121276464D01*
X155861873Y-121276465D01*
X155980256Y-121325501D01*
X155980260Y-121325501D01*
X155980261Y-121325502D01*
X156105928Y-121350500D01*
X156105931Y-121350500D01*
X156234071Y-121350500D01*
X156318615Y-121333682D01*
X156359744Y-121325501D01*
X156478127Y-121276465D01*
X156584669Y-121205276D01*
X156675276Y-121114669D01*
X156746465Y-121008127D01*
X156795501Y-120889744D01*
X156820500Y-120764069D01*
X156820500Y-120635931D01*
X156820500Y-120635928D01*
X156795502Y-120510261D01*
X156795501Y-120510260D01*
X156795501Y-120510256D01*
X156746465Y-120391873D01*
X156746464Y-120391872D01*
X156746461Y-120391866D01*
X156714071Y-120343391D01*
X156693193Y-120276713D01*
X156711678Y-120209333D01*
X156763656Y-120162643D01*
X156817173Y-120150500D01*
X158126082Y-120150500D01*
X158273918Y-120150500D01*
X158407771Y-120150500D01*
X158474810Y-120170185D01*
X158495452Y-120186819D01*
X158513181Y-120204548D01*
X158546666Y-120265871D01*
X158549500Y-120292229D01*
X158549500Y-121131121D01*
X158549501Y-121131124D01*
X158552399Y-121173885D01*
X158552399Y-121173886D01*
X158552400Y-121173890D01*
X158590104Y-121325500D01*
X158598360Y-121358695D01*
X158682967Y-121529291D01*
X158682969Y-121529294D01*
X158802277Y-121677720D01*
X158802278Y-121677721D01*
X158950704Y-121797029D01*
X158950707Y-121797031D01*
X159121302Y-121881638D01*
X159121303Y-121881638D01*
X159121307Y-121881640D01*
X159306111Y-121927599D01*
X159348877Y-121930499D01*
X159683512Y-121930498D01*
X159750550Y-121950182D01*
X159796305Y-122002986D01*
X159806249Y-122072145D01*
X159790841Y-122114657D01*
X159791051Y-122114755D01*
X159789953Y-122117109D01*
X159789056Y-122119585D01*
X159788001Y-122121294D01*
X159787996Y-122121305D01*
X159734651Y-122282290D01*
X159724500Y-122381647D01*
X159724500Y-122978337D01*
X159724501Y-122978355D01*
X159734650Y-123077707D01*
X159734651Y-123077710D01*
X159787996Y-123238694D01*
X159788001Y-123238705D01*
X159877029Y-123383040D01*
X159877032Y-123383044D01*
X159996955Y-123502967D01*
X159996959Y-123502970D01*
X160141294Y-123591998D01*
X160141297Y-123591999D01*
X160141303Y-123592003D01*
X160302292Y-123645349D01*
X160401655Y-123655500D01*
X160948344Y-123655499D01*
X160948352Y-123655498D01*
X160948355Y-123655498D01*
X161002760Y-123649940D01*
X161047708Y-123645349D01*
X161208697Y-123592003D01*
X161353044Y-123502968D01*
X161412322Y-123443689D01*
X161473641Y-123410207D01*
X161543333Y-123415191D01*
X161587681Y-123443691D01*
X161646957Y-123502967D01*
X161646959Y-123502968D01*
X161646960Y-123502969D01*
X161791295Y-123591997D01*
X161791298Y-123591998D01*
X161791304Y-123592002D01*
X161952293Y-123645348D01*
X162051656Y-123655499D01*
X162598345Y-123655498D01*
X162598353Y-123655497D01*
X162598356Y-123655497D01*
X162652761Y-123649939D01*
X162697709Y-123645348D01*
X162858698Y-123592002D01*
X163003045Y-123502967D01*
X163122969Y-123383043D01*
X163212004Y-123238696D01*
X163265350Y-123077707D01*
X163275501Y-122978344D01*
X163275500Y-122381655D01*
X163275090Y-122377646D01*
X163265350Y-122282291D01*
X163265349Y-122282288D01*
X163222366Y-122152573D01*
X163212004Y-122121302D01*
X163211999Y-122121294D01*
X163211999Y-122121293D01*
X163122971Y-121976958D01*
X163122970Y-121976956D01*
X163122969Y-121976955D01*
X163111820Y-121965806D01*
X163078335Y-121904483D01*
X163075501Y-121878125D01*
X163075501Y-121749023D01*
X163095186Y-121681984D01*
X163102854Y-121671336D01*
X163197251Y-121553900D01*
X163217030Y-121529294D01*
X163301641Y-121358691D01*
X163347600Y-121173887D01*
X163350500Y-121131121D01*
X163350499Y-119728876D01*
X163347600Y-119686109D01*
X163301641Y-119501305D01*
X163272888Y-119443330D01*
X163217032Y-119330705D01*
X163217030Y-119330702D01*
X163097722Y-119182276D01*
X163097721Y-119182275D01*
X162949295Y-119062967D01*
X162819404Y-118998547D01*
X162768091Y-118951126D01*
X162750499Y-118887459D01*
X162750499Y-117515501D01*
X167542988Y-117515501D01*
X167575010Y-117717684D01*
X167638269Y-117912373D01*
X167731203Y-118094763D01*
X167851516Y-118260363D01*
X167996274Y-118405121D01*
X168151237Y-118517706D01*
X168161878Y-118525437D01*
X168278095Y-118584653D01*
X168344264Y-118618368D01*
X168344266Y-118618368D01*
X168344269Y-118618370D01*
X168440077Y-118649500D01*
X168538953Y-118681627D01*
X168640045Y-118697638D01*
X168741136Y-118713650D01*
X168741137Y-118713650D01*
X168945839Y-118713650D01*
X168945840Y-118713650D01*
X169148022Y-118681627D01*
X169342707Y-118618370D01*
X169525098Y-118525437D01*
X169618078Y-118457882D01*
X169690701Y-118405121D01*
X169690703Y-118405118D01*
X169690707Y-118405116D01*
X169835454Y-118260369D01*
X169835456Y-118260365D01*
X169835459Y-118260363D01*
X169945160Y-118109370D01*
X169955775Y-118094760D01*
X170048708Y-117912369D01*
X170111965Y-117717684D01*
X170143988Y-117515502D01*
X170143988Y-117310798D01*
X170114756Y-117126236D01*
X170111965Y-117108615D01*
X170048706Y-116913926D01*
X170014991Y-116847757D01*
X169955775Y-116731540D01*
X169948044Y-116720899D01*
X169835459Y-116565936D01*
X169690701Y-116421178D01*
X169525101Y-116300865D01*
X169525100Y-116300864D01*
X169525098Y-116300863D01*
X169468141Y-116271841D01*
X169342711Y-116207931D01*
X169148022Y-116144672D01*
X168973483Y-116117028D01*
X168945840Y-116112650D01*
X168741136Y-116112650D01*
X168716817Y-116116501D01*
X168538953Y-116144672D01*
X168344264Y-116207931D01*
X168161874Y-116300865D01*
X167996274Y-116421178D01*
X167851516Y-116565936D01*
X167731203Y-116731536D01*
X167638269Y-116913926D01*
X167575010Y-117108615D01*
X167542988Y-117310798D01*
X167542988Y-117515501D01*
X162750499Y-117515501D01*
X162750499Y-115754499D01*
X162770184Y-115687460D01*
X162822988Y-115641705D01*
X162874499Y-115630499D01*
X163558028Y-115630499D01*
X163558036Y-115630499D01*
X163677418Y-115619886D01*
X163873049Y-115563909D01*
X164053407Y-115469698D01*
X164211109Y-115341109D01*
X164339698Y-115183407D01*
X164433909Y-115003049D01*
X164489886Y-114807418D01*
X164500500Y-114688037D01*
X164500499Y-113571964D01*
X164489886Y-113452582D01*
X164463159Y-113359174D01*
X164463642Y-113289309D01*
X164494695Y-113237383D01*
X164529813Y-113202265D01*
X164529813Y-113202264D01*
X164529816Y-113202262D01*
X164625789Y-113049522D01*
X164685368Y-112879255D01*
X164699750Y-112751611D01*
X164705565Y-112700003D01*
X164705565Y-112699996D01*
X164685369Y-112520750D01*
X164685366Y-112520737D01*
X164623489Y-112343905D01*
X164625637Y-112343153D01*
X164616035Y-112284872D01*
X164624392Y-112256411D01*
X164623489Y-112256095D01*
X164685366Y-112079262D01*
X164685369Y-112079249D01*
X164705565Y-111900003D01*
X164705565Y-111899996D01*
X164685369Y-111720750D01*
X164685368Y-111720745D01*
X164625788Y-111550476D01*
X164562955Y-111450478D01*
X164529816Y-111397738D01*
X164432081Y-111300003D01*
X168996935Y-111300003D01*
X169017130Y-111479249D01*
X169017131Y-111479254D01*
X169076711Y-111649523D01*
X169126862Y-111729337D01*
X169172684Y-111802262D01*
X169300238Y-111929816D01*
X169378910Y-111979249D01*
X169433036Y-112013259D01*
X169452978Y-112025789D01*
X169508503Y-112045218D01*
X169623245Y-112085368D01*
X169623250Y-112085369D01*
X169802496Y-112105565D01*
X169802500Y-112105565D01*
X169802504Y-112105565D01*
X169981749Y-112085369D01*
X169981752Y-112085368D01*
X169981755Y-112085368D01*
X170152022Y-112025789D01*
X170304762Y-111929816D01*
X170432316Y-111802262D01*
X170528289Y-111649522D01*
X170587868Y-111479255D01*
X170587869Y-111479249D01*
X170608065Y-111300003D01*
X170608065Y-111299996D01*
X170587869Y-111120750D01*
X170587868Y-111120745D01*
X170582165Y-111104447D01*
X170528289Y-110950478D01*
X170527688Y-110949522D01*
X170432315Y-110797737D01*
X170304762Y-110670184D01*
X170152023Y-110574211D01*
X169981754Y-110514631D01*
X169981749Y-110514630D01*
X169802504Y-110494435D01*
X169802496Y-110494435D01*
X169623250Y-110514630D01*
X169623245Y-110514631D01*
X169452976Y-110574211D01*
X169300237Y-110670184D01*
X169172684Y-110797737D01*
X169076711Y-110950476D01*
X169017131Y-111120745D01*
X169017130Y-111120750D01*
X168996935Y-111299996D01*
X168996935Y-111300003D01*
X164432081Y-111300003D01*
X164402262Y-111270184D01*
X164338017Y-111229816D01*
X164249523Y-111174211D01*
X164079254Y-111114631D01*
X164079249Y-111114630D01*
X163900004Y-111094435D01*
X163899996Y-111094435D01*
X163720750Y-111114630D01*
X163720737Y-111114633D01*
X163550480Y-111174209D01*
X163515970Y-111195893D01*
X163448733Y-111214892D01*
X163384030Y-111195893D01*
X163349519Y-111174209D01*
X163179262Y-111114633D01*
X163179249Y-111114630D01*
X163000004Y-111094435D01*
X162999996Y-111094435D01*
X162820750Y-111114630D01*
X162820737Y-111114633D01*
X162650480Y-111174209D01*
X162615970Y-111195893D01*
X162548733Y-111214892D01*
X162484030Y-111195893D01*
X162449519Y-111174209D01*
X162279262Y-111114633D01*
X162279249Y-111114630D01*
X162100004Y-111094435D01*
X162099996Y-111094435D01*
X161920750Y-111114630D01*
X161920737Y-111114633D01*
X161743906Y-111176510D01*
X161743155Y-111174364D01*
X161684856Y-111183962D01*
X161656409Y-111175609D01*
X161656094Y-111176510D01*
X161479262Y-111114633D01*
X161479249Y-111114630D01*
X161300004Y-111094435D01*
X161299996Y-111094435D01*
X161120750Y-111114630D01*
X161120737Y-111114633D01*
X160943906Y-111176510D01*
X160943155Y-111174364D01*
X160884856Y-111183962D01*
X160856409Y-111175609D01*
X160856094Y-111176510D01*
X160679262Y-111114633D01*
X160679249Y-111114630D01*
X160500004Y-111094435D01*
X160499996Y-111094435D01*
X160320750Y-111114630D01*
X160320745Y-111114631D01*
X160150476Y-111174211D01*
X159997737Y-111270184D01*
X159870184Y-111397737D01*
X159774211Y-111550476D01*
X159714631Y-111720745D01*
X159714630Y-111720750D01*
X159694435Y-111899996D01*
X159694435Y-111900003D01*
X159714630Y-112079249D01*
X159714633Y-112079262D01*
X159776510Y-112256094D01*
X159774364Y-112256844D01*
X159783962Y-112315144D01*
X159775609Y-112343590D01*
X159776510Y-112343906D01*
X159714633Y-112520737D01*
X159714630Y-112520750D01*
X159694435Y-112699996D01*
X159694435Y-112700003D01*
X159714630Y-112879249D01*
X159714633Y-112879262D01*
X159774209Y-113049520D01*
X159791065Y-113076346D01*
X159810065Y-113143583D01*
X159795981Y-113199727D01*
X159766090Y-113256951D01*
X159766090Y-113256952D01*
X159747003Y-113323661D01*
X159715245Y-113434652D01*
X159710114Y-113452583D01*
X159710113Y-113452586D01*
X159707617Y-113480665D01*
X159699501Y-113571961D01*
X159699500Y-113571967D01*
X159699500Y-114688028D01*
X159699501Y-114688034D01*
X159710113Y-114807415D01*
X159766089Y-115003045D01*
X159766090Y-115003048D01*
X159766091Y-115003049D01*
X159860302Y-115183407D01*
X159894977Y-115225933D01*
X159988890Y-115341109D01*
X160082803Y-115417684D01*
X160146593Y-115469698D01*
X160326951Y-115563909D01*
X160522582Y-115619886D01*
X160641963Y-115630500D01*
X161325499Y-115630499D01*
X161392538Y-115650183D01*
X161438293Y-115702987D01*
X161449499Y-115754499D01*
X161449499Y-118887460D01*
X161429814Y-118954499D01*
X161380594Y-118998548D01*
X161250704Y-119062967D01*
X161102280Y-119182274D01*
X161102278Y-119182276D01*
X161094808Y-119191569D01*
X161046646Y-119251485D01*
X160989302Y-119291403D01*
X160919480Y-119293983D01*
X160859347Y-119258404D01*
X160853352Y-119251484D01*
X160797722Y-119182277D01*
X160797721Y-119182276D01*
X160649295Y-119062968D01*
X160649292Y-119062966D01*
X160478697Y-118978359D01*
X160293892Y-118932399D01*
X160268229Y-118930659D01*
X160251123Y-118929499D01*
X160251121Y-118929499D01*
X159412230Y-118929499D01*
X159345191Y-118909814D01*
X159324553Y-118893184D01*
X159248417Y-118817048D01*
X159248416Y-118817047D01*
X159248415Y-118817046D01*
X159174730Y-118767812D01*
X159174730Y-118767813D01*
X159125492Y-118734913D01*
X158988916Y-118678342D01*
X158988910Y-118678340D01*
X158922550Y-118665140D01*
X158860639Y-118632754D01*
X158843643Y-118612416D01*
X158832186Y-118595270D01*
X158832185Y-118595268D01*
X158782956Y-118521589D01*
X158782952Y-118521584D01*
X158686819Y-118425451D01*
X158653334Y-118364128D01*
X158650500Y-118337770D01*
X158650500Y-107426079D01*
X158621659Y-107281092D01*
X158621658Y-107281091D01*
X158621658Y-107281087D01*
X158607882Y-107247829D01*
X158565087Y-107144511D01*
X158565080Y-107144498D01*
X158482952Y-107021585D01*
X158433734Y-106972367D01*
X158378416Y-106917049D01*
X158253306Y-106791938D01*
X158230648Y-106755868D01*
X158228812Y-106756753D01*
X158225792Y-106750483D01*
X158208016Y-106722192D01*
X158129816Y-106597738D01*
X158002262Y-106470184D01*
X157933386Y-106426906D01*
X157849523Y-106374211D01*
X157679254Y-106314631D01*
X157679249Y-106314630D01*
X157500004Y-106294435D01*
X157499996Y-106294435D01*
X157320750Y-106314630D01*
X157320745Y-106314631D01*
X157150476Y-106374211D01*
X156997737Y-106470184D01*
X156870184Y-106597737D01*
X156774211Y-106750476D01*
X156714631Y-106920745D01*
X156714630Y-106920750D01*
X156694435Y-107099996D01*
X156694435Y-107100003D01*
X156714630Y-107279249D01*
X156714631Y-107279254D01*
X156774211Y-107449523D01*
X156870184Y-107602262D01*
X156997740Y-107729818D01*
X157091471Y-107788712D01*
X157137763Y-107841046D01*
X157149500Y-107893706D01*
X157149500Y-113818841D01*
X157129815Y-113885880D01*
X157077011Y-113931635D01*
X157007853Y-113941579D01*
X156944297Y-113912554D01*
X156934770Y-113902631D01*
X156934740Y-113902662D01*
X156802262Y-113770184D01*
X156649521Y-113674210D01*
X156479249Y-113614630D01*
X156374275Y-113602802D01*
X156340708Y-113594144D01*
X156287245Y-113571999D01*
X156287179Y-113571986D01*
X156287063Y-113571963D01*
X156281547Y-113570865D01*
X156279935Y-113570545D01*
X156218026Y-113538155D01*
X156183456Y-113477437D01*
X156185749Y-113412041D01*
X156214452Y-113319933D01*
X156220500Y-113253381D01*
X156220499Y-112751620D01*
X156220499Y-112751619D01*
X156220499Y-112751611D01*
X156214453Y-112685073D01*
X156214452Y-112685070D01*
X156214452Y-112685067D01*
X156166733Y-112531931D01*
X156136333Y-112481643D01*
X156083757Y-112394670D01*
X156079131Y-112388766D01*
X156081086Y-112387233D01*
X156053334Y-112336408D01*
X156050500Y-112310050D01*
X156050500Y-112305067D01*
X156069507Y-112239094D01*
X156125788Y-112149524D01*
X156141170Y-112105565D01*
X156185368Y-111979255D01*
X156185369Y-111979249D01*
X156205565Y-111800003D01*
X156205565Y-111799996D01*
X156185369Y-111620750D01*
X156185368Y-111620745D01*
X156163271Y-111557595D01*
X156125789Y-111450478D01*
X156029816Y-111297738D01*
X155902262Y-111170184D01*
X155893722Y-111164818D01*
X155749523Y-111074211D01*
X155579254Y-111014631D01*
X155579249Y-111014630D01*
X155400004Y-110994435D01*
X155399996Y-110994435D01*
X155220750Y-111014630D01*
X155220745Y-111014631D01*
X155050476Y-111074211D01*
X154915972Y-111158727D01*
X154848736Y-111177727D01*
X154784028Y-111158727D01*
X154649523Y-111074211D01*
X154479254Y-111014631D01*
X154479249Y-111014630D01*
X154300004Y-110994435D01*
X154299996Y-110994435D01*
X154120750Y-111014630D01*
X154120745Y-111014631D01*
X153950476Y-111074211D01*
X153815972Y-111158727D01*
X153748736Y-111177727D01*
X153684028Y-111158727D01*
X153549523Y-111074211D01*
X153379254Y-111014631D01*
X153379249Y-111014630D01*
X153200004Y-110994435D01*
X153199996Y-110994435D01*
X153020750Y-111014630D01*
X153020737Y-111014633D01*
X152850478Y-111074210D01*
X152794567Y-111109341D01*
X152727330Y-111128341D01*
X152678162Y-111117627D01*
X152620831Y-111092102D01*
X152620826Y-111092100D01*
X152491422Y-111064595D01*
X152445952Y-111054930D01*
X152267170Y-111054930D01*
X152236515Y-111061445D01*
X152092294Y-111092100D01*
X152092289Y-111092102D01*
X151928969Y-111164817D01*
X151784329Y-111269905D01*
X151664701Y-111402766D01*
X151575311Y-111557594D01*
X151575308Y-111557601D01*
X151519508Y-111729337D01*
X151480070Y-111787013D01*
X151415712Y-111814211D01*
X151346865Y-111802296D01*
X151295390Y-111755052D01*
X151282768Y-111723081D01*
X151282346Y-111723219D01*
X151225093Y-111547012D01*
X151225090Y-111547006D01*
X151185974Y-111479255D01*
X151135700Y-111392177D01*
X151075923Y-111325788D01*
X151016076Y-111259320D01*
X151016073Y-111259318D01*
X151016072Y-111259317D01*
X151016071Y-111259316D01*
X150871434Y-111154230D01*
X150708108Y-111081513D01*
X150708106Y-111081512D01*
X150580435Y-111054375D01*
X150533232Y-111044342D01*
X150354450Y-111044342D01*
X150335989Y-111048266D01*
X150179574Y-111081512D01*
X150053185Y-111137785D01*
X149983935Y-111147069D01*
X149920659Y-111117441D01*
X149883446Y-111058306D01*
X149878750Y-111024505D01*
X149878750Y-108823808D01*
X149878750Y-108823806D01*
X149839309Y-108676611D01*
X149830032Y-108660544D01*
X149813560Y-108592645D01*
X149830032Y-108536545D01*
X149881250Y-108447835D01*
X149936497Y-108277803D01*
X149955185Y-108100000D01*
X149936497Y-107922197D01*
X149881250Y-107752165D01*
X149791859Y-107597335D01*
X149736201Y-107535521D01*
X149672235Y-107464478D01*
X149672232Y-107464476D01*
X149672231Y-107464475D01*
X149672230Y-107464474D01*
X149527593Y-107359388D01*
X149364267Y-107286671D01*
X149364265Y-107286670D01*
X149236594Y-107259533D01*
X149189391Y-107249500D01*
X149010609Y-107249500D01*
X148979954Y-107256015D01*
X148835733Y-107286670D01*
X148835728Y-107286672D01*
X148672408Y-107359387D01*
X148527768Y-107464475D01*
X148408140Y-107597336D01*
X148318750Y-107752164D01*
X148318747Y-107752170D01*
X148263504Y-107922192D01*
X148263503Y-107922194D01*
X148244815Y-108100000D01*
X148263503Y-108277805D01*
X148263504Y-108277807D01*
X148318747Y-108447829D01*
X148318750Y-108447835D01*
X148408139Y-108602662D01*
X148408139Y-108602663D01*
X148489400Y-108692912D01*
X148519630Y-108755903D01*
X148521250Y-108775884D01*
X148521250Y-108776194D01*
X148547514Y-108874211D01*
X148560691Y-108923390D01*
X148560692Y-108923391D01*
X148611931Y-109012140D01*
X148636886Y-109055362D01*
X148684931Y-109103407D01*
X148718416Y-109164730D01*
X148721250Y-109191088D01*
X148721250Y-110981227D01*
X148701565Y-111048266D01*
X148648761Y-111094021D01*
X148611134Y-111104447D01*
X148520749Y-111114630D01*
X148520737Y-111114633D01*
X148350479Y-111174209D01*
X148265971Y-111227309D01*
X148198734Y-111246309D01*
X148134029Y-111227309D01*
X148049520Y-111174209D01*
X147879262Y-111114633D01*
X147879249Y-111114630D01*
X147700004Y-111094435D01*
X147699996Y-111094435D01*
X147520750Y-111114630D01*
X147520737Y-111114633D01*
X147350479Y-111174209D01*
X147265971Y-111227309D01*
X147198734Y-111246309D01*
X147134029Y-111227309D01*
X147049520Y-111174209D01*
X146879262Y-111114633D01*
X146879249Y-111114630D01*
X146700004Y-111094435D01*
X146699996Y-111094435D01*
X146520750Y-111114630D01*
X146520745Y-111114631D01*
X146350476Y-111174211D01*
X146197737Y-111270184D01*
X146070184Y-111397737D01*
X145974211Y-111550476D01*
X145914631Y-111720745D01*
X145914630Y-111720750D01*
X145894435Y-111899996D01*
X145894435Y-111900003D01*
X145914630Y-112079249D01*
X145914631Y-112079254D01*
X145974212Y-112249525D01*
X145999690Y-112290074D01*
X146018690Y-112357311D01*
X146000813Y-112420194D01*
X145933267Y-112531929D01*
X145933265Y-112531933D01*
X145885548Y-112685065D01*
X145879500Y-112751621D01*
X145879500Y-113253388D01*
X145885546Y-113319925D01*
X145885547Y-113319930D01*
X145885548Y-113319933D01*
X145914250Y-113412041D01*
X145915400Y-113481899D01*
X145878599Y-113541292D01*
X145820064Y-113570545D01*
X145812948Y-113571960D01*
X145812937Y-113571963D01*
X145812874Y-113571975D01*
X145812758Y-113571998D01*
X145812747Y-113572002D01*
X145759287Y-113594145D01*
X145725721Y-113602803D01*
X145620750Y-113614630D01*
X145450478Y-113674210D01*
X145297737Y-113770184D01*
X145170184Y-113897737D01*
X145074211Y-114050476D01*
X145014631Y-114220745D01*
X145014630Y-114220750D01*
X144994435Y-114399996D01*
X144994435Y-114400003D01*
X145014630Y-114579249D01*
X145014631Y-114579254D01*
X145074211Y-114749523D01*
X145158498Y-114883664D01*
X145170184Y-114902262D01*
X145297738Y-115029816D01*
X145450478Y-115125789D01*
X145620745Y-115185368D01*
X145620750Y-115185369D01*
X145799996Y-115205565D01*
X145800000Y-115205565D01*
X145800004Y-115205565D01*
X145979249Y-115185369D01*
X145979252Y-115185368D01*
X145979255Y-115185368D01*
X146149522Y-115125789D01*
X146272078Y-115048781D01*
X146339314Y-115029781D01*
X146374941Y-115035390D01*
X146420067Y-115049452D01*
X146486619Y-115055500D01*
X146913380Y-115055499D01*
X146913388Y-115055499D01*
X146979925Y-115049453D01*
X146979926Y-115049452D01*
X146979933Y-115049452D01*
X147133069Y-115001733D01*
X147135843Y-115000055D01*
X147138151Y-114999446D01*
X147139909Y-114998655D01*
X147140040Y-114998947D01*
X147203395Y-114982214D01*
X147260008Y-114998837D01*
X147260091Y-114998655D01*
X147261412Y-114999249D01*
X147264155Y-115000055D01*
X147266931Y-115001733D01*
X147420067Y-115049452D01*
X147486619Y-115055500D01*
X147913380Y-115055499D01*
X147913388Y-115055499D01*
X147979925Y-115049453D01*
X147979926Y-115049452D01*
X147979933Y-115049452D01*
X148133069Y-115001733D01*
X148135843Y-115000055D01*
X148138151Y-114999446D01*
X148139909Y-114998655D01*
X148140040Y-114998947D01*
X148203395Y-114982214D01*
X148260008Y-114998837D01*
X148260091Y-114998655D01*
X148261412Y-114999249D01*
X148264155Y-115000055D01*
X148266931Y-115001733D01*
X148420067Y-115049452D01*
X148486619Y-115055500D01*
X148913380Y-115055499D01*
X148913388Y-115055499D01*
X148979926Y-115049453D01*
X148979927Y-115049452D01*
X148979933Y-115049452D01*
X149133069Y-115001733D01*
X149270335Y-114918753D01*
X149270346Y-114918741D01*
X149273515Y-114916260D01*
X149276287Y-114915155D01*
X149276755Y-114914873D01*
X149276801Y-114914950D01*
X149338424Y-114890403D01*
X149407009Y-114903744D01*
X149426485Y-114916260D01*
X149429657Y-114918745D01*
X149429665Y-114918753D01*
X149429672Y-114918757D01*
X149429676Y-114918760D01*
X149566929Y-115001732D01*
X149566933Y-115001734D01*
X149615276Y-115016798D01*
X149720067Y-115049452D01*
X149786619Y-115055500D01*
X150213380Y-115055499D01*
X150213388Y-115055499D01*
X150279926Y-115049453D01*
X150279927Y-115049452D01*
X150279933Y-115049452D01*
X150433069Y-115001733D01*
X150482547Y-114971822D01*
X150550100Y-114953986D01*
X150616574Y-114975503D01*
X150652234Y-115012841D01*
X150677031Y-115053043D01*
X150796955Y-115172967D01*
X150796959Y-115172970D01*
X150941294Y-115261998D01*
X150941297Y-115261999D01*
X150941303Y-115262003D01*
X151102292Y-115315349D01*
X151201655Y-115325500D01*
X151798344Y-115325499D01*
X151798352Y-115325498D01*
X151798355Y-115325498D01*
X151852760Y-115319940D01*
X151897708Y-115315349D01*
X152058697Y-115262003D01*
X152203044Y-115172968D01*
X152322968Y-115053044D01*
X152385300Y-114951989D01*
X152408876Y-114913767D01*
X152460824Y-114867042D01*
X152529786Y-114855821D01*
X152593868Y-114883664D01*
X152602095Y-114891183D01*
X152629665Y-114918753D01*
X152629670Y-114918757D01*
X152766929Y-115001732D01*
X152766933Y-115001734D01*
X152815276Y-115016798D01*
X152920067Y-115049452D01*
X152986619Y-115055500D01*
X153413380Y-115055499D01*
X153413388Y-115055499D01*
X153479926Y-115049453D01*
X153479927Y-115049452D01*
X153479933Y-115049452D01*
X153633069Y-115001733D01*
X153685851Y-114969824D01*
X153753404Y-114951989D01*
X153814148Y-114969824D01*
X153866931Y-115001733D01*
X153866934Y-115001734D01*
X153866933Y-115001734D01*
X153915276Y-115016798D01*
X154020067Y-115049452D01*
X154086619Y-115055500D01*
X154513380Y-115055499D01*
X154513388Y-115055499D01*
X154579926Y-115049453D01*
X154579927Y-115049452D01*
X154579933Y-115049452D01*
X154733069Y-115001733D01*
X154785851Y-114969824D01*
X154853404Y-114951989D01*
X154914148Y-114969824D01*
X154966931Y-115001733D01*
X154966934Y-115001734D01*
X154966933Y-115001734D01*
X155015276Y-115016798D01*
X155120067Y-115049452D01*
X155186619Y-115055500D01*
X155613380Y-115055499D01*
X155613388Y-115055499D01*
X155679928Y-115049453D01*
X155679930Y-115049452D01*
X155679933Y-115049452D01*
X155725058Y-115035389D01*
X155794916Y-115034238D01*
X155827920Y-115048781D01*
X155950476Y-115125788D01*
X155950478Y-115125789D01*
X156120745Y-115185368D01*
X156120750Y-115185369D01*
X156299996Y-115205565D01*
X156300000Y-115205565D01*
X156300004Y-115205565D01*
X156479249Y-115185369D01*
X156479252Y-115185368D01*
X156479255Y-115185368D01*
X156649522Y-115125789D01*
X156802262Y-115029816D01*
X156929816Y-114902262D01*
X156929816Y-114902261D01*
X156934740Y-114897338D01*
X156936011Y-114898609D01*
X156985740Y-114863705D01*
X157055552Y-114860855D01*
X157115822Y-114896200D01*
X157147416Y-114958518D01*
X157149500Y-114981158D01*
X157149500Y-118525500D01*
X157129815Y-118592539D01*
X157077011Y-118638294D01*
X157025500Y-118649500D01*
X154562229Y-118649500D01*
X154495190Y-118629815D01*
X154474548Y-118613181D01*
X153778421Y-117917052D01*
X153778414Y-117917046D01*
X153704729Y-117867812D01*
X153704729Y-117867813D01*
X153655491Y-117834913D01*
X153518917Y-117778343D01*
X153518907Y-117778340D01*
X153373920Y-117749500D01*
X153373918Y-117749500D01*
X142565954Y-117749500D01*
X142498915Y-117729815D01*
X142489842Y-117722504D01*
X142489645Y-117722768D01*
X142367335Y-117631206D01*
X142367328Y-117631202D01*
X142232482Y-117580908D01*
X142232483Y-117580908D01*
X142172883Y-117574501D01*
X142172881Y-117574500D01*
X142172873Y-117574500D01*
X142172865Y-117574500D01*
X141574500Y-117574500D01*
X141507461Y-117554815D01*
X141461706Y-117502011D01*
X141450500Y-117450500D01*
X141450500Y-109481940D01*
X141470185Y-109414901D01*
X141522989Y-109369146D01*
X141592147Y-109359202D01*
X141655703Y-109388227D01*
X141662181Y-109394259D01*
X141730623Y-109462701D01*
X141883363Y-109558674D01*
X142046551Y-109615776D01*
X142053630Y-109618253D01*
X142053635Y-109618254D01*
X142232881Y-109638450D01*
X142232885Y-109638450D01*
X142232889Y-109638450D01*
X142412134Y-109618254D01*
X142412137Y-109618253D01*
X142412140Y-109618253D01*
X142582407Y-109558674D01*
X142735147Y-109462701D01*
X142862701Y-109335147D01*
X142958674Y-109182407D01*
X143018253Y-109012140D01*
X143018254Y-109012134D01*
X143038450Y-108832888D01*
X143038450Y-108832881D01*
X143018254Y-108653635D01*
X143018253Y-108653630D01*
X143007817Y-108623806D01*
X142958674Y-108483363D01*
X142936346Y-108447829D01*
X142862700Y-108330622D01*
X142847954Y-108315876D01*
X142814469Y-108254553D01*
X142811635Y-108228195D01*
X142811635Y-107666920D01*
X142830642Y-107600948D01*
X142925787Y-107449526D01*
X142925788Y-107449523D01*
X142925789Y-107449522D01*
X142985368Y-107279255D01*
X143000551Y-107144505D01*
X143005565Y-107100003D01*
X143005565Y-107099996D01*
X142985369Y-106920750D01*
X142985368Y-106920745D01*
X142978109Y-106900000D01*
X153886565Y-106900000D01*
X153905253Y-107077805D01*
X153905254Y-107077807D01*
X153960497Y-107247829D01*
X153960500Y-107247835D01*
X154049891Y-107402665D01*
X154070976Y-107426082D01*
X154169514Y-107535521D01*
X154169517Y-107535523D01*
X154169520Y-107535526D01*
X154314157Y-107640612D01*
X154477483Y-107713329D01*
X154652359Y-107750500D01*
X154652360Y-107750500D01*
X154831139Y-107750500D01*
X154831141Y-107750500D01*
X155006017Y-107713329D01*
X155169343Y-107640612D01*
X155313980Y-107535526D01*
X155433609Y-107402665D01*
X155523000Y-107247835D01*
X155578247Y-107077803D01*
X155584738Y-107016036D01*
X155611321Y-106951423D01*
X155620369Y-106941325D01*
X157761693Y-104800003D01*
X166894435Y-104800003D01*
X166914630Y-104979249D01*
X166914631Y-104979254D01*
X166974211Y-105149523D01*
X166996735Y-105185369D01*
X167070184Y-105302262D01*
X167197738Y-105429816D01*
X167350478Y-105525789D01*
X167520745Y-105585368D01*
X167520750Y-105585369D01*
X167699996Y-105605565D01*
X167700000Y-105605565D01*
X167700004Y-105605565D01*
X167879249Y-105585369D01*
X167879252Y-105585368D01*
X167879255Y-105585368D01*
X168049522Y-105525789D01*
X168202262Y-105429816D01*
X168329816Y-105302262D01*
X168425789Y-105149522D01*
X168485368Y-104979255D01*
X168505565Y-104800000D01*
X168485368Y-104620745D01*
X168425789Y-104450478D01*
X168425406Y-104449869D01*
X168351026Y-104331494D01*
X168329816Y-104297738D01*
X168202262Y-104170184D01*
X168131608Y-104125789D01*
X168049523Y-104074211D01*
X167879254Y-104014631D01*
X167879249Y-104014630D01*
X167700004Y-103994435D01*
X167699996Y-103994435D01*
X167520750Y-104014630D01*
X167520745Y-104014631D01*
X167350476Y-104074211D01*
X167197737Y-104170184D01*
X167070184Y-104297737D01*
X166974211Y-104450476D01*
X166914631Y-104620745D01*
X166914630Y-104620750D01*
X166894435Y-104799996D01*
X166894435Y-104800003D01*
X157761693Y-104800003D01*
X158005277Y-104556419D01*
X158076466Y-104449876D01*
X158125501Y-104331493D01*
X158137915Y-104269083D01*
X158150500Y-104205821D01*
X158150500Y-103720807D01*
X158170185Y-103653768D01*
X158186815Y-103633130D01*
X158462802Y-103357142D01*
X158524123Y-103323659D01*
X158593814Y-103328643D01*
X158649748Y-103370514D01*
X158655474Y-103378852D01*
X158670182Y-103402259D01*
X158670184Y-103402262D01*
X158797738Y-103529816D01*
X158860904Y-103569506D01*
X158943903Y-103621658D01*
X158950478Y-103625789D01*
X159120739Y-103685366D01*
X159120745Y-103685368D01*
X159120750Y-103685369D01*
X159299996Y-103705565D01*
X159300000Y-103705565D01*
X159300004Y-103705565D01*
X159479249Y-103685369D01*
X159479251Y-103685368D01*
X159479255Y-103685368D01*
X159479258Y-103685366D01*
X159479262Y-103685366D01*
X159581760Y-103649500D01*
X159649522Y-103625789D01*
X159739096Y-103569505D01*
X159805068Y-103550500D01*
X166464071Y-103550500D01*
X166548615Y-103533682D01*
X166589744Y-103525501D01*
X166708127Y-103476465D01*
X166737531Y-103456818D01*
X166814669Y-103405277D01*
X170438092Y-99781853D01*
X170499413Y-99748370D01*
X170499477Y-99748356D01*
X170664267Y-99713329D01*
X170827593Y-99640612D01*
X170972230Y-99535526D01*
X171091859Y-99402665D01*
X171181250Y-99247835D01*
X171236497Y-99077803D01*
X171255185Y-98900000D01*
X171236497Y-98722197D01*
X171195079Y-98594726D01*
X171181252Y-98552170D01*
X171181249Y-98552164D01*
X171091859Y-98397335D01*
X170972230Y-98264474D01*
X170940848Y-98241673D01*
X170898184Y-98186344D01*
X170892206Y-98116730D01*
X170895805Y-98103039D01*
X170936497Y-97977803D01*
X170955185Y-97800000D01*
X170936497Y-97622197D01*
X170900732Y-97512125D01*
X170881252Y-97452170D01*
X170881249Y-97452164D01*
X170791859Y-97297335D01*
X170745003Y-97245296D01*
X170672235Y-97164478D01*
X170672232Y-97164476D01*
X170672231Y-97164475D01*
X170672230Y-97164474D01*
X170527593Y-97059388D01*
X170364267Y-96986671D01*
X170364265Y-96986670D01*
X170236594Y-96959533D01*
X170189391Y-96949500D01*
X170010609Y-96949500D01*
X169979954Y-96956015D01*
X169835733Y-96986670D01*
X169835728Y-96986672D01*
X169672408Y-97059387D01*
X169527768Y-97164475D01*
X169408140Y-97297336D01*
X169318750Y-97452164D01*
X169318747Y-97452170D01*
X169263504Y-97622192D01*
X169263503Y-97622194D01*
X169257011Y-97683963D01*
X169230425Y-97748577D01*
X169221371Y-97758681D01*
X166066873Y-100913181D01*
X166005550Y-100946666D01*
X165979192Y-100949500D01*
X159235929Y-100949500D01*
X159110261Y-100974497D01*
X159110255Y-100974499D01*
X158991870Y-101023535D01*
X158885331Y-101094722D01*
X158885324Y-101094728D01*
X156994726Y-102985326D01*
X156994723Y-102985331D01*
X156951180Y-103050500D01*
X156946959Y-103056817D01*
X156946957Y-103056819D01*
X156923539Y-103091864D01*
X156923533Y-103091875D01*
X156874499Y-103210255D01*
X156874497Y-103210261D01*
X156849500Y-103335928D01*
X156849500Y-103820942D01*
X156829815Y-103887981D01*
X156813181Y-103908623D01*
X154703659Y-106018144D01*
X154642336Y-106051629D01*
X154641759Y-106051753D01*
X154477483Y-106086670D01*
X154477478Y-106086672D01*
X154314158Y-106159387D01*
X154169518Y-106264475D01*
X154049890Y-106397336D01*
X153960500Y-106552164D01*
X153960497Y-106552170D01*
X153905254Y-106722192D01*
X153905253Y-106722194D01*
X153886565Y-106900000D01*
X142978109Y-106900000D01*
X142933294Y-106771926D01*
X142925789Y-106750478D01*
X142829816Y-106597738D01*
X142702262Y-106470184D01*
X142633386Y-106426906D01*
X142549523Y-106374211D01*
X142379254Y-106314631D01*
X142379249Y-106314630D01*
X142200004Y-106294435D01*
X142199996Y-106294435D01*
X142020750Y-106314630D01*
X142020745Y-106314631D01*
X141850476Y-106374211D01*
X141697737Y-106470184D01*
X141662181Y-106505741D01*
X141600858Y-106539226D01*
X141531166Y-106534242D01*
X141475233Y-106492370D01*
X141450816Y-106426906D01*
X141450500Y-106418060D01*
X141450500Y-104026079D01*
X141421659Y-103881092D01*
X141421658Y-103881091D01*
X141421658Y-103881087D01*
X141386128Y-103795310D01*
X141365087Y-103744511D01*
X141365085Y-103744507D01*
X141365084Y-103744505D01*
X141349250Y-103720807D01*
X141329787Y-103691679D01*
X141308909Y-103625002D01*
X141327393Y-103557622D01*
X141379372Y-103510931D01*
X141446773Y-103499568D01*
X141499997Y-103505565D01*
X141500000Y-103505565D01*
X141500004Y-103505565D01*
X141679249Y-103485369D01*
X141679252Y-103485368D01*
X141679255Y-103485368D01*
X141849522Y-103425789D01*
X142002262Y-103329816D01*
X142058068Y-103274009D01*
X142113660Y-103241915D01*
X142123389Y-103239309D01*
X142255361Y-103163115D01*
X144584870Y-100833604D01*
X144646191Y-100800121D01*
X144715883Y-100805105D01*
X144771816Y-100846977D01*
X144796233Y-100912441D01*
X144781381Y-100980714D01*
X144772169Y-100994578D01*
X144674211Y-101150476D01*
X144614631Y-101320745D01*
X144614630Y-101320750D01*
X144594435Y-101499996D01*
X144594435Y-101500003D01*
X144614631Y-101679252D01*
X144637536Y-101744712D01*
X144641097Y-101814491D01*
X144608175Y-101873347D01*
X144344639Y-102136885D01*
X144236886Y-102244637D01*
X144160692Y-102376608D01*
X144160691Y-102376609D01*
X144150852Y-102413329D01*
X144121250Y-102523806D01*
X144121250Y-102523808D01*
X144121250Y-102795310D01*
X144101565Y-102862349D01*
X144084931Y-102882991D01*
X144070184Y-102897737D01*
X143974211Y-103050476D01*
X143914631Y-103220745D01*
X143914630Y-103220750D01*
X143894435Y-103399996D01*
X143894435Y-103400003D01*
X143914630Y-103579249D01*
X143914631Y-103579254D01*
X143974211Y-103749523D01*
X144019087Y-103820942D01*
X144070184Y-103902262D01*
X144197738Y-104029816D01*
X144350478Y-104125789D01*
X144477352Y-104170184D01*
X144521568Y-104185656D01*
X144578344Y-104226378D01*
X144604091Y-104291331D01*
X144603833Y-104316581D01*
X144594435Y-104399995D01*
X144594435Y-104400003D01*
X144614630Y-104579249D01*
X144614631Y-104579254D01*
X144674211Y-104749523D01*
X144705926Y-104799996D01*
X144770184Y-104902262D01*
X144897738Y-105029816D01*
X145050478Y-105125789D01*
X145118306Y-105149523D01*
X145220745Y-105185368D01*
X145220750Y-105185369D01*
X145399996Y-105205565D01*
X145400000Y-105205565D01*
X145400004Y-105205565D01*
X145579249Y-105185369D01*
X145579252Y-105185368D01*
X145579255Y-105185368D01*
X145749522Y-105125789D01*
X145902262Y-105029816D01*
X146029816Y-104902262D01*
X146125789Y-104749522D01*
X146185368Y-104579255D01*
X146185369Y-104579249D01*
X146205565Y-104400003D01*
X146205565Y-104399996D01*
X146185369Y-104220750D01*
X146185368Y-104220745D01*
X146145065Y-104105565D01*
X146125789Y-104050478D01*
X146103265Y-104014632D01*
X146049971Y-103929815D01*
X146029816Y-103897738D01*
X146015069Y-103882991D01*
X145981584Y-103821668D01*
X145978750Y-103795310D01*
X145978750Y-103300003D01*
X150394435Y-103300003D01*
X150414630Y-103479249D01*
X150414631Y-103479254D01*
X150474211Y-103649523D01*
X150537045Y-103749522D01*
X150570184Y-103802262D01*
X150697738Y-103929816D01*
X150788080Y-103986582D01*
X150832721Y-104014632D01*
X150850478Y-104025789D01*
X150988860Y-104074211D01*
X151020745Y-104085368D01*
X151020750Y-104085369D01*
X151199996Y-104105565D01*
X151200000Y-104105565D01*
X151200004Y-104105565D01*
X151379249Y-104085369D01*
X151379252Y-104085368D01*
X151379255Y-104085368D01*
X151549522Y-104025789D01*
X151702262Y-103929816D01*
X151829816Y-103802262D01*
X151925789Y-103649522D01*
X151985368Y-103479255D01*
X151985369Y-103479249D01*
X152005565Y-103300003D01*
X152005565Y-103299996D01*
X151985369Y-103120750D01*
X151985368Y-103120745D01*
X151960788Y-103050499D01*
X151925789Y-102950478D01*
X151829816Y-102797738D01*
X151702262Y-102670184D01*
X151549523Y-102574211D01*
X151379254Y-102514631D01*
X151379249Y-102514630D01*
X151200004Y-102494435D01*
X151199996Y-102494435D01*
X151020750Y-102514630D01*
X151020745Y-102514631D01*
X150850476Y-102574211D01*
X150697737Y-102670184D01*
X150570184Y-102797737D01*
X150474211Y-102950476D01*
X150414631Y-103120745D01*
X150414630Y-103120750D01*
X150394435Y-103299996D01*
X150394435Y-103300003D01*
X145978750Y-103300003D01*
X145978750Y-103202607D01*
X145998435Y-103135568D01*
X146015065Y-103114930D01*
X146875678Y-102254316D01*
X146936999Y-102220833D01*
X147006690Y-102225817D01*
X147036243Y-102241682D01*
X147172401Y-102340608D01*
X147172402Y-102340609D01*
X147172404Y-102340610D01*
X147172407Y-102340612D01*
X147335733Y-102413329D01*
X147510609Y-102450500D01*
X147510610Y-102450500D01*
X147689389Y-102450500D01*
X147689391Y-102450500D01*
X147864267Y-102413329D01*
X148027593Y-102340612D01*
X148172230Y-102235526D01*
X148186411Y-102219777D01*
X148245898Y-102183129D01*
X148278560Y-102178750D01*
X151076191Y-102178750D01*
X151076194Y-102178750D01*
X151223389Y-102139309D01*
X151355361Y-102063115D01*
X152298401Y-101120073D01*
X152359722Y-101086590D01*
X152429413Y-101091574D01*
X152485347Y-101133445D01*
X152491074Y-101141784D01*
X152528984Y-101202117D01*
X152583526Y-101288920D01*
X152711080Y-101416474D01*
X152763641Y-101449500D01*
X152844015Y-101500003D01*
X152863820Y-101512447D01*
X153034087Y-101572026D01*
X153034092Y-101572027D01*
X153213338Y-101592223D01*
X153213342Y-101592223D01*
X153213346Y-101592223D01*
X153392591Y-101572027D01*
X153392594Y-101572026D01*
X153392597Y-101572026D01*
X153562864Y-101512447D01*
X153715604Y-101416474D01*
X153843158Y-101288920D01*
X153939131Y-101136180D01*
X153998710Y-100965913D01*
X153998872Y-100964474D01*
X154018907Y-100786661D01*
X154018907Y-100786654D01*
X153998711Y-100607408D01*
X153998710Y-100607403D01*
X153942650Y-100447194D01*
X153939131Y-100437136D01*
X153843158Y-100284396D01*
X153715604Y-100156842D01*
X153637464Y-100107743D01*
X153591174Y-100055409D01*
X153580526Y-99986355D01*
X153608901Y-99922507D01*
X153667291Y-99884135D01*
X153703437Y-99878750D01*
X154076191Y-99878750D01*
X154076194Y-99878750D01*
X154223389Y-99839309D01*
X154355361Y-99763115D01*
X154683871Y-99434603D01*
X154745191Y-99401121D01*
X154757665Y-99399067D01*
X154783955Y-99396105D01*
X154879249Y-99385369D01*
X154879252Y-99385368D01*
X154879255Y-99385368D01*
X155049522Y-99325789D01*
X155202262Y-99229816D01*
X155301858Y-99130219D01*
X155363177Y-99096737D01*
X155403420Y-99094683D01*
X155499998Y-99105565D01*
X155500000Y-99105565D01*
X155500004Y-99105565D01*
X155679249Y-99085369D01*
X155679252Y-99085368D01*
X155679255Y-99085368D01*
X155849522Y-99025789D01*
X156002262Y-98929816D01*
X156129816Y-98802262D01*
X156225789Y-98649522D01*
X156285368Y-98479255D01*
X156291464Y-98425156D01*
X156300982Y-98340679D01*
X156305565Y-98300000D01*
X156305564Y-98299998D01*
X156305879Y-98297211D01*
X156332945Y-98232797D01*
X156390540Y-98193242D01*
X156442982Y-98187874D01*
X156599996Y-98205565D01*
X156600000Y-98205565D01*
X156600004Y-98205565D01*
X156779249Y-98185369D01*
X156779252Y-98185368D01*
X156779255Y-98185368D01*
X156949522Y-98125789D01*
X157102262Y-98029816D01*
X157229816Y-97902262D01*
X157325789Y-97749522D01*
X157385368Y-97579255D01*
X157385369Y-97579249D01*
X157405565Y-97400003D01*
X157405565Y-97399996D01*
X157385369Y-97220750D01*
X157385368Y-97220745D01*
X157365335Y-97163494D01*
X157325789Y-97050478D01*
X157231239Y-96900003D01*
X159694435Y-96900003D01*
X159714630Y-97079249D01*
X159714631Y-97079254D01*
X159774211Y-97249523D01*
X159864776Y-97393655D01*
X159870184Y-97402262D01*
X159997738Y-97529816D01*
X160011904Y-97538717D01*
X160144756Y-97622194D01*
X160150478Y-97625789D01*
X160316730Y-97683963D01*
X160320745Y-97685368D01*
X160320750Y-97685369D01*
X160499996Y-97705565D01*
X160500000Y-97705565D01*
X160500004Y-97705565D01*
X160679249Y-97685369D01*
X160679252Y-97685368D01*
X160679255Y-97685368D01*
X160849522Y-97625789D01*
X161002262Y-97529816D01*
X161129816Y-97402262D01*
X161225789Y-97249522D01*
X161285368Y-97079255D01*
X161285369Y-97079249D01*
X161305565Y-96900003D01*
X161305565Y-96899996D01*
X161285369Y-96720750D01*
X161285368Y-96720745D01*
X161230070Y-96562713D01*
X161225789Y-96550478D01*
X161129816Y-96397738D01*
X161002262Y-96270184D01*
X160978673Y-96255362D01*
X160849523Y-96174211D01*
X160679254Y-96114631D01*
X160679249Y-96114630D01*
X160500004Y-96094435D01*
X160499996Y-96094435D01*
X160320750Y-96114630D01*
X160320745Y-96114631D01*
X160150476Y-96174211D01*
X159997737Y-96270184D01*
X159870184Y-96397737D01*
X159774211Y-96550476D01*
X159714631Y-96720745D01*
X159714630Y-96720750D01*
X159694435Y-96899996D01*
X159694435Y-96900003D01*
X157231239Y-96900003D01*
X157229816Y-96897738D01*
X157102262Y-96770184D01*
X156949523Y-96674211D01*
X156779254Y-96614631D01*
X156779249Y-96614630D01*
X156600004Y-96594435D01*
X156599996Y-96594435D01*
X156420750Y-96614630D01*
X156420745Y-96614631D01*
X156250476Y-96674211D01*
X156097737Y-96770184D01*
X155970184Y-96897737D01*
X155874211Y-97050476D01*
X155814631Y-97220745D01*
X155814630Y-97220749D01*
X155794120Y-97402789D01*
X155767053Y-97467203D01*
X155709459Y-97506758D01*
X155657017Y-97512125D01*
X155500004Y-97494435D01*
X155499996Y-97494435D01*
X155320750Y-97514630D01*
X155320745Y-97514631D01*
X155150476Y-97574211D01*
X154997737Y-97670184D01*
X154997736Y-97670185D01*
X154898142Y-97769778D01*
X154836819Y-97803262D01*
X154796579Y-97805316D01*
X154700003Y-97794435D01*
X154699996Y-97794435D01*
X154520750Y-97814630D01*
X154520745Y-97814631D01*
X154350476Y-97874211D01*
X154197737Y-97970184D01*
X154070184Y-98097737D01*
X153974210Y-98250478D01*
X153914630Y-98420750D01*
X153900931Y-98542332D01*
X153873864Y-98606746D01*
X153865394Y-98616128D01*
X153796594Y-98684930D01*
X153735271Y-98718416D01*
X153708911Y-98721250D01*
X153376193Y-98721250D01*
X153223806Y-98721250D01*
X153135489Y-98744914D01*
X153076609Y-98760691D01*
X153076608Y-98760692D01*
X152944637Y-98836886D01*
X150796593Y-100984931D01*
X150735270Y-101018416D01*
X150708912Y-101021250D01*
X148408107Y-101021250D01*
X148341068Y-101001565D01*
X148295313Y-100948761D01*
X148285369Y-100879603D01*
X148314394Y-100816047D01*
X148320426Y-100809569D01*
X148727878Y-100402117D01*
X149314229Y-99815767D01*
X149390423Y-99683795D01*
X149397998Y-99655521D01*
X149434363Y-99595862D01*
X149497210Y-99565333D01*
X149566585Y-99573628D01*
X149609923Y-99604644D01*
X149727764Y-99735521D01*
X149727767Y-99735523D01*
X149727770Y-99735526D01*
X149872407Y-99840612D01*
X150035733Y-99913329D01*
X150210609Y-99950500D01*
X150210610Y-99950500D01*
X150389389Y-99950500D01*
X150389391Y-99950500D01*
X150564267Y-99913329D01*
X150727593Y-99840612D01*
X150872230Y-99735526D01*
X150881258Y-99725500D01*
X150918809Y-99683795D01*
X150991859Y-99602665D01*
X151081250Y-99447835D01*
X151136497Y-99277803D01*
X151142988Y-99216036D01*
X151169571Y-99151423D01*
X151178619Y-99141325D01*
X154055277Y-96264669D01*
X154126465Y-96158127D01*
X154175501Y-96039744D01*
X154179132Y-96021488D01*
X154200500Y-95914069D01*
X154200500Y-94600003D01*
X159594435Y-94600003D01*
X159614630Y-94779249D01*
X159614631Y-94779254D01*
X159674211Y-94949523D01*
X159710744Y-95007664D01*
X159770184Y-95102262D01*
X159897738Y-95229816D01*
X160050478Y-95325789D01*
X160126445Y-95352371D01*
X160220745Y-95385368D01*
X160220750Y-95385369D01*
X160399996Y-95405565D01*
X160400000Y-95405565D01*
X160400004Y-95405565D01*
X160579249Y-95385369D01*
X160579252Y-95385368D01*
X160579255Y-95385368D01*
X160749522Y-95325789D01*
X160902262Y-95229816D01*
X161029816Y-95102262D01*
X161125789Y-94949522D01*
X161185368Y-94779255D01*
X161185369Y-94779249D01*
X161205565Y-94600003D01*
X161205565Y-94599996D01*
X161185369Y-94420750D01*
X161185368Y-94420745D01*
X161125788Y-94250476D01*
X161062955Y-94150478D01*
X161029816Y-94097738D01*
X160902262Y-93970184D01*
X160749523Y-93874211D01*
X160579254Y-93814631D01*
X160579249Y-93814630D01*
X160400004Y-93794435D01*
X160399996Y-93794435D01*
X160220750Y-93814630D01*
X160220745Y-93814631D01*
X160050476Y-93874211D01*
X159897737Y-93970184D01*
X159770184Y-94097737D01*
X159674211Y-94250476D01*
X159614631Y-94420745D01*
X159614630Y-94420750D01*
X159594435Y-94599996D01*
X159594435Y-94600003D01*
X154200500Y-94600003D01*
X154200500Y-90366692D01*
X154200500Y-90366689D01*
X154175502Y-90241021D01*
X154175500Y-90241015D01*
X154155189Y-90191982D01*
X154155187Y-90191977D01*
X154126468Y-90122639D01*
X154126462Y-90122629D01*
X154055278Y-90016093D01*
X154055272Y-90016086D01*
X152786819Y-88747633D01*
X152753334Y-88686310D01*
X152750500Y-88659952D01*
X152750500Y-87950095D01*
X152770185Y-87883056D01*
X152822989Y-87837301D01*
X152892147Y-87827357D01*
X152947386Y-87849778D01*
X153072401Y-87940608D01*
X153072402Y-87940609D01*
X153072404Y-87940610D01*
X153072407Y-87940612D01*
X153235733Y-88013329D01*
X153410609Y-88050500D01*
X153410610Y-88050500D01*
X153589389Y-88050500D01*
X153589391Y-88050500D01*
X153764267Y-88013329D01*
X153927593Y-87940612D01*
X154072230Y-87835526D01*
X154073939Y-87833629D01*
X154098148Y-87806741D01*
X154191859Y-87702665D01*
X154281250Y-87547835D01*
X154336497Y-87377803D01*
X154355185Y-87200000D01*
X154336497Y-87022197D01*
X154281250Y-86852165D01*
X154191859Y-86697335D01*
X154190404Y-86695719D01*
X154189857Y-86694580D01*
X154188041Y-86692080D01*
X154188498Y-86691747D01*
X154160177Y-86632726D01*
X154168804Y-86563391D01*
X154194871Y-86525074D01*
X154430277Y-86289669D01*
X154490189Y-86200003D01*
X156694435Y-86200003D01*
X156714630Y-86379249D01*
X156714631Y-86379254D01*
X156774211Y-86549523D01*
X156838226Y-86651401D01*
X156870184Y-86702262D01*
X156997738Y-86829816D01*
X157150478Y-86925789D01*
X157320745Y-86985368D01*
X157320750Y-86985369D01*
X157499996Y-87005565D01*
X157500000Y-87005565D01*
X157500004Y-87005565D01*
X157679249Y-86985369D01*
X157679252Y-86985368D01*
X157679255Y-86985368D01*
X157849522Y-86925789D01*
X158002262Y-86829816D01*
X158129816Y-86702262D01*
X158225789Y-86549522D01*
X158285368Y-86379255D01*
X158295462Y-86289669D01*
X158305565Y-86200003D01*
X158305565Y-86199996D01*
X158285369Y-86020750D01*
X158285368Y-86020745D01*
X158242375Y-85897879D01*
X158225789Y-85850478D01*
X158220501Y-85842063D01*
X158129815Y-85697737D01*
X158127775Y-85695697D01*
X167542988Y-85695697D01*
X167547366Y-85723340D01*
X167575010Y-85897879D01*
X167638269Y-86092568D01*
X167731203Y-86274958D01*
X167851516Y-86440558D01*
X167996274Y-86585316D01*
X168142767Y-86691747D01*
X168161878Y-86705632D01*
X168278095Y-86764848D01*
X168344264Y-86798563D01*
X168344266Y-86798563D01*
X168344269Y-86798565D01*
X168440447Y-86829815D01*
X168538953Y-86861822D01*
X168640045Y-86877833D01*
X168741136Y-86893845D01*
X168741137Y-86893845D01*
X168945839Y-86893845D01*
X168945840Y-86893845D01*
X169148022Y-86861822D01*
X169342707Y-86798565D01*
X169525098Y-86705632D01*
X169661382Y-86606617D01*
X169690701Y-86585316D01*
X169690703Y-86585313D01*
X169690707Y-86585311D01*
X169835454Y-86440564D01*
X169835456Y-86440560D01*
X169835459Y-86440558D01*
X169945083Y-86289671D01*
X169955775Y-86274955D01*
X170048708Y-86092564D01*
X170111965Y-85897879D01*
X170143988Y-85695697D01*
X170143988Y-85490993D01*
X170131893Y-85414630D01*
X170111965Y-85288810D01*
X170073421Y-85170184D01*
X170048708Y-85094126D01*
X170048706Y-85094123D01*
X170048706Y-85094121D01*
X169990178Y-84979255D01*
X169955775Y-84911735D01*
X169945161Y-84897126D01*
X169835459Y-84746131D01*
X169690701Y-84601373D01*
X169525101Y-84481060D01*
X169525100Y-84481059D01*
X169525098Y-84481058D01*
X169468141Y-84452036D01*
X169342711Y-84388126D01*
X169148022Y-84324867D01*
X168973483Y-84297223D01*
X168945840Y-84292845D01*
X168741136Y-84292845D01*
X168716817Y-84296696D01*
X168538953Y-84324867D01*
X168344264Y-84388126D01*
X168161874Y-84481060D01*
X167996274Y-84601373D01*
X167851516Y-84746131D01*
X167731203Y-84911731D01*
X167638269Y-85094121D01*
X167575010Y-85288810D01*
X167549405Y-85450476D01*
X167542988Y-85490993D01*
X167542988Y-85695697D01*
X158127775Y-85695697D01*
X158002262Y-85570184D01*
X157849523Y-85474211D01*
X157679254Y-85414631D01*
X157679249Y-85414630D01*
X157500004Y-85394435D01*
X157499996Y-85394435D01*
X157320750Y-85414630D01*
X157320745Y-85414631D01*
X157150476Y-85474211D01*
X156997737Y-85570184D01*
X156870184Y-85697737D01*
X156774211Y-85850476D01*
X156714631Y-86020745D01*
X156714630Y-86020750D01*
X156694435Y-86199996D01*
X156694435Y-86200003D01*
X154490189Y-86200003D01*
X154501465Y-86183127D01*
X154534024Y-86104523D01*
X154550501Y-86064744D01*
X154567506Y-85979255D01*
X154575500Y-85939071D01*
X154575500Y-84668259D01*
X154595185Y-84601220D01*
X154647989Y-84555465D01*
X154717147Y-84545521D01*
X154772383Y-84567940D01*
X154872407Y-84640612D01*
X155035733Y-84713329D01*
X155210609Y-84750500D01*
X155210610Y-84750500D01*
X155389389Y-84750500D01*
X155389391Y-84750500D01*
X155564267Y-84713329D01*
X155727593Y-84640612D01*
X155872230Y-84535526D01*
X155991859Y-84402665D01*
X156081250Y-84247835D01*
X156136497Y-84077803D01*
X156155185Y-83900000D01*
X156136497Y-83722197D01*
X156081250Y-83552165D01*
X155991859Y-83397335D01*
X155982349Y-83386773D01*
X155952120Y-83323782D01*
X155950500Y-83303802D01*
X155950500Y-82746276D01*
X155955424Y-82711680D01*
X155961178Y-82691875D01*
X155972598Y-82652569D01*
X155975500Y-82615694D01*
X155975500Y-81084306D01*
X155972598Y-81047431D01*
X155968579Y-81033598D01*
X155929764Y-80899996D01*
X155926744Y-80889602D01*
X155843081Y-80748135D01*
X155843079Y-80748133D01*
X155843076Y-80748129D01*
X155726870Y-80631923D01*
X155726862Y-80631917D01*
X155585396Y-80548255D01*
X155585393Y-80548254D01*
X155427573Y-80502402D01*
X155427567Y-80502401D01*
X155390701Y-80499500D01*
X155390694Y-80499500D01*
X154959306Y-80499500D01*
X154959298Y-80499500D01*
X154922432Y-80502401D01*
X154922426Y-80502402D01*
X154764606Y-80548254D01*
X154764603Y-80548255D01*
X154616420Y-80635890D01*
X154615254Y-80633919D01*
X154560942Y-80655232D01*
X154492427Y-80641540D01*
X154483595Y-80635864D01*
X154483580Y-80635890D01*
X154335396Y-80548255D01*
X154335393Y-80548254D01*
X154177573Y-80502402D01*
X154177567Y-80502401D01*
X154140701Y-80499500D01*
X154140694Y-80499500D01*
X153709306Y-80499500D01*
X153709298Y-80499500D01*
X153672432Y-80502401D01*
X153672426Y-80502402D01*
X153514606Y-80548254D01*
X153514603Y-80548255D01*
X153366420Y-80635890D01*
X153365254Y-80633919D01*
X153310942Y-80655232D01*
X153242427Y-80641540D01*
X153233595Y-80635864D01*
X153233580Y-80635890D01*
X153085396Y-80548255D01*
X153085393Y-80548254D01*
X152927573Y-80502402D01*
X152927567Y-80502401D01*
X152890701Y-80499500D01*
X152890694Y-80499500D01*
X152459306Y-80499500D01*
X152459298Y-80499500D01*
X152422432Y-80502401D01*
X152422426Y-80502402D01*
X152264606Y-80548254D01*
X152264603Y-80548255D01*
X152116420Y-80635890D01*
X152115254Y-80633919D01*
X152060942Y-80655232D01*
X151992427Y-80641540D01*
X151983595Y-80635864D01*
X151983580Y-80635890D01*
X151835396Y-80548255D01*
X151835393Y-80548254D01*
X151677573Y-80502402D01*
X151677567Y-80502401D01*
X151640701Y-80499500D01*
X151640694Y-80499500D01*
X151209306Y-80499500D01*
X151209298Y-80499500D01*
X151172432Y-80502401D01*
X151172426Y-80502402D01*
X151014606Y-80548254D01*
X151014603Y-80548255D01*
X150873137Y-80631917D01*
X150873129Y-80631923D01*
X150756923Y-80748129D01*
X150756917Y-80748137D01*
X150673255Y-80889603D01*
X150673254Y-80889606D01*
X150627402Y-81047426D01*
X150627401Y-81047432D01*
X150624500Y-81084298D01*
X150624500Y-82615691D01*
X150627401Y-82652567D01*
X150627402Y-82652573D01*
X150673254Y-82810393D01*
X150673255Y-82810396D01*
X150757232Y-82952394D01*
X150774500Y-83015515D01*
X150774500Y-88955191D01*
X150754815Y-89022230D01*
X150702011Y-89067985D01*
X150632853Y-89077929D01*
X150569297Y-89048904D01*
X150562819Y-89042872D01*
X150314673Y-88794726D01*
X150291519Y-88779255D01*
X150208127Y-88723535D01*
X150178625Y-88711315D01*
X150089744Y-88674499D01*
X150089740Y-88674498D01*
X150085056Y-88673566D01*
X150080371Y-88672634D01*
X150080368Y-88672633D01*
X150080368Y-88672634D01*
X149964071Y-88649500D01*
X149964069Y-88649500D01*
X148661661Y-88649500D01*
X148594622Y-88629815D01*
X148548867Y-88577011D01*
X148538923Y-88507853D01*
X148556668Y-88459527D01*
X148625788Y-88349524D01*
X148631358Y-88333607D01*
X148685368Y-88179255D01*
X148685369Y-88179249D01*
X148705565Y-88000003D01*
X148705565Y-87999996D01*
X148685369Y-87820750D01*
X148685368Y-87820745D01*
X148673249Y-87786112D01*
X148625789Y-87650478D01*
X148549157Y-87528520D01*
X148530158Y-87461285D01*
X148550526Y-87394449D01*
X148603793Y-87349235D01*
X148673050Y-87339997D01*
X148695107Y-87345508D01*
X148771636Y-87372287D01*
X148771642Y-87372288D01*
X148771644Y-87372289D01*
X148771645Y-87372289D01*
X148771649Y-87372290D01*
X148950895Y-87392486D01*
X148950899Y-87392486D01*
X148950903Y-87392486D01*
X149130148Y-87372290D01*
X149130151Y-87372289D01*
X149130154Y-87372289D01*
X149300421Y-87312710D01*
X149453161Y-87216737D01*
X149580715Y-87089183D01*
X149676688Y-86936443D01*
X149736267Y-86766176D01*
X149744206Y-86695719D01*
X149746987Y-86671032D01*
X149774053Y-86606617D01*
X149829250Y-86567873D01*
X149949522Y-86525789D01*
X150102262Y-86429816D01*
X150229816Y-86302262D01*
X150325789Y-86149522D01*
X150385368Y-85979255D01*
X150385369Y-85979249D01*
X150405565Y-85800003D01*
X150405565Y-85799996D01*
X150385369Y-85620750D01*
X150385368Y-85620745D01*
X150339966Y-85490993D01*
X150325789Y-85450478D01*
X150303265Y-85414632D01*
X150286582Y-85388080D01*
X150229816Y-85297738D01*
X150102262Y-85170184D01*
X149981209Y-85094121D01*
X149949523Y-85074211D01*
X149779254Y-85014631D01*
X149779249Y-85014630D01*
X149600004Y-84994435D01*
X149599996Y-84994435D01*
X149420750Y-85014630D01*
X149420745Y-85014631D01*
X149250476Y-85074211D01*
X149097737Y-85170184D01*
X148970184Y-85297737D01*
X148874210Y-85450478D01*
X148814630Y-85620750D01*
X148803910Y-85715891D01*
X148776843Y-85780305D01*
X148721645Y-85819047D01*
X148601379Y-85861130D01*
X148448636Y-85957105D01*
X148321083Y-86084658D01*
X148225110Y-86237397D01*
X148165530Y-86407666D01*
X148165529Y-86407671D01*
X148145334Y-86586917D01*
X148145334Y-86586924D01*
X148165529Y-86766170D01*
X148165530Y-86766175D01*
X148225110Y-86936444D01*
X148301740Y-87058399D01*
X148320740Y-87125636D01*
X148300372Y-87192471D01*
X148247104Y-87237685D01*
X148177848Y-87246923D01*
X148155792Y-87241413D01*
X148079257Y-87214632D01*
X148079249Y-87214630D01*
X147900004Y-87194435D01*
X147899996Y-87194435D01*
X147720750Y-87214630D01*
X147720745Y-87214631D01*
X147550476Y-87274211D01*
X147397737Y-87370184D01*
X147270184Y-87497737D01*
X147174211Y-87650476D01*
X147114631Y-87820745D01*
X147114630Y-87820750D01*
X147094435Y-87999996D01*
X147094435Y-88000003D01*
X147114630Y-88179249D01*
X147114631Y-88179254D01*
X147174211Y-88349524D01*
X147243332Y-88459527D01*
X147262333Y-88526764D01*
X147241966Y-88593599D01*
X147188698Y-88638814D01*
X147138339Y-88649500D01*
X146448421Y-88649500D01*
X146381382Y-88629815D01*
X146335627Y-88577011D01*
X146331379Y-88566454D01*
X146325788Y-88550476D01*
X146250843Y-88431202D01*
X146229816Y-88397738D01*
X146102262Y-88270184D01*
X146068879Y-88249208D01*
X145949523Y-88174211D01*
X145779254Y-88114631D01*
X145779249Y-88114630D01*
X145600004Y-88094435D01*
X145599996Y-88094435D01*
X145420750Y-88114630D01*
X145420745Y-88114631D01*
X145250476Y-88174211D01*
X145103568Y-88266521D01*
X145036332Y-88285521D01*
X144969496Y-88265153D01*
X144949915Y-88249208D01*
X144486819Y-87786112D01*
X144453334Y-87724789D01*
X144450500Y-87698431D01*
X144450500Y-82935928D01*
X144425502Y-82810261D01*
X144425501Y-82810260D01*
X144425501Y-82810256D01*
X144376465Y-82691873D01*
X144376464Y-82691872D01*
X144376461Y-82691866D01*
X144325564Y-82615694D01*
X144325562Y-82615691D01*
X144305278Y-82585332D01*
X142814867Y-81094921D01*
X142781382Y-81033598D01*
X142786366Y-80963906D01*
X142828238Y-80907973D01*
X142874966Y-80886347D01*
X142879251Y-80885369D01*
X142879253Y-80885368D01*
X142879255Y-80885368D01*
X143049522Y-80825789D01*
X143202262Y-80729816D01*
X143329816Y-80602262D01*
X143425789Y-80449522D01*
X143485368Y-80279255D01*
X143503226Y-80120762D01*
X143505565Y-80100003D01*
X143505565Y-80099996D01*
X143485369Y-79920750D01*
X143485368Y-79920745D01*
X143425788Y-79750476D01*
X143386582Y-79688080D01*
X143329816Y-79597738D01*
X143202262Y-79470184D01*
X143197550Y-79467223D01*
X143049523Y-79374211D01*
X142879254Y-79314631D01*
X142879249Y-79314630D01*
X142700004Y-79294435D01*
X142699994Y-79294435D01*
X142699275Y-79294516D01*
X142698813Y-79294435D01*
X142693036Y-79294435D01*
X142693036Y-79293422D01*
X142630454Y-79282457D01*
X142579077Y-79235105D01*
X142561457Y-79167493D01*
X142583188Y-79101089D01*
X142634506Y-79058220D01*
X143249981Y-78781217D01*
X143254484Y-78779299D01*
X144172754Y-78409726D01*
X144177330Y-78407991D01*
X145109746Y-78075691D01*
X145114393Y-78074140D01*
X146059387Y-77779668D01*
X146064123Y-77778296D01*
X147020211Y-77522113D01*
X147025027Y-77520926D01*
X147990626Y-77303455D01*
X147995491Y-77302461D01*
X148969080Y-77124044D01*
X148973961Y-77123251D01*
X149953932Y-76984183D01*
X149958854Y-76983585D01*
X150943636Y-76884090D01*
X150948569Y-76883691D01*
X151936579Y-76823927D01*
X151941502Y-76823729D01*
X152931103Y-76803798D01*
X152936069Y-76803798D01*
X153925667Y-76823729D01*
G37*
G04 #@! TD.AperFunction*
G04 #@! TA.AperFunction,Conductor*
G36*
X151453535Y-111997974D02*
G01*
X151505011Y-112045218D01*
X151517635Y-112077189D01*
X151518056Y-112077053D01*
X151575308Y-112253259D01*
X151575311Y-112253265D01*
X151664702Y-112408095D01*
X151674209Y-112418653D01*
X151704440Y-112481643D01*
X151706061Y-112501627D01*
X151706061Y-112997630D01*
X151686376Y-113064669D01*
X151669742Y-113085311D01*
X151366871Y-113388181D01*
X151305548Y-113421666D01*
X151279192Y-113424500D01*
X151201663Y-113424500D01*
X151201644Y-113424501D01*
X151102292Y-113434650D01*
X151102286Y-113434652D01*
X150970676Y-113478263D01*
X150900848Y-113480665D01*
X150840806Y-113444933D01*
X150809614Y-113382412D01*
X150813288Y-113323666D01*
X150814452Y-113319933D01*
X150820500Y-113253381D01*
X150820499Y-113153307D01*
X150840183Y-113086270D01*
X150856819Y-113065626D01*
X150949113Y-112973333D01*
X150949114Y-112973332D01*
X150949114Y-112973331D01*
X150949118Y-112973328D01*
X151020306Y-112866786D01*
X151069342Y-112748403D01*
X151070892Y-112740612D01*
X151078971Y-112700000D01*
X151094341Y-112622730D01*
X151094341Y-112491039D01*
X151114026Y-112424000D01*
X151126193Y-112408065D01*
X151135700Y-112397507D01*
X151225091Y-112242677D01*
X151280338Y-112072645D01*
X151280338Y-112072640D01*
X151280893Y-112070934D01*
X151320330Y-112013259D01*
X151384688Y-111986060D01*
X151453535Y-111997974D01*
G37*
G04 #@! TD.AperFunction*
G04 #@! TA.AperFunction,Conductor*
G36*
X149646231Y-89970185D02*
G01*
X149666873Y-89986819D01*
X150617873Y-90937819D01*
X150651358Y-90999142D01*
X150646374Y-91068834D01*
X150604502Y-91124767D01*
X150539038Y-91149184D01*
X150530192Y-91149500D01*
X147901569Y-91149500D01*
X147834530Y-91129815D01*
X147813888Y-91113181D01*
X146862888Y-90162181D01*
X146829403Y-90100858D01*
X146834387Y-90031166D01*
X146876259Y-89975233D01*
X146941723Y-89950816D01*
X146950569Y-89950500D01*
X149579192Y-89950500D01*
X149646231Y-89970185D01*
G37*
G04 #@! TD.AperFunction*
G04 #@! TA.AperFunction,Conductor*
G36*
X161352176Y-111609011D02*
G01*
X161379242Y-111615189D01*
X161415610Y-111627915D01*
X161470277Y-111647044D01*
X161472052Y-111648317D01*
X161480615Y-111650831D01*
X161486617Y-111652761D01*
X161489140Y-111653644D01*
X161489150Y-111653646D01*
X161489151Y-111653647D01*
X161501842Y-111657092D01*
X161504294Y-111657785D01*
X161513990Y-111660631D01*
X161513990Y-111660632D01*
X161542437Y-111668985D01*
X161552263Y-111671017D01*
X161558556Y-111672521D01*
X161558865Y-111672570D01*
X161558875Y-111672573D01*
X161558885Y-111672573D01*
X161559966Y-111672746D01*
X161565595Y-111673775D01*
X161623123Y-111685678D01*
X161623127Y-111685677D01*
X161623128Y-111685678D01*
X161671073Y-111684701D01*
X161766973Y-111682748D01*
X161825272Y-111673150D01*
X161825271Y-111673149D01*
X161851524Y-111668827D01*
X161853941Y-111666940D01*
X161875765Y-111660531D01*
X161893287Y-111657092D01*
X161910865Y-111653642D01*
X162020754Y-111615188D01*
X162047815Y-111609012D01*
X162086116Y-111604697D01*
X162113876Y-111604697D01*
X162152174Y-111609012D01*
X162179244Y-111615190D01*
X162228167Y-111632308D01*
X162232473Y-111633815D01*
X162247958Y-111639233D01*
X162257941Y-111643220D01*
X162341601Y-111680912D01*
X162341607Y-111680914D01*
X162341611Y-111680916D01*
X162341614Y-111680916D01*
X162341617Y-111680918D01*
X162357825Y-111685677D01*
X162406314Y-111699915D01*
X162543571Y-111720366D01*
X162686189Y-111701345D01*
X162753426Y-111682346D01*
X162753431Y-111682344D01*
X162839882Y-111643923D01*
X162849265Y-111640204D01*
X162920757Y-111615187D01*
X162947815Y-111609012D01*
X162986116Y-111604697D01*
X163013876Y-111604697D01*
X163052174Y-111609012D01*
X163079244Y-111615190D01*
X163128167Y-111632308D01*
X163132473Y-111633815D01*
X163147958Y-111639233D01*
X163157941Y-111643220D01*
X163241601Y-111680912D01*
X163241607Y-111680914D01*
X163241611Y-111680916D01*
X163241614Y-111680916D01*
X163241617Y-111680918D01*
X163257825Y-111685677D01*
X163306314Y-111699915D01*
X163443571Y-111720366D01*
X163586189Y-111701345D01*
X163653426Y-111682346D01*
X163653431Y-111682344D01*
X163739882Y-111643923D01*
X163749265Y-111640204D01*
X163820757Y-111615187D01*
X163847815Y-111609012D01*
X163886115Y-111604696D01*
X163913871Y-111604696D01*
X163952176Y-111609011D01*
X163979242Y-111615188D01*
X164015620Y-111627917D01*
X164040629Y-111639960D01*
X164073271Y-111660471D01*
X164094974Y-111677780D01*
X164122215Y-111705021D01*
X164139528Y-111726730D01*
X164160034Y-111759365D01*
X164172081Y-111784382D01*
X164184809Y-111820756D01*
X164190987Y-111847824D01*
X164193042Y-111866054D01*
X164195302Y-111886113D01*
X164195302Y-111913877D01*
X164190988Y-111952170D01*
X164184809Y-111979241D01*
X164153007Y-112070129D01*
X164151722Y-112071919D01*
X164149180Y-112080578D01*
X164147254Y-112086569D01*
X164146360Y-112089124D01*
X164142842Y-112102075D01*
X164142156Y-112104499D01*
X164131013Y-112142448D01*
X164131008Y-112142466D01*
X164129019Y-112152084D01*
X164127499Y-112158449D01*
X164127260Y-112159949D01*
X164126238Y-112165531D01*
X164114312Y-112223192D01*
X164114311Y-112223200D01*
X164117259Y-112367049D01*
X164117260Y-112367061D01*
X164131187Y-112451592D01*
X164133065Y-112453995D01*
X164139481Y-112475835D01*
X164146353Y-112510851D01*
X164146358Y-112510867D01*
X164184807Y-112620746D01*
X164190986Y-112647817D01*
X164195301Y-112686112D01*
X164195301Y-112713880D01*
X164190986Y-112752175D01*
X164184808Y-112779244D01*
X164172080Y-112815620D01*
X164160031Y-112840640D01*
X164130722Y-112887284D01*
X164123523Y-112897549D01*
X164060857Y-112977933D01*
X164060848Y-112977945D01*
X164029805Y-113029856D01*
X164029797Y-113029871D01*
X163979614Y-113143542D01*
X163979614Y-113143543D01*
X163958154Y-113285813D01*
X163958154Y-113285817D01*
X163957670Y-113355676D01*
X163973507Y-113471504D01*
X163977162Y-113498233D01*
X163987388Y-113533972D01*
X163991683Y-113557094D01*
X163994512Y-113588907D01*
X163994999Y-113599890D01*
X163994999Y-114660103D01*
X163994512Y-114671085D01*
X163991683Y-114702901D01*
X163987386Y-114726030D01*
X163965522Y-114802443D01*
X163956214Y-114825745D01*
X163921279Y-114892623D01*
X163907474Y-114913569D01*
X163859792Y-114972048D01*
X163842048Y-114989792D01*
X163783569Y-115037474D01*
X163762623Y-115051279D01*
X163695745Y-115086214D01*
X163672443Y-115095522D01*
X163596029Y-115117386D01*
X163572903Y-115121682D01*
X163541094Y-115124511D01*
X163530109Y-115124999D01*
X162874499Y-115124999D01*
X162874490Y-115124999D01*
X162874489Y-115125000D01*
X162767048Y-115136551D01*
X162767036Y-115136553D01*
X162715526Y-115147759D01*
X162612997Y-115181884D01*
X162605999Y-115185233D01*
X162605099Y-115183352D01*
X162548399Y-115200000D01*
X161638218Y-115200000D01*
X161586707Y-115188794D01*
X161569291Y-115180840D01*
X161534950Y-115165157D01*
X161475694Y-115147759D01*
X161467912Y-115145474D01*
X161467909Y-115145473D01*
X161467904Y-115145472D01*
X161325498Y-115124999D01*
X160669895Y-115124999D01*
X160658915Y-115124512D01*
X160650860Y-115123795D01*
X160627097Y-115121683D01*
X160603967Y-115117386D01*
X160527552Y-115095521D01*
X160504253Y-115086214D01*
X160437375Y-115051280D01*
X160416426Y-115037474D01*
X160357951Y-114989795D01*
X160340210Y-114972054D01*
X160292521Y-114913566D01*
X160278718Y-114892622D01*
X160243783Y-114825742D01*
X160234477Y-114802447D01*
X160212611Y-114726029D01*
X160208315Y-114702899D01*
X160205487Y-114671083D01*
X160205000Y-114660104D01*
X160205000Y-113599891D01*
X160205487Y-113588914D01*
X160208314Y-113557106D01*
X160212609Y-113533979D01*
X160234480Y-113457543D01*
X160242633Y-113437136D01*
X160242542Y-113437095D01*
X160243516Y-113434926D01*
X160243790Y-113434241D01*
X160244039Y-113433766D01*
X160286289Y-113322723D01*
X160300373Y-113266579D01*
X160315539Y-113148738D01*
X160296516Y-113006121D01*
X160288551Y-112977933D01*
X160278636Y-112942846D01*
X160277832Y-112939596D01*
X160277516Y-112938884D01*
X160277516Y-112938883D01*
X160249155Y-112875069D01*
X160245434Y-112865682D01*
X160215189Y-112779245D01*
X160209011Y-112752175D01*
X160204697Y-112713887D01*
X160204697Y-112686120D01*
X160209012Y-112647821D01*
X160215191Y-112620749D01*
X160246947Y-112529996D01*
X160248245Y-112528184D01*
X160250828Y-112519391D01*
X160252762Y-112513378D01*
X160253643Y-112510861D01*
X160257219Y-112497712D01*
X160257868Y-112495418D01*
X160260629Y-112486013D01*
X160260630Y-112486014D01*
X160268983Y-112457568D01*
X160270895Y-112448323D01*
X160272428Y-112441919D01*
X160272475Y-112441621D01*
X160272477Y-112441616D01*
X160272477Y-112441610D01*
X160272688Y-112440292D01*
X160273709Y-112434722D01*
X160275743Y-112424895D01*
X160285678Y-112376879D01*
X160285384Y-112362466D01*
X160282748Y-112233037D01*
X160282748Y-112233028D01*
X160273150Y-112174728D01*
X160268826Y-112148465D01*
X160266925Y-112146029D01*
X160260535Y-112124257D01*
X160253642Y-112089136D01*
X160215189Y-111979247D01*
X160209011Y-111952177D01*
X160209010Y-111952170D01*
X160204696Y-111913882D01*
X160204696Y-111886123D01*
X160209011Y-111847819D01*
X160215187Y-111820757D01*
X160227918Y-111784374D01*
X160239958Y-111759372D01*
X160260474Y-111726721D01*
X160277776Y-111705027D01*
X160305026Y-111677777D01*
X160326726Y-111660471D01*
X160359367Y-111639961D01*
X160384366Y-111627921D01*
X160420759Y-111615187D01*
X160447820Y-111609012D01*
X160486121Y-111604697D01*
X160513881Y-111604697D01*
X160552170Y-111609010D01*
X160579236Y-111615187D01*
X160670276Y-111647043D01*
X160672052Y-111648317D01*
X160680615Y-111650831D01*
X160686617Y-111652761D01*
X160689140Y-111653644D01*
X160689150Y-111653646D01*
X160689151Y-111653647D01*
X160701842Y-111657092D01*
X160704294Y-111657785D01*
X160713990Y-111660631D01*
X160713990Y-111660632D01*
X160742437Y-111668985D01*
X160752263Y-111671017D01*
X160758556Y-111672521D01*
X160758865Y-111672570D01*
X160758875Y-111672573D01*
X160758885Y-111672573D01*
X160759966Y-111672746D01*
X160765595Y-111673775D01*
X160823123Y-111685678D01*
X160823127Y-111685677D01*
X160823128Y-111685678D01*
X160871073Y-111684701D01*
X160966973Y-111682748D01*
X161025272Y-111673150D01*
X161025271Y-111673149D01*
X161051524Y-111668827D01*
X161053941Y-111666940D01*
X161075765Y-111660531D01*
X161093287Y-111657092D01*
X161110865Y-111653642D01*
X161220754Y-111615188D01*
X161247815Y-111609012D01*
X161286115Y-111604696D01*
X161313870Y-111604696D01*
X161352176Y-111609011D01*
G37*
G04 #@! TD.AperFunction*
M02*
