M48
; DRILL file {KiCad 8.0.1} date 2024-05-30T23:43:27+0500
; FORMAT={-:-/ absolute / metric / decimal}
; #@! TF.CreationDate,2024-05-30T23:43:27+05:00
; #@! TF.GenerationSoftware,Kicad,Pcbnew,8.0.1
; #@! TF.FileFunction,Plated,1,6,PTH
FMAT,2
METRIC
; #@! TA.AperFunction,Plated,PTH,ViaDrill
T1C0.300
; #@! TA.AperFunction,Plated,PTH,ComponentDrill
T2C0.500
%
G90
G05
T1
X130.2Y-108.2
X130.4Y-109.6
X133.1Y-98.2
X133.3Y-103.6
X134.4Y-105.5
X135.7Y-99.1
X135.8Y-114.0
X137.1Y-110.5
X137.4Y-109.8
X137.6Y-109.1
X138.5Y-110.6
X138.7Y-108.9
X138.9Y-96.103
X139.0Y-100.625
X139.0Y-101.525
X139.1Y-99.7
X139.8Y-88.6
X139.9Y-84.8
X139.9Y-105.3
X139.9Y-110.6
X140.0Y-101.3
X140.7Y-88.7
X141.0Y-80.3
X141.2Y-102.0
X141.5Y-102.7
X141.7Y-80.9
X141.8Y-89.622
X142.1Y-91.3
X142.2Y-107.1
X142.233Y-108.833
X142.4Y-87.7
X142.6Y-89.1
X142.6Y-98.6
X142.7Y-80.1
X142.8Y-89.8
X143.057Y-97.762
X143.2Y-79.4
X143.242Y-90.816
X143.3Y-88.6
X143.8Y-94.8
X143.8Y-97.1
X144.6Y-94.5
X144.7Y-103.4
X144.8Y-99.8
X145.4Y-101.5
X145.4Y-104.4
X145.6Y-88.9
X145.8Y-114.4
X146.7Y-111.9
X147.4Y-90.5
X147.6Y-101.6
X147.6Y-102.4
X147.7Y-111.9
X147.722Y-94.478
X147.9Y-88.0
X148.1Y-83.9
X148.3Y-96.9
X148.7Y-111.9
X148.951Y-86.587
X149.1Y-108.1
X149.479Y-98.021
X149.55Y-112.0
X149.6Y-85.8
X149.716Y-95.541
X149.723Y-93.98
X150.2Y-108.6
X150.3Y-99.1
X150.337Y-96.163
X150.444Y-111.895
X150.478Y-93.713
X150.5Y-86.8
X150.5Y-106.7
X150.626Y-96.955
X151.2Y-103.3
X151.3Y-119.8
X151.386Y-111.943
X151.4Y-93.0
X151.46Y-92.04
X151.5Y-90.9
X151.5Y-93.794
X152.357Y-111.905
X152.8Y-93.1
X152.9Y-90.7
X153.2Y-88.1
X153.2Y-111.8
X153.213Y-100.787
X153.5Y-87.2
X154.3Y-111.8
X154.5Y-108.1
X154.7Y-98.6
X154.742Y-106.9
X155.3Y-83.9
X155.4Y-111.8
X155.5Y-98.3
X155.6Y-97.4
X156.2Y-83.9
X156.3Y-114.4
X156.6Y-97.4
X157.5Y-86.2
X157.5Y-107.1
X158.1Y-122.236
X158.309Y-84.909
X158.8Y-107.2
X158.9Y-99.413
X159.287Y-88.0
X159.3Y-102.9
X160.1Y-107.7
X160.4Y-94.6
X160.5Y-96.9
X160.5Y-111.9
X160.5Y-111.9
X160.5Y-112.7
X160.5Y-112.7
X161.0Y-95.2
X161.3Y-111.9
X161.3Y-111.9
X161.3Y-112.7
X161.3Y-112.7
X162.1Y-111.9
X162.1Y-111.9
X162.1Y-112.7
X162.1Y-112.7
X162.386Y-79.803
X162.8Y-89.8
X163.0Y-111.9
X163.0Y-111.9
X163.0Y-112.7
X163.0Y-112.7
X163.3Y-110.1
X163.9Y-111.9
X163.9Y-111.9
X163.9Y-112.7
X163.9Y-112.7
X164.4Y-89.5
X164.5Y-118.5
X165.0Y-122.0
X165.7Y-110.2
X166.204Y-81.359
X167.7Y-104.8
X168.2Y-95.3
X168.3Y-93.2
X169.802Y-111.3
X169.903Y-114.6
X170.1Y-97.8
X170.4Y-98.9
X170.6Y-99.9
T2
X133.5Y-89.3
X134.5Y-89.3
X135.5Y-89.3
X136.5Y-89.3
X137.5Y-89.3
X140.7Y-118.5
X141.7Y-118.5
M30
