G04 #@! TF.GenerationSoftware,KiCad,Pcbnew,8.0.1*
G04 #@! TF.CreationDate,2024-05-30T23:43:01+05:00*
G04 #@! TF.ProjectId,6_layer_MCU,365f6c61-7965-4725-9f4d-43552e6b6963,rev?*
G04 #@! TF.SameCoordinates,Original*
G04 #@! TF.FileFunction,Legend,Top*
G04 #@! TF.FilePolarity,Positive*
%FSLAX46Y46*%
G04 Gerber Fmt 4.6, Leading zero omitted, Abs format (unit mm)*
G04 Created by KiCad (PCBNEW 8.0.1) date 2024-05-30 23:43:01*
%MOMM*%
%LPD*%
G01*
G04 APERTURE LIST*
G04 Aperture macros list*
%AMRoundRect*
0 Rectangle with rounded corners*
0 $1 Rounding radius*
0 $2 $3 $4 $5 $6 $7 $8 $9 X,Y pos of 4 corners*
0 Add a 4 corners polygon primitive as box body*
4,1,4,$2,$3,$4,$5,$6,$7,$8,$9,$2,$3,0*
0 Add four circle primitives for the rounded corners*
1,1,$1+$1,$2,$3*
1,1,$1+$1,$4,$5*
1,1,$1+$1,$6,$7*
1,1,$1+$1,$8,$9*
0 Add four rect primitives between the rounded corners*
20,1,$1+$1,$2,$3,$4,$5,0*
20,1,$1+$1,$4,$5,$6,$7,0*
20,1,$1+$1,$6,$7,$8,$9,0*
20,1,$1+$1,$8,$9,$2,$3,0*%
%AMRotRect*
0 Rectangle, with rotation*
0 The origin of the aperture is its center*
0 $1 length*
0 $2 width*
0 $3 Rotation angle, in degrees counterclockwise*
0 Add horizontal line*
21,1,$1,$2,0,0,$3*%
G04 Aperture macros list end*
%ADD10C,0.100000*%
%ADD11C,0.120000*%
%ADD12C,0.127000*%
%ADD13C,0.200000*%
%ADD14RoundRect,0.225000X-0.335876X-0.017678X-0.017678X-0.335876X0.335876X0.017678X0.017678X0.335876X0*%
%ADD15RoundRect,0.225000X0.250000X-0.225000X0.250000X0.225000X-0.250000X0.225000X-0.250000X-0.225000X0*%
%ADD16RoundRect,0.225000X-0.017678X0.335876X-0.335876X0.017678X0.017678X-0.335876X0.335876X-0.017678X0*%
%ADD17RoundRect,0.225000X0.017678X-0.335876X0.335876X-0.017678X-0.017678X0.335876X-0.335876X0.017678X0*%
%ADD18R,0.254000X0.675000*%
%ADD19R,0.675000X0.254000*%
%ADD20RoundRect,0.160000X0.197500X0.160000X-0.197500X0.160000X-0.197500X-0.160000X0.197500X-0.160000X0*%
%ADD21RoundRect,0.218750X-0.026517X0.335876X-0.335876X0.026517X0.026517X-0.335876X0.335876X-0.026517X0*%
%ADD22RoundRect,0.150000X0.709088X0.098460X0.606482X0.380368X-0.709088X-0.098460X-0.606482X-0.380368X0*%
%ADD23RoundRect,0.250000X1.119167X0.141299X0.948157X0.611145X-1.119167X-0.141299X-0.948157X-0.611145X0*%
%ADD24RoundRect,0.160000X0.252791X-0.026517X-0.026517X0.252791X-0.252791X0.026517X0.026517X-0.252791X0*%
%ADD25RoundRect,0.225000X0.335876X0.017678X0.017678X0.335876X-0.335876X-0.017678X-0.017678X-0.335876X0*%
%ADD26RoundRect,0.225000X-0.225000X-0.250000X0.225000X-0.250000X0.225000X0.250000X-0.225000X0.250000X0*%
%ADD27R,0.850000X0.850000*%
%ADD28O,0.850000X0.850000*%
%ADD29C,2.200000*%
%ADD30RoundRect,0.075000X0.441942X0.548008X-0.548008X-0.441942X-0.441942X-0.548008X0.548008X0.441942X0*%
%ADD31RoundRect,0.075000X-0.441942X0.548008X-0.548008X0.441942X0.441942X-0.548008X0.548008X-0.441942X0*%
%ADD32RoundRect,0.200000X-0.053033X0.335876X-0.335876X0.053033X0.053033X-0.335876X0.335876X-0.053033X0*%
%ADD33RoundRect,0.160000X0.160000X-0.197500X0.160000X0.197500X-0.160000X0.197500X-0.160000X-0.197500X0*%
%ADD34RoundRect,0.160000X-0.197500X-0.160000X0.197500X-0.160000X0.197500X0.160000X-0.197500X0.160000X0*%
%ADD35RoundRect,0.160000X-0.026517X-0.252791X0.252791X0.026517X0.026517X0.252791X-0.252791X-0.026517X0*%
%ADD36RotRect,1.000000X1.800000X315.000000*%
%ADD37R,0.800000X1.000000*%
%ADD38C,0.900000*%
%ADD39R,1.500000X0.700000*%
%ADD40RoundRect,0.237500X0.300000X0.237500X-0.300000X0.237500X-0.300000X-0.237500X0.300000X-0.237500X0*%
%ADD41RoundRect,0.160000X-0.160000X0.197500X-0.160000X-0.197500X0.160000X-0.197500X0.160000X0.197500X0*%
%ADD42RoundRect,0.225000X0.225000X0.250000X-0.225000X0.250000X-0.225000X-0.250000X0.225000X-0.250000X0*%
%ADD43RoundRect,0.102000X-0.350000X0.800000X-0.350000X-0.800000X0.350000X-0.800000X0.350000X0.800000X0*%
%ADD44RoundRect,0.102000X-0.700000X0.800000X-0.700000X-0.800000X0.700000X-0.800000X0.700000X0.800000X0*%
%ADD45RoundRect,0.102000X-0.700000X1.100000X-0.700000X-1.100000X0.700000X-1.100000X0.700000X1.100000X0*%
%ADD46RoundRect,0.102000X-0.900000X0.700000X-0.900000X-0.700000X0.900000X-0.700000X0.900000X0.700000X0*%
%ADD47R,1.000000X1.800000*%
%ADD48RoundRect,0.218750X0.218750X0.256250X-0.218750X0.256250X-0.218750X-0.256250X0.218750X-0.256250X0*%
%ADD49RoundRect,0.160000X0.026517X0.252791X-0.252791X-0.026517X-0.026517X-0.252791X0.252791X0.026517X0*%
%ADD50RotRect,2.000000X2.400000X135.000000*%
%ADD51RoundRect,0.225000X-0.250000X0.225000X-0.250000X-0.225000X0.250000X-0.225000X0.250000X0.225000X0*%
%ADD52RoundRect,0.150000X-0.750000X-0.150000X0.750000X-0.150000X0.750000X0.150000X-0.750000X0.150000X0*%
%ADD53RoundRect,0.080500X0.574878X-0.233345X-0.233345X0.574878X-0.574878X0.233345X0.233345X-0.574878X0*%
%ADD54RoundRect,0.102000X2.616295X0.212132X0.212132X2.616295X-2.616295X-0.212132X-0.212132X-2.616295X0*%
%ADD55C,1.000000*%
%ADD56C,0.600000*%
%ADD57C,0.700000*%
G04 APERTURE END LIST*
D10*
X161020455Y-90602767D02*
X160969947Y-90602767D01*
X160969947Y-90602767D02*
X160868932Y-90552260D01*
X160868932Y-90552260D02*
X160818424Y-90501752D01*
X160818424Y-90501752D02*
X160767917Y-90400737D01*
X160767917Y-90400737D02*
X160767917Y-90299722D01*
X160767917Y-90299722D02*
X160793171Y-90223960D01*
X160793171Y-90223960D02*
X160868932Y-90097691D01*
X160868932Y-90097691D02*
X160944693Y-90021930D01*
X160944693Y-90021930D02*
X161070962Y-89946168D01*
X161070962Y-89946168D02*
X161146724Y-89920914D01*
X161146724Y-89920914D02*
X161247739Y-89920914D01*
X161247739Y-89920914D02*
X161348754Y-89971422D01*
X161348754Y-89971422D02*
X161399262Y-90021930D01*
X161399262Y-90021930D02*
X161449770Y-90122945D01*
X161449770Y-90122945D02*
X161449770Y-90173452D01*
X161954846Y-90577513D02*
X161853831Y-90476498D01*
X161853831Y-90476498D02*
X161778069Y-90451244D01*
X161778069Y-90451244D02*
X161727562Y-90451244D01*
X161727562Y-90451244D02*
X161601293Y-90476498D01*
X161601293Y-90476498D02*
X161475023Y-90552260D01*
X161475023Y-90552260D02*
X161272993Y-90754290D01*
X161272993Y-90754290D02*
X161247739Y-90830052D01*
X161247739Y-90830052D02*
X161247739Y-90880559D01*
X161247739Y-90880559D02*
X161272993Y-90956321D01*
X161272993Y-90956321D02*
X161374008Y-91057336D01*
X161374008Y-91057336D02*
X161449770Y-91082590D01*
X161449770Y-91082590D02*
X161500277Y-91082590D01*
X161500277Y-91082590D02*
X161576039Y-91057336D01*
X161576039Y-91057336D02*
X161702308Y-90931067D01*
X161702308Y-90931067D02*
X161727562Y-90855305D01*
X161727562Y-90855305D02*
X161727562Y-90804798D01*
X161727562Y-90804798D02*
X161702308Y-90729036D01*
X161702308Y-90729036D02*
X161601293Y-90628021D01*
X161601293Y-90628021D02*
X161525531Y-90602767D01*
X161525531Y-90602767D02*
X161475023Y-90602767D01*
X161475023Y-90602767D02*
X161399262Y-90628021D01*
X160270335Y-102982143D02*
X160306050Y-103017857D01*
X160306050Y-103017857D02*
X160341764Y-103125000D01*
X160341764Y-103125000D02*
X160341764Y-103196428D01*
X160341764Y-103196428D02*
X160306050Y-103303571D01*
X160306050Y-103303571D02*
X160234621Y-103375000D01*
X160234621Y-103375000D02*
X160163192Y-103410714D01*
X160163192Y-103410714D02*
X160020335Y-103446428D01*
X160020335Y-103446428D02*
X159913192Y-103446428D01*
X159913192Y-103446428D02*
X159770335Y-103410714D01*
X159770335Y-103410714D02*
X159698907Y-103375000D01*
X159698907Y-103375000D02*
X159627478Y-103303571D01*
X159627478Y-103303571D02*
X159591764Y-103196428D01*
X159591764Y-103196428D02*
X159591764Y-103125000D01*
X159591764Y-103125000D02*
X159627478Y-103017857D01*
X159627478Y-103017857D02*
X159663192Y-102982143D01*
X159663192Y-102696428D02*
X159627478Y-102660714D01*
X159627478Y-102660714D02*
X159591764Y-102589286D01*
X159591764Y-102589286D02*
X159591764Y-102410714D01*
X159591764Y-102410714D02*
X159627478Y-102339286D01*
X159627478Y-102339286D02*
X159663192Y-102303571D01*
X159663192Y-102303571D02*
X159734621Y-102267857D01*
X159734621Y-102267857D02*
X159806050Y-102267857D01*
X159806050Y-102267857D02*
X159913192Y-102303571D01*
X159913192Y-102303571D02*
X160341764Y-102732143D01*
X160341764Y-102732143D02*
X160341764Y-102267857D01*
X160341764Y-101910714D02*
X160341764Y-101767857D01*
X160341764Y-101767857D02*
X160306050Y-101696428D01*
X160306050Y-101696428D02*
X160270335Y-101660714D01*
X160270335Y-101660714D02*
X160163192Y-101589285D01*
X160163192Y-101589285D02*
X160020335Y-101553571D01*
X160020335Y-101553571D02*
X159734621Y-101553571D01*
X159734621Y-101553571D02*
X159663192Y-101589285D01*
X159663192Y-101589285D02*
X159627478Y-101625000D01*
X159627478Y-101625000D02*
X159591764Y-101696428D01*
X159591764Y-101696428D02*
X159591764Y-101839285D01*
X159591764Y-101839285D02*
X159627478Y-101910714D01*
X159627478Y-101910714D02*
X159663192Y-101946428D01*
X159663192Y-101946428D02*
X159734621Y-101982142D01*
X159734621Y-101982142D02*
X159913192Y-101982142D01*
X159913192Y-101982142D02*
X159984621Y-101946428D01*
X159984621Y-101946428D02*
X160020335Y-101910714D01*
X160020335Y-101910714D02*
X160056050Y-101839285D01*
X160056050Y-101839285D02*
X160056050Y-101696428D01*
X160056050Y-101696428D02*
X160020335Y-101625000D01*
X160020335Y-101625000D02*
X159984621Y-101589285D01*
X159984621Y-101589285D02*
X159913192Y-101553571D01*
X140950229Y-92732082D02*
X140950229Y-92782590D01*
X140950229Y-92782590D02*
X140899721Y-92883605D01*
X140899721Y-92883605D02*
X140849214Y-92934113D01*
X140849214Y-92934113D02*
X140748199Y-92984621D01*
X140748199Y-92984621D02*
X140647183Y-92984621D01*
X140647183Y-92984621D02*
X140571422Y-92959367D01*
X140571422Y-92959367D02*
X140445153Y-92883605D01*
X140445153Y-92883605D02*
X140369391Y-92807844D01*
X140369391Y-92807844D02*
X140293630Y-92681575D01*
X140293630Y-92681575D02*
X140268376Y-92605813D01*
X140268376Y-92605813D02*
X140268376Y-92504798D01*
X140268376Y-92504798D02*
X140318884Y-92403783D01*
X140318884Y-92403783D02*
X140369391Y-92353275D01*
X140369391Y-92353275D02*
X140470407Y-92302768D01*
X140470407Y-92302768D02*
X140520914Y-92302768D01*
X141505813Y-92277514D02*
X141202767Y-92580560D01*
X141354290Y-92429037D02*
X140823960Y-91898707D01*
X140823960Y-91898707D02*
X140849214Y-92024976D01*
X140849214Y-92024976D02*
X140849214Y-92125991D01*
X140849214Y-92125991D02*
X140823960Y-92201752D01*
X142010889Y-91772437D02*
X141707844Y-92075483D01*
X141859367Y-91923960D02*
X141329036Y-91393630D01*
X141329036Y-91393630D02*
X141354290Y-91519899D01*
X141354290Y-91519899D02*
X141354290Y-91620914D01*
X141354290Y-91620914D02*
X141329036Y-91696676D01*
X132920335Y-112219643D02*
X132956050Y-112255357D01*
X132956050Y-112255357D02*
X132991764Y-112362500D01*
X132991764Y-112362500D02*
X132991764Y-112433928D01*
X132991764Y-112433928D02*
X132956050Y-112541071D01*
X132956050Y-112541071D02*
X132884621Y-112612500D01*
X132884621Y-112612500D02*
X132813192Y-112648214D01*
X132813192Y-112648214D02*
X132670335Y-112683928D01*
X132670335Y-112683928D02*
X132563192Y-112683928D01*
X132563192Y-112683928D02*
X132420335Y-112648214D01*
X132420335Y-112648214D02*
X132348907Y-112612500D01*
X132348907Y-112612500D02*
X132277478Y-112541071D01*
X132277478Y-112541071D02*
X132241764Y-112433928D01*
X132241764Y-112433928D02*
X132241764Y-112362500D01*
X132241764Y-112362500D02*
X132277478Y-112255357D01*
X132277478Y-112255357D02*
X132313192Y-112219643D01*
X132313192Y-111933928D02*
X132277478Y-111898214D01*
X132277478Y-111898214D02*
X132241764Y-111826786D01*
X132241764Y-111826786D02*
X132241764Y-111648214D01*
X132241764Y-111648214D02*
X132277478Y-111576786D01*
X132277478Y-111576786D02*
X132313192Y-111541071D01*
X132313192Y-111541071D02*
X132384621Y-111505357D01*
X132384621Y-111505357D02*
X132456050Y-111505357D01*
X132456050Y-111505357D02*
X132563192Y-111541071D01*
X132563192Y-111541071D02*
X132991764Y-111969643D01*
X132991764Y-111969643D02*
X132991764Y-111505357D01*
X132241764Y-111255357D02*
X132241764Y-110791071D01*
X132241764Y-110791071D02*
X132527478Y-111041071D01*
X132527478Y-111041071D02*
X132527478Y-110933928D01*
X132527478Y-110933928D02*
X132563192Y-110862500D01*
X132563192Y-110862500D02*
X132598907Y-110826785D01*
X132598907Y-110826785D02*
X132670335Y-110791071D01*
X132670335Y-110791071D02*
X132848907Y-110791071D01*
X132848907Y-110791071D02*
X132920335Y-110826785D01*
X132920335Y-110826785D02*
X132956050Y-110862500D01*
X132956050Y-110862500D02*
X132991764Y-110933928D01*
X132991764Y-110933928D02*
X132991764Y-111148214D01*
X132991764Y-111148214D02*
X132956050Y-111219642D01*
X132956050Y-111219642D02*
X132920335Y-111255357D01*
X139767917Y-87250229D02*
X139717409Y-87250229D01*
X139717409Y-87250229D02*
X139616394Y-87199721D01*
X139616394Y-87199721D02*
X139565886Y-87149214D01*
X139565886Y-87149214D02*
X139515378Y-87048199D01*
X139515378Y-87048199D02*
X139515378Y-86947183D01*
X139515378Y-86947183D02*
X139540632Y-86871422D01*
X139540632Y-86871422D02*
X139616394Y-86745153D01*
X139616394Y-86745153D02*
X139692155Y-86669391D01*
X139692155Y-86669391D02*
X139818424Y-86593630D01*
X139818424Y-86593630D02*
X139894186Y-86568376D01*
X139894186Y-86568376D02*
X139995201Y-86568376D01*
X139995201Y-86568376D02*
X140096216Y-86618884D01*
X140096216Y-86618884D02*
X140146724Y-86669391D01*
X140146724Y-86669391D02*
X140197231Y-86770407D01*
X140197231Y-86770407D02*
X140197231Y-86820914D01*
X140222485Y-87805813D02*
X139919439Y-87502767D01*
X140070962Y-87654290D02*
X140601292Y-87123960D01*
X140601292Y-87123960D02*
X140475023Y-87149214D01*
X140475023Y-87149214D02*
X140374008Y-87149214D01*
X140374008Y-87149214D02*
X140298247Y-87123960D01*
X140828577Y-87805813D02*
X140803323Y-87730052D01*
X140803323Y-87730052D02*
X140803323Y-87679544D01*
X140803323Y-87679544D02*
X140828577Y-87603783D01*
X140828577Y-87603783D02*
X140853831Y-87578529D01*
X140853831Y-87578529D02*
X140929592Y-87553275D01*
X140929592Y-87553275D02*
X140980100Y-87553275D01*
X140980100Y-87553275D02*
X141055861Y-87578529D01*
X141055861Y-87578529D02*
X141156877Y-87679544D01*
X141156877Y-87679544D02*
X141182130Y-87755306D01*
X141182130Y-87755306D02*
X141182130Y-87805813D01*
X141182130Y-87805813D02*
X141156877Y-87881575D01*
X141156877Y-87881575D02*
X141131623Y-87906828D01*
X141131623Y-87906828D02*
X141055861Y-87932082D01*
X141055861Y-87932082D02*
X141005354Y-87932082D01*
X141005354Y-87932082D02*
X140929592Y-87906828D01*
X140929592Y-87906828D02*
X140828577Y-87805813D01*
X140828577Y-87805813D02*
X140752816Y-87780559D01*
X140752816Y-87780559D02*
X140702308Y-87780559D01*
X140702308Y-87780559D02*
X140626546Y-87805813D01*
X140626546Y-87805813D02*
X140525531Y-87906828D01*
X140525531Y-87906828D02*
X140500277Y-87982590D01*
X140500277Y-87982590D02*
X140500277Y-88033097D01*
X140500277Y-88033097D02*
X140525531Y-88108859D01*
X140525531Y-88108859D02*
X140626546Y-88209874D01*
X140626546Y-88209874D02*
X140702308Y-88235128D01*
X140702308Y-88235128D02*
X140752816Y-88235128D01*
X140752816Y-88235128D02*
X140828577Y-88209874D01*
X140828577Y-88209874D02*
X140929592Y-88108859D01*
X140929592Y-88108859D02*
X140954846Y-88033097D01*
X140954846Y-88033097D02*
X140954846Y-87982590D01*
X140954846Y-87982590D02*
X140929592Y-87906828D01*
X143502767Y-96079544D02*
X143502767Y-96130052D01*
X143502767Y-96130052D02*
X143452260Y-96231067D01*
X143452260Y-96231067D02*
X143401752Y-96281575D01*
X143401752Y-96281575D02*
X143300737Y-96332082D01*
X143300737Y-96332082D02*
X143199722Y-96332082D01*
X143199722Y-96332082D02*
X143123960Y-96306828D01*
X143123960Y-96306828D02*
X142997691Y-96231067D01*
X142997691Y-96231067D02*
X142921930Y-96155306D01*
X142921930Y-96155306D02*
X142846168Y-96029037D01*
X142846168Y-96029037D02*
X142820914Y-95953275D01*
X142820914Y-95953275D02*
X142820914Y-95852260D01*
X142820914Y-95852260D02*
X142871422Y-95751245D01*
X142871422Y-95751245D02*
X142921930Y-95700737D01*
X142921930Y-95700737D02*
X143022945Y-95650229D01*
X143022945Y-95650229D02*
X143073452Y-95650229D01*
X143502767Y-95119899D02*
X143250229Y-95372437D01*
X143250229Y-95372437D02*
X143477513Y-95650229D01*
X143477513Y-95650229D02*
X143477513Y-95599722D01*
X143477513Y-95599722D02*
X143502767Y-95523960D01*
X143502767Y-95523960D02*
X143629036Y-95397691D01*
X143629036Y-95397691D02*
X143704798Y-95372437D01*
X143704798Y-95372437D02*
X143755305Y-95372437D01*
X143755305Y-95372437D02*
X143831067Y-95397691D01*
X143831067Y-95397691D02*
X143957336Y-95523960D01*
X143957336Y-95523960D02*
X143982590Y-95599722D01*
X143982590Y-95599722D02*
X143982590Y-95650229D01*
X143982590Y-95650229D02*
X143957336Y-95725991D01*
X143957336Y-95725991D02*
X143831067Y-95852260D01*
X143831067Y-95852260D02*
X143755305Y-95877514D01*
X143755305Y-95877514D02*
X143704798Y-95877514D01*
X138128571Y-109291764D02*
X138128571Y-109898907D01*
X138128571Y-109898907D02*
X138164285Y-109970335D01*
X138164285Y-109970335D02*
X138200000Y-110006050D01*
X138200000Y-110006050D02*
X138271428Y-110041764D01*
X138271428Y-110041764D02*
X138414285Y-110041764D01*
X138414285Y-110041764D02*
X138485714Y-110006050D01*
X138485714Y-110006050D02*
X138521428Y-109970335D01*
X138521428Y-109970335D02*
X138557142Y-109898907D01*
X138557142Y-109898907D02*
X138557142Y-109291764D01*
X139271428Y-109291764D02*
X138914285Y-109291764D01*
X138914285Y-109291764D02*
X138878571Y-109648907D01*
X138878571Y-109648907D02*
X138914285Y-109613192D01*
X138914285Y-109613192D02*
X138985714Y-109577478D01*
X138985714Y-109577478D02*
X139164285Y-109577478D01*
X139164285Y-109577478D02*
X139235714Y-109613192D01*
X139235714Y-109613192D02*
X139271428Y-109648907D01*
X139271428Y-109648907D02*
X139307142Y-109720335D01*
X139307142Y-109720335D02*
X139307142Y-109898907D01*
X139307142Y-109898907D02*
X139271428Y-109970335D01*
X139271428Y-109970335D02*
X139235714Y-110006050D01*
X139235714Y-110006050D02*
X139164285Y-110041764D01*
X139164285Y-110041764D02*
X138985714Y-110041764D01*
X138985714Y-110041764D02*
X138914285Y-110006050D01*
X138914285Y-110006050D02*
X138878571Y-109970335D01*
X168874999Y-109441764D02*
X168624999Y-109084621D01*
X168446428Y-109441764D02*
X168446428Y-108691764D01*
X168446428Y-108691764D02*
X168732142Y-108691764D01*
X168732142Y-108691764D02*
X168803571Y-108727478D01*
X168803571Y-108727478D02*
X168839285Y-108763192D01*
X168839285Y-108763192D02*
X168874999Y-108834621D01*
X168874999Y-108834621D02*
X168874999Y-108941764D01*
X168874999Y-108941764D02*
X168839285Y-109013192D01*
X168839285Y-109013192D02*
X168803571Y-109048907D01*
X168803571Y-109048907D02*
X168732142Y-109084621D01*
X168732142Y-109084621D02*
X168446428Y-109084621D01*
X169589285Y-109441764D02*
X169160714Y-109441764D01*
X169374999Y-109441764D02*
X169374999Y-108691764D01*
X169374999Y-108691764D02*
X169303571Y-108798907D01*
X169303571Y-108798907D02*
X169232142Y-108870335D01*
X169232142Y-108870335D02*
X169160714Y-108906050D01*
X165150229Y-98833098D02*
X164619899Y-98302767D01*
X164619899Y-98302767D02*
X164746168Y-98176498D01*
X164746168Y-98176498D02*
X164847183Y-98125991D01*
X164847183Y-98125991D02*
X164948199Y-98125991D01*
X164948199Y-98125991D02*
X165023960Y-98151245D01*
X165023960Y-98151245D02*
X165150229Y-98227006D01*
X165150229Y-98227006D02*
X165225991Y-98302767D01*
X165225991Y-98302767D02*
X165301752Y-98429037D01*
X165301752Y-98429037D02*
X165327006Y-98504798D01*
X165327006Y-98504798D02*
X165327006Y-98605813D01*
X165327006Y-98605813D02*
X165276498Y-98706828D01*
X165276498Y-98706828D02*
X165150229Y-98833098D01*
X165175483Y-97848199D02*
X165175483Y-97797691D01*
X165175483Y-97797691D02*
X165200737Y-97721930D01*
X165200737Y-97721930D02*
X165327006Y-97595661D01*
X165327006Y-97595661D02*
X165402767Y-97570407D01*
X165402767Y-97570407D02*
X165453275Y-97570407D01*
X165453275Y-97570407D02*
X165529036Y-97595661D01*
X165529036Y-97595661D02*
X165579544Y-97646168D01*
X165579544Y-97646168D02*
X165630052Y-97747184D01*
X165630052Y-97747184D02*
X165630052Y-98353275D01*
X165630052Y-98353275D02*
X165958351Y-98024976D01*
X163417409Y-96400737D02*
X163493170Y-95971422D01*
X163114363Y-96097691D02*
X163644693Y-95567361D01*
X163644693Y-95567361D02*
X163846724Y-95769391D01*
X163846724Y-95769391D02*
X163871978Y-95845153D01*
X163871978Y-95845153D02*
X163871978Y-95895660D01*
X163871978Y-95895660D02*
X163846724Y-95971422D01*
X163846724Y-95971422D02*
X163770962Y-96047183D01*
X163770962Y-96047183D02*
X163695201Y-96072437D01*
X163695201Y-96072437D02*
X163644693Y-96072437D01*
X163644693Y-96072437D02*
X163568932Y-96047183D01*
X163568932Y-96047183D02*
X163366901Y-95845153D01*
X163922485Y-96905813D02*
X163619439Y-96602767D01*
X163770962Y-96754290D02*
X164301292Y-96223960D01*
X164301292Y-96223960D02*
X164175023Y-96249214D01*
X164175023Y-96249214D02*
X164074008Y-96249214D01*
X164074008Y-96249214D02*
X163998247Y-96223960D01*
X164528577Y-96905813D02*
X164503323Y-96830052D01*
X164503323Y-96830052D02*
X164503323Y-96779544D01*
X164503323Y-96779544D02*
X164528577Y-96703783D01*
X164528577Y-96703783D02*
X164553831Y-96678529D01*
X164553831Y-96678529D02*
X164629592Y-96653275D01*
X164629592Y-96653275D02*
X164680100Y-96653275D01*
X164680100Y-96653275D02*
X164755861Y-96678529D01*
X164755861Y-96678529D02*
X164856877Y-96779544D01*
X164856877Y-96779544D02*
X164882130Y-96855306D01*
X164882130Y-96855306D02*
X164882130Y-96905813D01*
X164882130Y-96905813D02*
X164856877Y-96981575D01*
X164856877Y-96981575D02*
X164831623Y-97006828D01*
X164831623Y-97006828D02*
X164755861Y-97032082D01*
X164755861Y-97032082D02*
X164705354Y-97032082D01*
X164705354Y-97032082D02*
X164629592Y-97006828D01*
X164629592Y-97006828D02*
X164528577Y-96905813D01*
X164528577Y-96905813D02*
X164452816Y-96880559D01*
X164452816Y-96880559D02*
X164402308Y-96880559D01*
X164402308Y-96880559D02*
X164326546Y-96905813D01*
X164326546Y-96905813D02*
X164225531Y-97006828D01*
X164225531Y-97006828D02*
X164200277Y-97082590D01*
X164200277Y-97082590D02*
X164200277Y-97133097D01*
X164200277Y-97133097D02*
X164225531Y-97208859D01*
X164225531Y-97208859D02*
X164326546Y-97309874D01*
X164326546Y-97309874D02*
X164402308Y-97335128D01*
X164402308Y-97335128D02*
X164452816Y-97335128D01*
X164452816Y-97335128D02*
X164528577Y-97309874D01*
X164528577Y-97309874D02*
X164629592Y-97208859D01*
X164629592Y-97208859D02*
X164654846Y-97133097D01*
X164654846Y-97133097D02*
X164654846Y-97082590D01*
X164654846Y-97082590D02*
X164629592Y-97006828D01*
X161002767Y-100479544D02*
X161002767Y-100530052D01*
X161002767Y-100530052D02*
X160952260Y-100631067D01*
X160952260Y-100631067D02*
X160901752Y-100681575D01*
X160901752Y-100681575D02*
X160800737Y-100732082D01*
X160800737Y-100732082D02*
X160699722Y-100732082D01*
X160699722Y-100732082D02*
X160623960Y-100706828D01*
X160623960Y-100706828D02*
X160497691Y-100631067D01*
X160497691Y-100631067D02*
X160421930Y-100555306D01*
X160421930Y-100555306D02*
X160346168Y-100429037D01*
X160346168Y-100429037D02*
X160320914Y-100353275D01*
X160320914Y-100353275D02*
X160320914Y-100252260D01*
X160320914Y-100252260D02*
X160371422Y-100151245D01*
X160371422Y-100151245D02*
X160421930Y-100100737D01*
X160421930Y-100100737D02*
X160522945Y-100050229D01*
X160522945Y-100050229D02*
X160573452Y-100050229D01*
X160699722Y-99822945D02*
X161028021Y-99494645D01*
X161028021Y-99494645D02*
X161053275Y-99873453D01*
X161053275Y-99873453D02*
X161129036Y-99797691D01*
X161129036Y-99797691D02*
X161204798Y-99772437D01*
X161204798Y-99772437D02*
X161255305Y-99772437D01*
X161255305Y-99772437D02*
X161331067Y-99797691D01*
X161331067Y-99797691D02*
X161457336Y-99923960D01*
X161457336Y-99923960D02*
X161482590Y-99999722D01*
X161482590Y-99999722D02*
X161482590Y-100050229D01*
X161482590Y-100050229D02*
X161457336Y-100125991D01*
X161457336Y-100125991D02*
X161305813Y-100277514D01*
X161305813Y-100277514D02*
X161230052Y-100302767D01*
X161230052Y-100302767D02*
X161179544Y-100302767D01*
X161970335Y-102982142D02*
X162006050Y-103017856D01*
X162006050Y-103017856D02*
X162041764Y-103124999D01*
X162041764Y-103124999D02*
X162041764Y-103196427D01*
X162041764Y-103196427D02*
X162006050Y-103303570D01*
X162006050Y-103303570D02*
X161934621Y-103374999D01*
X161934621Y-103374999D02*
X161863192Y-103410713D01*
X161863192Y-103410713D02*
X161720335Y-103446427D01*
X161720335Y-103446427D02*
X161613192Y-103446427D01*
X161613192Y-103446427D02*
X161470335Y-103410713D01*
X161470335Y-103410713D02*
X161398907Y-103374999D01*
X161398907Y-103374999D02*
X161327478Y-103303570D01*
X161327478Y-103303570D02*
X161291764Y-103196427D01*
X161291764Y-103196427D02*
X161291764Y-103124999D01*
X161291764Y-103124999D02*
X161327478Y-103017856D01*
X161327478Y-103017856D02*
X161363192Y-102982142D01*
X161291764Y-102732142D02*
X161291764Y-102267856D01*
X161291764Y-102267856D02*
X161577478Y-102517856D01*
X161577478Y-102517856D02*
X161577478Y-102410713D01*
X161577478Y-102410713D02*
X161613192Y-102339285D01*
X161613192Y-102339285D02*
X161648907Y-102303570D01*
X161648907Y-102303570D02*
X161720335Y-102267856D01*
X161720335Y-102267856D02*
X161898907Y-102267856D01*
X161898907Y-102267856D02*
X161970335Y-102303570D01*
X161970335Y-102303570D02*
X162006050Y-102339285D01*
X162006050Y-102339285D02*
X162041764Y-102410713D01*
X162041764Y-102410713D02*
X162041764Y-102624999D01*
X162041764Y-102624999D02*
X162006050Y-102696427D01*
X162006050Y-102696427D02*
X161970335Y-102732142D01*
X161291764Y-101803570D02*
X161291764Y-101732141D01*
X161291764Y-101732141D02*
X161327478Y-101660713D01*
X161327478Y-101660713D02*
X161363192Y-101624999D01*
X161363192Y-101624999D02*
X161434621Y-101589284D01*
X161434621Y-101589284D02*
X161577478Y-101553570D01*
X161577478Y-101553570D02*
X161756050Y-101553570D01*
X161756050Y-101553570D02*
X161898907Y-101589284D01*
X161898907Y-101589284D02*
X161970335Y-101624999D01*
X161970335Y-101624999D02*
X162006050Y-101660713D01*
X162006050Y-101660713D02*
X162041764Y-101732141D01*
X162041764Y-101732141D02*
X162041764Y-101803570D01*
X162041764Y-101803570D02*
X162006050Y-101874999D01*
X162006050Y-101874999D02*
X161970335Y-101910713D01*
X161970335Y-101910713D02*
X161898907Y-101946427D01*
X161898907Y-101946427D02*
X161756050Y-101982141D01*
X161756050Y-101982141D02*
X161577478Y-101982141D01*
X161577478Y-101982141D02*
X161434621Y-101946427D01*
X161434621Y-101946427D02*
X161363192Y-101910713D01*
X161363192Y-101910713D02*
X161327478Y-101874999D01*
X161327478Y-101874999D02*
X161291764Y-101803570D01*
X162967917Y-91861392D02*
X162917409Y-91861392D01*
X162917409Y-91861392D02*
X162816394Y-91810884D01*
X162816394Y-91810884D02*
X162765886Y-91760377D01*
X162765886Y-91760377D02*
X162715378Y-91659362D01*
X162715378Y-91659362D02*
X162715378Y-91558346D01*
X162715378Y-91558346D02*
X162740632Y-91482585D01*
X162740632Y-91482585D02*
X162816394Y-91356316D01*
X162816394Y-91356316D02*
X162892155Y-91280554D01*
X162892155Y-91280554D02*
X163018424Y-91204793D01*
X163018424Y-91204793D02*
X163094186Y-91179539D01*
X163094186Y-91179539D02*
X163195201Y-91179539D01*
X163195201Y-91179539D02*
X163296216Y-91230047D01*
X163296216Y-91230047D02*
X163346724Y-91280554D01*
X163346724Y-91280554D02*
X163397231Y-91381570D01*
X163397231Y-91381570D02*
X163397231Y-91432077D01*
X163422485Y-92416976D02*
X163119439Y-92113930D01*
X163270962Y-92265453D02*
X163801292Y-91735123D01*
X163801292Y-91735123D02*
X163675023Y-91760377D01*
X163675023Y-91760377D02*
X163574008Y-91760377D01*
X163574008Y-91760377D02*
X163498247Y-91735123D01*
X164129592Y-92063423D02*
X164483146Y-92416976D01*
X164483146Y-92416976D02*
X163725531Y-92720022D01*
X136667856Y-114407835D02*
X136632142Y-114443550D01*
X136632142Y-114443550D02*
X136524999Y-114479264D01*
X136524999Y-114479264D02*
X136453571Y-114479264D01*
X136453571Y-114479264D02*
X136346428Y-114443550D01*
X136346428Y-114443550D02*
X136274999Y-114372121D01*
X136274999Y-114372121D02*
X136239285Y-114300692D01*
X136239285Y-114300692D02*
X136203571Y-114157835D01*
X136203571Y-114157835D02*
X136203571Y-114050692D01*
X136203571Y-114050692D02*
X136239285Y-113907835D01*
X136239285Y-113907835D02*
X136274999Y-113836407D01*
X136274999Y-113836407D02*
X136346428Y-113764978D01*
X136346428Y-113764978D02*
X136453571Y-113729264D01*
X136453571Y-113729264D02*
X136524999Y-113729264D01*
X136524999Y-113729264D02*
X136632142Y-113764978D01*
X136632142Y-113764978D02*
X136667856Y-113800692D01*
X136953571Y-113800692D02*
X136989285Y-113764978D01*
X136989285Y-113764978D02*
X137060714Y-113729264D01*
X137060714Y-113729264D02*
X137239285Y-113729264D01*
X137239285Y-113729264D02*
X137310714Y-113764978D01*
X137310714Y-113764978D02*
X137346428Y-113800692D01*
X137346428Y-113800692D02*
X137382142Y-113872121D01*
X137382142Y-113872121D02*
X137382142Y-113943550D01*
X137382142Y-113943550D02*
X137346428Y-114050692D01*
X137346428Y-114050692D02*
X136917856Y-114479264D01*
X136917856Y-114479264D02*
X137382142Y-114479264D01*
X137667857Y-113800692D02*
X137703571Y-113764978D01*
X137703571Y-113764978D02*
X137775000Y-113729264D01*
X137775000Y-113729264D02*
X137953571Y-113729264D01*
X137953571Y-113729264D02*
X138025000Y-113764978D01*
X138025000Y-113764978D02*
X138060714Y-113800692D01*
X138060714Y-113800692D02*
X138096428Y-113872121D01*
X138096428Y-113872121D02*
X138096428Y-113943550D01*
X138096428Y-113943550D02*
X138060714Y-114050692D01*
X138060714Y-114050692D02*
X137632142Y-114479264D01*
X137632142Y-114479264D02*
X138096428Y-114479264D01*
X154120455Y-86902767D02*
X154069947Y-86902767D01*
X154069947Y-86902767D02*
X153968932Y-86852260D01*
X153968932Y-86852260D02*
X153918424Y-86801752D01*
X153918424Y-86801752D02*
X153867917Y-86700737D01*
X153867917Y-86700737D02*
X153867917Y-86599722D01*
X153867917Y-86599722D02*
X153893171Y-86523960D01*
X153893171Y-86523960D02*
X153968932Y-86397691D01*
X153968932Y-86397691D02*
X154044693Y-86321930D01*
X154044693Y-86321930D02*
X154170962Y-86246168D01*
X154170962Y-86246168D02*
X154246724Y-86220914D01*
X154246724Y-86220914D02*
X154347739Y-86220914D01*
X154347739Y-86220914D02*
X154448754Y-86271422D01*
X154448754Y-86271422D02*
X154499262Y-86321930D01*
X154499262Y-86321930D02*
X154549770Y-86422945D01*
X154549770Y-86422945D02*
X154549770Y-86473452D01*
X154322485Y-87205813D02*
X154423501Y-87306828D01*
X154423501Y-87306828D02*
X154499262Y-87332082D01*
X154499262Y-87332082D02*
X154549770Y-87332082D01*
X154549770Y-87332082D02*
X154676039Y-87306828D01*
X154676039Y-87306828D02*
X154802308Y-87231067D01*
X154802308Y-87231067D02*
X155004338Y-87029036D01*
X155004338Y-87029036D02*
X155029592Y-86953275D01*
X155029592Y-86953275D02*
X155029592Y-86902767D01*
X155029592Y-86902767D02*
X155004338Y-86827006D01*
X155004338Y-86827006D02*
X154903323Y-86725991D01*
X154903323Y-86725991D02*
X154827562Y-86700737D01*
X154827562Y-86700737D02*
X154777054Y-86700737D01*
X154777054Y-86700737D02*
X154701293Y-86725991D01*
X154701293Y-86725991D02*
X154575023Y-86852260D01*
X154575023Y-86852260D02*
X154549770Y-86928021D01*
X154549770Y-86928021D02*
X154549770Y-86978529D01*
X154549770Y-86978529D02*
X154575023Y-87054290D01*
X154575023Y-87054290D02*
X154676039Y-87155305D01*
X154676039Y-87155305D02*
X154751800Y-87180559D01*
X154751800Y-87180559D02*
X154802308Y-87180559D01*
X154802308Y-87180559D02*
X154878069Y-87155305D01*
X159402767Y-91079544D02*
X159402767Y-91130052D01*
X159402767Y-91130052D02*
X159352260Y-91231067D01*
X159352260Y-91231067D02*
X159301752Y-91281575D01*
X159301752Y-91281575D02*
X159200737Y-91332082D01*
X159200737Y-91332082D02*
X159099722Y-91332082D01*
X159099722Y-91332082D02*
X159023960Y-91306828D01*
X159023960Y-91306828D02*
X158897691Y-91231067D01*
X158897691Y-91231067D02*
X158821930Y-91155306D01*
X158821930Y-91155306D02*
X158746168Y-91029037D01*
X158746168Y-91029037D02*
X158720914Y-90953275D01*
X158720914Y-90953275D02*
X158720914Y-90852260D01*
X158720914Y-90852260D02*
X158771422Y-90751245D01*
X158771422Y-90751245D02*
X158821930Y-90700737D01*
X158821930Y-90700737D02*
X158922945Y-90650229D01*
X158922945Y-90650229D02*
X158973452Y-90650229D01*
X159453275Y-90523960D02*
X159377513Y-90549214D01*
X159377513Y-90549214D02*
X159327006Y-90549214D01*
X159327006Y-90549214D02*
X159251244Y-90523960D01*
X159251244Y-90523960D02*
X159225991Y-90498706D01*
X159225991Y-90498706D02*
X159200737Y-90422945D01*
X159200737Y-90422945D02*
X159200737Y-90372437D01*
X159200737Y-90372437D02*
X159225991Y-90296676D01*
X159225991Y-90296676D02*
X159327006Y-90195661D01*
X159327006Y-90195661D02*
X159402767Y-90170407D01*
X159402767Y-90170407D02*
X159453275Y-90170407D01*
X159453275Y-90170407D02*
X159529036Y-90195661D01*
X159529036Y-90195661D02*
X159554290Y-90220915D01*
X159554290Y-90220915D02*
X159579544Y-90296676D01*
X159579544Y-90296676D02*
X159579544Y-90347184D01*
X159579544Y-90347184D02*
X159554290Y-90422945D01*
X159554290Y-90422945D02*
X159453275Y-90523960D01*
X159453275Y-90523960D02*
X159428021Y-90599722D01*
X159428021Y-90599722D02*
X159428021Y-90650229D01*
X159428021Y-90650229D02*
X159453275Y-90725991D01*
X159453275Y-90725991D02*
X159554290Y-90827006D01*
X159554290Y-90827006D02*
X159630052Y-90852260D01*
X159630052Y-90852260D02*
X159680559Y-90852260D01*
X159680559Y-90852260D02*
X159756321Y-90827006D01*
X159756321Y-90827006D02*
X159857336Y-90725991D01*
X159857336Y-90725991D02*
X159882590Y-90650229D01*
X159882590Y-90650229D02*
X159882590Y-90599722D01*
X159882590Y-90599722D02*
X159857336Y-90523960D01*
X159857336Y-90523960D02*
X159756321Y-90422945D01*
X159756321Y-90422945D02*
X159680559Y-90397691D01*
X159680559Y-90397691D02*
X159630052Y-90397691D01*
X159630052Y-90397691D02*
X159554290Y-90422945D01*
X157020455Y-84602767D02*
X156969947Y-84602767D01*
X156969947Y-84602767D02*
X156868932Y-84552260D01*
X156868932Y-84552260D02*
X156818424Y-84501752D01*
X156818424Y-84501752D02*
X156767917Y-84400737D01*
X156767917Y-84400737D02*
X156767917Y-84299722D01*
X156767917Y-84299722D02*
X156793171Y-84223960D01*
X156793171Y-84223960D02*
X156868932Y-84097691D01*
X156868932Y-84097691D02*
X156944693Y-84021930D01*
X156944693Y-84021930D02*
X157070962Y-83946168D01*
X157070962Y-83946168D02*
X157146724Y-83920914D01*
X157146724Y-83920914D02*
X157247739Y-83920914D01*
X157247739Y-83920914D02*
X157348754Y-83971422D01*
X157348754Y-83971422D02*
X157399262Y-84021930D01*
X157399262Y-84021930D02*
X157449770Y-84122945D01*
X157449770Y-84122945D02*
X157449770Y-84173452D01*
X157677054Y-84299722D02*
X158030607Y-84653275D01*
X158030607Y-84653275D02*
X157272993Y-84956321D01*
X165270514Y-84741312D02*
X164740184Y-84210982D01*
X164740184Y-84210982D02*
X165573560Y-84438266D01*
X165573560Y-84438266D02*
X165043230Y-83907936D01*
X165220006Y-83731159D02*
X165523052Y-83428114D01*
X165901859Y-84109967D02*
X165371529Y-83579636D01*
X166482697Y-83428113D02*
X166482697Y-83478621D01*
X166482697Y-83478621D02*
X166432190Y-83579636D01*
X166432190Y-83579636D02*
X166381682Y-83630144D01*
X166381682Y-83630144D02*
X166280667Y-83680651D01*
X166280667Y-83680651D02*
X166179651Y-83680651D01*
X166179651Y-83680651D02*
X166103890Y-83655398D01*
X166103890Y-83655398D02*
X165977621Y-83579636D01*
X165977621Y-83579636D02*
X165901859Y-83503875D01*
X165901859Y-83503875D02*
X165826098Y-83377606D01*
X165826098Y-83377606D02*
X165800844Y-83301844D01*
X165800844Y-83301844D02*
X165800844Y-83200829D01*
X165800844Y-83200829D02*
X165851352Y-83099814D01*
X165851352Y-83099814D02*
X165901859Y-83049306D01*
X165901859Y-83049306D02*
X166002875Y-82998798D01*
X166002875Y-82998798D02*
X166053382Y-82998798D01*
X167038281Y-82973545D02*
X166735235Y-83276590D01*
X166886758Y-83125068D02*
X166356428Y-82594737D01*
X166356428Y-82594737D02*
X166381682Y-82721007D01*
X166381682Y-82721007D02*
X166381682Y-82822022D01*
X166381682Y-82822022D02*
X166356428Y-82897783D01*
X165541764Y-111225000D02*
X165184621Y-111475000D01*
X165541764Y-111653571D02*
X164791764Y-111653571D01*
X164791764Y-111653571D02*
X164791764Y-111367857D01*
X164791764Y-111367857D02*
X164827478Y-111296428D01*
X164827478Y-111296428D02*
X164863192Y-111260714D01*
X164863192Y-111260714D02*
X164934621Y-111225000D01*
X164934621Y-111225000D02*
X165041764Y-111225000D01*
X165041764Y-111225000D02*
X165113192Y-111260714D01*
X165113192Y-111260714D02*
X165148907Y-111296428D01*
X165148907Y-111296428D02*
X165184621Y-111367857D01*
X165184621Y-111367857D02*
X165184621Y-111653571D01*
X164863192Y-110939285D02*
X164827478Y-110903571D01*
X164827478Y-110903571D02*
X164791764Y-110832143D01*
X164791764Y-110832143D02*
X164791764Y-110653571D01*
X164791764Y-110653571D02*
X164827478Y-110582143D01*
X164827478Y-110582143D02*
X164863192Y-110546428D01*
X164863192Y-110546428D02*
X164934621Y-110510714D01*
X164934621Y-110510714D02*
X165006050Y-110510714D01*
X165006050Y-110510714D02*
X165113192Y-110546428D01*
X165113192Y-110546428D02*
X165541764Y-110975000D01*
X165541764Y-110975000D02*
X165541764Y-110510714D01*
X168974999Y-110541764D02*
X168724999Y-110184621D01*
X168546428Y-110541764D02*
X168546428Y-109791764D01*
X168546428Y-109791764D02*
X168832142Y-109791764D01*
X168832142Y-109791764D02*
X168903571Y-109827478D01*
X168903571Y-109827478D02*
X168939285Y-109863192D01*
X168939285Y-109863192D02*
X168974999Y-109934621D01*
X168974999Y-109934621D02*
X168974999Y-110041764D01*
X168974999Y-110041764D02*
X168939285Y-110113192D01*
X168939285Y-110113192D02*
X168903571Y-110148907D01*
X168903571Y-110148907D02*
X168832142Y-110184621D01*
X168832142Y-110184621D02*
X168546428Y-110184621D01*
X169224999Y-109791764D02*
X169689285Y-109791764D01*
X169689285Y-109791764D02*
X169439285Y-110077478D01*
X169439285Y-110077478D02*
X169546428Y-110077478D01*
X169546428Y-110077478D02*
X169617857Y-110113192D01*
X169617857Y-110113192D02*
X169653571Y-110148907D01*
X169653571Y-110148907D02*
X169689285Y-110220335D01*
X169689285Y-110220335D02*
X169689285Y-110398907D01*
X169689285Y-110398907D02*
X169653571Y-110470335D01*
X169653571Y-110470335D02*
X169617857Y-110506050D01*
X169617857Y-110506050D02*
X169546428Y-110541764D01*
X169546428Y-110541764D02*
X169332142Y-110541764D01*
X169332142Y-110541764D02*
X169260714Y-110506050D01*
X169260714Y-110506050D02*
X169224999Y-110470335D01*
X151625481Y-103934495D02*
X151574973Y-103934495D01*
X151574973Y-103934495D02*
X151473958Y-103883988D01*
X151473958Y-103883988D02*
X151423450Y-103833480D01*
X151423450Y-103833480D02*
X151372943Y-103732465D01*
X151372943Y-103732465D02*
X151372943Y-103631450D01*
X151372943Y-103631450D02*
X151398197Y-103555688D01*
X151398197Y-103555688D02*
X151473958Y-103429419D01*
X151473958Y-103429419D02*
X151549719Y-103353658D01*
X151549719Y-103353658D02*
X151675988Y-103277896D01*
X151675988Y-103277896D02*
X151751750Y-103252642D01*
X151751750Y-103252642D02*
X151852765Y-103252642D01*
X151852765Y-103252642D02*
X151953780Y-103303150D01*
X151953780Y-103303150D02*
X152004288Y-103353658D01*
X152004288Y-103353658D02*
X152054796Y-103454673D01*
X152054796Y-103454673D02*
X152054796Y-103505180D01*
X152256826Y-103707211D02*
X152307334Y-103707211D01*
X152307334Y-103707211D02*
X152383095Y-103732465D01*
X152383095Y-103732465D02*
X152509364Y-103858734D01*
X152509364Y-103858734D02*
X152534618Y-103934495D01*
X152534618Y-103934495D02*
X152534618Y-103985003D01*
X152534618Y-103985003D02*
X152509364Y-104060764D01*
X152509364Y-104060764D02*
X152458857Y-104111272D01*
X152458857Y-104111272D02*
X152357841Y-104161780D01*
X152357841Y-104161780D02*
X151751750Y-104161780D01*
X151751750Y-104161780D02*
X152080049Y-104490079D01*
X149653275Y-85130052D02*
X149223960Y-85054290D01*
X149350229Y-85433098D02*
X148819899Y-84902767D01*
X148819899Y-84902767D02*
X149021930Y-84700737D01*
X149021930Y-84700737D02*
X149097691Y-84675483D01*
X149097691Y-84675483D02*
X149148199Y-84675483D01*
X149148199Y-84675483D02*
X149223960Y-84700737D01*
X149223960Y-84700737D02*
X149299722Y-84776498D01*
X149299722Y-84776498D02*
X149324975Y-84852260D01*
X149324975Y-84852260D02*
X149324975Y-84902767D01*
X149324975Y-84902767D02*
X149299722Y-84978529D01*
X149299722Y-84978529D02*
X149097691Y-85180559D01*
X149653275Y-84523960D02*
X149577513Y-84549214D01*
X149577513Y-84549214D02*
X149527006Y-84549214D01*
X149527006Y-84549214D02*
X149451244Y-84523960D01*
X149451244Y-84523960D02*
X149425991Y-84498706D01*
X149425991Y-84498706D02*
X149400737Y-84422945D01*
X149400737Y-84422945D02*
X149400737Y-84372437D01*
X149400737Y-84372437D02*
X149425991Y-84296676D01*
X149425991Y-84296676D02*
X149527006Y-84195661D01*
X149527006Y-84195661D02*
X149602767Y-84170407D01*
X149602767Y-84170407D02*
X149653275Y-84170407D01*
X149653275Y-84170407D02*
X149729036Y-84195661D01*
X149729036Y-84195661D02*
X149754290Y-84220915D01*
X149754290Y-84220915D02*
X149779544Y-84296676D01*
X149779544Y-84296676D02*
X149779544Y-84347184D01*
X149779544Y-84347184D02*
X149754290Y-84422945D01*
X149754290Y-84422945D02*
X149653275Y-84523960D01*
X149653275Y-84523960D02*
X149628021Y-84599722D01*
X149628021Y-84599722D02*
X149628021Y-84650229D01*
X149628021Y-84650229D02*
X149653275Y-84725991D01*
X149653275Y-84725991D02*
X149754290Y-84827006D01*
X149754290Y-84827006D02*
X149830052Y-84852260D01*
X149830052Y-84852260D02*
X149880559Y-84852260D01*
X149880559Y-84852260D02*
X149956321Y-84827006D01*
X149956321Y-84827006D02*
X150057336Y-84725991D01*
X150057336Y-84725991D02*
X150082590Y-84650229D01*
X150082590Y-84650229D02*
X150082590Y-84599722D01*
X150082590Y-84599722D02*
X150057336Y-84523960D01*
X150057336Y-84523960D02*
X149956321Y-84422945D01*
X149956321Y-84422945D02*
X149880559Y-84397691D01*
X149880559Y-84397691D02*
X149830052Y-84397691D01*
X149830052Y-84397691D02*
X149754290Y-84422945D01*
X154667917Y-85150229D02*
X154617409Y-85150229D01*
X154617409Y-85150229D02*
X154516394Y-85099721D01*
X154516394Y-85099721D02*
X154465886Y-85049214D01*
X154465886Y-85049214D02*
X154415378Y-84948199D01*
X154415378Y-84948199D02*
X154415378Y-84847183D01*
X154415378Y-84847183D02*
X154440632Y-84771422D01*
X154440632Y-84771422D02*
X154516394Y-84645153D01*
X154516394Y-84645153D02*
X154592155Y-84569391D01*
X154592155Y-84569391D02*
X154718424Y-84493630D01*
X154718424Y-84493630D02*
X154794186Y-84468376D01*
X154794186Y-84468376D02*
X154895201Y-84468376D01*
X154895201Y-84468376D02*
X154996216Y-84518884D01*
X154996216Y-84518884D02*
X155046724Y-84569391D01*
X155046724Y-84569391D02*
X155097231Y-84670407D01*
X155097231Y-84670407D02*
X155097231Y-84720914D01*
X155122485Y-85705813D02*
X154819439Y-85402767D01*
X154970962Y-85554290D02*
X155501292Y-85023960D01*
X155501292Y-85023960D02*
X155375023Y-85049214D01*
X155375023Y-85049214D02*
X155274008Y-85049214D01*
X155274008Y-85049214D02*
X155198247Y-85023960D01*
X155981115Y-85503783D02*
X156031623Y-85554290D01*
X156031623Y-85554290D02*
X156056877Y-85630052D01*
X156056877Y-85630052D02*
X156056877Y-85680559D01*
X156056877Y-85680559D02*
X156031623Y-85756321D01*
X156031623Y-85756321D02*
X155955861Y-85882590D01*
X155955861Y-85882590D02*
X155829592Y-86008859D01*
X155829592Y-86008859D02*
X155703323Y-86084620D01*
X155703323Y-86084620D02*
X155627562Y-86109874D01*
X155627562Y-86109874D02*
X155577054Y-86109874D01*
X155577054Y-86109874D02*
X155501293Y-86084620D01*
X155501293Y-86084620D02*
X155450785Y-86034113D01*
X155450785Y-86034113D02*
X155425531Y-85958351D01*
X155425531Y-85958351D02*
X155425531Y-85907844D01*
X155425531Y-85907844D02*
X155450785Y-85832082D01*
X155450785Y-85832082D02*
X155526546Y-85705813D01*
X155526546Y-85705813D02*
X155652816Y-85579544D01*
X155652816Y-85579544D02*
X155779085Y-85503783D01*
X155779085Y-85503783D02*
X155854846Y-85478529D01*
X155854846Y-85478529D02*
X155905354Y-85478529D01*
X155905354Y-85478529D02*
X155981115Y-85503783D01*
X147602767Y-89879544D02*
X147602767Y-89930052D01*
X147602767Y-89930052D02*
X147552260Y-90031067D01*
X147552260Y-90031067D02*
X147501752Y-90081575D01*
X147501752Y-90081575D02*
X147400737Y-90132082D01*
X147400737Y-90132082D02*
X147299722Y-90132082D01*
X147299722Y-90132082D02*
X147223960Y-90106828D01*
X147223960Y-90106828D02*
X147097691Y-90031067D01*
X147097691Y-90031067D02*
X147021930Y-89955306D01*
X147021930Y-89955306D02*
X146946168Y-89829037D01*
X146946168Y-89829037D02*
X146920914Y-89753275D01*
X146920914Y-89753275D02*
X146920914Y-89652260D01*
X146920914Y-89652260D02*
X146971422Y-89551245D01*
X146971422Y-89551245D02*
X147021930Y-89500737D01*
X147021930Y-89500737D02*
X147122945Y-89450229D01*
X147122945Y-89450229D02*
X147173452Y-89450229D01*
X147754290Y-89121930D02*
X148107844Y-89475483D01*
X147425991Y-89046168D02*
X147678529Y-89551245D01*
X147678529Y-89551245D02*
X148006828Y-89222945D01*
X158717856Y-108670335D02*
X158682142Y-108706050D01*
X158682142Y-108706050D02*
X158574999Y-108741764D01*
X158574999Y-108741764D02*
X158503571Y-108741764D01*
X158503571Y-108741764D02*
X158396428Y-108706050D01*
X158396428Y-108706050D02*
X158324999Y-108634621D01*
X158324999Y-108634621D02*
X158289285Y-108563192D01*
X158289285Y-108563192D02*
X158253571Y-108420335D01*
X158253571Y-108420335D02*
X158253571Y-108313192D01*
X158253571Y-108313192D02*
X158289285Y-108170335D01*
X158289285Y-108170335D02*
X158324999Y-108098907D01*
X158324999Y-108098907D02*
X158396428Y-108027478D01*
X158396428Y-108027478D02*
X158503571Y-107991764D01*
X158503571Y-107991764D02*
X158574999Y-107991764D01*
X158574999Y-107991764D02*
X158682142Y-108027478D01*
X158682142Y-108027478D02*
X158717856Y-108063192D01*
X159432142Y-108741764D02*
X159003571Y-108741764D01*
X159217856Y-108741764D02*
X159217856Y-107991764D01*
X159217856Y-107991764D02*
X159146428Y-108098907D01*
X159146428Y-108098907D02*
X159074999Y-108170335D01*
X159074999Y-108170335D02*
X159003571Y-108206050D01*
X160075000Y-108241764D02*
X160075000Y-108741764D01*
X159896428Y-107956050D02*
X159717857Y-108491764D01*
X159717857Y-108491764D02*
X160182142Y-108491764D01*
X135289264Y-114519643D02*
X134932121Y-114769643D01*
X135289264Y-114948214D02*
X134539264Y-114948214D01*
X134539264Y-114948214D02*
X134539264Y-114662500D01*
X134539264Y-114662500D02*
X134574978Y-114591071D01*
X134574978Y-114591071D02*
X134610692Y-114555357D01*
X134610692Y-114555357D02*
X134682121Y-114519643D01*
X134682121Y-114519643D02*
X134789264Y-114519643D01*
X134789264Y-114519643D02*
X134860692Y-114555357D01*
X134860692Y-114555357D02*
X134896407Y-114591071D01*
X134896407Y-114591071D02*
X134932121Y-114662500D01*
X134932121Y-114662500D02*
X134932121Y-114948214D01*
X135289264Y-113805357D02*
X135289264Y-114233928D01*
X135289264Y-114019643D02*
X134539264Y-114019643D01*
X134539264Y-114019643D02*
X134646407Y-114091071D01*
X134646407Y-114091071D02*
X134717835Y-114162500D01*
X134717835Y-114162500D02*
X134753550Y-114233928D01*
X134539264Y-113555357D02*
X134539264Y-113055357D01*
X134539264Y-113055357D02*
X135289264Y-113376785D01*
X132867856Y-106707835D02*
X132832142Y-106743550D01*
X132832142Y-106743550D02*
X132724999Y-106779264D01*
X132724999Y-106779264D02*
X132653571Y-106779264D01*
X132653571Y-106779264D02*
X132546428Y-106743550D01*
X132546428Y-106743550D02*
X132474999Y-106672121D01*
X132474999Y-106672121D02*
X132439285Y-106600692D01*
X132439285Y-106600692D02*
X132403571Y-106457835D01*
X132403571Y-106457835D02*
X132403571Y-106350692D01*
X132403571Y-106350692D02*
X132439285Y-106207835D01*
X132439285Y-106207835D02*
X132474999Y-106136407D01*
X132474999Y-106136407D02*
X132546428Y-106064978D01*
X132546428Y-106064978D02*
X132653571Y-106029264D01*
X132653571Y-106029264D02*
X132724999Y-106029264D01*
X132724999Y-106029264D02*
X132832142Y-106064978D01*
X132832142Y-106064978D02*
X132867856Y-106100692D01*
X133153571Y-106100692D02*
X133189285Y-106064978D01*
X133189285Y-106064978D02*
X133260714Y-106029264D01*
X133260714Y-106029264D02*
X133439285Y-106029264D01*
X133439285Y-106029264D02*
X133510714Y-106064978D01*
X133510714Y-106064978D02*
X133546428Y-106100692D01*
X133546428Y-106100692D02*
X133582142Y-106172121D01*
X133582142Y-106172121D02*
X133582142Y-106243550D01*
X133582142Y-106243550D02*
X133546428Y-106350692D01*
X133546428Y-106350692D02*
X133117856Y-106779264D01*
X133117856Y-106779264D02*
X133582142Y-106779264D01*
X134296428Y-106779264D02*
X133867857Y-106779264D01*
X134082142Y-106779264D02*
X134082142Y-106029264D01*
X134082142Y-106029264D02*
X134010714Y-106136407D01*
X134010714Y-106136407D02*
X133939285Y-106207835D01*
X133939285Y-106207835D02*
X133867857Y-106243550D01*
X146253275Y-90530053D02*
X145823960Y-90454291D01*
X145950229Y-90833099D02*
X145419899Y-90302768D01*
X145419899Y-90302768D02*
X145621930Y-90100738D01*
X145621930Y-90100738D02*
X145697691Y-90075484D01*
X145697691Y-90075484D02*
X145748199Y-90075484D01*
X145748199Y-90075484D02*
X145823960Y-90100738D01*
X145823960Y-90100738D02*
X145899722Y-90176499D01*
X145899722Y-90176499D02*
X145924975Y-90252261D01*
X145924975Y-90252261D02*
X145924975Y-90302768D01*
X145924975Y-90302768D02*
X145899722Y-90378530D01*
X145899722Y-90378530D02*
X145697691Y-90580560D01*
X146177513Y-89545154D02*
X146076498Y-89646169D01*
X146076498Y-89646169D02*
X146051244Y-89721931D01*
X146051244Y-89721931D02*
X146051244Y-89772438D01*
X146051244Y-89772438D02*
X146076498Y-89898707D01*
X146076498Y-89898707D02*
X146152260Y-90024977D01*
X146152260Y-90024977D02*
X146354290Y-90227007D01*
X146354290Y-90227007D02*
X146430052Y-90252261D01*
X146430052Y-90252261D02*
X146480559Y-90252261D01*
X146480559Y-90252261D02*
X146556321Y-90227007D01*
X146556321Y-90227007D02*
X146657336Y-90125992D01*
X146657336Y-90125992D02*
X146682590Y-90050230D01*
X146682590Y-90050230D02*
X146682590Y-89999723D01*
X146682590Y-89999723D02*
X146657336Y-89923961D01*
X146657336Y-89923961D02*
X146531067Y-89797692D01*
X146531067Y-89797692D02*
X146455305Y-89772438D01*
X146455305Y-89772438D02*
X146404798Y-89772438D01*
X146404798Y-89772438D02*
X146329036Y-89797692D01*
X146329036Y-89797692D02*
X146228021Y-89898707D01*
X146228021Y-89898707D02*
X146202767Y-89974469D01*
X146202767Y-89974469D02*
X146202767Y-90024977D01*
X146202767Y-90024977D02*
X146228021Y-90100738D01*
X133974999Y-100471764D02*
X133724999Y-100114621D01*
X133546428Y-100471764D02*
X133546428Y-99721764D01*
X133546428Y-99721764D02*
X133832142Y-99721764D01*
X133832142Y-99721764D02*
X133903571Y-99757478D01*
X133903571Y-99757478D02*
X133939285Y-99793192D01*
X133939285Y-99793192D02*
X133974999Y-99864621D01*
X133974999Y-99864621D02*
X133974999Y-99971764D01*
X133974999Y-99971764D02*
X133939285Y-100043192D01*
X133939285Y-100043192D02*
X133903571Y-100078907D01*
X133903571Y-100078907D02*
X133832142Y-100114621D01*
X133832142Y-100114621D02*
X133546428Y-100114621D01*
X134653571Y-99721764D02*
X134296428Y-99721764D01*
X134296428Y-99721764D02*
X134260714Y-100078907D01*
X134260714Y-100078907D02*
X134296428Y-100043192D01*
X134296428Y-100043192D02*
X134367857Y-100007478D01*
X134367857Y-100007478D02*
X134546428Y-100007478D01*
X134546428Y-100007478D02*
X134617857Y-100043192D01*
X134617857Y-100043192D02*
X134653571Y-100078907D01*
X134653571Y-100078907D02*
X134689285Y-100150335D01*
X134689285Y-100150335D02*
X134689285Y-100328907D01*
X134689285Y-100328907D02*
X134653571Y-100400335D01*
X134653571Y-100400335D02*
X134617857Y-100436050D01*
X134617857Y-100436050D02*
X134546428Y-100471764D01*
X134546428Y-100471764D02*
X134367857Y-100471764D01*
X134367857Y-100471764D02*
X134296428Y-100436050D01*
X134296428Y-100436050D02*
X134260714Y-100400335D01*
X161050229Y-81332082D02*
X161050229Y-81382590D01*
X161050229Y-81382590D02*
X160999721Y-81483605D01*
X160999721Y-81483605D02*
X160949214Y-81534113D01*
X160949214Y-81534113D02*
X160848199Y-81584621D01*
X160848199Y-81584621D02*
X160747183Y-81584621D01*
X160747183Y-81584621D02*
X160671422Y-81559367D01*
X160671422Y-81559367D02*
X160545153Y-81483605D01*
X160545153Y-81483605D02*
X160469391Y-81407844D01*
X160469391Y-81407844D02*
X160393630Y-81281575D01*
X160393630Y-81281575D02*
X160368376Y-81205813D01*
X160368376Y-81205813D02*
X160368376Y-81104798D01*
X160368376Y-81104798D02*
X160418884Y-81003783D01*
X160418884Y-81003783D02*
X160469391Y-80953275D01*
X160469391Y-80953275D02*
X160570407Y-80902768D01*
X160570407Y-80902768D02*
X160620914Y-80902768D01*
X161605813Y-80877514D02*
X161302767Y-81180560D01*
X161454290Y-81029037D02*
X160923960Y-80498707D01*
X160923960Y-80498707D02*
X160949214Y-80624976D01*
X160949214Y-80624976D02*
X160949214Y-80725991D01*
X160949214Y-80725991D02*
X160923960Y-80801752D01*
X161555306Y-79867361D02*
X161302767Y-80119899D01*
X161302767Y-80119899D02*
X161530052Y-80397691D01*
X161530052Y-80397691D02*
X161530052Y-80347183D01*
X161530052Y-80347183D02*
X161555306Y-80271422D01*
X161555306Y-80271422D02*
X161681575Y-80145153D01*
X161681575Y-80145153D02*
X161757336Y-80119899D01*
X161757336Y-80119899D02*
X161807844Y-80119899D01*
X161807844Y-80119899D02*
X161883605Y-80145153D01*
X161883605Y-80145153D02*
X162009874Y-80271422D01*
X162009874Y-80271422D02*
X162035128Y-80347183D01*
X162035128Y-80347183D02*
X162035128Y-80397691D01*
X162035128Y-80397691D02*
X162009874Y-80473453D01*
X162009874Y-80473453D02*
X161883605Y-80599722D01*
X161883605Y-80599722D02*
X161807844Y-80624975D01*
X161807844Y-80624975D02*
X161757336Y-80624975D01*
X160453275Y-80730052D02*
X160023960Y-80654290D01*
X160150229Y-81033098D02*
X159619899Y-80502767D01*
X159619899Y-80502767D02*
X159821930Y-80300737D01*
X159821930Y-80300737D02*
X159897691Y-80275483D01*
X159897691Y-80275483D02*
X159948199Y-80275483D01*
X159948199Y-80275483D02*
X160023960Y-80300737D01*
X160023960Y-80300737D02*
X160099722Y-80376498D01*
X160099722Y-80376498D02*
X160124975Y-80452260D01*
X160124975Y-80452260D02*
X160124975Y-80502767D01*
X160124975Y-80502767D02*
X160099722Y-80578529D01*
X160099722Y-80578529D02*
X159897691Y-80780559D01*
X160554290Y-79921930D02*
X160907844Y-80275483D01*
X160225991Y-79846168D02*
X160478529Y-80351245D01*
X160478529Y-80351245D02*
X160806828Y-80022945D01*
X142851765Y-118749999D02*
X143387479Y-118749999D01*
X143387479Y-118749999D02*
X143494622Y-118785714D01*
X143494622Y-118785714D02*
X143566051Y-118857142D01*
X143566051Y-118857142D02*
X143601765Y-118964285D01*
X143601765Y-118964285D02*
X143601765Y-119035714D01*
X142923193Y-118428570D02*
X142887479Y-118392856D01*
X142887479Y-118392856D02*
X142851765Y-118321428D01*
X142851765Y-118321428D02*
X142851765Y-118142856D01*
X142851765Y-118142856D02*
X142887479Y-118071428D01*
X142887479Y-118071428D02*
X142923193Y-118035713D01*
X142923193Y-118035713D02*
X142994622Y-117999999D01*
X142994622Y-117999999D02*
X143066051Y-117999999D01*
X143066051Y-117999999D02*
X143173193Y-118035713D01*
X143173193Y-118035713D02*
X143601765Y-118464285D01*
X143601765Y-118464285D02*
X143601765Y-117999999D01*
X170648928Y-113741764D02*
X170648928Y-112991764D01*
X170648928Y-112991764D02*
X170827499Y-112991764D01*
X170827499Y-112991764D02*
X170934642Y-113027478D01*
X170934642Y-113027478D02*
X171006071Y-113098907D01*
X171006071Y-113098907D02*
X171041785Y-113170335D01*
X171041785Y-113170335D02*
X171077499Y-113313192D01*
X171077499Y-113313192D02*
X171077499Y-113420335D01*
X171077499Y-113420335D02*
X171041785Y-113563192D01*
X171041785Y-113563192D02*
X171006071Y-113634621D01*
X171006071Y-113634621D02*
X170934642Y-113706050D01*
X170934642Y-113706050D02*
X170827499Y-113741764D01*
X170827499Y-113741764D02*
X170648928Y-113741764D01*
X171327499Y-112991764D02*
X171791785Y-112991764D01*
X171791785Y-112991764D02*
X171541785Y-113277478D01*
X171541785Y-113277478D02*
X171648928Y-113277478D01*
X171648928Y-113277478D02*
X171720357Y-113313192D01*
X171720357Y-113313192D02*
X171756071Y-113348907D01*
X171756071Y-113348907D02*
X171791785Y-113420335D01*
X171791785Y-113420335D02*
X171791785Y-113598907D01*
X171791785Y-113598907D02*
X171756071Y-113670335D01*
X171756071Y-113670335D02*
X171720357Y-113706050D01*
X171720357Y-113706050D02*
X171648928Y-113741764D01*
X171648928Y-113741764D02*
X171434642Y-113741764D01*
X171434642Y-113741764D02*
X171363214Y-113706050D01*
X171363214Y-113706050D02*
X171327499Y-113670335D01*
X138853276Y-82330052D02*
X138423961Y-82254290D01*
X138550230Y-82633098D02*
X138019900Y-82102767D01*
X138019900Y-82102767D02*
X138221931Y-81900737D01*
X138221931Y-81900737D02*
X138297692Y-81875483D01*
X138297692Y-81875483D02*
X138348200Y-81875483D01*
X138348200Y-81875483D02*
X138423961Y-81900737D01*
X138423961Y-81900737D02*
X138499723Y-81976498D01*
X138499723Y-81976498D02*
X138524976Y-82052260D01*
X138524976Y-82052260D02*
X138524976Y-82102767D01*
X138524976Y-82102767D02*
X138499723Y-82178529D01*
X138499723Y-82178529D02*
X138297692Y-82380559D01*
X139105814Y-82077514D02*
X139206829Y-81976498D01*
X139206829Y-81976498D02*
X139232083Y-81900737D01*
X139232083Y-81900737D02*
X139232083Y-81850229D01*
X139232083Y-81850229D02*
X139206829Y-81723960D01*
X139206829Y-81723960D02*
X139131068Y-81597691D01*
X139131068Y-81597691D02*
X138929037Y-81395661D01*
X138929037Y-81395661D02*
X138853276Y-81370407D01*
X138853276Y-81370407D02*
X138802768Y-81370407D01*
X138802768Y-81370407D02*
X138727007Y-81395661D01*
X138727007Y-81395661D02*
X138625992Y-81496676D01*
X138625992Y-81496676D02*
X138600738Y-81572437D01*
X138600738Y-81572437D02*
X138600738Y-81622945D01*
X138600738Y-81622945D02*
X138625992Y-81698706D01*
X138625992Y-81698706D02*
X138752261Y-81824976D01*
X138752261Y-81824976D02*
X138828022Y-81850229D01*
X138828022Y-81850229D02*
X138878530Y-81850229D01*
X138878530Y-81850229D02*
X138954291Y-81824976D01*
X138954291Y-81824976D02*
X139055306Y-81723960D01*
X139055306Y-81723960D02*
X139080560Y-81648199D01*
X139080560Y-81648199D02*
X139080560Y-81597691D01*
X139080560Y-81597691D02*
X139055306Y-81521930D01*
X163570335Y-102982142D02*
X163606050Y-103017856D01*
X163606050Y-103017856D02*
X163641764Y-103124999D01*
X163641764Y-103124999D02*
X163641764Y-103196427D01*
X163641764Y-103196427D02*
X163606050Y-103303570D01*
X163606050Y-103303570D02*
X163534621Y-103374999D01*
X163534621Y-103374999D02*
X163463192Y-103410713D01*
X163463192Y-103410713D02*
X163320335Y-103446427D01*
X163320335Y-103446427D02*
X163213192Y-103446427D01*
X163213192Y-103446427D02*
X163070335Y-103410713D01*
X163070335Y-103410713D02*
X162998907Y-103374999D01*
X162998907Y-103374999D02*
X162927478Y-103303570D01*
X162927478Y-103303570D02*
X162891764Y-103196427D01*
X162891764Y-103196427D02*
X162891764Y-103124999D01*
X162891764Y-103124999D02*
X162927478Y-103017856D01*
X162927478Y-103017856D02*
X162963192Y-102982142D01*
X163641764Y-102267856D02*
X163641764Y-102696427D01*
X163641764Y-102482142D02*
X162891764Y-102482142D01*
X162891764Y-102482142D02*
X162998907Y-102553570D01*
X162998907Y-102553570D02*
X163070335Y-102624999D01*
X163070335Y-102624999D02*
X163106050Y-102696427D01*
X162891764Y-102017856D02*
X162891764Y-101553570D01*
X162891764Y-101553570D02*
X163177478Y-101803570D01*
X163177478Y-101803570D02*
X163177478Y-101696427D01*
X163177478Y-101696427D02*
X163213192Y-101624999D01*
X163213192Y-101624999D02*
X163248907Y-101589284D01*
X163248907Y-101589284D02*
X163320335Y-101553570D01*
X163320335Y-101553570D02*
X163498907Y-101553570D01*
X163498907Y-101553570D02*
X163570335Y-101589284D01*
X163570335Y-101589284D02*
X163606050Y-101624999D01*
X163606050Y-101624999D02*
X163641764Y-101696427D01*
X163641764Y-101696427D02*
X163641764Y-101910713D01*
X163641764Y-101910713D02*
X163606050Y-101982141D01*
X163606050Y-101982141D02*
X163570335Y-102017856D01*
X131820335Y-112219643D02*
X131856050Y-112255357D01*
X131856050Y-112255357D02*
X131891764Y-112362500D01*
X131891764Y-112362500D02*
X131891764Y-112433928D01*
X131891764Y-112433928D02*
X131856050Y-112541071D01*
X131856050Y-112541071D02*
X131784621Y-112612500D01*
X131784621Y-112612500D02*
X131713192Y-112648214D01*
X131713192Y-112648214D02*
X131570335Y-112683928D01*
X131570335Y-112683928D02*
X131463192Y-112683928D01*
X131463192Y-112683928D02*
X131320335Y-112648214D01*
X131320335Y-112648214D02*
X131248907Y-112612500D01*
X131248907Y-112612500D02*
X131177478Y-112541071D01*
X131177478Y-112541071D02*
X131141764Y-112433928D01*
X131141764Y-112433928D02*
X131141764Y-112362500D01*
X131141764Y-112362500D02*
X131177478Y-112255357D01*
X131177478Y-112255357D02*
X131213192Y-112219643D01*
X131213192Y-111933928D02*
X131177478Y-111898214D01*
X131177478Y-111898214D02*
X131141764Y-111826786D01*
X131141764Y-111826786D02*
X131141764Y-111648214D01*
X131141764Y-111648214D02*
X131177478Y-111576786D01*
X131177478Y-111576786D02*
X131213192Y-111541071D01*
X131213192Y-111541071D02*
X131284621Y-111505357D01*
X131284621Y-111505357D02*
X131356050Y-111505357D01*
X131356050Y-111505357D02*
X131463192Y-111541071D01*
X131463192Y-111541071D02*
X131891764Y-111969643D01*
X131891764Y-111969643D02*
X131891764Y-111505357D01*
X131141764Y-110826785D02*
X131141764Y-111183928D01*
X131141764Y-111183928D02*
X131498907Y-111219642D01*
X131498907Y-111219642D02*
X131463192Y-111183928D01*
X131463192Y-111183928D02*
X131427478Y-111112500D01*
X131427478Y-111112500D02*
X131427478Y-110933928D01*
X131427478Y-110933928D02*
X131463192Y-110862500D01*
X131463192Y-110862500D02*
X131498907Y-110826785D01*
X131498907Y-110826785D02*
X131570335Y-110791071D01*
X131570335Y-110791071D02*
X131748907Y-110791071D01*
X131748907Y-110791071D02*
X131820335Y-110826785D01*
X131820335Y-110826785D02*
X131856050Y-110862500D01*
X131856050Y-110862500D02*
X131891764Y-110933928D01*
X131891764Y-110933928D02*
X131891764Y-111112500D01*
X131891764Y-111112500D02*
X131856050Y-111183928D01*
X131856050Y-111183928D02*
X131820335Y-111219642D01*
X158670335Y-102682143D02*
X158706050Y-102717857D01*
X158706050Y-102717857D02*
X158741764Y-102825000D01*
X158741764Y-102825000D02*
X158741764Y-102896428D01*
X158741764Y-102896428D02*
X158706050Y-103003571D01*
X158706050Y-103003571D02*
X158634621Y-103075000D01*
X158634621Y-103075000D02*
X158563192Y-103110714D01*
X158563192Y-103110714D02*
X158420335Y-103146428D01*
X158420335Y-103146428D02*
X158313192Y-103146428D01*
X158313192Y-103146428D02*
X158170335Y-103110714D01*
X158170335Y-103110714D02*
X158098907Y-103075000D01*
X158098907Y-103075000D02*
X158027478Y-103003571D01*
X158027478Y-103003571D02*
X157991764Y-102896428D01*
X157991764Y-102896428D02*
X157991764Y-102825000D01*
X157991764Y-102825000D02*
X158027478Y-102717857D01*
X158027478Y-102717857D02*
X158063192Y-102682143D01*
X158063192Y-102396428D02*
X158027478Y-102360714D01*
X158027478Y-102360714D02*
X157991764Y-102289286D01*
X157991764Y-102289286D02*
X157991764Y-102110714D01*
X157991764Y-102110714D02*
X158027478Y-102039286D01*
X158027478Y-102039286D02*
X158063192Y-102003571D01*
X158063192Y-102003571D02*
X158134621Y-101967857D01*
X158134621Y-101967857D02*
X158206050Y-101967857D01*
X158206050Y-101967857D02*
X158313192Y-102003571D01*
X158313192Y-102003571D02*
X158741764Y-102432143D01*
X158741764Y-102432143D02*
X158741764Y-101967857D01*
X158313192Y-101539285D02*
X158277478Y-101610714D01*
X158277478Y-101610714D02*
X158241764Y-101646428D01*
X158241764Y-101646428D02*
X158170335Y-101682142D01*
X158170335Y-101682142D02*
X158134621Y-101682142D01*
X158134621Y-101682142D02*
X158063192Y-101646428D01*
X158063192Y-101646428D02*
X158027478Y-101610714D01*
X158027478Y-101610714D02*
X157991764Y-101539285D01*
X157991764Y-101539285D02*
X157991764Y-101396428D01*
X157991764Y-101396428D02*
X158027478Y-101325000D01*
X158027478Y-101325000D02*
X158063192Y-101289285D01*
X158063192Y-101289285D02*
X158134621Y-101253571D01*
X158134621Y-101253571D02*
X158170335Y-101253571D01*
X158170335Y-101253571D02*
X158241764Y-101289285D01*
X158241764Y-101289285D02*
X158277478Y-101325000D01*
X158277478Y-101325000D02*
X158313192Y-101396428D01*
X158313192Y-101396428D02*
X158313192Y-101539285D01*
X158313192Y-101539285D02*
X158348907Y-101610714D01*
X158348907Y-101610714D02*
X158384621Y-101646428D01*
X158384621Y-101646428D02*
X158456050Y-101682142D01*
X158456050Y-101682142D02*
X158598907Y-101682142D01*
X158598907Y-101682142D02*
X158670335Y-101646428D01*
X158670335Y-101646428D02*
X158706050Y-101610714D01*
X158706050Y-101610714D02*
X158741764Y-101539285D01*
X158741764Y-101539285D02*
X158741764Y-101396428D01*
X158741764Y-101396428D02*
X158706050Y-101325000D01*
X158706050Y-101325000D02*
X158670335Y-101289285D01*
X158670335Y-101289285D02*
X158598907Y-101253571D01*
X158598907Y-101253571D02*
X158456050Y-101253571D01*
X158456050Y-101253571D02*
X158384621Y-101289285D01*
X158384621Y-101289285D02*
X158348907Y-101325000D01*
X158348907Y-101325000D02*
X158313192Y-101396428D01*
X141142856Y-106707835D02*
X141107142Y-106743550D01*
X141107142Y-106743550D02*
X140999999Y-106779264D01*
X140999999Y-106779264D02*
X140928571Y-106779264D01*
X140928571Y-106779264D02*
X140821428Y-106743550D01*
X140821428Y-106743550D02*
X140749999Y-106672121D01*
X140749999Y-106672121D02*
X140714285Y-106600692D01*
X140714285Y-106600692D02*
X140678571Y-106457835D01*
X140678571Y-106457835D02*
X140678571Y-106350692D01*
X140678571Y-106350692D02*
X140714285Y-106207835D01*
X140714285Y-106207835D02*
X140749999Y-106136407D01*
X140749999Y-106136407D02*
X140821428Y-106064978D01*
X140821428Y-106064978D02*
X140928571Y-106029264D01*
X140928571Y-106029264D02*
X140999999Y-106029264D01*
X140999999Y-106029264D02*
X141107142Y-106064978D01*
X141107142Y-106064978D02*
X141142856Y-106100692D01*
X141428571Y-106100692D02*
X141464285Y-106064978D01*
X141464285Y-106064978D02*
X141535714Y-106029264D01*
X141535714Y-106029264D02*
X141714285Y-106029264D01*
X141714285Y-106029264D02*
X141785714Y-106064978D01*
X141785714Y-106064978D02*
X141821428Y-106100692D01*
X141821428Y-106100692D02*
X141857142Y-106172121D01*
X141857142Y-106172121D02*
X141857142Y-106243550D01*
X141857142Y-106243550D02*
X141821428Y-106350692D01*
X141821428Y-106350692D02*
X141392856Y-106779264D01*
X141392856Y-106779264D02*
X141857142Y-106779264D01*
X142321428Y-106029264D02*
X142392857Y-106029264D01*
X142392857Y-106029264D02*
X142464285Y-106064978D01*
X142464285Y-106064978D02*
X142500000Y-106100692D01*
X142500000Y-106100692D02*
X142535714Y-106172121D01*
X142535714Y-106172121D02*
X142571428Y-106314978D01*
X142571428Y-106314978D02*
X142571428Y-106493550D01*
X142571428Y-106493550D02*
X142535714Y-106636407D01*
X142535714Y-106636407D02*
X142500000Y-106707835D01*
X142500000Y-106707835D02*
X142464285Y-106743550D01*
X142464285Y-106743550D02*
X142392857Y-106779264D01*
X142392857Y-106779264D02*
X142321428Y-106779264D01*
X142321428Y-106779264D02*
X142250000Y-106743550D01*
X142250000Y-106743550D02*
X142214285Y-106707835D01*
X142214285Y-106707835D02*
X142178571Y-106636407D01*
X142178571Y-106636407D02*
X142142857Y-106493550D01*
X142142857Y-106493550D02*
X142142857Y-106314978D01*
X142142857Y-106314978D02*
X142178571Y-106172121D01*
X142178571Y-106172121D02*
X142214285Y-106100692D01*
X142214285Y-106100692D02*
X142250000Y-106064978D01*
X142250000Y-106064978D02*
X142321428Y-106029264D01*
X170128571Y-104791764D02*
X170128571Y-105398907D01*
X170128571Y-105398907D02*
X170164285Y-105470335D01*
X170164285Y-105470335D02*
X170200000Y-105506050D01*
X170200000Y-105506050D02*
X170271428Y-105541764D01*
X170271428Y-105541764D02*
X170414285Y-105541764D01*
X170414285Y-105541764D02*
X170485714Y-105506050D01*
X170485714Y-105506050D02*
X170521428Y-105470335D01*
X170521428Y-105470335D02*
X170557142Y-105398907D01*
X170557142Y-105398907D02*
X170557142Y-104791764D01*
X170878571Y-104863192D02*
X170914285Y-104827478D01*
X170914285Y-104827478D02*
X170985714Y-104791764D01*
X170985714Y-104791764D02*
X171164285Y-104791764D01*
X171164285Y-104791764D02*
X171235714Y-104827478D01*
X171235714Y-104827478D02*
X171271428Y-104863192D01*
X171271428Y-104863192D02*
X171307142Y-104934621D01*
X171307142Y-104934621D02*
X171307142Y-105006050D01*
X171307142Y-105006050D02*
X171271428Y-105113192D01*
X171271428Y-105113192D02*
X170842856Y-105541764D01*
X170842856Y-105541764D02*
X171307142Y-105541764D01*
X170320356Y-112441764D02*
X170070356Y-112084621D01*
X169891785Y-112441764D02*
X169891785Y-111691764D01*
X169891785Y-111691764D02*
X170177499Y-111691764D01*
X170177499Y-111691764D02*
X170248928Y-111727478D01*
X170248928Y-111727478D02*
X170284642Y-111763192D01*
X170284642Y-111763192D02*
X170320356Y-111834621D01*
X170320356Y-111834621D02*
X170320356Y-111941764D01*
X170320356Y-111941764D02*
X170284642Y-112013192D01*
X170284642Y-112013192D02*
X170248928Y-112048907D01*
X170248928Y-112048907D02*
X170177499Y-112084621D01*
X170177499Y-112084621D02*
X169891785Y-112084621D01*
X171034642Y-112441764D02*
X170606071Y-112441764D01*
X170820356Y-112441764D02*
X170820356Y-111691764D01*
X170820356Y-111691764D02*
X170748928Y-111798907D01*
X170748928Y-111798907D02*
X170677499Y-111870335D01*
X170677499Y-111870335D02*
X170606071Y-111906050D01*
X171391785Y-112441764D02*
X171534642Y-112441764D01*
X171534642Y-112441764D02*
X171606071Y-112406050D01*
X171606071Y-112406050D02*
X171641785Y-112370335D01*
X171641785Y-112370335D02*
X171713214Y-112263192D01*
X171713214Y-112263192D02*
X171748928Y-112120335D01*
X171748928Y-112120335D02*
X171748928Y-111834621D01*
X171748928Y-111834621D02*
X171713214Y-111763192D01*
X171713214Y-111763192D02*
X171677500Y-111727478D01*
X171677500Y-111727478D02*
X171606071Y-111691764D01*
X171606071Y-111691764D02*
X171463214Y-111691764D01*
X171463214Y-111691764D02*
X171391785Y-111727478D01*
X171391785Y-111727478D02*
X171356071Y-111763192D01*
X171356071Y-111763192D02*
X171320357Y-111834621D01*
X171320357Y-111834621D02*
X171320357Y-112013192D01*
X171320357Y-112013192D02*
X171356071Y-112084621D01*
X171356071Y-112084621D02*
X171391785Y-112120335D01*
X171391785Y-112120335D02*
X171463214Y-112156050D01*
X171463214Y-112156050D02*
X171606071Y-112156050D01*
X171606071Y-112156050D02*
X171677500Y-112120335D01*
X171677500Y-112120335D02*
X171713214Y-112084621D01*
X171713214Y-112084621D02*
X171748928Y-112013192D01*
X165267917Y-94150229D02*
X165217409Y-94150229D01*
X165217409Y-94150229D02*
X165116394Y-94099721D01*
X165116394Y-94099721D02*
X165065886Y-94049214D01*
X165065886Y-94049214D02*
X165015378Y-93948199D01*
X165015378Y-93948199D02*
X165015378Y-93847183D01*
X165015378Y-93847183D02*
X165040632Y-93771422D01*
X165040632Y-93771422D02*
X165116394Y-93645153D01*
X165116394Y-93645153D02*
X165192155Y-93569391D01*
X165192155Y-93569391D02*
X165318424Y-93493630D01*
X165318424Y-93493630D02*
X165394186Y-93468376D01*
X165394186Y-93468376D02*
X165495201Y-93468376D01*
X165495201Y-93468376D02*
X165596216Y-93518884D01*
X165596216Y-93518884D02*
X165646724Y-93569391D01*
X165646724Y-93569391D02*
X165697231Y-93670407D01*
X165697231Y-93670407D02*
X165697231Y-93720914D01*
X165722485Y-94705813D02*
X165419439Y-94402767D01*
X165570962Y-94554290D02*
X166101292Y-94023960D01*
X166101292Y-94023960D02*
X165975023Y-94049214D01*
X165975023Y-94049214D02*
X165874008Y-94049214D01*
X165874008Y-94049214D02*
X165798247Y-94023960D01*
X166707384Y-94630052D02*
X166606369Y-94529036D01*
X166606369Y-94529036D02*
X166530607Y-94503783D01*
X166530607Y-94503783D02*
X166480100Y-94503783D01*
X166480100Y-94503783D02*
X166353831Y-94529036D01*
X166353831Y-94529036D02*
X166227562Y-94604798D01*
X166227562Y-94604798D02*
X166025531Y-94806828D01*
X166025531Y-94806828D02*
X166000277Y-94882590D01*
X166000277Y-94882590D02*
X166000277Y-94933097D01*
X166000277Y-94933097D02*
X166025531Y-95008859D01*
X166025531Y-95008859D02*
X166126546Y-95109874D01*
X166126546Y-95109874D02*
X166202308Y-95135128D01*
X166202308Y-95135128D02*
X166252816Y-95135128D01*
X166252816Y-95135128D02*
X166328577Y-95109874D01*
X166328577Y-95109874D02*
X166454846Y-94983605D01*
X166454846Y-94983605D02*
X166480100Y-94907844D01*
X166480100Y-94907844D02*
X166480100Y-94857336D01*
X166480100Y-94857336D02*
X166454846Y-94781575D01*
X166454846Y-94781575D02*
X166353831Y-94680559D01*
X166353831Y-94680559D02*
X166278069Y-94655306D01*
X166278069Y-94655306D02*
X166227562Y-94655306D01*
X166227562Y-94655306D02*
X166151800Y-94680559D01*
X140272499Y-95371764D02*
X140022499Y-95014621D01*
X139843928Y-95371764D02*
X139843928Y-94621764D01*
X139843928Y-94621764D02*
X140129642Y-94621764D01*
X140129642Y-94621764D02*
X140201071Y-94657478D01*
X140201071Y-94657478D02*
X140236785Y-94693192D01*
X140236785Y-94693192D02*
X140272499Y-94764621D01*
X140272499Y-94764621D02*
X140272499Y-94871764D01*
X140272499Y-94871764D02*
X140236785Y-94943192D01*
X140236785Y-94943192D02*
X140201071Y-94978907D01*
X140201071Y-94978907D02*
X140129642Y-95014621D01*
X140129642Y-95014621D02*
X139843928Y-95014621D01*
X140522499Y-94621764D02*
X141022499Y-94621764D01*
X141022499Y-94621764D02*
X140701071Y-95371764D01*
X139646429Y-99471764D02*
X139646429Y-98721764D01*
X139646429Y-98721764D02*
X139825000Y-98721764D01*
X139825000Y-98721764D02*
X139932143Y-98757478D01*
X139932143Y-98757478D02*
X140003572Y-98828907D01*
X140003572Y-98828907D02*
X140039286Y-98900335D01*
X140039286Y-98900335D02*
X140075000Y-99043192D01*
X140075000Y-99043192D02*
X140075000Y-99150335D01*
X140075000Y-99150335D02*
X140039286Y-99293192D01*
X140039286Y-99293192D02*
X140003572Y-99364621D01*
X140003572Y-99364621D02*
X139932143Y-99436050D01*
X139932143Y-99436050D02*
X139825000Y-99471764D01*
X139825000Y-99471764D02*
X139646429Y-99471764D01*
X140789286Y-99471764D02*
X140360715Y-99471764D01*
X140575000Y-99471764D02*
X140575000Y-98721764D01*
X140575000Y-98721764D02*
X140503572Y-98828907D01*
X140503572Y-98828907D02*
X140432143Y-98900335D01*
X140432143Y-98900335D02*
X140360715Y-98936050D01*
X162120455Y-93302767D02*
X162069947Y-93302767D01*
X162069947Y-93302767D02*
X161968932Y-93252260D01*
X161968932Y-93252260D02*
X161918424Y-93201752D01*
X161918424Y-93201752D02*
X161867917Y-93100737D01*
X161867917Y-93100737D02*
X161867917Y-92999722D01*
X161867917Y-92999722D02*
X161893171Y-92923960D01*
X161893171Y-92923960D02*
X161968932Y-92797691D01*
X161968932Y-92797691D02*
X162044693Y-92721930D01*
X162044693Y-92721930D02*
X162170962Y-92646168D01*
X162170962Y-92646168D02*
X162246724Y-92620914D01*
X162246724Y-92620914D02*
X162347739Y-92620914D01*
X162347739Y-92620914D02*
X162448754Y-92671422D01*
X162448754Y-92671422D02*
X162499262Y-92721930D01*
X162499262Y-92721930D02*
X162549770Y-92822945D01*
X162549770Y-92822945D02*
X162549770Y-92873452D01*
X162575023Y-93858351D02*
X162271978Y-93555305D01*
X162423501Y-93706828D02*
X162953831Y-93176498D01*
X162953831Y-93176498D02*
X162827562Y-93201752D01*
X162827562Y-93201752D02*
X162726546Y-93201752D01*
X162726546Y-93201752D02*
X162650785Y-93176498D01*
X134020335Y-112219643D02*
X134056050Y-112255357D01*
X134056050Y-112255357D02*
X134091764Y-112362500D01*
X134091764Y-112362500D02*
X134091764Y-112433928D01*
X134091764Y-112433928D02*
X134056050Y-112541071D01*
X134056050Y-112541071D02*
X133984621Y-112612500D01*
X133984621Y-112612500D02*
X133913192Y-112648214D01*
X133913192Y-112648214D02*
X133770335Y-112683928D01*
X133770335Y-112683928D02*
X133663192Y-112683928D01*
X133663192Y-112683928D02*
X133520335Y-112648214D01*
X133520335Y-112648214D02*
X133448907Y-112612500D01*
X133448907Y-112612500D02*
X133377478Y-112541071D01*
X133377478Y-112541071D02*
X133341764Y-112433928D01*
X133341764Y-112433928D02*
X133341764Y-112362500D01*
X133341764Y-112362500D02*
X133377478Y-112255357D01*
X133377478Y-112255357D02*
X133413192Y-112219643D01*
X133413192Y-111933928D02*
X133377478Y-111898214D01*
X133377478Y-111898214D02*
X133341764Y-111826786D01*
X133341764Y-111826786D02*
X133341764Y-111648214D01*
X133341764Y-111648214D02*
X133377478Y-111576786D01*
X133377478Y-111576786D02*
X133413192Y-111541071D01*
X133413192Y-111541071D02*
X133484621Y-111505357D01*
X133484621Y-111505357D02*
X133556050Y-111505357D01*
X133556050Y-111505357D02*
X133663192Y-111541071D01*
X133663192Y-111541071D02*
X134091764Y-111969643D01*
X134091764Y-111969643D02*
X134091764Y-111505357D01*
X133591764Y-110862500D02*
X134091764Y-110862500D01*
X133306050Y-111041071D02*
X133841764Y-111219642D01*
X133841764Y-111219642D02*
X133841764Y-110755357D01*
X147201012Y-105732567D02*
X147150504Y-105732567D01*
X147150504Y-105732567D02*
X147049489Y-105682059D01*
X147049489Y-105682059D02*
X146998981Y-105631552D01*
X146998981Y-105631552D02*
X146948473Y-105530537D01*
X146948473Y-105530537D02*
X146948473Y-105429521D01*
X146948473Y-105429521D02*
X146973727Y-105353760D01*
X146973727Y-105353760D02*
X147049489Y-105227491D01*
X147049489Y-105227491D02*
X147125250Y-105151729D01*
X147125250Y-105151729D02*
X147251519Y-105075968D01*
X147251519Y-105075968D02*
X147327281Y-105050714D01*
X147327281Y-105050714D02*
X147428296Y-105050714D01*
X147428296Y-105050714D02*
X147529311Y-105101222D01*
X147529311Y-105101222D02*
X147579819Y-105151729D01*
X147579819Y-105151729D02*
X147630326Y-105252745D01*
X147630326Y-105252745D02*
X147630326Y-105303252D01*
X147655580Y-106288151D02*
X147352534Y-105985105D01*
X147504057Y-106136628D02*
X148034387Y-105606298D01*
X148034387Y-105606298D02*
X147908118Y-105631552D01*
X147908118Y-105631552D02*
X147807103Y-105631552D01*
X147807103Y-105631552D02*
X147731342Y-105606298D01*
X148337433Y-106010359D02*
X148387941Y-106010359D01*
X148387941Y-106010359D02*
X148463702Y-106035613D01*
X148463702Y-106035613D02*
X148589972Y-106161882D01*
X148589972Y-106161882D02*
X148615225Y-106237644D01*
X148615225Y-106237644D02*
X148615225Y-106288151D01*
X148615225Y-106288151D02*
X148589972Y-106363913D01*
X148589972Y-106363913D02*
X148539464Y-106414420D01*
X148539464Y-106414420D02*
X148438449Y-106464928D01*
X148438449Y-106464928D02*
X147832357Y-106464928D01*
X147832357Y-106464928D02*
X148160657Y-106793227D01*
X148141764Y-115317856D02*
X147784621Y-115067856D01*
X148141764Y-114889285D02*
X147391764Y-114889285D01*
X147391764Y-114889285D02*
X147391764Y-115174999D01*
X147391764Y-115174999D02*
X147427478Y-115246428D01*
X147427478Y-115246428D02*
X147463192Y-115282142D01*
X147463192Y-115282142D02*
X147534621Y-115317856D01*
X147534621Y-115317856D02*
X147641764Y-115317856D01*
X147641764Y-115317856D02*
X147713192Y-115282142D01*
X147713192Y-115282142D02*
X147748907Y-115246428D01*
X147748907Y-115246428D02*
X147784621Y-115174999D01*
X147784621Y-115174999D02*
X147784621Y-114889285D01*
X148141764Y-116032142D02*
X148141764Y-115603571D01*
X148141764Y-115817856D02*
X147391764Y-115817856D01*
X147391764Y-115817856D02*
X147498907Y-115746428D01*
X147498907Y-115746428D02*
X147570335Y-115674999D01*
X147570335Y-115674999D02*
X147606050Y-115603571D01*
X147463192Y-116317857D02*
X147427478Y-116353571D01*
X147427478Y-116353571D02*
X147391764Y-116425000D01*
X147391764Y-116425000D02*
X147391764Y-116603571D01*
X147391764Y-116603571D02*
X147427478Y-116675000D01*
X147427478Y-116675000D02*
X147463192Y-116710714D01*
X147463192Y-116710714D02*
X147534621Y-116746428D01*
X147534621Y-116746428D02*
X147606050Y-116746428D01*
X147606050Y-116746428D02*
X147713192Y-116710714D01*
X147713192Y-116710714D02*
X148141764Y-116282142D01*
X148141764Y-116282142D02*
X148141764Y-116746428D01*
X149141764Y-115317856D02*
X148784621Y-115067856D01*
X149141764Y-114889285D02*
X148391764Y-114889285D01*
X148391764Y-114889285D02*
X148391764Y-115174999D01*
X148391764Y-115174999D02*
X148427478Y-115246428D01*
X148427478Y-115246428D02*
X148463192Y-115282142D01*
X148463192Y-115282142D02*
X148534621Y-115317856D01*
X148534621Y-115317856D02*
X148641764Y-115317856D01*
X148641764Y-115317856D02*
X148713192Y-115282142D01*
X148713192Y-115282142D02*
X148748907Y-115246428D01*
X148748907Y-115246428D02*
X148784621Y-115174999D01*
X148784621Y-115174999D02*
X148784621Y-114889285D01*
X149141764Y-116032142D02*
X149141764Y-115603571D01*
X149141764Y-115817856D02*
X148391764Y-115817856D01*
X148391764Y-115817856D02*
X148498907Y-115746428D01*
X148498907Y-115746428D02*
X148570335Y-115674999D01*
X148570335Y-115674999D02*
X148606050Y-115603571D01*
X149141764Y-116746428D02*
X149141764Y-116317857D01*
X149141764Y-116532142D02*
X148391764Y-116532142D01*
X148391764Y-116532142D02*
X148498907Y-116460714D01*
X148498907Y-116460714D02*
X148570335Y-116389285D01*
X148570335Y-116389285D02*
X148606050Y-116317857D01*
X155841764Y-115317856D02*
X155484621Y-115067856D01*
X155841764Y-114889285D02*
X155091764Y-114889285D01*
X155091764Y-114889285D02*
X155091764Y-115174999D01*
X155091764Y-115174999D02*
X155127478Y-115246428D01*
X155127478Y-115246428D02*
X155163192Y-115282142D01*
X155163192Y-115282142D02*
X155234621Y-115317856D01*
X155234621Y-115317856D02*
X155341764Y-115317856D01*
X155341764Y-115317856D02*
X155413192Y-115282142D01*
X155413192Y-115282142D02*
X155448907Y-115246428D01*
X155448907Y-115246428D02*
X155484621Y-115174999D01*
X155484621Y-115174999D02*
X155484621Y-114889285D01*
X155841764Y-116032142D02*
X155841764Y-115603571D01*
X155841764Y-115817856D02*
X155091764Y-115817856D01*
X155091764Y-115817856D02*
X155198907Y-115746428D01*
X155198907Y-115746428D02*
X155270335Y-115674999D01*
X155270335Y-115674999D02*
X155306050Y-115603571D01*
X155091764Y-116282142D02*
X155091764Y-116746428D01*
X155091764Y-116746428D02*
X155377478Y-116496428D01*
X155377478Y-116496428D02*
X155377478Y-116603571D01*
X155377478Y-116603571D02*
X155413192Y-116675000D01*
X155413192Y-116675000D02*
X155448907Y-116710714D01*
X155448907Y-116710714D02*
X155520335Y-116746428D01*
X155520335Y-116746428D02*
X155698907Y-116746428D01*
X155698907Y-116746428D02*
X155770335Y-116710714D01*
X155770335Y-116710714D02*
X155806050Y-116675000D01*
X155806050Y-116675000D02*
X155841764Y-116603571D01*
X155841764Y-116603571D02*
X155841764Y-116389285D01*
X155841764Y-116389285D02*
X155806050Y-116317857D01*
X155806050Y-116317857D02*
X155770335Y-116282142D01*
X154641764Y-115317856D02*
X154284621Y-115067856D01*
X154641764Y-114889285D02*
X153891764Y-114889285D01*
X153891764Y-114889285D02*
X153891764Y-115174999D01*
X153891764Y-115174999D02*
X153927478Y-115246428D01*
X153927478Y-115246428D02*
X153963192Y-115282142D01*
X153963192Y-115282142D02*
X154034621Y-115317856D01*
X154034621Y-115317856D02*
X154141764Y-115317856D01*
X154141764Y-115317856D02*
X154213192Y-115282142D01*
X154213192Y-115282142D02*
X154248907Y-115246428D01*
X154248907Y-115246428D02*
X154284621Y-115174999D01*
X154284621Y-115174999D02*
X154284621Y-114889285D01*
X154641764Y-116032142D02*
X154641764Y-115603571D01*
X154641764Y-115817856D02*
X153891764Y-115817856D01*
X153891764Y-115817856D02*
X153998907Y-115746428D01*
X153998907Y-115746428D02*
X154070335Y-115674999D01*
X154070335Y-115674999D02*
X154106050Y-115603571D01*
X154141764Y-116675000D02*
X154641764Y-116675000D01*
X153856050Y-116496428D02*
X154391764Y-116317857D01*
X154391764Y-116317857D02*
X154391764Y-116782142D01*
X147041764Y-115317856D02*
X146684621Y-115067856D01*
X147041764Y-114889285D02*
X146291764Y-114889285D01*
X146291764Y-114889285D02*
X146291764Y-115174999D01*
X146291764Y-115174999D02*
X146327478Y-115246428D01*
X146327478Y-115246428D02*
X146363192Y-115282142D01*
X146363192Y-115282142D02*
X146434621Y-115317856D01*
X146434621Y-115317856D02*
X146541764Y-115317856D01*
X146541764Y-115317856D02*
X146613192Y-115282142D01*
X146613192Y-115282142D02*
X146648907Y-115246428D01*
X146648907Y-115246428D02*
X146684621Y-115174999D01*
X146684621Y-115174999D02*
X146684621Y-114889285D01*
X147041764Y-116032142D02*
X147041764Y-115603571D01*
X147041764Y-115817856D02*
X146291764Y-115817856D01*
X146291764Y-115817856D02*
X146398907Y-115746428D01*
X146398907Y-115746428D02*
X146470335Y-115674999D01*
X146470335Y-115674999D02*
X146506050Y-115603571D01*
X146291764Y-116675000D02*
X146291764Y-116532142D01*
X146291764Y-116532142D02*
X146327478Y-116460714D01*
X146327478Y-116460714D02*
X146363192Y-116425000D01*
X146363192Y-116425000D02*
X146470335Y-116353571D01*
X146470335Y-116353571D02*
X146613192Y-116317857D01*
X146613192Y-116317857D02*
X146898907Y-116317857D01*
X146898907Y-116317857D02*
X146970335Y-116353571D01*
X146970335Y-116353571D02*
X147006050Y-116389285D01*
X147006050Y-116389285D02*
X147041764Y-116460714D01*
X147041764Y-116460714D02*
X147041764Y-116603571D01*
X147041764Y-116603571D02*
X147006050Y-116675000D01*
X147006050Y-116675000D02*
X146970335Y-116710714D01*
X146970335Y-116710714D02*
X146898907Y-116746428D01*
X146898907Y-116746428D02*
X146720335Y-116746428D01*
X146720335Y-116746428D02*
X146648907Y-116710714D01*
X146648907Y-116710714D02*
X146613192Y-116675000D01*
X146613192Y-116675000D02*
X146577478Y-116603571D01*
X146577478Y-116603571D02*
X146577478Y-116460714D01*
X146577478Y-116460714D02*
X146613192Y-116389285D01*
X146613192Y-116389285D02*
X146648907Y-116353571D01*
X146648907Y-116353571D02*
X146720335Y-116317857D01*
X153441764Y-115317856D02*
X153084621Y-115067856D01*
X153441764Y-114889285D02*
X152691764Y-114889285D01*
X152691764Y-114889285D02*
X152691764Y-115174999D01*
X152691764Y-115174999D02*
X152727478Y-115246428D01*
X152727478Y-115246428D02*
X152763192Y-115282142D01*
X152763192Y-115282142D02*
X152834621Y-115317856D01*
X152834621Y-115317856D02*
X152941764Y-115317856D01*
X152941764Y-115317856D02*
X153013192Y-115282142D01*
X153013192Y-115282142D02*
X153048907Y-115246428D01*
X153048907Y-115246428D02*
X153084621Y-115174999D01*
X153084621Y-115174999D02*
X153084621Y-114889285D01*
X153441764Y-116032142D02*
X153441764Y-115603571D01*
X153441764Y-115817856D02*
X152691764Y-115817856D01*
X152691764Y-115817856D02*
X152798907Y-115746428D01*
X152798907Y-115746428D02*
X152870335Y-115674999D01*
X152870335Y-115674999D02*
X152906050Y-115603571D01*
X152691764Y-116496428D02*
X152691764Y-116567857D01*
X152691764Y-116567857D02*
X152727478Y-116639285D01*
X152727478Y-116639285D02*
X152763192Y-116675000D01*
X152763192Y-116675000D02*
X152834621Y-116710714D01*
X152834621Y-116710714D02*
X152977478Y-116746428D01*
X152977478Y-116746428D02*
X153156050Y-116746428D01*
X153156050Y-116746428D02*
X153298907Y-116710714D01*
X153298907Y-116710714D02*
X153370335Y-116675000D01*
X153370335Y-116675000D02*
X153406050Y-116639285D01*
X153406050Y-116639285D02*
X153441764Y-116567857D01*
X153441764Y-116567857D02*
X153441764Y-116496428D01*
X153441764Y-116496428D02*
X153406050Y-116425000D01*
X153406050Y-116425000D02*
X153370335Y-116389285D01*
X153370335Y-116389285D02*
X153298907Y-116353571D01*
X153298907Y-116353571D02*
X153156050Y-116317857D01*
X153156050Y-116317857D02*
X152977478Y-116317857D01*
X152977478Y-116317857D02*
X152834621Y-116353571D01*
X152834621Y-116353571D02*
X152763192Y-116389285D01*
X152763192Y-116389285D02*
X152727478Y-116425000D01*
X152727478Y-116425000D02*
X152691764Y-116496428D01*
D11*
X160939970Y-88861219D02*
X161138781Y-89060030D01*
X161661219Y-88139970D02*
X161860030Y-88338781D01*
X159590000Y-105240581D02*
X159590000Y-104959419D01*
X160610000Y-105240581D02*
X160610000Y-104959419D01*
X142138781Y-92239970D02*
X141939970Y-92438781D01*
X142860030Y-92961219D02*
X142661219Y-93160030D01*
X132640000Y-109178081D02*
X132640000Y-108896919D01*
X133660000Y-109178081D02*
X133660000Y-108896919D01*
X140739970Y-86661219D02*
X140938781Y-86860030D01*
X141461219Y-85939970D02*
X141660030Y-86138781D01*
X143039970Y-93538781D02*
X143238781Y-93339970D01*
X143761219Y-94260030D02*
X143960030Y-94061219D01*
X135990000Y-111710000D02*
X135990000Y-111450000D01*
X135990000Y-111710000D02*
X136250000Y-111710000D01*
X141410000Y-107690000D02*
X141150000Y-107690000D01*
X141410000Y-107690000D02*
X141410000Y-107950000D01*
X141410000Y-111710000D02*
X141150000Y-111710000D01*
X141410000Y-111710000D02*
X141410000Y-111450000D01*
D10*
X135990000Y-107690000D02*
X135630000Y-107690000D01*
X135990000Y-107330000D01*
X135990000Y-107690000D01*
G36*
X135990000Y-107690000D02*
G01*
X135630000Y-107690000D01*
X135990000Y-107330000D01*
X135990000Y-107690000D01*
G37*
D11*
X167367621Y-108719999D02*
X167032379Y-108719999D01*
X167367621Y-109480001D02*
X167032379Y-109480001D01*
X166810885Y-97628562D02*
X168426624Y-96012823D01*
X167387177Y-94973376D02*
X165771438Y-96589115D01*
X168426624Y-96012823D02*
X167387177Y-94973376D01*
X170444671Y-92005256D02*
X171060306Y-93696703D01*
X171807225Y-91509327D02*
X170444671Y-92005256D01*
X172725942Y-98273006D02*
X171795650Y-98611606D01*
X173341581Y-99964453D02*
X172725942Y-98273006D01*
X174704135Y-99468523D02*
X173341581Y-99964453D01*
X176919703Y-97310616D02*
X174891522Y-91738240D01*
X164649825Y-96087227D02*
X164412773Y-95850175D01*
X165187227Y-95549825D02*
X164950175Y-95312773D01*
X159939970Y-98338781D02*
X160138781Y-98139970D01*
X160661219Y-99060030D02*
X160860030Y-98861219D01*
X161190000Y-105240581D02*
X161190000Y-104959419D01*
X162210000Y-105240581D02*
X162210000Y-104959419D01*
X164338781Y-91460030D02*
X164139970Y-91261219D01*
X165060030Y-90738781D02*
X164861219Y-90539970D01*
X137009420Y-112327500D02*
X137290580Y-112327500D01*
X137009420Y-113347500D02*
X137290580Y-113347500D01*
X155938781Y-89060030D02*
X155739970Y-88861219D01*
X156660030Y-88338781D02*
X156461219Y-88139970D01*
X158138781Y-89139970D02*
X157939970Y-89338781D01*
X158860030Y-89861219D02*
X158661219Y-90060030D01*
X132815000Y-89995000D02*
X132815000Y-89300000D01*
X133500000Y-89995000D02*
X132815000Y-89995000D01*
X134185000Y-88605000D02*
X138060000Y-88605000D01*
X134185000Y-88691724D02*
X134185000Y-88605000D01*
X134185000Y-89995000D02*
X134185000Y-89908276D01*
X134185000Y-89995000D02*
X138060000Y-89995000D01*
X138060000Y-88905507D02*
X138060000Y-88605000D01*
X138060000Y-89995000D02*
X138060000Y-89694493D01*
X158838781Y-86760030D02*
X158639970Y-86561219D01*
X159560030Y-86038781D02*
X159361219Y-85839970D01*
X145173369Y-95700000D02*
X145845120Y-96371751D01*
X145845120Y-95028249D02*
X145173369Y-95700000D01*
X151728249Y-89145120D02*
X152400000Y-88473369D01*
X152400000Y-88473369D02*
X153071751Y-89145120D01*
X152400000Y-102926631D02*
X151728249Y-102254880D01*
X153071751Y-102254880D02*
X152400000Y-102926631D01*
X158954880Y-96371751D02*
X159626631Y-95700000D01*
X159626631Y-95700000D02*
X158954880Y-95028249D01*
X159962507Y-94685302D02*
X159481674Y-95166134D01*
X159389751Y-94593378D01*
X159962507Y-94685302D01*
G36*
X159962507Y-94685302D02*
G01*
X159481674Y-95166134D01*
X159389751Y-94593378D01*
X159962507Y-94685302D01*
G37*
X164687247Y-82079999D02*
X164351714Y-82415532D01*
X165426174Y-82818926D02*
X165090641Y-83154459D01*
X163819999Y-109967621D02*
X163819999Y-109632379D01*
X164580001Y-109967621D02*
X164580001Y-109632379D01*
X167032379Y-109819999D02*
X167367621Y-109819999D01*
X167032379Y-110580001D02*
X167367621Y-110580001D01*
X150038781Y-104760030D02*
X149839970Y-104561219D01*
X150760030Y-104038781D02*
X150561219Y-103839970D01*
X147812773Y-86049825D02*
X148049825Y-85812773D01*
X148350175Y-86587227D02*
X148587227Y-86350175D01*
X157038781Y-87860030D02*
X156839970Y-87661219D01*
X157760030Y-87138781D02*
X157561219Y-86939970D01*
X166103983Y-90841421D02*
X167058578Y-91796016D01*
X167341420Y-89603984D02*
X168296015Y-90558579D01*
X148938781Y-87639970D02*
X148739970Y-87838781D01*
X149660030Y-88361219D02*
X149461219Y-88560030D01*
X127245000Y-99400000D02*
X127245000Y-100300000D01*
X127455000Y-99200000D02*
X127245000Y-99400000D01*
X127455000Y-100500000D02*
X127245000Y-100300000D01*
X127455000Y-100500000D02*
X128745000Y-100500000D01*
X128745000Y-97750000D02*
X128745000Y-103450000D01*
X128745000Y-99200000D02*
X127455000Y-99200000D01*
X129755001Y-104050000D02*
X130545000Y-104050000D01*
X130545000Y-97150000D02*
X129755001Y-97150000D01*
X131595000Y-99000000D02*
X131595000Y-100700000D01*
X131595000Y-102000000D02*
X131595000Y-102200000D01*
X162346267Y-107090000D02*
X162053733Y-107090000D01*
X162346267Y-108110000D02*
X162053733Y-108110000D01*
X134569999Y-111569879D02*
X134569999Y-111905121D01*
X135330001Y-111569879D02*
X135330001Y-111905121D01*
X136065581Y-105927500D02*
X135784419Y-105927500D01*
X136065581Y-106947500D02*
X135784419Y-106947500D01*
X146012773Y-91149825D02*
X146249825Y-90912773D01*
X146550175Y-91687227D02*
X146787227Y-91450175D01*
X133932379Y-100920000D02*
X134267621Y-100920000D01*
X133932379Y-101680000D02*
X134267621Y-101680000D01*
D12*
X152496900Y-124170000D02*
X145563000Y-124170000D01*
X159020000Y-110200000D02*
X155920000Y-110200000D01*
X160549000Y-125186000D02*
X158017900Y-125186000D01*
X152496900Y-124170000D02*
G75*
G02*
X157017999Y-125002001I-50J-12700110D01*
G01*
X158017900Y-125186000D02*
G75*
G02*
X157018006Y-125001985I0J2808600D01*
G01*
D11*
X138125001Y-103562500D02*
X136774999Y-103562500D01*
X138125001Y-105312500D02*
X136774999Y-105312500D01*
X163339970Y-81238781D02*
X163538781Y-81039970D01*
X164061219Y-81960030D02*
X164260030Y-81761219D01*
X162281402Y-80642718D02*
X162518454Y-80405666D01*
X162818804Y-81180120D02*
X163055856Y-80943068D01*
X140140000Y-117805000D02*
X140140000Y-118105507D01*
X140140000Y-118894493D02*
X140140000Y-119195000D01*
X141015000Y-117805000D02*
X140140000Y-117805000D01*
X141015000Y-117805000D02*
X141015000Y-117891724D01*
X141015000Y-119108276D02*
X141015000Y-119195000D01*
X141015000Y-119195000D02*
X140140000Y-119195000D01*
X141700000Y-117805000D02*
X142385000Y-117805000D01*
X142385000Y-117805000D02*
X142385000Y-118500000D01*
X168102500Y-114235000D02*
X170387500Y-114235000D01*
X170387500Y-112765000D02*
X168102500Y-112765000D01*
X170387500Y-114235000D02*
X170387500Y-112765000D01*
X139649825Y-81912773D02*
X139412773Y-82149825D01*
X140187227Y-82450175D02*
X139950175Y-82687227D01*
X162790000Y-105240581D02*
X162790000Y-104959419D01*
X163810000Y-105240581D02*
X163810000Y-104959419D01*
X159118019Y-84863604D02*
X163183883Y-88929468D01*
X163183883Y-88929468D02*
X165729468Y-86383883D01*
X165729468Y-86383883D02*
X161663604Y-82318019D01*
X131040000Y-108896919D02*
X131040000Y-109178081D01*
X132060000Y-108896919D02*
X132060000Y-109178081D01*
X157990000Y-105240581D02*
X157990000Y-104959419D01*
X159010000Y-105240581D02*
X159010000Y-104959419D01*
X138884420Y-105927500D02*
X139165580Y-105927500D01*
X138884420Y-106947500D02*
X139165580Y-106947500D01*
X166840000Y-102165000D02*
X166840000Y-102735000D01*
X166840000Y-108235000D02*
X166840000Y-107665000D01*
X170700000Y-102165000D02*
X166840000Y-102165000D01*
X170700000Y-102165000D02*
X174560000Y-102165000D01*
X170700000Y-108235000D02*
X166840000Y-108235000D01*
X170700000Y-108235000D02*
X174560000Y-108235000D01*
X174560000Y-102165000D02*
X174560000Y-102735000D01*
X174560000Y-108235000D02*
X174560000Y-107665000D01*
X165712500Y-102735000D02*
X165472500Y-102405000D01*
X165952500Y-102405000D01*
X165712500Y-102735000D01*
G36*
X165712500Y-102735000D02*
G01*
X165472500Y-102405000D01*
X165952500Y-102405000D01*
X165712500Y-102735000D01*
G37*
X168434879Y-111720000D02*
X168770121Y-111720000D01*
X168434879Y-112480000D02*
X168770121Y-112480000D01*
X166439970Y-93561219D02*
X166638781Y-93760030D01*
X167161219Y-92839970D02*
X167360030Y-93038781D01*
X140229879Y-95819999D02*
X140565121Y-95819999D01*
X140229879Y-96580001D02*
X140565121Y-96580001D01*
X139400001Y-98435000D02*
X141685001Y-98435000D01*
X141685001Y-96965000D02*
X139400001Y-96965000D01*
X141685001Y-98435000D02*
X141685001Y-96965000D01*
X161438781Y-94660030D02*
X161239970Y-94461219D01*
X162160030Y-93938781D02*
X161961219Y-93739970D01*
X134240000Y-109178081D02*
X134240000Y-108896919D01*
X135260000Y-109178081D02*
X135260000Y-108896919D01*
D12*
X144553553Y-88089087D02*
X140310913Y-83846447D01*
X148089087Y-84553553D02*
X143846447Y-80310913D01*
D13*
X145862706Y-88456783D02*
G75*
G02*
X145662706Y-88456783I-100000J0D01*
G01*
X145662706Y-88456783D02*
G75*
G02*
X145862706Y-88456783I100000J0D01*
G01*
D11*
X148739970Y-105661219D02*
X148938781Y-105860030D01*
X149461219Y-104939970D02*
X149660030Y-105138781D01*
%LPC*%
D14*
X160851992Y-88051992D03*
X161948008Y-89148008D03*
D15*
X160100000Y-105875000D03*
X160100000Y-104325000D03*
D16*
X142948008Y-92151992D03*
X141851992Y-93248008D03*
D15*
X133150000Y-109812500D03*
X133150000Y-108262500D03*
D14*
X140651992Y-85851992D03*
X141748008Y-86948008D03*
D17*
X142951992Y-94348008D03*
X144048008Y-93251992D03*
D18*
X136450000Y-108037500D03*
D19*
X136312500Y-108950000D03*
X136312500Y-109450000D03*
X136312500Y-109950000D03*
X136312500Y-110450000D03*
D18*
X136450000Y-111362500D03*
X136950000Y-111362500D03*
X137450000Y-111362500D03*
X137950000Y-111362500D03*
X138450000Y-111362500D03*
X138950000Y-111362500D03*
X139450000Y-111362500D03*
X139950000Y-111362500D03*
X140450000Y-111362500D03*
X140950000Y-111362500D03*
D19*
X141087500Y-110450000D03*
X141087500Y-109950000D03*
X141087500Y-109450000D03*
X141087500Y-108950000D03*
D18*
X140950000Y-108037500D03*
X140450000Y-108037500D03*
X139950000Y-108037500D03*
X139450000Y-108037500D03*
X138950000Y-108037500D03*
X138450000Y-108037500D03*
X137950000Y-108037500D03*
X137450000Y-108037500D03*
X136950000Y-108037500D03*
D20*
X167797500Y-109100000D03*
X166602500Y-109100000D03*
D21*
X167413694Y-95986306D03*
X166300000Y-97100000D03*
D22*
X172402855Y-97794661D03*
X171975331Y-96620045D03*
X171547807Y-95445430D03*
X171120280Y-94270813D03*
D23*
X176042610Y-98438628D03*
X173494561Y-91437918D03*
D24*
X165222496Y-96122496D03*
X164377504Y-95277504D03*
D17*
X159851992Y-99148008D03*
X160948008Y-98051992D03*
D15*
X161700000Y-105875000D03*
X161700000Y-104325000D03*
D25*
X165148008Y-91548008D03*
X164051992Y-90451992D03*
D26*
X136375000Y-112837500D03*
X137925000Y-112837500D03*
D25*
X156748008Y-89148008D03*
X155651992Y-88051992D03*
D16*
X158948008Y-89051992D03*
X157851992Y-90148008D03*
D27*
X133500000Y-89300000D03*
D28*
X134500000Y-89300000D03*
X135500001Y-89300000D03*
X136500000Y-89300000D03*
X137500000Y-89300000D03*
D25*
X159648008Y-86848008D03*
X158551992Y-85751992D03*
D29*
X168843488Y-117413150D03*
D30*
X159064481Y-94338819D03*
X158710928Y-93985266D03*
X158357375Y-93631713D03*
X158003821Y-93278159D03*
X157650268Y-92924606D03*
X157296714Y-92571052D03*
X156943161Y-92217499D03*
X156589608Y-91863946D03*
X156236054Y-91510392D03*
X155882501Y-91156839D03*
X155528948Y-90803286D03*
X155175394Y-90449732D03*
X154821841Y-90096179D03*
X154468287Y-89742625D03*
X154114734Y-89389072D03*
X153761181Y-89035519D03*
D31*
X151038819Y-89035519D03*
X150685266Y-89389072D03*
X150331713Y-89742625D03*
X149978159Y-90096179D03*
X149624606Y-90449732D03*
X149271052Y-90803286D03*
X148917499Y-91156839D03*
X148563946Y-91510392D03*
X148210392Y-91863946D03*
X147856839Y-92217499D03*
X147503286Y-92571052D03*
X147149732Y-92924606D03*
X146796179Y-93278159D03*
X146442625Y-93631713D03*
X146089072Y-93985266D03*
X145735519Y-94338819D03*
D30*
X145735519Y-97061181D03*
X146089072Y-97414734D03*
X146442625Y-97768287D03*
X146796179Y-98121841D03*
X147149732Y-98475394D03*
X147503286Y-98828948D03*
X147856839Y-99182501D03*
X148210392Y-99536054D03*
X148563946Y-99889608D03*
X148917499Y-100243161D03*
X149271052Y-100596714D03*
X149624606Y-100950268D03*
X149978159Y-101303821D03*
X150331713Y-101657375D03*
X150685266Y-102010928D03*
X151038819Y-102364481D03*
D31*
X153761181Y-102364481D03*
X154114734Y-102010928D03*
X154468287Y-101657375D03*
X154821841Y-101303821D03*
X155175394Y-100950268D03*
X155528948Y-100596714D03*
X155882501Y-100243161D03*
X156236054Y-99889608D03*
X156589608Y-99536054D03*
X156943161Y-99182501D03*
X157296714Y-98828948D03*
X157650268Y-98475394D03*
X158003821Y-98121841D03*
X158357375Y-97768287D03*
X158710928Y-97414734D03*
X159064481Y-97061181D03*
D32*
X165472307Y-82033866D03*
X164305581Y-83200592D03*
D33*
X164200000Y-110397500D03*
X164200000Y-109202500D03*
D34*
X166602500Y-110200000D03*
X167797500Y-110200000D03*
D25*
X150848008Y-104848008D03*
X149751992Y-103751992D03*
D35*
X147777504Y-86622496D03*
X148622496Y-85777504D03*
D25*
X157848008Y-87948008D03*
X156751992Y-86851992D03*
D29*
X137023683Y-85593345D03*
D36*
X168083882Y-91583883D03*
X166316116Y-89816117D03*
D16*
X149748008Y-87551992D03*
X148651992Y-88648008D03*
D37*
X131255000Y-96950000D03*
X129045000Y-96950000D03*
D38*
X130145000Y-99100000D03*
X130145000Y-102100000D03*
D37*
X131255000Y-104250000D03*
X129045000Y-104250000D03*
D39*
X131905000Y-98350000D03*
X131905000Y-101350000D03*
X131905000Y-102850000D03*
D40*
X163062501Y-107600000D03*
X161337499Y-107600000D03*
D41*
X134950000Y-111140000D03*
X134950000Y-112335000D03*
D42*
X136700000Y-106437500D03*
X135150000Y-106437500D03*
D35*
X145977504Y-91722496D03*
X146822496Y-90877504D03*
D34*
X133502500Y-101300000D03*
X134697500Y-101300000D03*
D38*
X148170000Y-120700000D03*
X156170000Y-120700000D03*
D43*
X155370000Y-110200000D03*
X154270000Y-110200000D03*
X153170000Y-110200000D03*
X152070000Y-110200000D03*
X150970000Y-110200000D03*
X149870000Y-110200000D03*
X148770000Y-110200000D03*
X147670000Y-110200000D03*
X146570000Y-110200000D03*
D44*
X145270000Y-110800000D03*
D45*
X145270000Y-120300000D03*
X160970000Y-120300000D03*
D46*
X160070000Y-110700000D03*
D47*
X136200001Y-104437500D03*
X138699999Y-104437500D03*
D17*
X163251992Y-82048008D03*
X164348008Y-80951992D03*
D35*
X162246133Y-81215389D03*
X163091125Y-80370397D03*
D27*
X141700000Y-118500000D03*
D28*
X140700000Y-118500000D03*
D48*
X169690001Y-113500000D03*
X168114999Y-113500000D03*
D49*
X140222496Y-81877504D03*
X139377504Y-82722496D03*
D15*
X163300000Y-105875000D03*
X163300000Y-104325000D03*
D50*
X163608148Y-86808148D03*
X160991852Y-84191852D03*
D29*
X168843488Y-85593345D03*
D51*
X131550000Y-108262500D03*
X131550000Y-109812500D03*
D15*
X158500000Y-105875000D03*
X158500000Y-104325000D03*
D26*
X138250000Y-106437500D03*
X139800000Y-106437500D03*
D29*
X137023683Y-117413150D03*
D52*
X165375000Y-103295000D03*
X165375000Y-104565000D03*
X165375000Y-105835000D03*
X165375000Y-107105000D03*
X176025000Y-107105000D03*
X176025000Y-105835000D03*
X176025000Y-104565000D03*
X176025000Y-103295000D03*
D34*
X168005000Y-112100000D03*
X169200000Y-112100000D03*
D14*
X166351992Y-92751992D03*
X167448008Y-93848008D03*
D34*
X139800000Y-96200000D03*
X140995000Y-96200000D03*
D48*
X140987502Y-97700000D03*
X139412500Y-97700000D03*
D25*
X162248008Y-94748008D03*
X161151992Y-93651992D03*
D15*
X134750000Y-109812500D03*
X134750000Y-108262500D03*
D53*
X144843467Y-87537544D03*
X145741493Y-86639518D03*
X146639518Y-85741493D03*
X147537544Y-84843467D03*
X143556533Y-80862456D03*
X142658507Y-81760482D03*
X141760482Y-82658507D03*
X140862456Y-83556533D03*
D54*
X144200000Y-84200000D03*
D14*
X148651992Y-104851992D03*
X149748008Y-105948008D03*
D55*
X134475001Y-102900000D03*
X134475001Y-98500000D03*
D56*
X170600000Y-99900000D03*
X147600000Y-102400000D03*
X141200000Y-102000000D03*
X139100000Y-99700000D03*
X142600000Y-89100000D03*
X142100000Y-91300000D03*
X141800000Y-89621750D03*
X140700000Y-88700000D03*
X143200000Y-79400000D03*
X141000000Y-80300000D03*
X153200000Y-88100000D03*
X156200000Y-83900000D03*
X152800000Y-93100000D03*
X155600000Y-97400000D03*
X154500000Y-108100000D03*
X168300000Y-93200000D03*
X135800000Y-114000000D03*
X138700000Y-108900000D03*
X168200000Y-95300000D03*
X139900000Y-110600000D03*
X147400000Y-90500000D03*
X150500000Y-86800000D03*
X142600000Y-98600000D03*
X163300000Y-110100000D03*
D57*
X150200000Y-108600000D03*
D56*
X134400000Y-105500000D03*
X150500000Y-106700000D03*
D57*
X151385737Y-111942896D03*
D56*
X162800000Y-89800000D03*
X133300000Y-103600000D03*
X164500000Y-118500000D03*
X142400000Y-87700000D03*
X159286708Y-88000000D03*
X130200000Y-108200000D03*
X158900000Y-99413292D03*
X165000000Y-122000000D03*
X148100000Y-83900000D03*
X158308885Y-84908885D03*
X138900000Y-96102944D03*
X164400000Y-89500000D03*
X135700000Y-99100000D03*
X158800000Y-107200000D03*
X137400000Y-109800000D03*
X161000000Y-95200000D03*
X151300000Y-119800000D03*
X162385786Y-79802944D03*
X143800000Y-97100000D03*
X158100000Y-122235844D03*
X139900000Y-105300000D03*
X140000000Y-101300000D03*
X143800000Y-94800000D03*
X165700000Y-110199999D03*
X169902500Y-114600000D03*
X160100000Y-107700000D03*
X143300000Y-88600000D03*
X151500219Y-93793700D03*
X157500000Y-107100000D03*
X160500000Y-111900000D03*
X166204163Y-81358579D03*
X162100000Y-111900000D03*
X160500000Y-111900000D03*
X163900000Y-111900000D03*
X160500000Y-112700000D03*
X160400000Y-94600000D03*
D57*
X152356561Y-111905430D03*
D56*
X137600000Y-109100000D03*
X160500000Y-112700000D03*
X161300000Y-112700000D03*
X163000000Y-111900000D03*
X160500000Y-96900000D03*
X139900000Y-84800000D03*
X161300000Y-111900000D03*
X151200000Y-103300000D03*
X130400000Y-109600000D03*
X162100000Y-112700000D03*
X163900000Y-112700000D03*
X161300000Y-112700000D03*
X163900000Y-111900000D03*
X156300000Y-114400000D03*
X147900000Y-88000000D03*
X162100000Y-112700000D03*
X163000000Y-111900000D03*
X162100000Y-111900000D03*
X144600000Y-94500000D03*
X133100000Y-98200000D03*
X169802500Y-111300000D03*
X149600000Y-85800000D03*
X161300000Y-111900000D03*
X145800000Y-114400000D03*
X157500000Y-86200000D03*
X163900000Y-112700000D03*
X138500000Y-110600000D03*
X137100000Y-110500000D03*
X163000000Y-112700000D03*
X163000000Y-112700000D03*
D57*
X139000000Y-101525003D03*
X139000000Y-100625000D03*
D56*
X154700000Y-98600000D03*
D57*
X170400000Y-98900000D03*
X147600000Y-101600000D03*
D56*
X159300000Y-102900000D03*
D57*
X170100000Y-97800000D03*
X154741750Y-106900000D03*
X150300000Y-99100000D03*
X155300000Y-83900000D03*
X153500000Y-87200000D03*
X149479364Y-98020636D03*
D56*
X153213342Y-100786658D03*
X143242228Y-90815544D03*
X142800000Y-89800000D03*
X150477531Y-93713070D03*
X146700000Y-111900000D03*
X153200000Y-111800000D03*
D57*
X150443841Y-111894842D03*
D56*
X147700000Y-111900000D03*
D57*
X149100000Y-108100000D03*
X149550003Y-112000000D03*
D56*
X148700000Y-111900000D03*
X155400000Y-111800000D03*
X154300000Y-111800000D03*
X152900000Y-90700000D03*
X167700000Y-104800000D03*
X150337365Y-96162635D03*
X156600000Y-97400000D03*
X148300000Y-96900000D03*
X147722227Y-94477773D03*
X148950899Y-86586921D03*
X139800000Y-88600000D03*
X155500000Y-98300000D03*
X143057000Y-97761929D03*
X144700000Y-103400000D03*
X149716218Y-95541489D03*
X149723271Y-93979707D03*
X145400000Y-101500000D03*
X142200000Y-107100000D03*
X142232885Y-108832885D03*
X145600000Y-88900000D03*
X151500000Y-90900000D03*
X151459620Y-92040380D03*
X141700000Y-80900000D03*
X150625661Y-96955099D03*
X145400000Y-104400000D03*
X144800000Y-99800000D03*
X141500000Y-102700000D03*
X151400000Y-93000000D03*
X142700000Y-80100000D03*
%LPD*%
M02*
