G04 #@! TF.GenerationSoftware,KiCad,Pcbnew,8.0.1*
G04 #@! TF.CreationDate,2024-05-30T23:43:01+05:00*
G04 #@! TF.ProjectId,6_layer_MCU,365f6c61-7965-4725-9f4d-43552e6b6963,rev?*
G04 #@! TF.SameCoordinates,Original*
G04 #@! TF.FileFunction,Soldermask,Bot*
G04 #@! TF.FilePolarity,Negative*
%FSLAX46Y46*%
G04 Gerber Fmt 4.6, Leading zero omitted, Abs format (unit mm)*
G04 Created by KiCad (PCBNEW 8.0.1) date 2024-05-30 23:43:01*
%MOMM*%
%LPD*%
G01*
G04 APERTURE LIST*
G04 Aperture macros list*
%AMRoundRect*
0 Rectangle with rounded corners*
0 $1 Rounding radius*
0 $2 $3 $4 $5 $6 $7 $8 $9 X,Y pos of 4 corners*
0 Add a 4 corners polygon primitive as box body*
4,1,4,$2,$3,$4,$5,$6,$7,$8,$9,$2,$3,0*
0 Add four circle primitives for the rounded corners*
1,1,$1+$1,$2,$3*
1,1,$1+$1,$4,$5*
1,1,$1+$1,$6,$7*
1,1,$1+$1,$8,$9*
0 Add four rect primitives between the rounded corners*
20,1,$1+$1,$2,$3,$4,$5,0*
20,1,$1+$1,$4,$5,$6,$7,0*
20,1,$1+$1,$6,$7,$8,$9,0*
20,1,$1+$1,$8,$9,$2,$3,0*%
G04 Aperture macros list end*
%ADD10R,0.850000X0.850000*%
%ADD11O,0.850000X0.850000*%
%ADD12C,2.200000*%
%ADD13C,0.900000*%
%ADD14RoundRect,0.150000X0.150000X0.700000X-0.150000X0.700000X-0.150000X-0.700000X0.150000X-0.700000X0*%
%ADD15RoundRect,0.250000X0.250000X1.100000X-0.250000X1.100000X-0.250000X-1.100000X0.250000X-1.100000X0*%
%ADD16RoundRect,0.160000X-0.160000X0.197500X-0.160000X-0.197500X0.160000X-0.197500X0.160000X0.197500X0*%
%ADD17RoundRect,0.375000X0.375000X-0.625000X0.375000X0.625000X-0.375000X0.625000X-0.375000X-0.625000X0*%
%ADD18RoundRect,0.500000X1.400000X-0.500000X1.400000X0.500000X-1.400000X0.500000X-1.400000X-0.500000X0*%
%ADD19RoundRect,0.225000X0.225000X0.250000X-0.225000X0.250000X-0.225000X-0.250000X0.225000X-0.250000X0*%
%ADD20RoundRect,0.150000X-0.150000X-0.700000X0.150000X-0.700000X0.150000X0.700000X-0.150000X0.700000X0*%
%ADD21RoundRect,0.250000X-0.250000X-1.100000X0.250000X-1.100000X0.250000X1.100000X-0.250000X1.100000X0*%
%ADD22RoundRect,0.225000X-0.225000X-0.250000X0.225000X-0.250000X0.225000X0.250000X-0.225000X0.250000X0*%
%ADD23RoundRect,0.225000X0.250000X-0.225000X0.250000X0.225000X-0.250000X0.225000X-0.250000X-0.225000X0*%
%ADD24C,1.000000*%
%ADD25R,2.000000X0.500000*%
%ADD26R,1.700000X2.000000*%
%ADD27C,0.600000*%
%ADD28C,0.700000*%
G04 APERTURE END LIST*
D10*
X133500000Y-89300000D03*
D11*
X134500000Y-89300000D03*
X135500001Y-89300000D03*
X136500000Y-89300000D03*
X137500000Y-89300000D03*
D12*
X168843488Y-117413150D03*
X137023683Y-85593345D03*
D13*
X130145000Y-99100000D03*
X130145000Y-102100000D03*
X148170000Y-120700000D03*
X156170000Y-120700000D03*
D10*
X141700000Y-118500000D03*
D11*
X140700000Y-118500000D03*
D12*
X168843488Y-85593345D03*
X137023683Y-117413150D03*
D14*
X152725000Y-121350000D03*
X151475000Y-121350000D03*
D15*
X154575000Y-124550000D03*
X149625000Y-124550000D03*
D16*
X147700000Y-113002500D03*
X147700000Y-114197500D03*
D17*
X164400000Y-120429999D03*
X162100000Y-120429998D03*
D18*
X162100000Y-114130000D03*
D17*
X159800000Y-120429999D03*
D16*
X148700000Y-113002500D03*
X148700000Y-114197500D03*
X150000000Y-113002500D03*
X150000000Y-114197500D03*
X155400000Y-113002500D03*
X155400000Y-114197500D03*
D19*
X163875001Y-122679999D03*
X162325001Y-122679999D03*
D16*
X154300000Y-113002500D03*
X154300000Y-114197500D03*
D20*
X151425000Y-81850000D03*
X152675000Y-81850000D03*
X153925000Y-81850000D03*
X155175000Y-81850000D03*
D21*
X149575000Y-78650000D03*
X157025000Y-78650000D03*
D22*
X159125000Y-122680000D03*
X160675000Y-122680000D03*
D16*
X146700000Y-113002500D03*
X146700000Y-114197500D03*
D23*
X151500000Y-114375000D03*
X151500000Y-112825000D03*
D16*
X153200000Y-113002500D03*
X153200000Y-114197500D03*
D24*
X134475001Y-102900000D03*
X134475001Y-98500000D03*
D25*
X137175001Y-102300000D03*
X137175001Y-101500000D03*
X137175001Y-100700000D03*
X137175001Y-99900000D03*
X137175001Y-99100000D03*
D26*
X131625001Y-105150000D03*
X137075001Y-105150000D03*
X131625001Y-96250000D03*
X137075001Y-96250000D03*
D27*
X170600000Y-99900000D03*
X147600000Y-102400000D03*
X141200000Y-102000000D03*
X139100000Y-99700000D03*
X142600000Y-89100000D03*
X142100000Y-91300000D03*
X141800000Y-89621750D03*
X140700000Y-88700000D03*
X143200000Y-79400000D03*
X141000000Y-80300000D03*
X153200000Y-88100000D03*
X156200000Y-83900000D03*
X152800000Y-93100000D03*
X155600000Y-97400000D03*
X154500000Y-108100000D03*
X168300000Y-93200000D03*
X135800000Y-114000000D03*
X138700000Y-108900000D03*
X168200000Y-95300000D03*
X139900000Y-110600000D03*
X147400000Y-90500000D03*
X150500000Y-86800000D03*
X142600000Y-98600000D03*
X163300000Y-110100000D03*
D28*
X150200000Y-108600000D03*
D27*
X134400000Y-105500000D03*
X150500000Y-106700000D03*
D28*
X151385737Y-111942896D03*
D27*
X162800000Y-89800000D03*
X133300000Y-103600000D03*
X164500000Y-118500000D03*
X142400000Y-87700000D03*
X159286708Y-88000000D03*
X130200000Y-108200000D03*
X158900000Y-99413292D03*
X165000000Y-122000000D03*
X148100000Y-83900000D03*
X158308885Y-84908885D03*
X138900000Y-96102944D03*
X164400000Y-89500000D03*
X135700000Y-99100000D03*
X158800000Y-107200000D03*
X137400000Y-109800000D03*
X161000000Y-95200000D03*
X151300000Y-119800000D03*
X162385786Y-79802944D03*
X143800000Y-97100000D03*
X158100000Y-122235844D03*
X139900000Y-105300000D03*
X140000000Y-101300000D03*
X143800000Y-94800000D03*
X165700000Y-110199999D03*
X169902500Y-114600000D03*
X160100000Y-107700000D03*
X143300000Y-88600000D03*
X151500219Y-93793700D03*
X157500000Y-107100000D03*
X160500000Y-111900000D03*
X166204163Y-81358579D03*
X162100000Y-111900000D03*
X160500000Y-111900000D03*
X163900000Y-111900000D03*
X160500000Y-112700000D03*
X160400000Y-94600000D03*
D28*
X152356561Y-111905430D03*
D27*
X137600000Y-109100000D03*
X160500000Y-112700000D03*
X161300000Y-112700000D03*
X163000000Y-111900000D03*
X160500000Y-96900000D03*
X139900000Y-84800000D03*
X161300000Y-111900000D03*
X151200000Y-103300000D03*
X130400000Y-109600000D03*
X162100000Y-112700000D03*
X163900000Y-112700000D03*
X161300000Y-112700000D03*
X163900000Y-111900000D03*
X156300000Y-114400000D03*
X147900000Y-88000000D03*
X162100000Y-112700000D03*
X163000000Y-111900000D03*
X162100000Y-111900000D03*
X144600000Y-94500000D03*
X133100000Y-98200000D03*
X169802500Y-111300000D03*
X149600000Y-85800000D03*
X161300000Y-111900000D03*
X145800000Y-114400000D03*
X157500000Y-86200000D03*
X163900000Y-112700000D03*
X138500000Y-110600000D03*
X137100000Y-110500000D03*
X163000000Y-112700000D03*
X163000000Y-112700000D03*
D28*
X139000000Y-101525003D03*
X139000000Y-100625000D03*
D27*
X154700000Y-98600000D03*
D28*
X170400000Y-98900000D03*
X147600000Y-101600000D03*
D27*
X159300000Y-102900000D03*
D28*
X170100000Y-97800000D03*
X154741750Y-106900000D03*
X150300000Y-99100000D03*
X155300000Y-83900000D03*
X153500000Y-87200000D03*
X149479364Y-98020636D03*
D27*
X153213342Y-100786658D03*
X143242228Y-90815544D03*
X142800000Y-89800000D03*
X150477531Y-93713070D03*
X146700000Y-111900000D03*
X153200000Y-111800000D03*
D28*
X150443841Y-111894842D03*
D27*
X147700000Y-111900000D03*
D28*
X149100000Y-108100000D03*
X149550003Y-112000000D03*
D27*
X148700000Y-111900000D03*
X155400000Y-111800000D03*
X154300000Y-111800000D03*
X152900000Y-90700000D03*
X167700000Y-104800000D03*
X150337365Y-96162635D03*
X156600000Y-97400000D03*
X148300000Y-96900000D03*
X147722227Y-94477773D03*
X148950899Y-86586921D03*
X139800000Y-88600000D03*
X155500000Y-98300000D03*
X143057000Y-97761929D03*
X144700000Y-103400000D03*
X149716218Y-95541489D03*
X149723271Y-93979707D03*
X145400000Y-101500000D03*
X142200000Y-107100000D03*
X142232885Y-108832885D03*
X145600000Y-88900000D03*
X151500000Y-90900000D03*
X151459620Y-92040380D03*
X141700000Y-80900000D03*
X150625661Y-96955099D03*
X145400000Y-104400000D03*
X144800000Y-99800000D03*
X141500000Y-102700000D03*
X151400000Y-93000000D03*
X142700000Y-80100000D03*
M02*
