G04 #@! TF.GenerationSoftware,KiCad,Pcbnew,8.0.1*
G04 #@! TF.CreationDate,2024-05-30T23:43:00+05:00*
G04 #@! TF.ProjectId,6_layer_MCU,365f6c61-7965-4725-9f4d-43552e6b6963,rev?*
G04 #@! TF.SameCoordinates,Original*
G04 #@! TF.FileFunction,Copper,L3,Inr*
G04 #@! TF.FilePolarity,Positive*
%FSLAX46Y46*%
G04 Gerber Fmt 4.6, Leading zero omitted, Abs format (unit mm)*
G04 Created by KiCad (PCBNEW 8.0.1) date 2024-05-30 23:43:00*
%MOMM*%
%LPD*%
G01*
G04 APERTURE LIST*
G04 #@! TA.AperFunction,ComponentPad*
%ADD10R,0.850000X0.850000*%
G04 #@! TD*
G04 #@! TA.AperFunction,ComponentPad*
%ADD11O,0.850000X0.850000*%
G04 #@! TD*
G04 #@! TA.AperFunction,ViaPad*
%ADD12C,0.600000*%
G04 #@! TD*
G04 #@! TA.AperFunction,ViaPad*
%ADD13C,0.700000*%
G04 #@! TD*
G04 #@! TA.AperFunction,Conductor*
%ADD14C,0.300000*%
G04 #@! TD*
G04 #@! TA.AperFunction,Conductor*
%ADD15C,0.156500*%
G04 #@! TD*
G04 APERTURE END LIST*
D10*
X133500000Y-89300000D03*
D11*
X134500000Y-89300000D03*
X135500001Y-89300000D03*
X136500000Y-89300000D03*
X137500000Y-89300000D03*
D10*
X141700000Y-118500000D03*
D11*
X140700000Y-118500000D03*
D12*
X170600000Y-99900000D03*
X147600000Y-102400000D03*
X141200000Y-102000000D03*
X139100000Y-99700000D03*
X142600000Y-89100000D03*
X142100000Y-91300000D03*
X141800000Y-89621750D03*
X140700000Y-88700000D03*
X143200000Y-79400000D03*
X141000000Y-80300000D03*
X153200000Y-88100000D03*
X156200000Y-83900000D03*
X152800000Y-93100000D03*
X155600000Y-97400000D03*
X154500000Y-108100000D03*
X168300000Y-93200000D03*
X135800000Y-114000000D03*
X138700000Y-108900000D03*
X168200000Y-95300000D03*
X139900000Y-110600000D03*
X147400000Y-90500000D03*
X150500000Y-86800000D03*
X142600000Y-98600000D03*
X163300000Y-110100000D03*
D13*
X150200000Y-108600000D03*
D12*
X134400000Y-105500000D03*
X150500000Y-106700000D03*
D13*
X151385737Y-111942896D03*
D12*
X162800000Y-89800000D03*
X133300000Y-103600000D03*
X164500000Y-118500000D03*
X142400000Y-87700000D03*
X159286708Y-88000000D03*
X130200000Y-108200000D03*
X158900000Y-99413292D03*
X165000000Y-122000000D03*
X148100000Y-83900000D03*
X158308885Y-84908885D03*
X138900000Y-96102944D03*
X164400000Y-89500000D03*
X135700000Y-99100000D03*
X158800000Y-107200000D03*
X137400000Y-109800000D03*
X161000000Y-95200000D03*
X151300000Y-119800000D03*
X162385786Y-79802944D03*
X143800000Y-97100000D03*
X158100000Y-122235844D03*
X139900000Y-105300000D03*
X140000000Y-101300000D03*
X143800000Y-94800000D03*
X165700000Y-110199999D03*
X169902500Y-114600000D03*
X160100000Y-107700000D03*
X143300000Y-88600000D03*
X151500219Y-93793700D03*
X157500000Y-107100000D03*
X160500000Y-111900000D03*
X166204163Y-81358579D03*
X162100000Y-111900000D03*
X160500000Y-111900000D03*
X163900000Y-111900000D03*
X160500000Y-112700000D03*
X160400000Y-94600000D03*
D13*
X152356561Y-111905430D03*
D12*
X137600000Y-109100000D03*
X160500000Y-112700000D03*
X161300000Y-112700000D03*
X163000000Y-111900000D03*
X160500000Y-96900000D03*
X139900000Y-84800000D03*
X161300000Y-111900000D03*
X151200000Y-103300000D03*
X130400000Y-109600000D03*
X162100000Y-112700000D03*
X163900000Y-112700000D03*
X161300000Y-112700000D03*
X163900000Y-111900000D03*
X156300000Y-114400000D03*
X147900000Y-88000000D03*
X162100000Y-112700000D03*
X163000000Y-111900000D03*
X162100000Y-111900000D03*
X144600000Y-94500000D03*
X133100000Y-98200000D03*
X169802500Y-111300000D03*
X149600000Y-85800000D03*
X161300000Y-111900000D03*
X145800000Y-114400000D03*
X157500000Y-86200000D03*
X163900000Y-112700000D03*
X138500000Y-110600000D03*
X137100000Y-110500000D03*
X163000000Y-112700000D03*
X163000000Y-112700000D03*
D13*
X139000000Y-101525003D03*
X139000000Y-100625000D03*
D12*
X154700000Y-98600000D03*
D13*
X170400000Y-98900000D03*
X147600000Y-101600000D03*
D12*
X159300000Y-102900000D03*
D13*
X170100000Y-97800000D03*
X154741750Y-106900000D03*
X150300000Y-99100000D03*
X155300000Y-83900000D03*
X153500000Y-87200000D03*
X149479364Y-98020636D03*
D12*
X153213342Y-100786658D03*
X143242228Y-90815544D03*
X142800000Y-89800000D03*
X150477531Y-93713070D03*
X146700000Y-111900000D03*
X153200000Y-111800000D03*
D13*
X150443841Y-111894842D03*
D12*
X147700000Y-111900000D03*
D13*
X149100000Y-108100000D03*
X149550003Y-112000000D03*
D12*
X148700000Y-111900000D03*
X155400000Y-111800000D03*
X154300000Y-111800000D03*
X152900000Y-90700000D03*
X167700000Y-104800000D03*
X150337365Y-96162635D03*
X156600000Y-97400000D03*
X148300000Y-96900000D03*
X147722227Y-94477773D03*
X148950899Y-86586921D03*
X139800000Y-88600000D03*
X155500000Y-98300000D03*
X143057000Y-97761929D03*
X144700000Y-103400000D03*
X149716218Y-95541489D03*
X149723271Y-93979707D03*
X145400000Y-101500000D03*
X142200000Y-107100000D03*
X142232885Y-108832885D03*
X145600000Y-88900000D03*
X151500000Y-90900000D03*
X151459620Y-92040380D03*
X141700000Y-80900000D03*
X150625661Y-96955099D03*
X145400000Y-104400000D03*
X144800000Y-99800000D03*
X141500000Y-102700000D03*
X151400000Y-93000000D03*
X142700000Y-80100000D03*
D14*
X158500000Y-102900000D02*
X154700000Y-99100000D01*
X154700000Y-99100000D02*
X154700000Y-98600000D01*
X159300000Y-102900000D02*
X158500000Y-102900000D01*
D15*
X153213342Y-100786658D02*
X153326684Y-100900000D01*
X143242228Y-90815544D02*
X153213342Y-100786658D01*
D14*
X161100000Y-96000000D02*
X159600000Y-96000000D01*
X167700000Y-104800000D02*
X167700000Y-102600000D01*
X155800000Y-94500000D02*
X152900000Y-91600000D01*
X167700000Y-102600000D02*
X161500000Y-96400000D01*
X161500000Y-96400000D02*
X161100000Y-96000000D01*
X159600000Y-96000000D02*
X157300000Y-96000000D01*
X157300000Y-96000000D02*
X155800000Y-94500000D01*
X152900000Y-91600000D02*
X152900000Y-90700000D01*
D15*
X150337365Y-96162635D02*
X155362635Y-96162635D01*
X155362635Y-96162635D02*
X156600000Y-97400000D01*
X151200000Y-94400000D02*
X150800000Y-94800000D01*
X151100000Y-86000000D02*
X151700000Y-86600000D01*
X148950899Y-86586921D02*
X149813079Y-86586921D01*
X150400000Y-86000000D02*
X151100000Y-86000000D01*
X150169793Y-94600000D02*
X147844454Y-94600000D01*
X149813079Y-86586921D02*
X150400000Y-86000000D01*
X151700000Y-86800000D02*
X152078250Y-87178250D01*
X152078250Y-87178250D02*
X152078250Y-94400000D01*
X150800000Y-94800000D02*
X150369793Y-94800000D01*
X152078250Y-94400000D02*
X151200000Y-94400000D01*
X147844454Y-94600000D02*
X147722227Y-94477773D01*
X150369793Y-94800000D02*
X150169793Y-94600000D01*
X151700000Y-86600000D02*
X151700000Y-86800000D01*
X154100000Y-97800000D02*
X155000000Y-97800000D01*
X153452861Y-101364908D02*
X154100000Y-100717769D01*
X143057000Y-97761929D02*
X148851114Y-97761929D01*
X148851114Y-98539594D02*
X151676428Y-101364908D01*
X155000000Y-97800000D02*
X155500000Y-98300000D01*
X154100000Y-100717769D02*
X154100000Y-97800000D01*
X148851114Y-97761929D02*
X148851114Y-98539594D01*
X151676428Y-101364908D02*
X153452861Y-101364908D01*
D14*
X151400000Y-92900000D02*
X144500000Y-86000000D01*
X144500000Y-86000000D02*
X144500000Y-81700000D01*
X144500000Y-81700000D02*
X142900000Y-80100000D01*
X142900000Y-80100000D02*
X142700000Y-80100000D01*
X151400000Y-93000000D02*
X151400000Y-92900000D01*
M02*
