G04 #@! TF.GenerationSoftware,KiCad,Pcbnew,8.0.1*
G04 #@! TF.CreationDate,2024-05-30T23:43:01+05:00*
G04 #@! TF.ProjectId,6_layer_MCU,365f6c61-7965-4725-9f4d-43552e6b6963,rev?*
G04 #@! TF.SameCoordinates,Original*
G04 #@! TF.FileFunction,Paste,Bot*
G04 #@! TF.FilePolarity,Positive*
%FSLAX46Y46*%
G04 Gerber Fmt 4.6, Leading zero omitted, Abs format (unit mm)*
G04 Created by KiCad (PCBNEW 8.0.1) date 2024-05-30 23:43:01*
%MOMM*%
%LPD*%
G01*
G04 APERTURE LIST*
G04 Aperture macros list*
%AMRoundRect*
0 Rectangle with rounded corners*
0 $1 Rounding radius*
0 $2 $3 $4 $5 $6 $7 $8 $9 X,Y pos of 4 corners*
0 Add a 4 corners polygon primitive as box body*
4,1,4,$2,$3,$4,$5,$6,$7,$8,$9,$2,$3,0*
0 Add four circle primitives for the rounded corners*
1,1,$1+$1,$2,$3*
1,1,$1+$1,$4,$5*
1,1,$1+$1,$6,$7*
1,1,$1+$1,$8,$9*
0 Add four rect primitives between the rounded corners*
20,1,$1+$1,$2,$3,$4,$5,0*
20,1,$1+$1,$4,$5,$6,$7,0*
20,1,$1+$1,$6,$7,$8,$9,0*
20,1,$1+$1,$8,$9,$2,$3,0*%
G04 Aperture macros list end*
%ADD10RoundRect,0.150000X0.150000X0.700000X-0.150000X0.700000X-0.150000X-0.700000X0.150000X-0.700000X0*%
%ADD11RoundRect,0.250000X0.250000X1.100000X-0.250000X1.100000X-0.250000X-1.100000X0.250000X-1.100000X0*%
%ADD12RoundRect,0.160000X-0.160000X0.197500X-0.160000X-0.197500X0.160000X-0.197500X0.160000X0.197500X0*%
%ADD13RoundRect,0.375000X0.375000X-0.625000X0.375000X0.625000X-0.375000X0.625000X-0.375000X-0.625000X0*%
%ADD14RoundRect,0.500000X1.400000X-0.500000X1.400000X0.500000X-1.400000X0.500000X-1.400000X-0.500000X0*%
%ADD15RoundRect,0.225000X0.225000X0.250000X-0.225000X0.250000X-0.225000X-0.250000X0.225000X-0.250000X0*%
%ADD16RoundRect,0.150000X-0.150000X-0.700000X0.150000X-0.700000X0.150000X0.700000X-0.150000X0.700000X0*%
%ADD17RoundRect,0.250000X-0.250000X-1.100000X0.250000X-1.100000X0.250000X1.100000X-0.250000X1.100000X0*%
%ADD18RoundRect,0.225000X-0.225000X-0.250000X0.225000X-0.250000X0.225000X0.250000X-0.225000X0.250000X0*%
%ADD19RoundRect,0.225000X0.250000X-0.225000X0.250000X0.225000X-0.250000X0.225000X-0.250000X-0.225000X0*%
%ADD20R,2.000000X0.500000*%
%ADD21R,1.700000X2.000000*%
G04 APERTURE END LIST*
D10*
X152725000Y-121350000D03*
X151475000Y-121350000D03*
D11*
X154575000Y-124550000D03*
X149625000Y-124550000D03*
D12*
X147700000Y-113002500D03*
X147700000Y-114197500D03*
D13*
X164400000Y-120429999D03*
X162100000Y-120429998D03*
D14*
X162100000Y-114130000D03*
D13*
X159800000Y-120429999D03*
D12*
X148700000Y-113002500D03*
X148700000Y-114197500D03*
X150000000Y-113002500D03*
X150000000Y-114197500D03*
X155400000Y-113002500D03*
X155400000Y-114197500D03*
D15*
X163875001Y-122679999D03*
X162325001Y-122679999D03*
D12*
X154300000Y-113002500D03*
X154300000Y-114197500D03*
D16*
X151425000Y-81850000D03*
X152675000Y-81850000D03*
X153925000Y-81850000D03*
X155175000Y-81850000D03*
D17*
X149575000Y-78650000D03*
X157025000Y-78650000D03*
D18*
X159125000Y-122680000D03*
X160675000Y-122680000D03*
D12*
X146700000Y-113002500D03*
X146700000Y-114197500D03*
D19*
X151500000Y-114375000D03*
X151500000Y-112825000D03*
D12*
X153200000Y-113002500D03*
X153200000Y-114197500D03*
D20*
X137175001Y-102300000D03*
X137175001Y-101500000D03*
X137175001Y-100700000D03*
X137175001Y-99900000D03*
X137175001Y-99100000D03*
D21*
X131625001Y-105150000D03*
X137075001Y-105150000D03*
X131625001Y-96250000D03*
X137075001Y-96250000D03*
M02*
