G04 #@! TF.GenerationSoftware,KiCad,Pcbnew,8.0.1*
G04 #@! TF.CreationDate,2024-05-30T23:43:00+05:00*
G04 #@! TF.ProjectId,6_layer_MCU,365f6c61-7965-4725-9f4d-43552e6b6963,rev?*
G04 #@! TF.SameCoordinates,Original*
G04 #@! TF.FileFunction,Copper,L1,Top*
G04 #@! TF.FilePolarity,Positive*
%FSLAX46Y46*%
G04 Gerber Fmt 4.6, Leading zero omitted, Abs format (unit mm)*
G04 Created by KiCad (PCBNEW 8.0.1) date 2024-05-30 23:43:00*
%MOMM*%
%LPD*%
G01*
G04 APERTURE LIST*
G04 Aperture macros list*
%AMRoundRect*
0 Rectangle with rounded corners*
0 $1 Rounding radius*
0 $2 $3 $4 $5 $6 $7 $8 $9 X,Y pos of 4 corners*
0 Add a 4 corners polygon primitive as box body*
4,1,4,$2,$3,$4,$5,$6,$7,$8,$9,$2,$3,0*
0 Add four circle primitives for the rounded corners*
1,1,$1+$1,$2,$3*
1,1,$1+$1,$4,$5*
1,1,$1+$1,$6,$7*
1,1,$1+$1,$8,$9*
0 Add four rect primitives between the rounded corners*
20,1,$1+$1,$2,$3,$4,$5,0*
20,1,$1+$1,$4,$5,$6,$7,0*
20,1,$1+$1,$6,$7,$8,$9,0*
20,1,$1+$1,$8,$9,$2,$3,0*%
%AMRotRect*
0 Rectangle, with rotation*
0 The origin of the aperture is its center*
0 $1 length*
0 $2 width*
0 $3 Rotation angle, in degrees counterclockwise*
0 Add horizontal line*
21,1,$1,$2,0,0,$3*%
G04 Aperture macros list end*
G04 #@! TA.AperFunction,SMDPad,CuDef*
%ADD10RoundRect,0.225000X-0.335876X-0.017678X-0.017678X-0.335876X0.335876X0.017678X0.017678X0.335876X0*%
G04 #@! TD*
G04 #@! TA.AperFunction,SMDPad,CuDef*
%ADD11RoundRect,0.225000X0.250000X-0.225000X0.250000X0.225000X-0.250000X0.225000X-0.250000X-0.225000X0*%
G04 #@! TD*
G04 #@! TA.AperFunction,SMDPad,CuDef*
%ADD12RoundRect,0.225000X-0.017678X0.335876X-0.335876X0.017678X0.017678X-0.335876X0.335876X-0.017678X0*%
G04 #@! TD*
G04 #@! TA.AperFunction,SMDPad,CuDef*
%ADD13RoundRect,0.225000X0.017678X-0.335876X0.335876X-0.017678X-0.017678X0.335876X-0.335876X0.017678X0*%
G04 #@! TD*
G04 #@! TA.AperFunction,SMDPad,CuDef*
%ADD14R,0.254000X0.675000*%
G04 #@! TD*
G04 #@! TA.AperFunction,SMDPad,CuDef*
%ADD15R,0.675000X0.254000*%
G04 #@! TD*
G04 #@! TA.AperFunction,SMDPad,CuDef*
%ADD16RoundRect,0.160000X0.197500X0.160000X-0.197500X0.160000X-0.197500X-0.160000X0.197500X-0.160000X0*%
G04 #@! TD*
G04 #@! TA.AperFunction,SMDPad,CuDef*
%ADD17RoundRect,0.218750X-0.026517X0.335876X-0.335876X0.026517X0.026517X-0.335876X0.335876X-0.026517X0*%
G04 #@! TD*
G04 #@! TA.AperFunction,SMDPad,CuDef*
%ADD18RoundRect,0.150000X0.709088X0.098460X0.606482X0.380368X-0.709088X-0.098460X-0.606482X-0.380368X0*%
G04 #@! TD*
G04 #@! TA.AperFunction,SMDPad,CuDef*
%ADD19RoundRect,0.250000X1.119167X0.141299X0.948157X0.611145X-1.119167X-0.141299X-0.948157X-0.611145X0*%
G04 #@! TD*
G04 #@! TA.AperFunction,SMDPad,CuDef*
%ADD20RoundRect,0.160000X0.252791X-0.026517X-0.026517X0.252791X-0.252791X0.026517X0.026517X-0.252791X0*%
G04 #@! TD*
G04 #@! TA.AperFunction,SMDPad,CuDef*
%ADD21RoundRect,0.225000X0.335876X0.017678X0.017678X0.335876X-0.335876X-0.017678X-0.017678X-0.335876X0*%
G04 #@! TD*
G04 #@! TA.AperFunction,SMDPad,CuDef*
%ADD22RoundRect,0.225000X-0.225000X-0.250000X0.225000X-0.250000X0.225000X0.250000X-0.225000X0.250000X0*%
G04 #@! TD*
G04 #@! TA.AperFunction,ComponentPad*
%ADD23R,0.850000X0.850000*%
G04 #@! TD*
G04 #@! TA.AperFunction,ComponentPad*
%ADD24O,0.850000X0.850000*%
G04 #@! TD*
G04 #@! TA.AperFunction,SMDPad,CuDef*
%ADD25RoundRect,0.075000X0.441942X0.548008X-0.548008X-0.441942X-0.441942X-0.548008X0.548008X0.441942X0*%
G04 #@! TD*
G04 #@! TA.AperFunction,SMDPad,CuDef*
%ADD26RoundRect,0.075000X-0.441942X0.548008X-0.548008X0.441942X0.441942X-0.548008X0.548008X-0.441942X0*%
G04 #@! TD*
G04 #@! TA.AperFunction,SMDPad,CuDef*
%ADD27RoundRect,0.200000X-0.053033X0.335876X-0.335876X0.053033X0.053033X-0.335876X0.335876X-0.053033X0*%
G04 #@! TD*
G04 #@! TA.AperFunction,SMDPad,CuDef*
%ADD28RoundRect,0.160000X0.160000X-0.197500X0.160000X0.197500X-0.160000X0.197500X-0.160000X-0.197500X0*%
G04 #@! TD*
G04 #@! TA.AperFunction,SMDPad,CuDef*
%ADD29RoundRect,0.160000X-0.197500X-0.160000X0.197500X-0.160000X0.197500X0.160000X-0.197500X0.160000X0*%
G04 #@! TD*
G04 #@! TA.AperFunction,SMDPad,CuDef*
%ADD30RoundRect,0.160000X-0.026517X-0.252791X0.252791X0.026517X0.026517X0.252791X-0.252791X-0.026517X0*%
G04 #@! TD*
G04 #@! TA.AperFunction,SMDPad,CuDef*
%ADD31RotRect,1.000000X1.800000X315.000000*%
G04 #@! TD*
G04 #@! TA.AperFunction,SMDPad,CuDef*
%ADD32R,0.800000X1.000000*%
G04 #@! TD*
G04 #@! TA.AperFunction,SMDPad,CuDef*
%ADD33R,1.500000X0.700000*%
G04 #@! TD*
G04 #@! TA.AperFunction,SMDPad,CuDef*
%ADD34RoundRect,0.237500X0.300000X0.237500X-0.300000X0.237500X-0.300000X-0.237500X0.300000X-0.237500X0*%
G04 #@! TD*
G04 #@! TA.AperFunction,SMDPad,CuDef*
%ADD35RoundRect,0.160000X-0.160000X0.197500X-0.160000X-0.197500X0.160000X-0.197500X0.160000X0.197500X0*%
G04 #@! TD*
G04 #@! TA.AperFunction,SMDPad,CuDef*
%ADD36RoundRect,0.225000X0.225000X0.250000X-0.225000X0.250000X-0.225000X-0.250000X0.225000X-0.250000X0*%
G04 #@! TD*
G04 #@! TA.AperFunction,SMDPad,CuDef*
%ADD37R,0.700000X1.600000*%
G04 #@! TD*
G04 #@! TA.AperFunction,SMDPad,CuDef*
%ADD38R,1.400000X1.600000*%
G04 #@! TD*
G04 #@! TA.AperFunction,SMDPad,CuDef*
%ADD39R,1.400000X2.200000*%
G04 #@! TD*
G04 #@! TA.AperFunction,SMDPad,CuDef*
%ADD40R,1.800000X1.400000*%
G04 #@! TD*
G04 #@! TA.AperFunction,SMDPad,CuDef*
%ADD41R,1.000000X1.800000*%
G04 #@! TD*
G04 #@! TA.AperFunction,SMDPad,CuDef*
%ADD42RoundRect,0.218750X0.218750X0.256250X-0.218750X0.256250X-0.218750X-0.256250X0.218750X-0.256250X0*%
G04 #@! TD*
G04 #@! TA.AperFunction,SMDPad,CuDef*
%ADD43RoundRect,0.160000X0.026517X0.252791X-0.252791X-0.026517X-0.026517X-0.252791X0.252791X0.026517X0*%
G04 #@! TD*
G04 #@! TA.AperFunction,SMDPad,CuDef*
%ADD44RotRect,2.000000X2.400000X135.000000*%
G04 #@! TD*
G04 #@! TA.AperFunction,SMDPad,CuDef*
%ADD45RoundRect,0.225000X-0.250000X0.225000X-0.250000X-0.225000X0.250000X-0.225000X0.250000X0.225000X0*%
G04 #@! TD*
G04 #@! TA.AperFunction,SMDPad,CuDef*
%ADD46RoundRect,0.150000X-0.750000X-0.150000X0.750000X-0.150000X0.750000X0.150000X-0.750000X0.150000X0*%
G04 #@! TD*
G04 #@! TA.AperFunction,SMDPad,CuDef*
%ADD47RoundRect,0.055000X0.466690X-0.233345X-0.233345X0.466690X-0.466690X0.233345X0.233345X-0.466690X0*%
G04 #@! TD*
G04 #@! TA.AperFunction,SMDPad,CuDef*
%ADD48RotRect,3.400000X4.000000X135.000000*%
G04 #@! TD*
G04 #@! TA.AperFunction,ViaPad*
%ADD49C,0.600000*%
G04 #@! TD*
G04 #@! TA.AperFunction,ViaPad*
%ADD50C,0.700000*%
G04 #@! TD*
G04 #@! TA.AperFunction,Conductor*
%ADD51C,0.156500*%
G04 #@! TD*
G04 #@! TA.AperFunction,Conductor*
%ADD52C,0.300000*%
G04 #@! TD*
G04 #@! TA.AperFunction,Conductor*
%ADD53C,0.500000*%
G04 #@! TD*
G04 #@! TA.AperFunction,Conductor*
%ADD54C,0.155400*%
G04 #@! TD*
G04 APERTURE END LIST*
D10*
X160851992Y-88051992D03*
X161948008Y-89148008D03*
D11*
X160100000Y-105875000D03*
X160100000Y-104325000D03*
D12*
X142948008Y-92151992D03*
X141851992Y-93248008D03*
D11*
X133150000Y-109812500D03*
X133150000Y-108262500D03*
D10*
X140651992Y-85851992D03*
X141748008Y-86948008D03*
D13*
X142951992Y-94348008D03*
X144048008Y-93251992D03*
D14*
X136450000Y-108037500D03*
D15*
X136312500Y-108950000D03*
X136312500Y-109450000D03*
X136312500Y-109950000D03*
X136312500Y-110450000D03*
D14*
X136450000Y-111362500D03*
X136950000Y-111362500D03*
X137450000Y-111362500D03*
X137950000Y-111362500D03*
X138450000Y-111362500D03*
X138950000Y-111362500D03*
X139450000Y-111362500D03*
X139950000Y-111362500D03*
X140450000Y-111362500D03*
X140950000Y-111362500D03*
D15*
X141087500Y-110450000D03*
X141087500Y-109950000D03*
X141087500Y-109450000D03*
X141087500Y-108950000D03*
D14*
X140950000Y-108037500D03*
X140450000Y-108037500D03*
X139950000Y-108037500D03*
X139450000Y-108037500D03*
X138950000Y-108037500D03*
X138450000Y-108037500D03*
X137950000Y-108037500D03*
X137450000Y-108037500D03*
X136950000Y-108037500D03*
D16*
X167797500Y-109100000D03*
X166602500Y-109100000D03*
D17*
X167413694Y-95986306D03*
X166300000Y-97100000D03*
D18*
X172402855Y-97794661D03*
X171975331Y-96620045D03*
X171547807Y-95445430D03*
X171120280Y-94270813D03*
D19*
X176042610Y-98438628D03*
X173494561Y-91437918D03*
D20*
X165222496Y-96122496D03*
X164377504Y-95277504D03*
D13*
X159851992Y-99148008D03*
X160948008Y-98051992D03*
D11*
X161700000Y-105875000D03*
X161700000Y-104325000D03*
D21*
X165148008Y-91548008D03*
X164051992Y-90451992D03*
D22*
X136375000Y-112837500D03*
X137925000Y-112837500D03*
D21*
X156748008Y-89148008D03*
X155651992Y-88051992D03*
D12*
X158948008Y-89051992D03*
X157851992Y-90148008D03*
D23*
X133500000Y-89300000D03*
D24*
X134500000Y-89300000D03*
X135500001Y-89300000D03*
X136500000Y-89300000D03*
X137500000Y-89300000D03*
D21*
X159648008Y-86848008D03*
X158551992Y-85751992D03*
D25*
X159064481Y-94338819D03*
X158710928Y-93985266D03*
X158357375Y-93631713D03*
X158003821Y-93278159D03*
X157650268Y-92924606D03*
X157296714Y-92571052D03*
X156943161Y-92217499D03*
X156589608Y-91863946D03*
X156236054Y-91510392D03*
X155882501Y-91156839D03*
X155528948Y-90803286D03*
X155175394Y-90449732D03*
X154821841Y-90096179D03*
X154468287Y-89742625D03*
X154114734Y-89389072D03*
X153761181Y-89035519D03*
D26*
X151038819Y-89035519D03*
X150685266Y-89389072D03*
X150331713Y-89742625D03*
X149978159Y-90096179D03*
X149624606Y-90449732D03*
X149271052Y-90803286D03*
X148917499Y-91156839D03*
X148563946Y-91510392D03*
X148210392Y-91863946D03*
X147856839Y-92217499D03*
X147503286Y-92571052D03*
X147149732Y-92924606D03*
X146796179Y-93278159D03*
X146442625Y-93631713D03*
X146089072Y-93985266D03*
X145735519Y-94338819D03*
D25*
X145735519Y-97061181D03*
X146089072Y-97414734D03*
X146442625Y-97768287D03*
X146796179Y-98121841D03*
X147149732Y-98475394D03*
X147503286Y-98828948D03*
X147856839Y-99182501D03*
X148210392Y-99536054D03*
X148563946Y-99889608D03*
X148917499Y-100243161D03*
X149271052Y-100596714D03*
X149624606Y-100950268D03*
X149978159Y-101303821D03*
X150331713Y-101657375D03*
X150685266Y-102010928D03*
X151038819Y-102364481D03*
D26*
X153761181Y-102364481D03*
X154114734Y-102010928D03*
X154468287Y-101657375D03*
X154821841Y-101303821D03*
X155175394Y-100950268D03*
X155528948Y-100596714D03*
X155882501Y-100243161D03*
X156236054Y-99889608D03*
X156589608Y-99536054D03*
X156943161Y-99182501D03*
X157296714Y-98828948D03*
X157650268Y-98475394D03*
X158003821Y-98121841D03*
X158357375Y-97768287D03*
X158710928Y-97414734D03*
X159064481Y-97061181D03*
D27*
X165472307Y-82033866D03*
X164305581Y-83200592D03*
D28*
X164200000Y-110397500D03*
X164200000Y-109202500D03*
D29*
X166602500Y-110200000D03*
X167797500Y-110200000D03*
D21*
X150848008Y-104848008D03*
X149751992Y-103751992D03*
D30*
X147777504Y-86622496D03*
X148622496Y-85777504D03*
D21*
X157848008Y-87948008D03*
X156751992Y-86851992D03*
D31*
X168083882Y-91583883D03*
X166316116Y-89816117D03*
D12*
X149748008Y-87551992D03*
X148651992Y-88648008D03*
D32*
X131255000Y-96950000D03*
X129045000Y-96950000D03*
X131255000Y-104250000D03*
X129045000Y-104250000D03*
D33*
X131905000Y-98350000D03*
X131905000Y-101350000D03*
X131905000Y-102850000D03*
D34*
X163062501Y-107600000D03*
X161337499Y-107600000D03*
D35*
X134950000Y-111140000D03*
X134950000Y-112335000D03*
D36*
X136700000Y-106437500D03*
X135150000Y-106437500D03*
D30*
X145977504Y-91722496D03*
X146822496Y-90877504D03*
D29*
X133502500Y-101300000D03*
X134697500Y-101300000D03*
D37*
X155370000Y-110200000D03*
X154270000Y-110200000D03*
X153170000Y-110200000D03*
X152070000Y-110200000D03*
X150970000Y-110200000D03*
X149870000Y-110200000D03*
X148770000Y-110200000D03*
X147670000Y-110200000D03*
X146570000Y-110200000D03*
D38*
X145270000Y-110800000D03*
D39*
X145270000Y-120300000D03*
X160970000Y-120300000D03*
D40*
X160070000Y-110700000D03*
D41*
X136200001Y-104437500D03*
X138699999Y-104437500D03*
D13*
X163251992Y-82048008D03*
X164348008Y-80951992D03*
D30*
X162246133Y-81215389D03*
X163091125Y-80370397D03*
D23*
X141700000Y-118500000D03*
D24*
X140700000Y-118500000D03*
D42*
X169690001Y-113500000D03*
X168114999Y-113500000D03*
D43*
X140222496Y-81877504D03*
X139377504Y-82722496D03*
D11*
X163300000Y-105875000D03*
X163300000Y-104325000D03*
D44*
X163608148Y-86808148D03*
X160991852Y-84191852D03*
D45*
X131550000Y-108262500D03*
X131550000Y-109812500D03*
D11*
X158500000Y-105875000D03*
X158500000Y-104325000D03*
D22*
X138250000Y-106437500D03*
X139800000Y-106437500D03*
D46*
X165375000Y-103295000D03*
X165375000Y-104565000D03*
X165375000Y-105835000D03*
X165375000Y-107105000D03*
X176025000Y-107105000D03*
X176025000Y-105835000D03*
X176025000Y-104565000D03*
X176025000Y-103295000D03*
D29*
X168005000Y-112100000D03*
X169200000Y-112100000D03*
D10*
X166351992Y-92751992D03*
X167448008Y-93848008D03*
D29*
X139800000Y-96200000D03*
X140995000Y-96200000D03*
D42*
X140987502Y-97700000D03*
X139412500Y-97700000D03*
D21*
X162248008Y-94748008D03*
X161151992Y-93651992D03*
D11*
X134750000Y-109812500D03*
X134750000Y-108262500D03*
D47*
X144843467Y-87537544D03*
X145741493Y-86639518D03*
X146639518Y-85741493D03*
X147537544Y-84843467D03*
X143556533Y-80862456D03*
X142658507Y-81760482D03*
X141760482Y-82658507D03*
X140862456Y-83556533D03*
D48*
X144200000Y-84200000D03*
D10*
X148651992Y-104851992D03*
X149748008Y-105948008D03*
D49*
X170600000Y-99900000D03*
X147600000Y-102400000D03*
X141200000Y-102000000D03*
X139100000Y-99700000D03*
X142600000Y-89100000D03*
X142100000Y-91300000D03*
X141800000Y-89621750D03*
X140700000Y-88700000D03*
X143200000Y-79400000D03*
X141000000Y-80300000D03*
X153200000Y-88100000D03*
X156200000Y-83900000D03*
X152800000Y-93100000D03*
X155600000Y-97400000D03*
X154500000Y-108100000D03*
X168300000Y-93200000D03*
X135800000Y-114000000D03*
X138700000Y-108900000D03*
X168200000Y-95300000D03*
X139900000Y-110600000D03*
X147400000Y-90500000D03*
X150500000Y-86800000D03*
X142600000Y-98600000D03*
X163300000Y-110100000D03*
D50*
X150200000Y-108600000D03*
D49*
X134400000Y-105500000D03*
X150500000Y-106700000D03*
D50*
X151385737Y-111942896D03*
D49*
X162800000Y-89800000D03*
X133300000Y-103600000D03*
X164500000Y-118500000D03*
X142400000Y-87700000D03*
X159286708Y-88000000D03*
X130200000Y-108200000D03*
X158900000Y-99413292D03*
X165000000Y-122000000D03*
X148100000Y-83900000D03*
X158308885Y-84908885D03*
X138900000Y-96102944D03*
X164400000Y-89500000D03*
X135700000Y-99100000D03*
X158800000Y-107200000D03*
X137400000Y-109800000D03*
X161000000Y-95200000D03*
X151300000Y-119800000D03*
X162385786Y-79802944D03*
X143800000Y-97100000D03*
X158100000Y-122235844D03*
X139900000Y-105300000D03*
X140000000Y-101300000D03*
X143800000Y-94800000D03*
X165700000Y-110199999D03*
X169902500Y-114600000D03*
X160100000Y-107700000D03*
X143300000Y-88600000D03*
X151500219Y-93793700D03*
X157500000Y-107100000D03*
X160500000Y-111900000D03*
X166204163Y-81358579D03*
X162100000Y-111900000D03*
X160500000Y-111900000D03*
X163900000Y-111900000D03*
X160500000Y-112700000D03*
X160400000Y-94600000D03*
D50*
X152356561Y-111905430D03*
D49*
X137600000Y-109100000D03*
X160500000Y-112700000D03*
X161300000Y-112700000D03*
X163000000Y-111900000D03*
X160500000Y-96900000D03*
X139900000Y-84800000D03*
X161300000Y-111900000D03*
X151200000Y-103300000D03*
X130400000Y-109600000D03*
X162100000Y-112700000D03*
X163900000Y-112700000D03*
X161300000Y-112700000D03*
X163900000Y-111900000D03*
X156300000Y-114400000D03*
X147900000Y-88000000D03*
X162100000Y-112700000D03*
X163000000Y-111900000D03*
X162100000Y-111900000D03*
X144600000Y-94500000D03*
X133100000Y-98200000D03*
X169802500Y-111300000D03*
X149600000Y-85800000D03*
X161300000Y-111900000D03*
X145800000Y-114400000D03*
X157500000Y-86200000D03*
X163900000Y-112700000D03*
X138500000Y-110600000D03*
X137100000Y-110500000D03*
X163000000Y-112700000D03*
X163000000Y-112700000D03*
D50*
X139000000Y-101525003D03*
X139000000Y-100625000D03*
D49*
X154700000Y-98600000D03*
D50*
X170400000Y-98900000D03*
X147600000Y-101600000D03*
D49*
X159300000Y-102900000D03*
D50*
X170100000Y-97800000D03*
X154741750Y-106900000D03*
X150300000Y-99100000D03*
X155300000Y-83900000D03*
X153500000Y-87200000D03*
X149479364Y-98020636D03*
D49*
X153213342Y-100786658D03*
X143242228Y-90815544D03*
X142800000Y-89800000D03*
X150477531Y-93713070D03*
X146700000Y-111900000D03*
X153200000Y-111800000D03*
D50*
X150443841Y-111894842D03*
D49*
X147700000Y-111900000D03*
D50*
X149100000Y-108100000D03*
X149550003Y-112000000D03*
D49*
X148700000Y-111900000D03*
X155400000Y-111800000D03*
X154300000Y-111800000D03*
X152900000Y-90700000D03*
X167700000Y-104800000D03*
X150337365Y-96162635D03*
X156600000Y-97400000D03*
X148300000Y-96900000D03*
X147722227Y-94477773D03*
X148950899Y-86586921D03*
X139800000Y-88600000D03*
X155500000Y-98300000D03*
X143057000Y-97761929D03*
X144700000Y-103400000D03*
X149716218Y-95541489D03*
X149723271Y-93979707D03*
X145400000Y-101500000D03*
X142200000Y-107100000D03*
X142232885Y-108832885D03*
X145600000Y-88900000D03*
X151500000Y-90900000D03*
X151459620Y-92040380D03*
X141700000Y-80900000D03*
X150625661Y-96955099D03*
X145400000Y-104400000D03*
X144800000Y-99800000D03*
X141500000Y-102700000D03*
X151400000Y-93000000D03*
X142700000Y-80100000D03*
D51*
X141000000Y-89300000D02*
X137500000Y-89300000D01*
X141700000Y-88600000D02*
X141000000Y-89300000D01*
X143300000Y-88600000D02*
X141700000Y-88600000D01*
X137300000Y-90100000D02*
X136500000Y-89300000D01*
X142500000Y-90100000D02*
X137300000Y-90100000D01*
X142800000Y-89800000D02*
X142500000Y-90100000D01*
D52*
X141748008Y-87048008D02*
X142400000Y-87700000D01*
X132550000Y-102850000D02*
X133300000Y-103600000D01*
X135150000Y-106437500D02*
X135150000Y-106250000D01*
X165335000Y-105875000D02*
X165375000Y-105835000D01*
X159851992Y-98555798D02*
X159851992Y-99148008D01*
D51*
X140050000Y-110450000D02*
X139900000Y-110600000D01*
D52*
X162523672Y-79802944D02*
X162385786Y-79802944D01*
D51*
X140950000Y-110868500D02*
X140681500Y-110600000D01*
X138450000Y-108037500D02*
X138450000Y-108650000D01*
D52*
X149870000Y-108930000D02*
X150200000Y-108600000D01*
D51*
X167513694Y-95986306D02*
X168200000Y-95300000D01*
D52*
X166602499Y-110200000D02*
X165700000Y-110199999D01*
D53*
X143348008Y-94348008D02*
X143800000Y-94800000D01*
X149748008Y-105948008D02*
X150848008Y-104848008D01*
D52*
X158500000Y-105875000D02*
X158500000Y-106900000D01*
X131905000Y-102850000D02*
X132550000Y-102850000D01*
X141851992Y-93248008D02*
X142951992Y-94348008D01*
X161948008Y-89148008D02*
X162348008Y-89148008D01*
X136375000Y-112837500D02*
X136375000Y-113425000D01*
X131550000Y-108262500D02*
X130262500Y-108262500D01*
X163672721Y-80951992D02*
X164348008Y-80951992D01*
D53*
X161948008Y-89148008D02*
X162148008Y-89148008D01*
X149748008Y-105948008D02*
X150500000Y-106700000D01*
X142951992Y-94348008D02*
X143348008Y-94348008D01*
D51*
X138450000Y-108650000D02*
X138700000Y-108900000D01*
D52*
X149870000Y-110200000D02*
X149870000Y-108930000D01*
X136950000Y-108950000D02*
X137000000Y-109000000D01*
X164051993Y-90451992D02*
X164051992Y-89948008D01*
D53*
X159851992Y-99148008D02*
X159165284Y-99148008D01*
D52*
X131550000Y-108262500D02*
X134750000Y-108262500D01*
D51*
X167413694Y-95986306D02*
X167513694Y-95986306D01*
X140681500Y-110600000D02*
X139900000Y-110600000D01*
D53*
X158551992Y-85151992D02*
X158308885Y-84908885D01*
D52*
X139800000Y-105400000D02*
X139900000Y-105300000D01*
X141748008Y-86948008D02*
X141748008Y-87048008D01*
X163300000Y-110100000D02*
X163597500Y-110397500D01*
X157848007Y-87951992D02*
X158948007Y-89051992D01*
X161337499Y-107600000D02*
X160200000Y-107600000D01*
D51*
X140950000Y-111362500D02*
X140950000Y-110868500D01*
D52*
X167448008Y-93848007D02*
X167851992Y-93848008D01*
X136312500Y-108950000D02*
X135437500Y-108950000D01*
D53*
X149748008Y-87551992D02*
X150500000Y-86800000D01*
X159286708Y-88713292D02*
X158948008Y-89051992D01*
D52*
X150064342Y-87868326D02*
X149748008Y-87551992D01*
X169690001Y-114387501D02*
X169902500Y-114600000D01*
X158710928Y-97414734D02*
X159851992Y-98555798D01*
X135437500Y-108950000D02*
X134750000Y-108262500D01*
X147537544Y-84843467D02*
X147537544Y-84462456D01*
D53*
X159165284Y-99148008D02*
X158900000Y-99413292D01*
X162248008Y-94748008D02*
X161451992Y-94748008D01*
D52*
X147537544Y-84462456D02*
X148100000Y-83900000D01*
D53*
X159286708Y-88000000D02*
X159286708Y-88713292D01*
X162148008Y-89148008D02*
X162800000Y-89800000D01*
D52*
X139800000Y-106437500D02*
X139800000Y-105400000D01*
X146822496Y-90877504D02*
X147022496Y-90877504D01*
X136312500Y-108950000D02*
X136950000Y-108950000D01*
X155175394Y-90449732D02*
X156477118Y-89148008D01*
X139800000Y-96200000D02*
X138997056Y-96200000D01*
X150685266Y-89389072D02*
X150064342Y-88768149D01*
X169690001Y-113500000D02*
X169690001Y-114387501D01*
X150064342Y-88768149D02*
X150064342Y-87868326D01*
X157848008Y-87948007D02*
X157848007Y-87951992D01*
X156748008Y-89148008D02*
X156748008Y-89048008D01*
D53*
X158551992Y-85751992D02*
X158551992Y-85151992D01*
D52*
X158500000Y-105875000D02*
X165335000Y-105875000D01*
D51*
X141087500Y-110450000D02*
X140050000Y-110450000D01*
D52*
X136375000Y-113425000D02*
X135800000Y-114000000D01*
X160200000Y-107600000D02*
X160100000Y-107700000D01*
X130262500Y-108262500D02*
X130200000Y-108200000D01*
D53*
X167651992Y-93848008D02*
X168300000Y-93200000D01*
X167448008Y-93848008D02*
X167651992Y-93848008D01*
D52*
X156748008Y-89048008D02*
X157848008Y-87948007D01*
X147022496Y-90877504D02*
X147400000Y-90500000D01*
X158500000Y-106900000D02*
X158800000Y-107200000D01*
X135150000Y-106250000D02*
X134400000Y-105500000D01*
X137000000Y-109000000D02*
X137000000Y-109400000D01*
D53*
X164051992Y-90451992D02*
X164051992Y-89848008D01*
D52*
X163597500Y-110397500D02*
X164200000Y-110397500D01*
X156477118Y-89148008D02*
X156748008Y-89148008D01*
X163091125Y-80370397D02*
X162523672Y-79802944D01*
D53*
X161451992Y-94748008D02*
X161000000Y-95200000D01*
X164051992Y-89848008D02*
X164400000Y-89500000D01*
D52*
X163091125Y-80370397D02*
X163672721Y-80951992D01*
X137000000Y-109400000D02*
X137400000Y-109800000D01*
X161403985Y-87500000D02*
X162916296Y-87500000D01*
X160851992Y-88051992D02*
X160851992Y-89722882D01*
X160851992Y-89722882D02*
X157650268Y-92924606D01*
X160851992Y-88051992D02*
X161403985Y-87500000D01*
X162916296Y-87500000D02*
X163608148Y-86808148D01*
X160100000Y-88466726D02*
X160100000Y-89767766D01*
X160991852Y-85708148D02*
X160991852Y-84191852D01*
X159648008Y-86848008D02*
X160100000Y-87300000D01*
X160100000Y-87672614D02*
X159936708Y-87835906D01*
X159936708Y-87835906D02*
X159936708Y-88303434D01*
X160100000Y-87300000D02*
X160100000Y-87672614D01*
X160400000Y-86300000D02*
X160991852Y-85708148D01*
X159936708Y-88303434D02*
X160100000Y-88466726D01*
X159648008Y-86848008D02*
X160196016Y-86300000D01*
X160196016Y-86300000D02*
X160400000Y-86300000D01*
X160100000Y-89767766D02*
X157296714Y-92571052D01*
D51*
X151500219Y-93793700D02*
X151706519Y-94000000D01*
X155160660Y-94000000D02*
X156943161Y-92217499D01*
D52*
X157851992Y-91308668D02*
X156943161Y-92217499D01*
X157851992Y-90148008D02*
X157851992Y-91308668D01*
D51*
X151706519Y-94000000D02*
X155160660Y-94000000D01*
D52*
X142948008Y-92151992D02*
X144255798Y-92151992D01*
X144255798Y-92151992D02*
X146089072Y-93985266D01*
X150064344Y-102631852D02*
X149668147Y-102631852D01*
X148651992Y-103648007D02*
X148651993Y-104851992D01*
X149668147Y-102631852D02*
X148651992Y-103648007D01*
X150685266Y-102010928D02*
X150064344Y-102631852D01*
X165375000Y-104565000D02*
X164265000Y-104565000D01*
X158500000Y-104325000D02*
X157500000Y-105325000D01*
X164265000Y-104565000D02*
X164025000Y-104325000D01*
X164025000Y-104325000D02*
X158500000Y-104325000D01*
X157500000Y-105325000D02*
X157500000Y-107100000D01*
X163500000Y-109202500D02*
X163062501Y-108765001D01*
X164302500Y-109100000D02*
X164200000Y-109202500D01*
X163062501Y-107600000D02*
X163600001Y-107600000D01*
X163600001Y-107600000D02*
X164095000Y-107105000D01*
X164095000Y-107105000D02*
X165375000Y-107105000D01*
X166602500Y-109100000D02*
X164302500Y-109100000D01*
X164200000Y-109202500D02*
X163500000Y-109202500D01*
X163062501Y-108765001D02*
X163062501Y-107600000D01*
D51*
X155017461Y-88617461D02*
X154700000Y-88300000D01*
D52*
X163078751Y-82048008D02*
X163251992Y-82048008D01*
X163251992Y-82048008D02*
X164305581Y-83101597D01*
D51*
X155017461Y-89193451D02*
X155017461Y-88617461D01*
X154700000Y-88300000D02*
X154700000Y-87700000D01*
D52*
X162246133Y-81215390D02*
X163078751Y-82048008D01*
D51*
X161184611Y-81215389D02*
X162246133Y-81215389D01*
X154468287Y-89742625D02*
X155017461Y-89193451D01*
X154700000Y-87700000D02*
X161184611Y-81215389D01*
D52*
X164305581Y-83101597D02*
X164305581Y-83200592D01*
X164451992Y-92751992D02*
X163800000Y-92100000D01*
X166351992Y-92751992D02*
X164451992Y-92751992D01*
X166915774Y-92751992D02*
X168083883Y-91583883D01*
X166351992Y-92751992D02*
X166915774Y-92751992D01*
X163800000Y-92100000D02*
X159889087Y-92100000D01*
X159889087Y-92100000D02*
X158357375Y-93631713D01*
X159733972Y-91548008D02*
X158003821Y-93278159D01*
X165148008Y-91548008D02*
X165148008Y-90984226D01*
X165148008Y-91548008D02*
X159733972Y-91548008D01*
X165148008Y-90984226D02*
X166316117Y-89816117D01*
D53*
X156848008Y-86851992D02*
X157500000Y-86200000D01*
D52*
X140651992Y-85851992D02*
X140651992Y-83766997D01*
X152356561Y-111905430D02*
X152200000Y-111748869D01*
X149751992Y-103651308D02*
X151038819Y-102364481D01*
D51*
X132950000Y-98350000D02*
X131660000Y-98350000D01*
D52*
X135112500Y-109450000D02*
X136312500Y-109450000D01*
X134750000Y-109812500D02*
X135112500Y-109450000D01*
X152200000Y-111748869D02*
X152200000Y-110330000D01*
D51*
X136950000Y-108450000D02*
X137600000Y-109100000D01*
D52*
X136073000Y-110689500D02*
X136073000Y-111212000D01*
X159064481Y-94338819D02*
X160203300Y-93200000D01*
X150331713Y-89742625D02*
X149237096Y-88648009D01*
X155651992Y-89266028D02*
X154821841Y-90096179D01*
X159064481Y-97061181D02*
X160055291Y-98051992D01*
X138450000Y-111362500D02*
X138450000Y-110650000D01*
X160203300Y-93200000D02*
X160700000Y-93200000D01*
D53*
X144048008Y-93251992D02*
X144048008Y-93948008D01*
D52*
X140651992Y-83766997D02*
X140862456Y-83556533D01*
X131550000Y-109812500D02*
X134750000Y-109812500D01*
D53*
X156751992Y-86851992D02*
X156848008Y-86851992D01*
D51*
X136950000Y-108037500D02*
X136950000Y-108450000D01*
D52*
X155651992Y-88051992D02*
X155651992Y-89266028D01*
X138450000Y-110650000D02*
X138500000Y-110600000D01*
X166147595Y-81358579D02*
X166204163Y-81358579D01*
X140651992Y-85851992D02*
X140651992Y-85551992D01*
X136073000Y-111212000D02*
X134950000Y-112335000D01*
D53*
X160948008Y-98051992D02*
X160948008Y-97348008D01*
D52*
X169200000Y-112100000D02*
X169200000Y-111902500D01*
X144648692Y-93251991D02*
X145735519Y-94338819D01*
X160055291Y-98051992D02*
X160948008Y-98051992D01*
X169200000Y-111902500D02*
X169802500Y-111300000D01*
D53*
X161151992Y-93848008D02*
X160400000Y-94600000D01*
D52*
X149751992Y-103751993D02*
X149751992Y-103651308D01*
D53*
X149751992Y-103751992D02*
X150748008Y-103751992D01*
D52*
X140651992Y-85551992D02*
X139900000Y-84800000D01*
X131550000Y-109812500D02*
X130612500Y-109812500D01*
X148622496Y-85777504D02*
X149577504Y-85777504D01*
D53*
X161151992Y-93651992D02*
X161151992Y-93848008D01*
D52*
X155651992Y-88051992D02*
X155651993Y-87951992D01*
X130612500Y-109812500D02*
X130400000Y-109600000D01*
X137050000Y-110450000D02*
X137100000Y-110500000D01*
D51*
X133100000Y-98200000D02*
X132950000Y-98350000D01*
D53*
X144048008Y-93948008D02*
X144600000Y-94500000D01*
D52*
X152200000Y-110330000D02*
X152070000Y-110200000D01*
X165472308Y-82033866D02*
X166147595Y-81358579D01*
D53*
X148548008Y-88648008D02*
X147900000Y-88000000D01*
D52*
X155651993Y-87951992D02*
X156751993Y-86851992D01*
D53*
X150748008Y-103751992D02*
X151200000Y-103300000D01*
D52*
X140028419Y-82722496D02*
X140862456Y-83556533D01*
X136312500Y-110450000D02*
X136073000Y-110689500D01*
X149577504Y-85777504D02*
X149600000Y-85800000D01*
D53*
X148651992Y-88648008D02*
X148548008Y-88648008D01*
X160948008Y-97348008D02*
X160500000Y-96900000D01*
D52*
X139377504Y-82722496D02*
X140028419Y-82722496D01*
X136312500Y-110450000D02*
X137050000Y-110450000D01*
X144048008Y-93251992D02*
X144648692Y-93251991D01*
X160700000Y-93200000D02*
X161151992Y-93651992D01*
X149237096Y-88648009D02*
X148651992Y-88648009D01*
X137950000Y-108037500D02*
X137950000Y-106737500D01*
X138699999Y-105987501D02*
X138250000Y-106437500D01*
X137950000Y-106737500D02*
X138250000Y-106437500D01*
X138699999Y-104437500D02*
X138699999Y-105987501D01*
X137450000Y-107187500D02*
X136700000Y-106437500D01*
X136200001Y-104437500D02*
X136200001Y-105937501D01*
X137450000Y-108037500D02*
X137450000Y-107187500D01*
X136200001Y-105937501D02*
X136700000Y-106437500D01*
X137950000Y-112812500D02*
X137925000Y-112837500D01*
X137950000Y-111362500D02*
X137950000Y-112812500D01*
X140987500Y-97700000D02*
X140987500Y-96107500D01*
X137212500Y-99900000D02*
X139412500Y-97700000D01*
D51*
X131660000Y-101350000D02*
X133452500Y-101350000D01*
D52*
X133502500Y-101300000D02*
X133614316Y-101300000D01*
X135014316Y-99900000D02*
X137212500Y-99900000D01*
X133614316Y-101300000D02*
X135014316Y-99900000D01*
D51*
X133452500Y-101350000D02*
X133502500Y-101300000D01*
D54*
X144174270Y-95779300D02*
X148125730Y-95779300D01*
X139000000Y-101525003D02*
X142479300Y-98045703D01*
X142479300Y-97474270D02*
X144174270Y-95779300D01*
X148125730Y-95779300D02*
X151020700Y-98674270D01*
X151020700Y-99654160D02*
X150386951Y-100287909D01*
X142479300Y-98045703D02*
X142479300Y-97474270D01*
X151020700Y-98674270D02*
X151020700Y-99654160D01*
X150386951Y-100287909D02*
X150286965Y-100287909D01*
X150286965Y-100287909D02*
X149624606Y-100950268D01*
X142120700Y-97897166D02*
X142120700Y-97325730D01*
X139392866Y-100625000D02*
X142120700Y-97897166D01*
X148274270Y-95420700D02*
X144025730Y-95420700D01*
X150640518Y-100641462D02*
X150640518Y-100541476D01*
X151379300Y-98525730D02*
X148274270Y-95420700D01*
X151379300Y-99802694D02*
X151379300Y-98525730D01*
X150640518Y-100541476D02*
X151379300Y-99802694D01*
X139000000Y-100625000D02*
X139392866Y-100625000D01*
X149978159Y-101303821D02*
X150640518Y-100641462D01*
X144025730Y-95420700D02*
X142120700Y-97325730D01*
D52*
X170400000Y-98900000D02*
X171000000Y-98900000D01*
X148563946Y-99889608D02*
X147600000Y-100853554D01*
X147600000Y-100853554D02*
X147600000Y-101600000D01*
X171000000Y-98900000D02*
X172105339Y-97794661D01*
X172105339Y-97794661D02*
X172402855Y-97794661D01*
X171120280Y-94270813D02*
X170729187Y-94270813D01*
X170729187Y-94270813D02*
X166600000Y-98400000D01*
X162500000Y-98400000D02*
X160836708Y-100063292D01*
X160836708Y-100063292D02*
X157823950Y-100063292D01*
X166600000Y-98400000D02*
X162500000Y-98400000D01*
X157823950Y-100063292D02*
X156943161Y-99182501D01*
X154735658Y-106893908D02*
X154735658Y-102631850D01*
X170100000Y-97800000D02*
X170104624Y-97795376D01*
X170104624Y-97795376D02*
X170504624Y-97795376D01*
X154741750Y-106900000D02*
X154735658Y-106893908D01*
X170504624Y-97795376D02*
X171679955Y-96620045D01*
X171679955Y-96620045D02*
X171975331Y-96620045D01*
X154735658Y-102631850D02*
X154114734Y-102010928D01*
X157246446Y-100900000D02*
X156236054Y-99889608D01*
X165800000Y-100900000D02*
X157246446Y-100900000D01*
X171254570Y-95445430D02*
X165800000Y-100900000D01*
X171547807Y-95445430D02*
X171254570Y-95445430D01*
X149271052Y-100596714D02*
X150300000Y-99567766D01*
X150300000Y-99567766D02*
X150300000Y-99100000D01*
X151038819Y-88161181D02*
X155300000Y-83900000D01*
X151038819Y-89035519D02*
X151038819Y-88161181D01*
X153500000Y-87200000D02*
X153800000Y-87200000D01*
X154000000Y-87400000D02*
X154000000Y-88796700D01*
X153800000Y-87200000D02*
X154000000Y-87400000D01*
X154000000Y-88796700D02*
X153761181Y-89035519D01*
X149600000Y-99389950D02*
X149685355Y-99475305D01*
X149685355Y-99475305D02*
X148917499Y-100243161D01*
X149600000Y-98810050D02*
X149600000Y-99389950D01*
X149800000Y-98341272D02*
X149800000Y-98610050D01*
X149800000Y-98610050D02*
X149600000Y-98810050D01*
X149479364Y-98020636D02*
X149800000Y-98341272D01*
D51*
X143242228Y-90815544D02*
X143226684Y-90800000D01*
X153212007Y-100787993D02*
X153213342Y-100786658D01*
X153761181Y-102364481D02*
X153212007Y-101815307D01*
X153212007Y-101815307D02*
X153212007Y-100787993D01*
X143226684Y-90800000D02*
X136000000Y-90800000D01*
X136000000Y-90800000D02*
X134500000Y-89300000D01*
X151735250Y-100253838D02*
X150331713Y-101657375D01*
X150477531Y-95141992D02*
X151735250Y-96399711D01*
X150477531Y-93713070D02*
X150477531Y-95141992D01*
X151735250Y-96399711D02*
X151735250Y-100253838D01*
X147503286Y-98828948D02*
X146100000Y-100232234D01*
D52*
X146570000Y-110500000D02*
X146570000Y-111770000D01*
D51*
X146570000Y-108970000D02*
X146570000Y-110200000D01*
X146100000Y-108500000D02*
X146570000Y-108970000D01*
X146100000Y-100232234D02*
X146100000Y-108500000D01*
D52*
X146570000Y-111770000D02*
X146700000Y-111900000D01*
D51*
X156900000Y-112500000D02*
X156900000Y-101967766D01*
X153200000Y-111800000D02*
X154356500Y-112956500D01*
X154356500Y-112956500D02*
X156443500Y-112956500D01*
X156443500Y-112956500D02*
X156900000Y-112500000D01*
D52*
X153170000Y-110500000D02*
X153170000Y-111770000D01*
X153170000Y-111770000D02*
X153200000Y-111800000D01*
D51*
X156900000Y-101967766D02*
X155528948Y-100596714D01*
X153000000Y-103700000D02*
X152400000Y-103100000D01*
D52*
X150443841Y-111894842D02*
X150970000Y-111368683D01*
D51*
X150970000Y-107612062D02*
X153000000Y-105582062D01*
X153000000Y-105582062D02*
X153000000Y-103700000D01*
X152400000Y-100700000D02*
X153000000Y-100100000D01*
X154325126Y-100100000D02*
X155175394Y-100950268D01*
X152400000Y-103100000D02*
X152400000Y-100700000D01*
X150970000Y-110200000D02*
X150970000Y-107612062D01*
D52*
X150970000Y-111368683D02*
X150970000Y-110200000D01*
D51*
X153000000Y-100100000D02*
X154325126Y-100100000D01*
X148950003Y-112600000D02*
X148200000Y-112600000D01*
X148210392Y-99536054D02*
X146856500Y-100889946D01*
X146856500Y-100889946D02*
X146856500Y-105856500D01*
X146856500Y-105856500D02*
X149100000Y-108100000D01*
X148200000Y-112600000D02*
X147700000Y-112100000D01*
X149550003Y-112000000D02*
X148950003Y-112600000D01*
D52*
X147670000Y-111870000D02*
X147700000Y-111900000D01*
D51*
X147700000Y-112100000D02*
X147700000Y-111900000D01*
D52*
X147670000Y-110500000D02*
X147670000Y-111870000D01*
X148770000Y-111830000D02*
X148700000Y-111900000D01*
D51*
X148770000Y-109750000D02*
X146500000Y-107480000D01*
X146500000Y-100539340D02*
X147856839Y-99182501D01*
D52*
X148770000Y-110500000D02*
X148770000Y-111830000D01*
D51*
X148770000Y-110200000D02*
X148770000Y-109750000D01*
X146500000Y-107480000D02*
X146500000Y-100539340D01*
X155370000Y-102559088D02*
X154468287Y-101657375D01*
X155370000Y-110200000D02*
X155370000Y-102559088D01*
D52*
X155370000Y-110500000D02*
X155370000Y-111770000D01*
X155370000Y-111770000D02*
X155400000Y-111800000D01*
D51*
X156000000Y-112500000D02*
X156300000Y-112200000D01*
X154300000Y-112000000D02*
X154800000Y-112500000D01*
D52*
X154270000Y-110500000D02*
X154270000Y-111770000D01*
D51*
X156300000Y-102781980D02*
X154821841Y-101303821D01*
X154800000Y-112500000D02*
X156000000Y-112500000D01*
D52*
X154270000Y-111770000D02*
X154300000Y-111800000D01*
D51*
X154300000Y-111800000D02*
X154300000Y-112000000D01*
X156300000Y-112200000D02*
X156300000Y-102781980D01*
D52*
X152900000Y-90603806D02*
X154114734Y-89389072D01*
X167797500Y-104897500D02*
X167700000Y-104800000D01*
X167797500Y-109100000D02*
X167797500Y-104897500D01*
X152900000Y-90700000D02*
X152900000Y-90603806D01*
X167797500Y-109099999D02*
X167797500Y-110200000D01*
D51*
X145841546Y-96158454D02*
X147558454Y-96158454D01*
X135550753Y-102153253D02*
X139846747Y-102153253D01*
X134697500Y-101300000D02*
X135550753Y-102153253D01*
X147558454Y-96158454D02*
X148300000Y-96900000D01*
X139846747Y-102153253D02*
X141800000Y-100200000D01*
X141800000Y-100200000D02*
X145841546Y-96158454D01*
X156600000Y-97400000D02*
X156600000Y-97425126D01*
X156600000Y-97425126D02*
X157650268Y-98475394D01*
X147149732Y-92894724D02*
X147149732Y-92924606D01*
X145977504Y-91722496D02*
X147149732Y-92894724D01*
X147722227Y-94477773D02*
X148009227Y-94477773D01*
D52*
X147520521Y-86622496D02*
X146639518Y-85741493D01*
X147777504Y-86622496D02*
X147520521Y-86622496D01*
D51*
X147777504Y-86622496D02*
X148915324Y-86622496D01*
X148100000Y-93167766D02*
X147503286Y-92571052D01*
X148009227Y-94477773D02*
X148100000Y-94387000D01*
X148915324Y-86622496D02*
X148950899Y-86586921D01*
X148100000Y-94387000D02*
X148100000Y-93167766D01*
X140222496Y-81877504D02*
X139376442Y-81877504D01*
D52*
X140979479Y-81877504D02*
X141760482Y-82658507D01*
D51*
X138683328Y-87483328D02*
X139800000Y-88600000D01*
X138683328Y-82570618D02*
X138683328Y-87483328D01*
X155500000Y-98300000D02*
X155500000Y-98446446D01*
X139376442Y-81877504D02*
X138683328Y-82570618D01*
X155500000Y-98446446D02*
X156589608Y-99536054D01*
D52*
X140222496Y-81877504D02*
X140979479Y-81877504D01*
X135625000Y-110465000D02*
X134950000Y-111140000D01*
X135648000Y-109950000D02*
X135625000Y-109973000D01*
X136312500Y-109950000D02*
X135648000Y-109950000D01*
X135625000Y-109973000D02*
X135625000Y-110465000D01*
D51*
X165222496Y-96122496D02*
X165322496Y-96122496D01*
X165322496Y-96122496D02*
X166300000Y-97100000D01*
X143000000Y-100503806D02*
X146089072Y-97414734D01*
X141298000Y-108950000D02*
X143000000Y-107248000D01*
X143000000Y-107248000D02*
X143000000Y-100503806D01*
X141087500Y-108950000D02*
X141298000Y-108950000D01*
D52*
X168114999Y-112209999D02*
X168005000Y-112100000D01*
X168114999Y-113500000D02*
X168114999Y-112209999D01*
X145741493Y-86639518D02*
X145741493Y-87980833D01*
X145741493Y-87980833D02*
X148917499Y-91156839D01*
D51*
X141037667Y-112800000D02*
X141711750Y-112125917D01*
X138950000Y-111883500D02*
X139866500Y-112800000D01*
X139866500Y-112800000D02*
X141037667Y-112800000D01*
X148900000Y-94725271D02*
X148900000Y-93100000D01*
X149000000Y-93000000D02*
X149000000Y-92653554D01*
X148900000Y-93100000D02*
X149000000Y-93000000D01*
X141711750Y-111488250D02*
X144700000Y-108500000D01*
X149716218Y-95541489D02*
X148900000Y-94725271D01*
X141711750Y-112125917D02*
X141711750Y-111488250D01*
X149000000Y-92653554D02*
X148210392Y-91863946D01*
X138950000Y-111362500D02*
X138950000Y-111883500D01*
X144700000Y-108500000D02*
X144700000Y-103400000D01*
X143900000Y-108700000D02*
X143900000Y-103000000D01*
X140666500Y-112100000D02*
X141233500Y-112100000D01*
X149723271Y-92669717D02*
X148563946Y-91510392D01*
X141355250Y-111978250D02*
X141355250Y-111244750D01*
X143900000Y-103000000D02*
X145400000Y-101500000D01*
X141355250Y-111244750D02*
X143900000Y-108700000D01*
X141233500Y-112100000D02*
X141355250Y-111978250D01*
X140450000Y-111362500D02*
X140450000Y-111883500D01*
X149723271Y-93979707D02*
X149723271Y-92669717D01*
X140450000Y-111883500D02*
X140666500Y-112100000D01*
X141087500Y-109450000D02*
X141615770Y-109450000D01*
X141615770Y-109450000D02*
X142232885Y-108832885D01*
X142200000Y-100596700D02*
X145735519Y-97061181D01*
X142200000Y-107100000D02*
X142200000Y-100596700D01*
D52*
X150781980Y-90900000D02*
X149978159Y-90096179D01*
X144843467Y-88143467D02*
X145600000Y-88900000D01*
X151500000Y-90900000D02*
X150781980Y-90900000D01*
X144843467Y-87537544D02*
X144843467Y-88143467D01*
X150969240Y-91550000D02*
X150724874Y-91550000D01*
X142560482Y-81760482D02*
X141700000Y-80900000D01*
X150724874Y-91550000D02*
X149624606Y-90449732D01*
X151459620Y-92040380D02*
X150969240Y-91550000D01*
X142658507Y-81760482D02*
X142560482Y-81760482D01*
D51*
X150312059Y-96955099D02*
X148543500Y-95186540D01*
X148543500Y-92904160D02*
X147856839Y-92217499D01*
X136450000Y-111362500D02*
X136450000Y-111719562D01*
X140801000Y-113590750D02*
X144291750Y-110100000D01*
X136708688Y-111978250D02*
X137196750Y-112466312D01*
X148543500Y-95186540D02*
X148543500Y-92904160D01*
X150625661Y-96955099D02*
X150312059Y-96955099D01*
X144291750Y-109412418D02*
X145400000Y-108304168D01*
X137485312Y-113590750D02*
X140801000Y-113590750D01*
X136544750Y-111814312D02*
X136544750Y-111978250D01*
X136450000Y-111719562D02*
X136544750Y-111814312D01*
X137196750Y-112466312D02*
X137196750Y-113302188D01*
X145400000Y-108304168D02*
X145400000Y-104400000D01*
X136544750Y-111978250D02*
X136708688Y-111978250D01*
X144291750Y-110100000D02*
X144291750Y-109412418D01*
X137196750Y-113302188D02*
X137485312Y-113590750D01*
X145100000Y-99110912D02*
X146442625Y-97768287D01*
X144800000Y-99800000D02*
X145100000Y-99500000D01*
X140950000Y-103250000D02*
X141500000Y-102700000D01*
X140950000Y-108037500D02*
X140950000Y-103250000D01*
X145100000Y-99500000D02*
X145100000Y-99110912D01*
X143400000Y-102100000D02*
X143400000Y-108500000D01*
X146796179Y-98121841D02*
X146247005Y-98671015D01*
X141950000Y-109950000D02*
X141087500Y-109950000D01*
X146247005Y-99252995D02*
X143400000Y-102100000D01*
X143400000Y-108500000D02*
X141950000Y-109950000D01*
X146247005Y-98671015D02*
X146247005Y-99252995D01*
D52*
X151400000Y-92932234D02*
X149271052Y-90803286D01*
X143462456Y-80862456D02*
X142700000Y-80100000D01*
X143556533Y-80862456D02*
X143462456Y-80862456D01*
X151400000Y-93000000D02*
X151400000Y-92932234D01*
D51*
X164377504Y-95277504D02*
X161871750Y-92771750D01*
X161871750Y-92771750D02*
X159924444Y-92771750D01*
X159924444Y-92771750D02*
X158710928Y-93985266D01*
G04 #@! TA.AperFunction,Conductor*
G36*
X167197333Y-81343691D02*
G01*
X167769616Y-81755967D01*
X167773569Y-81758938D01*
X168240558Y-82124801D01*
X168552705Y-82369353D01*
X168556574Y-82372512D01*
X169310473Y-83013782D01*
X169314211Y-83017093D01*
X170041711Y-83688229D01*
X170045312Y-83691689D01*
X170745144Y-84391521D01*
X170748604Y-84395122D01*
X171419740Y-85122622D01*
X171423051Y-85126360D01*
X172064321Y-85880259D01*
X172067480Y-85884128D01*
X172357954Y-86254890D01*
X172676223Y-86661130D01*
X172677880Y-86663244D01*
X172680871Y-86667225D01*
X173076743Y-87216736D01*
X173259415Y-87470305D01*
X173262252Y-87474415D01*
X173797416Y-88284139D01*
X173807984Y-88300128D01*
X173810645Y-88304337D01*
X174103731Y-88789161D01*
X174322688Y-89151361D01*
X174325185Y-89155686D01*
X174802700Y-90022627D01*
X174805021Y-90027049D01*
X175247243Y-90912520D01*
X175249384Y-90917032D01*
X175655596Y-91819598D01*
X175657551Y-91824188D01*
X175985266Y-92638456D01*
X176027088Y-92742369D01*
X176028857Y-92747036D01*
X176307415Y-93528652D01*
X176361127Y-93679364D01*
X176362708Y-93684101D01*
X176657154Y-94629013D01*
X176658544Y-94633810D01*
X176914717Y-95589863D01*
X176915912Y-95594711D01*
X177133375Y-96560274D01*
X177134374Y-96565167D01*
X177312784Y-97538717D01*
X177313585Y-97543647D01*
X177452647Y-98523576D01*
X177453249Y-98528533D01*
X177552741Y-99513275D01*
X177553143Y-99518253D01*
X177612904Y-100506208D01*
X177613105Y-100511198D01*
X177633035Y-101500751D01*
X177633035Y-101505745D01*
X177613105Y-102495297D01*
X177612904Y-102500287D01*
X177594342Y-102807143D01*
X177570645Y-102872872D01*
X177515175Y-102915355D01*
X177445542Y-102921104D01*
X177383855Y-102888295D01*
X177363839Y-102862782D01*
X177293081Y-102743135D01*
X177293076Y-102743129D01*
X177176870Y-102626923D01*
X177176862Y-102626917D01*
X177088229Y-102574500D01*
X177035398Y-102543256D01*
X177035397Y-102543255D01*
X177035396Y-102543255D01*
X177035393Y-102543254D01*
X176877573Y-102497402D01*
X176877567Y-102497401D01*
X176840701Y-102494500D01*
X176840694Y-102494500D01*
X175209306Y-102494500D01*
X175209298Y-102494500D01*
X175172432Y-102497401D01*
X175172426Y-102497402D01*
X175014606Y-102543254D01*
X175014603Y-102543255D01*
X174873137Y-102626917D01*
X174873129Y-102626923D01*
X174756923Y-102743129D01*
X174756917Y-102743137D01*
X174673255Y-102884603D01*
X174673254Y-102884606D01*
X174627402Y-103042426D01*
X174627401Y-103042432D01*
X174624500Y-103079298D01*
X174624500Y-103510701D01*
X174627401Y-103547567D01*
X174627402Y-103547573D01*
X174673254Y-103705393D01*
X174673255Y-103705396D01*
X174756917Y-103846862D01*
X174761702Y-103853031D01*
X174759256Y-103854927D01*
X174785857Y-103903642D01*
X174780873Y-103973334D01*
X174760069Y-104005703D01*
X174761702Y-104006969D01*
X174756917Y-104013137D01*
X174673255Y-104154603D01*
X174673254Y-104154606D01*
X174627402Y-104312426D01*
X174627401Y-104312432D01*
X174624500Y-104349298D01*
X174624500Y-104780701D01*
X174627401Y-104817567D01*
X174627402Y-104817573D01*
X174673254Y-104975393D01*
X174673255Y-104975396D01*
X174673256Y-104975398D01*
X174691777Y-105006716D01*
X174751406Y-105107544D01*
X174756918Y-105116864D01*
X174761702Y-105123031D01*
X174759256Y-105124927D01*
X174785857Y-105173642D01*
X174780873Y-105243334D01*
X174760069Y-105275703D01*
X174761702Y-105276969D01*
X174756917Y-105283137D01*
X174673255Y-105424603D01*
X174673254Y-105424606D01*
X174627402Y-105582426D01*
X174627401Y-105582432D01*
X174624500Y-105619298D01*
X174624500Y-106050693D01*
X174627401Y-106087567D01*
X174627402Y-106087573D01*
X174673254Y-106245393D01*
X174673255Y-106245396D01*
X174756917Y-106386862D01*
X174761702Y-106393031D01*
X174759256Y-106394927D01*
X174785857Y-106443642D01*
X174780873Y-106513334D01*
X174760069Y-106545703D01*
X174761702Y-106546969D01*
X174756917Y-106553137D01*
X174673255Y-106694603D01*
X174673254Y-106694606D01*
X174627402Y-106852426D01*
X174627401Y-106852432D01*
X174624500Y-106889298D01*
X174624500Y-107320701D01*
X174627401Y-107357567D01*
X174627402Y-107357573D01*
X174673254Y-107515393D01*
X174673255Y-107515396D01*
X174756917Y-107656862D01*
X174756923Y-107656870D01*
X174873129Y-107773076D01*
X174873133Y-107773079D01*
X174873135Y-107773081D01*
X175014602Y-107856744D01*
X175056224Y-107868836D01*
X175172426Y-107902597D01*
X175172429Y-107902597D01*
X175172431Y-107902598D01*
X175209306Y-107905500D01*
X176622126Y-107905500D01*
X176689165Y-107925185D01*
X176734920Y-107977989D01*
X176744864Y-108047147D01*
X176741901Y-108061593D01*
X176658546Y-108372679D01*
X176657156Y-108377476D01*
X176362708Y-109322394D01*
X176361127Y-109327131D01*
X176028859Y-110259456D01*
X176027088Y-110264126D01*
X175657553Y-111182303D01*
X175655596Y-111186897D01*
X175249384Y-112089463D01*
X175247243Y-112093975D01*
X174805021Y-112979446D01*
X174802700Y-112983868D01*
X174325185Y-113850809D01*
X174322688Y-113855134D01*
X173810653Y-114702146D01*
X173807984Y-114706367D01*
X173262252Y-115532080D01*
X173259415Y-115536190D01*
X172680880Y-116339259D01*
X172677880Y-116343251D01*
X172067480Y-117122367D01*
X172064321Y-117126236D01*
X171423051Y-117880135D01*
X171419740Y-117883873D01*
X170748604Y-118611373D01*
X170745144Y-118614974D01*
X170045312Y-119314806D01*
X170041711Y-119318266D01*
X169314211Y-119989402D01*
X169310473Y-119992713D01*
X168556574Y-120633983D01*
X168552705Y-120637142D01*
X167773589Y-121247542D01*
X167769597Y-121250542D01*
X166966528Y-121829077D01*
X166962418Y-121831914D01*
X166136705Y-122377646D01*
X166132484Y-122380315D01*
X165285472Y-122892350D01*
X165281147Y-122894847D01*
X164414206Y-123372362D01*
X164409784Y-123374683D01*
X163524313Y-123816905D01*
X163519801Y-123819046D01*
X162617235Y-124225258D01*
X162612641Y-124227215D01*
X161694464Y-124596750D01*
X161689794Y-124598521D01*
X160757469Y-124930789D01*
X160752732Y-124932370D01*
X159807820Y-125226816D01*
X159803023Y-125228206D01*
X158846970Y-125484379D01*
X158842122Y-125485574D01*
X157876559Y-125703037D01*
X157871666Y-125704036D01*
X156898116Y-125882446D01*
X156893186Y-125883247D01*
X155913257Y-126022309D01*
X155908300Y-126022911D01*
X154923558Y-126122403D01*
X154918580Y-126122805D01*
X153930625Y-126182566D01*
X153925635Y-126182767D01*
X152936083Y-126202697D01*
X152931089Y-126202697D01*
X151941536Y-126182767D01*
X151936546Y-126182566D01*
X150948591Y-126122805D01*
X150943613Y-126122403D01*
X149958871Y-126022911D01*
X149953914Y-126022309D01*
X148973985Y-125883247D01*
X148969055Y-125882446D01*
X147995505Y-125704036D01*
X147990612Y-125703037D01*
X147025049Y-125485574D01*
X147020201Y-125484379D01*
X146064148Y-125228206D01*
X146059351Y-125226816D01*
X145114439Y-124932370D01*
X145109702Y-124930789D01*
X144177377Y-124598521D01*
X144172707Y-124596750D01*
X143254530Y-124227215D01*
X143249936Y-124225258D01*
X142347370Y-123819046D01*
X142342858Y-123816905D01*
X141457387Y-123374683D01*
X141452965Y-123372362D01*
X140586024Y-122894847D01*
X140581699Y-122892350D01*
X140291779Y-122717088D01*
X139734675Y-122380307D01*
X139730479Y-122377654D01*
X138904753Y-121831914D01*
X138900643Y-121829077D01*
X138518668Y-121553900D01*
X138097563Y-121250533D01*
X138093594Y-121247551D01*
X137740685Y-120971064D01*
X137476479Y-120764071D01*
X147519499Y-120764071D01*
X147544497Y-120889738D01*
X147544499Y-120889744D01*
X147593533Y-121008124D01*
X147593538Y-121008133D01*
X147664723Y-121114668D01*
X147664726Y-121114672D01*
X147755327Y-121205273D01*
X147755331Y-121205276D01*
X147861866Y-121276461D01*
X147861872Y-121276464D01*
X147861873Y-121276465D01*
X147980256Y-121325501D01*
X147980260Y-121325501D01*
X147980261Y-121325502D01*
X148105928Y-121350500D01*
X148105931Y-121350500D01*
X148234071Y-121350500D01*
X148318615Y-121333682D01*
X148359744Y-121325501D01*
X148478127Y-121276465D01*
X148584669Y-121205276D01*
X148675276Y-121114669D01*
X148746465Y-121008127D01*
X148795501Y-120889744D01*
X148820500Y-120764071D01*
X155519499Y-120764071D01*
X155544497Y-120889738D01*
X155544499Y-120889744D01*
X155593533Y-121008124D01*
X155593538Y-121008133D01*
X155664723Y-121114668D01*
X155664726Y-121114672D01*
X155755327Y-121205273D01*
X155755331Y-121205276D01*
X155861866Y-121276461D01*
X155861872Y-121276464D01*
X155861873Y-121276465D01*
X155980256Y-121325501D01*
X155980260Y-121325501D01*
X155980261Y-121325502D01*
X156105928Y-121350500D01*
X156105931Y-121350500D01*
X156234071Y-121350500D01*
X156318615Y-121333682D01*
X156359744Y-121325501D01*
X156478127Y-121276465D01*
X156584669Y-121205276D01*
X156675276Y-121114669D01*
X156746465Y-121008127D01*
X156795501Y-120889744D01*
X156820500Y-120764069D01*
X156820500Y-120635931D01*
X156820500Y-120635928D01*
X156795502Y-120510261D01*
X156795501Y-120510260D01*
X156795501Y-120510256D01*
X156746465Y-120391873D01*
X156746464Y-120391872D01*
X156746461Y-120391866D01*
X156675276Y-120285331D01*
X156675273Y-120285327D01*
X156584672Y-120194726D01*
X156584668Y-120194723D01*
X156478133Y-120123538D01*
X156478124Y-120123533D01*
X156359744Y-120074499D01*
X156359738Y-120074497D01*
X156234071Y-120049500D01*
X156234069Y-120049500D01*
X156105931Y-120049500D01*
X156105929Y-120049500D01*
X155980261Y-120074497D01*
X155980255Y-120074499D01*
X155861875Y-120123533D01*
X155861866Y-120123538D01*
X155755331Y-120194723D01*
X155755327Y-120194726D01*
X155664726Y-120285327D01*
X155664723Y-120285331D01*
X155593538Y-120391866D01*
X155593533Y-120391875D01*
X155544499Y-120510255D01*
X155544497Y-120510261D01*
X155519500Y-120635928D01*
X155519500Y-120635931D01*
X155519500Y-120764069D01*
X155519500Y-120764071D01*
X155519499Y-120764071D01*
X148820500Y-120764071D01*
X148820500Y-120764069D01*
X148820500Y-120635931D01*
X148820500Y-120635928D01*
X148795502Y-120510261D01*
X148795501Y-120510260D01*
X148795501Y-120510256D01*
X148746465Y-120391873D01*
X148746464Y-120391872D01*
X148746461Y-120391866D01*
X148675276Y-120285331D01*
X148675273Y-120285327D01*
X148584672Y-120194726D01*
X148584668Y-120194723D01*
X148478133Y-120123538D01*
X148478124Y-120123533D01*
X148359744Y-120074499D01*
X148359738Y-120074497D01*
X148234071Y-120049500D01*
X148234069Y-120049500D01*
X148105931Y-120049500D01*
X148105929Y-120049500D01*
X147980261Y-120074497D01*
X147980255Y-120074499D01*
X147861875Y-120123533D01*
X147861866Y-120123538D01*
X147755331Y-120194723D01*
X147755327Y-120194726D01*
X147664726Y-120285327D01*
X147664723Y-120285331D01*
X147593538Y-120391866D01*
X147593533Y-120391875D01*
X147544499Y-120510255D01*
X147544497Y-120510261D01*
X147519500Y-120635928D01*
X147519500Y-120635931D01*
X147519500Y-120764069D01*
X147519500Y-120764071D01*
X147519499Y-120764071D01*
X137476479Y-120764071D01*
X137314466Y-120637142D01*
X137310597Y-120633983D01*
X136556698Y-119992713D01*
X136552960Y-119989402D01*
X135825460Y-119318266D01*
X135821859Y-119314806D01*
X135122027Y-118614974D01*
X135118567Y-118611373D01*
X134447431Y-117883873D01*
X134444120Y-117880135D01*
X134133961Y-117515501D01*
X135723183Y-117515501D01*
X135755205Y-117717684D01*
X135818464Y-117912373D01*
X135911398Y-118094763D01*
X136031711Y-118260363D01*
X136176469Y-118405121D01*
X136331432Y-118517706D01*
X136342073Y-118525437D01*
X136458290Y-118584653D01*
X136524459Y-118618368D01*
X136524461Y-118618368D01*
X136524464Y-118618370D01*
X136628820Y-118652277D01*
X136719148Y-118681627D01*
X136820240Y-118697638D01*
X136921331Y-118713650D01*
X136921332Y-118713650D01*
X137126034Y-118713650D01*
X137126035Y-118713650D01*
X137328217Y-118681627D01*
X137522902Y-118618370D01*
X137705293Y-118525437D01*
X137740303Y-118500000D01*
X139769402Y-118500000D01*
X139789738Y-118693483D01*
X139849856Y-118878510D01*
X139849857Y-118878511D01*
X139904332Y-118972864D01*
X139947130Y-119046992D01*
X139992476Y-119097354D01*
X140077302Y-119191564D01*
X140077305Y-119191566D01*
X140077308Y-119191569D01*
X140195352Y-119277333D01*
X140234702Y-119305923D01*
X140258657Y-119316588D01*
X140412429Y-119385051D01*
X140602726Y-119425500D01*
X140797274Y-119425500D01*
X140987571Y-119385051D01*
X140987573Y-119385049D01*
X140993755Y-119383042D01*
X140994756Y-119386124D01*
X141049741Y-119378197D01*
X141075463Y-119384757D01*
X141167517Y-119419091D01*
X141227127Y-119425500D01*
X142172872Y-119425499D01*
X142232483Y-119419091D01*
X142367331Y-119368796D01*
X142482546Y-119282546D01*
X142568796Y-119167331D01*
X142619091Y-119032483D01*
X142625500Y-118972873D01*
X142625499Y-118027128D01*
X142619091Y-117967517D01*
X142613679Y-117953008D01*
X142568797Y-117832671D01*
X142568793Y-117832664D01*
X142482547Y-117717455D01*
X142482544Y-117717452D01*
X142367335Y-117631206D01*
X142367328Y-117631202D01*
X142232482Y-117580908D01*
X142232483Y-117580908D01*
X142172883Y-117574501D01*
X142172881Y-117574500D01*
X142172873Y-117574500D01*
X142172864Y-117574500D01*
X141227129Y-117574500D01*
X141227123Y-117574501D01*
X141167516Y-117580908D01*
X141075472Y-117615239D01*
X141005780Y-117620223D01*
X140993934Y-117616390D01*
X140993750Y-117616957D01*
X140987573Y-117614950D01*
X140987571Y-117614949D01*
X140987568Y-117614948D01*
X140987567Y-117614948D01*
X140797274Y-117574500D01*
X140602726Y-117574500D01*
X140412431Y-117614948D01*
X140234702Y-117694076D01*
X140077305Y-117808433D01*
X140077302Y-117808435D01*
X139947129Y-117953009D01*
X139849857Y-118121488D01*
X139849856Y-118121489D01*
X139789738Y-118306516D01*
X139769402Y-118500000D01*
X137740303Y-118500000D01*
X137798273Y-118457882D01*
X137870896Y-118405121D01*
X137870898Y-118405118D01*
X137870902Y-118405116D01*
X138015649Y-118260369D01*
X138015651Y-118260365D01*
X138015654Y-118260363D01*
X138125355Y-118109370D01*
X138135970Y-118094760D01*
X138228903Y-117912369D01*
X138292160Y-117717684D01*
X138324183Y-117515502D01*
X138324183Y-117515501D01*
X167542988Y-117515501D01*
X167575010Y-117717684D01*
X167638269Y-117912373D01*
X167731203Y-118094763D01*
X167851516Y-118260363D01*
X167996274Y-118405121D01*
X168151237Y-118517706D01*
X168161878Y-118525437D01*
X168278095Y-118584653D01*
X168344264Y-118618368D01*
X168344266Y-118618368D01*
X168344269Y-118618370D01*
X168448625Y-118652277D01*
X168538953Y-118681627D01*
X168640045Y-118697638D01*
X168741136Y-118713650D01*
X168741137Y-118713650D01*
X168945839Y-118713650D01*
X168945840Y-118713650D01*
X169148022Y-118681627D01*
X169342707Y-118618370D01*
X169525098Y-118525437D01*
X169618078Y-118457882D01*
X169690701Y-118405121D01*
X169690703Y-118405118D01*
X169690707Y-118405116D01*
X169835454Y-118260369D01*
X169835456Y-118260365D01*
X169835459Y-118260363D01*
X169945160Y-118109370D01*
X169955775Y-118094760D01*
X170048708Y-117912369D01*
X170111965Y-117717684D01*
X170143988Y-117515502D01*
X170143988Y-117310798D01*
X170114756Y-117126236D01*
X170111965Y-117108615D01*
X170048706Y-116913926D01*
X170014991Y-116847757D01*
X169955775Y-116731540D01*
X169948044Y-116720899D01*
X169835459Y-116565936D01*
X169690701Y-116421178D01*
X169525101Y-116300865D01*
X169525100Y-116300864D01*
X169525098Y-116300863D01*
X169468141Y-116271841D01*
X169342711Y-116207931D01*
X169148022Y-116144672D01*
X168973483Y-116117028D01*
X168945840Y-116112650D01*
X168741136Y-116112650D01*
X168716817Y-116116501D01*
X168538953Y-116144672D01*
X168344264Y-116207931D01*
X168161874Y-116300865D01*
X167996274Y-116421178D01*
X167851516Y-116565936D01*
X167731203Y-116731536D01*
X167638269Y-116913926D01*
X167575010Y-117108615D01*
X167542988Y-117310798D01*
X167542988Y-117515501D01*
X138324183Y-117515501D01*
X138324183Y-117310798D01*
X138294951Y-117126236D01*
X138292160Y-117108615D01*
X138228901Y-116913926D01*
X138195186Y-116847757D01*
X138135970Y-116731540D01*
X138128239Y-116720899D01*
X138015654Y-116565936D01*
X137870896Y-116421178D01*
X137705296Y-116300865D01*
X137705295Y-116300864D01*
X137705293Y-116300863D01*
X137648336Y-116271841D01*
X137522906Y-116207931D01*
X137328217Y-116144672D01*
X137153678Y-116117028D01*
X137126035Y-116112650D01*
X136921331Y-116112650D01*
X136897012Y-116116501D01*
X136719148Y-116144672D01*
X136524459Y-116207931D01*
X136342069Y-116300865D01*
X136176469Y-116421178D01*
X136031711Y-116565936D01*
X135911398Y-116731536D01*
X135818464Y-116913926D01*
X135755205Y-117108615D01*
X135723183Y-117310798D01*
X135723183Y-117515501D01*
X134133961Y-117515501D01*
X133802850Y-117126236D01*
X133799691Y-117122367D01*
X133250348Y-116421184D01*
X133189276Y-116343231D01*
X133186305Y-116339278D01*
X132607749Y-115536181D01*
X132604919Y-115532080D01*
X132389118Y-115205565D01*
X132059171Y-114706341D01*
X132056534Y-114702172D01*
X131873867Y-114400003D01*
X144994435Y-114400003D01*
X145014630Y-114579249D01*
X145014631Y-114579254D01*
X145074211Y-114749523D01*
X145170184Y-114902262D01*
X145297738Y-115029816D01*
X145450478Y-115125789D01*
X145620745Y-115185368D01*
X145620750Y-115185369D01*
X145799996Y-115205565D01*
X145800000Y-115205565D01*
X145800004Y-115205565D01*
X145979249Y-115185369D01*
X145979252Y-115185368D01*
X145979255Y-115185368D01*
X146149522Y-115125789D01*
X146302262Y-115029816D01*
X146429816Y-114902262D01*
X146525789Y-114749522D01*
X146585368Y-114579255D01*
X146585369Y-114579249D01*
X146605565Y-114400003D01*
X146605565Y-114399996D01*
X146585369Y-114220750D01*
X146585368Y-114220745D01*
X146567437Y-114169500D01*
X146525789Y-114050478D01*
X146429816Y-113897738D01*
X146302262Y-113770184D01*
X146292809Y-113764244D01*
X146149523Y-113674211D01*
X145979254Y-113614631D01*
X145979249Y-113614630D01*
X145800004Y-113594435D01*
X145799996Y-113594435D01*
X145620750Y-113614630D01*
X145620745Y-113614631D01*
X145450476Y-113674211D01*
X145297737Y-113770184D01*
X145170184Y-113897737D01*
X145074211Y-114050476D01*
X145014631Y-114220745D01*
X145014630Y-114220750D01*
X144994435Y-114399996D01*
X144994435Y-114400003D01*
X131873867Y-114400003D01*
X131544477Y-113855124D01*
X131541986Y-113850809D01*
X131516299Y-113804174D01*
X131064465Y-112983857D01*
X131062150Y-112979446D01*
X131050121Y-112955361D01*
X130619924Y-112093966D01*
X130617787Y-112089463D01*
X130614983Y-112083233D01*
X130211563Y-111186870D01*
X130209630Y-111182331D01*
X129936563Y-110503848D01*
X129929795Y-110434309D01*
X129961697Y-110372148D01*
X130022142Y-110337102D01*
X130091939Y-110340299D01*
X130092552Y-110340512D01*
X130220737Y-110385366D01*
X130220742Y-110385367D01*
X130220745Y-110385368D01*
X130306302Y-110395007D01*
X130339857Y-110403663D01*
X130422756Y-110438001D01*
X130422760Y-110438001D01*
X130422761Y-110438002D01*
X130548428Y-110463000D01*
X130548431Y-110463000D01*
X130648126Y-110463000D01*
X130715165Y-110482685D01*
X130735807Y-110499319D01*
X130846955Y-110610467D01*
X130846959Y-110610470D01*
X130991294Y-110699498D01*
X130991297Y-110699499D01*
X130991303Y-110699503D01*
X131152292Y-110752849D01*
X131251655Y-110763000D01*
X131848344Y-110762999D01*
X131848352Y-110762998D01*
X131848355Y-110762998D01*
X131902760Y-110757440D01*
X131947708Y-110752849D01*
X132108697Y-110699503D01*
X132253044Y-110610468D01*
X132262319Y-110601193D01*
X132323642Y-110567708D01*
X132393334Y-110572692D01*
X132437681Y-110601193D01*
X132446955Y-110610467D01*
X132446959Y-110610470D01*
X132591294Y-110699498D01*
X132591297Y-110699499D01*
X132591303Y-110699503D01*
X132752292Y-110752849D01*
X132851655Y-110763000D01*
X133448344Y-110762999D01*
X133448352Y-110762998D01*
X133448355Y-110762998D01*
X133502760Y-110757440D01*
X133547708Y-110752849D01*
X133708697Y-110699503D01*
X133853044Y-110610468D01*
X133862319Y-110601193D01*
X133923642Y-110567708D01*
X133993334Y-110572692D01*
X134037681Y-110601193D01*
X134046955Y-110610467D01*
X134046959Y-110610470D01*
X134094777Y-110639965D01*
X134141502Y-110691913D01*
X134152723Y-110760875D01*
X134148067Y-110782390D01*
X134135547Y-110822569D01*
X134129500Y-110889121D01*
X134129500Y-111390888D01*
X134135546Y-111457426D01*
X134135548Y-111457433D01*
X134183265Y-111610566D01*
X134183267Y-111610570D01*
X134221219Y-111673351D01*
X134239055Y-111740906D01*
X134221219Y-111801649D01*
X134183267Y-111864429D01*
X134183265Y-111864433D01*
X134135548Y-112017565D01*
X134135548Y-112017567D01*
X134129942Y-112079262D01*
X134129500Y-112084121D01*
X134129500Y-112585888D01*
X134135546Y-112652426D01*
X134135548Y-112652433D01*
X134183265Y-112805566D01*
X134183267Y-112805570D01*
X134266242Y-112942829D01*
X134266246Y-112942834D01*
X134379665Y-113056253D01*
X134379670Y-113056257D01*
X134516929Y-113139232D01*
X134516933Y-113139234D01*
X134571100Y-113156112D01*
X134670067Y-113186952D01*
X134736619Y-113193000D01*
X135163380Y-113192999D01*
X135163388Y-113192999D01*
X135229926Y-113186953D01*
X135229927Y-113186952D01*
X135229933Y-113186952D01*
X135382825Y-113139309D01*
X135383066Y-113139234D01*
X135383066Y-113139233D01*
X135383069Y-113139233D01*
X135508984Y-113063115D01*
X135520329Y-113056257D01*
X135520330Y-113056255D01*
X135520335Y-113056253D01*
X135633753Y-112942835D01*
X135636850Y-112937713D01*
X135674024Y-112876217D01*
X135716733Y-112805569D01*
X135764452Y-112652433D01*
X135770500Y-112585881D01*
X135770499Y-112485806D01*
X135790183Y-112418769D01*
X135806813Y-112398131D01*
X135890393Y-112314551D01*
X135951714Y-112281068D01*
X136021406Y-112286052D01*
X136076509Y-112327302D01*
X136076689Y-112327165D01*
X136077180Y-112327805D01*
X136077339Y-112327924D01*
X136077755Y-112328555D01*
X136081634Y-112333610D01*
X136081635Y-112333611D01*
X136189389Y-112441365D01*
X136321361Y-112517559D01*
X136437018Y-112548549D01*
X136492604Y-112580642D01*
X136581681Y-112669719D01*
X136615166Y-112731042D01*
X136618000Y-112757400D01*
X136618000Y-113225994D01*
X136618000Y-113378382D01*
X136630703Y-113425789D01*
X136657441Y-113525578D01*
X136657442Y-113525579D01*
X136733635Y-113657549D01*
X137129951Y-114053865D01*
X137261923Y-114130059D01*
X137409118Y-114169500D01*
X137409121Y-114169500D01*
X140877191Y-114169500D01*
X140877194Y-114169500D01*
X141024389Y-114130059D01*
X141156361Y-114053865D01*
X144754865Y-110455361D01*
X144831059Y-110323389D01*
X144870500Y-110176194D01*
X144870500Y-110023806D01*
X144870500Y-109703506D01*
X144890185Y-109636467D01*
X144906819Y-109615825D01*
X145564403Y-108958241D01*
X145625726Y-108924756D01*
X145695418Y-108929740D01*
X145739765Y-108958241D01*
X145770005Y-108988481D01*
X145803490Y-109049804D01*
X145798506Y-109119496D01*
X145781593Y-109150470D01*
X145776203Y-109157670D01*
X145776202Y-109157671D01*
X145725908Y-109292517D01*
X145722439Y-109324789D01*
X145719501Y-109352123D01*
X145719500Y-109352135D01*
X145719500Y-111047870D01*
X145719501Y-111047876D01*
X145725908Y-111107483D01*
X145776202Y-111242328D01*
X145776203Y-111242329D01*
X145776204Y-111242331D01*
X145821875Y-111303339D01*
X145862454Y-111357546D01*
X145869808Y-111363051D01*
X145911681Y-111418983D01*
X145919500Y-111462320D01*
X145919500Y-111685762D01*
X145914771Y-111713631D01*
X145916182Y-111713953D01*
X145914630Y-111720750D01*
X145894435Y-111899996D01*
X145894435Y-111900003D01*
X145914630Y-112079249D01*
X145914631Y-112079254D01*
X145974211Y-112249523D01*
X146033043Y-112343153D01*
X146070184Y-112402262D01*
X146197738Y-112529816D01*
X146271548Y-112576194D01*
X146315681Y-112603925D01*
X146350478Y-112625789D01*
X146477783Y-112670335D01*
X146520745Y-112685368D01*
X146520750Y-112685369D01*
X146699996Y-112705565D01*
X146700000Y-112705565D01*
X146700004Y-112705565D01*
X146879249Y-112685369D01*
X146879252Y-112685368D01*
X146879255Y-112685368D01*
X147049522Y-112625789D01*
X147084319Y-112603925D01*
X147134027Y-112572691D01*
X147201264Y-112553690D01*
X147265973Y-112572691D01*
X147315681Y-112603925D01*
X147350478Y-112625789D01*
X147375676Y-112634606D01*
X147411192Y-112647034D01*
X147457919Y-112676395D01*
X147736885Y-112955361D01*
X147844639Y-113063115D01*
X147976611Y-113139309D01*
X148123806Y-113178750D01*
X148123807Y-113178750D01*
X148123809Y-113178750D01*
X149026194Y-113178750D01*
X149026197Y-113178750D01*
X149173392Y-113139309D01*
X149305364Y-113063115D01*
X149481660Y-112886819D01*
X149542983Y-112853334D01*
X149569341Y-112850500D01*
X149639392Y-112850500D01*
X149639394Y-112850500D01*
X149814270Y-112813329D01*
X149977596Y-112740612D01*
X150024107Y-112706818D01*
X150089907Y-112683339D01*
X150147426Y-112693858D01*
X150179574Y-112708171D01*
X150354450Y-112745342D01*
X150354451Y-112745342D01*
X150533230Y-112745342D01*
X150533232Y-112745342D01*
X150708108Y-112708171D01*
X150871434Y-112635454D01*
X151016071Y-112530368D01*
X151016569Y-112529816D01*
X151056193Y-112485808D01*
X151135700Y-112397507D01*
X151225091Y-112242677D01*
X151280338Y-112072645D01*
X151280338Y-112072640D01*
X151280893Y-112070934D01*
X151320330Y-112013259D01*
X151384688Y-111986060D01*
X151453535Y-111997974D01*
X151505011Y-112045218D01*
X151517635Y-112077189D01*
X151518056Y-112077053D01*
X151575308Y-112253259D01*
X151575311Y-112253265D01*
X151664702Y-112408095D01*
X151688429Y-112434446D01*
X151784325Y-112540951D01*
X151784328Y-112540953D01*
X151784331Y-112540956D01*
X151928968Y-112646042D01*
X152092294Y-112718759D01*
X152267170Y-112755930D01*
X152267171Y-112755930D01*
X152445950Y-112755930D01*
X152445952Y-112755930D01*
X152620828Y-112718759D01*
X152784154Y-112646042D01*
X152784156Y-112646040D01*
X152784159Y-112646039D01*
X152864883Y-112587388D01*
X152930689Y-112563907D01*
X152978722Y-112570663D01*
X153020745Y-112585368D01*
X153020749Y-112585368D01*
X153020753Y-112585369D01*
X153142331Y-112599067D01*
X153206746Y-112626133D01*
X153216130Y-112634606D01*
X153893385Y-113311861D01*
X154001139Y-113419615D01*
X154133111Y-113495809D01*
X154280306Y-113535250D01*
X154280309Y-113535250D01*
X155741220Y-113535250D01*
X155808259Y-113554935D01*
X155854014Y-113607739D01*
X155863958Y-113676897D01*
X155834933Y-113740453D01*
X155807193Y-113764242D01*
X155803822Y-113766360D01*
X155797737Y-113770184D01*
X155670184Y-113897737D01*
X155574211Y-114050476D01*
X155514631Y-114220745D01*
X155514630Y-114220750D01*
X155494435Y-114399996D01*
X155494435Y-114400003D01*
X155514630Y-114579249D01*
X155514631Y-114579254D01*
X155574211Y-114749523D01*
X155670184Y-114902262D01*
X155797738Y-115029816D01*
X155950478Y-115125789D01*
X156120745Y-115185368D01*
X156120750Y-115185369D01*
X156299996Y-115205565D01*
X156300000Y-115205565D01*
X156300004Y-115205565D01*
X156479249Y-115185369D01*
X156479252Y-115185368D01*
X156479255Y-115185368D01*
X156649522Y-115125789D01*
X156802262Y-115029816D01*
X156929816Y-114902262D01*
X157025789Y-114749522D01*
X157085368Y-114579255D01*
X157085369Y-114579249D01*
X157105565Y-114400003D01*
X157105565Y-114399996D01*
X157085369Y-114220750D01*
X157085368Y-114220745D01*
X157067437Y-114169500D01*
X157025789Y-114050478D01*
X156929816Y-113897738D01*
X156802262Y-113770184D01*
X156792809Y-113764244D01*
X156684118Y-113695949D01*
X156637827Y-113643614D01*
X156627179Y-113574560D01*
X156655554Y-113510712D01*
X156688087Y-113483569D01*
X156798861Y-113419615D01*
X157363115Y-112855361D01*
X157439309Y-112723390D01*
X157445576Y-112700003D01*
X159694435Y-112700003D01*
X159714630Y-112879249D01*
X159714631Y-112879254D01*
X159774211Y-113049523D01*
X159830627Y-113139308D01*
X159870184Y-113202262D01*
X159997738Y-113329816D01*
X160075030Y-113378382D01*
X160148254Y-113424392D01*
X160150478Y-113425789D01*
X160315601Y-113483568D01*
X160320745Y-113485368D01*
X160320750Y-113485369D01*
X160499996Y-113505565D01*
X160500000Y-113505565D01*
X160500004Y-113505565D01*
X160679249Y-113485369D01*
X160679251Y-113485368D01*
X160679255Y-113485368D01*
X160679258Y-113485366D01*
X160679262Y-113485366D01*
X160856095Y-113423489D01*
X160856846Y-113425637D01*
X160915128Y-113416035D01*
X160943588Y-113424392D01*
X160943905Y-113423489D01*
X161120737Y-113485366D01*
X161120743Y-113485367D01*
X161120745Y-113485368D01*
X161120746Y-113485368D01*
X161120750Y-113485369D01*
X161299996Y-113505565D01*
X161300000Y-113505565D01*
X161300004Y-113505565D01*
X161479249Y-113485369D01*
X161479251Y-113485368D01*
X161479255Y-113485368D01*
X161479258Y-113485366D01*
X161479262Y-113485366D01*
X161656095Y-113423489D01*
X161656846Y-113425637D01*
X161715128Y-113416035D01*
X161743588Y-113424392D01*
X161743905Y-113423489D01*
X161920737Y-113485366D01*
X161920743Y-113485367D01*
X161920745Y-113485368D01*
X161920746Y-113485368D01*
X161920750Y-113485369D01*
X162099996Y-113505565D01*
X162100000Y-113505565D01*
X162100004Y-113505565D01*
X162279249Y-113485369D01*
X162279252Y-113485368D01*
X162279255Y-113485368D01*
X162449522Y-113425789D01*
X162451746Y-113424392D01*
X162484027Y-113404108D01*
X162551263Y-113385107D01*
X162615973Y-113404108D01*
X162650475Y-113425788D01*
X162820745Y-113485368D01*
X162820750Y-113485369D01*
X162999996Y-113505565D01*
X163000000Y-113505565D01*
X163000004Y-113505565D01*
X163179249Y-113485369D01*
X163179252Y-113485368D01*
X163179255Y-113485368D01*
X163349522Y-113425789D01*
X163351746Y-113424392D01*
X163384027Y-113404108D01*
X163451263Y-113385107D01*
X163515973Y-113404108D01*
X163550475Y-113425788D01*
X163720745Y-113485368D01*
X163720750Y-113485369D01*
X163899996Y-113505565D01*
X163900000Y-113505565D01*
X163900004Y-113505565D01*
X164079249Y-113485369D01*
X164079252Y-113485368D01*
X164079255Y-113485368D01*
X164249522Y-113425789D01*
X164402262Y-113329816D01*
X164529816Y-113202262D01*
X164625789Y-113049522D01*
X164685368Y-112879255D01*
X164688060Y-112855363D01*
X164705565Y-112700003D01*
X164705565Y-112699996D01*
X164685369Y-112520750D01*
X164685366Y-112520737D01*
X164623489Y-112343905D01*
X164625637Y-112343153D01*
X164620733Y-112313388D01*
X167147000Y-112313388D01*
X167153046Y-112379926D01*
X167153048Y-112379933D01*
X167200765Y-112533066D01*
X167200767Y-112533070D01*
X167283742Y-112670329D01*
X167283746Y-112670334D01*
X167289333Y-112675921D01*
X167322818Y-112737244D01*
X167317834Y-112806936D01*
X167307191Y-112828699D01*
X167239951Y-112937710D01*
X167239949Y-112937715D01*
X167234675Y-112953632D01*
X167187063Y-113097315D01*
X167187063Y-113097316D01*
X167187062Y-113097316D01*
X167176999Y-113195818D01*
X167176999Y-113804181D01*
X167187062Y-113902683D01*
X167239949Y-114062284D01*
X167239954Y-114062295D01*
X167328215Y-114205387D01*
X167328218Y-114205391D01*
X167447107Y-114324280D01*
X167447111Y-114324283D01*
X167590203Y-114412544D01*
X167590206Y-114412545D01*
X167590212Y-114412549D01*
X167749814Y-114465436D01*
X167848325Y-114475500D01*
X167848330Y-114475500D01*
X168381668Y-114475500D01*
X168381673Y-114475500D01*
X168480184Y-114465436D01*
X168639786Y-114412549D01*
X168782890Y-114324281D01*
X168901780Y-114205391D01*
X168990048Y-114062287D01*
X169042935Y-113902685D01*
X169052999Y-113804174D01*
X169052999Y-113195826D01*
X169042935Y-113097315D01*
X169038358Y-113083502D01*
X169035957Y-113013673D01*
X169071689Y-112953632D01*
X169134210Y-112922440D01*
X169156064Y-112920499D01*
X169450888Y-112920499D01*
X169517426Y-112914453D01*
X169517427Y-112914452D01*
X169517433Y-112914452D01*
X169670569Y-112866733D01*
X169789877Y-112794609D01*
X169807829Y-112783757D01*
X169807830Y-112783755D01*
X169807835Y-112783753D01*
X169921253Y-112670335D01*
X169921626Y-112669719D01*
X169994473Y-112549214D01*
X170004233Y-112533069D01*
X170051952Y-112379933D01*
X170058000Y-112313381D01*
X170057999Y-112146670D01*
X170077683Y-112079632D01*
X170130487Y-112033877D01*
X170141028Y-112029635D01*
X170152022Y-112025789D01*
X170304762Y-111929816D01*
X170432316Y-111802262D01*
X170528289Y-111649522D01*
X170587868Y-111479255D01*
X170594659Y-111418983D01*
X170608065Y-111300003D01*
X170608065Y-111299996D01*
X170587869Y-111120750D01*
X170587868Y-111120745D01*
X170562368Y-111047870D01*
X170528289Y-110950478D01*
X170432316Y-110797738D01*
X170304762Y-110670184D01*
X170256669Y-110639965D01*
X170152023Y-110574211D01*
X169981754Y-110514631D01*
X169981749Y-110514630D01*
X169802504Y-110494435D01*
X169802496Y-110494435D01*
X169623250Y-110514630D01*
X169623245Y-110514631D01*
X169452976Y-110574211D01*
X169300237Y-110670184D01*
X169172684Y-110797737D01*
X169076710Y-110950478D01*
X169017132Y-111120744D01*
X169017130Y-111120752D01*
X169016315Y-111127988D01*
X168989243Y-111192400D01*
X168980777Y-111201775D01*
X168925152Y-111257400D01*
X168874362Y-111288104D01*
X168729431Y-111333266D01*
X168729429Y-111333267D01*
X168666649Y-111371219D01*
X168599094Y-111389055D01*
X168538351Y-111371219D01*
X168475570Y-111333267D01*
X168475566Y-111333265D01*
X168322433Y-111285548D01*
X168322435Y-111285548D01*
X168295812Y-111283128D01*
X168255881Y-111279500D01*
X168255878Y-111279500D01*
X167754111Y-111279500D01*
X167687573Y-111285546D01*
X167687566Y-111285548D01*
X167534433Y-111333265D01*
X167534429Y-111333267D01*
X167397170Y-111416242D01*
X167397165Y-111416246D01*
X167283746Y-111529665D01*
X167283742Y-111529670D01*
X167200767Y-111666929D01*
X167200765Y-111666933D01*
X167153048Y-111820065D01*
X167147000Y-111886621D01*
X167147000Y-112313388D01*
X164620733Y-112313388D01*
X164616035Y-112284872D01*
X164624392Y-112256411D01*
X164623489Y-112256095D01*
X164685366Y-112079262D01*
X164685369Y-112079249D01*
X164705565Y-111900003D01*
X164705565Y-111899996D01*
X164685369Y-111720750D01*
X164685368Y-111720745D01*
X164625788Y-111550476D01*
X164581033Y-111479249D01*
X164529816Y-111397738D01*
X164402262Y-111270184D01*
X164249523Y-111174211D01*
X164079254Y-111114631D01*
X164079249Y-111114630D01*
X163900004Y-111094435D01*
X163899996Y-111094435D01*
X163720750Y-111114630D01*
X163720737Y-111114633D01*
X163550480Y-111174209D01*
X163515970Y-111195893D01*
X163448733Y-111214892D01*
X163384030Y-111195893D01*
X163349519Y-111174209D01*
X163179262Y-111114633D01*
X163179249Y-111114630D01*
X163000004Y-111094435D01*
X162999996Y-111094435D01*
X162820750Y-111114630D01*
X162820737Y-111114633D01*
X162650480Y-111174209D01*
X162615970Y-111195893D01*
X162548733Y-111214892D01*
X162484030Y-111195893D01*
X162449519Y-111174209D01*
X162279262Y-111114633D01*
X162279249Y-111114630D01*
X162100004Y-111094435D01*
X162099996Y-111094435D01*
X161920750Y-111114630D01*
X161920737Y-111114633D01*
X161743906Y-111176510D01*
X161743155Y-111174364D01*
X161684856Y-111183962D01*
X161656409Y-111175609D01*
X161656094Y-111176510D01*
X161479262Y-111114633D01*
X161479249Y-111114630D01*
X161300004Y-111094435D01*
X161299996Y-111094435D01*
X161120750Y-111114630D01*
X161120737Y-111114633D01*
X160943906Y-111176510D01*
X160943155Y-111174364D01*
X160884856Y-111183962D01*
X160856409Y-111175609D01*
X160856094Y-111176510D01*
X160679262Y-111114633D01*
X160679249Y-111114630D01*
X160500004Y-111094435D01*
X160499996Y-111094435D01*
X160320750Y-111114630D01*
X160320745Y-111114631D01*
X160150476Y-111174211D01*
X159997737Y-111270184D01*
X159870184Y-111397737D01*
X159774211Y-111550476D01*
X159714631Y-111720745D01*
X159714630Y-111720750D01*
X159694435Y-111899996D01*
X159694435Y-111900003D01*
X159714630Y-112079249D01*
X159714633Y-112079262D01*
X159776510Y-112256094D01*
X159774364Y-112256844D01*
X159783962Y-112315144D01*
X159775609Y-112343590D01*
X159776510Y-112343906D01*
X159714633Y-112520737D01*
X159714630Y-112520750D01*
X159694435Y-112699996D01*
X159694435Y-112700003D01*
X157445576Y-112700003D01*
X157478750Y-112576194D01*
X157478750Y-112423807D01*
X157478750Y-112423806D01*
X157478750Y-108018772D01*
X157498435Y-107951733D01*
X157551239Y-107905978D01*
X157588867Y-107895552D01*
X157605729Y-107893652D01*
X157679249Y-107885369D01*
X157679252Y-107885368D01*
X157679255Y-107885368D01*
X157849522Y-107825789D01*
X158002262Y-107729816D01*
X158129816Y-107602262D01*
X158225789Y-107449522D01*
X158285368Y-107279255D01*
X158287485Y-107260468D01*
X158305565Y-107100003D01*
X158305565Y-107099996D01*
X158285369Y-106920750D01*
X158285366Y-106920737D01*
X158225790Y-106750481D01*
X158225789Y-106750478D01*
X158204008Y-106715814D01*
X158169506Y-106660903D01*
X158150500Y-106594931D01*
X158150500Y-105645807D01*
X158170185Y-105578768D01*
X158186815Y-105558130D01*
X158433127Y-105311817D01*
X158494450Y-105278333D01*
X158520808Y-105275499D01*
X158798338Y-105275499D01*
X158798344Y-105275499D01*
X158798352Y-105275498D01*
X158798355Y-105275498D01*
X158852760Y-105269940D01*
X158897708Y-105265349D01*
X159058697Y-105212003D01*
X159203044Y-105122968D01*
X159212319Y-105113693D01*
X159273642Y-105080208D01*
X159343334Y-105085192D01*
X159387681Y-105113693D01*
X159396955Y-105122967D01*
X159396959Y-105122970D01*
X159541294Y-105211998D01*
X159541297Y-105211999D01*
X159541303Y-105212003D01*
X159702292Y-105265349D01*
X159801655Y-105275500D01*
X160398344Y-105275499D01*
X160398352Y-105275498D01*
X160398355Y-105275498D01*
X160452760Y-105269940D01*
X160497708Y-105265349D01*
X160658697Y-105212003D01*
X160803044Y-105122968D01*
X160812319Y-105113693D01*
X160873642Y-105080208D01*
X160943334Y-105085192D01*
X160987681Y-105113693D01*
X160996955Y-105122967D01*
X160996959Y-105122970D01*
X161141294Y-105211998D01*
X161141297Y-105211999D01*
X161141303Y-105212003D01*
X161302292Y-105265349D01*
X161401655Y-105275500D01*
X161998344Y-105275499D01*
X161998352Y-105275498D01*
X161998355Y-105275498D01*
X162052760Y-105269940D01*
X162097708Y-105265349D01*
X162258697Y-105212003D01*
X162403044Y-105122968D01*
X162412319Y-105113693D01*
X162473642Y-105080208D01*
X162543334Y-105085192D01*
X162587681Y-105113693D01*
X162596955Y-105122967D01*
X162596959Y-105122970D01*
X162741294Y-105211998D01*
X162741297Y-105211999D01*
X162741303Y-105212003D01*
X162902292Y-105265349D01*
X163001655Y-105275500D01*
X163598344Y-105275499D01*
X163598352Y-105275498D01*
X163598355Y-105275498D01*
X163652760Y-105269940D01*
X163697708Y-105265349D01*
X163858697Y-105212003D01*
X163912585Y-105178763D01*
X163979975Y-105160322D01*
X164025133Y-105169739D01*
X164075256Y-105190501D01*
X164075260Y-105190501D01*
X164075261Y-105190502D01*
X164171617Y-105209669D01*
X164215954Y-105229897D01*
X164216420Y-105229110D01*
X164227548Y-105235691D01*
X164364602Y-105316744D01*
X164385378Y-105322780D01*
X164522426Y-105362597D01*
X164522429Y-105362597D01*
X164522431Y-105362598D01*
X164559306Y-105365500D01*
X164559314Y-105365500D01*
X166190686Y-105365500D01*
X166190694Y-105365500D01*
X166227569Y-105362598D01*
X166227571Y-105362597D01*
X166227573Y-105362597D01*
X166285129Y-105345875D01*
X166385398Y-105316744D01*
X166526865Y-105233081D01*
X166643081Y-105116865D01*
X166708224Y-105006712D01*
X166759290Y-104959032D01*
X166828032Y-104946528D01*
X166892621Y-104973173D01*
X166931995Y-105028881D01*
X166974208Y-105149519D01*
X167070184Y-105302262D01*
X167110681Y-105342759D01*
X167144166Y-105404082D01*
X167147000Y-105430440D01*
X167147000Y-108187784D01*
X167127315Y-108254823D01*
X167074511Y-108300578D01*
X167005353Y-108310522D01*
X166986115Y-108306171D01*
X166919933Y-108285548D01*
X166919931Y-108285547D01*
X166919929Y-108285547D01*
X166873335Y-108281313D01*
X166853381Y-108279500D01*
X166853378Y-108279500D01*
X166351611Y-108279500D01*
X166285073Y-108285546D01*
X166285066Y-108285548D01*
X166131933Y-108333265D01*
X166131929Y-108333267D01*
X165994670Y-108416242D01*
X165988766Y-108420869D01*
X165987233Y-108418913D01*
X165936408Y-108446666D01*
X165910050Y-108449500D01*
X164752387Y-108449500D01*
X164688238Y-108431617D01*
X164633070Y-108398267D01*
X164633066Y-108398265D01*
X164479933Y-108350548D01*
X164479935Y-108350548D01*
X164453312Y-108348128D01*
X164413381Y-108344500D01*
X164413378Y-108344500D01*
X164139049Y-108344500D01*
X164072010Y-108324815D01*
X164026255Y-108272011D01*
X164016311Y-108202853D01*
X164033513Y-108155399D01*
X164035909Y-108151516D01*
X164060108Y-108078485D01*
X164090126Y-108029818D01*
X164234241Y-107885703D01*
X164295562Y-107852220D01*
X164356525Y-107856579D01*
X164357110Y-107854568D01*
X164522426Y-107902597D01*
X164522429Y-107902597D01*
X164522431Y-107902598D01*
X164559306Y-107905500D01*
X164559314Y-107905500D01*
X166190686Y-107905500D01*
X166190694Y-107905500D01*
X166227569Y-107902598D01*
X166227571Y-107902597D01*
X166227573Y-107902597D01*
X166282396Y-107886669D01*
X166385398Y-107856744D01*
X166526865Y-107773081D01*
X166643081Y-107656865D01*
X166726744Y-107515398D01*
X166772598Y-107357569D01*
X166775500Y-107320694D01*
X166775500Y-106889306D01*
X166772598Y-106852431D01*
X166767594Y-106835209D01*
X166726745Y-106694606D01*
X166726744Y-106694603D01*
X166726744Y-106694602D01*
X166643081Y-106553135D01*
X166643079Y-106553133D01*
X166643076Y-106553129D01*
X166526870Y-106436923D01*
X166526862Y-106436917D01*
X166442223Y-106386862D01*
X166385398Y-106353256D01*
X166385397Y-106353255D01*
X166385396Y-106353255D01*
X166385393Y-106353254D01*
X166227573Y-106307402D01*
X166227567Y-106307401D01*
X166190701Y-106304500D01*
X166190694Y-106304500D01*
X164559306Y-106304500D01*
X164559298Y-106304500D01*
X164522432Y-106307401D01*
X164522426Y-106307402D01*
X164364606Y-106353254D01*
X164364603Y-106353255D01*
X164222605Y-106437232D01*
X164159484Y-106454500D01*
X164030929Y-106454500D01*
X163953009Y-106470000D01*
X163906563Y-106479239D01*
X163905256Y-106479499D01*
X163786870Y-106528535D01*
X163680335Y-106599720D01*
X163680331Y-106599723D01*
X163666337Y-106613717D01*
X163605013Y-106647200D01*
X163539656Y-106643739D01*
X163512757Y-106634826D01*
X163512760Y-106634826D01*
X163411679Y-106624500D01*
X162713331Y-106624500D01*
X162713313Y-106624501D01*
X162612248Y-106634825D01*
X162448485Y-106689092D01*
X162448482Y-106689093D01*
X162301649Y-106779661D01*
X162179662Y-106901648D01*
X162089094Y-107048481D01*
X162089092Y-107048486D01*
X162072022Y-107100000D01*
X162034827Y-107212247D01*
X162034827Y-107212248D01*
X162034826Y-107212248D01*
X162024501Y-107313315D01*
X162024501Y-107886669D01*
X162024502Y-107886687D01*
X162034826Y-107987752D01*
X162054508Y-108047147D01*
X162089093Y-108151516D01*
X162179661Y-108298350D01*
X162301651Y-108420340D01*
X162353098Y-108452072D01*
X162399822Y-108504017D01*
X162412001Y-108557610D01*
X162412001Y-108829070D01*
X162412001Y-108829072D01*
X162412000Y-108829072D01*
X162435955Y-108949492D01*
X162435955Y-108949494D01*
X162436705Y-108953262D01*
X162437000Y-108954745D01*
X162486036Y-109073128D01*
X162542525Y-109157671D01*
X162557227Y-109179674D01*
X163085326Y-109707773D01*
X163085329Y-109707775D01*
X163085331Y-109707777D01*
X163191873Y-109778965D01*
X163310256Y-109828001D01*
X163310260Y-109828001D01*
X163310261Y-109828002D01*
X163435928Y-109853000D01*
X163435931Y-109853000D01*
X163507550Y-109853000D01*
X163574589Y-109872685D01*
X163595231Y-109889319D01*
X163629665Y-109923753D01*
X163629670Y-109923757D01*
X163766929Y-110006732D01*
X163766933Y-110006734D01*
X163821100Y-110023612D01*
X163920067Y-110054452D01*
X163986619Y-110060500D01*
X164413380Y-110060499D01*
X164413388Y-110060499D01*
X164479926Y-110054453D01*
X164479927Y-110054452D01*
X164479933Y-110054452D01*
X164633069Y-110006733D01*
X164703717Y-109964024D01*
X164770329Y-109923757D01*
X164770330Y-109923755D01*
X164770335Y-109923753D01*
X164883753Y-109810335D01*
X164883756Y-109810329D01*
X164888380Y-109804429D01*
X164889365Y-109805201D01*
X164935275Y-109763161D01*
X164989861Y-109750500D01*
X165910050Y-109750500D01*
X165977089Y-109770185D01*
X165988543Y-109779415D01*
X165988766Y-109779131D01*
X165994670Y-109783757D01*
X166131929Y-109866732D01*
X166131933Y-109866734D01*
X166186100Y-109883612D01*
X166285067Y-109914452D01*
X166351619Y-109920500D01*
X166815500Y-109920499D01*
X166882539Y-109940183D01*
X166928294Y-109992987D01*
X166939500Y-110044499D01*
X166939500Y-110413388D01*
X166945546Y-110479926D01*
X166945548Y-110479933D01*
X166993265Y-110633066D01*
X166993267Y-110633070D01*
X167076242Y-110770329D01*
X167076246Y-110770334D01*
X167189665Y-110883753D01*
X167189670Y-110883757D01*
X167326929Y-110966732D01*
X167326933Y-110966734D01*
X167381100Y-110983612D01*
X167480067Y-111014452D01*
X167546619Y-111020500D01*
X168048380Y-111020499D01*
X168048388Y-111020499D01*
X168114926Y-111014453D01*
X168114927Y-111014452D01*
X168114933Y-111014452D01*
X168268069Y-110966733D01*
X168338717Y-110924024D01*
X168405329Y-110883757D01*
X168405330Y-110883755D01*
X168405335Y-110883753D01*
X168518753Y-110770335D01*
X168518883Y-110770121D01*
X168579296Y-110670184D01*
X168601733Y-110633069D01*
X168649452Y-110479933D01*
X168655500Y-110413381D01*
X168655499Y-109986620D01*
X168655499Y-109986619D01*
X168655499Y-109986611D01*
X168649453Y-109920073D01*
X168649452Y-109920070D01*
X168649452Y-109920067D01*
X168601733Y-109766931D01*
X168569824Y-109714148D01*
X168551989Y-109646596D01*
X168569825Y-109585850D01*
X168572686Y-109581118D01*
X168601733Y-109533069D01*
X168649452Y-109379933D01*
X168655500Y-109313381D01*
X168655499Y-108886620D01*
X168655499Y-108886611D01*
X168649453Y-108820073D01*
X168649452Y-108820070D01*
X168649452Y-108820067D01*
X168618612Y-108721100D01*
X168601734Y-108666933D01*
X168601732Y-108666929D01*
X168518757Y-108529670D01*
X168518753Y-108529665D01*
X168484319Y-108495231D01*
X168450834Y-108433908D01*
X168448000Y-108407550D01*
X168448000Y-105107113D01*
X168454959Y-105066158D01*
X168469007Y-105026012D01*
X168485368Y-104979255D01*
X168499084Y-104857524D01*
X168505565Y-104800003D01*
X168505565Y-104799996D01*
X168485369Y-104620750D01*
X168485368Y-104620745D01*
X168456698Y-104538811D01*
X168425789Y-104450478D01*
X168414021Y-104431750D01*
X168339045Y-104312426D01*
X168329816Y-104297738D01*
X168202262Y-104170184D01*
X168177465Y-104154603D01*
X168049523Y-104074211D01*
X167879254Y-104014631D01*
X167879249Y-104014630D01*
X167700004Y-103994435D01*
X167699996Y-103994435D01*
X167520750Y-104014630D01*
X167520745Y-104014631D01*
X167350476Y-104074211D01*
X167197737Y-104170184D01*
X167070182Y-104297739D01*
X167003925Y-104403187D01*
X166951591Y-104449477D01*
X166882537Y-104460125D01*
X166818689Y-104431750D01*
X166780317Y-104373360D01*
X166775314Y-104346942D01*
X166772598Y-104312432D01*
X166772597Y-104312426D01*
X166726745Y-104154606D01*
X166726744Y-104154603D01*
X166726744Y-104154602D01*
X166643081Y-104013135D01*
X166643078Y-104013132D01*
X166638298Y-104006969D01*
X166640750Y-104005066D01*
X166614155Y-103956421D01*
X166619104Y-103886726D01*
X166639940Y-103854304D01*
X166638298Y-103853031D01*
X166643075Y-103846870D01*
X166643081Y-103846865D01*
X166726744Y-103705398D01*
X166772598Y-103547569D01*
X166775500Y-103510694D01*
X166775500Y-103079306D01*
X166772598Y-103042431D01*
X166771020Y-103037001D01*
X166731218Y-102900003D01*
X166726744Y-102884602D01*
X166643081Y-102743135D01*
X166643079Y-102743133D01*
X166643076Y-102743129D01*
X166526870Y-102626923D01*
X166526862Y-102626917D01*
X166438229Y-102574500D01*
X166385398Y-102543256D01*
X166385397Y-102543255D01*
X166385396Y-102543255D01*
X166385393Y-102543254D01*
X166227573Y-102497402D01*
X166227567Y-102497401D01*
X166190701Y-102494500D01*
X166190694Y-102494500D01*
X164559306Y-102494500D01*
X164559298Y-102494500D01*
X164522432Y-102497401D01*
X164522426Y-102497402D01*
X164364606Y-102543254D01*
X164364603Y-102543255D01*
X164223137Y-102626917D01*
X164223129Y-102626923D01*
X164106923Y-102743129D01*
X164106917Y-102743137D01*
X164023255Y-102884603D01*
X164023254Y-102884606D01*
X163977402Y-103042426D01*
X163977401Y-103042432D01*
X163974500Y-103079298D01*
X163974500Y-103304650D01*
X163954815Y-103371689D01*
X163902011Y-103417444D01*
X163832853Y-103427388D01*
X163811496Y-103422356D01*
X163697709Y-103384651D01*
X163598346Y-103374500D01*
X163001662Y-103374500D01*
X163001644Y-103374501D01*
X162902292Y-103384650D01*
X162902289Y-103384651D01*
X162741305Y-103437996D01*
X162741294Y-103438001D01*
X162596959Y-103527029D01*
X162596955Y-103527032D01*
X162587681Y-103536307D01*
X162526358Y-103569792D01*
X162456666Y-103564808D01*
X162412319Y-103536307D01*
X162403044Y-103527032D01*
X162403040Y-103527029D01*
X162258705Y-103438001D01*
X162258699Y-103437998D01*
X162258697Y-103437997D01*
X162196672Y-103417444D01*
X162097709Y-103384651D01*
X161998346Y-103374500D01*
X161401662Y-103374500D01*
X161401644Y-103374501D01*
X161302292Y-103384650D01*
X161302289Y-103384651D01*
X161141305Y-103437996D01*
X161141294Y-103438001D01*
X160996959Y-103527029D01*
X160996955Y-103527032D01*
X160987681Y-103536307D01*
X160926358Y-103569792D01*
X160856666Y-103564808D01*
X160812319Y-103536307D01*
X160803044Y-103527032D01*
X160803040Y-103527029D01*
X160658705Y-103438001D01*
X160658699Y-103437998D01*
X160658697Y-103437997D01*
X160596672Y-103417444D01*
X160497709Y-103384651D01*
X160398352Y-103374500D01*
X160398345Y-103374500D01*
X160156820Y-103374500D01*
X160089781Y-103354815D01*
X160044026Y-103302011D01*
X160034082Y-103232853D01*
X160039778Y-103209546D01*
X160076593Y-103104332D01*
X160085368Y-103079255D01*
X160087350Y-103061665D01*
X160105565Y-102900003D01*
X160105565Y-102899996D01*
X160085369Y-102720750D01*
X160085368Y-102720745D01*
X160057930Y-102642332D01*
X160025789Y-102550478D01*
X160021250Y-102543255D01*
X159964825Y-102453454D01*
X159929816Y-102397738D01*
X159802262Y-102270184D01*
X159777734Y-102254772D01*
X159649523Y-102174211D01*
X159479254Y-102114631D01*
X159479249Y-102114630D01*
X159300004Y-102094435D01*
X159299996Y-102094435D01*
X159120750Y-102114630D01*
X159120745Y-102114631D01*
X158950476Y-102174211D01*
X158797737Y-102270184D01*
X158670184Y-102397737D01*
X158574211Y-102550476D01*
X158514631Y-102720745D01*
X158514630Y-102720750D01*
X158494435Y-102899996D01*
X158494435Y-102900003D01*
X158514630Y-103079249D01*
X158514632Y-103079257D01*
X158560222Y-103209546D01*
X158563783Y-103279325D01*
X158529054Y-103339952D01*
X158467061Y-103372179D01*
X158443181Y-103374500D01*
X158201663Y-103374500D01*
X158201644Y-103374501D01*
X158102292Y-103384650D01*
X158102289Y-103384651D01*
X157941305Y-103437996D01*
X157941294Y-103438001D01*
X157796959Y-103527029D01*
X157796955Y-103527032D01*
X157690431Y-103633557D01*
X157629108Y-103667042D01*
X157559416Y-103662058D01*
X157503483Y-103620186D01*
X157479066Y-103554722D01*
X157478750Y-103545876D01*
X157478750Y-101891574D01*
X157478750Y-101891572D01*
X157439309Y-101744377D01*
X157434762Y-101736501D01*
X157418288Y-101668601D01*
X157441140Y-101602574D01*
X157496060Y-101559383D01*
X157542148Y-101550500D01*
X165864071Y-101550500D01*
X165971128Y-101529204D01*
X165989744Y-101525501D01*
X166108127Y-101476465D01*
X166117417Y-101470257D01*
X166119756Y-101468695D01*
X166209236Y-101408907D01*
X166214669Y-101405277D01*
X169272696Y-98347248D01*
X169334017Y-98313765D01*
X169403709Y-98318749D01*
X169452525Y-98351959D01*
X169527764Y-98435521D01*
X169527767Y-98435523D01*
X169527770Y-98435526D01*
X169559149Y-98458325D01*
X169601814Y-98513655D01*
X169607793Y-98583268D01*
X169604194Y-98596959D01*
X169563505Y-98722189D01*
X169563503Y-98722194D01*
X169544815Y-98900000D01*
X169563503Y-99077805D01*
X169563504Y-99077807D01*
X169618747Y-99247829D01*
X169618750Y-99247835D01*
X169708141Y-99402665D01*
X169724606Y-99420951D01*
X169827764Y-99535521D01*
X169827767Y-99535523D01*
X169827770Y-99535526D01*
X169972407Y-99640612D01*
X170135733Y-99713329D01*
X170310609Y-99750500D01*
X170310610Y-99750500D01*
X170489389Y-99750500D01*
X170489391Y-99750500D01*
X170664267Y-99713329D01*
X170827593Y-99640612D01*
X170919025Y-99574182D01*
X170984831Y-99550702D01*
X170991911Y-99550500D01*
X171064071Y-99550500D01*
X171148615Y-99533682D01*
X171189744Y-99525501D01*
X171308127Y-99476465D01*
X171317961Y-99469893D01*
X171320437Y-99468240D01*
X171402145Y-99413645D01*
X171414669Y-99405277D01*
X172022673Y-98797271D01*
X172067938Y-98768434D01*
X173396159Y-98285002D01*
X173429818Y-98269663D01*
X173562446Y-98172594D01*
X173666767Y-98045592D01*
X173736226Y-97896636D01*
X173766459Y-97735086D01*
X173755567Y-97571093D01*
X173745682Y-97535449D01*
X173598138Y-97130077D01*
X173582799Y-97096418D01*
X173508286Y-96994609D01*
X173485731Y-96963791D01*
X173464166Y-96946077D01*
X173358728Y-96859469D01*
X173358727Y-96859468D01*
X173352699Y-96854517D01*
X173354153Y-96852746D01*
X173315550Y-96809002D01*
X173304982Y-96739937D01*
X173307297Y-96729693D01*
X173307267Y-96729688D01*
X173314774Y-96689575D01*
X173338935Y-96560470D01*
X173329166Y-96413380D01*
X173328044Y-96396486D01*
X173328043Y-96396480D01*
X173328043Y-96396477D01*
X173318158Y-96360833D01*
X173170614Y-95955461D01*
X173155275Y-95921802D01*
X173071877Y-95807853D01*
X173058207Y-95789175D01*
X173058206Y-95789174D01*
X172931204Y-95684853D01*
X172931203Y-95684852D01*
X172925175Y-95679901D01*
X172926631Y-95678127D01*
X172888037Y-95634410D01*
X172877454Y-95565347D01*
X172879774Y-95555078D01*
X172879743Y-95555073D01*
X172887010Y-95516242D01*
X172911411Y-95385855D01*
X172901062Y-95230034D01*
X172900520Y-95221871D01*
X172900519Y-95221865D01*
X172900519Y-95221862D01*
X172890634Y-95186218D01*
X172743090Y-94780846D01*
X172727751Y-94747187D01*
X172644772Y-94633810D01*
X172630683Y-94614560D01*
X172587476Y-94579069D01*
X172503680Y-94510238D01*
X172503679Y-94510237D01*
X172497651Y-94505286D01*
X172499107Y-94503513D01*
X172460509Y-94459791D01*
X172449928Y-94390727D01*
X172452247Y-94380461D01*
X172452216Y-94380456D01*
X172461871Y-94328865D01*
X172483884Y-94211238D01*
X172476521Y-94100376D01*
X172472993Y-94047254D01*
X172472992Y-94047248D01*
X172472992Y-94047245D01*
X172463107Y-94011601D01*
X172315563Y-93606229D01*
X172300224Y-93572570D01*
X172203155Y-93439942D01*
X172076153Y-93335621D01*
X172076151Y-93335620D01*
X172076151Y-93335619D01*
X171927197Y-93266162D01*
X171765649Y-93235929D01*
X171765643Y-93235929D01*
X171601663Y-93246819D01*
X171601657Y-93246820D01*
X171566006Y-93256707D01*
X170126977Y-93780471D01*
X170093316Y-93795811D01*
X169960690Y-93892878D01*
X169856367Y-94019883D01*
X169856366Y-94019883D01*
X169786909Y-94168835D01*
X169786908Y-94168839D01*
X169765349Y-94284036D01*
X169733667Y-94346310D01*
X169731146Y-94348906D01*
X167387623Y-96692429D01*
X167326300Y-96725914D01*
X167256608Y-96720930D01*
X167203803Y-96683063D01*
X167196592Y-96674211D01*
X167178350Y-96651817D01*
X166748183Y-96221650D01*
X166671409Y-96159109D01*
X166671404Y-96159106D01*
X166671402Y-96159105D01*
X166521159Y-96083651D01*
X166521157Y-96083650D01*
X166521156Y-96083650D01*
X166357551Y-96044875D01*
X166227035Y-96044875D01*
X166159996Y-96025190D01*
X166114241Y-95972386D01*
X166106638Y-95950551D01*
X166102240Y-95932708D01*
X166097401Y-95913076D01*
X166022860Y-95771050D01*
X166022858Y-95771048D01*
X166022858Y-95771047D01*
X166001468Y-95745382D01*
X165980077Y-95719715D01*
X165980069Y-95719707D01*
X165980060Y-95719697D01*
X165625291Y-95364930D01*
X165625269Y-95364909D01*
X165573943Y-95322133D01*
X165573942Y-95322132D01*
X165570716Y-95320439D01*
X165431916Y-95247591D01*
X165431912Y-95247590D01*
X165360686Y-95230034D01*
X165300306Y-95194877D01*
X165269965Y-95139312D01*
X165252409Y-95068084D01*
X165199296Y-94966886D01*
X165177868Y-94926058D01*
X165177866Y-94926056D01*
X165177866Y-94926055D01*
X165156476Y-94900390D01*
X165135085Y-94874723D01*
X165135077Y-94874715D01*
X165135068Y-94874705D01*
X164780299Y-94519938D01*
X164780277Y-94519917D01*
X164728951Y-94477141D01*
X164728950Y-94477140D01*
X164684727Y-94453930D01*
X164586924Y-94402599D01*
X164586923Y-94402598D01*
X164586920Y-94402597D01*
X164431186Y-94364213D01*
X164334051Y-94364213D01*
X164267012Y-94344528D01*
X164246370Y-94327894D01*
X162880657Y-92962181D01*
X162847172Y-92900858D01*
X162852156Y-92831166D01*
X162894028Y-92775233D01*
X162959492Y-92750816D01*
X162968338Y-92750500D01*
X163479192Y-92750500D01*
X163546231Y-92770185D01*
X163566873Y-92786819D01*
X164037317Y-93257264D01*
X164037320Y-93257266D01*
X164037323Y-93257269D01*
X164129879Y-93319112D01*
X164129881Y-93319114D01*
X164138264Y-93324714D01*
X164143865Y-93328457D01*
X164262248Y-93377493D01*
X164262252Y-93377493D01*
X164262253Y-93377494D01*
X164387920Y-93402492D01*
X164387923Y-93402492D01*
X165571565Y-93402492D01*
X165638604Y-93422177D01*
X165659246Y-93438811D01*
X165773108Y-93552672D01*
X165855493Y-93635057D01*
X165905617Y-93675889D01*
X165932929Y-93698139D01*
X165932937Y-93698144D01*
X166084485Y-93774254D01*
X166084489Y-93774256D01*
X166249515Y-93813368D01*
X166249517Y-93813368D01*
X166419111Y-93813368D01*
X166419113Y-93813368D01*
X166584139Y-93774256D01*
X166735697Y-93698141D01*
X166813135Y-93635059D01*
X167035457Y-93412734D01*
X167096778Y-93379251D01*
X167098931Y-93378803D01*
X167105518Y-93377493D01*
X167223901Y-93328457D01*
X167237885Y-93319113D01*
X167330443Y-93257269D01*
X167508551Y-93079159D01*
X167569872Y-93045676D01*
X167639564Y-93050660D01*
X167647732Y-93054043D01*
X167658582Y-93058998D01*
X167801039Y-93079479D01*
X167943497Y-93058998D01*
X168074412Y-92999210D01*
X168121095Y-92961591D01*
X169461588Y-91621096D01*
X169499209Y-91574413D01*
X169558997Y-91443498D01*
X169579478Y-91301040D01*
X169558997Y-91158583D01*
X169553654Y-91146884D01*
X169499210Y-91027669D01*
X169499207Y-91027664D01*
X169461593Y-90980989D01*
X169461587Y-90980982D01*
X168686789Y-90206185D01*
X168686777Y-90206174D01*
X168640099Y-90168556D01*
X168509184Y-90108768D01*
X168509180Y-90108767D01*
X168366725Y-90088287D01*
X168224267Y-90108767D01*
X168093354Y-90168554D01*
X168046659Y-90206183D01*
X166706179Y-91546666D01*
X166706170Y-91546676D01*
X166668557Y-91593348D01*
X166668552Y-91593358D01*
X166649867Y-91634271D01*
X166604112Y-91687075D01*
X166537072Y-91706758D01*
X166508479Y-91703416D01*
X166454469Y-91690616D01*
X166333384Y-91690616D01*
X166266345Y-91670931D01*
X166220590Y-91618127D01*
X166209384Y-91566616D01*
X166209384Y-91445530D01*
X166204705Y-91425788D01*
X166196583Y-91391520D01*
X166200276Y-91321750D01*
X166241104Y-91265050D01*
X166265722Y-91250133D01*
X166306646Y-91231444D01*
X166353329Y-91193825D01*
X167693822Y-89853330D01*
X167731443Y-89806647D01*
X167791231Y-89675732D01*
X167811712Y-89533274D01*
X167791231Y-89390817D01*
X167761533Y-89325789D01*
X167731444Y-89259903D01*
X167731441Y-89259898D01*
X167693827Y-89213223D01*
X167693821Y-89213216D01*
X166919023Y-88438419D01*
X166919011Y-88438408D01*
X166872333Y-88400790D01*
X166741418Y-88341002D01*
X166741414Y-88341001D01*
X166598959Y-88320521D01*
X166456501Y-88341001D01*
X166325588Y-88400788D01*
X166278893Y-88438417D01*
X164938413Y-89778900D01*
X164938404Y-89778910D01*
X164900791Y-89825582D01*
X164900788Y-89825588D01*
X164841000Y-89956502D01*
X164820520Y-90098959D01*
X164841000Y-90241414D01*
X164845952Y-90252259D01*
X164855893Y-90321418D01*
X164826867Y-90384973D01*
X164820838Y-90391449D01*
X164642730Y-90569558D01*
X164578996Y-90664944D01*
X164571542Y-90676099D01*
X164522506Y-90794483D01*
X164522504Y-90794491D01*
X164521865Y-90797704D01*
X164521066Y-90799230D01*
X164520737Y-90800316D01*
X164520531Y-90800253D01*
X164489478Y-90859614D01*
X164428761Y-90894186D01*
X164400249Y-90897508D01*
X160896674Y-90897508D01*
X160829635Y-90877823D01*
X160783880Y-90825019D01*
X160773936Y-90755861D01*
X160802961Y-90692305D01*
X160808993Y-90685827D01*
X161357264Y-90137556D01*
X161357269Y-90137551D01*
X161428458Y-90031008D01*
X161464309Y-89944455D01*
X161477493Y-89912626D01*
X161488413Y-89857729D01*
X161502492Y-89786953D01*
X161502492Y-88797062D01*
X161522177Y-88730023D01*
X161538807Y-88709385D01*
X161735057Y-88513135D01*
X161798141Y-88435697D01*
X161874256Y-88284139D01*
X161879075Y-88263803D01*
X161883319Y-88245902D01*
X161917934Y-88185210D01*
X161979866Y-88152866D01*
X162003976Y-88150500D01*
X162494269Y-88150500D01*
X162561308Y-88170185D01*
X162581950Y-88186819D01*
X163146671Y-88751540D01*
X163193354Y-88789160D01*
X163324269Y-88848948D01*
X163466726Y-88869429D01*
X163466726Y-88869428D01*
X163466727Y-88869429D01*
X163609184Y-88848948D01*
X163740100Y-88789160D01*
X163786782Y-88751541D01*
X165551540Y-86986782D01*
X165589160Y-86940100D01*
X165648948Y-86809184D01*
X165669429Y-86666727D01*
X165669211Y-86665214D01*
X165648948Y-86524269D01*
X165589161Y-86393356D01*
X165589160Y-86393355D01*
X165589160Y-86393354D01*
X165551541Y-86346671D01*
X165551536Y-86346666D01*
X165551532Y-86346661D01*
X164900566Y-85695696D01*
X167542988Y-85695696D01*
X167575010Y-85897879D01*
X167638269Y-86092568D01*
X167667290Y-86149523D01*
X167729212Y-86271052D01*
X167731203Y-86274958D01*
X167851516Y-86440558D01*
X167996274Y-86585316D01*
X168121361Y-86676195D01*
X168161878Y-86705632D01*
X168278095Y-86764848D01*
X168344264Y-86798563D01*
X168344266Y-86798563D01*
X168344269Y-86798565D01*
X168440447Y-86829815D01*
X168538953Y-86861822D01*
X168618992Y-86874499D01*
X168741136Y-86893845D01*
X168741137Y-86893845D01*
X168945839Y-86893845D01*
X168945840Y-86893845D01*
X169148022Y-86861822D01*
X169342707Y-86798565D01*
X169525098Y-86705632D01*
X169629872Y-86629510D01*
X169690701Y-86585316D01*
X169690703Y-86585313D01*
X169690707Y-86585311D01*
X169835454Y-86440564D01*
X169835456Y-86440560D01*
X169835459Y-86440558D01*
X169909674Y-86338408D01*
X169955775Y-86274955D01*
X170048708Y-86092564D01*
X170111965Y-85897879D01*
X170143988Y-85695697D01*
X170143988Y-85490993D01*
X170128773Y-85394931D01*
X170111965Y-85288810D01*
X170048706Y-85094121D01*
X169989101Y-84977141D01*
X169955775Y-84911735D01*
X169921643Y-84864756D01*
X169835459Y-84746131D01*
X169690701Y-84601373D01*
X169525101Y-84481060D01*
X169525100Y-84481059D01*
X169525098Y-84481058D01*
X169457808Y-84446772D01*
X169342711Y-84388126D01*
X169148022Y-84324867D01*
X168973483Y-84297223D01*
X168945840Y-84292845D01*
X168741136Y-84292845D01*
X168716817Y-84296696D01*
X168538953Y-84324867D01*
X168344264Y-84388126D01*
X168161874Y-84481060D01*
X167996274Y-84601373D01*
X167851516Y-84746131D01*
X167731203Y-84911731D01*
X167638269Y-85094121D01*
X167575010Y-85288810D01*
X167542988Y-85490993D01*
X167542988Y-85695696D01*
X164900566Y-85695696D01*
X164069632Y-84864763D01*
X164069625Y-84864756D01*
X164022942Y-84827136D01*
X163954134Y-84795712D01*
X163892025Y-84767347D01*
X163892026Y-84767347D01*
X163749569Y-84746867D01*
X163607113Y-84767347D01*
X163607109Y-84767348D01*
X163476198Y-84827134D01*
X163476193Y-84827137D01*
X163429518Y-84864751D01*
X163429511Y-84864757D01*
X161664759Y-86629510D01*
X161664750Y-86629520D01*
X161627135Y-86676195D01*
X161581094Y-86777012D01*
X161535339Y-86829816D01*
X161468300Y-86849500D01*
X161339914Y-86849500D01*
X161214246Y-86874497D01*
X161214240Y-86874499D01*
X161095860Y-86923533D01*
X161095851Y-86923538D01*
X161055503Y-86950499D01*
X161055501Y-86950500D01*
X161026737Y-86969719D01*
X160960060Y-86990596D01*
X160957848Y-86990616D01*
X160928693Y-86990616D01*
X160861654Y-86970931D01*
X160815899Y-86918127D01*
X160805955Y-86848969D01*
X160834980Y-86785413D01*
X160841012Y-86778935D01*
X161497125Y-86122820D01*
X161497124Y-86122820D01*
X161497128Y-86122817D01*
X161568317Y-86016275D01*
X161617353Y-85897892D01*
X161623912Y-85864917D01*
X161642352Y-85772217D01*
X161642352Y-85714740D01*
X161662037Y-85647701D01*
X161678671Y-85627059D01*
X162291100Y-85014630D01*
X162935244Y-84370486D01*
X162972864Y-84323804D01*
X163032652Y-84192888D01*
X163053133Y-84050431D01*
X163050348Y-84031063D01*
X163032652Y-83907973D01*
X162972865Y-83777060D01*
X162972864Y-83777059D01*
X162972864Y-83777058D01*
X162935245Y-83730375D01*
X162935240Y-83730370D01*
X162935236Y-83730365D01*
X161453336Y-82248467D01*
X161453329Y-82248460D01*
X161406646Y-82210840D01*
X161406644Y-82210839D01*
X161406642Y-82210837D01*
X161295183Y-82159935D01*
X161242379Y-82114180D01*
X161222695Y-82047140D01*
X161242380Y-81980101D01*
X161259003Y-81959471D01*
X161388019Y-81830455D01*
X161449342Y-81796973D01*
X161475699Y-81794139D01*
X161560127Y-81794139D01*
X161627166Y-81813824D01*
X161647808Y-81830458D01*
X161790304Y-81972954D01*
X161790326Y-81972975D01*
X161815346Y-81993827D01*
X161841654Y-82015753D01*
X161983680Y-82090294D01*
X162123684Y-82124802D01*
X162184063Y-82159957D01*
X162214665Y-82216601D01*
X162222216Y-82248461D01*
X162229729Y-82280158D01*
X162275298Y-82370893D01*
X162305843Y-82431713D01*
X162368925Y-82509151D01*
X162790849Y-82931073D01*
X162868287Y-82994157D01*
X162868290Y-82994158D01*
X162868292Y-82994160D01*
X162978484Y-83049500D01*
X163019845Y-83070272D01*
X163173805Y-83106761D01*
X163234494Y-83141373D01*
X163266838Y-83203306D01*
X163269205Y-83227417D01*
X163269205Y-83232615D01*
X163274451Y-83253900D01*
X163309914Y-83397783D01*
X163349443Y-83473097D01*
X163388971Y-83548411D01*
X163434343Y-83602854D01*
X163903319Y-84071830D01*
X163957762Y-84117202D01*
X164108389Y-84196258D01*
X164273558Y-84236968D01*
X164443670Y-84236968D01*
X164608839Y-84196258D01*
X164759466Y-84117202D01*
X164813909Y-84071830D01*
X165176819Y-83708920D01*
X165222191Y-83654477D01*
X165301247Y-83503850D01*
X165341957Y-83338681D01*
X165341957Y-83194242D01*
X165361642Y-83127203D01*
X165414446Y-83081448D01*
X165465957Y-83070242D01*
X165610396Y-83070242D01*
X165775565Y-83029532D01*
X165926192Y-82950476D01*
X165980635Y-82905104D01*
X166343545Y-82542194D01*
X166388917Y-82487751D01*
X166467973Y-82337124D01*
X166508683Y-82171955D01*
X166508683Y-82171948D01*
X166509359Y-82166381D01*
X166536977Y-82102201D01*
X166566480Y-82076327D01*
X166706425Y-81988395D01*
X166833979Y-81860841D01*
X166929952Y-81708101D01*
X166989531Y-81537834D01*
X166990917Y-81525538D01*
X167001633Y-81430421D01*
X167028699Y-81366007D01*
X167086293Y-81326451D01*
X167156130Y-81324312D01*
X167197333Y-81343691D01*
G37*
G04 #@! TD.AperFunction*
G04 #@! TA.AperFunction,Conductor*
G36*
X152107504Y-103626563D02*
G01*
X152114942Y-103633418D01*
X152384931Y-103903407D01*
X152418416Y-103964730D01*
X152421250Y-103991088D01*
X152421250Y-105290974D01*
X152401565Y-105358013D01*
X152384931Y-105378655D01*
X150506886Y-107256699D01*
X150430692Y-107388670D01*
X150430691Y-107388671D01*
X150424498Y-107411784D01*
X150391250Y-107535868D01*
X150391250Y-107535870D01*
X150391250Y-108883967D01*
X150371565Y-108951006D01*
X150341562Y-108983233D01*
X150262452Y-109042455D01*
X150176206Y-109157664D01*
X150176202Y-109157671D01*
X150125908Y-109292517D01*
X150122439Y-109324789D01*
X150119501Y-109352123D01*
X150119500Y-109352135D01*
X150119500Y-111027732D01*
X150099815Y-111094771D01*
X150047011Y-111140526D01*
X150045940Y-111141010D01*
X150016245Y-111154232D01*
X149969736Y-111188022D01*
X149903929Y-111211501D01*
X149846419Y-111200984D01*
X149814268Y-111186670D01*
X149740991Y-111171095D01*
X149718717Y-111166360D01*
X149657236Y-111133169D01*
X149623460Y-111072006D01*
X149620499Y-111045080D01*
X149620499Y-109352128D01*
X149614091Y-109292517D01*
X149609144Y-109279254D01*
X149563797Y-109157671D01*
X149563793Y-109157664D01*
X149472232Y-109035355D01*
X149474326Y-109033787D01*
X149447394Y-108984464D01*
X149452378Y-108914772D01*
X149494250Y-108858839D01*
X149518117Y-108844830D01*
X149527593Y-108840612D01*
X149672230Y-108735526D01*
X149674914Y-108732546D01*
X149718320Y-108684338D01*
X149791859Y-108602665D01*
X149881250Y-108447835D01*
X149936497Y-108277803D01*
X149955185Y-108100000D01*
X149936497Y-107922197D01*
X149901819Y-107815469D01*
X149881252Y-107752170D01*
X149881249Y-107752164D01*
X149791859Y-107597335D01*
X149745003Y-107545296D01*
X149672235Y-107464478D01*
X149672232Y-107464476D01*
X149672231Y-107464475D01*
X149672230Y-107464474D01*
X149527593Y-107359388D01*
X149364267Y-107286671D01*
X149364265Y-107286670D01*
X149223269Y-107256701D01*
X149189391Y-107249500D01*
X149189390Y-107249500D01*
X149119338Y-107249500D01*
X149052299Y-107229815D01*
X149031657Y-107213181D01*
X147471569Y-105653093D01*
X147438084Y-105591770D01*
X147435250Y-105565412D01*
X147435250Y-105255454D01*
X147454935Y-105188415D01*
X147507739Y-105142660D01*
X147576897Y-105132716D01*
X147640453Y-105161741D01*
X147670060Y-105199803D01*
X147691922Y-105243334D01*
X147705843Y-105271052D01*
X147768925Y-105348491D01*
X148155493Y-105735057D01*
X148205617Y-105775889D01*
X148232929Y-105798139D01*
X148232937Y-105798144D01*
X148384485Y-105874254D01*
X148384489Y-105874256D01*
X148549515Y-105913368D01*
X148549517Y-105913368D01*
X148719111Y-105913368D01*
X148719113Y-105913368D01*
X148884139Y-105874256D01*
X149035697Y-105798141D01*
X149113135Y-105735059D01*
X149535057Y-105313135D01*
X149598141Y-105235697D01*
X149674256Y-105084139D01*
X149713368Y-104919113D01*
X149713368Y-104919111D01*
X149715033Y-104912086D01*
X149716992Y-104912550D01*
X149740380Y-104857524D01*
X149798135Y-104818204D01*
X149812116Y-104815162D01*
X149812086Y-104815033D01*
X149819111Y-104813368D01*
X149819113Y-104813368D01*
X149984139Y-104774256D01*
X150135697Y-104698141D01*
X150213135Y-104635059D01*
X150268898Y-104579294D01*
X150309383Y-104538811D01*
X150370706Y-104505326D01*
X150397064Y-104502492D01*
X150821928Y-104502492D01*
X150932766Y-104480444D01*
X150966921Y-104473650D01*
X151103503Y-104417076D01*
X151168823Y-104373431D01*
X151226424Y-104334944D01*
X151508063Y-104053303D01*
X151544134Y-104030650D01*
X151543248Y-104028810D01*
X151549510Y-104025792D01*
X151549522Y-104025789D01*
X151702262Y-103929816D01*
X151829816Y-103802262D01*
X151922267Y-103655126D01*
X151974602Y-103608836D01*
X152043655Y-103598188D01*
X152107504Y-103626563D01*
G37*
G04 #@! TD.AperFunction*
G04 #@! TA.AperFunction,Conductor*
G36*
X138572095Y-108815994D02*
G01*
X138572886Y-108814546D01*
X138580671Y-108818797D01*
X138608215Y-108829070D01*
X138715517Y-108869091D01*
X138775127Y-108875500D01*
X139124872Y-108875499D01*
X139184483Y-108869091D01*
X139184486Y-108869089D01*
X139186744Y-108868847D01*
X139213254Y-108868847D01*
X139215514Y-108869089D01*
X139215517Y-108869091D01*
X139275127Y-108875500D01*
X139624872Y-108875499D01*
X139684483Y-108869091D01*
X139684486Y-108869089D01*
X139686744Y-108868847D01*
X139713254Y-108868847D01*
X139715514Y-108869089D01*
X139715517Y-108869091D01*
X139775127Y-108875500D01*
X140124872Y-108875499D01*
X140125500Y-108875499D01*
X140192539Y-108895183D01*
X140238294Y-108947987D01*
X140249500Y-108999498D01*
X140249500Y-109124869D01*
X140249501Y-109124879D01*
X140256152Y-109186751D01*
X140256152Y-109213257D01*
X140255909Y-109215516D01*
X140255909Y-109215517D01*
X140249500Y-109275127D01*
X140249500Y-109275132D01*
X140249500Y-109275133D01*
X140249500Y-109624869D01*
X140249501Y-109624879D01*
X140256152Y-109686751D01*
X140256152Y-109713257D01*
X140255909Y-109715516D01*
X140255909Y-109715517D01*
X140249500Y-109775127D01*
X140249500Y-109775132D01*
X140249500Y-109775133D01*
X140249500Y-110124869D01*
X140249501Y-110124876D01*
X140255908Y-110184483D01*
X140306202Y-110319328D01*
X140306205Y-110319333D01*
X140315541Y-110331805D01*
X140339956Y-110397270D01*
X140325103Y-110465542D01*
X140275696Y-110514946D01*
X140229521Y-110529403D01*
X140213245Y-110531152D01*
X140186742Y-110531152D01*
X140184483Y-110530909D01*
X140124873Y-110524500D01*
X140124865Y-110524500D01*
X139775130Y-110524500D01*
X139775120Y-110524501D01*
X139713248Y-110531152D01*
X139686742Y-110531152D01*
X139684483Y-110530909D01*
X139624873Y-110524500D01*
X139624867Y-110524500D01*
X139407872Y-110524500D01*
X139340833Y-110504815D01*
X139295078Y-110452011D01*
X139288210Y-110427236D01*
X139286917Y-110427532D01*
X139285368Y-110420745D01*
X139256100Y-110337102D01*
X139225789Y-110250478D01*
X139129816Y-110097738D01*
X139002262Y-109970184D01*
X138928368Y-109923753D01*
X138849523Y-109874211D01*
X138679254Y-109814631D01*
X138679249Y-109814630D01*
X138500004Y-109794435D01*
X138499996Y-109794435D01*
X138331075Y-109813467D01*
X138262253Y-109801412D01*
X138210874Y-109754063D01*
X138193250Y-109686453D01*
X138214977Y-109620047D01*
X138229509Y-109602568D01*
X138229816Y-109602262D01*
X138325789Y-109449522D01*
X138385368Y-109279255D01*
X138385369Y-109279249D01*
X138405565Y-109100003D01*
X138405565Y-109099997D01*
X138386952Y-108934802D01*
X138399006Y-108865980D01*
X138446355Y-108814600D01*
X138513966Y-108796976D01*
X138572095Y-108815994D01*
G37*
G04 #@! TD.AperFunction*
G04 #@! TA.AperFunction,Conductor*
G36*
X142064179Y-79409794D02*
G01*
X142103975Y-79467223D01*
X142106405Y-79537050D01*
X142073971Y-79593950D01*
X142070184Y-79597737D01*
X141974211Y-79750476D01*
X141914631Y-79920745D01*
X141914630Y-79920749D01*
X141906499Y-79992917D01*
X141879432Y-80057331D01*
X141821837Y-80096886D01*
X141769396Y-80102253D01*
X141700004Y-80094435D01*
X141699996Y-80094435D01*
X141520750Y-80114630D01*
X141520745Y-80114631D01*
X141350476Y-80174211D01*
X141197737Y-80270184D01*
X141070184Y-80397737D01*
X140974211Y-80550476D01*
X140914631Y-80720745D01*
X140914630Y-80720750D01*
X140894435Y-80899996D01*
X140894435Y-80900004D01*
X140910126Y-81039275D01*
X140898071Y-81108097D01*
X140850722Y-81159476D01*
X140783111Y-81177100D01*
X140716706Y-81155373D01*
X140699225Y-81140839D01*
X140678324Y-81119938D01*
X140678302Y-81119917D01*
X140626976Y-81077141D01*
X140626975Y-81077140D01*
X140484945Y-81002597D01*
X140329211Y-80964213D01*
X140168814Y-80964213D01*
X140013076Y-81002598D01*
X139871047Y-81077141D01*
X139819718Y-81119920D01*
X139819709Y-81119928D01*
X139784265Y-81155373D01*
X139677202Y-81262436D01*
X139615882Y-81295920D01*
X139589523Y-81298754D01*
X139452635Y-81298754D01*
X139300248Y-81298754D01*
X139211931Y-81322418D01*
X139153051Y-81338195D01*
X139153050Y-81338196D01*
X139021079Y-81414390D01*
X138220214Y-82215255D01*
X138144020Y-82347226D01*
X138144019Y-82347227D01*
X138137678Y-82370893D01*
X138104578Y-82494424D01*
X138104578Y-82494426D01*
X138104578Y-84535693D01*
X138084893Y-84602732D01*
X138032089Y-84648487D01*
X137962931Y-84658431D01*
X137899375Y-84629406D01*
X137892897Y-84623374D01*
X137870896Y-84601373D01*
X137705296Y-84481060D01*
X137705295Y-84481059D01*
X137705293Y-84481058D01*
X137638003Y-84446772D01*
X137522906Y-84388126D01*
X137328217Y-84324867D01*
X137153678Y-84297223D01*
X137126035Y-84292845D01*
X136921331Y-84292845D01*
X136897012Y-84296696D01*
X136719148Y-84324867D01*
X136524459Y-84388126D01*
X136342069Y-84481060D01*
X136176469Y-84601373D01*
X136031711Y-84746131D01*
X135911398Y-84911731D01*
X135818464Y-85094121D01*
X135755205Y-85288810D01*
X135723183Y-85490993D01*
X135723183Y-85695696D01*
X135755205Y-85897879D01*
X135818464Y-86092568D01*
X135847485Y-86149523D01*
X135909407Y-86271052D01*
X135911398Y-86274958D01*
X136031711Y-86440558D01*
X136176469Y-86585316D01*
X136301556Y-86676195D01*
X136342073Y-86705632D01*
X136458290Y-86764848D01*
X136524459Y-86798563D01*
X136524461Y-86798563D01*
X136524464Y-86798565D01*
X136620642Y-86829815D01*
X136719148Y-86861822D01*
X136799187Y-86874499D01*
X136921331Y-86893845D01*
X136921332Y-86893845D01*
X137126034Y-86893845D01*
X137126035Y-86893845D01*
X137328217Y-86861822D01*
X137522902Y-86798565D01*
X137705293Y-86705632D01*
X137810067Y-86629510D01*
X137870896Y-86585316D01*
X137870898Y-86585313D01*
X137870902Y-86585311D01*
X137892897Y-86563316D01*
X137954220Y-86529831D01*
X138023912Y-86534815D01*
X138079845Y-86576687D01*
X138104262Y-86642151D01*
X138104578Y-86650997D01*
X138104578Y-87407134D01*
X138104578Y-87559522D01*
X138122697Y-87627142D01*
X138144019Y-87706718D01*
X138144020Y-87706719D01*
X138218385Y-87835523D01*
X138220214Y-87838690D01*
X138891092Y-88509569D01*
X138924577Y-88570892D01*
X138919593Y-88640584D01*
X138877721Y-88696517D01*
X138812257Y-88720934D01*
X138803411Y-88721250D01*
X138279483Y-88721250D01*
X138212444Y-88701565D01*
X138187333Y-88680222D01*
X138122693Y-88608432D01*
X138115457Y-88603175D01*
X138026800Y-88538761D01*
X137965297Y-88494076D01*
X137816004Y-88427608D01*
X137787571Y-88414949D01*
X137787569Y-88414948D01*
X137597274Y-88374500D01*
X137402726Y-88374500D01*
X137212430Y-88414948D01*
X137212427Y-88414949D01*
X137050434Y-88487072D01*
X136981184Y-88496356D01*
X136949566Y-88487072D01*
X136787572Y-88414949D01*
X136787569Y-88414948D01*
X136597274Y-88374500D01*
X136402726Y-88374500D01*
X136212431Y-88414948D01*
X136034702Y-88494076D01*
X135877305Y-88608433D01*
X135877302Y-88608435D01*
X135747129Y-88753009D01*
X135649857Y-88921488D01*
X135649856Y-88921489D01*
X135617931Y-89019748D01*
X135578494Y-89077423D01*
X135514135Y-89104622D01*
X135445289Y-89092708D01*
X135393813Y-89045464D01*
X135382069Y-89019748D01*
X135350143Y-88921489D01*
X135350142Y-88921488D01*
X135295667Y-88827135D01*
X135252870Y-88753008D01*
X135187333Y-88680222D01*
X135122697Y-88608435D01*
X135122694Y-88608433D01*
X135122693Y-88608432D01*
X135122692Y-88608431D01*
X134997475Y-88517455D01*
X134965297Y-88494076D01*
X134816004Y-88427608D01*
X134787571Y-88414949D01*
X134787569Y-88414948D01*
X134597274Y-88374500D01*
X134402726Y-88374500D01*
X134212429Y-88414948D01*
X134206245Y-88416958D01*
X134205349Y-88414201D01*
X134148341Y-88421511D01*
X134124527Y-88415239D01*
X134032482Y-88380908D01*
X134032483Y-88380908D01*
X133972883Y-88374501D01*
X133972881Y-88374500D01*
X133972873Y-88374500D01*
X133972864Y-88374500D01*
X133027129Y-88374500D01*
X133027123Y-88374501D01*
X132967516Y-88380908D01*
X132832671Y-88431202D01*
X132832664Y-88431206D01*
X132717455Y-88517452D01*
X132717452Y-88517455D01*
X132631206Y-88632664D01*
X132631202Y-88632671D01*
X132580908Y-88767517D01*
X132574501Y-88827116D01*
X132574500Y-88827135D01*
X132574500Y-89772870D01*
X132574501Y-89772876D01*
X132580908Y-89832483D01*
X132631202Y-89967328D01*
X132631206Y-89967335D01*
X132717452Y-90082544D01*
X132717455Y-90082547D01*
X132832664Y-90168793D01*
X132832671Y-90168797D01*
X132967517Y-90219091D01*
X132967516Y-90219091D01*
X132974444Y-90219835D01*
X133027127Y-90225500D01*
X133972872Y-90225499D01*
X134032483Y-90219091D01*
X134124530Y-90184759D01*
X134194218Y-90179776D01*
X134206039Y-90183678D01*
X134206246Y-90183042D01*
X134212426Y-90185049D01*
X134212429Y-90185051D01*
X134402726Y-90225500D01*
X134555662Y-90225500D01*
X134622701Y-90245185D01*
X134643343Y-90261819D01*
X135644639Y-91263115D01*
X135776611Y-91339309D01*
X135923806Y-91378750D01*
X136076193Y-91378750D01*
X142042324Y-91378750D01*
X142109363Y-91398435D01*
X142155118Y-91451239D01*
X142165062Y-91520397D01*
X142136037Y-91583953D01*
X142130005Y-91590431D01*
X142064950Y-91655485D01*
X142064942Y-91655494D01*
X142001860Y-91732929D01*
X142001855Y-91732937D01*
X141925745Y-91884485D01*
X141925744Y-91884488D01*
X141925744Y-91884489D01*
X141886632Y-92049515D01*
X141886632Y-92219113D01*
X141913530Y-92332604D01*
X141925745Y-92384142D01*
X141984764Y-92501658D01*
X142001859Y-92535697D01*
X142064941Y-92613135D01*
X142486865Y-93035057D01*
X142564303Y-93098141D01*
X142564306Y-93098142D01*
X142564308Y-93098144D01*
X142715857Y-93174254D01*
X142715861Y-93174256D01*
X142880887Y-93213368D01*
X142880889Y-93213368D01*
X142887914Y-93215033D01*
X142887449Y-93216993D01*
X142942477Y-93240382D01*
X142981796Y-93298138D01*
X142984837Y-93312116D01*
X142984967Y-93312086D01*
X142986632Y-93319111D01*
X142986632Y-93319113D01*
X143025744Y-93484139D01*
X143025745Y-93484142D01*
X143101856Y-93635692D01*
X143101859Y-93635697D01*
X143152729Y-93698144D01*
X143164941Y-93713135D01*
X143261189Y-93809383D01*
X143294674Y-93870706D01*
X143297508Y-93897064D01*
X143297508Y-94021926D01*
X143297508Y-94021928D01*
X143297507Y-94021928D01*
X143326348Y-94166915D01*
X143326351Y-94166925D01*
X143382920Y-94303496D01*
X143382924Y-94303503D01*
X143409237Y-94342883D01*
X143409238Y-94342886D01*
X143409239Y-94342886D01*
X143429218Y-94372788D01*
X143465059Y-94426428D01*
X143465060Y-94426429D01*
X143763082Y-94724450D01*
X143796567Y-94785773D01*
X143791583Y-94855464D01*
X143749712Y-94911398D01*
X143737401Y-94919518D01*
X143670709Y-94958022D01*
X143670704Y-94958026D01*
X142058946Y-96569785D01*
X141997623Y-96603270D01*
X141927931Y-96598286D01*
X141871998Y-96556414D01*
X141847581Y-96490950D01*
X141847773Y-96470888D01*
X141853000Y-96413381D01*
X141852999Y-95986620D01*
X141852999Y-95986619D01*
X141852999Y-95986611D01*
X141846953Y-95920073D01*
X141846952Y-95920070D01*
X141846952Y-95920067D01*
X141808994Y-95798255D01*
X141799234Y-95766933D01*
X141799232Y-95766929D01*
X141716257Y-95629670D01*
X141716253Y-95629665D01*
X141602834Y-95516246D01*
X141602829Y-95516242D01*
X141465570Y-95433267D01*
X141465566Y-95433265D01*
X141312433Y-95385548D01*
X141312435Y-95385548D01*
X141285812Y-95383128D01*
X141245881Y-95379500D01*
X141245878Y-95379500D01*
X140744111Y-95379500D01*
X140677573Y-95385546D01*
X140677566Y-95385548D01*
X140524433Y-95433265D01*
X140524429Y-95433267D01*
X140387170Y-95516242D01*
X140387165Y-95516246D01*
X140273746Y-95629665D01*
X140273742Y-95629670D01*
X140190767Y-95766929D01*
X140190765Y-95766933D01*
X140143048Y-95920065D01*
X140143048Y-95920066D01*
X140143048Y-95920067D01*
X140138294Y-95972386D01*
X140137000Y-95986621D01*
X140137000Y-96413388D01*
X140143046Y-96479926D01*
X140143048Y-96479933D01*
X140190765Y-96633065D01*
X140190766Y-96633067D01*
X140190767Y-96633069D01*
X140204551Y-96655870D01*
X140224926Y-96689575D01*
X140242761Y-96757130D01*
X140221243Y-96823604D01*
X140167202Y-96867891D01*
X140097796Y-96875931D01*
X140053711Y-96859262D01*
X139937295Y-96787455D01*
X139937289Y-96787452D01*
X139937287Y-96787451D01*
X139777685Y-96734564D01*
X139777683Y-96734563D01*
X139679181Y-96724500D01*
X139679174Y-96724500D01*
X139145826Y-96724500D01*
X139145818Y-96724500D01*
X139047316Y-96734563D01*
X139047315Y-96734564D01*
X138968219Y-96760773D01*
X138887715Y-96787450D01*
X138887704Y-96787455D01*
X138744612Y-96875716D01*
X138744608Y-96875719D01*
X138625719Y-96994608D01*
X138625716Y-96994612D01*
X138537455Y-97137704D01*
X138537451Y-97137713D01*
X138484564Y-97297315D01*
X138484564Y-97297316D01*
X138484563Y-97297316D01*
X138474500Y-97395818D01*
X138474500Y-97666692D01*
X138454815Y-97733731D01*
X138438181Y-97754373D01*
X136979373Y-99213181D01*
X136918050Y-99246666D01*
X136891692Y-99249500D01*
X135015520Y-99249500D01*
X134948481Y-99229815D01*
X134902726Y-99177011D01*
X134892782Y-99107853D01*
X134921807Y-99044297D01*
X134927839Y-99037819D01*
X135019112Y-98946545D01*
X135019115Y-98946542D01*
X135095776Y-98831811D01*
X135148581Y-98704328D01*
X135157390Y-98660041D01*
X135175501Y-98568995D01*
X135175501Y-98431004D01*
X135148582Y-98295677D01*
X135148581Y-98295676D01*
X135148581Y-98295672D01*
X135137808Y-98269663D01*
X135095779Y-98168195D01*
X135095772Y-98168182D01*
X135019115Y-98053458D01*
X135019112Y-98053454D01*
X134921546Y-97955888D01*
X134921542Y-97955885D01*
X134806818Y-97879228D01*
X134806805Y-97879221D01*
X134679333Y-97826421D01*
X134679323Y-97826418D01*
X134543996Y-97799500D01*
X134543994Y-97799500D01*
X134406008Y-97799500D01*
X134406006Y-97799500D01*
X134270678Y-97826418D01*
X134270668Y-97826421D01*
X134143196Y-97879221D01*
X134143185Y-97879227D01*
X134027161Y-97956752D01*
X133960484Y-97977629D01*
X133893104Y-97959144D01*
X133846414Y-97907165D01*
X133841229Y-97894603D01*
X133825789Y-97850478D01*
X133803264Y-97814630D01*
X133729816Y-97697738D01*
X133602262Y-97570184D01*
X133588114Y-97561294D01*
X133449523Y-97474211D01*
X133279254Y-97414631D01*
X133279249Y-97414630D01*
X133100004Y-97394435D01*
X133099996Y-97394435D01*
X132920750Y-97414630D01*
X132920737Y-97414633D01*
X132750487Y-97474206D01*
X132750474Y-97474213D01*
X132740475Y-97480496D01*
X132674507Y-97499500D01*
X132279500Y-97499500D01*
X132212461Y-97479815D01*
X132166706Y-97427011D01*
X132155500Y-97375500D01*
X132155499Y-96402129D01*
X132155498Y-96402123D01*
X132155497Y-96402116D01*
X132149091Y-96342517D01*
X132144051Y-96329005D01*
X132098797Y-96207671D01*
X132098793Y-96207664D01*
X132012547Y-96092455D01*
X132012544Y-96092452D01*
X131897335Y-96006206D01*
X131897328Y-96006202D01*
X131762482Y-95955908D01*
X131762483Y-95955908D01*
X131702883Y-95949501D01*
X131702881Y-95949500D01*
X131702873Y-95949500D01*
X131702864Y-95949500D01*
X130807129Y-95949500D01*
X130807123Y-95949501D01*
X130747516Y-95955908D01*
X130612671Y-96006202D01*
X130612664Y-96006206D01*
X130497455Y-96092452D01*
X130497452Y-96092455D01*
X130411206Y-96207664D01*
X130411202Y-96207671D01*
X130360908Y-96342517D01*
X130355393Y-96393819D01*
X130354501Y-96402123D01*
X130354500Y-96402135D01*
X130354500Y-97497870D01*
X130354501Y-97497876D01*
X130360908Y-97557483D01*
X130411202Y-97692328D01*
X130411206Y-97692335D01*
X130472715Y-97774499D01*
X130497454Y-97807546D01*
X130604811Y-97887914D01*
X130646682Y-97943847D01*
X130654500Y-97987180D01*
X130654500Y-98426099D01*
X130634815Y-98493138D01*
X130582011Y-98538893D01*
X130512853Y-98548837D01*
X130461614Y-98529204D01*
X130453138Y-98523541D01*
X130453124Y-98523533D01*
X130334744Y-98474499D01*
X130334738Y-98474497D01*
X130209071Y-98449500D01*
X130209069Y-98449500D01*
X130080931Y-98449500D01*
X130080929Y-98449500D01*
X129955261Y-98474497D01*
X129955255Y-98474499D01*
X129836875Y-98523533D01*
X129836866Y-98523538D01*
X129730331Y-98594723D01*
X129730327Y-98594726D01*
X129639726Y-98685327D01*
X129639723Y-98685331D01*
X129568538Y-98791866D01*
X129568533Y-98791875D01*
X129519499Y-98910255D01*
X129519497Y-98910261D01*
X129494500Y-99035928D01*
X129494500Y-99035931D01*
X129494500Y-99164069D01*
X129494500Y-99164071D01*
X129494499Y-99164071D01*
X129519497Y-99289738D01*
X129519499Y-99289744D01*
X129568533Y-99408124D01*
X129568538Y-99408133D01*
X129639723Y-99514668D01*
X129639726Y-99514672D01*
X129730327Y-99605273D01*
X129730331Y-99605276D01*
X129836866Y-99676461D01*
X129836872Y-99676464D01*
X129836873Y-99676465D01*
X129955256Y-99725501D01*
X129955260Y-99725501D01*
X129955261Y-99725502D01*
X130080928Y-99750500D01*
X130080931Y-99750500D01*
X130209071Y-99750500D01*
X130293615Y-99733682D01*
X130334744Y-99725501D01*
X130453127Y-99676465D01*
X130559669Y-99605276D01*
X130650276Y-99514669D01*
X130721465Y-99408127D01*
X130770501Y-99289744D01*
X130778919Y-99247421D01*
X130811303Y-99185514D01*
X130872018Y-99150939D01*
X130941788Y-99154678D01*
X130943869Y-99155433D01*
X131047517Y-99194091D01*
X131047516Y-99194091D01*
X131054444Y-99194835D01*
X131107127Y-99200500D01*
X132702872Y-99200499D01*
X132762483Y-99194091D01*
X132897331Y-99143796D01*
X133012546Y-99057546D01*
X133014862Y-99054451D01*
X133017961Y-99052131D01*
X133018818Y-99051275D01*
X133018941Y-99051398D01*
X133070793Y-99012578D01*
X133100250Y-99005537D01*
X133279249Y-98985369D01*
X133279252Y-98985368D01*
X133279255Y-98985368D01*
X133449522Y-98925789D01*
X133602262Y-98829816D01*
X133648619Y-98783458D01*
X133709940Y-98749974D01*
X133779631Y-98754958D01*
X133835565Y-98796829D01*
X133850858Y-98823682D01*
X133854223Y-98831806D01*
X133854229Y-98831817D01*
X133930886Y-98946541D01*
X133930889Y-98946545D01*
X134028455Y-99044111D01*
X134028459Y-99044114D01*
X134143183Y-99120771D01*
X134143196Y-99120778D01*
X134225039Y-99154678D01*
X134270673Y-99173580D01*
X134270677Y-99173580D01*
X134270678Y-99173581D01*
X134406005Y-99200500D01*
X134494507Y-99200500D01*
X134561546Y-99220185D01*
X134607301Y-99272989D01*
X134617245Y-99342147D01*
X134588220Y-99405703D01*
X134582188Y-99412181D01*
X133551187Y-100443181D01*
X133489864Y-100476666D01*
X133463507Y-100479500D01*
X133251611Y-100479500D01*
X133185073Y-100485546D01*
X133185066Y-100485548D01*
X133031933Y-100533265D01*
X133031927Y-100533268D01*
X133008415Y-100547482D01*
X132940860Y-100565318D01*
X132900933Y-100557547D01*
X132762482Y-100505908D01*
X132762483Y-100505908D01*
X132702883Y-100499501D01*
X132702881Y-100499500D01*
X132702873Y-100499500D01*
X132702864Y-100499500D01*
X131107129Y-100499500D01*
X131107123Y-100499501D01*
X131047516Y-100505908D01*
X130912671Y-100556202D01*
X130912664Y-100556206D01*
X130797455Y-100642452D01*
X130797452Y-100642455D01*
X130711206Y-100757664D01*
X130711202Y-100757671D01*
X130660908Y-100892517D01*
X130654501Y-100952116D01*
X130654500Y-100952135D01*
X130654500Y-101426099D01*
X130634815Y-101493138D01*
X130582011Y-101538893D01*
X130512853Y-101548837D01*
X130461614Y-101529204D01*
X130453138Y-101523541D01*
X130453124Y-101523533D01*
X130334744Y-101474499D01*
X130334738Y-101474497D01*
X130209071Y-101449500D01*
X130209069Y-101449500D01*
X130080931Y-101449500D01*
X130080929Y-101449500D01*
X129955261Y-101474497D01*
X129955255Y-101474499D01*
X129836875Y-101523533D01*
X129836866Y-101523538D01*
X129730331Y-101594723D01*
X129730327Y-101594726D01*
X129639726Y-101685327D01*
X129639723Y-101685331D01*
X129568538Y-101791866D01*
X129568533Y-101791875D01*
X129519499Y-101910255D01*
X129519497Y-101910261D01*
X129494500Y-102035928D01*
X129494500Y-102035931D01*
X129494500Y-102164069D01*
X129494500Y-102164071D01*
X129494499Y-102164071D01*
X129519497Y-102289738D01*
X129519499Y-102289744D01*
X129568533Y-102408124D01*
X129568538Y-102408133D01*
X129639723Y-102514668D01*
X129639726Y-102514672D01*
X129730327Y-102605273D01*
X129730331Y-102605276D01*
X129836866Y-102676461D01*
X129836875Y-102676466D01*
X129858562Y-102685449D01*
X129955256Y-102725501D01*
X129955260Y-102725501D01*
X129955261Y-102725502D01*
X130080928Y-102750500D01*
X130080931Y-102750500D01*
X130209071Y-102750500D01*
X130302057Y-102732003D01*
X130334744Y-102725501D01*
X130453127Y-102676465D01*
X130559669Y-102605276D01*
X130650276Y-102514669D01*
X130721465Y-102408127D01*
X130770501Y-102289744D01*
X130778919Y-102247421D01*
X130811303Y-102185514D01*
X130872018Y-102150939D01*
X130941788Y-102154678D01*
X130943869Y-102155433D01*
X131047517Y-102194091D01*
X131047516Y-102194091D01*
X131054444Y-102194835D01*
X131107127Y-102200500D01*
X132702872Y-102200499D01*
X132762483Y-102194091D01*
X132897331Y-102143796D01*
X132958863Y-102097732D01*
X133024323Y-102073316D01*
X133070061Y-102078614D01*
X133185067Y-102114452D01*
X133251619Y-102120500D01*
X133753380Y-102120499D01*
X133753388Y-102120499D01*
X133819926Y-102114453D01*
X133819927Y-102114452D01*
X133819933Y-102114452D01*
X133973069Y-102066733D01*
X134035850Y-102028779D01*
X134103405Y-102010944D01*
X134164149Y-102028779D01*
X134191636Y-102045396D01*
X134238824Y-102096924D01*
X134250662Y-102165784D01*
X134223393Y-102230112D01*
X134174939Y-102266074D01*
X134143192Y-102279223D01*
X134143183Y-102279228D01*
X134028459Y-102355885D01*
X134028455Y-102355888D01*
X133930889Y-102453454D01*
X133930886Y-102453458D01*
X133854229Y-102568182D01*
X133854222Y-102568195D01*
X133801422Y-102695667D01*
X133801419Y-102695677D01*
X133774501Y-102831004D01*
X133774501Y-102831007D01*
X133774501Y-102968993D01*
X133774501Y-102968995D01*
X133774500Y-102968995D01*
X133801419Y-103104322D01*
X133801422Y-103104332D01*
X133854222Y-103231804D01*
X133854229Y-103231817D01*
X133930886Y-103346541D01*
X133930889Y-103346545D01*
X134028455Y-103444111D01*
X134028459Y-103444114D01*
X134143183Y-103520771D01*
X134143196Y-103520778D01*
X134249495Y-103564808D01*
X134270673Y-103573580D01*
X134270677Y-103573580D01*
X134270678Y-103573581D01*
X134406005Y-103600500D01*
X134406008Y-103600500D01*
X134543996Y-103600500D01*
X134650799Y-103579255D01*
X134679329Y-103573580D01*
X134791706Y-103527032D01*
X134806805Y-103520778D01*
X134806805Y-103520777D01*
X134806812Y-103520775D01*
X134921543Y-103444114D01*
X134989924Y-103375732D01*
X135051245Y-103342249D01*
X135120937Y-103347233D01*
X135176871Y-103389104D01*
X135201288Y-103454568D01*
X135200894Y-103476663D01*
X135199501Y-103489617D01*
X135199501Y-105385370D01*
X135199502Y-105385376D01*
X135205909Y-105444983D01*
X135256203Y-105579828D01*
X135256207Y-105579835D01*
X135342453Y-105695044D01*
X135342456Y-105695047D01*
X135457666Y-105781294D01*
X135457668Y-105781294D01*
X135457670Y-105781296D01*
X135468831Y-105785458D01*
X135524765Y-105827326D01*
X135549185Y-105892789D01*
X135549501Y-105901641D01*
X135549501Y-106001570D01*
X135559273Y-106050693D01*
X135559273Y-106050696D01*
X135574498Y-106127237D01*
X135574500Y-106127245D01*
X135623438Y-106245393D01*
X135623536Y-106245628D01*
X135666927Y-106310568D01*
X135694727Y-106352174D01*
X135713179Y-106370625D01*
X135746666Y-106431947D01*
X135749500Y-106458308D01*
X135749500Y-106735836D01*
X135749501Y-106735855D01*
X135759650Y-106835207D01*
X135759651Y-106835210D01*
X135812996Y-106996194D01*
X135813001Y-106996205D01*
X135902029Y-107140540D01*
X135902032Y-107140544D01*
X135948766Y-107187279D01*
X135982250Y-107248602D01*
X135977265Y-107318294D01*
X135960351Y-107349270D01*
X135879204Y-107457668D01*
X135879202Y-107457671D01*
X135828910Y-107592513D01*
X135828909Y-107592517D01*
X135822500Y-107652127D01*
X135822500Y-107652134D01*
X135822500Y-107652135D01*
X135822500Y-108422870D01*
X135822501Y-108422876D01*
X135828908Y-108482483D01*
X135882303Y-108625641D01*
X135880724Y-108626229D01*
X135893370Y-108684338D01*
X135868957Y-108749804D01*
X135813026Y-108791679D01*
X135769685Y-108799500D01*
X135048429Y-108799500D01*
X134922762Y-108824497D01*
X134922754Y-108824499D01*
X134855007Y-108852561D01*
X134807555Y-108862000D01*
X134451662Y-108862000D01*
X134451644Y-108862001D01*
X134352292Y-108872150D01*
X134352289Y-108872151D01*
X134191305Y-108925496D01*
X134191294Y-108925501D01*
X134046959Y-109014529D01*
X134046955Y-109014532D01*
X134037681Y-109023807D01*
X133976358Y-109057292D01*
X133906666Y-109052308D01*
X133862319Y-109023807D01*
X133853044Y-109014532D01*
X133853040Y-109014529D01*
X133708705Y-108925501D01*
X133708699Y-108925498D01*
X133708697Y-108925497D01*
X133596425Y-108888294D01*
X133547709Y-108872151D01*
X133448346Y-108862000D01*
X132851662Y-108862000D01*
X132851644Y-108862001D01*
X132752292Y-108872150D01*
X132752289Y-108872151D01*
X132591305Y-108925496D01*
X132591294Y-108925501D01*
X132446959Y-109014529D01*
X132446955Y-109014532D01*
X132437681Y-109023807D01*
X132376358Y-109057292D01*
X132306666Y-109052308D01*
X132262319Y-109023807D01*
X132253044Y-109014532D01*
X132253040Y-109014529D01*
X132108705Y-108925501D01*
X132108699Y-108925498D01*
X132108697Y-108925497D01*
X131996425Y-108888294D01*
X131947709Y-108872151D01*
X131848346Y-108862000D01*
X131251662Y-108862000D01*
X131251644Y-108862001D01*
X131152292Y-108872150D01*
X131152289Y-108872151D01*
X130991305Y-108925496D01*
X130991291Y-108925503D01*
X130976183Y-108934822D01*
X130908791Y-108953262D01*
X130845116Y-108934277D01*
X130837895Y-108929740D01*
X130749522Y-108874211D01*
X130714625Y-108862000D01*
X130579254Y-108814631D01*
X130579249Y-108814630D01*
X130400004Y-108794435D01*
X130399996Y-108794435D01*
X130220750Y-108814630D01*
X130220745Y-108814631D01*
X130050476Y-108874211D01*
X129897737Y-108970184D01*
X129770182Y-109097739D01*
X129689023Y-109226903D01*
X129636689Y-109273193D01*
X129567635Y-109283841D01*
X129503787Y-109255466D01*
X129465645Y-109197820D01*
X129400412Y-108988481D01*
X129210010Y-108377459D01*
X129208627Y-108372685D01*
X129208625Y-108372679D01*
X128952454Y-107416632D01*
X128951259Y-107411784D01*
X128946053Y-107388670D01*
X128733795Y-106446217D01*
X128732797Y-106441328D01*
X128724294Y-106394927D01*
X128554380Y-105467737D01*
X128553590Y-105462880D01*
X128543521Y-105391920D01*
X128553592Y-105322780D01*
X128599444Y-105270060D01*
X128666287Y-105250499D01*
X129492872Y-105250499D01*
X129552483Y-105244091D01*
X129687331Y-105193796D01*
X129802546Y-105107546D01*
X129888796Y-104992331D01*
X129939091Y-104857483D01*
X129945500Y-104797873D01*
X129945500Y-104797870D01*
X130354500Y-104797870D01*
X130354501Y-104797876D01*
X130360908Y-104857483D01*
X130411202Y-104992328D01*
X130411206Y-104992335D01*
X130497452Y-105107544D01*
X130497455Y-105107547D01*
X130612664Y-105193793D01*
X130612671Y-105193797D01*
X130747517Y-105244091D01*
X130747516Y-105244091D01*
X130754444Y-105244835D01*
X130807127Y-105250500D01*
X131702872Y-105250499D01*
X131762483Y-105244091D01*
X131897331Y-105193796D01*
X132012546Y-105107546D01*
X132098796Y-104992331D01*
X132149091Y-104857483D01*
X132155500Y-104797873D01*
X132155499Y-103702128D01*
X132149091Y-103642517D01*
X132145749Y-103633557D01*
X132098797Y-103507671D01*
X132098793Y-103507664D01*
X132012547Y-103392455D01*
X132012544Y-103392452D01*
X131897335Y-103306206D01*
X131897328Y-103306202D01*
X131762482Y-103255908D01*
X131762483Y-103255908D01*
X131702883Y-103249501D01*
X131702881Y-103249500D01*
X131702873Y-103249500D01*
X131702864Y-103249500D01*
X130807129Y-103249500D01*
X130807123Y-103249501D01*
X130747516Y-103255908D01*
X130612671Y-103306202D01*
X130612664Y-103306206D01*
X130497455Y-103392452D01*
X130497452Y-103392455D01*
X130411206Y-103507664D01*
X130411202Y-103507671D01*
X130360908Y-103642517D01*
X130358272Y-103667042D01*
X130354501Y-103702123D01*
X130354500Y-103702135D01*
X130354500Y-104797870D01*
X129945500Y-104797870D01*
X129945499Y-103702128D01*
X129939091Y-103642517D01*
X129935749Y-103633557D01*
X129888797Y-103507671D01*
X129888793Y-103507664D01*
X129802547Y-103392455D01*
X129802544Y-103392452D01*
X129687335Y-103306206D01*
X129687328Y-103306202D01*
X129552482Y-103255908D01*
X129552483Y-103255908D01*
X129492883Y-103249501D01*
X129492881Y-103249500D01*
X129492873Y-103249500D01*
X129492864Y-103249500D01*
X128597129Y-103249500D01*
X128597123Y-103249501D01*
X128537517Y-103255908D01*
X128462203Y-103283998D01*
X128392512Y-103288981D01*
X128331189Y-103255495D01*
X128297705Y-103194171D01*
X128295099Y-103175313D01*
X128254265Y-102500256D01*
X128254067Y-102495329D01*
X128234136Y-101505730D01*
X128234136Y-101500751D01*
X128234220Y-101496588D01*
X128254067Y-100511164D01*
X128254265Y-100506241D01*
X128314029Y-99518231D01*
X128314430Y-99513275D01*
X128314662Y-99510987D01*
X128413923Y-98528516D01*
X128414524Y-98523576D01*
X128414530Y-98523538D01*
X128480725Y-98057076D01*
X128509634Y-97993468D01*
X128568342Y-97955586D01*
X128603488Y-97950499D01*
X129492872Y-97950499D01*
X129552483Y-97944091D01*
X129687331Y-97893796D01*
X129802546Y-97807546D01*
X129888796Y-97692331D01*
X129939091Y-97557483D01*
X129945500Y-97497873D01*
X129945499Y-96402128D01*
X129939091Y-96342517D01*
X129934051Y-96329005D01*
X129888797Y-96207671D01*
X129888793Y-96207664D01*
X129802547Y-96092455D01*
X129802544Y-96092452D01*
X129687335Y-96006206D01*
X129687328Y-96006202D01*
X129552482Y-95955908D01*
X129552483Y-95955908D01*
X129492883Y-95949501D01*
X129492881Y-95949500D01*
X129492873Y-95949500D01*
X129492865Y-95949500D01*
X129026387Y-95949500D01*
X128959348Y-95929815D01*
X128913593Y-95877011D01*
X128903649Y-95807853D01*
X128905417Y-95798255D01*
X128907462Y-95789175D01*
X128951264Y-95594689D01*
X128952454Y-95589863D01*
X128970522Y-95522433D01*
X129208634Y-94633785D01*
X129210006Y-94629049D01*
X129504478Y-93684055D01*
X129506029Y-93679408D01*
X129838329Y-92746992D01*
X129840064Y-92742416D01*
X130209637Y-91824146D01*
X130211555Y-91819643D01*
X130617799Y-90917005D01*
X130619914Y-90912548D01*
X131062166Y-90027017D01*
X131064454Y-90022658D01*
X131542004Y-89155654D01*
X131544464Y-89151392D01*
X132056548Y-88304301D01*
X132059156Y-88300176D01*
X132604941Y-87474382D01*
X132607733Y-87470337D01*
X133186323Y-86667192D01*
X133189258Y-86663287D01*
X133799703Y-85884112D01*
X133802836Y-85880275D01*
X134444128Y-85126350D01*
X134447431Y-85122622D01*
X135118590Y-84395097D01*
X135122002Y-84391546D01*
X135821884Y-83691664D01*
X135825435Y-83688252D01*
X136552970Y-83017083D01*
X136556698Y-83013782D01*
X137310613Y-82372498D01*
X137314450Y-82369365D01*
X138093625Y-81758920D01*
X138097530Y-81755985D01*
X138900675Y-81177395D01*
X138904720Y-81174603D01*
X139730514Y-80628818D01*
X139734639Y-80626210D01*
X140581730Y-80114126D01*
X140585992Y-80111666D01*
X141452996Y-79634116D01*
X141457355Y-79631828D01*
X141930884Y-79395338D01*
X141999653Y-79382997D01*
X142064179Y-79409794D01*
G37*
G04 #@! TD.AperFunction*
G04 #@! TA.AperFunction,Conductor*
G36*
X153183953Y-102707645D02*
G01*
X153190431Y-102713677D01*
X153822849Y-103346096D01*
X153822856Y-103346102D01*
X153912891Y-103415188D01*
X154008610Y-103454836D01*
X154063014Y-103498677D01*
X154085079Y-103564971D01*
X154085158Y-103569397D01*
X154085158Y-106310568D01*
X154065473Y-106377607D01*
X154053308Y-106393540D01*
X154049890Y-106397335D01*
X153960500Y-106552164D01*
X153960497Y-106552170D01*
X153905254Y-106722192D01*
X153905253Y-106722194D01*
X153886565Y-106900000D01*
X153905253Y-107077805D01*
X153905254Y-107077807D01*
X153960497Y-107247829D01*
X153960500Y-107247835D01*
X154049891Y-107402665D01*
X154091562Y-107448946D01*
X154169514Y-107535521D01*
X154169517Y-107535523D01*
X154169520Y-107535526D01*
X154314157Y-107640612D01*
X154477483Y-107713329D01*
X154652359Y-107750500D01*
X154667250Y-107750500D01*
X154734289Y-107770185D01*
X154780044Y-107822989D01*
X154791250Y-107874500D01*
X154791250Y-108775500D01*
X154771565Y-108842539D01*
X154718761Y-108888294D01*
X154667250Y-108899500D01*
X153872129Y-108899500D01*
X153872123Y-108899501D01*
X153812516Y-108905908D01*
X153763332Y-108924253D01*
X153693640Y-108929237D01*
X153676667Y-108924253D01*
X153627482Y-108905908D01*
X153627483Y-108905908D01*
X153567883Y-108899501D01*
X153567881Y-108899500D01*
X153567873Y-108899500D01*
X153567864Y-108899500D01*
X152772129Y-108899500D01*
X152772123Y-108899501D01*
X152712516Y-108905908D01*
X152663332Y-108924253D01*
X152593640Y-108929237D01*
X152576667Y-108924253D01*
X152527482Y-108905908D01*
X152527483Y-108905908D01*
X152467883Y-108899501D01*
X152467881Y-108899500D01*
X152467873Y-108899500D01*
X152467865Y-108899500D01*
X151672750Y-108899500D01*
X151605711Y-108879815D01*
X151559956Y-108827011D01*
X151548750Y-108775500D01*
X151548750Y-107903150D01*
X151568435Y-107836111D01*
X151585069Y-107815469D01*
X152511240Y-106889298D01*
X153463116Y-105937422D01*
X153539309Y-105805451D01*
X153556935Y-105739669D01*
X153578750Y-105658256D01*
X153578750Y-103623806D01*
X153539309Y-103476611D01*
X153463115Y-103344639D01*
X153355361Y-103236885D01*
X153015069Y-102896593D01*
X152981584Y-102835270D01*
X152978750Y-102808912D01*
X152978750Y-102801358D01*
X152998435Y-102734319D01*
X153051239Y-102688564D01*
X153120397Y-102678620D01*
X153183953Y-102707645D01*
G37*
G04 #@! TD.AperFunction*
G04 #@! TA.AperFunction,Conductor*
G36*
X140685890Y-102235098D02*
G01*
X140741824Y-102276969D01*
X140766241Y-102342434D01*
X140759599Y-102392233D01*
X140714630Y-102520749D01*
X140700931Y-102642332D01*
X140673864Y-102706746D01*
X140665393Y-102716128D01*
X140594639Y-102786884D01*
X140594639Y-102786885D01*
X140486885Y-102894639D01*
X140410692Y-103026608D01*
X140410691Y-103026609D01*
X140396585Y-103079255D01*
X140371250Y-103173806D01*
X140371250Y-103173808D01*
X140371250Y-107077783D01*
X140351565Y-107144822D01*
X140298761Y-107190577D01*
X140260502Y-107201073D01*
X140213248Y-107206152D01*
X140186742Y-107206152D01*
X140184483Y-107205909D01*
X140124873Y-107199500D01*
X140124865Y-107199500D01*
X139775130Y-107199500D01*
X139775120Y-107199501D01*
X139713248Y-107206152D01*
X139686742Y-107206152D01*
X139684483Y-107205909D01*
X139624873Y-107199500D01*
X139624865Y-107199500D01*
X139275130Y-107199500D01*
X139275123Y-107199501D01*
X139244567Y-107202786D01*
X139175808Y-107190379D01*
X139124671Y-107142768D01*
X139107393Y-107075068D01*
X139125776Y-107014398D01*
X139136998Y-106996205D01*
X139137003Y-106996197D01*
X139190349Y-106835208D01*
X139200500Y-106735845D01*
X139200499Y-106446932D01*
X139220183Y-106379894D01*
X139221397Y-106378043D01*
X139238684Y-106352170D01*
X139276464Y-106295628D01*
X139302727Y-106232224D01*
X139325500Y-106177245D01*
X139335446Y-106127245D01*
X139350499Y-106051572D01*
X139350499Y-105901641D01*
X139370184Y-105834602D01*
X139422988Y-105788847D01*
X139431148Y-105785466D01*
X139442330Y-105781296D01*
X139557545Y-105695046D01*
X139643795Y-105579831D01*
X139694090Y-105444983D01*
X139700499Y-105385373D01*
X139700498Y-103489628D01*
X139694090Y-103430017D01*
X139693109Y-103427388D01*
X139643796Y-103295171D01*
X139643792Y-103295164D01*
X139557546Y-103179955D01*
X139557543Y-103179952D01*
X139442334Y-103093706D01*
X139442327Y-103093702D01*
X139307481Y-103043408D01*
X139307482Y-103043408D01*
X139247882Y-103037001D01*
X139247880Y-103037000D01*
X139247872Y-103037000D01*
X139247863Y-103037000D01*
X138152128Y-103037000D01*
X138152122Y-103037001D01*
X138092515Y-103043408D01*
X137957670Y-103093702D01*
X137957663Y-103093706D01*
X137842454Y-103179952D01*
X137842451Y-103179955D01*
X137756205Y-103295164D01*
X137756201Y-103295171D01*
X137705907Y-103430017D01*
X137700811Y-103477424D01*
X137699500Y-103489623D01*
X137699499Y-103489635D01*
X137699499Y-105385370D01*
X137699500Y-105385376D01*
X137706314Y-105448761D01*
X137693907Y-105517520D01*
X137648121Y-105567552D01*
X137571959Y-105614529D01*
X137571955Y-105614532D01*
X137562681Y-105623807D01*
X137501358Y-105657292D01*
X137431666Y-105652308D01*
X137387319Y-105623807D01*
X137378043Y-105614531D01*
X137254986Y-105538628D01*
X137208262Y-105486680D01*
X137196795Y-105419836D01*
X137200501Y-105385373D01*
X137200500Y-103489628D01*
X137194092Y-103430017D01*
X137193111Y-103427388D01*
X137143798Y-103295171D01*
X137143794Y-103295164D01*
X137057548Y-103179955D01*
X137057545Y-103179952D01*
X136942336Y-103093706D01*
X136942329Y-103093702D01*
X136807483Y-103043408D01*
X136807484Y-103043408D01*
X136747884Y-103037001D01*
X136747882Y-103037000D01*
X136747874Y-103037000D01*
X136747865Y-103037000D01*
X135652130Y-103037000D01*
X135652124Y-103037001D01*
X135592517Y-103043408D01*
X135457672Y-103093702D01*
X135457669Y-103093704D01*
X135356048Y-103169778D01*
X135290584Y-103194195D01*
X135222311Y-103179343D01*
X135172905Y-103129938D01*
X135158053Y-103061665D01*
X135160120Y-103046319D01*
X135175501Y-102968995D01*
X135175501Y-102831010D01*
X135174940Y-102825315D01*
X135187958Y-102756668D01*
X135236023Y-102705957D01*
X135303873Y-102689282D01*
X135330424Y-102693382D01*
X135474559Y-102732003D01*
X135474562Y-102732003D01*
X139922938Y-102732003D01*
X139922941Y-102732003D01*
X140070136Y-102692562D01*
X140202108Y-102616368D01*
X140554878Y-102263597D01*
X140616199Y-102230114D01*
X140685890Y-102235098D01*
G37*
G04 #@! TD.AperFunction*
G04 #@! TA.AperFunction,Conductor*
G36*
X148598949Y-101736202D02*
G01*
X148639919Y-101769780D01*
X148640104Y-101769618D01*
X148640115Y-101769608D01*
X148640316Y-101769433D01*
X148642412Y-101771823D01*
X148642603Y-101771980D01*
X148642980Y-101772471D01*
X148642992Y-101772485D01*
X148802388Y-101931881D01*
X148802393Y-101931885D01*
X148802396Y-101931888D01*
X148843151Y-101963160D01*
X148898880Y-102005922D01*
X148897042Y-102008316D01*
X148920119Y-102031377D01*
X148922505Y-102029547D01*
X148953687Y-102070184D01*
X148992294Y-102120499D01*
X148996541Y-102126033D01*
X148996545Y-102126038D01*
X149037598Y-102167091D01*
X149071083Y-102228414D01*
X149066099Y-102298106D01*
X149037598Y-102342453D01*
X148146718Y-103233333D01*
X148075526Y-103339881D01*
X148026490Y-103458264D01*
X148026488Y-103458269D01*
X148021518Y-103483261D01*
X148021518Y-103483262D01*
X148001492Y-103583936D01*
X148001492Y-104106919D01*
X147981807Y-104173958D01*
X147965174Y-104194600D01*
X147768925Y-104390851D01*
X147768923Y-104390853D01*
X147705845Y-104468284D01*
X147705841Y-104468289D01*
X147670060Y-104539536D01*
X147622382Y-104590610D01*
X147554660Y-104607799D01*
X147488395Y-104585646D01*
X147444626Y-104531185D01*
X147435250Y-104483884D01*
X147435250Y-102574500D01*
X147454935Y-102507461D01*
X147507739Y-102461706D01*
X147559250Y-102450500D01*
X147689389Y-102450500D01*
X147689391Y-102450500D01*
X147864267Y-102413329D01*
X148027593Y-102340612D01*
X148172230Y-102235526D01*
X148172616Y-102235098D01*
X148203768Y-102200500D01*
X148291859Y-102102665D01*
X148381250Y-101947835D01*
X148386433Y-101931885D01*
X148393460Y-101910256D01*
X148426307Y-101809161D01*
X148465744Y-101751487D01*
X148530102Y-101724288D01*
X148598949Y-101736202D01*
G37*
G04 #@! TD.AperFunction*
G04 #@! TA.AperFunction,Conductor*
G36*
X141540584Y-101380406D02*
G01*
X141596517Y-101422278D01*
X141620934Y-101487742D01*
X141621250Y-101496588D01*
X141621250Y-101770435D01*
X141601565Y-101837474D01*
X141548761Y-101883229D01*
X141506773Y-101892363D01*
X141506919Y-101893655D01*
X141320750Y-101914630D01*
X141320742Y-101914632D01*
X141192234Y-101959599D01*
X141122455Y-101963160D01*
X141061828Y-101928431D01*
X141029601Y-101866438D01*
X141036007Y-101796862D01*
X141063597Y-101754878D01*
X141409569Y-101408907D01*
X141470892Y-101375422D01*
X141540584Y-101380406D01*
G37*
G04 #@! TD.AperFunction*
G04 #@! TA.AperFunction,Conductor*
G36*
X140243335Y-98463851D02*
G01*
X140287682Y-98492352D01*
X140319610Y-98524280D01*
X140319614Y-98524283D01*
X140406492Y-98577871D01*
X140453217Y-98629819D01*
X140464438Y-98698782D01*
X140436595Y-98762864D01*
X140429076Y-98771090D01*
X139410486Y-99789680D01*
X139349163Y-99823165D01*
X139279471Y-99818181D01*
X139272367Y-99815277D01*
X139264270Y-99811672D01*
X139264266Y-99811670D01*
X139126561Y-99782400D01*
X139089391Y-99774500D01*
X138910609Y-99774500D01*
X138879954Y-99781015D01*
X138735733Y-99811670D01*
X138735728Y-99811672D01*
X138572408Y-99884387D01*
X138427768Y-99989475D01*
X138308140Y-100122336D01*
X138218750Y-100277164D01*
X138218747Y-100277170D01*
X138163504Y-100447192D01*
X138163503Y-100447194D01*
X138144815Y-100625000D01*
X138163503Y-100802805D01*
X138163504Y-100802807D01*
X138218750Y-100972836D01*
X138241939Y-101013001D01*
X138258412Y-101080902D01*
X138241941Y-101136999D01*
X138218749Y-101177170D01*
X138163504Y-101347195D01*
X138163503Y-101347198D01*
X138151283Y-101463465D01*
X138124698Y-101528080D01*
X138067400Y-101568064D01*
X138027962Y-101574503D01*
X135841841Y-101574503D01*
X135774802Y-101554818D01*
X135754160Y-101538184D01*
X135591818Y-101375842D01*
X135558333Y-101314519D01*
X135555499Y-101288161D01*
X135555499Y-101086611D01*
X135549453Y-101020073D01*
X135549452Y-101020070D01*
X135549452Y-101020067D01*
X135501733Y-100866931D01*
X135501732Y-100866929D01*
X135424185Y-100738649D01*
X135406349Y-100671095D01*
X135427867Y-100604621D01*
X135481908Y-100560333D01*
X135530302Y-100550500D01*
X137276571Y-100550500D01*
X137363213Y-100533265D01*
X137402244Y-100525501D01*
X137520627Y-100476465D01*
X137627169Y-100405277D01*
X139320627Y-98711819D01*
X139381950Y-98678334D01*
X139408308Y-98675500D01*
X139679169Y-98675500D01*
X139679174Y-98675500D01*
X139777685Y-98665436D01*
X139937287Y-98612549D01*
X140080391Y-98524281D01*
X140112320Y-98492352D01*
X140173643Y-98458867D01*
X140243335Y-98463851D01*
G37*
G04 #@! TD.AperFunction*
G04 #@! TA.AperFunction,Conductor*
G36*
X156501441Y-93580207D02*
G01*
X156533592Y-93598012D01*
X156570987Y-93626705D01*
X156569117Y-93629141D01*
X156592183Y-93652197D01*
X156594614Y-93650332D01*
X156599562Y-93656780D01*
X156631300Y-93698143D01*
X156668650Y-93746818D01*
X156668654Y-93746823D01*
X156828050Y-93906219D01*
X156828055Y-93906223D01*
X156828058Y-93906226D01*
X156892260Y-93955489D01*
X156924542Y-93980260D01*
X156922704Y-93982654D01*
X156945781Y-94005715D01*
X156948167Y-94003885D01*
X157022203Y-94100371D01*
X157022207Y-94100376D01*
X157181603Y-94259772D01*
X157181608Y-94259776D01*
X157181611Y-94259779D01*
X157271647Y-94328865D01*
X157271648Y-94328865D01*
X157278096Y-94333813D01*
X157276225Y-94336250D01*
X157299290Y-94359304D01*
X157301721Y-94357439D01*
X157319386Y-94380461D01*
X157354658Y-94426429D01*
X157375757Y-94453925D01*
X157375761Y-94453930D01*
X157535157Y-94613326D01*
X157535162Y-94613330D01*
X157535165Y-94613333D01*
X157558732Y-94631416D01*
X157631649Y-94687367D01*
X157629811Y-94689761D01*
X157652888Y-94712822D01*
X157655274Y-94710992D01*
X157660222Y-94717440D01*
X157708874Y-94780846D01*
X157729310Y-94807478D01*
X157729314Y-94807483D01*
X157888710Y-94966879D01*
X157888715Y-94966883D01*
X157888718Y-94966886D01*
X157952920Y-95016149D01*
X157985202Y-95040920D01*
X157983364Y-95043314D01*
X158006441Y-95066375D01*
X158008827Y-95064545D01*
X158082863Y-95161031D01*
X158082867Y-95161036D01*
X158242263Y-95320432D01*
X158242268Y-95320436D01*
X158242271Y-95320439D01*
X158293254Y-95359559D01*
X158332305Y-95389524D01*
X158332306Y-95389524D01*
X158332307Y-95389525D01*
X158472304Y-95447514D01*
X158547421Y-95457403D01*
X158622538Y-95467292D01*
X158622539Y-95467292D01*
X158622540Y-95467292D01*
X158672617Y-95460699D01*
X158772775Y-95447514D01*
X158912772Y-95389525D01*
X159002807Y-95320439D01*
X159456779Y-94866465D01*
X159518099Y-94832983D01*
X159587790Y-94837967D01*
X159643724Y-94879838D01*
X159661498Y-94913194D01*
X159674209Y-94949519D01*
X159750536Y-95070993D01*
X159770184Y-95102262D01*
X159897738Y-95229816D01*
X159926027Y-95247591D01*
X160044659Y-95322133D01*
X160050478Y-95325789D01*
X160162337Y-95364930D01*
X160220745Y-95385368D01*
X160220750Y-95385369D01*
X160399996Y-95405565D01*
X160400000Y-95405565D01*
X160400004Y-95405565D01*
X160579249Y-95385369D01*
X160579252Y-95385368D01*
X160579255Y-95385368D01*
X160749522Y-95325789D01*
X160902262Y-95229816D01*
X161029816Y-95102262D01*
X161125789Y-94949522D01*
X161125792Y-94949510D01*
X161128810Y-94943248D01*
X161130650Y-94944134D01*
X161153305Y-94908061D01*
X161375962Y-94685404D01*
X161407984Y-94662279D01*
X161535697Y-94598141D01*
X161613135Y-94535059D01*
X162035057Y-94113135D01*
X162098141Y-94035697D01*
X162098144Y-94035689D01*
X162100890Y-94031449D01*
X162153842Y-93985865D01*
X162223033Y-93976146D01*
X162286494Y-94005377D01*
X162292669Y-94011145D01*
X163427894Y-95146370D01*
X163461379Y-95207693D01*
X163464213Y-95234051D01*
X163464213Y-95331185D01*
X163502598Y-95486923D01*
X163577141Y-95628952D01*
X163605653Y-95663163D01*
X163619923Y-95680285D01*
X163619929Y-95680291D01*
X163619939Y-95680302D01*
X163974708Y-96035069D01*
X163974730Y-96035090D01*
X164014650Y-96068360D01*
X164026058Y-96077868D01*
X164168084Y-96152409D01*
X164168086Y-96152409D01*
X164168087Y-96152410D01*
X164239312Y-96169965D01*
X164299693Y-96205121D01*
X164330034Y-96260686D01*
X164347591Y-96331916D01*
X164422133Y-96473944D01*
X164443138Y-96499147D01*
X164464915Y-96525277D01*
X164464921Y-96525283D01*
X164464931Y-96525294D01*
X164819700Y-96880061D01*
X164819722Y-96880082D01*
X164852869Y-96907707D01*
X164871050Y-96922860D01*
X165013076Y-96997401D01*
X165013078Y-96997401D01*
X165013079Y-96997402D01*
X165074279Y-97012486D01*
X165150550Y-97031285D01*
X165210931Y-97066441D01*
X165242719Y-97128661D01*
X165244875Y-97151682D01*
X165244875Y-97157551D01*
X165278000Y-97297315D01*
X165283651Y-97321159D01*
X165359105Y-97471402D01*
X165359109Y-97471409D01*
X165420837Y-97547186D01*
X165447916Y-97611593D01*
X165435874Y-97680417D01*
X165388535Y-97731806D01*
X165324698Y-97749500D01*
X162435929Y-97749500D01*
X162310261Y-97774497D01*
X162310255Y-97774499D01*
X162191873Y-97823534D01*
X162144042Y-97855493D01*
X162077365Y-97876369D01*
X162009985Y-97857883D01*
X161964344Y-97808040D01*
X161894159Y-97668291D01*
X161894157Y-97668287D01*
X161831075Y-97590849D01*
X161734827Y-97494601D01*
X161701342Y-97433278D01*
X161698508Y-97406920D01*
X161698508Y-97274087D01*
X161669667Y-97129100D01*
X161669666Y-97129099D01*
X161669666Y-97129095D01*
X161614444Y-96995776D01*
X161613093Y-96992515D01*
X161613092Y-96992513D01*
X161570101Y-96928172D01*
X161570100Y-96928170D01*
X161570099Y-96928168D01*
X161530961Y-96869593D01*
X161530955Y-96869586D01*
X161253307Y-96591939D01*
X161230653Y-96555869D01*
X161228813Y-96556756D01*
X161225792Y-96550484D01*
X161225789Y-96550480D01*
X161225789Y-96550478D01*
X161129816Y-96397738D01*
X161002262Y-96270184D01*
X160952574Y-96238963D01*
X160849523Y-96174211D01*
X160679254Y-96114631D01*
X160679249Y-96114630D01*
X160500004Y-96094435D01*
X160499996Y-96094435D01*
X160320750Y-96114630D01*
X160320745Y-96114631D01*
X160150476Y-96174211D01*
X159997737Y-96270184D01*
X159870184Y-96397737D01*
X159774210Y-96550478D01*
X159761498Y-96586806D01*
X159720775Y-96643581D01*
X159655822Y-96669327D01*
X159587260Y-96655870D01*
X159556776Y-96633530D01*
X159002812Y-96079565D01*
X159002805Y-96079559D01*
X158912771Y-96010474D01*
X158772775Y-95952486D01*
X158772773Y-95952485D01*
X158622540Y-95932708D01*
X158622538Y-95932708D01*
X158472305Y-95952485D01*
X158472303Y-95952486D01*
X158332305Y-96010475D01*
X158242268Y-96079563D01*
X158242263Y-96079567D01*
X158082867Y-96238963D01*
X158082863Y-96238968D01*
X158013775Y-96329005D01*
X157955786Y-96469003D01*
X157955786Y-96469004D01*
X157946033Y-96543086D01*
X157917766Y-96606982D01*
X157859442Y-96645453D01*
X157839280Y-96649839D01*
X157765198Y-96659592D01*
X157765197Y-96659592D01*
X157625199Y-96717581D01*
X157535163Y-96786668D01*
X157414124Y-96907707D01*
X157352801Y-96941191D01*
X157283109Y-96936207D01*
X157235623Y-96901778D01*
X157234740Y-96902662D01*
X157102262Y-96770184D01*
X156949523Y-96674211D01*
X156779254Y-96614631D01*
X156779249Y-96614630D01*
X156600004Y-96594435D01*
X156599996Y-96594435D01*
X156420750Y-96614630D01*
X156420745Y-96614631D01*
X156250476Y-96674211D01*
X156097737Y-96770184D01*
X155970184Y-96897737D01*
X155874211Y-97050476D01*
X155814631Y-97220745D01*
X155814630Y-97220749D01*
X155794120Y-97402789D01*
X155767053Y-97467203D01*
X155709459Y-97506758D01*
X155657017Y-97512125D01*
X155500004Y-97494435D01*
X155499996Y-97494435D01*
X155320750Y-97514630D01*
X155320745Y-97514631D01*
X155150476Y-97574211D01*
X154997737Y-97670184D01*
X154997736Y-97670185D01*
X154898142Y-97769778D01*
X154836819Y-97803262D01*
X154796579Y-97805316D01*
X154700003Y-97794435D01*
X154699996Y-97794435D01*
X154520750Y-97814630D01*
X154520745Y-97814631D01*
X154350476Y-97874211D01*
X154197737Y-97970184D01*
X154070184Y-98097737D01*
X153974211Y-98250476D01*
X153914631Y-98420745D01*
X153914630Y-98420750D01*
X153894435Y-98599996D01*
X153894435Y-98600003D01*
X153914630Y-98779249D01*
X153914631Y-98779254D01*
X153974211Y-98949523D01*
X154070184Y-99102262D01*
X154197739Y-99229817D01*
X154297111Y-99292257D01*
X154343401Y-99344591D01*
X154354049Y-99413645D01*
X154325674Y-99477493D01*
X154267284Y-99515865D01*
X154231138Y-99521250D01*
X153076193Y-99521250D01*
X152923806Y-99521250D01*
X152835489Y-99544914D01*
X152776609Y-99560691D01*
X152776608Y-99560692D01*
X152644637Y-99636886D01*
X152525681Y-99755843D01*
X152464358Y-99789328D01*
X152394666Y-99784344D01*
X152338733Y-99742472D01*
X152314316Y-99677008D01*
X152314000Y-99668162D01*
X152314000Y-96323519D01*
X152314000Y-96323517D01*
X152274559Y-96176322D01*
X152198365Y-96044350D01*
X152090611Y-95936596D01*
X151092600Y-94938585D01*
X151059115Y-94877262D01*
X151056281Y-94850904D01*
X151056281Y-94661213D01*
X151075966Y-94594174D01*
X151128770Y-94548419D01*
X151197928Y-94538475D01*
X151221236Y-94544172D01*
X151320956Y-94579066D01*
X151320962Y-94579067D01*
X151320964Y-94579068D01*
X151320965Y-94579068D01*
X151320969Y-94579069D01*
X151500215Y-94599265D01*
X151500219Y-94599265D01*
X151500223Y-94599265D01*
X151675378Y-94579530D01*
X151689261Y-94578750D01*
X155236851Y-94578750D01*
X155236854Y-94578750D01*
X155384049Y-94539309D01*
X155516021Y-94463115D01*
X156370429Y-93608706D01*
X156431750Y-93575223D01*
X156501441Y-93580207D01*
G37*
G04 #@! TD.AperFunction*
G04 #@! TA.AperFunction,Conductor*
G36*
X159584360Y-98501008D02*
G01*
X159640616Y-98557264D01*
X159640623Y-98557270D01*
X159723356Y-98612550D01*
X159723357Y-98612550D01*
X159747164Y-98628457D01*
X159865547Y-98677493D01*
X159865551Y-98677493D01*
X159865552Y-98677494D01*
X159991219Y-98702492D01*
X159991222Y-98702492D01*
X160202937Y-98702492D01*
X160269976Y-98722177D01*
X160290618Y-98738811D01*
X160399374Y-98847566D01*
X160486865Y-98935057D01*
X160564303Y-98998141D01*
X160688845Y-99060688D01*
X160739918Y-99108365D01*
X160757108Y-99176087D01*
X160734956Y-99242352D01*
X160720877Y-99259175D01*
X160603579Y-99376474D01*
X160542259Y-99409958D01*
X160515900Y-99412792D01*
X158794947Y-99412792D01*
X158727908Y-99393107D01*
X158682153Y-99340303D01*
X158672209Y-99271145D01*
X158696570Y-99213308D01*
X158705921Y-99201121D01*
X158708384Y-99203010D01*
X158731436Y-99179958D01*
X158729546Y-99177495D01*
X158735993Y-99172547D01*
X158735995Y-99172547D01*
X158826031Y-99103461D01*
X158985441Y-98944051D01*
X159054527Y-98854015D01*
X159054527Y-98854013D01*
X159059475Y-98847566D01*
X159061897Y-98849424D01*
X159084958Y-98826363D01*
X159083100Y-98823941D01*
X159089547Y-98818993D01*
X159089549Y-98818993D01*
X159179585Y-98749907D01*
X159338995Y-98590497D01*
X159398304Y-98513202D01*
X159454730Y-98472000D01*
X159524476Y-98467845D01*
X159584360Y-98501008D01*
G37*
G04 #@! TD.AperFunction*
G04 #@! TA.AperFunction,Conductor*
G36*
X144591701Y-96377185D02*
G01*
X144637456Y-96429989D01*
X144647400Y-96499147D01*
X144618375Y-96562703D01*
X144612343Y-96569181D01*
X143887461Y-97294061D01*
X143826138Y-97327546D01*
X143756446Y-97322562D01*
X143700513Y-97280690D01*
X143694786Y-97272351D01*
X143686817Y-97259669D01*
X143686816Y-97259667D01*
X143686813Y-97259664D01*
X143682475Y-97254224D01*
X143683451Y-97253445D01*
X143653404Y-97198417D01*
X143658388Y-97128725D01*
X143686889Y-97084378D01*
X144014138Y-96757130D01*
X144377449Y-96393819D01*
X144438772Y-96360334D01*
X144465130Y-96357500D01*
X144524662Y-96357500D01*
X144591701Y-96377185D01*
G37*
G04 #@! TD.AperFunction*
G04 #@! TA.AperFunction,Conductor*
G36*
X153824419Y-90910735D02*
G01*
X153854907Y-90933076D01*
X153999623Y-91077792D01*
X153999628Y-91077796D01*
X153999631Y-91077799D01*
X154050614Y-91116919D01*
X154089665Y-91146884D01*
X154089666Y-91146884D01*
X154089667Y-91146885D01*
X154229664Y-91204874D01*
X154303746Y-91214626D01*
X154367642Y-91242892D01*
X154406114Y-91301216D01*
X154410500Y-91321380D01*
X154420252Y-91395461D01*
X154420253Y-91395463D01*
X154478242Y-91535461D01*
X154508131Y-91574413D01*
X154543954Y-91621099D01*
X154547330Y-91625498D01*
X154547334Y-91625503D01*
X154706730Y-91784899D01*
X154706735Y-91784903D01*
X154706738Y-91784906D01*
X154737014Y-91808137D01*
X154803222Y-91858940D01*
X154801384Y-91861334D01*
X154824461Y-91884395D01*
X154826847Y-91882565D01*
X154900883Y-91979051D01*
X154900887Y-91979056D01*
X155060283Y-92138452D01*
X155060288Y-92138456D01*
X155060291Y-92138459D01*
X155112227Y-92178310D01*
X155156775Y-92212493D01*
X155154937Y-92214887D01*
X155178014Y-92237948D01*
X155180400Y-92236118D01*
X155254436Y-92332604D01*
X155254440Y-92332609D01*
X155413836Y-92492005D01*
X155413841Y-92492009D01*
X155413844Y-92492012D01*
X155503880Y-92561098D01*
X155503881Y-92561098D01*
X155510329Y-92566046D01*
X155508458Y-92568483D01*
X155531524Y-92591538D01*
X155533955Y-92589673D01*
X155562647Y-92627066D01*
X155587840Y-92692235D01*
X155573801Y-92760680D01*
X155551951Y-92790232D01*
X154957253Y-93384931D01*
X154895930Y-93418416D01*
X154869572Y-93421250D01*
X152280134Y-93421250D01*
X152213095Y-93401565D01*
X152175141Y-93363224D01*
X152172133Y-93358437D01*
X152153132Y-93291201D01*
X152160085Y-93251508D01*
X152161725Y-93246821D01*
X152185368Y-93179255D01*
X152185368Y-93179253D01*
X152185369Y-93179251D01*
X152205565Y-93000003D01*
X152205565Y-92999996D01*
X152185369Y-92820750D01*
X152185368Y-92820745D01*
X152125788Y-92650476D01*
X152115186Y-92633603D01*
X152096186Y-92566366D01*
X152115186Y-92501660D01*
X152185409Y-92389902D01*
X152244988Y-92219635D01*
X152245793Y-92212493D01*
X152265185Y-92040383D01*
X152265185Y-92040376D01*
X152244989Y-91861130D01*
X152244988Y-91861125D01*
X152233670Y-91828779D01*
X152185409Y-91690858D01*
X152105203Y-91563212D01*
X152086204Y-91495977D01*
X152106572Y-91429141D01*
X152122511Y-91409566D01*
X152129816Y-91402262D01*
X152178431Y-91324890D01*
X152230764Y-91278601D01*
X152299818Y-91267952D01*
X152363666Y-91296327D01*
X152371105Y-91303183D01*
X152397738Y-91329816D01*
X152475616Y-91378750D01*
X152501937Y-91395289D01*
X152550478Y-91425789D01*
X152623210Y-91451239D01*
X152720745Y-91485368D01*
X152720750Y-91485369D01*
X152899996Y-91505565D01*
X152900000Y-91505565D01*
X152900004Y-91505565D01*
X153079249Y-91485369D01*
X153079252Y-91485368D01*
X153079255Y-91485368D01*
X153249522Y-91425789D01*
X153402262Y-91329816D01*
X153529816Y-91202262D01*
X153625789Y-91049522D01*
X153628514Y-91041736D01*
X153644938Y-90994798D01*
X153650184Y-90979802D01*
X153690905Y-90923027D01*
X153755857Y-90897279D01*
X153824419Y-90910735D01*
G37*
G04 #@! TD.AperFunction*
G04 #@! TA.AperFunction,Conductor*
G36*
X144319611Y-88533026D02*
G01*
X144331528Y-88548166D01*
X144338189Y-88558135D01*
X144338194Y-88558141D01*
X144778277Y-88998223D01*
X144811762Y-89059546D01*
X144813815Y-89072012D01*
X144814630Y-89079246D01*
X144814632Y-89079255D01*
X144874210Y-89249521D01*
X144883903Y-89264947D01*
X144970184Y-89402262D01*
X145097738Y-89529816D01*
X145168295Y-89574150D01*
X145242450Y-89620745D01*
X145250478Y-89625789D01*
X145377603Y-89670272D01*
X145420745Y-89685368D01*
X145420750Y-89685369D01*
X145599996Y-89705565D01*
X145600000Y-89705565D01*
X145600004Y-89705565D01*
X145779249Y-89685369D01*
X145779252Y-89685368D01*
X145779255Y-89685368D01*
X145949522Y-89625789D01*
X146102262Y-89529816D01*
X146148715Y-89483363D01*
X146210038Y-89449878D01*
X146279730Y-89454862D01*
X146324077Y-89483363D01*
X147477672Y-90636958D01*
X147511157Y-90698281D01*
X147506173Y-90767973D01*
X147465478Y-90823014D01*
X147388181Y-90882326D01*
X147388174Y-90882332D01*
X147228778Y-91041728D01*
X147228774Y-91041733D01*
X147154739Y-91138219D01*
X147152334Y-91136373D01*
X147129266Y-91159441D01*
X147131112Y-91161846D01*
X147034627Y-91235880D01*
X146953255Y-91317252D01*
X146891931Y-91350736D01*
X146822240Y-91345752D01*
X146770319Y-91308959D01*
X146759791Y-91296327D01*
X146735085Y-91266682D01*
X146433318Y-90964917D01*
X146433316Y-90964915D01*
X146433310Y-90964909D01*
X146381984Y-90922133D01*
X146381983Y-90922132D01*
X146239953Y-90847589D01*
X146084219Y-90809205D01*
X145923822Y-90809205D01*
X145768084Y-90847590D01*
X145626055Y-90922133D01*
X145574726Y-90964912D01*
X145574705Y-90964931D01*
X145219938Y-91319700D01*
X145219917Y-91319722D01*
X145177141Y-91371048D01*
X145177140Y-91371049D01*
X145102597Y-91513079D01*
X145064213Y-91668814D01*
X145064213Y-91741098D01*
X145044528Y-91808137D01*
X144991724Y-91853892D01*
X144922566Y-91863836D01*
X144859010Y-91834811D01*
X144852532Y-91828779D01*
X144670471Y-91646718D01*
X144670467Y-91646715D01*
X144563925Y-91575527D01*
X144561245Y-91574417D01*
X144445542Y-91526491D01*
X144445540Y-91526490D01*
X144441828Y-91525752D01*
X144440565Y-91525501D01*
X144319869Y-91501492D01*
X144319867Y-91501492D01*
X143980988Y-91501492D01*
X143913949Y-91481807D01*
X143868194Y-91429003D01*
X143858250Y-91359845D01*
X143875994Y-91311520D01*
X143919116Y-91242892D01*
X143968017Y-91165066D01*
X144027596Y-90994799D01*
X144029152Y-90980989D01*
X144047793Y-90815547D01*
X144047793Y-90815540D01*
X144027597Y-90636294D01*
X144027596Y-90636289D01*
X143968016Y-90466020D01*
X143872043Y-90313281D01*
X143744490Y-90185728D01*
X143638551Y-90119162D01*
X143592260Y-90066827D01*
X143581612Y-89997773D01*
X143584387Y-89986166D01*
X143583820Y-89986037D01*
X143585369Y-89979251D01*
X143605565Y-89800003D01*
X143605565Y-89799996D01*
X143585369Y-89620750D01*
X143585366Y-89620737D01*
X143541370Y-89495005D01*
X143537808Y-89425226D01*
X143572536Y-89364599D01*
X143617457Y-89337008D01*
X143649522Y-89325789D01*
X143802262Y-89229816D01*
X143929816Y-89102262D01*
X144025789Y-88949522D01*
X144085368Y-88779255D01*
X144086854Y-88766073D01*
X144101885Y-88632664D01*
X144105207Y-88603174D01*
X144132273Y-88538761D01*
X144189868Y-88499206D01*
X144259705Y-88497068D01*
X144319611Y-88533026D01*
G37*
G04 #@! TD.AperFunction*
G04 #@! TA.AperFunction,Conductor*
G36*
X152681821Y-87540636D02*
G01*
X152737755Y-87582508D01*
X152745875Y-87594818D01*
X152808140Y-87702663D01*
X152808139Y-87702663D01*
X152927764Y-87835521D01*
X152927767Y-87835523D01*
X152927770Y-87835526D01*
X153072407Y-87940612D01*
X153235733Y-88013329D01*
X153251279Y-88016633D01*
X153312760Y-88049822D01*
X153346538Y-88110984D01*
X153349500Y-88137923D01*
X153349500Y-88475891D01*
X153329815Y-88542930D01*
X153313181Y-88563572D01*
X152779565Y-89097187D01*
X152779559Y-89097194D01*
X152710474Y-89187228D01*
X152652486Y-89327224D01*
X152652485Y-89327226D01*
X152632708Y-89477459D01*
X152632708Y-89477462D01*
X152652485Y-89627694D01*
X152652486Y-89627696D01*
X152709724Y-89765880D01*
X152717193Y-89835350D01*
X152685918Y-89897829D01*
X152682844Y-89901014D01*
X152661510Y-89922348D01*
X152614786Y-89951708D01*
X152550474Y-89974212D01*
X152397737Y-90070184D01*
X152270184Y-90197737D01*
X152270182Y-90197740D01*
X152221568Y-90275108D01*
X152169233Y-90321399D01*
X152100180Y-90332046D01*
X152036331Y-90303671D01*
X152028894Y-90296816D01*
X152002262Y-90270184D01*
X151988949Y-90261819D01*
X151891784Y-90200766D01*
X151845494Y-90148432D01*
X151834846Y-90079379D01*
X151863221Y-90015530D01*
X151870064Y-90008103D01*
X152020439Y-89857729D01*
X152089525Y-89767693D01*
X152147514Y-89627696D01*
X152167292Y-89477461D01*
X152160415Y-89425226D01*
X152147514Y-89327226D01*
X152147514Y-89327225D01*
X152089525Y-89187228D01*
X152042347Y-89125744D01*
X152020440Y-89097194D01*
X152020434Y-89097187D01*
X151725638Y-88802391D01*
X151692153Y-88741068D01*
X151689319Y-88714710D01*
X151689319Y-88481988D01*
X151709004Y-88414949D01*
X151725634Y-88394311D01*
X152550809Y-87569135D01*
X152612130Y-87535652D01*
X152681821Y-87540636D01*
G37*
G04 #@! TD.AperFunction*
G04 #@! TA.AperFunction,Conductor*
G36*
X158890475Y-84430513D02*
G01*
X158946408Y-84472385D01*
X158959935Y-84495183D01*
X159010838Y-84606643D01*
X159010839Y-84606644D01*
X159010840Y-84606646D01*
X159048459Y-84653329D01*
X159048462Y-84653332D01*
X159048467Y-84653338D01*
X159920054Y-85524925D01*
X159953539Y-85586248D01*
X159948555Y-85655940D01*
X159906683Y-85711873D01*
X159890834Y-85721960D01*
X159887895Y-85723531D01*
X159824731Y-85765735D01*
X159758053Y-85786612D01*
X159755841Y-85786632D01*
X159750485Y-85786632D01*
X159580887Y-85786632D01*
X159415861Y-85825744D01*
X159415857Y-85825745D01*
X159264307Y-85901856D01*
X159264306Y-85901857D01*
X159264304Y-85901858D01*
X159264303Y-85901859D01*
X159236993Y-85924105D01*
X159186864Y-85964941D01*
X159186858Y-85964947D01*
X158764950Y-86386857D01*
X158764939Y-86386869D01*
X158701861Y-86464300D01*
X158701855Y-86464308D01*
X158625745Y-86615857D01*
X158625744Y-86615860D01*
X158625744Y-86615861D01*
X158586632Y-86780887D01*
X158586632Y-86950485D01*
X158616929Y-87078316D01*
X158625745Y-87115514D01*
X158685709Y-87234911D01*
X158701859Y-87267068D01*
X158764941Y-87344507D01*
X159151509Y-87731073D01*
X159228948Y-87794157D01*
X159228952Y-87794159D01*
X159229588Y-87794571D01*
X159229897Y-87794930D01*
X159234197Y-87798433D01*
X159233572Y-87799199D01*
X159275170Y-87847524D01*
X159286208Y-87898667D01*
X159286208Y-88367503D01*
X159286208Y-88367505D01*
X159286207Y-88367505D01*
X159309646Y-88485331D01*
X159309647Y-88485335D01*
X159311206Y-88493176D01*
X159360243Y-88611562D01*
X159428602Y-88713869D01*
X159449480Y-88780546D01*
X159449500Y-88782759D01*
X159449500Y-89446957D01*
X159429815Y-89513996D01*
X159413181Y-89534638D01*
X159048402Y-89899416D01*
X158987079Y-89932901D01*
X158917387Y-89927917D01*
X158861454Y-89886045D01*
X158849915Y-89867394D01*
X158798141Y-89764303D01*
X158735059Y-89686865D01*
X158313135Y-89264943D01*
X158235697Y-89201859D01*
X158235694Y-89201857D01*
X158235691Y-89201855D01*
X158084142Y-89125745D01*
X158084140Y-89125744D01*
X158084139Y-89125744D01*
X157919113Y-89086632D01*
X157749515Y-89086632D01*
X157584489Y-89125744D01*
X157584485Y-89125745D01*
X157432933Y-89201858D01*
X157355492Y-89264941D01*
X157355486Y-89264947D01*
X156968934Y-89651501D01*
X156968926Y-89651510D01*
X156905844Y-89728945D01*
X156905839Y-89728953D01*
X156829727Y-89880504D01*
X156796378Y-90021214D01*
X156761764Y-90081907D01*
X156699831Y-90114250D01*
X156630244Y-90107976D01*
X156577345Y-90068103D01*
X156548889Y-90031018D01*
X156510568Y-89981076D01*
X156510565Y-89981073D01*
X156510561Y-89981068D01*
X156351165Y-89821672D01*
X156351160Y-89821668D01*
X156351158Y-89821666D01*
X156287573Y-89772876D01*
X156254674Y-89747632D01*
X156256458Y-89745306D01*
X156217960Y-89704932D01*
X156204736Y-89636325D01*
X156225073Y-89579219D01*
X156228457Y-89574155D01*
X156242281Y-89540781D01*
X156277493Y-89455772D01*
X156290414Y-89390814D01*
X156302492Y-89330099D01*
X156302492Y-88797062D01*
X156322177Y-88730023D01*
X156338807Y-88709385D01*
X156535057Y-88513135D01*
X156598141Y-88435697D01*
X156674256Y-88284139D01*
X156713368Y-88119113D01*
X156713368Y-88036078D01*
X156733053Y-87969039D01*
X156785857Y-87923284D01*
X156812291Y-87915901D01*
X156812086Y-87915033D01*
X156819111Y-87913368D01*
X156819113Y-87913368D01*
X156984139Y-87874256D01*
X157135697Y-87798141D01*
X157213135Y-87735059D01*
X157635057Y-87313135D01*
X157698141Y-87235697D01*
X157774256Y-87084139D01*
X157793476Y-87003039D01*
X157828089Y-86942349D01*
X157848161Y-86926643D01*
X157849517Y-86925790D01*
X157849522Y-86925789D01*
X158002262Y-86829816D01*
X158129816Y-86702262D01*
X158225789Y-86549522D01*
X158285368Y-86379255D01*
X158288834Y-86348497D01*
X158305565Y-86200003D01*
X158305565Y-86199996D01*
X158285369Y-86020750D01*
X158285368Y-86020745D01*
X158242375Y-85897879D01*
X158225789Y-85850478D01*
X158129816Y-85697738D01*
X158002262Y-85570184D01*
X157916537Y-85516319D01*
X157870247Y-85463985D01*
X157859599Y-85394931D01*
X157887974Y-85331083D01*
X157894817Y-85323657D01*
X158759462Y-84459012D01*
X158820783Y-84425529D01*
X158890475Y-84430513D01*
G37*
G04 #@! TD.AperFunction*
G04 #@! TA.AperFunction,Conductor*
G36*
X153925667Y-76823729D02*
G01*
X153930594Y-76823927D01*
X154918598Y-76883691D01*
X154923539Y-76884090D01*
X155908311Y-76983585D01*
X155913245Y-76984184D01*
X156893202Y-77123250D01*
X156898099Y-77124046D01*
X157871670Y-77302460D01*
X157876555Y-77303457D01*
X158842133Y-77520923D01*
X158846972Y-77522116D01*
X159803035Y-77778292D01*
X159807797Y-77779672D01*
X160752763Y-78074135D01*
X160757439Y-78075696D01*
X161689825Y-78407985D01*
X161694433Y-78409733D01*
X162612669Y-78779292D01*
X162617208Y-78781225D01*
X163519801Y-79187449D01*
X163524304Y-79189586D01*
X164409795Y-79631818D01*
X164414195Y-79634127D01*
X165281157Y-80111654D01*
X165285462Y-80114139D01*
X165824073Y-80439740D01*
X165871260Y-80491268D01*
X165883099Y-80560127D01*
X165855830Y-80624456D01*
X165825896Y-80650850D01*
X165701903Y-80728761D01*
X165701900Y-80728763D01*
X165574347Y-80856316D01*
X165546902Y-80899996D01*
X165522102Y-80939463D01*
X165469769Y-80985753D01*
X165417110Y-80997490D01*
X165334218Y-80997490D01*
X165169049Y-81038199D01*
X165018420Y-81117257D01*
X164963983Y-81162624D01*
X164963968Y-81162638D01*
X164601079Y-81525527D01*
X164601065Y-81525542D01*
X164555698Y-81579979D01*
X164476639Y-81730610D01*
X164476328Y-81731875D01*
X164475846Y-81732702D01*
X164473980Y-81737623D01*
X164473161Y-81737312D01*
X164441172Y-81792255D01*
X164378952Y-81824043D01*
X164309423Y-81817146D01*
X164254661Y-81773754D01*
X164245122Y-81757849D01*
X164198143Y-81664307D01*
X164198141Y-81664303D01*
X164135059Y-81586865D01*
X163713135Y-81164943D01*
X163635697Y-81101859D01*
X163635694Y-81101857D01*
X163635691Y-81101855D01*
X163484142Y-81025745D01*
X163484140Y-81025744D01*
X163484139Y-81025744D01*
X163319113Y-80986632D01*
X163213683Y-80986632D01*
X163146644Y-80966947D01*
X163103888Y-80920261D01*
X163046497Y-80810910D01*
X163046493Y-80810905D01*
X163046492Y-80810903D01*
X163019755Y-80778822D01*
X163003714Y-80759575D01*
X162701947Y-80457810D01*
X162701945Y-80457808D01*
X162701939Y-80457802D01*
X162650613Y-80415026D01*
X162650612Y-80415025D01*
X162508582Y-80340482D01*
X162352848Y-80302098D01*
X162192451Y-80302098D01*
X162036713Y-80340483D01*
X161894684Y-80415026D01*
X161843355Y-80457805D01*
X161843346Y-80457813D01*
X161809892Y-80491268D01*
X161700839Y-80600321D01*
X161639519Y-80633805D01*
X161613160Y-80636639D01*
X161108417Y-80636639D01*
X160973790Y-80672711D01*
X160973791Y-80672712D01*
X160961223Y-80676079D01*
X160961219Y-80676081D01*
X160829248Y-80752275D01*
X154638416Y-86943107D01*
X154577093Y-86976592D01*
X154507401Y-86971608D01*
X154463054Y-86943107D01*
X154214671Y-86694724D01*
X154164393Y-86661130D01*
X154141134Y-86641000D01*
X154130797Y-86629520D01*
X154072230Y-86564474D01*
X153927593Y-86459388D01*
X153907641Y-86450505D01*
X153854407Y-86405257D01*
X153834085Y-86338408D01*
X153853130Y-86271184D01*
X153870393Y-86249551D01*
X155338092Y-84781853D01*
X155399413Y-84748370D01*
X155399477Y-84748356D01*
X155564267Y-84713329D01*
X155727593Y-84640612D01*
X155872230Y-84535526D01*
X155991859Y-84402665D01*
X156081250Y-84247835D01*
X156136497Y-84077803D01*
X156155185Y-83900000D01*
X156136497Y-83722197D01*
X156095948Y-83597401D01*
X156081252Y-83552170D01*
X156081249Y-83552164D01*
X155991859Y-83397335D01*
X155939046Y-83338680D01*
X155872235Y-83264478D01*
X155872232Y-83264476D01*
X155872231Y-83264475D01*
X155872230Y-83264474D01*
X155727593Y-83159388D01*
X155564267Y-83086671D01*
X155564265Y-83086670D01*
X155436594Y-83059533D01*
X155389391Y-83049500D01*
X155210609Y-83049500D01*
X155179954Y-83056015D01*
X155035733Y-83086670D01*
X155035728Y-83086672D01*
X154872408Y-83159387D01*
X154727768Y-83264475D01*
X154608140Y-83397336D01*
X154518750Y-83552164D01*
X154518747Y-83552170D01*
X154463504Y-83722192D01*
X154463503Y-83722194D01*
X154458112Y-83773484D01*
X154457737Y-83777060D01*
X154457011Y-83783963D01*
X154430425Y-83848577D01*
X154421371Y-83858681D01*
X150533543Y-87746509D01*
X150483941Y-87820746D01*
X150462357Y-87853047D01*
X150462352Y-87853057D01*
X150448376Y-87886796D01*
X150404533Y-87941198D01*
X150381272Y-87953899D01*
X150306646Y-87984811D01*
X150216606Y-88053901D01*
X150216601Y-88053905D01*
X150057206Y-88213300D01*
X149997889Y-88290604D01*
X149941461Y-88331806D01*
X149871715Y-88335961D01*
X149811832Y-88302798D01*
X149651769Y-88142735D01*
X149644567Y-88137923D01*
X149584427Y-88097739D01*
X149557045Y-88079443D01*
X149557022Y-88079428D01*
X149556977Y-88079398D01*
X149545223Y-88071544D01*
X149545220Y-88071542D01*
X149545219Y-88071542D01*
X149426840Y-88022508D01*
X149426834Y-88022506D01*
X149393652Y-88015906D01*
X149331741Y-87983521D01*
X149330163Y-87981970D01*
X149113142Y-87764950D01*
X149113135Y-87764943D01*
X149035697Y-87701859D01*
X149035694Y-87701857D01*
X149035691Y-87701855D01*
X148886925Y-87627142D01*
X148835851Y-87579464D01*
X148818661Y-87511742D01*
X148840814Y-87445477D01*
X148895275Y-87401708D01*
X148943935Y-87394887D01*
X148943935Y-87392486D01*
X148950903Y-87392486D01*
X149130148Y-87372290D01*
X149130151Y-87372289D01*
X149130154Y-87372289D01*
X149300421Y-87312710D01*
X149453161Y-87216737D01*
X149580715Y-87089183D01*
X149676688Y-86936443D01*
X149736267Y-86766176D01*
X149746987Y-86671032D01*
X149774053Y-86606617D01*
X149829250Y-86567873D01*
X149949522Y-86525789D01*
X150102262Y-86429816D01*
X150229816Y-86302262D01*
X150325789Y-86149522D01*
X150385368Y-85979255D01*
X150388161Y-85954467D01*
X150405565Y-85800003D01*
X150405565Y-85799996D01*
X150385369Y-85620750D01*
X150385368Y-85620745D01*
X150367239Y-85568936D01*
X150325789Y-85450478D01*
X150229816Y-85297738D01*
X150102262Y-85170184D01*
X150084853Y-85159245D01*
X149949523Y-85074211D01*
X149779254Y-85014631D01*
X149779249Y-85014630D01*
X149600004Y-84994435D01*
X149599996Y-84994435D01*
X149420750Y-85014630D01*
X149420737Y-85014633D01*
X149250473Y-85074212D01*
X149250170Y-85074358D01*
X149249954Y-85074393D01*
X149243906Y-85076510D01*
X149243535Y-85075449D01*
X149181227Y-85085703D01*
X149117096Y-85057973D01*
X149108701Y-85050315D01*
X149078313Y-85019928D01*
X149078302Y-85019917D01*
X149026976Y-84977141D01*
X149026975Y-84977140D01*
X148902356Y-84911735D01*
X148884949Y-84902599D01*
X148884948Y-84902598D01*
X148884945Y-84902597D01*
X148729211Y-84864213D01*
X148568814Y-84864213D01*
X148413076Y-84902598D01*
X148271047Y-84977141D01*
X148219718Y-85019920D01*
X148219697Y-85019939D01*
X147864930Y-85374708D01*
X147864909Y-85374730D01*
X147822133Y-85426056D01*
X147822132Y-85426057D01*
X147802248Y-85463943D01*
X147747591Y-85568084D01*
X147747590Y-85568086D01*
X147747588Y-85568091D01*
X147744929Y-85575102D01*
X147743278Y-85574475D01*
X147712866Y-85626706D01*
X147650645Y-85658492D01*
X147581117Y-85651594D01*
X147532668Y-85615169D01*
X147532220Y-85615567D01*
X147530261Y-85613359D01*
X147530124Y-85613256D01*
X147529768Y-85612803D01*
X147529752Y-85612785D01*
X146768225Y-84851258D01*
X146768208Y-84851243D01*
X146697519Y-84795712D01*
X146697516Y-84795710D01*
X146665618Y-84781855D01*
X146557454Y-84734873D01*
X146557452Y-84734872D01*
X146557451Y-84734872D01*
X146406173Y-84714080D01*
X146254890Y-84734873D01*
X146114833Y-84795707D01*
X146114825Y-84795713D01*
X146044124Y-84851253D01*
X145749278Y-85146099D01*
X145693738Y-85216800D01*
X145693732Y-85216808D01*
X145632898Y-85356865D01*
X145612347Y-85506387D01*
X145583717Y-85570121D01*
X145525175Y-85608260D01*
X145506387Y-85612347D01*
X145356865Y-85632898D01*
X145216808Y-85693732D01*
X145216800Y-85693738D01*
X145146099Y-85749278D01*
X144851253Y-86044124D01*
X144795713Y-86114825D01*
X144795707Y-86114833D01*
X144734873Y-86254890D01*
X144714321Y-86404413D01*
X144685691Y-86468147D01*
X144627148Y-86506285D01*
X144608362Y-86510372D01*
X144458839Y-86530924D01*
X144318782Y-86591758D01*
X144318774Y-86591764D01*
X144248073Y-86647304D01*
X143953227Y-86942150D01*
X143897687Y-87012851D01*
X143897681Y-87012859D01*
X143836847Y-87152916D01*
X143816054Y-87304198D01*
X143816054Y-87304199D01*
X143836846Y-87455477D01*
X143836846Y-87455478D01*
X143836847Y-87455480D01*
X143886215Y-87569137D01*
X143897684Y-87595542D01*
X143897686Y-87595545D01*
X143953217Y-87666234D01*
X143953232Y-87666251D01*
X144156648Y-87869666D01*
X144190133Y-87930989D01*
X144192967Y-87957347D01*
X144192967Y-88086126D01*
X144173282Y-88153165D01*
X144120478Y-88198920D01*
X144051320Y-88208864D01*
X143987764Y-88179839D01*
X143963974Y-88152099D01*
X143929817Y-88097739D01*
X143802262Y-87970184D01*
X143649523Y-87874211D01*
X143479254Y-87814631D01*
X143479249Y-87814630D01*
X143300004Y-87794435D01*
X143299996Y-87794435D01*
X143120750Y-87814630D01*
X143120745Y-87814631D01*
X142950476Y-87874211D01*
X142797737Y-87970184D01*
X142782991Y-87984931D01*
X142721668Y-88018416D01*
X142695310Y-88021250D01*
X141623806Y-88021250D01*
X141476608Y-88060691D01*
X141344639Y-88136885D01*
X141344636Y-88136887D01*
X140815581Y-88665942D01*
X140754258Y-88699427D01*
X140684566Y-88694443D01*
X140628633Y-88652571D01*
X140604680Y-88592144D01*
X140585369Y-88420750D01*
X140585368Y-88420745D01*
X140571428Y-88380908D01*
X140525789Y-88250478D01*
X140513130Y-88230332D01*
X140483425Y-88183056D01*
X140429816Y-88097738D01*
X140302262Y-87970184D01*
X140256131Y-87941198D01*
X140149521Y-87874210D01*
X139979249Y-87814630D01*
X139857666Y-87800931D01*
X139793252Y-87773864D01*
X139783869Y-87765392D01*
X139298397Y-87279920D01*
X139264912Y-87218597D01*
X139262078Y-87192239D01*
X139262078Y-85568936D01*
X139281763Y-85501897D01*
X139334567Y-85456142D01*
X139403725Y-85446198D01*
X139452051Y-85463943D01*
X139550474Y-85525787D01*
X139551757Y-85526405D01*
X139552442Y-85527024D01*
X139556375Y-85529495D01*
X139555942Y-85530183D01*
X139603618Y-85573226D01*
X139621933Y-85640653D01*
X139618617Y-85666722D01*
X139598995Y-85749516D01*
X139590616Y-85784871D01*
X139590616Y-85954469D01*
X139628623Y-86114833D01*
X139629729Y-86119498D01*
X139670157Y-86199996D01*
X139705843Y-86271052D01*
X139768925Y-86348491D01*
X140155493Y-86735057D01*
X140193686Y-86766170D01*
X140232929Y-86798139D01*
X140232937Y-86798144D01*
X140335196Y-86849500D01*
X140384489Y-86874256D01*
X140549515Y-86913368D01*
X140549517Y-86913368D01*
X140719111Y-86913368D01*
X140719113Y-86913368D01*
X140884139Y-86874256D01*
X141035697Y-86798141D01*
X141113135Y-86735059D01*
X141535057Y-86313135D01*
X141598141Y-86235697D01*
X141674256Y-86084139D01*
X141713368Y-85919113D01*
X141713368Y-85749515D01*
X141674256Y-85584489D01*
X141598141Y-85432932D01*
X141535059Y-85355493D01*
X141468376Y-85288810D01*
X141338811Y-85159245D01*
X141305326Y-85097922D01*
X141302492Y-85071564D01*
X141302492Y-84620416D01*
X141322177Y-84553377D01*
X141374981Y-84507622D01*
X141376974Y-84506733D01*
X141387144Y-84502316D01*
X141457846Y-84446775D01*
X141752698Y-84151923D01*
X141808239Y-84081221D01*
X141869076Y-83941159D01*
X141889627Y-83791637D01*
X141918257Y-83727904D01*
X141976799Y-83689765D01*
X141995585Y-83685678D01*
X142145108Y-83665127D01*
X142261602Y-83614527D01*
X142285166Y-83604292D01*
X142285166Y-83604291D01*
X142285170Y-83604290D01*
X142355872Y-83548749D01*
X142650724Y-83253897D01*
X142706265Y-83183195D01*
X142767102Y-83043133D01*
X142787653Y-82893609D01*
X142816281Y-82829878D01*
X142874823Y-82791739D01*
X142893601Y-82787654D01*
X143043133Y-82767102D01*
X143154063Y-82718918D01*
X143183191Y-82706267D01*
X143183191Y-82706266D01*
X143183195Y-82706265D01*
X143253897Y-82650724D01*
X143548749Y-82355872D01*
X143604290Y-82285170D01*
X143606469Y-82280155D01*
X143653465Y-82171957D01*
X143665127Y-82145108D01*
X143685678Y-81995586D01*
X143714308Y-81931853D01*
X143772850Y-81893714D01*
X143791636Y-81889627D01*
X143941159Y-81869076D01*
X144060715Y-81817146D01*
X144081217Y-81808241D01*
X144081217Y-81808240D01*
X144081221Y-81808239D01*
X144151923Y-81752698D01*
X144446775Y-81457846D01*
X144502316Y-81387144D01*
X144514724Y-81358579D01*
X144528678Y-81326451D01*
X144563153Y-81247082D01*
X144583946Y-81095801D01*
X144563153Y-80944520D01*
X144502316Y-80804458D01*
X144502313Y-80804454D01*
X144446782Y-80733765D01*
X144446767Y-80733748D01*
X143685240Y-79972221D01*
X143685223Y-79972206D01*
X143614534Y-79916675D01*
X143614525Y-79916669D01*
X143510270Y-79871386D01*
X143456623Y-79826623D01*
X143442629Y-79798605D01*
X143425789Y-79750478D01*
X143425789Y-79750477D01*
X143365484Y-79654504D01*
X143329816Y-79597738D01*
X143202262Y-79470184D01*
X143197550Y-79467223D01*
X143049523Y-79374211D01*
X142879254Y-79314631D01*
X142879249Y-79314630D01*
X142700004Y-79294435D01*
X142699994Y-79294435D01*
X142699275Y-79294516D01*
X142698813Y-79294435D01*
X142693036Y-79294435D01*
X142693036Y-79293422D01*
X142630454Y-79282457D01*
X142579077Y-79235105D01*
X142561457Y-79167493D01*
X142583188Y-79101089D01*
X142634506Y-79058220D01*
X143249981Y-78781217D01*
X143254484Y-78779299D01*
X144172754Y-78409726D01*
X144177330Y-78407991D01*
X145109746Y-78075691D01*
X145114393Y-78074140D01*
X146059387Y-77779668D01*
X146064123Y-77778296D01*
X147020211Y-77522113D01*
X147025027Y-77520926D01*
X147990626Y-77303455D01*
X147995491Y-77302461D01*
X148969080Y-77124044D01*
X148973961Y-77123251D01*
X149953932Y-76984183D01*
X149958854Y-76983585D01*
X150943636Y-76884090D01*
X150948569Y-76883691D01*
X151936579Y-76823927D01*
X151941502Y-76823729D01*
X152931103Y-76803798D01*
X152936069Y-76803798D01*
X153925667Y-76823729D01*
G37*
G04 #@! TD.AperFunction*
M02*
