G04 #@! TF.GenerationSoftware,KiCad,Pcbnew,8.0.1*
G04 #@! TF.CreationDate,2024-06-09T19:47:04+05:00*
G04 #@! TF.ProjectId,rocket_project,726f636b-6574-45f7-9072-6f6a6563742e,rev?*
G04 #@! TF.SameCoordinates,Original*
G04 #@! TF.FileFunction,Legend,Top*
G04 #@! TF.FilePolarity,Positive*
%FSLAX46Y46*%
G04 Gerber Fmt 4.6, Leading zero omitted, Abs format (unit mm)*
G04 Created by KiCad (PCBNEW 8.0.1) date 2024-06-09 19:47:04*
%MOMM*%
%LPD*%
G01*
G04 APERTURE LIST*
G04 Aperture macros list*
%AMRoundRect*
0 Rectangle with rounded corners*
0 $1 Rounding radius*
0 $2 $3 $4 $5 $6 $7 $8 $9 X,Y pos of 4 corners*
0 Add a 4 corners polygon primitive as box body*
4,1,4,$2,$3,$4,$5,$6,$7,$8,$9,$2,$3,0*
0 Add four circle primitives for the rounded corners*
1,1,$1+$1,$2,$3*
1,1,$1+$1,$4,$5*
1,1,$1+$1,$6,$7*
1,1,$1+$1,$8,$9*
0 Add four rect primitives between the rounded corners*
20,1,$1+$1,$2,$3,$4,$5,0*
20,1,$1+$1,$4,$5,$6,$7,0*
20,1,$1+$1,$6,$7,$8,$9,0*
20,1,$1+$1,$8,$9,$2,$3,0*%
G04 Aperture macros list end*
%ADD10C,0.100000*%
%ADD11C,0.150000*%
%ADD12C,0.120000*%
%ADD13RoundRect,0.150000X0.700000X-0.150000X0.700000X0.150000X-0.700000X0.150000X-0.700000X-0.150000X0*%
%ADD14RoundRect,0.250000X1.100000X-0.250000X1.100000X0.250000X-1.100000X0.250000X-1.100000X-0.250000X0*%
%ADD15RoundRect,0.250000X-0.475000X0.250000X-0.475000X-0.250000X0.475000X-0.250000X0.475000X0.250000X0*%
%ADD16RoundRect,0.237500X-0.237500X0.250000X-0.237500X-0.250000X0.237500X-0.250000X0.237500X0.250000X0*%
%ADD17RoundRect,0.200000X-0.275000X0.200000X-0.275000X-0.200000X0.275000X-0.200000X0.275000X0.200000X0*%
%ADD18R,1.700000X1.700000*%
%ADD19O,1.700000X1.700000*%
%ADD20RoundRect,0.225000X-0.250000X0.225000X-0.250000X-0.225000X0.250000X-0.225000X0.250000X0.225000X0*%
%ADD21RoundRect,0.250000X0.475000X-0.250000X0.475000X0.250000X-0.475000X0.250000X-0.475000X-0.250000X0*%
%ADD22C,2.200000*%
%ADD23RoundRect,0.150000X-0.700000X0.150000X-0.700000X-0.150000X0.700000X-0.150000X0.700000X0.150000X0*%
%ADD24RoundRect,0.250000X-1.100000X0.250000X-1.100000X-0.250000X1.100000X-0.250000X1.100000X0.250000X0*%
%ADD25RoundRect,0.375000X-0.625000X-0.375000X0.625000X-0.375000X0.625000X0.375000X-0.625000X0.375000X0*%
%ADD26RoundRect,0.500000X-0.500000X-1.400000X0.500000X-1.400000X0.500000X1.400000X-0.500000X1.400000X0*%
%ADD27RoundRect,0.237500X0.237500X-0.250000X0.237500X0.250000X-0.237500X0.250000X-0.237500X-0.250000X0*%
%ADD28RoundRect,0.225000X0.250000X-0.225000X0.250000X0.225000X-0.250000X0.225000X-0.250000X-0.225000X0*%
%ADD29R,1.800000X1.200000*%
%ADD30R,1.800000X0.800000*%
%ADD31RoundRect,0.250000X-0.250000X-0.475000X0.250000X-0.475000X0.250000X0.475000X-0.250000X0.475000X0*%
%ADD32RoundRect,0.218750X0.256250X-0.218750X0.256250X0.218750X-0.256250X0.218750X-0.256250X-0.218750X0*%
%ADD33RoundRect,0.100000X-0.225000X-0.100000X0.225000X-0.100000X0.225000X0.100000X-0.225000X0.100000X0*%
%ADD34RoundRect,0.150000X-0.750000X-0.150000X0.750000X-0.150000X0.750000X0.150000X-0.750000X0.150000X0*%
%ADD35RoundRect,0.237500X-0.237500X0.300000X-0.237500X-0.300000X0.237500X-0.300000X0.237500X0.300000X0*%
%ADD36C,0.600000*%
G04 APERTURE END LIST*
D10*
X139927693Y-96720038D02*
X139832455Y-96672419D01*
X139832455Y-96672419D02*
X139689598Y-96672419D01*
X139689598Y-96672419D02*
X139546741Y-96720038D01*
X139546741Y-96720038D02*
X139451503Y-96815276D01*
X139451503Y-96815276D02*
X139403884Y-96910514D01*
X139403884Y-96910514D02*
X139356265Y-97100990D01*
X139356265Y-97100990D02*
X139356265Y-97243847D01*
X139356265Y-97243847D02*
X139403884Y-97434323D01*
X139403884Y-97434323D02*
X139451503Y-97529561D01*
X139451503Y-97529561D02*
X139546741Y-97624800D01*
X139546741Y-97624800D02*
X139689598Y-97672419D01*
X139689598Y-97672419D02*
X139784836Y-97672419D01*
X139784836Y-97672419D02*
X139927693Y-97624800D01*
X139927693Y-97624800D02*
X139975312Y-97577180D01*
X139975312Y-97577180D02*
X139975312Y-97243847D01*
X139975312Y-97243847D02*
X139784836Y-97243847D01*
X140403884Y-97672419D02*
X140403884Y-96672419D01*
X140403884Y-96672419D02*
X140975312Y-97672419D01*
X140975312Y-97672419D02*
X140975312Y-96672419D01*
X141451503Y-97672419D02*
X141451503Y-96672419D01*
X141451503Y-96672419D02*
X141689598Y-96672419D01*
X141689598Y-96672419D02*
X141832455Y-96720038D01*
X141832455Y-96720038D02*
X141927693Y-96815276D01*
X141927693Y-96815276D02*
X141975312Y-96910514D01*
X141975312Y-96910514D02*
X142022931Y-97100990D01*
X142022931Y-97100990D02*
X142022931Y-97243847D01*
X142022931Y-97243847D02*
X141975312Y-97434323D01*
X141975312Y-97434323D02*
X141927693Y-97529561D01*
X141927693Y-97529561D02*
X141832455Y-97624800D01*
X141832455Y-97624800D02*
X141689598Y-97672419D01*
X141689598Y-97672419D02*
X141451503Y-97672419D01*
X139780074Y-92972419D02*
X139303884Y-92972419D01*
X139303884Y-92972419D02*
X139256265Y-93448609D01*
X139256265Y-93448609D02*
X139303884Y-93400990D01*
X139303884Y-93400990D02*
X139399122Y-93353371D01*
X139399122Y-93353371D02*
X139637217Y-93353371D01*
X139637217Y-93353371D02*
X139732455Y-93400990D01*
X139732455Y-93400990D02*
X139780074Y-93448609D01*
X139780074Y-93448609D02*
X139827693Y-93543847D01*
X139827693Y-93543847D02*
X139827693Y-93781942D01*
X139827693Y-93781942D02*
X139780074Y-93877180D01*
X139780074Y-93877180D02*
X139732455Y-93924800D01*
X139732455Y-93924800D02*
X139637217Y-93972419D01*
X139637217Y-93972419D02*
X139399122Y-93972419D01*
X139399122Y-93972419D02*
X139303884Y-93924800D01*
X139303884Y-93924800D02*
X139256265Y-93877180D01*
X140113408Y-92972419D02*
X140446741Y-93972419D01*
X140446741Y-93972419D02*
X140780074Y-92972419D01*
X148808646Y-102342587D02*
X149427693Y-102342587D01*
X149427693Y-102342587D02*
X149094360Y-102723539D01*
X149094360Y-102723539D02*
X149237217Y-102723539D01*
X149237217Y-102723539D02*
X149332455Y-102771158D01*
X149332455Y-102771158D02*
X149380074Y-102818777D01*
X149380074Y-102818777D02*
X149427693Y-102914015D01*
X149427693Y-102914015D02*
X149427693Y-103152110D01*
X149427693Y-103152110D02*
X149380074Y-103247348D01*
X149380074Y-103247348D02*
X149332455Y-103294968D01*
X149332455Y-103294968D02*
X149237217Y-103342587D01*
X149237217Y-103342587D02*
X148951503Y-103342587D01*
X148951503Y-103342587D02*
X148856265Y-103294968D01*
X148856265Y-103294968D02*
X148808646Y-103247348D01*
X149856265Y-103247348D02*
X149903884Y-103294968D01*
X149903884Y-103294968D02*
X149856265Y-103342587D01*
X149856265Y-103342587D02*
X149808646Y-103294968D01*
X149808646Y-103294968D02*
X149856265Y-103247348D01*
X149856265Y-103247348D02*
X149856265Y-103342587D01*
X150237217Y-102342587D02*
X150856264Y-102342587D01*
X150856264Y-102342587D02*
X150522931Y-102723539D01*
X150522931Y-102723539D02*
X150665788Y-102723539D01*
X150665788Y-102723539D02*
X150761026Y-102771158D01*
X150761026Y-102771158D02*
X150808645Y-102818777D01*
X150808645Y-102818777D02*
X150856264Y-102914015D01*
X150856264Y-102914015D02*
X150856264Y-103152110D01*
X150856264Y-103152110D02*
X150808645Y-103247348D01*
X150808645Y-103247348D02*
X150761026Y-103294968D01*
X150761026Y-103294968D02*
X150665788Y-103342587D01*
X150665788Y-103342587D02*
X150380074Y-103342587D01*
X150380074Y-103342587D02*
X150284836Y-103294968D01*
X150284836Y-103294968D02*
X150237217Y-103247348D01*
X151141979Y-102342587D02*
X151475312Y-103342587D01*
X151475312Y-103342587D02*
X151808645Y-102342587D01*
X149427693Y-104000150D02*
X149332455Y-103952531D01*
X149332455Y-103952531D02*
X149189598Y-103952531D01*
X149189598Y-103952531D02*
X149046741Y-104000150D01*
X149046741Y-104000150D02*
X148951503Y-104095388D01*
X148951503Y-104095388D02*
X148903884Y-104190626D01*
X148903884Y-104190626D02*
X148856265Y-104381102D01*
X148856265Y-104381102D02*
X148856265Y-104523959D01*
X148856265Y-104523959D02*
X148903884Y-104714435D01*
X148903884Y-104714435D02*
X148951503Y-104809673D01*
X148951503Y-104809673D02*
X149046741Y-104904912D01*
X149046741Y-104904912D02*
X149189598Y-104952531D01*
X149189598Y-104952531D02*
X149284836Y-104952531D01*
X149284836Y-104952531D02*
X149427693Y-104904912D01*
X149427693Y-104904912D02*
X149475312Y-104857292D01*
X149475312Y-104857292D02*
X149475312Y-104523959D01*
X149475312Y-104523959D02*
X149284836Y-104523959D01*
X149903884Y-104952531D02*
X149903884Y-103952531D01*
X149903884Y-103952531D02*
X150475312Y-104952531D01*
X150475312Y-104952531D02*
X150475312Y-103952531D01*
X150951503Y-104952531D02*
X150951503Y-103952531D01*
X150951503Y-103952531D02*
X151189598Y-103952531D01*
X151189598Y-103952531D02*
X151332455Y-104000150D01*
X151332455Y-104000150D02*
X151427693Y-104095388D01*
X151427693Y-104095388D02*
X151475312Y-104190626D01*
X151475312Y-104190626D02*
X151522931Y-104381102D01*
X151522931Y-104381102D02*
X151522931Y-104523959D01*
X151522931Y-104523959D02*
X151475312Y-104714435D01*
X151475312Y-104714435D02*
X151427693Y-104809673D01*
X151427693Y-104809673D02*
X151332455Y-104904912D01*
X151332455Y-104904912D02*
X151189598Y-104952531D01*
X151189598Y-104952531D02*
X150951503Y-104952531D01*
X148856265Y-106514856D02*
X148999122Y-106562475D01*
X148999122Y-106562475D02*
X149237217Y-106562475D01*
X149237217Y-106562475D02*
X149332455Y-106514856D01*
X149332455Y-106514856D02*
X149380074Y-106467236D01*
X149380074Y-106467236D02*
X149427693Y-106371998D01*
X149427693Y-106371998D02*
X149427693Y-106276760D01*
X149427693Y-106276760D02*
X149380074Y-106181522D01*
X149380074Y-106181522D02*
X149332455Y-106133903D01*
X149332455Y-106133903D02*
X149237217Y-106086284D01*
X149237217Y-106086284D02*
X149046741Y-106038665D01*
X149046741Y-106038665D02*
X148951503Y-105991046D01*
X148951503Y-105991046D02*
X148903884Y-105943427D01*
X148903884Y-105943427D02*
X148856265Y-105848189D01*
X148856265Y-105848189D02*
X148856265Y-105752951D01*
X148856265Y-105752951D02*
X148903884Y-105657713D01*
X148903884Y-105657713D02*
X148951503Y-105610094D01*
X148951503Y-105610094D02*
X149046741Y-105562475D01*
X149046741Y-105562475D02*
X149284836Y-105562475D01*
X149284836Y-105562475D02*
X149427693Y-105610094D01*
X150427693Y-106467236D02*
X150380074Y-106514856D01*
X150380074Y-106514856D02*
X150237217Y-106562475D01*
X150237217Y-106562475D02*
X150141979Y-106562475D01*
X150141979Y-106562475D02*
X149999122Y-106514856D01*
X149999122Y-106514856D02*
X149903884Y-106419617D01*
X149903884Y-106419617D02*
X149856265Y-106324379D01*
X149856265Y-106324379D02*
X149808646Y-106133903D01*
X149808646Y-106133903D02*
X149808646Y-105991046D01*
X149808646Y-105991046D02*
X149856265Y-105800570D01*
X149856265Y-105800570D02*
X149903884Y-105705332D01*
X149903884Y-105705332D02*
X149999122Y-105610094D01*
X149999122Y-105610094D02*
X150141979Y-105562475D01*
X150141979Y-105562475D02*
X150237217Y-105562475D01*
X150237217Y-105562475D02*
X150380074Y-105610094D01*
X150380074Y-105610094D02*
X150427693Y-105657713D01*
X151332455Y-106562475D02*
X150856265Y-106562475D01*
X150856265Y-106562475D02*
X150856265Y-105562475D01*
X148856265Y-108124800D02*
X148999122Y-108172419D01*
X148999122Y-108172419D02*
X149237217Y-108172419D01*
X149237217Y-108172419D02*
X149332455Y-108124800D01*
X149332455Y-108124800D02*
X149380074Y-108077180D01*
X149380074Y-108077180D02*
X149427693Y-107981942D01*
X149427693Y-107981942D02*
X149427693Y-107886704D01*
X149427693Y-107886704D02*
X149380074Y-107791466D01*
X149380074Y-107791466D02*
X149332455Y-107743847D01*
X149332455Y-107743847D02*
X149237217Y-107696228D01*
X149237217Y-107696228D02*
X149046741Y-107648609D01*
X149046741Y-107648609D02*
X148951503Y-107600990D01*
X148951503Y-107600990D02*
X148903884Y-107553371D01*
X148903884Y-107553371D02*
X148856265Y-107458133D01*
X148856265Y-107458133D02*
X148856265Y-107362895D01*
X148856265Y-107362895D02*
X148903884Y-107267657D01*
X148903884Y-107267657D02*
X148951503Y-107220038D01*
X148951503Y-107220038D02*
X149046741Y-107172419D01*
X149046741Y-107172419D02*
X149284836Y-107172419D01*
X149284836Y-107172419D02*
X149427693Y-107220038D01*
X149856265Y-108172419D02*
X149856265Y-107172419D01*
X149856265Y-107172419D02*
X150094360Y-107172419D01*
X150094360Y-107172419D02*
X150237217Y-107220038D01*
X150237217Y-107220038D02*
X150332455Y-107315276D01*
X150332455Y-107315276D02*
X150380074Y-107410514D01*
X150380074Y-107410514D02*
X150427693Y-107600990D01*
X150427693Y-107600990D02*
X150427693Y-107743847D01*
X150427693Y-107743847D02*
X150380074Y-107934323D01*
X150380074Y-107934323D02*
X150332455Y-108029561D01*
X150332455Y-108029561D02*
X150237217Y-108124800D01*
X150237217Y-108124800D02*
X150094360Y-108172419D01*
X150094360Y-108172419D02*
X149856265Y-108172419D01*
X150808646Y-107886704D02*
X151284836Y-107886704D01*
X150713408Y-108172419D02*
X151046741Y-107172419D01*
X151046741Y-107172419D02*
X151380074Y-108172419D01*
X169337217Y-92358896D02*
X169265789Y-92323182D01*
X169265789Y-92323182D02*
X169158646Y-92323182D01*
X169158646Y-92323182D02*
X169051503Y-92358896D01*
X169051503Y-92358896D02*
X168980074Y-92430325D01*
X168980074Y-92430325D02*
X168944360Y-92501753D01*
X168944360Y-92501753D02*
X168908646Y-92644610D01*
X168908646Y-92644610D02*
X168908646Y-92751753D01*
X168908646Y-92751753D02*
X168944360Y-92894610D01*
X168944360Y-92894610D02*
X168980074Y-92966039D01*
X168980074Y-92966039D02*
X169051503Y-93037468D01*
X169051503Y-93037468D02*
X169158646Y-93073182D01*
X169158646Y-93073182D02*
X169230074Y-93073182D01*
X169230074Y-93073182D02*
X169337217Y-93037468D01*
X169337217Y-93037468D02*
X169372931Y-93001753D01*
X169372931Y-93001753D02*
X169372931Y-92751753D01*
X169372931Y-92751753D02*
X169230074Y-92751753D01*
X169694360Y-93073182D02*
X169694360Y-92323182D01*
X169694360Y-92323182D02*
X170122931Y-93073182D01*
X170122931Y-93073182D02*
X170122931Y-92323182D01*
X170480074Y-93073182D02*
X170480074Y-92323182D01*
X170480074Y-92323182D02*
X170658645Y-92323182D01*
X170658645Y-92323182D02*
X170765788Y-92358896D01*
X170765788Y-92358896D02*
X170837217Y-92430325D01*
X170837217Y-92430325D02*
X170872931Y-92501753D01*
X170872931Y-92501753D02*
X170908645Y-92644610D01*
X170908645Y-92644610D02*
X170908645Y-92751753D01*
X170908645Y-92751753D02*
X170872931Y-92894610D01*
X170872931Y-92894610D02*
X170837217Y-92966039D01*
X170837217Y-92966039D02*
X170765788Y-93037468D01*
X170765788Y-93037468D02*
X170658645Y-93073182D01*
X170658645Y-93073182D02*
X170480074Y-93073182D01*
X168908646Y-94244926D02*
X169015789Y-94280640D01*
X169015789Y-94280640D02*
X169194360Y-94280640D01*
X169194360Y-94280640D02*
X169265789Y-94244926D01*
X169265789Y-94244926D02*
X169301503Y-94209211D01*
X169301503Y-94209211D02*
X169337217Y-94137783D01*
X169337217Y-94137783D02*
X169337217Y-94066354D01*
X169337217Y-94066354D02*
X169301503Y-93994926D01*
X169301503Y-93994926D02*
X169265789Y-93959211D01*
X169265789Y-93959211D02*
X169194360Y-93923497D01*
X169194360Y-93923497D02*
X169051503Y-93887783D01*
X169051503Y-93887783D02*
X168980074Y-93852068D01*
X168980074Y-93852068D02*
X168944360Y-93816354D01*
X168944360Y-93816354D02*
X168908646Y-93744926D01*
X168908646Y-93744926D02*
X168908646Y-93673497D01*
X168908646Y-93673497D02*
X168944360Y-93602068D01*
X168944360Y-93602068D02*
X168980074Y-93566354D01*
X168980074Y-93566354D02*
X169051503Y-93530640D01*
X169051503Y-93530640D02*
X169230074Y-93530640D01*
X169230074Y-93530640D02*
X169337217Y-93566354D01*
X170087217Y-94209211D02*
X170051503Y-94244926D01*
X170051503Y-94244926D02*
X169944360Y-94280640D01*
X169944360Y-94280640D02*
X169872932Y-94280640D01*
X169872932Y-94280640D02*
X169765789Y-94244926D01*
X169765789Y-94244926D02*
X169694360Y-94173497D01*
X169694360Y-94173497D02*
X169658646Y-94102068D01*
X169658646Y-94102068D02*
X169622932Y-93959211D01*
X169622932Y-93959211D02*
X169622932Y-93852068D01*
X169622932Y-93852068D02*
X169658646Y-93709211D01*
X169658646Y-93709211D02*
X169694360Y-93637783D01*
X169694360Y-93637783D02*
X169765789Y-93566354D01*
X169765789Y-93566354D02*
X169872932Y-93530640D01*
X169872932Y-93530640D02*
X169944360Y-93530640D01*
X169944360Y-93530640D02*
X170051503Y-93566354D01*
X170051503Y-93566354D02*
X170087217Y-93602068D01*
X170765789Y-94280640D02*
X170408646Y-94280640D01*
X170408646Y-94280640D02*
X170408646Y-93530640D01*
X168908646Y-95452384D02*
X169015789Y-95488098D01*
X169015789Y-95488098D02*
X169194360Y-95488098D01*
X169194360Y-95488098D02*
X169265789Y-95452384D01*
X169265789Y-95452384D02*
X169301503Y-95416669D01*
X169301503Y-95416669D02*
X169337217Y-95345241D01*
X169337217Y-95345241D02*
X169337217Y-95273812D01*
X169337217Y-95273812D02*
X169301503Y-95202384D01*
X169301503Y-95202384D02*
X169265789Y-95166669D01*
X169265789Y-95166669D02*
X169194360Y-95130955D01*
X169194360Y-95130955D02*
X169051503Y-95095241D01*
X169051503Y-95095241D02*
X168980074Y-95059526D01*
X168980074Y-95059526D02*
X168944360Y-95023812D01*
X168944360Y-95023812D02*
X168908646Y-94952384D01*
X168908646Y-94952384D02*
X168908646Y-94880955D01*
X168908646Y-94880955D02*
X168944360Y-94809526D01*
X168944360Y-94809526D02*
X168980074Y-94773812D01*
X168980074Y-94773812D02*
X169051503Y-94738098D01*
X169051503Y-94738098D02*
X169230074Y-94738098D01*
X169230074Y-94738098D02*
X169337217Y-94773812D01*
X169658646Y-95488098D02*
X169658646Y-94738098D01*
X169658646Y-94738098D02*
X169837217Y-94738098D01*
X169837217Y-94738098D02*
X169944360Y-94773812D01*
X169944360Y-94773812D02*
X170015789Y-94845241D01*
X170015789Y-94845241D02*
X170051503Y-94916669D01*
X170051503Y-94916669D02*
X170087217Y-95059526D01*
X170087217Y-95059526D02*
X170087217Y-95166669D01*
X170087217Y-95166669D02*
X170051503Y-95309526D01*
X170051503Y-95309526D02*
X170015789Y-95380955D01*
X170015789Y-95380955D02*
X169944360Y-95452384D01*
X169944360Y-95452384D02*
X169837217Y-95488098D01*
X169837217Y-95488098D02*
X169658646Y-95488098D01*
X170372932Y-95273812D02*
X170730075Y-95273812D01*
X170301503Y-95488098D02*
X170551503Y-94738098D01*
X170551503Y-94738098D02*
X170801503Y-95488098D01*
X169194360Y-96302699D02*
X169301503Y-96338413D01*
X169301503Y-96338413D02*
X169337217Y-96374127D01*
X169337217Y-96374127D02*
X169372931Y-96445556D01*
X169372931Y-96445556D02*
X169372931Y-96552699D01*
X169372931Y-96552699D02*
X169337217Y-96624127D01*
X169337217Y-96624127D02*
X169301503Y-96659842D01*
X169301503Y-96659842D02*
X169230074Y-96695556D01*
X169230074Y-96695556D02*
X168944360Y-96695556D01*
X168944360Y-96695556D02*
X168944360Y-95945556D01*
X168944360Y-95945556D02*
X169194360Y-95945556D01*
X169194360Y-95945556D02*
X169265789Y-95981270D01*
X169265789Y-95981270D02*
X169301503Y-96016984D01*
X169301503Y-96016984D02*
X169337217Y-96088413D01*
X169337217Y-96088413D02*
X169337217Y-96159842D01*
X169337217Y-96159842D02*
X169301503Y-96231270D01*
X169301503Y-96231270D02*
X169265789Y-96266984D01*
X169265789Y-96266984D02*
X169194360Y-96302699D01*
X169194360Y-96302699D02*
X168944360Y-96302699D01*
X169658646Y-96481270D02*
X170015789Y-96481270D01*
X169587217Y-96695556D02*
X169837217Y-95945556D01*
X169837217Y-95945556D02*
X170087217Y-96695556D01*
X170765788Y-96695556D02*
X170515788Y-96338413D01*
X170337217Y-96695556D02*
X170337217Y-95945556D01*
X170337217Y-95945556D02*
X170622931Y-95945556D01*
X170622931Y-95945556D02*
X170694360Y-95981270D01*
X170694360Y-95981270D02*
X170730074Y-96016984D01*
X170730074Y-96016984D02*
X170765788Y-96088413D01*
X170765788Y-96088413D02*
X170765788Y-96195556D01*
X170765788Y-96195556D02*
X170730074Y-96266984D01*
X170730074Y-96266984D02*
X170694360Y-96302699D01*
X170694360Y-96302699D02*
X170622931Y-96338413D01*
X170622931Y-96338413D02*
X170337217Y-96338413D01*
X171230074Y-95945556D02*
X171372931Y-95945556D01*
X171372931Y-95945556D02*
X171444360Y-95981270D01*
X171444360Y-95981270D02*
X171515788Y-96052699D01*
X171515788Y-96052699D02*
X171551503Y-96195556D01*
X171551503Y-96195556D02*
X171551503Y-96445556D01*
X171551503Y-96445556D02*
X171515788Y-96588413D01*
X171515788Y-96588413D02*
X171444360Y-96659842D01*
X171444360Y-96659842D02*
X171372931Y-96695556D01*
X171372931Y-96695556D02*
X171230074Y-96695556D01*
X171230074Y-96695556D02*
X171158646Y-96659842D01*
X171158646Y-96659842D02*
X171087217Y-96588413D01*
X171087217Y-96588413D02*
X171051503Y-96445556D01*
X171051503Y-96445556D02*
X171051503Y-96195556D01*
X171051503Y-96195556D02*
X171087217Y-96052699D01*
X171087217Y-96052699D02*
X171158646Y-95981270D01*
X171158646Y-95981270D02*
X171230074Y-95945556D01*
X171694360Y-96766984D02*
X172265788Y-96766984D01*
X172765789Y-96695556D02*
X172765789Y-95945556D01*
X172765789Y-96659842D02*
X172694360Y-96695556D01*
X172694360Y-96695556D02*
X172551503Y-96695556D01*
X172551503Y-96695556D02*
X172480074Y-96659842D01*
X172480074Y-96659842D02*
X172444360Y-96624127D01*
X172444360Y-96624127D02*
X172408646Y-96552699D01*
X172408646Y-96552699D02*
X172408646Y-96338413D01*
X172408646Y-96338413D02*
X172444360Y-96266984D01*
X172444360Y-96266984D02*
X172480074Y-96231270D01*
X172480074Y-96231270D02*
X172551503Y-96195556D01*
X172551503Y-96195556D02*
X172694360Y-96195556D01*
X172694360Y-96195556D02*
X172765789Y-96231270D01*
X173408645Y-96659842D02*
X173337217Y-96695556D01*
X173337217Y-96695556D02*
X173194360Y-96695556D01*
X173194360Y-96695556D02*
X173122931Y-96659842D01*
X173122931Y-96659842D02*
X173087217Y-96588413D01*
X173087217Y-96588413D02*
X173087217Y-96302699D01*
X173087217Y-96302699D02*
X173122931Y-96231270D01*
X173122931Y-96231270D02*
X173194360Y-96195556D01*
X173194360Y-96195556D02*
X173337217Y-96195556D01*
X173337217Y-96195556D02*
X173408645Y-96231270D01*
X173408645Y-96231270D02*
X173444360Y-96302699D01*
X173444360Y-96302699D02*
X173444360Y-96374127D01*
X173444360Y-96374127D02*
X173087217Y-96445556D01*
X173694359Y-96195556D02*
X173872931Y-96695556D01*
X173872931Y-96695556D02*
X174051502Y-96195556D01*
X169194360Y-97510157D02*
X169301503Y-97545871D01*
X169301503Y-97545871D02*
X169337217Y-97581585D01*
X169337217Y-97581585D02*
X169372931Y-97653014D01*
X169372931Y-97653014D02*
X169372931Y-97760157D01*
X169372931Y-97760157D02*
X169337217Y-97831585D01*
X169337217Y-97831585D02*
X169301503Y-97867300D01*
X169301503Y-97867300D02*
X169230074Y-97903014D01*
X169230074Y-97903014D02*
X168944360Y-97903014D01*
X168944360Y-97903014D02*
X168944360Y-97153014D01*
X168944360Y-97153014D02*
X169194360Y-97153014D01*
X169194360Y-97153014D02*
X169265789Y-97188728D01*
X169265789Y-97188728D02*
X169301503Y-97224442D01*
X169301503Y-97224442D02*
X169337217Y-97295871D01*
X169337217Y-97295871D02*
X169337217Y-97367300D01*
X169337217Y-97367300D02*
X169301503Y-97438728D01*
X169301503Y-97438728D02*
X169265789Y-97474442D01*
X169265789Y-97474442D02*
X169194360Y-97510157D01*
X169194360Y-97510157D02*
X168944360Y-97510157D01*
X169658646Y-97688728D02*
X170015789Y-97688728D01*
X169587217Y-97903014D02*
X169837217Y-97153014D01*
X169837217Y-97153014D02*
X170087217Y-97903014D01*
X170765788Y-97903014D02*
X170515788Y-97545871D01*
X170337217Y-97903014D02*
X170337217Y-97153014D01*
X170337217Y-97153014D02*
X170622931Y-97153014D01*
X170622931Y-97153014D02*
X170694360Y-97188728D01*
X170694360Y-97188728D02*
X170730074Y-97224442D01*
X170730074Y-97224442D02*
X170765788Y-97295871D01*
X170765788Y-97295871D02*
X170765788Y-97403014D01*
X170765788Y-97403014D02*
X170730074Y-97474442D01*
X170730074Y-97474442D02*
X170694360Y-97510157D01*
X170694360Y-97510157D02*
X170622931Y-97545871D01*
X170622931Y-97545871D02*
X170337217Y-97545871D01*
X171230074Y-97153014D02*
X171372931Y-97153014D01*
X171372931Y-97153014D02*
X171444360Y-97188728D01*
X171444360Y-97188728D02*
X171515788Y-97260157D01*
X171515788Y-97260157D02*
X171551503Y-97403014D01*
X171551503Y-97403014D02*
X171551503Y-97653014D01*
X171551503Y-97653014D02*
X171515788Y-97795871D01*
X171515788Y-97795871D02*
X171444360Y-97867300D01*
X171444360Y-97867300D02*
X171372931Y-97903014D01*
X171372931Y-97903014D02*
X171230074Y-97903014D01*
X171230074Y-97903014D02*
X171158646Y-97867300D01*
X171158646Y-97867300D02*
X171087217Y-97795871D01*
X171087217Y-97795871D02*
X171051503Y-97653014D01*
X171051503Y-97653014D02*
X171051503Y-97403014D01*
X171051503Y-97403014D02*
X171087217Y-97260157D01*
X171087217Y-97260157D02*
X171158646Y-97188728D01*
X171158646Y-97188728D02*
X171230074Y-97153014D01*
X171694360Y-97974442D02*
X172265788Y-97974442D01*
X172444360Y-97903014D02*
X172444360Y-97403014D01*
X172444360Y-97545871D02*
X172480074Y-97474442D01*
X172480074Y-97474442D02*
X172515789Y-97438728D01*
X172515789Y-97438728D02*
X172587217Y-97403014D01*
X172587217Y-97403014D02*
X172658646Y-97403014D01*
X173230075Y-97903014D02*
X173230075Y-97510157D01*
X173230075Y-97510157D02*
X173194360Y-97438728D01*
X173194360Y-97438728D02*
X173122932Y-97403014D01*
X173122932Y-97403014D02*
X172980075Y-97403014D01*
X172980075Y-97403014D02*
X172908646Y-97438728D01*
X173230075Y-97867300D02*
X173158646Y-97903014D01*
X173158646Y-97903014D02*
X172980075Y-97903014D01*
X172980075Y-97903014D02*
X172908646Y-97867300D01*
X172908646Y-97867300D02*
X172872932Y-97795871D01*
X172872932Y-97795871D02*
X172872932Y-97724442D01*
X172872932Y-97724442D02*
X172908646Y-97653014D01*
X172908646Y-97653014D02*
X172980075Y-97617300D01*
X172980075Y-97617300D02*
X173158646Y-97617300D01*
X173158646Y-97617300D02*
X173230075Y-97581585D01*
X173515788Y-97403014D02*
X173658646Y-97903014D01*
X173658646Y-97903014D02*
X173801503Y-97545871D01*
X173801503Y-97545871D02*
X173944360Y-97903014D01*
X173944360Y-97903014D02*
X174087217Y-97403014D01*
D11*
X158289579Y-77666666D02*
X158337199Y-77714285D01*
X158337199Y-77714285D02*
X158384818Y-77857142D01*
X158384818Y-77857142D02*
X158384818Y-77952380D01*
X158384818Y-77952380D02*
X158337199Y-78095237D01*
X158337199Y-78095237D02*
X158241960Y-78190475D01*
X158241960Y-78190475D02*
X158146722Y-78238094D01*
X158146722Y-78238094D02*
X157956246Y-78285713D01*
X157956246Y-78285713D02*
X157813389Y-78285713D01*
X157813389Y-78285713D02*
X157622913Y-78238094D01*
X157622913Y-78238094D02*
X157527675Y-78190475D01*
X157527675Y-78190475D02*
X157432437Y-78095237D01*
X157432437Y-78095237D02*
X157384818Y-77952380D01*
X157384818Y-77952380D02*
X157384818Y-77857142D01*
X157384818Y-77857142D02*
X157432437Y-77714285D01*
X157432437Y-77714285D02*
X157480056Y-77666666D01*
X157718151Y-76809523D02*
X158384818Y-76809523D01*
X157337199Y-77047618D02*
X158051484Y-77285713D01*
X158051484Y-77285713D02*
X158051484Y-76666666D01*
X153333333Y-91609580D02*
X153285714Y-91657200D01*
X153285714Y-91657200D02*
X153142857Y-91704819D01*
X153142857Y-91704819D02*
X153047619Y-91704819D01*
X153047619Y-91704819D02*
X152904762Y-91657200D01*
X152904762Y-91657200D02*
X152809524Y-91561961D01*
X152809524Y-91561961D02*
X152761905Y-91466723D01*
X152761905Y-91466723D02*
X152714286Y-91276247D01*
X152714286Y-91276247D02*
X152714286Y-91133390D01*
X152714286Y-91133390D02*
X152761905Y-90942914D01*
X152761905Y-90942914D02*
X152809524Y-90847676D01*
X152809524Y-90847676D02*
X152904762Y-90752438D01*
X152904762Y-90752438D02*
X153047619Y-90704819D01*
X153047619Y-90704819D02*
X153142857Y-90704819D01*
X153142857Y-90704819D02*
X153285714Y-90752438D01*
X153285714Y-90752438D02*
X153333333Y-90800057D01*
X154238095Y-90704819D02*
X153761905Y-90704819D01*
X153761905Y-90704819D02*
X153714286Y-91181009D01*
X153714286Y-91181009D02*
X153761905Y-91133390D01*
X153761905Y-91133390D02*
X153857143Y-91085771D01*
X153857143Y-91085771D02*
X154095238Y-91085771D01*
X154095238Y-91085771D02*
X154190476Y-91133390D01*
X154190476Y-91133390D02*
X154238095Y-91181009D01*
X154238095Y-91181009D02*
X154285714Y-91276247D01*
X154285714Y-91276247D02*
X154285714Y-91514342D01*
X154285714Y-91514342D02*
X154238095Y-91609580D01*
X154238095Y-91609580D02*
X154190476Y-91657200D01*
X154190476Y-91657200D02*
X154095238Y-91704819D01*
X154095238Y-91704819D02*
X153857143Y-91704819D01*
X153857143Y-91704819D02*
X153761905Y-91657200D01*
X153761905Y-91657200D02*
X153714286Y-91609580D01*
X171279817Y-107261666D02*
X170803626Y-107594999D01*
X171279817Y-107833094D02*
X170279817Y-107833094D01*
X170279817Y-107833094D02*
X170279817Y-107452142D01*
X170279817Y-107452142D02*
X170327436Y-107356904D01*
X170327436Y-107356904D02*
X170375055Y-107309285D01*
X170375055Y-107309285D02*
X170470293Y-107261666D01*
X170470293Y-107261666D02*
X170613150Y-107261666D01*
X170613150Y-107261666D02*
X170708388Y-107309285D01*
X170708388Y-107309285D02*
X170756007Y-107356904D01*
X170756007Y-107356904D02*
X170803626Y-107452142D01*
X170803626Y-107452142D02*
X170803626Y-107833094D01*
X170613150Y-106404523D02*
X171279817Y-106404523D01*
X170232198Y-106642618D02*
X170946483Y-106880713D01*
X170946483Y-106880713D02*
X170946483Y-106261666D01*
X140954819Y-89416666D02*
X140478628Y-89749999D01*
X140954819Y-89988094D02*
X139954819Y-89988094D01*
X139954819Y-89988094D02*
X139954819Y-89607142D01*
X139954819Y-89607142D02*
X140002438Y-89511904D01*
X140002438Y-89511904D02*
X140050057Y-89464285D01*
X140050057Y-89464285D02*
X140145295Y-89416666D01*
X140145295Y-89416666D02*
X140288152Y-89416666D01*
X140288152Y-89416666D02*
X140383390Y-89464285D01*
X140383390Y-89464285D02*
X140431009Y-89511904D01*
X140431009Y-89511904D02*
X140478628Y-89607142D01*
X140478628Y-89607142D02*
X140478628Y-89988094D01*
X139954819Y-88559523D02*
X139954819Y-88749999D01*
X139954819Y-88749999D02*
X140002438Y-88845237D01*
X140002438Y-88845237D02*
X140050057Y-88892856D01*
X140050057Y-88892856D02*
X140192914Y-88988094D01*
X140192914Y-88988094D02*
X140383390Y-89035713D01*
X140383390Y-89035713D02*
X140764342Y-89035713D01*
X140764342Y-89035713D02*
X140859580Y-88988094D01*
X140859580Y-88988094D02*
X140907200Y-88940475D01*
X140907200Y-88940475D02*
X140954819Y-88845237D01*
X140954819Y-88845237D02*
X140954819Y-88654761D01*
X140954819Y-88654761D02*
X140907200Y-88559523D01*
X140907200Y-88559523D02*
X140859580Y-88511904D01*
X140859580Y-88511904D02*
X140764342Y-88464285D01*
X140764342Y-88464285D02*
X140526247Y-88464285D01*
X140526247Y-88464285D02*
X140431009Y-88511904D01*
X140431009Y-88511904D02*
X140383390Y-88559523D01*
X140383390Y-88559523D02*
X140335771Y-88654761D01*
X140335771Y-88654761D02*
X140335771Y-88845237D01*
X140335771Y-88845237D02*
X140383390Y-88940475D01*
X140383390Y-88940475D02*
X140431009Y-88988094D01*
X140431009Y-88988094D02*
X140526247Y-89035713D01*
X146191666Y-97384819D02*
X146191666Y-98099104D01*
X146191666Y-98099104D02*
X146144047Y-98241961D01*
X146144047Y-98241961D02*
X146048809Y-98337200D01*
X146048809Y-98337200D02*
X145905952Y-98384819D01*
X145905952Y-98384819D02*
X145810714Y-98384819D01*
X146620238Y-97480057D02*
X146667857Y-97432438D01*
X146667857Y-97432438D02*
X146763095Y-97384819D01*
X146763095Y-97384819D02*
X147001190Y-97384819D01*
X147001190Y-97384819D02*
X147096428Y-97432438D01*
X147096428Y-97432438D02*
X147144047Y-97480057D01*
X147144047Y-97480057D02*
X147191666Y-97575295D01*
X147191666Y-97575295D02*
X147191666Y-97670533D01*
X147191666Y-97670533D02*
X147144047Y-97813390D01*
X147144047Y-97813390D02*
X146572619Y-98384819D01*
X146572619Y-98384819D02*
X147191666Y-98384819D01*
X171389580Y-102261666D02*
X171437200Y-102309285D01*
X171437200Y-102309285D02*
X171484819Y-102452142D01*
X171484819Y-102452142D02*
X171484819Y-102547380D01*
X171484819Y-102547380D02*
X171437200Y-102690237D01*
X171437200Y-102690237D02*
X171341961Y-102785475D01*
X171341961Y-102785475D02*
X171246723Y-102833094D01*
X171246723Y-102833094D02*
X171056247Y-102880713D01*
X171056247Y-102880713D02*
X170913390Y-102880713D01*
X170913390Y-102880713D02*
X170722914Y-102833094D01*
X170722914Y-102833094D02*
X170627676Y-102785475D01*
X170627676Y-102785475D02*
X170532438Y-102690237D01*
X170532438Y-102690237D02*
X170484819Y-102547380D01*
X170484819Y-102547380D02*
X170484819Y-102452142D01*
X170484819Y-102452142D02*
X170532438Y-102309285D01*
X170532438Y-102309285D02*
X170580057Y-102261666D01*
X170913390Y-101690237D02*
X170865771Y-101785475D01*
X170865771Y-101785475D02*
X170818152Y-101833094D01*
X170818152Y-101833094D02*
X170722914Y-101880713D01*
X170722914Y-101880713D02*
X170675295Y-101880713D01*
X170675295Y-101880713D02*
X170580057Y-101833094D01*
X170580057Y-101833094D02*
X170532438Y-101785475D01*
X170532438Y-101785475D02*
X170484819Y-101690237D01*
X170484819Y-101690237D02*
X170484819Y-101499761D01*
X170484819Y-101499761D02*
X170532438Y-101404523D01*
X170532438Y-101404523D02*
X170580057Y-101356904D01*
X170580057Y-101356904D02*
X170675295Y-101309285D01*
X170675295Y-101309285D02*
X170722914Y-101309285D01*
X170722914Y-101309285D02*
X170818152Y-101356904D01*
X170818152Y-101356904D02*
X170865771Y-101404523D01*
X170865771Y-101404523D02*
X170913390Y-101499761D01*
X170913390Y-101499761D02*
X170913390Y-101690237D01*
X170913390Y-101690237D02*
X170961009Y-101785475D01*
X170961009Y-101785475D02*
X171008628Y-101833094D01*
X171008628Y-101833094D02*
X171103866Y-101880713D01*
X171103866Y-101880713D02*
X171294342Y-101880713D01*
X171294342Y-101880713D02*
X171389580Y-101833094D01*
X171389580Y-101833094D02*
X171437200Y-101785475D01*
X171437200Y-101785475D02*
X171484819Y-101690237D01*
X171484819Y-101690237D02*
X171484819Y-101499761D01*
X171484819Y-101499761D02*
X171437200Y-101404523D01*
X171437200Y-101404523D02*
X171389580Y-101356904D01*
X171389580Y-101356904D02*
X171294342Y-101309285D01*
X171294342Y-101309285D02*
X171103866Y-101309285D01*
X171103866Y-101309285D02*
X171008628Y-101356904D01*
X171008628Y-101356904D02*
X170961009Y-101404523D01*
X170961009Y-101404523D02*
X170913390Y-101499761D01*
X141833333Y-95859580D02*
X141785714Y-95907200D01*
X141785714Y-95907200D02*
X141642857Y-95954819D01*
X141642857Y-95954819D02*
X141547619Y-95954819D01*
X141547619Y-95954819D02*
X141404762Y-95907200D01*
X141404762Y-95907200D02*
X141309524Y-95811961D01*
X141309524Y-95811961D02*
X141261905Y-95716723D01*
X141261905Y-95716723D02*
X141214286Y-95526247D01*
X141214286Y-95526247D02*
X141214286Y-95383390D01*
X141214286Y-95383390D02*
X141261905Y-95192914D01*
X141261905Y-95192914D02*
X141309524Y-95097676D01*
X141309524Y-95097676D02*
X141404762Y-95002438D01*
X141404762Y-95002438D02*
X141547619Y-94954819D01*
X141547619Y-94954819D02*
X141642857Y-94954819D01*
X141642857Y-94954819D02*
X141785714Y-95002438D01*
X141785714Y-95002438D02*
X141833333Y-95050057D01*
X142690476Y-94954819D02*
X142500000Y-94954819D01*
X142500000Y-94954819D02*
X142404762Y-95002438D01*
X142404762Y-95002438D02*
X142357143Y-95050057D01*
X142357143Y-95050057D02*
X142261905Y-95192914D01*
X142261905Y-95192914D02*
X142214286Y-95383390D01*
X142214286Y-95383390D02*
X142214286Y-95764342D01*
X142214286Y-95764342D02*
X142261905Y-95859580D01*
X142261905Y-95859580D02*
X142309524Y-95907200D01*
X142309524Y-95907200D02*
X142404762Y-95954819D01*
X142404762Y-95954819D02*
X142595238Y-95954819D01*
X142595238Y-95954819D02*
X142690476Y-95907200D01*
X142690476Y-95907200D02*
X142738095Y-95859580D01*
X142738095Y-95859580D02*
X142785714Y-95764342D01*
X142785714Y-95764342D02*
X142785714Y-95526247D01*
X142785714Y-95526247D02*
X142738095Y-95431009D01*
X142738095Y-95431009D02*
X142690476Y-95383390D01*
X142690476Y-95383390D02*
X142595238Y-95335771D01*
X142595238Y-95335771D02*
X142404762Y-95335771D01*
X142404762Y-95335771D02*
X142309524Y-95383390D01*
X142309524Y-95383390D02*
X142261905Y-95431009D01*
X142261905Y-95431009D02*
X142214286Y-95526247D01*
X140954819Y-85316666D02*
X140478628Y-85649999D01*
X140954819Y-85888094D02*
X139954819Y-85888094D01*
X139954819Y-85888094D02*
X139954819Y-85507142D01*
X139954819Y-85507142D02*
X140002438Y-85411904D01*
X140002438Y-85411904D02*
X140050057Y-85364285D01*
X140050057Y-85364285D02*
X140145295Y-85316666D01*
X140145295Y-85316666D02*
X140288152Y-85316666D01*
X140288152Y-85316666D02*
X140383390Y-85364285D01*
X140383390Y-85364285D02*
X140431009Y-85411904D01*
X140431009Y-85411904D02*
X140478628Y-85507142D01*
X140478628Y-85507142D02*
X140478628Y-85888094D01*
X139954819Y-84411904D02*
X139954819Y-84888094D01*
X139954819Y-84888094D02*
X140431009Y-84935713D01*
X140431009Y-84935713D02*
X140383390Y-84888094D01*
X140383390Y-84888094D02*
X140335771Y-84792856D01*
X140335771Y-84792856D02*
X140335771Y-84554761D01*
X140335771Y-84554761D02*
X140383390Y-84459523D01*
X140383390Y-84459523D02*
X140431009Y-84411904D01*
X140431009Y-84411904D02*
X140526247Y-84364285D01*
X140526247Y-84364285D02*
X140764342Y-84364285D01*
X140764342Y-84364285D02*
X140859580Y-84411904D01*
X140859580Y-84411904D02*
X140907200Y-84459523D01*
X140907200Y-84459523D02*
X140954819Y-84554761D01*
X140954819Y-84554761D02*
X140954819Y-84792856D01*
X140954819Y-84792856D02*
X140907200Y-84888094D01*
X140907200Y-84888094D02*
X140859580Y-84935713D01*
X143488095Y-84704818D02*
X143488095Y-85514341D01*
X143488095Y-85514341D02*
X143535714Y-85609579D01*
X143535714Y-85609579D02*
X143583333Y-85657199D01*
X143583333Y-85657199D02*
X143678571Y-85704818D01*
X143678571Y-85704818D02*
X143869047Y-85704818D01*
X143869047Y-85704818D02*
X143964285Y-85657199D01*
X143964285Y-85657199D02*
X144011904Y-85609579D01*
X144011904Y-85609579D02*
X144059523Y-85514341D01*
X144059523Y-85514341D02*
X144059523Y-84704818D01*
X144488095Y-84800056D02*
X144535714Y-84752437D01*
X144535714Y-84752437D02*
X144630952Y-84704818D01*
X144630952Y-84704818D02*
X144869047Y-84704818D01*
X144869047Y-84704818D02*
X144964285Y-84752437D01*
X144964285Y-84752437D02*
X145011904Y-84800056D01*
X145011904Y-84800056D02*
X145059523Y-84895294D01*
X145059523Y-84895294D02*
X145059523Y-84990532D01*
X145059523Y-84990532D02*
X145011904Y-85133389D01*
X145011904Y-85133389D02*
X144440476Y-85704818D01*
X144440476Y-85704818D02*
X145059523Y-85704818D01*
X166454819Y-93116666D02*
X165978628Y-93449999D01*
X166454819Y-93688094D02*
X165454819Y-93688094D01*
X165454819Y-93688094D02*
X165454819Y-93307142D01*
X165454819Y-93307142D02*
X165502438Y-93211904D01*
X165502438Y-93211904D02*
X165550057Y-93164285D01*
X165550057Y-93164285D02*
X165645295Y-93116666D01*
X165645295Y-93116666D02*
X165788152Y-93116666D01*
X165788152Y-93116666D02*
X165883390Y-93164285D01*
X165883390Y-93164285D02*
X165931009Y-93211904D01*
X165931009Y-93211904D02*
X165978628Y-93307142D01*
X165978628Y-93307142D02*
X165978628Y-93688094D01*
X165550057Y-92735713D02*
X165502438Y-92688094D01*
X165502438Y-92688094D02*
X165454819Y-92592856D01*
X165454819Y-92592856D02*
X165454819Y-92354761D01*
X165454819Y-92354761D02*
X165502438Y-92259523D01*
X165502438Y-92259523D02*
X165550057Y-92211904D01*
X165550057Y-92211904D02*
X165645295Y-92164285D01*
X165645295Y-92164285D02*
X165740533Y-92164285D01*
X165740533Y-92164285D02*
X165883390Y-92211904D01*
X165883390Y-92211904D02*
X166454819Y-92783332D01*
X166454819Y-92783332D02*
X166454819Y-92164285D01*
X155929579Y-84916664D02*
X155977199Y-84964283D01*
X155977199Y-84964283D02*
X156024818Y-85107140D01*
X156024818Y-85107140D02*
X156024818Y-85202378D01*
X156024818Y-85202378D02*
X155977199Y-85345235D01*
X155977199Y-85345235D02*
X155881960Y-85440473D01*
X155881960Y-85440473D02*
X155786722Y-85488092D01*
X155786722Y-85488092D02*
X155596246Y-85535711D01*
X155596246Y-85535711D02*
X155453389Y-85535711D01*
X155453389Y-85535711D02*
X155262913Y-85488092D01*
X155262913Y-85488092D02*
X155167675Y-85440473D01*
X155167675Y-85440473D02*
X155072437Y-85345235D01*
X155072437Y-85345235D02*
X155024818Y-85202378D01*
X155024818Y-85202378D02*
X155024818Y-85107140D01*
X155024818Y-85107140D02*
X155072437Y-84964283D01*
X155072437Y-84964283D02*
X155120056Y-84916664D01*
X156024818Y-83964283D02*
X156024818Y-84535711D01*
X156024818Y-84249997D02*
X155024818Y-84249997D01*
X155024818Y-84249997D02*
X155167675Y-84345235D01*
X155167675Y-84345235D02*
X155262913Y-84440473D01*
X155262913Y-84440473D02*
X155310532Y-84535711D01*
X168254819Y-93166666D02*
X167778628Y-93499999D01*
X168254819Y-93738094D02*
X167254819Y-93738094D01*
X167254819Y-93738094D02*
X167254819Y-93357142D01*
X167254819Y-93357142D02*
X167302438Y-93261904D01*
X167302438Y-93261904D02*
X167350057Y-93214285D01*
X167350057Y-93214285D02*
X167445295Y-93166666D01*
X167445295Y-93166666D02*
X167588152Y-93166666D01*
X167588152Y-93166666D02*
X167683390Y-93214285D01*
X167683390Y-93214285D02*
X167731009Y-93261904D01*
X167731009Y-93261904D02*
X167778628Y-93357142D01*
X167778628Y-93357142D02*
X167778628Y-93738094D01*
X167254819Y-92833332D02*
X167254819Y-92214285D01*
X167254819Y-92214285D02*
X167635771Y-92547618D01*
X167635771Y-92547618D02*
X167635771Y-92404761D01*
X167635771Y-92404761D02*
X167683390Y-92309523D01*
X167683390Y-92309523D02*
X167731009Y-92261904D01*
X167731009Y-92261904D02*
X167826247Y-92214285D01*
X167826247Y-92214285D02*
X168064342Y-92214285D01*
X168064342Y-92214285D02*
X168159580Y-92261904D01*
X168159580Y-92261904D02*
X168207200Y-92309523D01*
X168207200Y-92309523D02*
X168254819Y-92404761D01*
X168254819Y-92404761D02*
X168254819Y-92690475D01*
X168254819Y-92690475D02*
X168207200Y-92785713D01*
X168207200Y-92785713D02*
X168159580Y-92833332D01*
X164454818Y-93166665D02*
X163978627Y-93499998D01*
X164454818Y-93738093D02*
X163454818Y-93738093D01*
X163454818Y-93738093D02*
X163454818Y-93357141D01*
X163454818Y-93357141D02*
X163502437Y-93261903D01*
X163502437Y-93261903D02*
X163550056Y-93214284D01*
X163550056Y-93214284D02*
X163645294Y-93166665D01*
X163645294Y-93166665D02*
X163788151Y-93166665D01*
X163788151Y-93166665D02*
X163883389Y-93214284D01*
X163883389Y-93214284D02*
X163931008Y-93261903D01*
X163931008Y-93261903D02*
X163978627Y-93357141D01*
X163978627Y-93357141D02*
X163978627Y-93738093D01*
X164454818Y-92214284D02*
X164454818Y-92785712D01*
X164454818Y-92499998D02*
X163454818Y-92499998D01*
X163454818Y-92499998D02*
X163597675Y-92595236D01*
X163597675Y-92595236D02*
X163692913Y-92690474D01*
X163692913Y-92690474D02*
X163740532Y-92785712D01*
X163798095Y-109489820D02*
X163798095Y-110299343D01*
X163798095Y-110299343D02*
X163845714Y-110394581D01*
X163845714Y-110394581D02*
X163893333Y-110442201D01*
X163893333Y-110442201D02*
X163988571Y-110489820D01*
X163988571Y-110489820D02*
X164179047Y-110489820D01*
X164179047Y-110489820D02*
X164274285Y-110442201D01*
X164274285Y-110442201D02*
X164321904Y-110394581D01*
X164321904Y-110394581D02*
X164369523Y-110299343D01*
X164369523Y-110299343D02*
X164369523Y-109489820D01*
X164750476Y-109489820D02*
X165369523Y-109489820D01*
X165369523Y-109489820D02*
X165036190Y-109870772D01*
X165036190Y-109870772D02*
X165179047Y-109870772D01*
X165179047Y-109870772D02*
X165274285Y-109918391D01*
X165274285Y-109918391D02*
X165321904Y-109966010D01*
X165321904Y-109966010D02*
X165369523Y-110061248D01*
X165369523Y-110061248D02*
X165369523Y-110299343D01*
X165369523Y-110299343D02*
X165321904Y-110394581D01*
X165321904Y-110394581D02*
X165274285Y-110442201D01*
X165274285Y-110442201D02*
X165179047Y-110489820D01*
X165179047Y-110489820D02*
X164893333Y-110489820D01*
X164893333Y-110489820D02*
X164798095Y-110442201D01*
X164798095Y-110442201D02*
X164750476Y-110394581D01*
X152583333Y-85109580D02*
X152535714Y-85157200D01*
X152535714Y-85157200D02*
X152392857Y-85204819D01*
X152392857Y-85204819D02*
X152297619Y-85204819D01*
X152297619Y-85204819D02*
X152154762Y-85157200D01*
X152154762Y-85157200D02*
X152059524Y-85061961D01*
X152059524Y-85061961D02*
X152011905Y-84966723D01*
X152011905Y-84966723D02*
X151964286Y-84776247D01*
X151964286Y-84776247D02*
X151964286Y-84633390D01*
X151964286Y-84633390D02*
X152011905Y-84442914D01*
X152011905Y-84442914D02*
X152059524Y-84347676D01*
X152059524Y-84347676D02*
X152154762Y-84252438D01*
X152154762Y-84252438D02*
X152297619Y-84204819D01*
X152297619Y-84204819D02*
X152392857Y-84204819D01*
X152392857Y-84204819D02*
X152535714Y-84252438D01*
X152535714Y-84252438D02*
X152583333Y-84300057D01*
X152916667Y-84204819D02*
X153535714Y-84204819D01*
X153535714Y-84204819D02*
X153202381Y-84585771D01*
X153202381Y-84585771D02*
X153345238Y-84585771D01*
X153345238Y-84585771D02*
X153440476Y-84633390D01*
X153440476Y-84633390D02*
X153488095Y-84681009D01*
X153488095Y-84681009D02*
X153535714Y-84776247D01*
X153535714Y-84776247D02*
X153535714Y-85014342D01*
X153535714Y-85014342D02*
X153488095Y-85109580D01*
X153488095Y-85109580D02*
X153440476Y-85157200D01*
X153440476Y-85157200D02*
X153345238Y-85204819D01*
X153345238Y-85204819D02*
X153059524Y-85204819D01*
X153059524Y-85204819D02*
X152964286Y-85157200D01*
X152964286Y-85157200D02*
X152916667Y-85109580D01*
X136204819Y-86738094D02*
X135204819Y-86738094D01*
X135204819Y-86738094D02*
X135204819Y-86499999D01*
X135204819Y-86499999D02*
X135252438Y-86357142D01*
X135252438Y-86357142D02*
X135347676Y-86261904D01*
X135347676Y-86261904D02*
X135442914Y-86214285D01*
X135442914Y-86214285D02*
X135633390Y-86166666D01*
X135633390Y-86166666D02*
X135776247Y-86166666D01*
X135776247Y-86166666D02*
X135966723Y-86214285D01*
X135966723Y-86214285D02*
X136061961Y-86261904D01*
X136061961Y-86261904D02*
X136157200Y-86357142D01*
X136157200Y-86357142D02*
X136204819Y-86499999D01*
X136204819Y-86499999D02*
X136204819Y-86738094D01*
X135204819Y-85833332D02*
X135204819Y-85214285D01*
X135204819Y-85214285D02*
X135585771Y-85547618D01*
X135585771Y-85547618D02*
X135585771Y-85404761D01*
X135585771Y-85404761D02*
X135633390Y-85309523D01*
X135633390Y-85309523D02*
X135681009Y-85261904D01*
X135681009Y-85261904D02*
X135776247Y-85214285D01*
X135776247Y-85214285D02*
X136014342Y-85214285D01*
X136014342Y-85214285D02*
X136109580Y-85261904D01*
X136109580Y-85261904D02*
X136157200Y-85309523D01*
X136157200Y-85309523D02*
X136204819Y-85404761D01*
X136204819Y-85404761D02*
X136204819Y-85690475D01*
X136204819Y-85690475D02*
X136157200Y-85785713D01*
X136157200Y-85785713D02*
X136109580Y-85833332D01*
X172561905Y-92054819D02*
X172561905Y-91054819D01*
X172561905Y-91054819D02*
X172800000Y-91054819D01*
X172800000Y-91054819D02*
X172942857Y-91102438D01*
X172942857Y-91102438D02*
X173038095Y-91197676D01*
X173038095Y-91197676D02*
X173085714Y-91292914D01*
X173085714Y-91292914D02*
X173133333Y-91483390D01*
X173133333Y-91483390D02*
X173133333Y-91626247D01*
X173133333Y-91626247D02*
X173085714Y-91816723D01*
X173085714Y-91816723D02*
X173038095Y-91911961D01*
X173038095Y-91911961D02*
X172942857Y-92007200D01*
X172942857Y-92007200D02*
X172800000Y-92054819D01*
X172800000Y-92054819D02*
X172561905Y-92054819D01*
X174085714Y-92054819D02*
X173514286Y-92054819D01*
X173800000Y-92054819D02*
X173800000Y-91054819D01*
X173800000Y-91054819D02*
X173704762Y-91197676D01*
X173704762Y-91197676D02*
X173609524Y-91292914D01*
X173609524Y-91292914D02*
X173514286Y-91340533D01*
X149488095Y-74204819D02*
X149488095Y-75014342D01*
X149488095Y-75014342D02*
X149535714Y-75109580D01*
X149535714Y-75109580D02*
X149583333Y-75157200D01*
X149583333Y-75157200D02*
X149678571Y-75204819D01*
X149678571Y-75204819D02*
X149869047Y-75204819D01*
X149869047Y-75204819D02*
X149964285Y-75157200D01*
X149964285Y-75157200D02*
X150011904Y-75109580D01*
X150011904Y-75109580D02*
X150059523Y-75014342D01*
X150059523Y-75014342D02*
X150059523Y-74204819D01*
X150964285Y-74538152D02*
X150964285Y-75204819D01*
X150726190Y-74157200D02*
X150488095Y-74871485D01*
X150488095Y-74871485D02*
X151107142Y-74871485D01*
X136204819Y-90938094D02*
X135204819Y-90938094D01*
X135204819Y-90938094D02*
X135204819Y-90699999D01*
X135204819Y-90699999D02*
X135252438Y-90557142D01*
X135252438Y-90557142D02*
X135347676Y-90461904D01*
X135347676Y-90461904D02*
X135442914Y-90414285D01*
X135442914Y-90414285D02*
X135633390Y-90366666D01*
X135633390Y-90366666D02*
X135776247Y-90366666D01*
X135776247Y-90366666D02*
X135966723Y-90414285D01*
X135966723Y-90414285D02*
X136061961Y-90461904D01*
X136061961Y-90461904D02*
X136157200Y-90557142D01*
X136157200Y-90557142D02*
X136204819Y-90699999D01*
X136204819Y-90699999D02*
X136204819Y-90938094D01*
X135300057Y-89985713D02*
X135252438Y-89938094D01*
X135252438Y-89938094D02*
X135204819Y-89842856D01*
X135204819Y-89842856D02*
X135204819Y-89604761D01*
X135204819Y-89604761D02*
X135252438Y-89509523D01*
X135252438Y-89509523D02*
X135300057Y-89461904D01*
X135300057Y-89461904D02*
X135395295Y-89414285D01*
X135395295Y-89414285D02*
X135490533Y-89414285D01*
X135490533Y-89414285D02*
X135633390Y-89461904D01*
X135633390Y-89461904D02*
X136204819Y-90033332D01*
X136204819Y-90033332D02*
X136204819Y-89414285D01*
X163988095Y-80324819D02*
X163988095Y-81134342D01*
X163988095Y-81134342D02*
X164035714Y-81229580D01*
X164035714Y-81229580D02*
X164083333Y-81277200D01*
X164083333Y-81277200D02*
X164178571Y-81324819D01*
X164178571Y-81324819D02*
X164369047Y-81324819D01*
X164369047Y-81324819D02*
X164464285Y-81277200D01*
X164464285Y-81277200D02*
X164511904Y-81229580D01*
X164511904Y-81229580D02*
X164559523Y-81134342D01*
X164559523Y-81134342D02*
X164559523Y-80324819D01*
X165559523Y-81324819D02*
X164988095Y-81324819D01*
X165273809Y-81324819D02*
X165273809Y-80324819D01*
X165273809Y-80324819D02*
X165178571Y-80467676D01*
X165178571Y-80467676D02*
X165083333Y-80562914D01*
X165083333Y-80562914D02*
X164988095Y-80610533D01*
X162359579Y-93166665D02*
X162407199Y-93214284D01*
X162407199Y-93214284D02*
X162454818Y-93357141D01*
X162454818Y-93357141D02*
X162454818Y-93452379D01*
X162454818Y-93452379D02*
X162407199Y-93595236D01*
X162407199Y-93595236D02*
X162311960Y-93690474D01*
X162311960Y-93690474D02*
X162216722Y-93738093D01*
X162216722Y-93738093D02*
X162026246Y-93785712D01*
X162026246Y-93785712D02*
X161883389Y-93785712D01*
X161883389Y-93785712D02*
X161692913Y-93738093D01*
X161692913Y-93738093D02*
X161597675Y-93690474D01*
X161597675Y-93690474D02*
X161502437Y-93595236D01*
X161502437Y-93595236D02*
X161454818Y-93452379D01*
X161454818Y-93452379D02*
X161454818Y-93357141D01*
X161454818Y-93357141D02*
X161502437Y-93214284D01*
X161502437Y-93214284D02*
X161550056Y-93166665D01*
X161550056Y-92785712D02*
X161502437Y-92738093D01*
X161502437Y-92738093D02*
X161454818Y-92642855D01*
X161454818Y-92642855D02*
X161454818Y-92404760D01*
X161454818Y-92404760D02*
X161502437Y-92309522D01*
X161502437Y-92309522D02*
X161550056Y-92261903D01*
X161550056Y-92261903D02*
X161645294Y-92214284D01*
X161645294Y-92214284D02*
X161740532Y-92214284D01*
X161740532Y-92214284D02*
X161883389Y-92261903D01*
X161883389Y-92261903D02*
X162454818Y-92833331D01*
X162454818Y-92833331D02*
X162454818Y-92214284D01*
D12*
X176789999Y-90390000D02*
X176790000Y-92190000D01*
X176789999Y-100110000D02*
X176790000Y-98310000D01*
X176790000Y-98310000D02*
X175800000Y-98310000D01*
X178240000Y-90390000D02*
X176789999Y-90390000D01*
X178240000Y-100110000D02*
X176789999Y-100110000D01*
X181060000Y-98840000D02*
X181060000Y-91660000D01*
X155515000Y-77238747D02*
X155515000Y-77761253D01*
X156985000Y-77238747D02*
X156985000Y-77761253D01*
X152765000Y-88488747D02*
X152765000Y-89011253D01*
X154235000Y-88488747D02*
X154235000Y-89011253D01*
X168872498Y-106840276D02*
X168872498Y-107349724D01*
X169917498Y-106840276D02*
X169917498Y-107349724D01*
X138477500Y-88337742D02*
X138477500Y-88812258D01*
X139522500Y-88337742D02*
X139522500Y-88812258D01*
X145195000Y-101970000D02*
X145195000Y-109650000D01*
X145195000Y-101970000D02*
X147855000Y-101970000D01*
X145195000Y-109650000D02*
X147855000Y-109650000D01*
X146525000Y-99370000D02*
X147855000Y-99370000D01*
X147855000Y-99370000D02*
X147855000Y-100700000D01*
X147855000Y-101970000D02*
X147855000Y-109650000D01*
X169090000Y-101954419D02*
X169090000Y-102235581D01*
X170110000Y-101954419D02*
X170110000Y-102235581D01*
X141265000Y-93261253D02*
X141265000Y-92738747D01*
X142735000Y-93261253D02*
X142735000Y-92738747D01*
X138477500Y-84162742D02*
X138477500Y-84637258D01*
X139522500Y-84162742D02*
X139522500Y-84637258D01*
X133440001Y-93535000D02*
X133440001Y-96965000D01*
X136260000Y-92265000D02*
X137710000Y-92265000D01*
X136260000Y-98235000D02*
X137710000Y-98235000D01*
X137710000Y-92265000D02*
X137710000Y-94065000D01*
X137710000Y-94065000D02*
X138700000Y-94065000D01*
X137710000Y-98235000D02*
X137710000Y-96435000D01*
X145900000Y-86339999D02*
X149660000Y-86340000D01*
X145900000Y-93160001D02*
X149660000Y-93160000D01*
X149660000Y-86340000D02*
X149660000Y-87599999D01*
X149660000Y-93160000D02*
X149660000Y-91900001D01*
X144620000Y-86440000D02*
X144380000Y-86110000D01*
X144860000Y-86110000D01*
X144620000Y-86440000D01*
G36*
X144620000Y-86440000D02*
G01*
X144380000Y-86110000D01*
X144860000Y-86110000D01*
X144620000Y-86440000D01*
G37*
X165677500Y-90454724D02*
X165677500Y-89945276D01*
X166722500Y-90454724D02*
X166722500Y-89945276D01*
X156489999Y-84890579D02*
X156489999Y-84609417D01*
X157509999Y-84890579D02*
X157509999Y-84609417D01*
X167677500Y-89945276D02*
X167677500Y-90454724D01*
X168722500Y-89945276D02*
X168722500Y-90454724D01*
X163477499Y-90504723D02*
X163477499Y-89995275D01*
X164522499Y-90504723D02*
X164522499Y-89995275D01*
X161980000Y-101340001D02*
X161980000Y-102635000D01*
X161980000Y-107835000D02*
X161980000Y-109030000D01*
X167140000Y-101340001D02*
X161980000Y-101340001D01*
X167140000Y-101340001D02*
X167140000Y-102685000D01*
X167140000Y-108034999D02*
X167140000Y-109030000D01*
X167140000Y-109030000D02*
X161980000Y-109030000D01*
X167900000Y-108315000D02*
X167420000Y-108314999D01*
X167660000Y-107985000D01*
X167900000Y-108315000D01*
G36*
X167900000Y-108315000D02*
G01*
X167420000Y-108314999D01*
X167660000Y-107985000D01*
X167900000Y-108315000D01*
G37*
X149738747Y-84015000D02*
X150261253Y-84015000D01*
X149738747Y-85485000D02*
X150261253Y-85485000D01*
X136515000Y-83600000D02*
X136515000Y-85885000D01*
X136515000Y-85885000D02*
X137985000Y-85885000D01*
X137985000Y-85885000D02*
X137985000Y-83600000D01*
X172590000Y-92690000D02*
X174000000Y-92690000D01*
X172600000Y-95010000D02*
X174000000Y-95010000D01*
X172220000Y-92740000D02*
X171980000Y-92410000D01*
X172460000Y-92410000D01*
X172220000Y-92740000D01*
G36*
X172220000Y-92740000D02*
G01*
X171980000Y-92410000D01*
X172460000Y-92410000D01*
X172220000Y-92740000D01*
G37*
X148400000Y-75840000D02*
X152160000Y-75840000D01*
X148400000Y-82660000D02*
X152160000Y-82660000D01*
X152160000Y-75840000D02*
X152160000Y-77100000D01*
X152160000Y-82660000D02*
X152160000Y-81400000D01*
X147120000Y-75940000D02*
X146880000Y-75610000D01*
X147360000Y-75610000D01*
X147120000Y-75940000D01*
G36*
X147120000Y-75940000D02*
G01*
X146880000Y-75610000D01*
X147360000Y-75610000D01*
X147120000Y-75940000D01*
G37*
X136514999Y-87775000D02*
X136514999Y-90060000D01*
X136514999Y-90060000D02*
X137984999Y-90060000D01*
X137984999Y-90060000D02*
X137984999Y-87775000D01*
X160890000Y-81715000D02*
X160890000Y-82285000D01*
X160890000Y-87785000D02*
X160890000Y-87215000D01*
X164750000Y-81715000D02*
X160890000Y-81715000D01*
X164750000Y-81715000D02*
X168610000Y-81715000D01*
X164750000Y-87785000D02*
X160890000Y-87785000D01*
X164750000Y-87785000D02*
X168610000Y-87785000D01*
X168610000Y-81715000D02*
X168610000Y-82285000D01*
X168610000Y-87785000D02*
X168610000Y-87215000D01*
X159762500Y-82285000D02*
X159522500Y-81955000D01*
X160002500Y-81955000D01*
X159762500Y-82285000D01*
G36*
X159762500Y-82285000D02*
G01*
X159522500Y-81955000D01*
X160002500Y-81955000D01*
X159762500Y-82285000D01*
G37*
X161489999Y-90103732D02*
X161489999Y-90396266D01*
X162509999Y-90103732D02*
X162509999Y-90396266D01*
%LPC*%
D13*
X176650000Y-97749999D03*
X176650000Y-96500000D03*
X176649999Y-95250000D03*
X176650000Y-94000000D03*
X176650000Y-92750001D03*
D14*
X179850000Y-99600000D03*
X179850000Y-90900000D03*
D15*
X156250000Y-76550001D03*
X156250000Y-78449999D03*
X153500000Y-87800001D03*
X153500000Y-89699999D03*
D16*
X169394998Y-106182500D03*
X169394998Y-108007500D03*
D17*
X139000000Y-87750000D03*
X139000000Y-89400000D03*
D18*
X146525000Y-100700000D03*
D19*
X146525000Y-103240000D03*
X146525000Y-105780000D03*
X146525000Y-108320000D03*
D20*
X169600000Y-101320000D03*
X169600000Y-102870000D03*
D21*
X142000000Y-93949999D03*
X142000000Y-92050001D03*
D17*
X139000000Y-83575000D03*
X139000000Y-85225000D03*
D22*
X173343488Y-111163150D03*
D23*
X137850000Y-94625000D03*
X137850000Y-95875000D03*
D24*
X134650000Y-92775000D03*
X134650000Y-97725000D03*
D22*
X141523683Y-79343345D03*
D25*
X144600000Y-87450000D03*
X144600001Y-89750000D03*
D26*
X150899999Y-89750000D03*
D25*
X144600000Y-92050000D03*
D27*
X166200000Y-91112500D03*
X166200000Y-89287500D03*
D28*
X156999999Y-85524998D03*
X156999999Y-83974998D03*
D16*
X168200000Y-89287500D03*
X168200000Y-91112500D03*
D27*
X163999999Y-91162499D03*
X163999999Y-89337499D03*
D29*
X167199999Y-107140000D03*
D30*
X167200000Y-105870000D03*
X167200000Y-104600000D03*
X167199999Y-103330000D03*
X161920001Y-103330000D03*
X161920000Y-104600000D03*
X161920000Y-105870000D03*
X161920001Y-107140000D03*
D31*
X149050001Y-84750000D03*
X150949999Y-84750000D03*
D32*
X137250000Y-85187501D03*
X137250000Y-83612499D03*
D33*
X172350000Y-93200000D03*
X172350000Y-93850000D03*
X172350000Y-94500000D03*
X174250000Y-94500000D03*
X174250000Y-93850000D03*
X174250000Y-93200000D03*
D25*
X147100000Y-76950000D03*
X147100000Y-79250000D03*
D26*
X153400000Y-79250000D03*
D25*
X147100000Y-81550000D03*
D22*
X173343488Y-79343345D03*
D32*
X137249999Y-89362501D03*
X137249999Y-87787499D03*
D34*
X159425000Y-82845000D03*
X159425000Y-84115000D03*
X159425000Y-85385000D03*
X159425000Y-86655000D03*
X170075000Y-86655000D03*
X170075000Y-85385000D03*
X170075000Y-84115000D03*
X170075000Y-82845000D03*
D35*
X161999999Y-89387498D03*
X161999999Y-91112500D03*
D22*
X141523683Y-111163150D03*
D36*
X139700000Y-90660000D03*
X139700000Y-103360000D03*
X152400000Y-103360000D03*
X156400000Y-75000000D03*
X165100000Y-113520000D03*
X144780000Y-108440000D03*
X154940000Y-113520000D03*
X180340000Y-98280000D03*
X175260000Y-105900000D03*
X160020000Y-93200000D03*
X177800000Y-83040000D03*
X167640000Y-95740000D03*
X152400000Y-93200000D03*
X147800000Y-84400000D03*
X165900000Y-79800000D03*
X160020000Y-95740000D03*
X172720000Y-85580000D03*
X142240000Y-100820000D03*
X160020000Y-75420000D03*
X137000000Y-90600000D03*
X143400000Y-95000000D03*
X152400000Y-83040000D03*
X167640000Y-77960000D03*
X139700000Y-98280000D03*
X154940000Y-72880000D03*
X160800000Y-91400000D03*
X144780000Y-100820000D03*
X165100000Y-72880000D03*
X157200000Y-86600000D03*
X162560000Y-113520000D03*
X137000000Y-86400000D03*
X157480000Y-105900000D03*
X162560000Y-75420000D03*
X137160000Y-103360000D03*
X152400000Y-116060000D03*
X145000000Y-76600000D03*
X142600000Y-87600000D03*
X160020000Y-88120000D03*
X149860000Y-72880000D03*
X165100000Y-116060000D03*
X165100000Y-75420000D03*
X142240000Y-85580000D03*
X177800000Y-103360000D03*
X154940000Y-108440000D03*
X149860000Y-113520000D03*
X154940000Y-98280000D03*
X177800000Y-85580000D03*
X149860000Y-101600000D03*
X147320000Y-98280000D03*
X162560000Y-77960000D03*
X160020000Y-98280000D03*
X169000000Y-100000000D03*
X142240000Y-90660000D03*
X162560000Y-80500000D03*
X170180000Y-77960000D03*
X154940000Y-116060000D03*
X175260000Y-85580000D03*
X167640000Y-75420000D03*
X157480000Y-95740000D03*
X134620000Y-90660000D03*
X172720000Y-88120000D03*
X162900000Y-94400000D03*
X177800000Y-105900000D03*
X139700000Y-105900000D03*
X157480000Y-108440000D03*
X167640000Y-80500000D03*
X152400000Y-113520000D03*
X149860000Y-95740000D03*
X149860000Y-116060000D03*
X167640000Y-113520000D03*
X160020000Y-116060000D03*
X175260000Y-83040000D03*
X165100000Y-77960000D03*
X134620000Y-100820000D03*
X144780000Y-103360000D03*
X147320000Y-116060000D03*
X147320000Y-93200000D03*
X147320000Y-113520000D03*
X175260000Y-108440000D03*
X149860000Y-93200000D03*
X172720000Y-83040000D03*
X142240000Y-98280000D03*
X147320000Y-88120000D03*
X149800000Y-109300000D03*
X157480000Y-118600000D03*
X157480000Y-90660000D03*
X139700000Y-108440000D03*
X137160000Y-105900000D03*
X137160000Y-100820000D03*
X171200000Y-94400000D03*
X137160000Y-98280000D03*
X165100000Y-95740000D03*
X170180000Y-75420000D03*
X148500000Y-74900000D03*
X144780000Y-98280000D03*
X170600000Y-108800000D03*
X142240000Y-103360000D03*
X144780000Y-110980000D03*
X177800000Y-88120000D03*
X147320000Y-95740000D03*
X157480000Y-93200000D03*
X162560000Y-72880000D03*
X167640000Y-116060000D03*
X137160000Y-93200000D03*
X170180000Y-80500000D03*
X180340000Y-93200000D03*
X139800000Y-96200000D03*
X157480000Y-100820000D03*
X157480000Y-88120000D03*
X154940000Y-103360000D03*
X162560000Y-95740000D03*
X160020000Y-72880000D03*
X160020000Y-113520000D03*
X169400000Y-89000000D03*
X175260000Y-88120000D03*
X162560000Y-116060000D03*
X144780000Y-113520000D03*
X149860000Y-77960000D03*
X154940000Y-118600000D03*
X152400000Y-108440000D03*
X160020000Y-118600000D03*
X175000000Y-91800000D03*
X160020000Y-80500000D03*
X144780000Y-105900000D03*
X157480000Y-72880000D03*
X134620000Y-95740000D03*
X157480000Y-113520000D03*
X142240000Y-108440000D03*
X142240000Y-105900000D03*
X152400000Y-72880000D03*
X157480000Y-98280000D03*
X152400000Y-75420000D03*
X139700000Y-100820000D03*
X146300000Y-85500000D03*
X170180000Y-113520000D03*
X157480000Y-116060000D03*
X149400000Y-100000000D03*
X158800000Y-79000000D03*
X158400000Y-104200000D03*
X178800000Y-95200000D03*
X172000000Y-106000000D03*
%LPD*%
M02*
