M48
; DRILL file {KiCad 8.0.1} date 2024-06-09T19:47:22+0500
; FORMAT={-:-/ absolute / metric / decimal}
; #@! TF.CreationDate,2024-06-09T19:47:22+05:00
; #@! TF.GenerationSoftware,Kicad,Pcbnew,8.0.1
; #@! TF.FileFunction,Plated,1,4,PTH
FMAT,2
METRIC
; #@! TA.AperFunction,Plated,PTH,ViaDrill
T1C0.300
; #@! TA.AperFunction,Plated,PTH,ComponentDrill
T2C1.000
%
G90
G05
T1
X134.62Y-90.66
X134.62Y-95.74
X134.62Y-100.82
X137.0Y-86.4
X137.0Y-90.6
X137.16Y-93.2
X137.16Y-98.28
X137.16Y-100.82
X137.16Y-103.36
X137.16Y-105.9
X139.7Y-90.66
X139.7Y-98.28
X139.7Y-100.82
X139.7Y-103.36
X139.7Y-105.9
X139.7Y-108.44
X139.8Y-96.2
X142.24Y-85.58
X142.24Y-90.66
X142.24Y-98.28
X142.24Y-100.82
X142.24Y-103.36
X142.24Y-105.9
X142.24Y-108.44
X142.6Y-87.6
X143.4Y-95.0
X144.78Y-98.28
X144.78Y-100.82
X144.78Y-103.36
X144.78Y-105.9
X144.78Y-108.44
X144.78Y-110.98
X144.78Y-113.52
X145.0Y-76.6
X146.3Y-85.5
X147.32Y-88.12
X147.32Y-93.2
X147.32Y-95.74
X147.32Y-98.28
X147.32Y-113.52
X147.32Y-116.06
X147.8Y-84.4
X148.5Y-74.9
X149.4Y-100.0
X149.8Y-109.3
X149.86Y-72.88
X149.86Y-77.96
X149.86Y-93.2
X149.86Y-95.74
X149.86Y-101.6
X149.86Y-113.52
X149.86Y-116.06
X152.4Y-72.88
X152.4Y-75.42
X152.4Y-83.04
X152.4Y-93.2
X152.4Y-103.36
X152.4Y-108.44
X152.4Y-113.52
X152.4Y-116.06
X154.94Y-72.88
X154.94Y-98.28
X154.94Y-103.36
X154.94Y-108.44
X154.94Y-113.52
X154.94Y-116.06
X154.94Y-118.6
X156.4Y-75.0
X157.2Y-86.6
X157.48Y-72.88
X157.48Y-88.12
X157.48Y-90.66
X157.48Y-93.2
X157.48Y-95.74
X157.48Y-98.28
X157.48Y-100.82
X157.48Y-105.9
X157.48Y-108.44
X157.48Y-113.52
X157.48Y-116.06
X157.48Y-118.6
X158.4Y-104.2
X158.8Y-79.0
X160.02Y-72.88
X160.02Y-75.42
X160.02Y-80.5
X160.02Y-88.12
X160.02Y-93.2
X160.02Y-95.74
X160.02Y-98.28
X160.02Y-113.52
X160.02Y-116.06
X160.02Y-118.6
X160.8Y-91.4
X162.56Y-72.88
X162.56Y-75.42
X162.56Y-77.96
X162.56Y-80.5
X162.56Y-95.74
X162.56Y-113.52
X162.56Y-116.06
X162.9Y-94.4
X165.1Y-72.88
X165.1Y-75.42
X165.1Y-77.96
X165.1Y-95.74
X165.1Y-113.52
X165.1Y-116.06
X165.9Y-79.8
X167.64Y-75.42
X167.64Y-77.96
X167.64Y-80.5
X167.64Y-95.74
X167.64Y-113.52
X167.64Y-116.06
X169.0Y-100.0
X169.4Y-89.0
X170.18Y-75.42
X170.18Y-77.96
X170.18Y-80.5
X170.18Y-113.52
X170.6Y-108.8
X171.2Y-94.4
X172.0Y-106.0
X172.72Y-83.04
X172.72Y-85.58
X172.72Y-88.12
X175.0Y-91.8
X175.26Y-83.04
X175.26Y-85.58
X175.26Y-88.12
X175.26Y-105.9
X175.26Y-108.44
X177.8Y-83.04
X177.8Y-85.58
X177.8Y-88.12
X177.8Y-103.36
X177.8Y-105.9
X178.8Y-95.2
X180.34Y-93.2
X180.34Y-98.28
T2
X146.525Y-100.7
X146.525Y-103.24
X146.525Y-105.78
X146.525Y-108.32
M30
