G04 #@! TF.GenerationSoftware,KiCad,Pcbnew,8.0.1*
G04 #@! TF.CreationDate,2024-06-09T19:47:04+05:00*
G04 #@! TF.ProjectId,rocket_project,726f636b-6574-45f7-9072-6f6a6563742e,rev?*
G04 #@! TF.SameCoordinates,Original*
G04 #@! TF.FileFunction,Soldermask,Bot*
G04 #@! TF.FilePolarity,Negative*
%FSLAX46Y46*%
G04 Gerber Fmt 4.6, Leading zero omitted, Abs format (unit mm)*
G04 Created by KiCad (PCBNEW 8.0.1) date 2024-06-09 19:47:04*
%MOMM*%
%LPD*%
G01*
G04 APERTURE LIST*
%ADD10R,1.700000X1.700000*%
%ADD11O,1.700000X1.700000*%
%ADD12C,2.200000*%
%ADD13C,0.600000*%
G04 APERTURE END LIST*
D10*
X146525000Y-100700000D03*
D11*
X146525000Y-103240000D03*
X146525000Y-105780000D03*
X146525000Y-108320000D03*
D12*
X173343488Y-111163150D03*
X141523683Y-79343345D03*
X173343488Y-79343345D03*
X141523683Y-111163150D03*
D13*
X139700000Y-90660000D03*
X139700000Y-103360000D03*
X152400000Y-103360000D03*
X156400000Y-75000000D03*
X165100000Y-113520000D03*
X144780000Y-108440000D03*
X154940000Y-113520000D03*
X180340000Y-98280000D03*
X175260000Y-105900000D03*
X160020000Y-93200000D03*
X177800000Y-83040000D03*
X167640000Y-95740000D03*
X152400000Y-93200000D03*
X147800000Y-84400000D03*
X165900000Y-79800000D03*
X160020000Y-95740000D03*
X172720000Y-85580000D03*
X142240000Y-100820000D03*
X160020000Y-75420000D03*
X137000000Y-90600000D03*
X143400000Y-95000000D03*
X152400000Y-83040000D03*
X167640000Y-77960000D03*
X139700000Y-98280000D03*
X154940000Y-72880000D03*
X160800000Y-91400000D03*
X144780000Y-100820000D03*
X165100000Y-72880000D03*
X157200000Y-86600000D03*
X162560000Y-113520000D03*
X137000000Y-86400000D03*
X157480000Y-105900000D03*
X162560000Y-75420000D03*
X137160000Y-103360000D03*
X152400000Y-116060000D03*
X145000000Y-76600000D03*
X142600000Y-87600000D03*
X160020000Y-88120000D03*
X149860000Y-72880000D03*
X165100000Y-116060000D03*
X165100000Y-75420000D03*
X142240000Y-85580000D03*
X177800000Y-103360000D03*
X154940000Y-108440000D03*
X149860000Y-113520000D03*
X154940000Y-98280000D03*
X177800000Y-85580000D03*
X149860000Y-101600000D03*
X147320000Y-98280000D03*
X162560000Y-77960000D03*
X160020000Y-98280000D03*
X169000000Y-100000000D03*
X142240000Y-90660000D03*
X162560000Y-80500000D03*
X170180000Y-77960000D03*
X154940000Y-116060000D03*
X175260000Y-85580000D03*
X167640000Y-75420000D03*
X157480000Y-95740000D03*
X134620000Y-90660000D03*
X172720000Y-88120000D03*
X162900000Y-94400000D03*
X177800000Y-105900000D03*
X139700000Y-105900000D03*
X157480000Y-108440000D03*
X167640000Y-80500000D03*
X152400000Y-113520000D03*
X149860000Y-95740000D03*
X149860000Y-116060000D03*
X167640000Y-113520000D03*
X160020000Y-116060000D03*
X175260000Y-83040000D03*
X165100000Y-77960000D03*
X134620000Y-100820000D03*
X144780000Y-103360000D03*
X147320000Y-116060000D03*
X147320000Y-93200000D03*
X147320000Y-113520000D03*
X175260000Y-108440000D03*
X149860000Y-93200000D03*
X172720000Y-83040000D03*
X142240000Y-98280000D03*
X147320000Y-88120000D03*
X149800000Y-109300000D03*
X157480000Y-118600000D03*
X157480000Y-90660000D03*
X139700000Y-108440000D03*
X137160000Y-105900000D03*
X137160000Y-100820000D03*
X171200000Y-94400000D03*
X137160000Y-98280000D03*
X165100000Y-95740000D03*
X170180000Y-75420000D03*
X148500000Y-74900000D03*
X144780000Y-98280000D03*
X170600000Y-108800000D03*
X142240000Y-103360000D03*
X144780000Y-110980000D03*
X177800000Y-88120000D03*
X147320000Y-95740000D03*
X157480000Y-93200000D03*
X162560000Y-72880000D03*
X167640000Y-116060000D03*
X137160000Y-93200000D03*
X170180000Y-80500000D03*
X180340000Y-93200000D03*
X139800000Y-96200000D03*
X157480000Y-100820000D03*
X157480000Y-88120000D03*
X154940000Y-103360000D03*
X162560000Y-95740000D03*
X160020000Y-72880000D03*
X160020000Y-113520000D03*
X169400000Y-89000000D03*
X175260000Y-88120000D03*
X162560000Y-116060000D03*
X144780000Y-113520000D03*
X149860000Y-77960000D03*
X154940000Y-118600000D03*
X152400000Y-108440000D03*
X160020000Y-118600000D03*
X175000000Y-91800000D03*
X160020000Y-80500000D03*
X144780000Y-105900000D03*
X157480000Y-72880000D03*
X134620000Y-95740000D03*
X157480000Y-113520000D03*
X142240000Y-108440000D03*
X142240000Y-105900000D03*
X152400000Y-72880000D03*
X157480000Y-98280000D03*
X152400000Y-75420000D03*
X139700000Y-100820000D03*
X146300000Y-85500000D03*
X170180000Y-113520000D03*
X157480000Y-116060000D03*
X149400000Y-100000000D03*
X158800000Y-79000000D03*
X158400000Y-104200000D03*
X178800000Y-95200000D03*
X172000000Y-106000000D03*
M02*
