%TF.GenerationSoftware,KiCad,Pcbnew,8.0.1*%
%TF.CreationDate,2024-06-09T19:47:23+05:00*%
%TF.ProjectId,rocket_project,726f636b-6574-45f7-9072-6f6a6563742e,rev?*%
%TF.SameCoordinates,Original*%
%TF.FileFunction,Drillmap*%
%TF.FilePolarity,Positive*%
%FSLAX45Y45*%
G04 Gerber Fmt 4.5, Leading zero omitted, Abs format (unit mm)*
G04 Created by KiCad (PCBNEW 8.0.1) date 2024-06-09 19:47:23*
%MOMM*%
%LPD*%
G01*
G04 APERTURE LIST*
%ADD10C,0.050000*%
%ADD11C,0.200000*%
%ADD12C,0.220000*%
G04 APERTURE END LIST*
D10*
X18243365Y-9519731D02*
G75*
G02*
X13254633Y-9519731I-2494366J0D01*
G01*
X13254633Y-9519731D02*
G75*
G02*
X18243365Y-9519731I2494366J0D01*
G01*
D11*
D12*
X14042368Y-7824334D02*
X14262368Y-8044334D01*
X14262368Y-7824334D02*
X14042368Y-8044334D01*
X14042368Y-11006315D02*
X14262368Y-11226315D01*
X14262368Y-11006315D02*
X14042368Y-11226315D01*
X17224349Y-7824334D02*
X17444349Y-8044334D01*
X17444349Y-7824334D02*
X17224349Y-8044334D01*
X17224349Y-11006315D02*
X17444349Y-11226315D01*
X17444349Y-11006315D02*
X17224349Y-11226315D01*
D11*
X13512910Y-12328081D02*
X13512910Y-12128081D01*
X13512910Y-12128081D02*
X13560529Y-12128081D01*
X13560529Y-12128081D02*
X13589100Y-12137604D01*
X13589100Y-12137604D02*
X13608148Y-12156652D01*
X13608148Y-12156652D02*
X13617672Y-12175700D01*
X13617672Y-12175700D02*
X13627196Y-12213795D01*
X13627196Y-12213795D02*
X13627196Y-12242366D01*
X13627196Y-12242366D02*
X13617672Y-12280462D01*
X13617672Y-12280462D02*
X13608148Y-12299509D01*
X13608148Y-12299509D02*
X13589100Y-12318557D01*
X13589100Y-12318557D02*
X13560529Y-12328081D01*
X13560529Y-12328081D02*
X13512910Y-12328081D01*
X13712910Y-12328081D02*
X13712910Y-12194747D01*
X13712910Y-12232843D02*
X13722434Y-12213795D01*
X13722434Y-12213795D02*
X13731957Y-12204271D01*
X13731957Y-12204271D02*
X13751005Y-12194747D01*
X13751005Y-12194747D02*
X13770053Y-12194747D01*
X13836719Y-12328081D02*
X13836719Y-12194747D01*
X13836719Y-12128081D02*
X13827196Y-12137604D01*
X13827196Y-12137604D02*
X13836719Y-12147128D01*
X13836719Y-12147128D02*
X13846243Y-12137604D01*
X13846243Y-12137604D02*
X13836719Y-12128081D01*
X13836719Y-12128081D02*
X13836719Y-12147128D01*
X13960529Y-12328081D02*
X13941481Y-12318557D01*
X13941481Y-12318557D02*
X13931957Y-12299509D01*
X13931957Y-12299509D02*
X13931957Y-12128081D01*
X14065291Y-12328081D02*
X14046243Y-12318557D01*
X14046243Y-12318557D02*
X14036719Y-12299509D01*
X14036719Y-12299509D02*
X14036719Y-12128081D01*
X14293862Y-12328081D02*
X14293862Y-12128081D01*
X14293862Y-12128081D02*
X14360529Y-12270938D01*
X14360529Y-12270938D02*
X14427196Y-12128081D01*
X14427196Y-12128081D02*
X14427196Y-12328081D01*
X14608148Y-12328081D02*
X14608148Y-12223319D01*
X14608148Y-12223319D02*
X14598624Y-12204271D01*
X14598624Y-12204271D02*
X14579577Y-12194747D01*
X14579577Y-12194747D02*
X14541481Y-12194747D01*
X14541481Y-12194747D02*
X14522434Y-12204271D01*
X14608148Y-12318557D02*
X14589100Y-12328081D01*
X14589100Y-12328081D02*
X14541481Y-12328081D01*
X14541481Y-12328081D02*
X14522434Y-12318557D01*
X14522434Y-12318557D02*
X14512910Y-12299509D01*
X14512910Y-12299509D02*
X14512910Y-12280462D01*
X14512910Y-12280462D02*
X14522434Y-12261414D01*
X14522434Y-12261414D02*
X14541481Y-12251890D01*
X14541481Y-12251890D02*
X14589100Y-12251890D01*
X14589100Y-12251890D02*
X14608148Y-12242366D01*
X14703386Y-12194747D02*
X14703386Y-12394747D01*
X14703386Y-12204271D02*
X14722434Y-12194747D01*
X14722434Y-12194747D02*
X14760529Y-12194747D01*
X14760529Y-12194747D02*
X14779577Y-12204271D01*
X14779577Y-12204271D02*
X14789100Y-12213795D01*
X14789100Y-12213795D02*
X14798624Y-12232843D01*
X14798624Y-12232843D02*
X14798624Y-12289985D01*
X14798624Y-12289985D02*
X14789100Y-12309033D01*
X14789100Y-12309033D02*
X14779577Y-12318557D01*
X14779577Y-12318557D02*
X14760529Y-12328081D01*
X14760529Y-12328081D02*
X14722434Y-12328081D01*
X14722434Y-12328081D02*
X14703386Y-12318557D01*
X14884338Y-12309033D02*
X14893862Y-12318557D01*
X14893862Y-12318557D02*
X14884338Y-12328081D01*
X14884338Y-12328081D02*
X14874815Y-12318557D01*
X14874815Y-12318557D02*
X14884338Y-12309033D01*
X14884338Y-12309033D02*
X14884338Y-12328081D01*
X14884338Y-12204271D02*
X14893862Y-12213795D01*
X14893862Y-12213795D02*
X14884338Y-12223319D01*
X14884338Y-12223319D02*
X14874815Y-12213795D01*
X14874815Y-12213795D02*
X14884338Y-12204271D01*
X14884338Y-12204271D02*
X14884338Y-12223319D01*
X13052133Y-12556597D02*
X13252133Y-12756597D01*
X13252133Y-12556597D02*
X13052133Y-12756597D01*
X13503386Y-12567128D02*
X13512910Y-12557604D01*
X13512910Y-12557604D02*
X13531957Y-12548081D01*
X13531957Y-12548081D02*
X13579577Y-12548081D01*
X13579577Y-12548081D02*
X13598624Y-12557604D01*
X13598624Y-12557604D02*
X13608148Y-12567128D01*
X13608148Y-12567128D02*
X13617672Y-12586176D01*
X13617672Y-12586176D02*
X13617672Y-12605223D01*
X13617672Y-12605223D02*
X13608148Y-12633795D01*
X13608148Y-12633795D02*
X13493862Y-12748081D01*
X13493862Y-12748081D02*
X13617672Y-12748081D01*
X13703386Y-12729033D02*
X13712910Y-12738557D01*
X13712910Y-12738557D02*
X13703386Y-12748081D01*
X13703386Y-12748081D02*
X13693862Y-12738557D01*
X13693862Y-12738557D02*
X13703386Y-12729033D01*
X13703386Y-12729033D02*
X13703386Y-12748081D01*
X13789100Y-12567128D02*
X13798624Y-12557604D01*
X13798624Y-12557604D02*
X13817672Y-12548081D01*
X13817672Y-12548081D02*
X13865291Y-12548081D01*
X13865291Y-12548081D02*
X13884338Y-12557604D01*
X13884338Y-12557604D02*
X13893862Y-12567128D01*
X13893862Y-12567128D02*
X13903386Y-12586176D01*
X13903386Y-12586176D02*
X13903386Y-12605223D01*
X13903386Y-12605223D02*
X13893862Y-12633795D01*
X13893862Y-12633795D02*
X13779577Y-12748081D01*
X13779577Y-12748081D02*
X13903386Y-12748081D01*
X14027196Y-12548081D02*
X14046243Y-12548081D01*
X14046243Y-12548081D02*
X14065291Y-12557604D01*
X14065291Y-12557604D02*
X14074815Y-12567128D01*
X14074815Y-12567128D02*
X14084338Y-12586176D01*
X14084338Y-12586176D02*
X14093862Y-12624271D01*
X14093862Y-12624271D02*
X14093862Y-12671890D01*
X14093862Y-12671890D02*
X14084338Y-12709985D01*
X14084338Y-12709985D02*
X14074815Y-12729033D01*
X14074815Y-12729033D02*
X14065291Y-12738557D01*
X14065291Y-12738557D02*
X14046243Y-12748081D01*
X14046243Y-12748081D02*
X14027196Y-12748081D01*
X14027196Y-12748081D02*
X14008148Y-12738557D01*
X14008148Y-12738557D02*
X13998624Y-12729033D01*
X13998624Y-12729033D02*
X13989100Y-12709985D01*
X13989100Y-12709985D02*
X13979577Y-12671890D01*
X13979577Y-12671890D02*
X13979577Y-12624271D01*
X13979577Y-12624271D02*
X13989100Y-12586176D01*
X13989100Y-12586176D02*
X13998624Y-12567128D01*
X13998624Y-12567128D02*
X14008148Y-12557604D01*
X14008148Y-12557604D02*
X14027196Y-12548081D01*
X14217672Y-12548081D02*
X14236719Y-12548081D01*
X14236719Y-12548081D02*
X14255767Y-12557604D01*
X14255767Y-12557604D02*
X14265291Y-12567128D01*
X14265291Y-12567128D02*
X14274815Y-12586176D01*
X14274815Y-12586176D02*
X14284338Y-12624271D01*
X14284338Y-12624271D02*
X14284338Y-12671890D01*
X14284338Y-12671890D02*
X14274815Y-12709985D01*
X14274815Y-12709985D02*
X14265291Y-12729033D01*
X14265291Y-12729033D02*
X14255767Y-12738557D01*
X14255767Y-12738557D02*
X14236719Y-12748081D01*
X14236719Y-12748081D02*
X14217672Y-12748081D01*
X14217672Y-12748081D02*
X14198624Y-12738557D01*
X14198624Y-12738557D02*
X14189100Y-12729033D01*
X14189100Y-12729033D02*
X14179577Y-12709985D01*
X14179577Y-12709985D02*
X14170053Y-12671890D01*
X14170053Y-12671890D02*
X14170053Y-12624271D01*
X14170053Y-12624271D02*
X14179577Y-12586176D01*
X14179577Y-12586176D02*
X14189100Y-12567128D01*
X14189100Y-12567128D02*
X14198624Y-12557604D01*
X14198624Y-12557604D02*
X14217672Y-12548081D01*
X14370053Y-12748081D02*
X14370053Y-12614747D01*
X14370053Y-12633795D02*
X14379577Y-12624271D01*
X14379577Y-12624271D02*
X14398624Y-12614747D01*
X14398624Y-12614747D02*
X14427196Y-12614747D01*
X14427196Y-12614747D02*
X14446243Y-12624271D01*
X14446243Y-12624271D02*
X14455767Y-12643319D01*
X14455767Y-12643319D02*
X14455767Y-12748081D01*
X14455767Y-12643319D02*
X14465291Y-12624271D01*
X14465291Y-12624271D02*
X14484338Y-12614747D01*
X14484338Y-12614747D02*
X14512910Y-12614747D01*
X14512910Y-12614747D02*
X14531958Y-12624271D01*
X14531958Y-12624271D02*
X14541481Y-12643319D01*
X14541481Y-12643319D02*
X14541481Y-12748081D01*
X14636719Y-12748081D02*
X14636719Y-12614747D01*
X14636719Y-12633795D02*
X14646243Y-12624271D01*
X14646243Y-12624271D02*
X14665291Y-12614747D01*
X14665291Y-12614747D02*
X14693862Y-12614747D01*
X14693862Y-12614747D02*
X14712910Y-12624271D01*
X14712910Y-12624271D02*
X14722434Y-12643319D01*
X14722434Y-12643319D02*
X14722434Y-12748081D01*
X14722434Y-12643319D02*
X14731958Y-12624271D01*
X14731958Y-12624271D02*
X14751005Y-12614747D01*
X14751005Y-12614747D02*
X14779577Y-12614747D01*
X14779577Y-12614747D02*
X14798624Y-12624271D01*
X14798624Y-12624271D02*
X14808148Y-12643319D01*
X14808148Y-12643319D02*
X14808148Y-12748081D01*
X15198624Y-12538557D02*
X15027196Y-12795700D01*
X15455767Y-12548081D02*
X15474815Y-12548081D01*
X15474815Y-12548081D02*
X15493862Y-12557604D01*
X15493862Y-12557604D02*
X15503386Y-12567128D01*
X15503386Y-12567128D02*
X15512910Y-12586176D01*
X15512910Y-12586176D02*
X15522434Y-12624271D01*
X15522434Y-12624271D02*
X15522434Y-12671890D01*
X15522434Y-12671890D02*
X15512910Y-12709985D01*
X15512910Y-12709985D02*
X15503386Y-12729033D01*
X15503386Y-12729033D02*
X15493862Y-12738557D01*
X15493862Y-12738557D02*
X15474815Y-12748081D01*
X15474815Y-12748081D02*
X15455767Y-12748081D01*
X15455767Y-12748081D02*
X15436720Y-12738557D01*
X15436720Y-12738557D02*
X15427196Y-12729033D01*
X15427196Y-12729033D02*
X15417672Y-12709985D01*
X15417672Y-12709985D02*
X15408148Y-12671890D01*
X15408148Y-12671890D02*
X15408148Y-12624271D01*
X15408148Y-12624271D02*
X15417672Y-12586176D01*
X15417672Y-12586176D02*
X15427196Y-12567128D01*
X15427196Y-12567128D02*
X15436720Y-12557604D01*
X15436720Y-12557604D02*
X15455767Y-12548081D01*
X15608148Y-12729033D02*
X15617672Y-12738557D01*
X15617672Y-12738557D02*
X15608148Y-12748081D01*
X15608148Y-12748081D02*
X15598624Y-12738557D01*
X15598624Y-12738557D02*
X15608148Y-12729033D01*
X15608148Y-12729033D02*
X15608148Y-12748081D01*
X15741481Y-12548081D02*
X15760529Y-12548081D01*
X15760529Y-12548081D02*
X15779577Y-12557604D01*
X15779577Y-12557604D02*
X15789101Y-12567128D01*
X15789101Y-12567128D02*
X15798624Y-12586176D01*
X15798624Y-12586176D02*
X15808148Y-12624271D01*
X15808148Y-12624271D02*
X15808148Y-12671890D01*
X15808148Y-12671890D02*
X15798624Y-12709985D01*
X15798624Y-12709985D02*
X15789101Y-12729033D01*
X15789101Y-12729033D02*
X15779577Y-12738557D01*
X15779577Y-12738557D02*
X15760529Y-12748081D01*
X15760529Y-12748081D02*
X15741481Y-12748081D01*
X15741481Y-12748081D02*
X15722434Y-12738557D01*
X15722434Y-12738557D02*
X15712910Y-12729033D01*
X15712910Y-12729033D02*
X15703386Y-12709985D01*
X15703386Y-12709985D02*
X15693862Y-12671890D01*
X15693862Y-12671890D02*
X15693862Y-12624271D01*
X15693862Y-12624271D02*
X15703386Y-12586176D01*
X15703386Y-12586176D02*
X15712910Y-12567128D01*
X15712910Y-12567128D02*
X15722434Y-12557604D01*
X15722434Y-12557604D02*
X15741481Y-12548081D01*
X15922434Y-12633795D02*
X15903386Y-12624271D01*
X15903386Y-12624271D02*
X15893862Y-12614747D01*
X15893862Y-12614747D02*
X15884339Y-12595700D01*
X15884339Y-12595700D02*
X15884339Y-12586176D01*
X15884339Y-12586176D02*
X15893862Y-12567128D01*
X15893862Y-12567128D02*
X15903386Y-12557604D01*
X15903386Y-12557604D02*
X15922434Y-12548081D01*
X15922434Y-12548081D02*
X15960529Y-12548081D01*
X15960529Y-12548081D02*
X15979577Y-12557604D01*
X15979577Y-12557604D02*
X15989101Y-12567128D01*
X15989101Y-12567128D02*
X15998624Y-12586176D01*
X15998624Y-12586176D02*
X15998624Y-12595700D01*
X15998624Y-12595700D02*
X15989101Y-12614747D01*
X15989101Y-12614747D02*
X15979577Y-12624271D01*
X15979577Y-12624271D02*
X15960529Y-12633795D01*
X15960529Y-12633795D02*
X15922434Y-12633795D01*
X15922434Y-12633795D02*
X15903386Y-12643319D01*
X15903386Y-12643319D02*
X15893862Y-12652843D01*
X15893862Y-12652843D02*
X15884339Y-12671890D01*
X15884339Y-12671890D02*
X15884339Y-12709985D01*
X15884339Y-12709985D02*
X15893862Y-12729033D01*
X15893862Y-12729033D02*
X15903386Y-12738557D01*
X15903386Y-12738557D02*
X15922434Y-12748081D01*
X15922434Y-12748081D02*
X15960529Y-12748081D01*
X15960529Y-12748081D02*
X15979577Y-12738557D01*
X15979577Y-12738557D02*
X15989101Y-12729033D01*
X15989101Y-12729033D02*
X15998624Y-12709985D01*
X15998624Y-12709985D02*
X15998624Y-12671890D01*
X15998624Y-12671890D02*
X15989101Y-12652843D01*
X15989101Y-12652843D02*
X15979577Y-12643319D01*
X15979577Y-12643319D02*
X15960529Y-12633795D01*
X16170053Y-12548081D02*
X16131958Y-12548081D01*
X16131958Y-12548081D02*
X16112910Y-12557604D01*
X16112910Y-12557604D02*
X16103386Y-12567128D01*
X16103386Y-12567128D02*
X16084339Y-12595700D01*
X16084339Y-12595700D02*
X16074815Y-12633795D01*
X16074815Y-12633795D02*
X16074815Y-12709985D01*
X16074815Y-12709985D02*
X16084339Y-12729033D01*
X16084339Y-12729033D02*
X16093862Y-12738557D01*
X16093862Y-12738557D02*
X16112910Y-12748081D01*
X16112910Y-12748081D02*
X16151005Y-12748081D01*
X16151005Y-12748081D02*
X16170053Y-12738557D01*
X16170053Y-12738557D02*
X16179577Y-12729033D01*
X16179577Y-12729033D02*
X16189101Y-12709985D01*
X16189101Y-12709985D02*
X16189101Y-12662366D01*
X16189101Y-12662366D02*
X16179577Y-12643319D01*
X16179577Y-12643319D02*
X16170053Y-12633795D01*
X16170053Y-12633795D02*
X16151005Y-12624271D01*
X16151005Y-12624271D02*
X16112910Y-12624271D01*
X16112910Y-12624271D02*
X16093862Y-12633795D01*
X16093862Y-12633795D02*
X16084339Y-12643319D01*
X16084339Y-12643319D02*
X16074815Y-12662366D01*
X16360529Y-12548081D02*
X16322434Y-12548081D01*
X16322434Y-12548081D02*
X16303386Y-12557604D01*
X16303386Y-12557604D02*
X16293862Y-12567128D01*
X16293862Y-12567128D02*
X16274815Y-12595700D01*
X16274815Y-12595700D02*
X16265291Y-12633795D01*
X16265291Y-12633795D02*
X16265291Y-12709985D01*
X16265291Y-12709985D02*
X16274815Y-12729033D01*
X16274815Y-12729033D02*
X16284339Y-12738557D01*
X16284339Y-12738557D02*
X16303386Y-12748081D01*
X16303386Y-12748081D02*
X16341482Y-12748081D01*
X16341482Y-12748081D02*
X16360529Y-12738557D01*
X16360529Y-12738557D02*
X16370053Y-12729033D01*
X16370053Y-12729033D02*
X16379577Y-12709985D01*
X16379577Y-12709985D02*
X16379577Y-12662366D01*
X16379577Y-12662366D02*
X16370053Y-12643319D01*
X16370053Y-12643319D02*
X16360529Y-12633795D01*
X16360529Y-12633795D02*
X16341482Y-12624271D01*
X16341482Y-12624271D02*
X16303386Y-12624271D01*
X16303386Y-12624271D02*
X16284339Y-12633795D01*
X16284339Y-12633795D02*
X16274815Y-12643319D01*
X16274815Y-12643319D02*
X16265291Y-12662366D01*
X16455767Y-12548081D02*
X16455767Y-12586176D01*
X16531958Y-12548081D02*
X16531958Y-12586176D01*
X16827196Y-12824271D02*
X16817672Y-12814747D01*
X16817672Y-12814747D02*
X16798625Y-12786176D01*
X16798625Y-12786176D02*
X16789101Y-12767128D01*
X16789101Y-12767128D02*
X16779577Y-12738557D01*
X16779577Y-12738557D02*
X16770053Y-12690938D01*
X16770053Y-12690938D02*
X16770053Y-12652843D01*
X16770053Y-12652843D02*
X16779577Y-12605223D01*
X16779577Y-12605223D02*
X16789101Y-12576652D01*
X16789101Y-12576652D02*
X16798625Y-12557604D01*
X16798625Y-12557604D02*
X16817672Y-12529033D01*
X16817672Y-12529033D02*
X16827196Y-12519509D01*
X16989101Y-12614747D02*
X16989101Y-12748081D01*
X16941482Y-12538557D02*
X16893863Y-12681414D01*
X16893863Y-12681414D02*
X17017672Y-12681414D01*
X17246244Y-12748081D02*
X17246244Y-12548081D01*
X17331958Y-12748081D02*
X17331958Y-12643319D01*
X17331958Y-12643319D02*
X17322434Y-12624271D01*
X17322434Y-12624271D02*
X17303387Y-12614747D01*
X17303387Y-12614747D02*
X17274815Y-12614747D01*
X17274815Y-12614747D02*
X17255767Y-12624271D01*
X17255767Y-12624271D02*
X17246244Y-12633795D01*
X17455767Y-12748081D02*
X17436720Y-12738557D01*
X17436720Y-12738557D02*
X17427196Y-12729033D01*
X17427196Y-12729033D02*
X17417672Y-12709985D01*
X17417672Y-12709985D02*
X17417672Y-12652843D01*
X17417672Y-12652843D02*
X17427196Y-12633795D01*
X17427196Y-12633795D02*
X17436720Y-12624271D01*
X17436720Y-12624271D02*
X17455767Y-12614747D01*
X17455767Y-12614747D02*
X17484339Y-12614747D01*
X17484339Y-12614747D02*
X17503387Y-12624271D01*
X17503387Y-12624271D02*
X17512910Y-12633795D01*
X17512910Y-12633795D02*
X17522434Y-12652843D01*
X17522434Y-12652843D02*
X17522434Y-12709985D01*
X17522434Y-12709985D02*
X17512910Y-12729033D01*
X17512910Y-12729033D02*
X17503387Y-12738557D01*
X17503387Y-12738557D02*
X17484339Y-12748081D01*
X17484339Y-12748081D02*
X17455767Y-12748081D01*
X17636720Y-12748081D02*
X17617672Y-12738557D01*
X17617672Y-12738557D02*
X17608148Y-12719509D01*
X17608148Y-12719509D02*
X17608148Y-12548081D01*
X17789101Y-12738557D02*
X17770053Y-12748081D01*
X17770053Y-12748081D02*
X17731958Y-12748081D01*
X17731958Y-12748081D02*
X17712910Y-12738557D01*
X17712910Y-12738557D02*
X17703387Y-12719509D01*
X17703387Y-12719509D02*
X17703387Y-12643319D01*
X17703387Y-12643319D02*
X17712910Y-12624271D01*
X17712910Y-12624271D02*
X17731958Y-12614747D01*
X17731958Y-12614747D02*
X17770053Y-12614747D01*
X17770053Y-12614747D02*
X17789101Y-12624271D01*
X17789101Y-12624271D02*
X17798625Y-12643319D01*
X17798625Y-12643319D02*
X17798625Y-12662366D01*
X17798625Y-12662366D02*
X17703387Y-12681414D01*
X17874815Y-12738557D02*
X17893863Y-12748081D01*
X17893863Y-12748081D02*
X17931958Y-12748081D01*
X17931958Y-12748081D02*
X17951006Y-12738557D01*
X17951006Y-12738557D02*
X17960529Y-12719509D01*
X17960529Y-12719509D02*
X17960529Y-12709985D01*
X17960529Y-12709985D02*
X17951006Y-12690938D01*
X17951006Y-12690938D02*
X17931958Y-12681414D01*
X17931958Y-12681414D02*
X17903387Y-12681414D01*
X17903387Y-12681414D02*
X17884339Y-12671890D01*
X17884339Y-12671890D02*
X17874815Y-12652843D01*
X17874815Y-12652843D02*
X17874815Y-12643319D01*
X17874815Y-12643319D02*
X17884339Y-12624271D01*
X17884339Y-12624271D02*
X17903387Y-12614747D01*
X17903387Y-12614747D02*
X17931958Y-12614747D01*
X17931958Y-12614747D02*
X17951006Y-12624271D01*
X18027196Y-12824271D02*
X18036720Y-12814747D01*
X18036720Y-12814747D02*
X18055768Y-12786176D01*
X18055768Y-12786176D02*
X18065291Y-12767128D01*
X18065291Y-12767128D02*
X18074815Y-12738557D01*
X18074815Y-12738557D02*
X18084339Y-12690938D01*
X18084339Y-12690938D02*
X18084339Y-12652843D01*
X18084339Y-12652843D02*
X18074815Y-12605223D01*
X18074815Y-12605223D02*
X18065291Y-12576652D01*
X18065291Y-12576652D02*
X18055768Y-12557604D01*
X18055768Y-12557604D02*
X18036720Y-12529033D01*
X18036720Y-12529033D02*
X18027196Y-12519509D01*
X18389101Y-12824271D02*
X18379577Y-12814747D01*
X18379577Y-12814747D02*
X18360529Y-12786176D01*
X18360529Y-12786176D02*
X18351006Y-12767128D01*
X18351006Y-12767128D02*
X18341482Y-12738557D01*
X18341482Y-12738557D02*
X18331958Y-12690938D01*
X18331958Y-12690938D02*
X18331958Y-12652843D01*
X18331958Y-12652843D02*
X18341482Y-12605223D01*
X18341482Y-12605223D02*
X18351006Y-12576652D01*
X18351006Y-12576652D02*
X18360529Y-12557604D01*
X18360529Y-12557604D02*
X18379577Y-12529033D01*
X18379577Y-12529033D02*
X18389101Y-12519509D01*
X18465291Y-12614747D02*
X18465291Y-12748081D01*
X18465291Y-12633795D02*
X18474815Y-12624271D01*
X18474815Y-12624271D02*
X18493863Y-12614747D01*
X18493863Y-12614747D02*
X18522434Y-12614747D01*
X18522434Y-12614747D02*
X18541482Y-12624271D01*
X18541482Y-12624271D02*
X18551006Y-12643319D01*
X18551006Y-12643319D02*
X18551006Y-12748081D01*
X18674815Y-12748081D02*
X18655768Y-12738557D01*
X18655768Y-12738557D02*
X18646244Y-12729033D01*
X18646244Y-12729033D02*
X18636720Y-12709985D01*
X18636720Y-12709985D02*
X18636720Y-12652843D01*
X18636720Y-12652843D02*
X18646244Y-12633795D01*
X18646244Y-12633795D02*
X18655768Y-12624271D01*
X18655768Y-12624271D02*
X18674815Y-12614747D01*
X18674815Y-12614747D02*
X18703387Y-12614747D01*
X18703387Y-12614747D02*
X18722434Y-12624271D01*
X18722434Y-12624271D02*
X18731958Y-12633795D01*
X18731958Y-12633795D02*
X18741482Y-12652843D01*
X18741482Y-12652843D02*
X18741482Y-12709985D01*
X18741482Y-12709985D02*
X18731958Y-12729033D01*
X18731958Y-12729033D02*
X18722434Y-12738557D01*
X18722434Y-12738557D02*
X18703387Y-12748081D01*
X18703387Y-12748081D02*
X18674815Y-12748081D01*
X18798625Y-12614747D02*
X18874815Y-12614747D01*
X18827196Y-12548081D02*
X18827196Y-12719509D01*
X18827196Y-12719509D02*
X18836720Y-12738557D01*
X18836720Y-12738557D02*
X18855768Y-12748081D01*
X18855768Y-12748081D02*
X18874815Y-12748081D01*
X19093863Y-12614747D02*
X19093863Y-12814747D01*
X19093863Y-12624271D02*
X19112910Y-12614747D01*
X19112910Y-12614747D02*
X19151006Y-12614747D01*
X19151006Y-12614747D02*
X19170053Y-12624271D01*
X19170053Y-12624271D02*
X19179577Y-12633795D01*
X19179577Y-12633795D02*
X19189101Y-12652843D01*
X19189101Y-12652843D02*
X19189101Y-12709985D01*
X19189101Y-12709985D02*
X19179577Y-12729033D01*
X19179577Y-12729033D02*
X19170053Y-12738557D01*
X19170053Y-12738557D02*
X19151006Y-12748081D01*
X19151006Y-12748081D02*
X19112910Y-12748081D01*
X19112910Y-12748081D02*
X19093863Y-12738557D01*
X19303387Y-12748081D02*
X19284339Y-12738557D01*
X19284339Y-12738557D02*
X19274815Y-12719509D01*
X19274815Y-12719509D02*
X19274815Y-12548081D01*
X19465291Y-12748081D02*
X19465291Y-12643319D01*
X19465291Y-12643319D02*
X19455768Y-12624271D01*
X19455768Y-12624271D02*
X19436720Y-12614747D01*
X19436720Y-12614747D02*
X19398625Y-12614747D01*
X19398625Y-12614747D02*
X19379577Y-12624271D01*
X19465291Y-12738557D02*
X19446244Y-12748081D01*
X19446244Y-12748081D02*
X19398625Y-12748081D01*
X19398625Y-12748081D02*
X19379577Y-12738557D01*
X19379577Y-12738557D02*
X19370053Y-12719509D01*
X19370053Y-12719509D02*
X19370053Y-12700462D01*
X19370053Y-12700462D02*
X19379577Y-12681414D01*
X19379577Y-12681414D02*
X19398625Y-12671890D01*
X19398625Y-12671890D02*
X19446244Y-12671890D01*
X19446244Y-12671890D02*
X19465291Y-12662366D01*
X19531958Y-12614747D02*
X19608149Y-12614747D01*
X19560530Y-12548081D02*
X19560530Y-12719509D01*
X19560530Y-12719509D02*
X19570053Y-12738557D01*
X19570053Y-12738557D02*
X19589101Y-12748081D01*
X19589101Y-12748081D02*
X19608149Y-12748081D01*
X19751006Y-12738557D02*
X19731958Y-12748081D01*
X19731958Y-12748081D02*
X19693863Y-12748081D01*
X19693863Y-12748081D02*
X19674815Y-12738557D01*
X19674815Y-12738557D02*
X19665291Y-12719509D01*
X19665291Y-12719509D02*
X19665291Y-12643319D01*
X19665291Y-12643319D02*
X19674815Y-12624271D01*
X19674815Y-12624271D02*
X19693863Y-12614747D01*
X19693863Y-12614747D02*
X19731958Y-12614747D01*
X19731958Y-12614747D02*
X19751006Y-12624271D01*
X19751006Y-12624271D02*
X19760530Y-12643319D01*
X19760530Y-12643319D02*
X19760530Y-12662366D01*
X19760530Y-12662366D02*
X19665291Y-12681414D01*
X19931958Y-12748081D02*
X19931958Y-12548081D01*
X19931958Y-12738557D02*
X19912911Y-12748081D01*
X19912911Y-12748081D02*
X19874815Y-12748081D01*
X19874815Y-12748081D02*
X19855768Y-12738557D01*
X19855768Y-12738557D02*
X19846244Y-12729033D01*
X19846244Y-12729033D02*
X19836720Y-12709985D01*
X19836720Y-12709985D02*
X19836720Y-12652843D01*
X19836720Y-12652843D02*
X19846244Y-12633795D01*
X19846244Y-12633795D02*
X19855768Y-12624271D01*
X19855768Y-12624271D02*
X19874815Y-12614747D01*
X19874815Y-12614747D02*
X19912911Y-12614747D01*
X19912911Y-12614747D02*
X19931958Y-12624271D01*
X20008149Y-12824271D02*
X20017672Y-12814747D01*
X20017672Y-12814747D02*
X20036720Y-12786176D01*
X20036720Y-12786176D02*
X20046244Y-12767128D01*
X20046244Y-12767128D02*
X20055768Y-12738557D01*
X20055768Y-12738557D02*
X20065291Y-12690938D01*
X20065291Y-12690938D02*
X20065291Y-12652843D01*
X20065291Y-12652843D02*
X20055768Y-12605223D01*
X20055768Y-12605223D02*
X20046244Y-12576652D01*
X20046244Y-12576652D02*
X20036720Y-12557604D01*
X20036720Y-12557604D02*
X20017672Y-12529033D01*
X20017672Y-12529033D02*
X20008149Y-12519509D01*
M02*
