G04 #@! TF.GenerationSoftware,KiCad,Pcbnew,8.0.1*
G04 #@! TF.CreationDate,2024-06-09T19:47:04+05:00*
G04 #@! TF.ProjectId,rocket_project,726f636b-6574-45f7-9072-6f6a6563742e,rev?*
G04 #@! TF.SameCoordinates,Original*
G04 #@! TF.FileFunction,Soldermask,Top*
G04 #@! TF.FilePolarity,Negative*
%FSLAX46Y46*%
G04 Gerber Fmt 4.6, Leading zero omitted, Abs format (unit mm)*
G04 Created by KiCad (PCBNEW 8.0.1) date 2024-06-09 19:47:04*
%MOMM*%
%LPD*%
G01*
G04 APERTURE LIST*
G04 Aperture macros list*
%AMRoundRect*
0 Rectangle with rounded corners*
0 $1 Rounding radius*
0 $2 $3 $4 $5 $6 $7 $8 $9 X,Y pos of 4 corners*
0 Add a 4 corners polygon primitive as box body*
4,1,4,$2,$3,$4,$5,$6,$7,$8,$9,$2,$3,0*
0 Add four circle primitives for the rounded corners*
1,1,$1+$1,$2,$3*
1,1,$1+$1,$4,$5*
1,1,$1+$1,$6,$7*
1,1,$1+$1,$8,$9*
0 Add four rect primitives between the rounded corners*
20,1,$1+$1,$2,$3,$4,$5,0*
20,1,$1+$1,$4,$5,$6,$7,0*
20,1,$1+$1,$6,$7,$8,$9,0*
20,1,$1+$1,$8,$9,$2,$3,0*%
G04 Aperture macros list end*
%ADD10RoundRect,0.150000X0.700000X-0.150000X0.700000X0.150000X-0.700000X0.150000X-0.700000X-0.150000X0*%
%ADD11RoundRect,0.250000X1.100000X-0.250000X1.100000X0.250000X-1.100000X0.250000X-1.100000X-0.250000X0*%
%ADD12RoundRect,0.250000X-0.475000X0.250000X-0.475000X-0.250000X0.475000X-0.250000X0.475000X0.250000X0*%
%ADD13RoundRect,0.237500X-0.237500X0.250000X-0.237500X-0.250000X0.237500X-0.250000X0.237500X0.250000X0*%
%ADD14RoundRect,0.200000X-0.275000X0.200000X-0.275000X-0.200000X0.275000X-0.200000X0.275000X0.200000X0*%
%ADD15R,1.700000X1.700000*%
%ADD16O,1.700000X1.700000*%
%ADD17RoundRect,0.225000X-0.250000X0.225000X-0.250000X-0.225000X0.250000X-0.225000X0.250000X0.225000X0*%
%ADD18RoundRect,0.250000X0.475000X-0.250000X0.475000X0.250000X-0.475000X0.250000X-0.475000X-0.250000X0*%
%ADD19C,2.200000*%
%ADD20RoundRect,0.150000X-0.700000X0.150000X-0.700000X-0.150000X0.700000X-0.150000X0.700000X0.150000X0*%
%ADD21RoundRect,0.250000X-1.100000X0.250000X-1.100000X-0.250000X1.100000X-0.250000X1.100000X0.250000X0*%
%ADD22RoundRect,0.375000X-0.625000X-0.375000X0.625000X-0.375000X0.625000X0.375000X-0.625000X0.375000X0*%
%ADD23RoundRect,0.500000X-0.500000X-1.400000X0.500000X-1.400000X0.500000X1.400000X-0.500000X1.400000X0*%
%ADD24RoundRect,0.237500X0.237500X-0.250000X0.237500X0.250000X-0.237500X0.250000X-0.237500X-0.250000X0*%
%ADD25RoundRect,0.225000X0.250000X-0.225000X0.250000X0.225000X-0.250000X0.225000X-0.250000X-0.225000X0*%
%ADD26R,1.800000X1.200000*%
%ADD27R,1.800000X0.800000*%
%ADD28RoundRect,0.250000X-0.250000X-0.475000X0.250000X-0.475000X0.250000X0.475000X-0.250000X0.475000X0*%
%ADD29RoundRect,0.218750X0.256250X-0.218750X0.256250X0.218750X-0.256250X0.218750X-0.256250X-0.218750X0*%
%ADD30RoundRect,0.100000X-0.225000X-0.100000X0.225000X-0.100000X0.225000X0.100000X-0.225000X0.100000X0*%
%ADD31RoundRect,0.150000X-0.750000X-0.150000X0.750000X-0.150000X0.750000X0.150000X-0.750000X0.150000X0*%
%ADD32RoundRect,0.237500X-0.237500X0.300000X-0.237500X-0.300000X0.237500X-0.300000X0.237500X0.300000X0*%
%ADD33C,0.600000*%
G04 APERTURE END LIST*
D10*
X176650000Y-97749999D03*
X176650000Y-96500000D03*
X176649999Y-95250000D03*
X176650000Y-94000000D03*
X176650000Y-92750001D03*
D11*
X179850000Y-99600000D03*
X179850000Y-90900000D03*
D12*
X156250000Y-76550001D03*
X156250000Y-78449999D03*
X153500000Y-87800001D03*
X153500000Y-89699999D03*
D13*
X169394998Y-106182500D03*
X169394998Y-108007500D03*
D14*
X139000000Y-87750000D03*
X139000000Y-89400000D03*
D15*
X146525000Y-100700000D03*
D16*
X146525000Y-103240000D03*
X146525000Y-105780000D03*
X146525000Y-108320000D03*
D17*
X169600000Y-101320000D03*
X169600000Y-102870000D03*
D18*
X142000000Y-93949999D03*
X142000000Y-92050001D03*
D14*
X139000000Y-83575000D03*
X139000000Y-85225000D03*
D19*
X173343488Y-111163150D03*
D20*
X137850000Y-94625000D03*
X137850000Y-95875000D03*
D21*
X134650000Y-92775000D03*
X134650000Y-97725000D03*
D19*
X141523683Y-79343345D03*
D22*
X144600000Y-87450000D03*
X144600001Y-89750000D03*
D23*
X150899999Y-89750000D03*
D22*
X144600000Y-92050000D03*
D24*
X166200000Y-91112500D03*
X166200000Y-89287500D03*
D25*
X156999999Y-85524998D03*
X156999999Y-83974998D03*
D13*
X168200000Y-89287500D03*
X168200000Y-91112500D03*
D24*
X163999999Y-91162499D03*
X163999999Y-89337499D03*
D26*
X167199999Y-107140000D03*
D27*
X167200000Y-105870000D03*
X167200000Y-104600000D03*
X167199999Y-103330000D03*
X161920001Y-103330000D03*
X161920000Y-104600000D03*
X161920000Y-105870000D03*
X161920001Y-107140000D03*
D28*
X149050001Y-84750000D03*
X150949999Y-84750000D03*
D29*
X137250000Y-85187501D03*
X137250000Y-83612499D03*
D30*
X172350000Y-93200000D03*
X172350000Y-93850000D03*
X172350000Y-94500000D03*
X174250000Y-94500000D03*
X174250000Y-93850000D03*
X174250000Y-93200000D03*
D22*
X147100000Y-76950000D03*
X147100000Y-79250000D03*
D23*
X153400000Y-79250000D03*
D22*
X147100000Y-81550000D03*
D19*
X173343488Y-79343345D03*
D29*
X137249999Y-89362501D03*
X137249999Y-87787499D03*
D31*
X159425000Y-82845000D03*
X159425000Y-84115000D03*
X159425000Y-85385000D03*
X159425000Y-86655000D03*
X170075000Y-86655000D03*
X170075000Y-85385000D03*
X170075000Y-84115000D03*
X170075000Y-82845000D03*
D32*
X161999999Y-89387498D03*
X161999999Y-91112500D03*
D19*
X141523683Y-111163150D03*
D33*
X139700000Y-90660000D03*
X139700000Y-103360000D03*
X152400000Y-103360000D03*
X156400000Y-75000000D03*
X165100000Y-113520000D03*
X144780000Y-108440000D03*
X154940000Y-113520000D03*
X180340000Y-98280000D03*
X175260000Y-105900000D03*
X160020000Y-93200000D03*
X177800000Y-83040000D03*
X167640000Y-95740000D03*
X152400000Y-93200000D03*
X147800000Y-84400000D03*
X165900000Y-79800000D03*
X160020000Y-95740000D03*
X172720000Y-85580000D03*
X142240000Y-100820000D03*
X160020000Y-75420000D03*
X137000000Y-90600000D03*
X143400000Y-95000000D03*
X152400000Y-83040000D03*
X167640000Y-77960000D03*
X139700000Y-98280000D03*
X154940000Y-72880000D03*
X160800000Y-91400000D03*
X144780000Y-100820000D03*
X165100000Y-72880000D03*
X157200000Y-86600000D03*
X162560000Y-113520000D03*
X137000000Y-86400000D03*
X157480000Y-105900000D03*
X162560000Y-75420000D03*
X137160000Y-103360000D03*
X152400000Y-116060000D03*
X145000000Y-76600000D03*
X142600000Y-87600000D03*
X160020000Y-88120000D03*
X149860000Y-72880000D03*
X165100000Y-116060000D03*
X165100000Y-75420000D03*
X142240000Y-85580000D03*
X177800000Y-103360000D03*
X154940000Y-108440000D03*
X149860000Y-113520000D03*
X154940000Y-98280000D03*
X177800000Y-85580000D03*
X149860000Y-101600000D03*
X147320000Y-98280000D03*
X162560000Y-77960000D03*
X160020000Y-98280000D03*
X169000000Y-100000000D03*
X142240000Y-90660000D03*
X162560000Y-80500000D03*
X170180000Y-77960000D03*
X154940000Y-116060000D03*
X175260000Y-85580000D03*
X167640000Y-75420000D03*
X157480000Y-95740000D03*
X134620000Y-90660000D03*
X172720000Y-88120000D03*
X162900000Y-94400000D03*
X177800000Y-105900000D03*
X139700000Y-105900000D03*
X157480000Y-108440000D03*
X167640000Y-80500000D03*
X152400000Y-113520000D03*
X149860000Y-95740000D03*
X149860000Y-116060000D03*
X167640000Y-113520000D03*
X160020000Y-116060000D03*
X175260000Y-83040000D03*
X165100000Y-77960000D03*
X134620000Y-100820000D03*
X144780000Y-103360000D03*
X147320000Y-116060000D03*
X147320000Y-93200000D03*
X147320000Y-113520000D03*
X175260000Y-108440000D03*
X149860000Y-93200000D03*
X172720000Y-83040000D03*
X142240000Y-98280000D03*
X147320000Y-88120000D03*
X149800000Y-109300000D03*
X157480000Y-118600000D03*
X157480000Y-90660000D03*
X139700000Y-108440000D03*
X137160000Y-105900000D03*
X137160000Y-100820000D03*
X171200000Y-94400000D03*
X137160000Y-98280000D03*
X165100000Y-95740000D03*
X170180000Y-75420000D03*
X148500000Y-74900000D03*
X144780000Y-98280000D03*
X170600000Y-108800000D03*
X142240000Y-103360000D03*
X144780000Y-110980000D03*
X177800000Y-88120000D03*
X147320000Y-95740000D03*
X157480000Y-93200000D03*
X162560000Y-72880000D03*
X167640000Y-116060000D03*
X137160000Y-93200000D03*
X170180000Y-80500000D03*
X180340000Y-93200000D03*
X139800000Y-96200000D03*
X157480000Y-100820000D03*
X157480000Y-88120000D03*
X154940000Y-103360000D03*
X162560000Y-95740000D03*
X160020000Y-72880000D03*
X160020000Y-113520000D03*
X169400000Y-89000000D03*
X175260000Y-88120000D03*
X162560000Y-116060000D03*
X144780000Y-113520000D03*
X149860000Y-77960000D03*
X154940000Y-118600000D03*
X152400000Y-108440000D03*
X160020000Y-118600000D03*
X175000000Y-91800000D03*
X160020000Y-80500000D03*
X144780000Y-105900000D03*
X157480000Y-72880000D03*
X134620000Y-95740000D03*
X157480000Y-113520000D03*
X142240000Y-108440000D03*
X142240000Y-105900000D03*
X152400000Y-72880000D03*
X157480000Y-98280000D03*
X152400000Y-75420000D03*
X139700000Y-100820000D03*
X146300000Y-85500000D03*
X170180000Y-113520000D03*
X157480000Y-116060000D03*
X149400000Y-100000000D03*
X158800000Y-79000000D03*
X158400000Y-104200000D03*
X178800000Y-95200000D03*
X172000000Y-106000000D03*
M02*
